<?xml version="1.0" standalone="no"?>
<!DOCTYPE svg PUBLIC "-//W3C//DTD SVG 1.1//EN" "http://www.w3.org/Graphics/SVG/1.1/DTD/svg11.dtd" >
<svg xmlns="http://www.w3.org/2000/svg" xmlns:xlink="http://www.w3.org/1999/xlink" version="1.1">
<metadata>
Created by FontForge 20170731 at Thu Sep 10 14:38:03 2015
 By ,,,
Copyright 2014 by (URW)++ Design &#38; Development GmbH
</metadata>
<defs>
<font id="URWGeometric-Thin" horiz-adv-x="387" >
  <font-face 
    font-family="URW Geometric Thin"
    font-weight="250"
    font-stretch="normal"
    units-per-em="1000"
    panose-1="0 0 3 0 0 0 0 0 0 0"
    ascent="667"
    descent="-333"
    x-height="443"
    cap-height="667"
    bbox="-113 -242 1204 1035"
    underline-thickness="21"
    underline-position="-138"
    unicode-range="U+0020-FB04"
  />
<missing-glyph horiz-adv-x="270" 
 />
    <glyph glyph-name="afii61352" unicode="Nr&#x2e;" horiz-adv-x="1050" 
d="M845 676q55 0 94 -40t39 -97q0 -58 -39 -97.5t-96 -39.5q-58 0 -97 39.5t-39 98.5q0 58 39.5 97t98.5 39zM841 651q-47 0 -77 -31.5t-30 -80.5t30.5 -80.5t78.5 -31.5q47 0 77.5 32t30.5 81t-30.5 80t-79.5 31zM723 298v25h238v-25h-238zM118 637v-637h-28v667h38
l467 -637v637h28v-667h-38z" />
    <glyph glyph-name="ff" unicode="ff" horiz-adv-x="466" 
d="M92 443v85q0 134 86 134q13 0 28 -5v-25q-15 3 -24 3q-34 0 -48.5 -25t-14.5 -82v-85h89v-25h-89v-418h-27v418h-50v25h50zM320 443v95q0 134 86 134q13 0 28 -5v-25q-15 3 -24 3q-34 0 -48.5 -25t-14.5 -82v-95h89v-25h-89v-418h-27v418h-50v25h50z" />
    <glyph glyph-name="fi" unicode="fi" horiz-adv-x="401" 
d="M92 443v95q0 134 86 134q13 0 28 -5v-25q-15 3 -24 3q-34 0 -48.5 -25t-14.5 -82v-95h89v-25h-89v-418h-27v418h-50v25h50zM329 443v-443h-27v443h27zM315 613q10 0 17.5 -7.5t7.5 -17.5q0 -11 -7.5 -18.5t-17.5 -7.5t-17.5 8t-7.5 18t7.5 17.5t17.5 7.5z" />
    <glyph glyph-name="fl" unicode="fl" horiz-adv-x="402" 
d="M92 443v95q0 134 86 134q13 0 28 -5v-25q-15 3 -24 3q-34 0 -48.5 -25t-14.5 -82v-95h89v-25h-89v-418h-27v418h-50v25h50zM330 0h-27v667h27v-667z" />
    <glyph glyph-name="ffi" unicode="ffi" horiz-adv-x="630" 
d="M92 443v85q0 134 86 134q13 0 28 -5v-25q-15 3 -24 3q-34 0 -48.5 -25t-14.5 -82v-85h89v-25h-89v-418h-27v418h-50v25h50zM320 443v95q0 134 86 134q13 0 28 -5v-25q-15 3 -24 3q-34 0 -48.5 -25t-14.5 -82v-95h89v-25h-89v-418h-27v418h-50v25h50zM557 443v-443h-27
v443h27zM544 613q10 0 17.5 -7.5t7.5 -17.5q0 -11 -7.5 -18.5t-17.5 -7.5t-17.5 8t-7.5 18t7.5 17.5t17.5 7.5z" />
    <glyph glyph-name="ffl" unicode="ffl" horiz-adv-x="631" 
d="M92 443v85q0 134 86 134q13 0 28 -5v-25q-15 3 -24 3q-34 0 -48.5 -25t-14.5 -82v-85h89v-25h-89v-418h-27v418h-50v25h50zM320 443v95q0 134 86 134q13 0 28 -5v-25q-15 3 -24 3q-34 0 -48.5 -25t-14.5 -82v-95h89v-25h-89v-418h-27v418h-50v25h50zM558 0h-27v667h27
v-667z" />
    <glyph glyph-name=".notdef" horiz-adv-x="270" 
 />
    <glyph glyph-name=".null" horiz-adv-x="0" 
 />
    <glyph glyph-name="nonmarkingreturn" horiz-adv-x="333" 
 />
    <glyph glyph-name="space" unicode=" " horiz-adv-x="270" 
 />
    <glyph glyph-name="exclam" unicode="!" horiz-adv-x="250" 
d="M113 162l-4 505h32l-4 -505h-24zM125 44q10 0 17.5 -7.5t7.5 -17.5q0 -11 -7.5 -18.5t-17.5 -7.5t-17.5 8t-7.5 18t7.5 17.5t17.5 7.5z" />
    <glyph glyph-name="quotedbl" unicode="&#x22;" horiz-adv-x="281" 
d="M77 450h-19l-5 217h29zM222 450h-19l-5 217h29z" />
    <glyph glyph-name="numbersign" unicode="#" horiz-adv-x="587" 
d="M145 226l43 214h-80l5 21h79l42 207l22 -5l-40 -202h208l42 207l22 -5l-41 -202h80l-5 -21h-79l-43 -214h79l-4 -21h-80l-41 -206l-22 5l40 201h-208l-42 -206l-22 5l41 201h-81l4 21h81zM168 226h209l43 214h-209z" />
    <glyph glyph-name="dollar" unicode="$" horiz-adv-x="553" 
d="M268 675v92h28v-92q85 -6 136 -78l-22 -15q-55 68 -132 68q-65 0 -109 -40.5t-44 -100.5q0 -88 118 -134l69 -27q76 -30 111.5 -70.5t35.5 -97.5q0 -70 -46 -122.5t-117 -63.5v-97h-28v94h-3h-3q-65 -1 -116.5 38t-68.5 102l27 7q42 -120 161 -120q69 0 117.5 47
t48.5 114q0 51 -31 84.5t-107 63.5l-66 26q-129 51 -129 156q0 69 47 115.5t123 50.5z" />
    <glyph glyph-name="percent" unicode="%" horiz-adv-x="906" 
d="M700 401q146 0 146 -202q0 -104 -36 -153.5t-112 -49.5q-144 0 -144 205q0 200 146 200zM700 374q-117 0 -117 -178q0 -84 30 -128.5t87 -44.5q117 0 117 176q0 175 -117 175zM634 668l18 -10l-381 -659l-17 10zM206 672q146 0 146 -202q0 -104 -36 -153.5t-112 -49.5
q-144 0 -144 205q0 200 146 200zM206 645q-117 0 -117 -178q0 -84 30 -128.5t87 -44.5q117 0 117 176q0 175 -117 175z" />
    <glyph glyph-name="ampersand" unicode="&#x26;" horiz-adv-x="615" 
d="M273 377l209 -254q34 51 59 126l24 -7q-29 -86 -66 -140l84 -102h-34l-66 82q-81 -91 -199 -91q-88 0 -146 49.5t-58 124.5q0 80 82 155q14 13 58 46l19 15l-19 23q-67 82 -67 147q0 54 36.5 89.5t91.5 35.5q53 0 88.5 -34t35.5 -85q0 -41 -26.5 -79.5t-85.5 -85.5z
M258 396l15 11q56 44 81.5 80t25.5 73q0 40 -28.5 67t-71.5 27q-44 0 -73 -28t-29 -70q0 -61 67 -145zM466 102l-212 260l-11 -8q-3 -3 -30 -22q-106 -80 -106 -164q0 -65 51.5 -108t127.5 -43q108 0 180 85z" />
    <glyph glyph-name="quotesingle" unicode="'" horiz-adv-x="135" 
d="M77 450h-19l-5 217h29z" />
    <glyph glyph-name="parenleft" unicode="(" horiz-adv-x="268" 
d="M170 721l25 -11q-74 -191 -74 -434q0 -241 74 -434l-25 -11q-33 74 -55 200t-22 245q0 120 21.5 245.5t55.5 199.5z" />
    <glyph glyph-name="parenright" unicode=")" horiz-adv-x="268" 
d="M73 710l24 11q34 -74 56 -199t22 -246q0 -120 -22 -245.5t-56 -199.5l-24 11q74 194 74 434q0 241 -74 434z" />
    <glyph glyph-name="asterisk" unicode="*" horiz-adv-x="438" 
d="M210 579l-5 133h28l-5 -133l124 46l9 -27l-128 -36l83 -104l-23 -16l-74 110l-73 -111l-23 17l82 104l-128 36l9 27z" />
    <glyph glyph-name="plus" unicode="+" horiz-adv-x="556" 
d="M266 324v200h24v-200h198v-23h-198v-200h-24v200h-199v23h199z" />
    <glyph glyph-name="comma" unicode="," horiz-adv-x="200" 
d="M106 70l29 -11l-84 -198l-17 6z" />
    <glyph glyph-name="hyphen" unicode="-" horiz-adv-x="235" 
d="M47 242h142v-24h-142v24z" />
    <glyph glyph-name="period" unicode="." horiz-adv-x="198" 
d="M99 44q10 0 17.5 -7.5t7.5 -17.5q0 -11 -7.5 -18.5t-17.5 -7.5t-17.5 8t-7.5 18t7.5 17.5t17.5 7.5z" />
    <glyph glyph-name="slash" unicode="/" horiz-adv-x="525" 
d="M440 668l20 -12l-375 -657l-20 13z" />
    <glyph glyph-name="zero" unicode="0" horiz-adv-x="567" 
d="M280 676q122 0 179.5 -83.5t57.5 -258.5q0 -174 -57.5 -258.5t-175.5 -84.5q-120 0 -177 84.5t-57 262.5q0 338 230 338zM284 649q-206 0 -206 -319q0 -152 53 -232t153 -80q101 0 153 80.5t52 235.5q0 154 -52.5 234.5t-152.5 80.5z" />
    <glyph glyph-name="one" unicode="1" horiz-adv-x="273" 
d="M183 0h-28v642l-125 -73l-13 23l127 75h39v-667z" />
    <glyph glyph-name="two" unicode="2" horiz-adv-x="480" 
d="M55 0v36l252 277q91 101 91 182q0 67 -45.5 111t-113.5 44q-116 0 -157 -123l-26 8q20 68 69 104.5t120 36.5q77 0 129 -51.5t52 -128.5q0 -91 -105 -206l-239 -264h362v-26h-389z" />
    <glyph glyph-name="three" unicode="3" horiz-adv-x="457" 
d="M201 363h32q56 0 93.5 41t37.5 103q0 63 -42 103t-109 40q-79 0 -132 -65l-22 13q59 78 155 78q79 0 128 -46.5t49 -121.5q0 -105 -91 -155q107 -54 107 -172q0 -85 -52.5 -137.5t-138.5 -52.5q-70 0 -120 34t-70 96l27 7q23 -58 61 -84t100 -26q75 0 120 44t45 117
q0 71 -41 115t-106 44h-31v25z" />
    <glyph glyph-name="four" unicode="4" horiz-adv-x="515" 
d="M346 655l-278 -472h287v188h28v-188h87v-26h-87v-157h-28v157h-315v31l283 482z" />
    <glyph glyph-name="five" unicode="5" horiz-adv-x="504" 
d="M172 641l-48 -245q55 28 111 28q91 0 152 -61t61 -153q0 -95 -59.5 -157t-150.5 -62q-122 0 -188 95l22 16q56 -84 165 -84q86 0 132 52q51 54 51 137q0 81 -54 136t-134 55q-68 0 -120 -45l-24 6l61 308h264v-26h-241z" />
    <glyph glyph-name="six" unicode="6" horiz-adv-x="537" 
d="M321 668l22 -17l-184 -264q48 26 107 26q93 0 153.5 -57.5t60.5 -145.5q0 -91 -61.5 -155t-150.5 -64t-151.5 63.5t-62.5 154.5q0 76 49 146zM267 388q-79 0 -132 -52.5t-53 -130.5t54 -133t130 -55q79 0 132.5 55t53.5 136q0 77 -53 128.5t-132 51.5z" />
    <glyph glyph-name="seven" unicode="7" horiz-adv-x="444" 
d="M397 641h-370v26h397v-32l-331 -636l-25 14z" />
    <glyph glyph-name="eight" unicode="8" horiz-adv-x="498" 
d="M166 355q-93 53 -93 152q0 73 50 121t126 48q77 0 126.5 -48t49.5 -121q0 -97 -93 -152q116 -62 116 -175q0 -83 -56 -136t-143 -53t-143 53t-56 136q0 113 116 175zM247 338q-73 0 -121 -45.5t-48 -115.5q0 -68 49 -113.5t122 -45.5t122 45.5t49 113.5q0 71 -48.5 116
t-124.5 45zM248 650q-64 0 -106 -41t-42 -104q0 -59 43 -100t106 -41q64 0 106.5 41t42.5 103q0 61 -42.5 101.5t-107.5 40.5z" />
    <glyph glyph-name="nine" unicode="9" horiz-adv-x="539" 
d="M215 -1l-21 17l183 263q-46 -23 -106 -23q-94 0 -154 57t-60 145q0 91 62 154.5t150 63.5q91 0 152.5 -62.5t61.5 -155.5q0 -76 -50 -147zM271 650q-79 0 -132.5 -55t-53.5 -136q0 -78 52 -128t133 -50q79 0 132 52.5t53 129.5q0 79 -53.5 133t-130.5 54z" />
    <glyph glyph-name="colon" unicode=":" horiz-adv-x="198" 
d="M99 44q10 0 17.5 -7.5t7.5 -17.5q0 -11 -7.5 -18.5t-17.5 -7.5t-17.5 8t-7.5 18t7.5 17.5t17.5 7.5zM99 424q10 0 17.5 -7.5t7.5 -17.5q0 -11 -7.5 -18.5t-17.5 -7.5t-17.5 8t-7.5 18t7.5 17.5t17.5 7.5z" />
    <glyph glyph-name="semicolon" unicode=";" horiz-adv-x="202" 
d="M106 70l29 -11l-84 -198l-17 6zM119 383q10 0 17.5 -7.5t7.5 -17.5q0 -11 -7.5 -18.5t-17.5 -7.5t-17.5 8t-7.5 18t7.5 17.5t17.5 7.5z" />
    <glyph glyph-name="less" unicode="&#x3c;" horiz-adv-x="536" 
d="M464 541v-30l-381 -174l381 -175v-30l-393 185v40z" />
    <glyph glyph-name="equal" unicode="=" horiz-adv-x="556" 
d="M461 259v-24h-366v24h366zM461 390v-24h-366v24h366z" />
    <glyph glyph-name="greater" unicode="&#x3e;" horiz-adv-x="536" 
d="M71 132v31l381 174l-381 174v30l393 -185v-39z" />
    <glyph glyph-name="question" unicode="?" horiz-adv-x="406" 
d="M176 162v51q0 45 9 65t43 49l46 40q77 66 77 146q0 61 -41 99.5t-106 38.5q-46 0 -79 -17t-62 -55l-20 17q56 80 157 80q83 0 131 -44t48 -120q0 -86 -76 -153l-57 -50q-30 -28 -36.5 -44t-6.5 -61v-42h-27zM189 44q10 0 17.5 -7.5t7.5 -17.5t-7.5 -18t-17.5 -8
t-17.5 7.5t-7.5 18.5q0 10 7.5 17.5t17.5 7.5z" />
    <glyph glyph-name="at" unicode="@" horiz-adv-x="919" 
d="M621 511l-45 -353h43q88 0 136.5 58t48.5 163q0 113 -60 196q-82 111 -249 111q-170 0 -275 -100t-105 -263q0 -166 115 -262q94 -80 262 -80q109 0 218 33l8 -23q-109 -33 -229 -33q-207 0 -310 115q-89 100 -89 249q0 173 110.5 280t291.5 107q154 0 245.5 -89.5
t91.5 -238.5q0 -126 -67 -190q-32 -31 -70 -43.5t-100 -12.5h-141q-72 0 -117.5 47t-45.5 121q0 60 28.5 109.5t77.5 73.5q49 25 125 25h102zM551 158l42 330h-84q-91 0 -143 -50t-52 -136q0 -66 39.5 -105t105.5 -39h92z" />
    <glyph glyph-name="A" unicode="A" horiz-adv-x="604" 
d="M127 202l-81 -202h-29l270 667h30l270 -667h-29l-81 202h-350zM138 228h328l-164 411z" />
    <glyph glyph-name="B" unicode="B" horiz-adv-x="516" 
d="M90 0v667h121q109 0 157 -37q61 -48 61 -129q0 -55 -28.5 -96t-79.5 -58q69 -17 106 -62t37 -111q0 -80 -63 -131q-30 -24 -64 -33.5t-90 -9.5h-157zM118 355h106q49 0 76.5 7.5t51.5 26.5q51 41 51 110q0 75 -53 112q-41 30 -126 30h-106v-286zM118 26h123q93 0 140 36
q56 44 56 116q0 40 -19.5 74t-52.5 53q-46 25 -134 25h-113v-304z" />
    <glyph glyph-name="C" unicode="C" horiz-adv-x="653" 
d="M605 586l-19 -20q-84 83 -199 83q-129 0 -217.5 -91.5t-88.5 -224.5t89 -224t218 -91q111 0 202 85l19 -19q-94 -93 -220 -93q-141 0 -239 99.5t-98 242.5t98 243t238 100q121 0 217 -90z" />
    <glyph glyph-name="D" unicode="D" horiz-adv-x="619" 
d="M90 667h119q166 0 261.5 -89t95.5 -244t-95.5 -244.5t-261.5 -89.5h-119v667zM118 640v-613h95q148 0 236.5 83.5t88.5 223.5q0 139 -88.5 222.5t-236.5 83.5h-95z" />
    <glyph glyph-name="E" unicode="E" horiz-adv-x="466" 
d="M403 641h-285v-290h254v-26h-254v-298h296v-27h-324v667h313v-26z" />
    <glyph glyph-name="F" unicode="F" horiz-adv-x="425" 
d="M379 641h-261v-290h238v-26h-238v-325h-28v667h289v-26z" />
    <glyph glyph-name="G" unicode="G" horiz-adv-x="729" 
d="M439 321h236v-15q0 -144 -77.5 -229.5t-207.5 -85.5q-141 0 -239.5 99.5t-98.5 241.5q0 144 97.5 244t239.5 100q121 0 216 -90l-19 -20q-83 83 -199 83q-130 0 -218 -91.5t-88 -225.5q0 -132 89 -223t219 -91q82 0 145.5 41.5t91.5 113.5q18 47 21 122h-208v26z" />
    <glyph glyph-name="H" unicode="H" horiz-adv-x="650" 
d="M118 351h414v316h28v-667h-28v325h-414v-325h-28v667h28v-316z" />
    <glyph glyph-name="I" unicode="I" horiz-adv-x="208" 
d="M118 667v-667h-28v667h28z" />
    <glyph glyph-name="J" unicode="J" horiz-adv-x="382" 
d="M292 667v-473q0 -203 -150 -203q-65 0 -128 55l16 20q58 -48 111 -48q123 0 123 176v473h28z" />
    <glyph glyph-name="K" unicode="K" horiz-adv-x="544" 
d="M268 398l259 -398h-33l-244 377l-132 -147v-230h-28v667h28v-401l358 401h34z" />
    <glyph glyph-name="L" unicode="L" horiz-adv-x="416" 
d="M118 667v-640h275v-27h-303v667h28z" />
    <glyph glyph-name="M" unicode="M" horiz-adv-x="820" 
d="M393 167l-275 472v-639h-28v667h41l279 -477l279 477h41v-667h-28v639l-275 -472h-34z" />
    <glyph glyph-name="N" unicode="N" horiz-adv-x="713" 
d="M118 637v-637h-28v667h38l467 -637v637h28v-667h-38z" />
    <glyph glyph-name="O" unicode="O" horiz-adv-x="767" 
d="M384 676q136 0 233.5 -101t97.5 -242t-98 -241.5t-236 -100.5q-136 0 -232.5 102t-96.5 246q0 136 99 236.5t233 100.5zM381 649q-126 0 -213 -93t-87 -228q0 -126 90 -218t213 -92q124 0 213 92.5t89 222.5q0 133 -88.5 224.5t-216.5 91.5z" />
    <glyph glyph-name="P" unicode="P" horiz-adv-x="459" 
d="M118 289v-289h-28v667h119q112 0 162 -46q57 -54 57 -141q0 -90 -57 -144q-50 -47 -162 -47h-91zM118 315h101q90 0 134 43q47 44 47 122q0 77 -47 119q-43 42 -134 42h-101v-326z" />
    <glyph glyph-name="Q" unicode="Q" horiz-adv-x="765" 
d="M586 63l68 -71l-17 -17l-71 74q-84 -58 -183 -58q-136 0 -233.5 101t-97.5 241q0 141 98 242t234 101t233.5 -101t97.5 -241q0 -165 -129 -271zM547 69l-59 61l17 17l62 -64q56 44 87.5 109.5t31.5 140.5q0 131 -88.5 223.5t-213.5 92.5q-126 0 -214.5 -92.5
t-88.5 -223.5q0 -130 89 -222.5t213 -92.5q90 0 164 51z" />
    <glyph glyph-name="R" unicode="R" horiz-adv-x="512" 
d="M313 300l163 -300h-31l-159 294q-38 -5 -77 -5h-91v-289h-28v667h119q123 0 176 -48q61 -55 61 -143q0 -66 -36 -114t-97 -62zM118 315h101q97 0 147 40q52 44 52 121t-52 123q-49 42 -147 42h-101v-326z" />
    <glyph glyph-name="S" unicode="S" horiz-adv-x="491" 
d="M406 597l-23 -15q-55 68 -131 68q-65 0 -109 -40.5t-44 -100.5q0 -88 118 -134l68 -27q77 -30 112.5 -70.5t35.5 -97.5q0 -80 -57 -134.5t-140 -54.5q-68 0 -116 36t-70 104l28 7q41 -120 160 -120q70 0 118.5 47t48.5 114q0 51 -31 84t-108 64l-65 26q-129 51 -129 156
q0 73 51.5 120t130.5 47q92 0 152 -79z" />
    <glyph glyph-name="T" unicode="T" horiz-adv-x="428" 
d="M228 641v-641h-28v641h-183v26h394v-26h-183z" />
    <glyph glyph-name="U" unicode="U" horiz-adv-x="634" 
d="M118 667v-415q0 -59 6 -90t22 -57q24 -39 71 -63t100 -24t100 24t71 63q16 26 22 57t6 90v415h28v-437q0 -99 -41 -151q-31 -41 -81 -64.5t-105 -23.5t-105 23.5t-82 64.5q-40 52 -40 151v437h28z" />
    <glyph glyph-name="V" unicode="V" horiz-adv-x="535" 
d="M268 28l221 639h29l-232 -667h-36l-233 667h30z" />
    <glyph glyph-name="W" unicode="W" horiz-adv-x="872" 
d="M436 639l-180 -639h-38l-201 667h29l191 -639l179 639h40l179 -639l192 639h29l-202 -667h-37z" />
    <glyph glyph-name="X" unicode="X" horiz-adv-x="495" 
d="M248 374l180 293h29l-194 -316l216 -351h-32l-200 327l-199 -327h-31l215 350l-194 317h31z" />
    <glyph glyph-name="Y" unicode="Y" horiz-adv-x="472" 
d="M222 281l-212 386h31l195 -359l195 359h30l-211 -386v-281h-28v281z" />
    <glyph glyph-name="Z" unicode="Z" horiz-adv-x="507" 
d="M58 27h414v-27h-439v37l408 604h-376v26h399v-36z" />
    <glyph glyph-name="bracketleft" unicode="[" horiz-adv-x="277" 
d="M121 694v-836h101v-26h-129v888h129v-26h-101z" />
    <glyph glyph-name="backslash" unicode="\" horiz-adv-x="525" 
d="M86 668l374 -656l-20 -13l-375 657z" />
    <glyph glyph-name="bracketright" unicode="]" horiz-adv-x="277" 
d="M156 694h-101v26h129v-888h-129v26h101v836z" />
    <glyph glyph-name="asciicircum" unicode="^" horiz-adv-x="451" 
d="M249 669l167 -265h-36l-156 244l-155 -244h-35l166 265h49z" />
    <glyph glyph-name="underscore" unicode="_" horiz-adv-x="475" 
d="M10 -87h455v-21h-455v21z" />
    <glyph glyph-name="grave" unicode="`" horiz-adv-x="476" 
d="M142 636l32 18l78 -107l-14 -8z" />
    <glyph glyph-name="a" unicode="a" horiz-adv-x="554" 
d="M481 0h-27v102q-23 -34 -39.5 -51t-40.5 -31q-49 -29 -108 -29q-93 0 -157 67t-64 164t64 163.5t157 66.5q59 0 108 -29q24 -14 40.5 -31t39.5 -51v102h27v-443zM263 426q-82 0 -135.5 -58t-53.5 -146q0 -89 54 -147t138 -58q83 0 136.5 58t53.5 149q0 89 -54 145.5
t-139 56.5z" />
    <glyph glyph-name="b" unicode="b" horiz-adv-x="554" 
d="M73 0v667h27v-326q69 111 188 111q93 0 157 -66.5t64 -163.5t-64 -164t-157 -67q-120 0 -188 111v-102h-27zM284 426q-80 0 -133 -58t-53 -146q0 -90 53.5 -147.5t136.5 -57.5q84 0 138 58t54 149q0 89 -55 145.5t-141 56.5z" />
    <glyph glyph-name="c" unicode="c" horiz-adv-x="452" 
d="M416 392l-18 -19q-54 53 -130 53q-86 0 -140 -57t-54 -147q0 -91 54.5 -148t140.5 -57q78 0 133 56l18 -19q-64 -63 -151 -63q-96 0 -160 66.5t-64 164.5t64 164t160 66q81 0 147 -60z" />
    <glyph glyph-name="d" unicode="d" horiz-adv-x="554" 
d="M481 0h-27v102q-68 -111 -188 -111q-93 0 -157 67t-64 164t64 163.5t157 66.5q119 0 188 -111v326h27v-667zM263 426q-82 0 -135.5 -58t-53.5 -146q0 -89 54 -147t138 -58q83 0 136.5 58t53.5 149q0 89 -54 145.5t-139 56.5z" />
    <glyph glyph-name="e" unicode="e" horiz-adv-x="501" 
d="M456 210h-383q5 -87 55.5 -140t128.5 -53q98 0 157 81l25 -11q-71 -96 -181 -96q-91 0 -152 66t-61 165q0 97 60 163.5t147 66.5q62 0 112 -35t73 -96q18 -43 19 -111zM73 233h356q-6 52 -18 81q-19 52 -61.5 82t-96.5 30q-76 0 -125.5 -53.5t-54.5 -139.5z" />
    <glyph glyph-name="f" unicode="f" horiz-adv-x="237" 
d="M92 443v95q0 134 86 134q13 0 28 -5v-25q-15 3 -24 3q-34 0 -48.5 -25t-14.5 -82v-95h89v-25h-89v-418h-27v418h-50v25h50z" />
    <glyph glyph-name="g" unicode="g" horiz-adv-x="554" 
d="M481 443v-451q0 -106 -61.5 -170t-164.5 -64q-110 0 -186 83l19 19q67 -76 167 -76q92 0 145.5 56t53.5 152v21v89q-69 -111 -188 -111q-93 0 -157 67t-64 164t64 163.5t157 66.5q119 0 188 -111v102h27zM263 426q-82 0 -135.5 -58t-53.5 -146q0 -89 54.5 -147t137.5 -58
t136.5 58t53.5 149q0 89 -54 145.5t-139 56.5z" />
    <glyph glyph-name="h" unicode="h" horiz-adv-x="510" 
d="M100 667v-307q51 92 164 92q81 0 129 -53q44 -48 44 -157v-242h-27v232q0 106 -39 149q-42 45 -109 45q-81 0 -127 -55q-35 -45 -35 -149v-222h-27v667h27z" />
    <glyph glyph-name="i" unicode="i" horiz-adv-x="173" 
d="M100 443v-443h-27v443h27zM86 613q10 0 17.5 -7.5t7.5 -17.5q0 -11 -7.5 -18.5t-17.5 -7.5t-17.5 8t-7.5 18t7.5 17.5t17.5 7.5z" />
    <glyph glyph-name="j" unicode="j" horiz-adv-x="182" 
d="M-5 -233v25q15 -3 24 -3q34 0 48.5 25t14.5 81v548h27v-548q0 -133 -86 -133q-13 0 -28 5zM95 613q10 0 17.5 -7.5t7.5 -17.5q0 -11 -7.5 -18.5t-17.5 -7.5t-17.5 8t-7.5 18t7.5 17.5t17.5 7.5z" />
    <glyph glyph-name="k" unicode="k" horiz-adv-x="445" 
d="M227 269l206 -269h-33l-191 251l-109 -110v-141h-27v667h27v-493l266 269h34z" />
    <glyph glyph-name="l" unicode="l" horiz-adv-x="175" 
d="M101 0h-27v667h27v-667z" />
    <glyph glyph-name="m" unicode="m" horiz-adv-x="787" 
d="M100 443v-83q42 92 150 92q105 0 146 -104q48 104 160 104q74 0 119 -53q39 -49 39 -157v-242h-27v232q0 106 -35 149q-37 45 -98 45q-75 0 -114 -55q-32 -45 -32 -149v-222h-27v232q0 106 -35 149q-38 45 -99 45q-78 0 -119 -61q-28 -43 -28 -143v-222h-27v443h27z" />
    <glyph glyph-name="n" unicode="n" horiz-adv-x="510" 
d="M100 443v-83q51 92 164 92q81 0 129 -53q44 -48 44 -157v-242h-27v232q0 106 -39 149q-42 45 -109 45q-81 0 -127 -55q-35 -45 -35 -149v-222h-27v443h27z" />
    <glyph glyph-name="o" unicode="o" horiz-adv-x="533" 
d="M270 452q91 0 154.5 -67t63.5 -163q0 -97 -64 -164t-157 -67q-94 0 -158 67t-64 166q0 97 65 162.5t160 65.5zM263 426q-82 0 -135.5 -58t-53.5 -146q0 -89 54 -147t139 -58q84 0 138 58t54 149q0 89 -55 145.5t-141 56.5z" />
    <glyph glyph-name="p" unicode="p" horiz-adv-x="554" 
d="M73 -233v676h27v-102q69 111 188 111q93 0 157 -66.5t64 -163.5t-64 -164t-157 -67q-120 0 -188 111v-335h-27zM284 426q-80 0 -133 -58t-53 -146q0 -90 53.5 -147.5t136.5 -57.5q84 0 138 58t54 149q0 89 -55 145.5t-141 56.5z" />
    <glyph glyph-name="q" unicode="q" horiz-adv-x="554" 
d="M481 -233h-27v335q-68 -111 -188 -111q-93 0 -157 67t-64 164t64 163.5t157 66.5q119 0 188 -111v102h27v-676zM263 426q-82 0 -135.5 -58t-53.5 -146q0 -89 54 -147t138 -58q83 0 136.5 58t53.5 149q0 89 -54 145.5t-139 56.5z" />
    <glyph glyph-name="r" unicode="r" horiz-adv-x="281" 
d="M100 443v-83q44 83 151 83v-24q-80 -2 -117 -51.5t-34 -150.5v-217h-27v443h27z" />
    <glyph glyph-name="s" unicode="s" horiz-adv-x="361" 
d="M296 394l-23 -12q-37 45 -91 45q-43 0 -71.5 -24.5t-28.5 -62.5t28 -63q14 -11 67 -32l47 -19q93 -36 93 -105q0 -55 -40.5 -92.5t-100.5 -37.5q-90 0 -136 90l24 11q24 -41 50.5 -58.5t64.5 -17.5q47 0 78.5 28.5t31.5 71.5q0 40 -32 66q-14 10 -67 31l-52 20
q-82 33 -82 103q0 50 36.5 83t91.5 33q68 0 112 -58z" />
    <glyph glyph-name="t" unicode="t" horiz-adv-x="234" 
d="M87 418h-55v25h55v116l27 11v-127h80v-25h-80v-290q0 -56 14.5 -81t48.5 -25q9 0 24 3v-25q-15 -5 -28 -5q-86 0 -86 133v290z" />
    <glyph glyph-name="u" unicode="u" horiz-adv-x="510" 
d="M410 0v83q-51 -92 -164 -92q-81 0 -129 53q-44 48 -44 158v241h27v-232q0 -106 39 -149q42 -45 109 -45q81 0 127 55q35 45 35 150v221h27v-443h-27z" />
    <glyph glyph-name="v" unicode="v" horiz-adv-x="440" 
d="M400 443h30l-193 -443h-33l-193 443h30l180 -418z" />
    <glyph glyph-name="w" unicode="w" horiz-adv-x="681" 
d="M175 0l-164 443h30l152 -419l129 419h37l129 -420l153 420h29l-164 -443h-36l-129 413l-130 -413h-36z" />
    <glyph glyph-name="x" unicode="x" horiz-adv-x="404" 
d="M218 232l171 -232h-32l-155 211l-156 -211h-31l171 231l-156 212h31l141 -191l141 191h31z" />
    <glyph glyph-name="y" unicode="y" horiz-adv-x="421" 
d="M194 7l-183 436h30l167 -404l173 404h30l-292 -676h-27z" />
    <glyph glyph-name="z" unicode="z" horiz-adv-x="419" 
d="M67 25h325v-25h-353v29l316 389h-300v25h327v-24v-5z" />
    <glyph glyph-name="braceleft" unicode="{" horiz-adv-x="286" 
d="M55 265v23q34 15 48 42.5t14 77.5v182q-1 72 24.5 101.5t90.5 28.5v-24q-51 -1 -69.5 -22t-17.5 -77v-189q1 -95 -63 -132q64 -37 63 -131v-190q-1 -56 17.5 -77t69.5 -22v-24q-65 -1 -90.5 28.5t-24.5 101.5v183q0 50 -14 77.5t-48 42.5z" />
    <glyph glyph-name="bar" unicode="|" horiz-adv-x="475" 
d="M224 728h27v-904h-27v904z" />
    <glyph glyph-name="braceright" unicode="}" horiz-adv-x="286" 
d="M232 288v-23q-34 -15 -48 -42.5t-14 -77.5v-183q1 -72 -25 -101.5t-90 -28.5v24q51 1 69 22t18 77v190q-3 93 63 131q-66 38 -63 132v189q0 56 -18 77t-69 22v24q64 1 90 -28.5t25 -101.5v-182q0 -50 14 -78t48 -42z" />
    <glyph glyph-name="asciitilde" unicode="~" horiz-adv-x="634" 
d="M113 611l-10 7q27 50 51 69t60 19q32 0 104 -33q48 -21 66 -27t39 -6q31 0 52.5 13.5t44.5 47.5l11 -7q-46 -85 -117 -85q-28 0 -132 46q-45 20 -73 20q-29 0 -51 -14.5t-45 -49.5z" />
    <glyph glyph-name="uni00A0" unicode="&#xa0;" horiz-adv-x="270" 
 />
    <glyph glyph-name="exclamdown" unicode="&#xa1;" horiz-adv-x="250" 
d="M113 321h24l4 -505h-32zM125 490q10 0 17.5 -7.5t7.5 -18.5q0 -10 -7.5 -17.5t-17.5 -7.5t-17.5 7.5t-7.5 18.5q0 10 7.5 17.5t17.5 7.5z" />
    <glyph glyph-name="cent" unicode="&#xa2;" horiz-adv-x="544" 
d="M282 0v104q-88 7 -146 72t-58 158q0 92 56.5 156t147.5 73v104h27v-103q80 -3 140 -60l-18 -19q-56 53 -130 53q-86 0 -140 -57t-54 -147q0 -91 54.5 -148t140.5 -57q80 0 133 56l18 -19q-57 -60 -144 -63v-103h-27z" />
    <glyph glyph-name="sterling" unicode="&#xa3;" horiz-adv-x="552" 
d="M183 319l5 -28q16 -78 16 -104q0 -46 -21 -84t-70 -78h379v-25h-407v36q52 43 72 74.5t20 71.5q0 33 -17 116l-5 21h-70v25h65l-8 38q-9 40 -9 92q0 74 27 121q22 37 65 59t92 22q91 0 145 -79l-22 -15q-51 68 -125 68q-73 0 -114 -47t-41 -131q0 -38 12 -100l6 -28h213
v-25h-208z" />
    <glyph glyph-name="currency" unicode="&#xa4;" horiz-adv-x="721" 
d="M196 489l-94 96l14 14l93 -96q63 61 152 61q88 0 152 -61l93 96l13 -14l-93 -96q56 -64 56 -156q0 -88 -56 -155l93 -96l-13 -14l-93 96q-64 -61 -152 -61q-90 0 -152 61l-94 -96l-13 14l94 96q-57 67 -57 155q0 91 57 156zM357 538q-82 0 -135.5 -58t-53.5 -146
q0 -89 54 -147t139 -58q84 0 138 58t54 149q0 89 -55 145.5t-141 56.5z" />
    <glyph glyph-name="yen" unicode="&#xa5;" horiz-adv-x="572" 
d="M272 250h-173v25h173v6l-61 111h-112v25h98l-137 250h31l195 -360l195 360h30l-137 -250h98v-25h-111l-61 -111v-6h172v-25h-172v-250h-28v250z" />
    <glyph glyph-name="brokenbar" unicode="&#xa6;" horiz-adv-x="475" 
d="M251 388h-27v340h27v-340zM224 164h27v-340h-27v340z" />
    <glyph glyph-name="section" unicode="&#xa7;" horiz-adv-x="519" 
d="M395 69l-10 -11l-15 -18q57 -46 57 -117q0 -76 -49 -120.5t-133 -44.5q-114 0 -182 108l25 16q61 -97 160 -97q66 0 108.5 38.5t42.5 99.5q0 47 -32 81.5t-104 62.5l-64 25q-127 50 -127 154q0 67 48 115q13 13 30 29q-36 25 -51 53.5t-15 68.5q0 70 50.5 117t127.5 47
q91 0 147 -78l-22 -14q-53 66 -128 66q-62 0 -104.5 -40t-42.5 -98q0 -87 115 -132l67 -26q76 -30 110.5 -69.5t34.5 -95.5q0 -68 -44 -120zM215 115l67 -27q39 -15 65 -32q36 37 50 65.5t14 65.5q0 50 -30.5 83t-105.5 62l-64 26q-22 9 -36 17q-76 -54 -76 -128
q0 -87 116 -132z" />
    <glyph glyph-name="dieresis" unicode="&#xa8;" horiz-adv-x="476" 
d="M146 613q10 0 17.5 -7.5t7.5 -17.5q0 -11 -7.5 -18.5t-17.5 -7.5t-17.5 8t-7.5 18t7.5 17.5t17.5 7.5zM330 613q10 0 17.5 -7.5t7.5 -17.5q0 -11 -7.5 -18.5t-17.5 -7.5t-17.5 8t-7.5 18t7.5 17.5t17.5 7.5z" />
    <glyph glyph-name="copyright" unicode="&#xa9;" horiz-adv-x="877" 
d="M611 500l-18 -18q-55 56 -131 56q-84 0 -141.5 -59t-57.5 -146q0 -86 57.5 -145t141.5 -59q73 0 134 57l17 -18q-64 -64 -150 -64q-95 0 -160.5 66.5t-65.5 162.5t66 163t160 67q82 0 148 -63zM445 712q152 0 262 -112t110 -266q0 -158 -110.5 -268.5t-268.5 -110.5
t-268 110.5t-110 268.5t112.5 268t272.5 110zM433 689q-143 0 -246.5 -106t-103.5 -251q0 -147 104 -250.5t251 -103.5q148 0 252 104.5t104 253.5q0 147 -105.5 250t-255.5 103z" />
    <glyph glyph-name="ordfeminine" unicode="&#xaa;" horiz-adv-x="366" 
d="M312 407h-23v52q-41 -57 -109 -57q-58 0 -97.5 39.5t-39.5 97.5t39.5 97.5t97.5 39.5q68 0 109 -57v52h23v-264zM177 654q-47 0 -78.5 -33t-31.5 -82q0 -50 31.5 -82.5t80.5 -32.5t80 32.5t31 83.5q0 50 -31.5 82t-81.5 32z" />
    <glyph glyph-name="guillemotleft" unicode="&#xab;" horiz-adv-x="399" 
d="M222 222l117 -144l-17 -13l-127 157l128 160l16 -13zM74 222l116 -144l-16 -13l-127 157l127 160l16 -13z" />
    <glyph glyph-name="logicalnot" unicode="&#xac;" horiz-adv-x="648" 
d="M572 100h-26v198h-469v26h495v-224z" />
    <glyph glyph-name="uni00AD" unicode="&#xad;" horiz-adv-x="235" 
d="M47 242h142v-24h-142v24z" />
    <glyph glyph-name="registered" unicode="&#xae;" horiz-adv-x="877" 
d="M491 307l108 -199h-30l-105 193q-18 -3 -50 -3h-65v-190h-26v450h91q81 0 120 -33q42 -37 42 -98q0 -43 -22.5 -75t-62.5 -45zM349 322h72q129 0 129 105q0 107 -129 107h-72v-212zM445 712q152 0 262 -112t110 -266q0 -158 -110.5 -268.5t-268.5 -110.5t-268 110.5
t-110 268.5t112.5 268t272.5 110zM433 689q-143 0 -246.5 -106t-103.5 -251q0 -147 104 -250.5t251 -103.5q148 0 252 104.5t104 253.5q0 147 -105.5 250t-255.5 103z" />
    <glyph glyph-name="macron" unicode="&#xaf;" horiz-adv-x="476" 
d="M121 603h235v-25h-235v25z" />
    <glyph glyph-name="degree" unicode="&#xb0;" horiz-adv-x="360" 
d="M215 737q56 0 95.5 -40t39.5 -96q0 -57 -40 -97t-96 -40q-57 0 -97 40t-40 96q0 58 40 97.5t98 39.5zM213 714q-47 0 -80 -33.5t-33 -80.5t33.5 -80t81.5 -33q46 0 79 33.5t33 79.5q0 47 -33.5 80.5t-80.5 33.5z" />
    <glyph glyph-name="plusminus" unicode="&#xb1;" horiz-adv-x="556" 
d="M490 24v-24h-424v24h424zM265 372v200h26v-200h199v-23h-199v-200h-26v200h-199v23h199z" />
    <glyph glyph-name="twosuperior" unicode="&#xb2;" 
d="M72 406v29l152 161q53 54 53 100q0 36 -25.5 60t-63.5 24q-57 0 -81 -48q-6 -13 -9 -24l-27 7q7 23 14 35q33 57 106 57q49 0 82 -31.5t33 -78.5q0 -54 -64 -122l-134 -142h209v-27h-245z" />
    <glyph glyph-name="threesuperior" unicode="&#xb3;" 
d="M175 627h25q31 0 52 22t21 55q0 34 -23.5 55t-61.5 21q-46 0 -78 -39l-24 13l5 6q37 47 97 47q50 0 81.5 -28.5t31.5 -74.5q0 -57 -48 -89q57 -31 57 -99q0 -51 -33.5 -83t-87.5 -32q-92 0 -121 85l27 7q9 -20 12 -24q24 -41 81 -41q43 0 68 23.5t25 63.5q0 38 -22.5 62
t-59.5 24h-24v26z" />
    <glyph glyph-name="acute" unicode="&#xb4;" horiz-adv-x="476" 
d="M335 636l-97 -97l-13 8l77 107z" />
    <glyph glyph-name="mu" unicode="&#xb5;" horiz-adv-x="510" 
d="M100 67v-300h-27v676h27v-232q0 -106 39 -149q42 -45 109 -45q81 0 127 55q35 45 35 150v221h27v-443h-27v83q-51 -92 -164 -92q-100 0 -146 76z" />
    <glyph glyph-name="paragraph" unicode="&#xb6;" horiz-adv-x="642" 
d="M316 237h-34q-87 0 -146 62t-59 153t59 153t146 62h300v-23h-66v-877h-25v877h-150v-877h-25v470z" />
    <glyph glyph-name="periodcentered" unicode="&#xb7;" horiz-adv-x="198" 
d="M99 359q10 0 17.5 -7.5t7.5 -17.5q0 -11 -7.5 -18.5t-17.5 -7.5t-17.5 8t-7.5 18t7.5 17.5t17.5 7.5z" />
    <glyph glyph-name="cedilla" unicode="&#xb8;" horiz-adv-x="476" 
d="M290 -83l-75 -96l-16 8l64 100z" />
    <glyph glyph-name="onesuperior" unicode="&#xb9;" 
d="M223 406h-29v365l-71 -40l-14 24l83 46h31v-395z" />
    <glyph glyph-name="ordmasculine" unicode="&#xba;" horiz-adv-x="361" 
d="M182 676q56 0 95.5 -40t39.5 -97q0 -58 -39.5 -97.5t-97.5 -39.5t-97.5 39.5t-39.5 98.5q0 58 40 97t99 39zM178 654q-48 0 -79.5 -32.5t-31.5 -82.5t32 -82.5t81 -32.5q50 0 81.5 32.5t31.5 83.5q0 50 -32.5 82t-82.5 32z" />
    <glyph glyph-name="guillemotright" unicode="&#xbb;" horiz-adv-x="399" 
d="M326 222l-117 147l16 13l128 -160l-127 -157l-16 13zM177 222l-116 147l16 13l127 -160l-127 -157l-16 13z" />
    <glyph glyph-name="onequarter" unicode="&#xbc;" horiz-adv-x="833" 
d="M551 668l18 -10l-381 -659l-17 10zM644 384l-164 -267h155v108h29v-108h52v-27h-52v-90h-29v90h-189v26l174 283zM184 271h-29v365l-71 -39l-14 23l83 47h31v-396z" />
    <glyph glyph-name="onehalf" unicode="&#xbd;" horiz-adv-x="833" 
d="M551 668l18 -10l-381 -659l-18 10zM498 0v29l152 161q53 54 53 100q0 36 -25.5 60t-63.5 24q-57 0 -81 -49q-5 -10 -9 -23l-27 7q7 23 14 35q33 57 106 57q49 0 82 -31.5t33 -78.5q0 -54 -64 -122l-135 -142h210v-27h-245zM184 271h-29v365l-71 -39l-14 23l83 47h31v-396
z" />
    <glyph glyph-name="threequarters" unicode="&#xbe;" horiz-adv-x="833" 
d="M613 668l18 -10l-381 -659l-18 10zM684 384l-164 -267h155v108h29v-108h52v-27h-52v-90h-29v90h-189v26l174 283zM169 492h25q31 0 52 22t21 55q0 34 -23.5 55t-61.5 21q-45 0 -78 -38l-24 13l5 6q37 46 97 46q50 0 81.5 -28.5t31.5 -73.5q0 -58 -48 -89q57 -32 57 -99
q0 -51 -33.5 -83t-87.5 -32q-94 0 -121 85l27 7q11 -23 12 -25q24 -40 81 -40q43 0 68 23.5t25 63.5q0 38 -22.5 61.5t-59.5 23.5h-24v26z" />
    <glyph glyph-name="questiondown" unicode="&#xbf;" horiz-adv-x="406" 
d="M246 321v-51q0 -45 -9 -64.5t-43 -48.5l-46 -41q-77 -65 -77 -146q0 -61 41 -99.5t105 -38.5q87 0 142 72l20 -17q-58 -80 -157 -80q-83 0 -131 44t-48 120q0 87 76 153l57 50q29 28 35.5 44t7.5 61v42h27zM233 490q10 0 17.5 -8t7.5 -18t-7.5 -17.5t-17.5 -7.5
t-17.5 7.5t-7.5 17.5q0 11 7.5 18.5t17.5 7.5z" />
    <glyph glyph-name="Agrave" unicode="&#xc0;" horiz-adv-x="604" 
d="M208 836l32 17l77 -106l-13 -8zM127 202l-81 -202h-29l270 667h30l270 -667h-29l-81 202h-350zM138 228h328l-164 411z" />
    <glyph glyph-name="Aacute" unicode="&#xc1;" horiz-adv-x="604" 
d="M394 836l-96 -97l-14 8l78 106zM127 202l-81 -202h-29l270 667h30l270 -667h-29l-81 202h-350zM138 228h328l-164 411z" />
    <glyph glyph-name="Acircumflex" unicode="&#xc2;" horiz-adv-x="604" 
d="M302 828l-95 -90l-17 8l92 101h40l92 -101l-16 -8zM127 202l-81 -202h-29l270 667h30l270 -667h-29l-81 202h-350zM138 228h328l-164 411z" />
    <glyph glyph-name="Atilde" unicode="&#xc3;" horiz-adv-x="604" 
d="M397 817l20 -5q-12 -50 -57 -50q-22 0 -60 17t-51 17q-31 0 -41 -32l-20 5q14 51 57 51q18 0 62 -19q30 -15 50 -15q30 0 40 31zM127 202l-81 -202h-29l270 667h30l270 -667h-29l-81 202h-350zM138 228h328l-164 411z" />
    <glyph glyph-name="Adieresis" unicode="&#xc4;" horiz-adv-x="604" 
d="M127 202l-81 -202h-29l270 667h30l270 -667h-29l-81 202h-350zM138 228h328l-164 411zM394 816q10 0 17.5 -7.5t7.5 -17.5q0 -11 -7.5 -18.5t-17.5 -7.5t-17.5 8t-7.5 18t7.5 17.5t17.5 7.5zM210 816q10 0 17.5 -7.5t7.5 -17.5q0 -11 -7.5 -18.5t-17.5 -7.5t-17.5 8
t-7.5 18t7.5 17.5t17.5 7.5z" />
    <glyph glyph-name="Aring" unicode="&#xc5;" horiz-adv-x="604" 
d="M127 202l-81 -202h-29l270 667h30l270 -667h-29l-81 202h-350zM138 228h328l-164 411zM302 859q30 0 50.5 -19.5t20.5 -48.5t-20.5 -49t-49.5 -20q-30 0 -50.5 20t-20.5 49q0 28 20.5 48t49.5 20zM303 842q-22 0 -37 -15t-15 -37q0 -21 15 -36t37 -15q21 0 36 15t15 36
q0 22 -15 37t-36 15z" />
    <glyph glyph-name="AE" unicode="&#xc6;" horiz-adv-x="842" 
d="M466 202h-317l-102 -202h-30l339 667h423v-26h-285v-290h254v-26h-254v-298h296v-27h-324v202zM466 228v413h-96l-208 -413h304z" />
    <glyph glyph-name="Ccedilla" unicode="&#xc7;" horiz-adv-x="653" 
d="M377 -83l-75 -96l-16 8l63 100zM605 586l-19 -20q-84 83 -199 83q-129 0 -217.5 -91.5t-88.5 -224.5t89 -224t218 -91q111 0 202 85l19 -19q-94 -93 -220 -93q-141 0 -239 99.5t-98 242.5t98 243t238 100q121 0 217 -90z" />
    <glyph glyph-name="Egrave" unicode="&#xc8;" horiz-adv-x="466" 
d="M166 836l32 17l78 -106l-14 -8zM403 641h-285v-290h254v-26h-254v-298h296v-27h-324v667h313v-26z" />
    <glyph glyph-name="Eacute" unicode="&#xc9;" horiz-adv-x="466" 
d="M339 836l-97 -97l-13 8l77 106zM403 641h-285v-290h254v-26h-254v-298h296v-27h-324v667h313v-26z" />
    <glyph glyph-name="Ecircumflex" unicode="&#xca;" horiz-adv-x="466" 
d="M252 828l-95 -90l-17 8l92 101h40l92 -101l-16 -8zM403 641h-285v-290h254v-26h-254v-298h296v-27h-324v667h313v-26z" />
    <glyph glyph-name="Edieresis" unicode="&#xcb;" horiz-adv-x="466" 
d="M403 641h-285v-290h254v-26h-254v-298h296v-27h-324v667h313v-26zM344 816q10 0 17.5 -7.5t7.5 -17.5q0 -11 -7.5 -18.5t-17.5 -7.5t-17.5 8t-7.5 18t7.5 17.5t17.5 7.5zM160 816q10 0 17.5 -7.5t7.5 -17.5q0 -11 -7.5 -18.5t-17.5 -7.5t-17.5 8t-7.5 18t7.5 17.5
t17.5 7.5z" />
    <glyph glyph-name="Igrave" unicode="&#xcc;" horiz-adv-x="208" 
d="M8 836l32 17l78 -106l-14 -8zM118 667v-667h-28v667h28z" />
    <glyph glyph-name="Iacute" unicode="&#xcd;" horiz-adv-x="208" 
d="M200 836l-97 -97l-13 8l78 106zM118 667v-667h-28v667h28z" />
    <glyph glyph-name="Icircumflex" unicode="&#xce;" horiz-adv-x="208" 
d="M104 828l-96 -90l-16 8l92 101h40l92 -101l-17 -8zM118 667v-667h-28v667h28z" />
    <glyph glyph-name="Idieresis" unicode="&#xcf;" horiz-adv-x="208" 
d="M118 667v-667h-28v667h28zM171 816q10 0 17.5 -7.5t7.5 -17.5q0 -11 -7.5 -18.5t-17.5 -7.5t-17.5 8t-7.5 18t7.5 17.5t17.5 7.5zM37 816q10 0 17.5 -7.5t7.5 -17.5q0 -11 -7.5 -18.5t-17.5 -7.5t-17.5 8t-7.5 18t7.5 17.5t17.5 7.5z" />
    <glyph glyph-name="Eth" unicode="&#xd0;" horiz-adv-x="620" 
d="M91 349h-53v25h53v293h119q166 0 261.5 -89t95.5 -243q0 -156 -95.5 -245.5t-261.5 -89.5h-119v349zM119 374h170v-25h-170v-322h95q149 0 237 83.5t88 224.5q0 139 -88.5 222t-236.5 83h-95v-266z" />
    <glyph glyph-name="Ntilde" unicode="&#xd1;" horiz-adv-x="713" 
d="M460 817l20 -5q-12 -50 -58 -50q-21 0 -59 17t-51 17q-31 0 -41 -32l-20 5q13 51 57 51q18 0 62 -19q30 -15 50 -15q30 0 40 31zM118 637v-637h-28v667h38l467 -637v637h28v-667h-38z" />
    <glyph glyph-name="Ograve" unicode="&#xd2;" horiz-adv-x="767" 
d="M291 836l32 17l77 -106l-13 -8zM384 676q136 0 233.5 -101t97.5 -242t-98 -241.5t-236 -100.5q-136 0 -232.5 102t-96.5 246q0 136 99 236.5t233 100.5zM381 649q-126 0 -213 -93t-87 -228q0 -126 90 -218t213 -92q124 0 213 92.5t89 222.5q0 133 -88.5 224.5
t-216.5 91.5z" />
    <glyph glyph-name="Oacute" unicode="&#xd3;" horiz-adv-x="767" 
d="M477 836l-96 -97l-14 8l78 106zM384 676q136 0 233.5 -101t97.5 -242t-98 -241.5t-236 -100.5q-136 0 -232.5 102t-96.5 246q0 136 99 236.5t233 100.5zM381 649q-126 0 -213 -93t-87 -228q0 -126 90 -218t213 -92q124 0 213 92.5t89 222.5q0 133 -88.5 224.5
t-216.5 91.5z" />
    <glyph glyph-name="Ocircumflex" unicode="&#xd4;" horiz-adv-x="767" 
d="M384 828l-96 -90l-16 8l92 101h40l92 -101l-17 -8zM384 676q136 0 233.5 -101t97.5 -242t-98 -241.5t-236 -100.5q-136 0 -232.5 102t-96.5 246q0 136 99 236.5t233 100.5zM381 649q-126 0 -213 -93t-87 -228q0 -126 90 -218t213 -92q124 0 213 92.5t89 222.5
q0 133 -88.5 224.5t-216.5 91.5z" />
    <glyph glyph-name="Otilde" unicode="&#xd5;" horiz-adv-x="767" 
d="M479 817l20 -5q-13 -50 -58 -50q-21 0 -59 17t-51 17q-30 0 -42 -32l-19 5q14 51 57 51q18 0 62 -19q30 -15 50 -15q30 0 40 31zM384 676q136 0 233.5 -101t97.5 -242t-98 -241.5t-236 -100.5q-136 0 -232.5 102t-96.5 246q0 136 99 236.5t233 100.5zM381 649
q-126 0 -213 -93t-87 -228q0 -126 90 -218t213 -92q124 0 213 92.5t89 222.5q0 133 -88.5 224.5t-216.5 91.5z" />
    <glyph glyph-name="Odieresis" unicode="&#xd6;" horiz-adv-x="767" 
d="M384 676q136 0 233.5 -101t97.5 -242t-98 -241.5t-236 -100.5q-136 0 -232.5 102t-96.5 246q0 136 99 236.5t233 100.5zM381 649q-126 0 -213 -93t-87 -228q0 -126 90 -218t213 -92q124 0 213 92.5t89 222.5q0 133 -88.5 224.5t-216.5 91.5zM476 816q10 0 17.5 -7.5
t7.5 -17.5q0 -11 -7.5 -18.5t-17.5 -7.5t-17.5 8t-7.5 18t7.5 17.5t17.5 7.5zM292 816q10 0 17.5 -7.5t7.5 -17.5q0 -11 -7.5 -18.5t-17.5 -7.5t-17.5 8t-7.5 18t7.5 17.5t17.5 7.5z" />
    <glyph glyph-name="multiply" unicode="&#xd7;" horiz-adv-x="556" 
d="M261 312l-141 141l17 17l141 -141l141 141l18 -17l-141 -141l141 -141l-18 -17l-141 141l-141 -141l-17 17z" />
    <glyph glyph-name="Oslash" unicode="&#xd8;" horiz-adv-x="774" 
d="M613 583l83 85l15 -15l-83 -86q91 -102 91 -234q0 -140 -97.5 -241t-233.5 -101q-131 0 -226 93l-83 -85l-15 15l83 86q-91 102 -91 234q0 140 97.5 241t233.5 101q130 0 226 -93zM166 119l429 445q-87 85 -208 85q-126 0 -214.5 -92.5t-88.5 -223.5q0 -123 82 -214z
M610 548l-430 -444q91 -86 208 -86q125 0 214 92.5t89 222.5q0 125 -81 215z" />
    <glyph glyph-name="Ugrave" unicode="&#xd9;" horiz-adv-x="634" 
d="M231 836l32 17l77 -106l-13 -8zM118 667v-415q0 -59 6 -90t22 -57q24 -39 71 -63t100 -24t100 24t71 63q16 26 22 57t6 90v415h28v-437q0 -99 -41 -151q-31 -41 -81 -64.5t-105 -23.5t-105 23.5t-82 64.5q-40 52 -40 151v437h28z" />
    <glyph glyph-name="Uacute" unicode="&#xda;" horiz-adv-x="634" 
d="M403 836l-96 -97l-13 8l77 106zM118 667v-415q0 -59 6 -90t22 -57q24 -39 71 -63t100 -24t100 24t71 63q16 26 22 57t6 90v415h28v-437q0 -99 -41 -151q-31 -41 -81 -64.5t-105 -23.5t-105 23.5t-82 64.5q-40 52 -40 151v437h28z" />
    <glyph glyph-name="Ucircumflex" unicode="&#xdb;" horiz-adv-x="634" 
d="M317 828l-95 -90l-17 8l92 101h40l92 -101l-17 -8zM118 667v-415q0 -59 6 -90t22 -57q24 -39 71 -63t100 -24t100 24t71 63q16 26 22 57t6 90v415h28v-437q0 -99 -41 -151q-31 -41 -81 -64.5t-105 -23.5t-105 23.5t-82 64.5q-40 52 -40 151v437h28z" />
    <glyph glyph-name="Udieresis" unicode="&#xdc;" horiz-adv-x="634" 
d="M118 667v-415q0 -59 6 -90t22 -57q24 -39 71 -63t100 -24t100 24t71 63q16 26 22 57t6 90v415h28v-437q0 -99 -41 -151q-31 -41 -81 -64.5t-105 -23.5t-105 23.5t-82 64.5q-40 52 -40 151v437h28zM409 816q10 0 17.5 -7.5t7.5 -17.5q0 -11 -7.5 -18.5t-17.5 -7.5t-17.5 8
t-7.5 18t7.5 17.5t17.5 7.5zM225 816q10 0 17.5 -7.5t7.5 -17.5q0 -11 -7.5 -18.5t-17.5 -7.5t-17.5 8t-7.5 18t7.5 17.5t17.5 7.5z" />
    <glyph glyph-name="Yacute" unicode="&#xdd;" horiz-adv-x="472" 
d="M322 836l-97 -97l-13 8l78 106zM222 281l-212 386h31l195 -359l195 359h30l-211 -386v-281h-28v281z" />
    <glyph glyph-name="Thorn" unicode="&#xde;" horiz-adv-x="459" 
d="M118 557h91q112 0 162 -46q57 -54 57 -142q0 -90 -57 -144q-50 -47 -162 -47h-91v-178h-28v667h28v-110zM118 531v-327h101q90 0 134 43q47 44 47 122q0 76 -47 120q-43 42 -134 42h-101z" />
    <glyph glyph-name="germandbls" unicode="&#xdf;" horiz-adv-x="509" 
d="M73 0v507q0 74 45 121.5t115 47.5q76 0 121.5 -46t45.5 -122q0 -52 -22 -92.5t-60 -56.5q66 -18 101 -63.5t35 -112.5q0 -83 -55 -133t-147 -50h-35v25h38q78 0 124.5 43t46.5 115q0 47 -22 85.5t-60 57.5q-31 15 -72 16v24q49 9 74 44q27 38 27 95q0 66 -37 106.5
t-98 40.5t-99.5 -40.5t-38.5 -104.5v-507h-27z" />
    <glyph glyph-name="agrave" unicode="&#xe0;" horiz-adv-x="554" 
d="M170 636l32 18l78 -107l-14 -8zM481 0h-27v102q-23 -34 -39.5 -51t-40.5 -31q-49 -29 -108 -29q-93 0 -157 67t-64 164t64 163.5t157 66.5q59 0 108 -29q24 -14 40.5 -31t39.5 -51v102h27v-443zM263 426q-82 0 -135.5 -58t-53.5 -146q0 -89 54 -147t138 -58
q83 0 136.5 58t53.5 149q0 89 -54 145.5t-139 56.5z" />
    <glyph glyph-name="aacute" unicode="&#xe1;" horiz-adv-x="554" 
d="M363 636l-97 -97l-13 8l77 107zM481 0h-27v102q-23 -34 -39.5 -51t-40.5 -31q-49 -29 -108 -29q-93 0 -157 67t-64 164t64 163.5t157 66.5q59 0 108 -29q24 -14 40.5 -31t39.5 -51v102h27v-443zM263 426q-82 0 -135.5 -58t-53.5 -146q0 -89 54 -147t138 -58
q83 0 136.5 58t53.5 149q0 89 -54 145.5t-139 56.5z" />
    <glyph glyph-name="acircumflex" unicode="&#xe2;" horiz-adv-x="554" 
d="M263 628l-95 -90l-17 8l93 101h39l92 -101l-16 -8zM481 0h-27v102q-23 -34 -39.5 -51t-40.5 -31q-49 -29 -108 -29q-93 0 -157 67t-64 164t64 163.5t157 66.5q59 0 108 -29q24 -14 40.5 -31t39.5 -51v102h27v-443zM263 426q-82 0 -135.5 -58t-53.5 -146q0 -89 54 -147
t138 -58q83 0 136.5 58t53.5 149q0 89 -54 145.5t-139 56.5z" />
    <glyph glyph-name="atilde" unicode="&#xe3;" horiz-adv-x="554" 
d="M358 617l20 -5q-12 -50 -57 -50q-22 0 -60 17t-51 17q-29 0 -41 -32l-20 5q13 51 57 51q18 0 62 -19q30 -15 50 -15q32 0 40 31zM481 0h-27v102q-23 -34 -39.5 -51t-40.5 -31q-49 -29 -108 -29q-93 0 -157 67t-64 164t64 163.5t157 66.5q59 0 108 -29q24 -14 40.5 -31
t39.5 -51v102h27v-443zM263 426q-82 0 -135.5 -58t-53.5 -146q0 -89 54 -147t138 -58q83 0 136.5 58t53.5 149q0 89 -54 145.5t-139 56.5z" />
    <glyph glyph-name="adieresis" unicode="&#xe4;" horiz-adv-x="554" 
d="M481 0h-27v102q-23 -34 -39.5 -51t-40.5 -31q-49 -29 -108 -29q-93 0 -157 67t-64 164t64 163.5t157 66.5q59 0 108 -29q24 -14 40.5 -31t39.5 -51v102h27v-443zM263 426q-82 0 -135.5 -58t-53.5 -146q0 -89 54 -147t138 -58q83 0 136.5 58t53.5 149q0 89 -54 145.5
t-139 56.5zM180 613q10 0 17.5 -7.5t7.5 -17.5q0 -11 -7.5 -18.5t-17.5 -7.5t-17.5 8t-7.5 18t7.5 17.5t17.5 7.5zM364 613q10 0 17.5 -7.5t7.5 -17.5q0 -11 -7.5 -18.5t-17.5 -7.5t-17.5 8t-7.5 18t7.5 17.5t17.5 7.5z" />
    <glyph glyph-name="aring" unicode="&#xe5;" horiz-adv-x="554" 
d="M275 659q29 0 49.5 -20t20.5 -48t-20.5 -48t-49.5 -20t-49.5 20t-20.5 49q0 27 21 47t49 20zM275 642q-21 0 -36 -15t-15 -37q0 -20 15 -35t36 -15t36 15t15 36t-15 36t-36 15zM481 0h-27v102q-23 -34 -39.5 -51t-40.5 -31q-49 -29 -108 -29q-93 0 -157 67t-64 164
t64 163.5t157 66.5q59 0 108 -29q24 -14 40.5 -31t39.5 -51v102h27v-443zM263 426q-82 0 -135.5 -58t-53.5 -146q0 -89 54 -147t138 -58q83 0 136.5 58t53.5 149q0 89 -54 145.5t-139 56.5z" />
    <glyph glyph-name="ae" unicode="&#xe6;" horiz-adv-x="853" 
d="M766 98l25 -11q-38 -50 -78 -71q-48 -25 -102 -25q-62 0 -112 31.5t-78 89.5q-28 -121 -189 -121q-87 0 -140 39q-47 34 -47 104q0 64 46 100.5t128 36.5h178q-4 84 -49 120q-41 35 -119 35q-75 0 -143 -46l-12 18q75 54 163 54q72 0 123 -36q23 -17 35.5 -36.5
t21.5 -55.5q28 61 77 94.5t110 33.5q62 0 112 -35t73 -95q18 -45 19 -112h-383q8 -94 61 -145q50 -48 123 -48q47 0 91 21q34 18 66 60zM397 248h-164q-76 0 -118.5 -30t-42.5 -83q0 -56 42 -87t119 -31q78 0 121 31t43 88v112zM425 233h356q-6 51 -18 82q-19 52 -61.5 81.5
t-96.5 29.5q-82 0 -132 -61q-41 -51 -48 -132z" />
    <glyph glyph-name="ccedilla" unicode="&#xe7;" horiz-adv-x="452" 
d="M267 -83l-76 -96l-16 8l64 100zM416 392l-18 -19q-54 53 -130 53q-86 0 -140 -57t-54 -147q0 -91 54.5 -148t140.5 -57q78 0 133 56l18 -19q-64 -63 -151 -63q-96 0 -160 66.5t-64 164.5t64 164t160 66q81 0 147 -60z" />
    <glyph glyph-name="egrave" unicode="&#xe8;" horiz-adv-x="501" 
d="M163 636l32 18l78 -107l-14 -8zM456 210h-383q5 -87 55.5 -140t128.5 -53q98 0 157 81l25 -11q-71 -96 -181 -96q-91 0 -152 66t-61 165q0 97 60 163.5t147 66.5q62 0 112 -35t73 -96q18 -43 19 -111zM73 233h356q-6 52 -18 81q-19 52 -61.5 82t-96.5 30
q-76 0 -125.5 -53.5t-54.5 -139.5z" />
    <glyph glyph-name="eacute" unicode="&#xe9;" horiz-adv-x="501" 
d="M339 636l-96 -97l-13 8l77 107zM456 210h-383q5 -87 55.5 -140t128.5 -53q98 0 157 81l25 -11q-71 -96 -181 -96q-91 0 -152 66t-61 165q0 97 60 163.5t147 66.5q62 0 112 -35t73 -96q18 -43 19 -111zM73 233h356q-6 52 -18 81q-19 52 -61.5 82t-96.5 30
q-76 0 -125.5 -53.5t-54.5 -139.5z" />
    <glyph glyph-name="ecircumflex" unicode="&#xea;" horiz-adv-x="501" 
d="M251 628l-96 -90l-16 8l92 101h40l92 -101l-17 -8zM456 210h-383q5 -87 55.5 -140t128.5 -53q98 0 157 81l25 -11q-71 -96 -181 -96q-91 0 -152 66t-61 165q0 97 60 163.5t147 66.5q62 0 112 -35t73 -96q18 -43 19 -111zM73 233h356q-6 52 -18 81q-19 52 -61.5 82
t-96.5 30q-76 0 -125.5 -53.5t-54.5 -139.5z" />
    <glyph glyph-name="edieresis" unicode="&#xeb;" horiz-adv-x="501" 
d="M456 210h-383q5 -87 55.5 -140t128.5 -53q98 0 157 81l25 -11q-71 -96 -181 -96q-91 0 -152 66t-61 165q0 97 60 163.5t147 66.5q62 0 112 -35t73 -96q18 -43 19 -111zM73 233h356q-6 52 -18 81q-19 52 -61.5 82t-96.5 30q-76 0 -125.5 -53.5t-54.5 -139.5zM159 613
q10 0 17.5 -7.5t7.5 -17.5q0 -11 -7.5 -18.5t-17.5 -7.5t-17.5 8t-7.5 18t7.5 17.5t17.5 7.5zM343 613q10 0 17.5 -7.5t7.5 -17.5q0 -11 -7.5 -18.5t-17.5 -7.5t-17.5 8t-7.5 18t7.5 17.5t17.5 7.5z" />
    <glyph glyph-name="igrave" unicode="&#xec;" horiz-adv-x="173" 
d="M-13 636l32 18l78 -107l-14 -8zM99 443v-443h-27v443h27z" />
    <glyph glyph-name="iacute" unicode="&#xed;" horiz-adv-x="173" 
d="M185 636l-96 -97l-13 8l77 107zM100 443v-443h-27v443h27z" />
    <glyph glyph-name="icircumflex" unicode="&#xee;" horiz-adv-x="173" 
d="M87 628l-96 -90l-16 8l92 101h40l92 -101l-17 -8zM100 443v-443h-27v443h27z" />
    <glyph glyph-name="idieresis" unicode="&#xef;" horiz-adv-x="173" 
d="M100 443v-443h-27v443h27zM19 613q10 0 17.5 -7.5t7.5 -17.5q0 -11 -7.5 -18.5t-17.5 -7.5t-17.5 8t-7.5 18t7.5 17.5t17.5 7.5zM153 613q10 0 17.5 -7.5t7.5 -17.5q0 -11 -7.5 -18.5t-17.5 -7.5t-17.5 8t-7.5 18t7.5 17.5t17.5 7.5z" />
    <glyph glyph-name="eth" unicode="&#xf0;" horiz-adv-x="534" 
d="M204 622l72 37q-71 47 -149 64l12 18q94 -23 162 -70l79 41l16 -15l-76 -40q80 -64 125 -170t45 -232q0 -70 -18 -117q-25 -69 -79.5 -108t-125.5 -39q-94 0 -158 66.5t-64 164.5q0 97 64 163.5t158 66.5q66 0 120 -36q23 -15 38.5 -31.5t34.5 -47.5q-36 208 -164 307
l-74 -38zM265 426q-84 0 -137.5 -58.5t-53.5 -149.5q0 -86 55 -143.5t138 -57.5q84 0 138.5 58t54.5 147q0 90 -54.5 147t-140.5 57z" />
    <glyph glyph-name="ntilde" unicode="&#xf1;" horiz-adv-x="510" 
d="M355 617l20 -5q-12 -50 -58 -50q-21 0 -59 17t-51 17q-31 0 -41 -32l-20 5q14 51 57 51q18 0 62 -19q30 -15 50 -15q30 0 40 31zM100 443v-83q51 92 164 92q81 0 129 -53q44 -48 44 -157v-242h-27v232q0 106 -39 149q-42 45 -109 45q-81 0 -127 -55q-35 -45 -35 -149
v-222h-27v443h27z" />
    <glyph glyph-name="ograve" unicode="&#xf2;" horiz-adv-x="533" 
d="M174 636l32 18l77 -107l-13 -8zM270 452q91 0 154.5 -67t63.5 -163q0 -97 -64 -164t-157 -67q-94 0 -158 67t-64 166q0 97 65 162.5t160 65.5zM263 426q-82 0 -135.5 -58t-53.5 -146q0 -89 54 -147t139 -58q84 0 138 58t54 149q0 89 -55 145.5t-141 56.5z" />
    <glyph glyph-name="oacute" unicode="&#xf3;" horiz-adv-x="533" 
d="M360 636l-97 -97l-13 8l78 107zM270 452q91 0 154.5 -67t63.5 -163q0 -97 -64 -164t-157 -67q-94 0 -158 67t-64 166q0 97 65 162.5t160 65.5zM263 426q-82 0 -135.5 -58t-53.5 -146q0 -89 54 -147t139 -58q84 0 138 58t54 149q0 89 -55 145.5t-141 56.5z" />
    <glyph glyph-name="ocircumflex" unicode="&#xf4;" horiz-adv-x="533" 
d="M267 628l-96 -90l-16 8l92 101h40l91 -101l-16 -8zM270 452q91 0 154.5 -67t63.5 -163q0 -97 -64 -164t-157 -67q-94 0 -158 67t-64 166q0 97 65 162.5t160 65.5zM263 426q-82 0 -135.5 -58t-53.5 -146q0 -89 54 -147t139 -58q84 0 138 58t54 149q0 89 -55 145.5
t-141 56.5z" />
    <glyph glyph-name="otilde" unicode="&#xf5;" horiz-adv-x="533" 
d="M362 617l19 -5q-12 -50 -57 -50q-22 0 -59 17q-38 17 -52 17q-29 0 -41 -32l-20 5q15 51 58 51q18 0 61 -19q31 -15 51 -15q30 0 40 31zM270 452q91 0 154.5 -67t63.5 -163q0 -97 -64 -164t-157 -67q-94 0 -158 67t-64 166q0 97 65 162.5t160 65.5zM263 426
q-82 0 -135.5 -58t-53.5 -146q0 -89 54 -147t139 -58q84 0 138 58t54 149q0 89 -55 145.5t-141 56.5z" />
    <glyph glyph-name="odieresis" unicode="&#xf6;" horiz-adv-x="533" 
d="M270 452q91 0 154.5 -67t63.5 -163q0 -97 -64 -164t-157 -67q-94 0 -158 67t-64 166q0 97 65 162.5t160 65.5zM263 426q-82 0 -135.5 -58t-53.5 -146q0 -89 54 -147t139 -58q84 0 138 58t54 149q0 89 -55 145.5t-141 56.5zM359 613q10 0 17.5 -7.5t7.5 -17.5
q0 -11 -7.5 -18.5t-17.5 -7.5t-17.5 8t-7.5 18t7.5 17.5t17.5 7.5zM175 613q10 0 17.5 -7.5t7.5 -17.5q0 -11 -7.5 -18.5t-17.5 -7.5t-17.5 8t-7.5 18t7.5 17.5t17.5 7.5z" />
    <glyph glyph-name="divide" unicode="&#xf7;" horiz-adv-x="556" 
d="M473 324v-24h-390v24h390zM278 170q12 0 20.5 -8.5t8.5 -20.5q0 -13 -8.5 -21.5t-20.5 -8.5t-20.5 8.5t-8.5 21.5q0 12 8.5 20.5t20.5 8.5zM278 513q12 0 20.5 -8.5t8.5 -20.5q0 -13 -8.5 -21.5t-20.5 -8.5t-20.5 8.5t-8.5 21.5q0 12 8.5 20.5t20.5 8.5z" />
    <glyph glyph-name="oslash" unicode="&#xf8;" horiz-adv-x="546" 
d="M494 430l-54 -55q54 -65 54 -154q0 -97 -64 -163.5t-157 -66.5q-89 0 -154 63l-54 -55l-14 14l55 55q-55 64 -55 154q0 97 64 163.5t157 66.5q91 0 154 -63l55 55zM421 357l-284 -285q55 -55 136 -55q83 0 137.5 58t54.5 146q0 86 -44 136zM124 86l284 285
q-57 55 -136 55q-83 0 -137.5 -57.5t-54.5 -145.5q0 -82 44 -137z" />
    <glyph glyph-name="ugrave" unicode="&#xf9;" horiz-adv-x="510" 
d="M164 636l32 18l77 -107l-13 -8zM410 0v83q-51 -92 -164 -92q-81 0 -129 53q-44 48 -44 158v241h27v-232q0 -106 39 -149q42 -45 109 -45q81 0 127 55q35 45 35 150v221h27v-443h-27z" />
    <glyph glyph-name="uacute" unicode="&#xfa;" horiz-adv-x="510" 
d="M343 636l-96 -97l-13 8l77 107zM410 0v83q-51 -92 -164 -92q-81 0 -129 53q-44 48 -44 158v241h27v-232q0 -106 39 -149q42 -45 109 -45q81 0 127 55q35 45 35 150v221h27v-443h-27z" />
    <glyph glyph-name="ucircumflex" unicode="&#xfb;" horiz-adv-x="510" 
d="M255 628l-95 -90l-17 8l92 101h40l92 -101l-16 -8zM410 0v83q-51 -92 -164 -92q-81 0 -129 53q-44 48 -44 158v241h27v-232q0 -106 39 -149q42 -45 109 -45q81 0 127 55q35 45 35 150v221h27v-443h-27z" />
    <glyph glyph-name="udieresis" unicode="&#xfc;" horiz-adv-x="510" 
d="M410 0v83q-51 -92 -164 -92q-81 0 -129 53q-44 48 -44 158v241h27v-232q0 -106 39 -149q42 -45 109 -45q81 0 127 55q35 45 35 150v221h27v-443h-27zM163 613q10 0 17.5 -7.5t7.5 -17.5q0 -11 -7.5 -18.5t-17.5 -7.5t-17.5 8t-7.5 18t7.5 17.5t17.5 7.5zM347 613
q10 0 17.5 -7.5t7.5 -17.5q0 -11 -7.5 -18.5t-17.5 -7.5t-17.5 8t-7.5 18t7.5 17.5t17.5 7.5z" />
    <glyph glyph-name="yacute" unicode="&#xfd;" horiz-adv-x="421" 
d="M302 636l-97 -97l-13 8l77 107zM194 7l-183 436h30l167 -404l173 404h30l-292 -676h-27z" />
    <glyph glyph-name="thorn" unicode="&#xfe;" horiz-adv-x="555" 
d="M74 -233v900h27v-326q69 111 188 111q93 0 157 -66.5t64 -163.5t-64 -164t-157 -67q-121 0 -188 111v-335h-27zM285 426q-80 0 -133 -58t-53 -146q0 -90 53.5 -147.5t136.5 -57.5q84 0 138 58t54 149q0 89 -55 145.5t-141 56.5z" />
    <glyph glyph-name="ydieresis" unicode="&#xff;" horiz-adv-x="421" 
d="M194 7l-183 436h30l167 -404l173 404h30l-292 -676h-27zM119 613q10 0 17.5 -7.5t7.5 -17.5q0 -11 -7.5 -18.5t-17.5 -7.5t-17.5 8t-7.5 18t7.5 17.5t17.5 7.5zM303 613q10 0 17.5 -7.5t7.5 -17.5q0 -11 -7.5 -18.5t-17.5 -7.5t-17.5 8t-7.5 18t7.5 17.5t17.5 7.5z" />
    <glyph glyph-name="Amacron" unicode="&#x100;" horiz-adv-x="604" 
d="M185 803h234v-25h-234v25zM127 202l-81 -202h-29l270 667h30l270 -667h-29l-81 202h-350zM138 228h328l-164 411z" />
    <glyph glyph-name="amacron" unicode="&#x101;" horiz-adv-x="554" 
d="M158 603h235v-25h-235v25zM481 0h-27v102q-23 -34 -39.5 -51t-40.5 -31q-49 -29 -108 -29q-93 0 -157 67t-64 164t64 163.5t157 66.5q59 0 108 -29q24 -14 40.5 -31t39.5 -51v102h27v-443zM263 426q-82 0 -135.5 -58t-53.5 -146q0 -89 54 -147t138 -58q83 0 136.5 58
t53.5 149q0 89 -54 145.5t-139 56.5z" />
    <glyph glyph-name="Abreve" unicode="&#x102;" horiz-adv-x="604" 
d="M191 829l23 2q5 -33 29 -53.5t58 -20.5q33 0 57 20t31 54l23 -2q-10 -45 -39.5 -70t-71.5 -25q-44 0 -73.5 25.5t-36.5 69.5zM127 202l-81 -202h-29l270 667h30l270 -667h-29l-81 202h-350zM138 228h328l-164 411z" />
    <glyph glyph-name="abreve" unicode="&#x103;" horiz-adv-x="554" 
d="M153 629l24 2q5 -33 29 -53.5t57 -20.5t57 20t31 54l23 -2q-10 -45 -39 -70t-71 -25q-44 0 -73.5 25.5t-37.5 69.5zM481 0h-27v102q-23 -34 -39.5 -51t-40.5 -31q-49 -29 -108 -29q-93 0 -157 67t-64 164t64 163.5t157 66.5q59 0 108 -29q24 -14 40.5 -31t39.5 -51v102
h27v-443zM263 426q-82 0 -135.5 -58t-53.5 -146q0 -89 54 -147t138 -58q83 0 136.5 58t53.5 149q0 89 -54 145.5t-139 56.5z" />
    <glyph glyph-name="Aogonek" unicode="&#x104;" horiz-adv-x="604" 
d="M560 0h-2l-81 202h-350l-81 -202h-29l270 667h30l270 -667q-33 -40 -33 -67q0 -19 13 -30t35 -11q14 0 27 6l8 -20q-23 -8 -39 -8q-30 0 -49.5 17t-19.5 43q0 32 31 70zM138 228h328l-164 411z" />
    <glyph glyph-name="aogonek" unicode="&#x105;" horiz-adv-x="554" 
d="M454 0v102q-23 -34 -39.5 -51t-40.5 -31q-49 -29 -108 -29q-93 0 -157 67t-64 164t64 163.5t157 66.5q59 0 108 -29q24 -14 40.5 -31t39.5 -51v102h27v-443q-34 -39 -34 -67q0 -19 13.5 -30t35.5 -11q14 0 26 5l8 -20q-24 -7 -39 -7q-30 0 -49.5 17t-19.5 43q0 32 32 70z
M263 426q-82 0 -135.5 -58t-53.5 -146q0 -89 54 -147t138 -58q83 0 136.5 58t53.5 149q0 89 -54 145.5t-139 56.5z" />
    <glyph glyph-name="Cacute" unicode="&#x106;" horiz-adv-x="653" 
d="M474 836l-96 -97l-13 8l77 106zM605 586l-19 -20q-84 83 -199 83q-129 0 -217.5 -91.5t-88.5 -224.5t89 -224t218 -91q111 0 202 85l19 -19q-94 -93 -220 -93q-141 0 -239 99.5t-98 242.5t98 243t238 100q121 0 217 -90z" />
    <glyph glyph-name="cacute" unicode="&#x107;" horiz-adv-x="452" 
d="M343 636l-96 -97l-13 8l77 107zM416 392l-18 -19q-54 53 -130 53q-86 0 -140 -57t-54 -147q0 -91 54.5 -148t140.5 -57q78 0 133 56l18 -19q-64 -63 -151 -63q-96 0 -160 66.5t-64 164.5t64 164t160 66q81 0 147 -60z" />
    <glyph glyph-name="Ccircumflex" unicode="&#x108;" horiz-adv-x="653" 
d="M364 828l-95 -90l-16 8l92 101h39l92 -101l-16 -8zM605 586l-19 -20q-84 83 -199 83q-129 0 -217.5 -91.5t-88.5 -224.5t89 -224t218 -91q111 0 202 85l19 -19q-94 -93 -220 -93q-141 0 -239 99.5t-98 242.5t98 243t238 100q121 0 217 -90z" />
    <glyph glyph-name="ccircumflex" unicode="&#x109;" horiz-adv-x="452" 
d="M252 628l-95 -90l-16 8l92 101h39l92 -101l-16 -8zM416 392l-18 -19q-54 53 -130 53q-86 0 -140 -57t-54 -147q0 -91 54.5 -148t140.5 -57q78 0 133 56l18 -19q-64 -63 -151 -63q-96 0 -160 66.5t-64 164.5t64 164t160 66q81 0 147 -60z" />
    <glyph glyph-name="Cdotaccent" unicode="&#x10a;" horiz-adv-x="653" 
d="M605 586l-19 -20q-84 83 -199 83q-129 0 -217.5 -91.5t-88.5 -224.5t89 -224t218 -91q111 0 202 85l19 -19q-94 -93 -220 -93q-141 0 -239 99.5t-98 242.5t98 243t238 100q121 0 217 -90zM373 816q10 0 17.5 -7.5t7.5 -17.5q0 -11 -7.5 -18.5t-17.5 -7.5t-17.5 8t-7.5 18
t7.5 17.5t17.5 7.5z" />
    <glyph glyph-name="cdotaccent" unicode="&#x10b;" horiz-adv-x="452" 
d="M416 392l-18 -19q-54 53 -130 53q-86 0 -140 -57t-54 -147q0 -91 54.5 -148t140.5 -57q78 0 133 56l18 -19q-64 -63 -151 -63q-96 0 -160 66.5t-64 164.5t64 164t160 66q81 0 147 -60zM256 613q10 0 17.5 -7.5t7.5 -17.5q0 -11 -7.5 -18.5t-17.5 -7.5t-17.5 8t-7.5 18
t7.5 17.5t17.5 7.5z" />
    <glyph glyph-name="Ccaron" unicode="&#x10c;" horiz-adv-x="653" 
d="M364 759l96 90l16 -8l-92 -101h-39l-92 101l16 8zM605 586l-19 -20q-84 83 -199 83q-129 0 -217.5 -91.5t-88.5 -224.5t89 -224t218 -91q111 0 202 85l19 -19q-94 -93 -220 -93q-141 0 -239 99.5t-98 242.5t98 243t238 100q121 0 217 -90z" />
    <glyph glyph-name="ccaron" unicode="&#x10d;" horiz-adv-x="452" 
d="M252 559l96 90l16 -8l-92 -101h-39l-92 101l16 8zM416 392l-18 -19q-54 53 -130 53q-86 0 -140 -57t-54 -147q0 -91 54.5 -148t140.5 -57q78 0 133 56l18 -19q-64 -63 -151 -63q-96 0 -160 66.5t-64 164.5t64 164t160 66q81 0 147 -60z" />
    <glyph glyph-name="Dcaron" unicode="&#x10e;" horiz-adv-x="619" 
d="M290 759l95 90l17 -8l-92 -101h-40l-92 101l17 8zM90 667h119q166 0 261.5 -89t95.5 -244t-95.5 -244.5t-261.5 -89.5h-119v667zM118 640v-613h95q148 0 236.5 83.5t88.5 223.5q0 139 -88.5 222.5t-236.5 83.5h-95z" />
    <glyph glyph-name="dcaron" unicode="&#x10f;" horiz-adv-x="627" 
d="M593 679l30 -9l-50 -117l-15 5zM481 0h-27v102q-68 -111 -188 -111q-93 0 -157 67t-64 164t64 163.5t157 66.5q119 0 188 -111v326h27v-667zM263 426q-82 0 -135.5 -58t-53.5 -146q0 -89 54 -147t138 -58q83 0 136.5 58t53.5 149q0 89 -54 145.5t-139 56.5z" />
    <glyph glyph-name="Dcroat" unicode="&#x110;" horiz-adv-x="620" 
d="M91 349h-53v25h53v293h119q166 0 261.5 -89t95.5 -243q0 -156 -95.5 -245.5t-261.5 -89.5h-119v349zM119 374h170v-25h-170v-322h95q149 0 237 83.5t88 224.5q0 139 -88.5 222t-236.5 83h-95v-266z" />
    <glyph glyph-name="dcroat" unicode="&#x111;" horiz-adv-x="555" 
d="M454 541h-126v25h126v101h27v-101h64v-25h-64v-541h-27v102q-68 -111 -188 -111q-93 0 -157 67t-64 164t64 163.5t157 66.5q119 0 188 -111v200zM263 426q-81 0 -135 -58t-54 -146q0 -89 54 -147t138 -58q83 0 136.5 58t53.5 149q0 89 -54 145.5t-139 56.5z" />
    <glyph glyph-name="Emacron" unicode="&#x112;" horiz-adv-x="466" 
d="M135 803h235v-25h-235v25zM403 641h-285v-290h254v-26h-254v-298h296v-27h-324v667h313v-26z" />
    <glyph glyph-name="emacron" unicode="&#x113;" horiz-adv-x="501" 
d="M134 603h234v-25h-234v25zM456 210h-383q5 -87 55.5 -140t128.5 -53q98 0 157 81l25 -11q-71 -96 -181 -96q-91 0 -152 66t-61 165q0 97 60 163.5t147 66.5q62 0 112 -35t73 -96q18 -43 19 -111zM73 233h356q-6 52 -18 81q-19 52 -61.5 82t-96.5 30q-76 0 -125.5 -53.5
t-54.5 -139.5z" />
    <glyph glyph-name="Ebreve" unicode="&#x114;" horiz-adv-x="466" 
d="M141 829l23 2q5 -33 29.5 -53.5t57.5 -20.5t57 20t31 54l23 -2q-10 -45 -39.5 -70t-71.5 -25q-44 0 -73.5 25.5t-36.5 69.5zM403 641h-285v-290h254v-26h-254v-298h296v-27h-324v667h313v-26z" />
    <glyph glyph-name="ebreve" unicode="&#x115;" horiz-adv-x="501" 
d="M143 629l23 2q5 -33 29.5 -53.5t57.5 -20.5t57 20t31 54l23 -2q-10 -45 -39.5 -70t-71.5 -25q-44 0 -73.5 25.5t-36.5 69.5zM456 210h-383q5 -87 55.5 -140t128.5 -53q98 0 157 81l25 -11q-71 -96 -181 -96q-91 0 -152 66t-61 165q0 97 60 163.5t147 66.5q62 0 112 -35
t73 -96q18 -43 19 -111zM73 233h356q-6 52 -18 81q-19 52 -61.5 82t-96.5 30q-76 0 -125.5 -53.5t-54.5 -139.5z" />
    <glyph glyph-name="Edotaccent" unicode="&#x116;" horiz-adv-x="466" 
d="M403 641h-285v-290h254v-26h-254v-298h296v-27h-324v667h313v-26zM252 816q10 0 17.5 -7.5t7.5 -17.5q0 -11 -7.5 -18.5t-17.5 -7.5t-17.5 8t-7.5 18t7.5 17.5t17.5 7.5z" />
    <glyph glyph-name="edotaccent" unicode="&#x117;" horiz-adv-x="501" 
d="M456 210h-383q5 -87 55.5 -140t128.5 -53q98 0 157 81l25 -11q-71 -96 -181 -96q-91 0 -152 66t-61 165q0 97 60 163.5t147 66.5q62 0 112 -35t73 -96q18 -43 19 -111zM73 233h356q-6 52 -18 81q-19 52 -61.5 82t-96.5 30q-76 0 -125.5 -53.5t-54.5 -139.5zM251 613
q10 0 17.5 -7.5t7.5 -17.5q0 -11 -7.5 -18.5t-17.5 -7.5t-17.5 8t-7.5 18t7.5 17.5t17.5 7.5z" />
    <glyph glyph-name="Eogonek" unicode="&#x118;" horiz-adv-x="466" 
d="M414 27v-27q-33 -38 -33 -67q0 -19 13 -30t35 -11q13 0 26 5l8 -20q-24 -7 -39 -7q-29 0 -48.5 17t-19.5 43q0 33 31 70h-297v667h313v-26h-285v-290h254v-26h-254v-298h296z" />
    <glyph glyph-name="eogonek" unicode="&#x119;" horiz-adv-x="501" 
d="M414 98l25 -11q-63 -90 -172 -95q-26 -33 -26 -59q0 -19 13 -30t35 -11q13 0 26 5l8 -20q-24 -7 -39 -7q-29 0 -48.5 17t-19.5 43q0 28 25 62q-85 7 -140.5 72t-55.5 159q0 96 60 162.5t147 66.5q62 0 112 -35t73 -96q18 -43 19 -111h-383q5 -87 55.5 -140t128.5 -53
q98 0 157 81zM73 233h356q-6 52 -18 81q-19 52 -61.5 82t-96.5 30q-76 0 -125.5 -53.5t-54.5 -139.5z" />
    <glyph glyph-name="Ecaron" unicode="&#x11a;" horiz-adv-x="466" 
d="M252 759l96 90l16 -8l-92 -101h-40l-92 101l17 8zM403 641h-285v-290h254v-26h-254v-298h296v-27h-324v667h313v-26z" />
    <glyph glyph-name="ecaron" unicode="&#x11b;" horiz-adv-x="501" 
d="M251 559l95 90l17 -8l-92 -101h-40l-92 101l16 8zM456 210h-383q5 -87 55.5 -140t128.5 -53q98 0 157 81l25 -11q-71 -96 -181 -96q-91 0 -152 66t-61 165q0 97 60 163.5t147 66.5q62 0 112 -35t73 -96q18 -43 19 -111zM73 233h356q-6 52 -18 81q-19 52 -61.5 82
t-96.5 30q-76 0 -125.5 -53.5t-54.5 -139.5z" />
    <glyph glyph-name="Gcircumflex" unicode="&#x11c;" horiz-adv-x="729" 
d="M370 828l-95 -90l-17 8l92 101h40l92 -101l-16 -8zM439 321h236v-15q0 -144 -77.5 -229.5t-207.5 -85.5q-141 0 -239.5 99.5t-98.5 241.5q0 144 97.5 244t239.5 100q121 0 216 -90l-19 -20q-83 83 -199 83q-130 0 -218 -91.5t-88 -225.5q0 -132 89 -223t219 -91
q82 0 145.5 41.5t91.5 113.5q18 47 21 122h-208v26z" />
    <glyph glyph-name="gcircumflex" unicode="&#x11d;" horiz-adv-x="554" 
d="M263 628l-96 -90l-16 8l92 101h40l92 -101l-17 -8zM481 443v-451q0 -106 -61.5 -170t-164.5 -64q-110 0 -186 83l19 19q67 -76 167 -76q92 0 145.5 56t53.5 152v21v89q-69 -111 -188 -111q-93 0 -157 67t-64 164t64 163.5t157 66.5q119 0 188 -111v102h27zM263 426
q-82 0 -135.5 -58t-53.5 -146q0 -89 54.5 -147t137.5 -58t136.5 58t53.5 149q0 89 -54 145.5t-139 56.5z" />
    <glyph glyph-name="Gbreve" unicode="&#x11e;" horiz-adv-x="729" 
d="M277 829l23 2q5 -33 29 -53.5t58 -20.5q33 0 57 20t31 54l23 -2q-10 -45 -39.5 -70t-71.5 -25q-44 0 -73.5 25.5t-36.5 69.5zM439 321h236v-15q0 -144 -77.5 -229.5t-207.5 -85.5q-141 0 -239.5 99.5t-98.5 241.5q0 144 97.5 244t239.5 100q121 0 216 -90l-19 -20
q-83 83 -199 83q-130 0 -218 -91.5t-88 -225.5q0 -132 89 -223t219 -91q82 0 145.5 41.5t91.5 113.5q18 47 21 122h-208v26z" />
    <glyph glyph-name="gbreve" unicode="&#x11f;" horiz-adv-x="554" 
d="M153 629l23 2q6 -33 30 -53.5t57 -20.5t57 20t31 54l23 -2q-11 -45 -39.5 -70t-71.5 -25q-44 0 -73.5 25.5t-36.5 69.5zM481 443v-451q0 -106 -61.5 -170t-164.5 -64q-110 0 -186 83l19 19q67 -76 167 -76q92 0 145.5 56t53.5 152v21v89q-69 -111 -188 -111
q-93 0 -157 67t-64 164t64 163.5t157 66.5q119 0 188 -111v102h27zM263 426q-82 0 -135.5 -58t-53.5 -146q0 -89 54.5 -147t137.5 -58t136.5 58t53.5 149q0 89 -54 145.5t-139 56.5z" />
    <glyph glyph-name="Gdotaccent" unicode="&#x120;" horiz-adv-x="729" 
d="M439 321h236v-15q0 -144 -77.5 -229.5t-207.5 -85.5q-141 0 -239.5 99.5t-98.5 241.5q0 144 97.5 244t239.5 100q121 0 216 -90l-19 -20q-83 83 -199 83q-130 0 -218 -91.5t-88 -225.5q0 -132 89 -223t219 -91q82 0 145.5 41.5t91.5 113.5q18 47 21 122h-208v26zM387 816
q10 0 17.5 -7.5t7.5 -17.5q0 -11 -7.5 -18.5t-17.5 -7.5t-17.5 8t-7.5 18t7.5 17.5t17.5 7.5z" />
    <glyph glyph-name="gdotaccent" unicode="&#x121;" horiz-adv-x="554" 
d="M481 443v-451q0 -106 -61.5 -170t-164.5 -64q-110 0 -186 83l19 19q67 -76 167 -76q92 0 145.5 56t53.5 152v21v89q-69 -111 -188 -111q-93 0 -157 67t-64 164t64 163.5t157 66.5q119 0 188 -111v102h27zM263 426q-82 0 -135.5 -58t-53.5 -146q0 -89 54.5 -147t137.5 -58
t136.5 58t53.5 149q0 89 -54 145.5t-139 56.5zM263 613q10 0 17.5 -7.5t7.5 -17.5q0 -11 -7.5 -18.5t-17.5 -7.5t-17.5 8t-7.5 18t7.5 17.5t17.5 7.5z" />
    <glyph glyph-name="Gcommaaccent" unicode="&#x122;" horiz-adv-x="729" 
d="M365 -71l30 -9l-50 -116l-15 4zM439 321h236v-15q0 -144 -77.5 -229.5t-207.5 -85.5q-141 0 -239.5 99.5t-98.5 241.5q0 144 97.5 244t239.5 100q121 0 216 -90l-19 -20q-83 83 -199 83q-130 0 -218 -91.5t-88 -225.5q0 -132 89 -223t219 -91q82 0 145.5 41.5t91.5 113.5
q18 47 21 122h-208v26z" />
    <glyph glyph-name="gcommaaccent" unicode="&#x123;" horiz-adv-x="554" 
d="M287 529l-29 9l50 117l15 -5zM481 443v-451q0 -106 -61.5 -170t-164.5 -64q-110 0 -186 83l19 19q67 -76 167 -76q92 0 145.5 56t53.5 152v21v89q-69 -111 -188 -111q-93 0 -157 67t-64 164t64 163.5t157 66.5q119 0 188 -111v102h27zM263 426q-82 0 -135.5 -58
t-53.5 -146q0 -89 54.5 -147t137.5 -58t136.5 58t53.5 149q0 89 -54 145.5t-139 56.5z" />
    <glyph glyph-name="Hcircumflex" unicode="&#x124;" horiz-adv-x="650" 
d="M325 828l-96 -90l-16 8l92 101h40l92 -101l-17 -8zM118 351h414v316h28v-667h-28v325h-414v-325h-28v667h28v-316z" />
    <glyph glyph-name="hcircumflex" unicode="&#x125;" horiz-adv-x="510" 
d="M258 828l-95 -90l-17 8l93 101h39l92 -101l-16 -8zM100 667v-307q51 92 164 92q81 0 129 -53q44 -48 44 -157v-242h-27v232q0 106 -39 149q-42 45 -109 45q-81 0 -127 -55q-35 -45 -35 -149v-222h-27v667h27z" />
    <glyph glyph-name="Hbar" unicode="&#x126;" horiz-adv-x="660" 
d="M565 541v-541h-28v325h-413v-325h-28v541h-64v25h64v101h28v-101h413v101h28v-101h63v-25h-63zM537 541h-413v-190h413v190z" />
    <glyph glyph-name="hbar" unicode="&#x127;" horiz-adv-x="511" 
d="M74 566v101h27v-101h125v-25h-125v-181q51 92 164 92q81 0 129 -53q44 -50 44 -157v-242h-27v232q0 106 -39 149q-42 45 -110 45q-82 0 -126 -55q-35 -43 -35 -149v-222h-27v541h-64v25h64z" />
    <glyph glyph-name="Itilde" unicode="&#x128;" horiz-adv-x="208" 
d="M199 817l20 -5q-12 -50 -57 -50q-22 0 -60 17t-51 17q-31 0 -41 -32l-20 5q13 51 57 51q18 0 62 -19q30 -15 50 -15q30 0 40 31zM118 667v-667h-28v667h28z" />
    <glyph glyph-name="itilde" unicode="&#x129;" horiz-adv-x="173" 
d="M181 617l20 -5q-12 -50 -57 -50q-22 0 -60 17t-51 17q-31 0 -41 -32l-20 5q13 51 57 51q18 0 62 -19q30 -15 50 -15q30 0 40 31zM100 443v-443h-27v443h27z" />
    <glyph glyph-name="Imacron" unicode="&#x12a;" horiz-adv-x="208" 
d="M-13 803h235v-25h-235v25zM118 667v-667h-28v667h28z" />
    <glyph glyph-name="imacron" unicode="&#x12b;" horiz-adv-x="173" 
d="M-31 603h235v-25h-235v25zM100 443v-443h-27v443h27z" />
    <glyph glyph-name="Ibreve" unicode="&#x12c;" horiz-adv-x="208" 
d="M118 667v-667h-28v667h28zM-6 829l23 2q6 -33 30 -53.5t57 -20.5t57 20t31 54l23 -2q-11 -45 -39.5 -70t-71.5 -25q-44 0 -73.5 25.5t-36.5 69.5z" />
    <glyph glyph-name="ibreve" unicode="&#x12d;" horiz-adv-x="173" 
d="M100 443v-443h-27v443h27zM-24 629l23 2q6 -33 30 -53.5t57 -20.5t57 20t31 54l23 -2q-11 -45 -39.5 -70t-71.5 -25q-44 0 -73.5 25.5t-36.5 69.5z" />
    <glyph glyph-name="Iogonek" unicode="&#x12e;" horiz-adv-x="208" 
d="M118 667v-667q-33 -38 -33 -67q0 -19 13 -30t35 -11q13 0 26 5l8 -19q-23 -8 -39 -8q-29 0 -48.5 17t-19.5 43q0 32 31 70h-1v667h28z" />
    <glyph glyph-name="iogonek" unicode="&#x12f;" horiz-adv-x="173" 
d="M100 443v-443q-34 -39 -34 -67q0 -19 13.5 -30t35.5 -11q13 0 26 5l8 -20q-24 -7 -39 -7q-30 0 -49.5 17t-19.5 43q0 32 32 70v443h27zM86 613q10 0 17.5 -7.5t7.5 -17.5q0 -11 -7.5 -18.5t-17.5 -7.5t-17.5 8t-7.5 18t7.5 17.5t17.5 7.5z" />
    <glyph glyph-name="Idotaccent" unicode="&#x130;" horiz-adv-x="208" 
d="M118 667v-667h-28v667h28zM104 816q10 0 17.5 -7.5t7.5 -17.5q0 -11 -7.5 -18.5t-17.5 -7.5t-17.5 8t-7.5 18t7.5 17.5t17.5 7.5z" />
    <glyph glyph-name="dotlessi" unicode="&#x131;" horiz-adv-x="173" 
d="M100 443v-443h-27v443h27z" />
    <glyph glyph-name="IJ" unicode="&#x132;" horiz-adv-x="582" 
d="M118 667v-667h-28v667h28zM492 667v-473q0 -203 -150 -203q-63 0 -128 55l16 20q58 -48 111 -48q123 0 123 176v473h28z" />
    <glyph glyph-name="ij" unicode="&#x133;" horiz-adv-x="351" 
d="M100 443v-443h-27v443h27zM86 613q10 0 17.5 -7.5t7.5 -17.5q0 -11 -7.5 -18.5t-17.5 -7.5t-17.5 8t-7.5 18t7.5 17.5t17.5 7.5zM164 -233v25q15 -3 24 -3q34 0 48.5 25t14.5 81v548h27v-548q0 -133 -86 -133q-13 0 -28 5zM265 613q10 0 17.5 -7.5t7.5 -17.5
q0 -11 -7.5 -18.5t-17.5 -7.5t-17.5 8t-7.5 18t7.5 17.5t17.5 7.5z" />
    <glyph glyph-name="Jcircumflex" unicode="&#x134;" horiz-adv-x="382" 
d="M237 828l-96 -90l-16 8l92 101h40l92 -101l-17 -8zM292 667v-473q0 -203 -150 -203q-65 0 -128 55l16 20q58 -48 111 -48q123 0 123 176v473h28z" />
    <glyph glyph-name="jcircumflex" unicode="&#x135;" horiz-adv-x="182" 
d="M78 628l-96 -90l-16 8l92 101h40l92 -101l-17 -8zM-5 -233v25q15 -3 24 -3q34 0 48.5 25t14.5 81v548h27v-548q0 -133 -86 -133q-13 0 -28 5z" />
    <glyph glyph-name="Kcommaaccent" unicode="&#x136;" horiz-adv-x="544" 
d="M289 -71l29 -9l-50 -116l-15 4zM268 398l259 -398h-33l-244 377l-132 -147v-230h-28v667h28v-401l358 401h34z" />
    <glyph glyph-name="kcommaaccent" unicode="&#x137;" horiz-adv-x="445" 
d="M222 -71l29 -9l-50 -116l-15 4zM227 269l206 -269h-33l-191 251l-109 -110v-141h-27v667h27v-493l266 269h34z" />
    <glyph glyph-name="kgreenlandic" unicode="&#x138;" horiz-adv-x="445" 
d="M227 269l206 -269h-33l-191 251l-109 -110v-141h-27v443h27v-269l266 269h34z" />
    <glyph glyph-name="Lacute" unicode="&#x139;" horiz-adv-x="410" 
d="M208 836l-96 -97l-14 8l78 106zM118 667v-640h275v-27h-303v667h28z" />
    <glyph glyph-name="lacute" unicode="&#x13a;" horiz-adv-x="173" 
d="M185 848l-96 -97l-13 7l77 107zM100 0h-27v667h27v-667z" />
    <glyph glyph-name="Lcommaaccent" unicode="&#x13b;" horiz-adv-x="416" 
d="M244 -71l29 -9l-50 -116l-15 4zM118 667v-640h275v-27h-303v667h28z" />
    <glyph glyph-name="lcommaaccent" unicode="&#x13c;" horiz-adv-x="173" 
d="M71 -71l29 -9l-50 -116l-15 4zM99 0h-27v667h27v-667z" />
    <glyph glyph-name="Lcaron" unicode="&#x13d;" horiz-adv-x="416" 
d="M294 679l30 -9l-50 -117l-16 5zM118 667v-640h275v-27h-303v667h28z" />
    <glyph glyph-name="lcaron" unicode="&#x13e;" horiz-adv-x="247" 
d="M213 679l30 -9l-50 -117l-16 5zM101 0h-27v667h27v-667z" />
    <glyph glyph-name="Ldot" unicode="&#x13f;" horiz-adv-x="416" 
d="M118 667v-640h275v-27h-303v667h28zM303 359q10 0 17.5 -7.5t7.5 -17.5q0 -11 -7.5 -18.5t-17.5 -7.5t-17.5 8t-7.5 18t7.5 17.5t17.5 7.5z" />
    <glyph glyph-name="ldot" unicode="&#x140;" horiz-adv-x="275" 
d="M101 667v-667h-27v667h27zM223 359q10 0 17.5 -7.5t7.5 -17.5q0 -11 -7.5 -18.5t-17.5 -7.5t-17.5 8t-7.5 18t7.5 17.5t17.5 7.5z" />
    <glyph glyph-name="Lslash" unicode="&#x141;" horiz-adv-x="435" 
d="M109 321l-71 -46v27l71 46v319h28v-301l118 77v-27l-118 -77v-312h275v-27h-303v321z" />
    <glyph glyph-name="lslash" unicode="&#x142;" horiz-adv-x="233" 
d="M103 328l-68 -46v26l68 47v312h27v-294l68 46v-26l-68 -47v-346h-27v328z" />
    <glyph glyph-name="Nacute" unicode="&#x143;" horiz-adv-x="713" 
d="M460 836l-97 -97l-13 8l77 106zM118 637v-637h-28v667h38l467 -637v637h28v-667h-38z" />
    <glyph glyph-name="nacute" unicode="&#x144;" horiz-adv-x="510" 
d="M360 636l-97 -97l-13 8l78 107zM100 443v-83q51 92 164 92q81 0 129 -53q44 -48 44 -157v-242h-27v232q0 106 -39 149q-42 45 -109 45q-81 0 -127 -55q-35 -45 -35 -149v-222h-27v443h27z" />
    <glyph glyph-name="Ncommaaccent" unicode="&#x145;" horiz-adv-x="713" 
d="M359 -71l29 -9l-50 -116l-15 4zM118 637v-637h-28v667h38l467 -637v637h28v-667h-38z" />
    <glyph glyph-name="ncommaaccent" unicode="&#x146;" horiz-adv-x="510" 
d="M257 -71l30 -9l-51 -116l-15 4zM100 443v-83q51 92 164 92q81 0 129 -53q44 -48 44 -157v-242h-27v232q0 106 -39 149q-42 45 -109 45q-81 0 -127 -55q-35 -45 -35 -149v-222h-27v443h27z" />
    <glyph glyph-name="Ncaron" unicode="&#x147;" horiz-adv-x="713" 
d="M373 759l96 90l16 -8l-92 -101h-39l-92 101l16 8zM118 637v-637h-28v667h38l467 -637v637h28v-667h-38z" />
    <glyph glyph-name="ncaron" unicode="&#x148;" horiz-adv-x="510" 
d="M260 559l96 90l16 -8l-92 -101h-40l-92 101l17 8zM100 443v-83q51 92 164 92q81 0 129 -53q44 -48 44 -157v-242h-27v232q0 106 -39 149q-42 45 -109 45q-81 0 -127 -55q-35 -45 -35 -149v-222h-27v443h27z" />
    <glyph glyph-name="napostrophe" unicode="&#x149;" horiz-adv-x="576" 
d="M80 642l28 -10l-85 -189l-13 5zM165 443v-83q51 92 165 92q81 0 129 -53q44 -48 44 -157v-242h-27v232q0 106 -39 149q-42 45 -110 45q-81 0 -127 -55q-35 -45 -35 -149v-222h-27v443h27z" />
    <glyph glyph-name="Eng" unicode="&#x14a;" horiz-adv-x="713" 
d="M623 667v-680q0 -133 -85 -133q-13 0 -28 5v25q15 -3 23 -3q34 0 49 25t15 81v13h-12l-467 637v-637h-28v667h38l467 -636v636h28z" />
    <glyph glyph-name="eng" unicode="&#x14b;" horiz-adv-x="510" 
d="M100 0h-27v443h27v-83q51 92 164 92q81 0 129 -53q44 -48 44 -158v-255q0 -133 -85 -133q-14 0 -29 5v25q15 -3 24 -3q34 0 48.5 25t14.5 81v246q0 106 -39 149q-42 45 -109 45q-81 0 -127 -55q-35 -45 -35 -150v-221z" />
    <glyph glyph-name="Omacron" unicode="&#x14c;" horiz-adv-x="767" 
d="M266 803h235v-25h-235v25zM384 676q136 0 233.5 -101t97.5 -242t-98 -241.5t-236 -100.5q-136 0 -232.5 102t-96.5 246q0 136 99 236.5t233 100.5zM381 649q-126 0 -213 -93t-87 -228q0 -126 90 -218t213 -92q124 0 213 92.5t89 222.5q0 133 -88.5 224.5t-216.5 91.5z
" />
    <glyph glyph-name="omacron" unicode="&#x14d;" horiz-adv-x="533" 
d="M149 603h235v-25h-235v25zM270 452q91 0 154.5 -67t63.5 -163q0 -97 -64 -164t-157 -67q-94 0 -158 67t-64 166q0 97 65 162.5t160 65.5zM263 426q-82 0 -135.5 -58t-53.5 -146q0 -89 54 -147t139 -58q84 0 138 58t54 149q0 89 -55 145.5t-141 56.5z" />
    <glyph glyph-name="Obreve" unicode="&#x14e;" horiz-adv-x="767" 
d="M272 829l24 2q5 -33 29 -53.5t57 -20.5t57 20t31 54l24 -2q-10 -45 -39.5 -70t-71.5 -25q-44 0 -73.5 25.5t-37.5 69.5zM384 676q136 0 233.5 -101t97.5 -242t-98 -241.5t-236 -100.5q-136 0 -232.5 102t-96.5 246q0 136 99 236.5t233 100.5zM381 649q-126 0 -213 -93
t-87 -228q0 -126 90 -218t213 -92q124 0 213 92.5t89 222.5q0 133 -88.5 224.5t-216.5 91.5z" />
    <glyph glyph-name="obreve" unicode="&#x14f;" horiz-adv-x="533" 
d="M155 629l24 2q5 -33 29 -53.5t57 -20.5t57 20t31 54l23 -2q-10 -45 -39 -70t-71 -25q-44 0 -73.5 25.5t-37.5 69.5zM270 452q91 0 154.5 -67t63.5 -163q0 -97 -64 -164t-157 -67q-94 0 -158 67t-64 166q0 97 65 162.5t160 65.5zM263 426q-82 0 -135.5 -58t-53.5 -146
q0 -89 54 -147t139 -58q84 0 138 58t54 149q0 89 -55 145.5t-141 56.5z" />
    <glyph glyph-name="Ohungarumlaut" unicode="&#x150;" horiz-adv-x="767" 
d="M549 836l-97 -96l-10 6l77 107zM409 836l-97 -96l-10 6l77 107zM384 676q136 0 233.5 -101t97.5 -242t-98 -241.5t-236 -100.5q-136 0 -232.5 102t-96.5 246q0 136 99 236.5t233 100.5zM381 649q-126 0 -213 -93t-87 -228q0 -126 90 -218t213 -92q124 0 213 92.5
t89 222.5q0 133 -88.5 224.5t-216.5 91.5z" />
    <glyph glyph-name="ohungarumlaut" unicode="&#x151;" horiz-adv-x="533" 
d="M302 637l-97 -97l-10 6l77 107zM442 637l-97 -97l-10 6l77 107zM270 452q91 0 154.5 -67t63.5 -163q0 -97 -64 -164t-157 -67q-94 0 -158 67t-64 166q0 97 65 162.5t160 65.5zM263 426q-82 0 -135.5 -58t-53.5 -146q0 -89 54 -147t139 -58q84 0 138 58t54 149
q0 89 -55 145.5t-141 56.5z" />
    <glyph glyph-name="OE" unicode="&#x152;" horiz-adv-x="1063" 
d="M687 470v197h313v-26h-285v-290h254v-26h-254v-298h296v-27h-324v196q-42 -94 -124 -149.5t-179 -55.5q-136 0 -234 101t-98 241q0 141 98 242t234 101q97 0 179.5 -56t123.5 -150zM382 649q-126 0 -213.5 -93.5t-87.5 -227.5q0 -126 90 -218t213 -92q125 0 214 92.5
t89 222.5q0 132 -89 224t-216 92z" />
    <glyph glyph-name="oe" unicode="&#x153;" horiz-adv-x="915" 
d="M828 98l26 -11q-71 -96 -181 -96q-69 0 -122.5 39.5t-76.5 107.5q-26 -69 -81 -108t-126 -39q-94 0 -158 66.5t-64 164.5q0 97 64 163.5t158 66.5q70 0 126 -39.5t81 -106.5q24 68 76 107t117 39q67 0 119 -41t73 -109q12 -44 12 -92h-383q5 -87 55.5 -140t128.5 -53
q99 0 156 81zM264 426q-82 0 -136 -58t-54 -146q0 -89 54.5 -147t138.5 -58q85 0 139 58t54 148q0 89 -55 146t-141 57zM488 233h356q-4 40 -14 71q-17 56 -61.5 89t-101.5 33q-75 0 -124.5 -53.5t-54.5 -139.5z" />
    <glyph glyph-name="Racute" unicode="&#x154;" horiz-adv-x="512" 
d="M341 836l-96 -97l-14 8l78 106zM313 300l163 -300h-31l-159 294q-38 -5 -77 -5h-91v-289h-28v667h119q123 0 176 -48q61 -55 61 -143q0 -66 -36 -114t-97 -62zM118 315h101q97 0 147 40q52 44 52 121t-52 123q-49 42 -147 42h-101v-326z" />
    <glyph glyph-name="racute" unicode="&#x155;" horiz-adv-x="281" 
d="M228 636l-96 -97l-14 8l78 107zM100 443v-83q44 83 151 83v-24q-80 -2 -117 -51.5t-34 -150.5v-217h-27v443h27z" />
    <glyph glyph-name="Rcommaaccent" unicode="&#x156;" horiz-adv-x="512" 
d="M273 -71l30 -9l-50 -116l-15 4zM313 300l163 -300h-31l-159 294q-38 -5 -77 -5h-91v-289h-28v667h119q123 0 176 -48q61 -55 61 -143q0 -66 -36 -114t-97 -62zM118 315h101q97 0 147 40q52 44 52 121t-52 123q-49 42 -147 42h-101v-326z" />
    <glyph glyph-name="rcommaaccent" unicode="&#x157;" horiz-adv-x="281" 
d="M77 -71l29 -9l-50 -116l-15 4zM100 443v-83q44 83 151 83v-24q-80 -2 -117 -51.5t-34 -150.5v-217h-27v443h27z" />
    <glyph glyph-name="Rcaron" unicode="&#x158;" horiz-adv-x="512" 
d="M253 759l96 90l16 -8l-92 -101h-40l-92 101l17 8zM313 300l163 -300h-31l-159 294q-38 -5 -77 -5h-91v-289h-28v667h119q123 0 176 -48q61 -55 61 -143q0 -66 -36 -114t-97 -62zM118 315h101q97 0 147 40q52 44 52 121t-52 123q-49 42 -147 42h-101v-326z" />
    <glyph glyph-name="rcaron" unicode="&#x159;" horiz-adv-x="265" 
d="M162 559l95 90l17 -8l-92 -101h-40l-92 101l16 8zM100 443v-83q44 83 151 83v-24q-80 -2 -117 -51.5t-34 -150.5v-217h-27v443h27z" />
    <glyph glyph-name="Sacute" unicode="&#x15a;" horiz-adv-x="491" 
d="M346 836l-97 -97l-13 8l78 106zM406 597l-23 -15q-55 68 -131 68q-65 0 -109 -40.5t-44 -100.5q0 -88 118 -134l68 -27q77 -30 112.5 -70.5t35.5 -97.5q0 -80 -57 -134.5t-140 -54.5q-68 0 -116 36t-70 104l28 7q41 -120 160 -120q70 0 118.5 47t48.5 114q0 51 -31 84
t-108 64l-65 26q-129 51 -129 156q0 73 51.5 120t130.5 47q92 0 152 -79z" />
    <glyph glyph-name="sacute" unicode="&#x15b;" horiz-adv-x="361" 
d="M270 636l-96 -97l-14 8l78 107zM296 394l-23 -12q-37 45 -91 45q-43 0 -71.5 -24.5t-28.5 -62.5t28 -63q14 -11 67 -32l47 -19q93 -36 93 -105q0 -55 -40.5 -92.5t-100.5 -37.5q-90 0 -136 90l24 11q24 -41 50.5 -58.5t64.5 -17.5q47 0 78.5 28.5t31.5 71.5q0 40 -32 66
q-14 10 -67 31l-52 20q-82 33 -82 103q0 50 36.5 83t91.5 33q68 0 112 -58z" />
    <glyph glyph-name="Scircumflex" unicode="&#x15c;" horiz-adv-x="491" 
d="M239 828l-95 -90l-16 8l92 101h39l92 -101l-16 -8zM406 597l-23 -15q-55 68 -131 68q-65 0 -109 -40.5t-44 -100.5q0 -88 118 -134l68 -27q77 -30 112.5 -70.5t35.5 -97.5q0 -80 -57 -134.5t-140 -54.5q-68 0 -116 36t-70 104l28 7q41 -120 160 -120q70 0 118.5 47
t48.5 114q0 51 -31 84t-108 64l-65 26q-129 51 -129 156q0 73 51.5 120t130.5 47q92 0 152 -79z" />
    <glyph glyph-name="scircumflex" unicode="&#x15d;" horiz-adv-x="361" 
d="M177 628l-96 -90l-16 8l92 101h40l92 -101l-17 -8zM296 394l-23 -12q-37 45 -91 45q-43 0 -71.5 -24.5t-28.5 -62.5t28 -63q14 -11 67 -32l47 -19q93 -36 93 -105q0 -55 -40.5 -92.5t-100.5 -37.5q-90 0 -136 90l24 11q24 -41 50.5 -58.5t64.5 -17.5q47 0 78.5 28.5
t31.5 71.5q0 40 -32 66q-14 10 -67 31l-52 20q-82 33 -82 103q0 50 36.5 83t91.5 33q68 0 112 -58z" />
    <glyph glyph-name="Scedilla" unicode="&#x15e;" horiz-adv-x="491" 
d="M284 -83l-76 -96l-16 8l64 100zM406 597l-23 -15q-55 68 -131 68q-65 0 -109 -40.5t-44 -100.5q0 -88 118 -134l68 -27q77 -30 112.5 -70.5t35.5 -97.5q0 -80 -57 -134.5t-140 -54.5q-68 0 -116 36t-70 104l28 7q41 -120 160 -120q70 0 118.5 47t48.5 114q0 51 -31 84
t-108 64l-65 26q-129 51 -129 156q0 73 51.5 120t130.5 47q92 0 152 -79z" />
    <glyph glyph-name="scedilla" unicode="&#x15f;" horiz-adv-x="361" 
d="M213 -83l-76 -96l-16 8l64 100zM296 394l-23 -12q-37 45 -91 45q-43 0 -71.5 -24.5t-28.5 -62.5t28 -63q14 -11 67 -32l47 -19q93 -36 93 -105q0 -55 -40.5 -92.5t-100.5 -37.5q-90 0 -136 90l24 11q24 -41 50.5 -58.5t64.5 -17.5q47 0 78.5 28.5t31.5 71.5q0 40 -32 66
q-14 10 -67 31l-52 20q-82 33 -82 103q0 50 36.5 83t91.5 33q68 0 112 -58z" />
    <glyph glyph-name="Scaron" unicode="&#x160;" horiz-adv-x="491" 
d="M239 759l96 90l16 -8l-92 -101h-39l-92 101l16 8zM406 597l-23 -15q-55 68 -131 68q-65 0 -109 -40.5t-44 -100.5q0 -88 118 -134l68 -27q77 -30 112.5 -70.5t35.5 -97.5q0 -80 -57 -134.5t-140 -54.5q-68 0 -116 36t-70 104l28 7q41 -120 160 -120q70 0 118.5 47
t48.5 114q0 51 -31 84t-108 64l-65 26q-129 51 -129 156q0 73 51.5 120t130.5 47q92 0 152 -79z" />
    <glyph glyph-name="scaron" unicode="&#x161;" horiz-adv-x="361" 
d="M177 559l95 90l17 -8l-92 -101h-40l-92 101l16 8zM296 394l-23 -12q-37 45 -91 45q-43 0 -71.5 -24.5t-28.5 -62.5t28 -63q14 -11 67 -32l47 -19q93 -36 93 -105q0 -55 -40.5 -92.5t-100.5 -37.5q-90 0 -136 90l24 11q24 -41 50.5 -58.5t64.5 -17.5q47 0 78.5 28.5
t31.5 71.5q0 40 -32 66q-14 10 -67 31l-52 20q-82 33 -82 103q0 50 36.5 83t91.5 33q68 0 112 -58z" />
    <glyph glyph-name="Tcommaaccent" unicode="&#x162;" horiz-adv-x="428" 
d="M201 -71l30 -9l-51 -116l-15 4zM228 641v-641h-28v641h-183v26h394v-26h-183z" />
    <glyph glyph-name="tcommaaccent" unicode="&#x163;" horiz-adv-x="234" 
d="M118 -71l30 -9l-50 -116l-16 4zM87 418h-55v25h55v123l27 10v-133h80v-25h-80v-290q0 -56 14.5 -81t48.5 -25q9 0 24 3v-25q-15 -5 -28 -5q-86 0 -86 133v290z" />
    <glyph glyph-name="Tcaron" unicode="&#x164;" horiz-adv-x="428" 
d="M215 759l95 90l16 -8l-92 -101h-39l-92 101l16 8zM228 641v-641h-28v641h-183v26h394v-26h-183z" />
    <glyph glyph-name="tcaron" unicode="&#x165;" horiz-adv-x="277" 
d="M243 679l30 -9l-50 -117l-16 5zM87 418h-55v25h55v116l27 11v-127h80v-25h-80v-290q0 -56 14.5 -81t48.5 -25q9 0 24 3v-25q-15 -5 -28 -5q-86 0 -86 133v290z" />
    <glyph glyph-name="Tbar" unicode="&#x166;" horiz-adv-x="428" 
d="M228 418v-418h-28v418h-93v25h93v198h-183v26h394v-26h-183v-198h93v-25h-93z" />
    <glyph glyph-name="tbar" unicode="&#x167;" horiz-adv-x="234" 
d="M114 443h80v-25h-80v-127h80v-25h-80v-138q0 -56 14.5 -81t48.5 -25q9 0 24 3v-25q-15 -5 -28 -5q-86 0 -86 133v138h-55v25h55v127h-55v25h55v116l27 11v-127z" />
    <glyph glyph-name="Utilde" unicode="&#x168;" horiz-adv-x="634" 
d="M412 817l20 -5q-12 -50 -58 -50q-21 0 -59 17t-51 17q-31 0 -41 -32l-20 5q13 51 57 51q18 0 62 -19q30 -15 50 -15q30 0 40 31zM118 667v-415q0 -59 6 -90t22 -57q24 -39 71 -63t100 -24t100 24t71 63q16 26 22 57t6 90v415h28v-437q0 -99 -41 -151q-31 -41 -81 -64.5
t-105 -23.5t-105 23.5t-82 64.5q-40 52 -40 151v437h28z" />
    <glyph glyph-name="utilde" unicode="&#x169;" horiz-adv-x="510" 
d="M350 617l20 -5q-12 -50 -57 -50q-22 0 -60 17t-51 17q-31 0 -41 -32l-20 5q13 51 57 51q18 0 62 -19q30 -15 50 -15q30 0 40 31zM410 0v83q-51 -92 -164 -92q-81 0 -129 53q-44 48 -44 158v241h27v-232q0 -106 39 -149q42 -45 109 -45q81 0 127 55q35 45 35 150v221h27
v-443h-27z" />
    <glyph glyph-name="Umacron" unicode="&#x16a;" horiz-adv-x="634" 
d="M200 803h234v-25h-234v25zM118 667v-415q0 -59 6 -90t22 -57q24 -39 71 -63t100 -24t100 24t71 63q16 26 22 57t6 90v415h28v-437q0 -99 -41 -151q-31 -41 -81 -64.5t-105 -23.5t-105 23.5t-82 64.5q-40 52 -40 151v437h28z" />
    <glyph glyph-name="umacron" unicode="&#x16b;" horiz-adv-x="510" 
d="M138 603h234v-25h-234v25zM410 0v83q-51 -92 -164 -92q-81 0 -129 53q-44 48 -44 158v241h27v-232q0 -106 39 -149q42 -45 109 -45q81 0 127 55q35 45 35 150v221h27v-443h-27z" />
    <glyph glyph-name="Ubreve" unicode="&#x16c;" horiz-adv-x="634" 
d="M205 829l24 2q5 -33 29 -53.5t57 -20.5q34 0 57.5 19.5t31.5 54.5l23 -2q-10 -45 -39.5 -70t-71.5 -25q-44 0 -73.5 25.5t-37.5 69.5zM118 667v-415q0 -59 6 -90t22 -57q24 -39 71 -63t100 -24t100 24t71 63q16 26 22 57t6 90v415h28v-437q0 -99 -41 -151
q-31 -41 -81 -64.5t-105 -23.5t-105 23.5t-82 64.5q-40 52 -40 151v437h28z" />
    <glyph glyph-name="ubreve" unicode="&#x16d;" horiz-adv-x="510" 
d="M144 629l23 2q5 -33 29 -53.5t58 -20.5q33 0 57 20t31 54l23 -2q-10 -45 -39.5 -70t-71.5 -25q-44 0 -73.5 25.5t-36.5 69.5zM410 0v83q-51 -92 -164 -92q-81 0 -129 53q-44 48 -44 158v241h27v-232q0 -106 39 -149q42 -45 109 -45q81 0 127 55q35 45 35 150v221h27v-443
h-27z" />
    <glyph glyph-name="Uring" unicode="&#x16e;" horiz-adv-x="634" 
d="M118 667v-415q0 -59 6 -90t22 -57q24 -39 71 -63t100 -24t100 24t71 63q16 26 22 57t6 90v415h28v-437q0 -99 -41 -151q-31 -41 -81 -64.5t-105 -23.5t-105 23.5t-82 64.5q-40 52 -40 151v437h28zM317 859q29 0 49.5 -20t20.5 -48q0 -29 -20.5 -49t-49.5 -20t-49.5 20
t-20.5 49q0 28 20.5 48t49.5 20zM317 842q-21 0 -36 -15t-15 -37q0 -21 15 -36t36 -15t36 15t15 36q0 22 -15 37t-36 15z" />
    <glyph glyph-name="uring" unicode="&#x16f;" horiz-adv-x="510" 
d="M255 659q29 0 49.5 -20t20.5 -48t-20.5 -48t-49.5 -20t-49.5 20t-20.5 49q0 27 21 47t49 20zM255 642q-21 0 -36 -15t-15 -37q0 -20 15 -35t36 -15t36 15t15 36t-15 36t-36 15zM410 0v83q-51 -92 -164 -92q-81 0 -129 53q-44 48 -44 158v241h27v-232q0 -106 39 -149
q42 -45 109 -45q81 0 127 55q35 45 35 150v221h27v-443h-27z" />
    <glyph glyph-name="Uhungarumlaut" unicode="&#x170;" horiz-adv-x="634" 
d="M472 836l-96 -96l-11 6l78 107zM332 836l-96 -96l-11 6l78 107zM118 667v-415q0 -59 6 -90t22 -57q24 -39 71 -63t100 -24t100 24t71 63q16 26 22 57t6 90v415h28v-437q0 -99 -41 -151q-31 -41 -81 -64.5t-105 -23.5t-105 23.5t-82 64.5q-40 52 -40 151v437h28z" />
    <glyph glyph-name="uhungarumlaut" unicode="&#x171;" horiz-adv-x="510" 
d="M415 637l-96 -97l-11 6l78 107zM275 637l-96 -97l-11 6l78 107zM410 0v83q-51 -92 -164 -92q-81 0 -129 53q-44 48 -44 158v241h27v-232q0 -106 39 -149q42 -45 109 -45q81 0 127 55q35 45 35 150v221h27v-443h-27z" />
    <glyph glyph-name="Uogonek" unicode="&#x172;" horiz-adv-x="634" 
d="M551 667v-437q4 -100 -51 -163.5t-157 -74.5q-27 -33 -27 -59q0 -19 13 -30t35 -11q13 0 27 5l8 -20q-25 -7 -39 -7q-30 0 -49.5 17t-19.5 43q0 30 25 61q-107 8 -165.5 72t-53.5 167v437h28v-415q0 -59 6 -90t22 -57q24 -39 71 -63t100 -24t100 24t71 63q16 26 22 57
t6 90v415h28z" />
    <glyph glyph-name="uogonek" unicode="&#x173;" horiz-adv-x="510" 
d="M437 443v-443q-34 -39 -34 -67q0 -19 13.5 -30t35.5 -11q14 0 26 5l8 -20q-24 -7 -39 -7q-30 0 -49.5 17t-19.5 43q0 31 32 70v83q-51 -92 -164 -92q-81 0 -129 53q-44 48 -44 158v241h27v-232q0 -106 39 -149q42 -45 109 -45q81 0 127 55q35 45 35 150v221h27z" />
    <glyph glyph-name="Wcircumflex" unicode="&#x174;" horiz-adv-x="872" 
d="M436 828l-95 -90l-17 8l92 101h40l92 -101l-16 -8zM436 639l-180 -639h-38l-201 667h29l191 -639l179 639h40l179 -639l192 639h29l-202 -667h-37z" />
    <glyph glyph-name="wcircumflex" unicode="&#x175;" horiz-adv-x="681" 
d="M341 628l-96 -90l-16 8l92 101h40l91 -101l-16 -8zM175 0l-164 443h30l152 -419l129 419h37l129 -420l153 420h29l-164 -443h-36l-129 413l-130 -413h-36z" />
    <glyph glyph-name="Ycircumflex" unicode="&#x176;" horiz-adv-x="472" 
d="M236 828l-96 -90l-16 8l92 101h40l92 -101l-17 -8zM222 281l-212 386h31l195 -359l195 359h30l-211 -386v-281h-28v281z" />
    <glyph glyph-name="ycircumflex" unicode="&#x177;" horiz-adv-x="421" 
d="M212 628l-96 -90l-16 8l92 101h40l92 -101l-17 -8zM194 7l-183 436h30l167 -404l173 404h30l-292 -676h-27z" />
    <glyph glyph-name="Ydieresis" unicode="&#x178;" horiz-adv-x="472" 
d="M222 281l-212 386h31l195 -359l195 359h30l-211 -386v-281h-28v281zM328 816q10 0 17.5 -7.5t7.5 -17.5t-7.5 -18t-17.5 -8t-17.5 7.5t-7.5 18.5q0 10 7.5 17.5t17.5 7.5zM144 816q10 0 17.5 -7.5t7.5 -17.5t-7.5 -18t-17.5 -8t-17.5 7.5t-7.5 18.5q0 10 7.5 17.5
t17.5 7.5z" />
    <glyph glyph-name="Zacute" unicode="&#x179;" horiz-adv-x="507" 
d="M339 836l-96 -97l-13 8l77 106zM58 27h414v-27h-439v37l408 604h-376v26h399v-36z" />
    <glyph glyph-name="zacute" unicode="&#x17a;" horiz-adv-x="419" 
d="M302 636l-96 -97l-13 8l77 107zM67 25h325v-25h-353v29l316 389h-300v25h327v-24v-5z" />
    <glyph glyph-name="Zdotaccent" unicode="&#x17b;" horiz-adv-x="507" 
d="M58 27h414v-27h-439v37l408 604h-376v26h399v-36zM269 816q10 0 17.5 -7.5t7.5 -17.5q0 -11 -7.5 -18.5t-17.5 -7.5t-17.5 8t-7.5 18t7.5 17.5t17.5 7.5z" />
    <glyph glyph-name="zdotaccent" unicode="&#x17c;" horiz-adv-x="419" 
d="M67 25h325v-25h-353v29l316 389h-300v25h327v-24v-5zM216 613q10 0 17.5 -7.5t7.5 -17.5q0 -11 -7.5 -18.5t-17.5 -7.5t-17.5 8t-7.5 18t7.5 17.5t17.5 7.5z" />
    <glyph glyph-name="Zcaron" unicode="&#x17d;" horiz-adv-x="507" 
d="M270 759l95 90l16 -8l-91 -101h-40l-92 101l16 8zM58 27h414v-27h-439v37l408 604h-376v26h399v-36z" />
    <glyph glyph-name="zcaron" unicode="&#x17e;" horiz-adv-x="419" 
d="M216 559l96 90l16 -8l-92 -101h-40l-92 101l17 8zM67 25h325v-25h-353v29l316 389h-300v25h327v-24v-5z" />
    <glyph glyph-name="longs" unicode="&#x17f;" horiz-adv-x="215" 
d="M119 0h-27v418h-50v25h50v95q0 134 86 134q13 0 28 -5v-25q-15 3 -24 3q-34 0 -48.5 -25t-14.5 -82v-538z" />
    <glyph glyph-name="florin" unicode="&#x192;" horiz-adv-x="448" 
d="M18 -193l5 27q5 -1 11 -1q72 0 91 92l100 493h-48l5 25h48l21 101q25 128 120 128q9 0 17 -1l-6 -26h-10q-73 0 -91 -92l-23 -110h84l-5 -25h-84l-98 -484q-27 -128 -121 -128q-8 0 -16 1z" />
    <glyph glyph-name="Ohorn" unicode="&#x1a0;" horiz-adv-x="757" 
d="M668 712l21 11q36 -35 36 -84q0 -33 -16 -56t-57 -51q63 -88 63 -200q0 -139 -98 -240t-233 -101q-136 0 -234 101t-98 241q0 141 98 242t234 101q149 0 252 -123q37 21 50.5 39.5t13.5 47.5q0 37 -32 72zM381 649q-126 0 -213 -93t-87 -228q0 -126 90 -218t213 -92
q124 0 213 92.5t89 222.5q0 133 -88.5 224.5t-216.5 91.5z" />
    <glyph glyph-name="ohorn" unicode="&#x1a1;" horiz-adv-x="556" 
d="M473 488l21 11q36 -35 36 -84q0 -56 -60 -99q18 -45 18 -94q0 -97 -64 -164t-157 -67q-94 0 -158 66.5t-64 164.5q0 97 64 163.5t158 66.5q61 0 111 -29.5t80 -83.5q47 31 47 77q0 39 -32 72zM263 426q-82 0 -135.5 -58t-53.5 -146q0 -89 54 -147t139 -58q84 0 138 58
t54 149q0 89 -55 145.5t-141 56.5z" />
    <glyph glyph-name="Uhorn" unicode="&#x1af;" horiz-adv-x="656" 
d="M544 667v-121q45 26 59.5 44.5t14.5 49.5q0 39 -32 72l21 10q36 -33 36 -83q0 -37 -20.5 -62t-78.5 -59v-288q0 -99 -41 -151q-31 -41 -80.5 -64.5t-105.5 -23.5q-55 0 -105 23.5t-82 64.5q-40 52 -40 151v437h28v-416q0 -99 28 -146q24 -39 71 -63t100 -24t100 24t71 63
q28 47 28 146v416h28z" />
    <glyph glyph-name="uhorn" unicode="&#x1b0;" horiz-adv-x="559" 
d="M437 443v-118q42 26 56 44t14 48q0 38 -32 71l22 11q35 -33 35 -83q0 -37 -20 -62.5t-75 -56.5v-297h-27v83q-51 -92 -164 -92q-81 0 -129 53q-44 48 -44 158v241h27v-232q0 -106 39 -149q42 -45 109 -45q81 0 127 55q35 45 35 150v221h27z" />
    <glyph glyph-name="uni01C4" unicode="&#x1c4;" horiz-adv-x="1125" 
d="M90 667h119q166 0 261.5 -89t95.5 -244t-95.5 -244.5t-261.5 -89.5h-119v667zM118 640v-613h95q148 0 236.5 83.5t88.5 223.5q0 139 -88.5 222.5t-236.5 83.5h-95zM889 759l95 90l16 -8l-91 -101h-40l-92 101l16 8zM677 27h414v-27h-439v37l408 604h-376v26h399v-36z" />
    <glyph glyph-name="uni01C5" unicode="&#x1c5;" horiz-adv-x="1037" 
d="M90 667h119q166 0 261.5 -89t95.5 -244t-95.5 -244.5t-261.5 -89.5h-119v667zM118 640v-613h95q148 0 236.5 83.5t88.5 223.5q0 139 -88.5 222.5t-236.5 83.5h-95zM834 559l96 90l16 -8l-92 -101h-39l-92 101l16 8zM685 25h326v-25h-354v29l316 389h-300v25h327v-24v-5z
" />
    <glyph glyph-name="uni01C6" unicode="&#x1c6;" horiz-adv-x="972" 
d="M481 0h-27v102q-68 -111 -188 -111q-93 0 -157 67t-64 164t64 163.5t157 66.5q119 0 188 -111v326h27v-667zM263 426q-82 0 -135.5 -58t-53.5 -146q0 -89 54 -147t138 -58q83 0 136.5 58t53.5 149q0 89 -54 145.5t-139 56.5zM770 559l95 90l17 -8l-92 -101h-40l-92 101
l16 8zM620 25h326v-25h-353v29l315 389h-299v25h326v-24v-5z" />
    <glyph glyph-name="uni01C7" unicode="&#x1c7;" horiz-adv-x="777" 
d="M118 667v-640h275v-27h-303v667h28zM708 667v-473q0 -203 -150 -203q-63 0 -128 55l16 20q58 -48 111 -48q123 0 123 176v473h28z" />
    <glyph glyph-name="uni01C8" unicode="&#x1c8;" horiz-adv-x="598" 
d="M118 667v-640h275v-27h-303v667h28zM411 -233v25q15 -3 24 -3q34 0 48.5 25t14.5 81v548h27v-548q0 -133 -86 -133q-13 0 -28 5zM511 613q10 0 17.5 -7.5t7.5 -17.5q0 -11 -7.5 -18.5t-17.5 -7.5t-17.5 8t-7.5 18t7.5 17.5t17.5 7.5z" />
    <glyph glyph-name="uni01C9" unicode="&#x1c9;" horiz-adv-x="357" 
d="M101 0h-27v667h27v-667zM170 -233v25q15 -3 24 -3q34 0 48.5 25t14.5 81v548h27v-548q0 -133 -86 -133q-13 0 -28 5zM270 613q10 0 17.5 -7.5t7.5 -17.5q0 -11 -7.5 -18.5t-17.5 -7.5t-17.5 8t-7.5 18t7.5 17.5t17.5 7.5z" />
    <glyph glyph-name="uni01CA" unicode="&#x1ca;" horiz-adv-x="1074" 
d="M118 637v-637h-28v667h38l467 -637v637h28v-667h-38zM1005 667v-473q0 -203 -150 -203q-63 0 -128 55l16 20q58 -48 111 -48q123 0 123 176v473h28z" />
    <glyph glyph-name="uni01CB" unicode="&#x1cb;" horiz-adv-x="895" 
d="M118 637v-637h-28v667h38l467 -637v637h28v-667h-38zM708 -233v25q15 -3 24 -3q34 0 48.5 25t14.5 81v548h27v-548q0 -133 -86 -133q-13 0 -28 5zM809 613q10 0 17.5 -7.5t7.5 -17.5q0 -11 -7.5 -18.5t-17.5 -7.5t-17.5 8t-7.5 18t7.5 17.5t17.5 7.5z" />
    <glyph glyph-name="uni01CC" unicode="&#x1cc;" horiz-adv-x="692" 
d="M100 443v-83q51 92 164 92q81 0 129 -53q44 -48 44 -157v-242h-27v232q0 106 -39 149q-42 45 -109 45q-81 0 -127 -55q-35 -45 -35 -149v-222h-27v443h27zM505 -233v25q15 -3 24 -3q34 0 48.5 25t14.5 81v548h27v-548q0 -133 -86 -133q-13 0 -28 5zM606 613
q10 0 17.5 -7.5t7.5 -17.5q0 -11 -7.5 -18.5t-17.5 -7.5t-17.5 8t-7.5 18t7.5 17.5t17.5 7.5z" />
    <glyph glyph-name="uni01CD" unicode="&#x1cd;" horiz-adv-x="604" 
d="M302 759l96 90l16 -8l-92 -101h-40l-92 101l17 8zM127 202l-81 -202h-29l270 667h30l270 -667h-29l-81 202h-350zM138 228h328l-164 411z" />
    <glyph glyph-name="uni01CE" unicode="&#x1ce;" horiz-adv-x="554" 
d="M263 559l96 90l16 -8l-92 -101h-39l-93 101l17 8zM481 0h-27v102q-23 -34 -39.5 -51t-40.5 -31q-49 -29 -108 -29q-93 0 -157 67t-64 164t64 163.5t157 66.5q59 0 108 -29q24 -14 40.5 -31t39.5 -51v102h27v-443zM263 426q-82 0 -135.5 -58t-53.5 -146q0 -89 54 -147
t138 -58q83 0 136.5 58t53.5 149q0 89 -54 145.5t-139 56.5z" />
    <glyph glyph-name="uni01CF" unicode="&#x1cf;" horiz-adv-x="208" 
d="M104 759l95 90l17 -8l-92 -101h-40l-92 101l16 8zM118 667v-667h-28v667h28z" />
    <glyph glyph-name="uni01D0" unicode="&#x1d0;" horiz-adv-x="173" 
d="M87 559l95 90l17 -8l-92 -101h-40l-92 101l16 8zM100 443v-443h-27v443h27z" />
    <glyph glyph-name="uni01D1" unicode="&#x1d1;" horiz-adv-x="767" 
d="M384 759l95 90l17 -8l-92 -101h-40l-92 101l16 8zM384 676q136 0 233.5 -101t97.5 -242t-98 -241.5t-236 -100.5q-136 0 -232.5 102t-96.5 246q0 136 99 236.5t233 100.5zM381 649q-126 0 -213 -93t-87 -228q0 -126 90 -218t213 -92q124 0 213 92.5t89 222.5
q0 133 -88.5 224.5t-216.5 91.5z" />
    <glyph glyph-name="uni01D2" unicode="&#x1d2;" horiz-adv-x="533" 
d="M267 559l95 90l16 -8l-91 -101h-40l-92 101l16 8zM270 452q91 0 154.5 -67t63.5 -163q0 -97 -64 -164t-157 -67q-94 0 -158 67t-64 166q0 97 65 162.5t160 65.5zM263 426q-82 0 -135.5 -58t-53.5 -146q0 -89 54 -147t139 -58q84 0 138 58t54 149q0 89 -55 145.5
t-141 56.5z" />
    <glyph glyph-name="uni01D3" unicode="&#x1d3;" horiz-adv-x="634" 
d="M317 759l95 90l17 -8l-92 -101h-40l-92 101l17 8zM118 667v-415q0 -59 6 -90t22 -57q24 -39 71 -63t100 -24t100 24t71 63q16 26 22 57t6 90v415h28v-437q0 -99 -41 -151q-31 -41 -81 -64.5t-105 -23.5t-105 23.5t-82 64.5q-40 52 -40 151v437h28z" />
    <glyph glyph-name="uni01D4" unicode="&#x1d4;" horiz-adv-x="510" 
d="M255 559l96 90l16 -8l-92 -101h-40l-92 101l17 8zM410 0v83q-51 -92 -164 -92q-81 0 -129 53q-44 48 -44 158v241h27v-232q0 -106 39 -149q42 -45 109 -45q81 0 127 55q35 45 35 150v221h27v-443h-27z" />
    <glyph glyph-name="Gcaron" unicode="&#x1e6;" horiz-adv-x="729" 
d="M387 759l95 90l17 -8l-92 -101h-40l-92 101l16 8zM439 321h236v-15q0 -144 -77.5 -229.5t-207.5 -85.5q-141 0 -239.5 99.5t-98.5 241.5q0 144 97.5 244t239.5 100q121 0 216 -90l-19 -20q-83 83 -199 83q-130 0 -218 -91.5t-88 -225.5q0 -132 89 -223t219 -91
q82 0 145.5 41.5t91.5 113.5q18 47 21 122h-208v26z" />
    <glyph glyph-name="gcaron" unicode="&#x1e7;" horiz-adv-x="554" 
d="M263 559l96 90l16 -8l-92 -101h-40l-92 101l17 8zM481 443v-451q0 -106 -61.5 -170t-164.5 -64q-110 0 -186 83l19 19q67 -76 167 -76q92 0 145.5 56t53.5 152v21v89q-69 -111 -188 -111q-93 0 -157 67t-64 164t64 163.5t157 66.5q119 0 188 -111v102h27zM263 426
q-82 0 -135.5 -58t-53.5 -146q0 -89 54.5 -147t137.5 -58t136.5 58t53.5 149q0 89 -54 145.5t-139 56.5z" />
    <glyph glyph-name="uni01F4" unicode="&#x1f4;" horiz-adv-x="729" 
d="M480 836l-97 -97l-13 8l78 106zM439 321h236v-15q0 -144 -77.5 -229.5t-207.5 -85.5q-141 0 -239.5 99.5t-98.5 241.5q0 144 97.5 244t239.5 100q121 0 216 -90l-19 -20q-83 83 -199 83q-130 0 -218 -91.5t-88 -225.5q0 -132 89 -223t219 -91q82 0 145.5 41.5t91.5 113.5
q18 47 21 122h-208v26z" />
    <glyph glyph-name="uni01F5" unicode="&#x1f5;" horiz-adv-x="554" 
d="M355 636l-97 -97l-13 8l77 107zM481 443v-451q0 -106 -61.5 -170t-164.5 -64q-110 0 -186 83l19 19q67 -76 167 -76q92 0 145.5 56t53.5 152v21v89q-69 -111 -188 -111q-93 0 -157 67t-64 164t64 163.5t157 66.5q119 0 188 -111v102h27zM263 426q-82 0 -135.5 -58
t-53.5 -146q0 -89 54.5 -147t137.5 -58t136.5 58t53.5 149q0 89 -54 145.5t-139 56.5z" />
    <glyph glyph-name="Aringacute" unicode="&#x1fa;" horiz-adv-x="604" 
d="M355 1018l-96 -97l-13 7l77 107zM302 859q29 0 49.5 -20t20.5 -48q0 -29 -20.5 -49t-49.5 -20t-49.5 20t-20.5 49q0 28 20.5 48t49.5 20zM302 842q-21 0 -36 -15t-15 -37q0 -21 15 -36t36 -15t36 15t15 36q0 22 -15 37t-36 15zM127 202l-81 -202h-29l270 667h30l270 -667
h-29l-81 202h-350zM138 228h328l-164 411z" />
    <glyph glyph-name="aringacute" unicode="&#x1fb;" horiz-adv-x="554" 
d="M276 659q30 0 50.5 -19.5t20.5 -48.5q0 -28 -20.5 -48t-49.5 -20q-30 0 -50.5 20t-20.5 49q0 27 21 47t49 20zM277 642q-22 0 -37 -15t-15 -37q0 -20 15 -35t37 -15q21 0 36 15t15 36t-15 36t-36 15zM330 836l-97 -97l-13 8l77 106zM481 0h-27v102q-23 -34 -39.5 -51
t-40.5 -31q-49 -29 -108 -29q-93 0 -157 67t-64 164t64 163.5t157 66.5q59 0 108 -29q24 -14 40.5 -31t39.5 -51v102h27v-443zM263 426q-82 0 -135.5 -58t-53.5 -146q0 -89 54 -147t138 -58q83 0 136.5 58t53.5 149q0 89 -54 145.5t-139 56.5z" />
    <glyph glyph-name="AEacute" unicode="&#x1fc;" horiz-adv-x="842" 
d="M614 836l-97 -97l-13 8l78 106zM466 202h-317l-102 -202h-30l339 667h423v-26h-285v-290h254v-26h-254v-298h296v-27h-324v202zM466 228v413h-96l-208 -413h304z" />
    <glyph glyph-name="aeacute" unicode="&#x1fd;" horiz-adv-x="853" 
d="M514 636l-97 -97l-13 8l77 107zM766 98l25 -11q-38 -50 -78 -71q-48 -25 -102 -25q-62 0 -112 31.5t-78 89.5q-28 -121 -189 -121q-87 0 -140 39q-47 34 -47 104q0 64 46 100.5t128 36.5h178q-4 84 -49 120q-41 35 -119 35q-75 0 -143 -46l-12 18q75 54 163 54
q72 0 123 -36q23 -17 35.5 -36.5t21.5 -55.5q28 61 77 94.5t110 33.5q62 0 112 -35t73 -95q18 -45 19 -112h-383q8 -94 61 -145q50 -48 123 -48q47 0 91 21q34 18 66 60zM397 248h-164q-76 0 -118.5 -30t-42.5 -83q0 -56 42 -87t119 -31q78 0 121 31t43 88v112zM425 233h356
q-6 51 -18 82q-19 52 -61.5 81.5t-96.5 29.5q-82 0 -132 -61q-41 -51 -48 -132z" />
    <glyph glyph-name="Oslashacute" unicode="&#x1fe;" horiz-adv-x="774" 
d="M481 836l-97 -97l-13 8l77 106zM613 583l83 85l15 -15l-83 -86q91 -102 91 -234q0 -140 -97.5 -241t-233.5 -101q-131 0 -226 93l-83 -85l-15 15l83 86q-91 102 -91 234q0 140 97.5 241t233.5 101q130 0 226 -93zM166 119l429 445q-87 85 -208 85q-126 0 -214.5 -92.5
t-88.5 -223.5q0 -123 82 -214zM610 548l-430 -444q91 -86 208 -86q125 0 214 92.5t89 222.5q0 125 -81 215z" />
    <glyph glyph-name="oslashacute" unicode="&#x1ff;" horiz-adv-x="546" 
d="M366 636l-97 -97l-13 8l78 107zM494 430l-54 -55q54 -65 54 -154q0 -97 -64 -163.5t-157 -66.5q-89 0 -154 63l-54 -55l-14 14l55 55q-55 64 -55 154q0 97 64 163.5t157 66.5q91 0 154 -63l55 55zM421 357l-284 -285q55 -55 136 -55q83 0 137.5 58t54.5 146q0 86 -44 136
zM124 86l284 285q-57 55 -136 55q-83 0 -137.5 -57.5t-54.5 -145.5q0 -82 44 -137z" />
    <glyph glyph-name="uni0200" unicode="&#x200;" horiz-adv-x="604" 
d="M279 836l30 17l77 -107l-11 -6zM139 836l30 17l77 -107l-11 -6zM127 202l-81 -202h-29l270 667h30l270 -667h-29l-81 202h-350zM138 228h328l-164 411z" />
    <glyph glyph-name="uni0201" unicode="&#x201;" horiz-adv-x="554" 
d="M78 637l30 16l77 -107l-11 -6zM218 637l30 16l77 -107l-11 -6zM481 0h-27v102q-23 -34 -39.5 -51t-40.5 -31q-49 -29 -108 -29q-93 0 -157 67t-64 164t64 163.5t157 66.5q59 0 108 -29q24 -14 40.5 -31t39.5 -51v102h27v-443zM263 426q-82 0 -135.5 -58t-53.5 -146
q0 -89 54 -147t138 -58q83 0 136.5 58t53.5 149q0 89 -54 145.5t-139 56.5z" />
    <glyph glyph-name="Scommaaccent" unicode="&#x218;" horiz-adv-x="491" 
d="M278 -83l-75 -96l-16 8l63 100zM406 597l-23 -15q-55 68 -131 68q-65 0 -109 -40.5t-44 -100.5q0 -88 118 -134l68 -27q77 -30 112.5 -70.5t35.5 -97.5q0 -80 -57 -134.5t-140 -54.5q-68 0 -116 36t-70 104l28 7q41 -120 160 -120q70 0 118.5 47t48.5 114q0 51 -31 84
t-108 64l-65 26q-129 51 -129 156q0 73 51.5 120t130.5 47q92 0 152 -79z" />
    <glyph glyph-name="scommaaccent" unicode="&#x219;" horiz-adv-x="361" 
d="M178 -71l29 -9l-50 -116l-15 4zM296 394l-23 -12q-37 45 -91 45q-43 0 -71.5 -24.5t-28.5 -62.5t28 -63q14 -11 67 -32l47 -19q93 -36 93 -105q0 -55 -40.5 -92.5t-100.5 -37.5q-90 0 -136 90l24 11q24 -41 50.5 -58.5t64.5 -17.5q47 0 78.5 28.5t31.5 71.5q0 40 -32 66
q-14 10 -67 31l-52 20q-82 33 -82 103q0 50 36.5 83t91.5 33q68 0 112 -58z" />
    <glyph glyph-name="uni021A" unicode="&#x21a;" horiz-adv-x="428" 
d="M201 -71l30 -9l-51 -116l-15 4zM228 641v-641h-28v641h-183v26h394v-26h-183z" />
    <glyph glyph-name="uni021B" unicode="&#x21b;" horiz-adv-x="234" 
d="M118 -71l30 -9l-50 -116l-16 4zM87 418h-55v25h55v123l27 10v-133h80v-25h-80v-290q0 -56 14.5 -81t48.5 -25q9 0 24 3v-25q-15 -5 -28 -5q-86 0 -86 133v290z" />
    <glyph glyph-name="uni0226" unicode="&#x226;" horiz-adv-x="604" 
d="M127 202l-81 -202h-29l270 667h30l270 -667h-29l-81 202h-350zM138 228h328l-164 411zM302 816q10 0 17.5 -7.5t7.5 -17.5q0 -11 -7.5 -18.5t-17.5 -7.5t-17.5 8t-7.5 18t7.5 17.5t17.5 7.5z" />
    <glyph glyph-name="uni0227" unicode="&#x227;" horiz-adv-x="554" 
d="M481 0h-27v102q-23 -34 -39.5 -51t-40.5 -31q-49 -29 -108 -29q-93 0 -157 67t-64 164t64 163.5t157 66.5q59 0 108 -29q24 -14 40.5 -31t39.5 -51v102h27v-443zM263 426q-82 0 -135.5 -58t-53.5 -146q0 -89 54 -147t138 -58q83 0 136.5 58t53.5 149q0 89 -54 145.5
t-139 56.5zM263 613q10 0 17.5 -7.5t7.5 -17.5q0 -11 -7.5 -18.5t-17.5 -7.5t-17.5 8t-7.5 18t7.5 17.5t17.5 7.5z" />
    <glyph glyph-name="uni0237" unicode="&#x237;" horiz-adv-x="182" 
d="M-5 -233v25q15 -3 24 -3q34 0 48.5 25t14.5 81v548h27v-548q0 -133 -86 -133q-13 0 -28 5z" />
    <glyph glyph-name="uni02BB" unicode="&#x2bb;" horiz-adv-x="198" 
d="M84 487l-28 10l84 190l14 -6z" />
    <glyph glyph-name="afii57929" unicode="&#x2bc;" horiz-adv-x="234" 
d="M139 687l29 -11l-84 -199l-17 7z" />
    <glyph glyph-name="circumflex" unicode="&#x2c6;" horiz-adv-x="476" 
d="M238 628l-96 -90l-16 8l92 101h40l92 -101l-17 -8z" />
    <glyph glyph-name="caron" unicode="&#x2c7;" horiz-adv-x="476" 
d="M238 559l95 90l17 -8l-92 -101h-40l-92 101l16 8z" />
    <glyph glyph-name="uni02C9" unicode="&#x2c9;" horiz-adv-x="476" 
d="M121 603h235v-25h-235v25z" />
    <glyph glyph-name="breve" unicode="&#x2d8;" horiz-adv-x="476" 
d="M127 629l23 2q6 -33 30 -53.5t57 -20.5t57 20t31 54l23 -2q-11 -45 -39.5 -70t-71.5 -25q-44 0 -73.5 25.5t-36.5 69.5z" />
    <glyph glyph-name="dotaccent" unicode="&#x2d9;" horiz-adv-x="476" 
d="M238 613q10 0 17.5 -7.5t7.5 -17.5q0 -11 -7.5 -18.5t-17.5 -7.5t-17.5 8t-7.5 18t7.5 17.5t17.5 7.5z" />
    <glyph glyph-name="ring" unicode="&#x2da;" horiz-adv-x="476" 
d="M238 659q30 0 50.5 -19.5t20.5 -48.5q0 -28 -20.5 -48t-49.5 -20q-30 0 -50.5 20t-20.5 49q0 27 21 47t49 20zM239 642q-22 0 -37 -15t-15 -37q0 -20 15 -35t37 -15q21 0 36 15t15 36t-15 36t-36 15z" />
    <glyph glyph-name="ogonek" unicode="&#x2db;" horiz-adv-x="476" 
d="M380 0h27q-33 -39 -33 -67q0 -19 13 -30t35 -11q13 0 27 5l8 -20q-25 -7 -39 -7q-30 0 -49.5 17t-19.5 43q0 32 31 70z" />
    <glyph glyph-name="tilde" unicode="&#x2dc;" horiz-adv-x="476" 
d="M333 617l20 -5q-12 -50 -57 -50q-22 0 -60 17t-51 17q-31 0 -41 -32l-20 5q14 51 57 51q18 0 62 -19q30 -15 50 -15q30 0 40 31z" />
    <glyph glyph-name="hungarumlaut" unicode="&#x2dd;" horiz-adv-x="476" 
d="M263 637l-96 -97l-11 6l78 107zM403 637l-96 -97l-11 6l78 107z" />
    <glyph glyph-name="uni0309" unicode="&#x309;" horiz-adv-x="476" 
d="M280 740h-25l2 4l4 5l8 14q21 33 21 49q0 34 -55 34q-9 0 -25 -3l-7 17q21 5 38 5q34 0 52.5 -12.5t18.5 -35.5q0 -18 -11 -38l-14 -25l-5 -7q0 -1 -2 -7z" />
    <glyph glyph-name="uni0323" unicode="&#x323;" horiz-adv-x="476" 
d="M238 -86q10 0 17.5 -7.5t7.5 -17.5q0 -11 -7.5 -18.5t-17.5 -7.5t-17.5 8t-7.5 18t7.5 17.5t17.5 7.5z" />
    <glyph glyph-name="uni037E" unicode="&#x37e;" horiz-adv-x="202" 
d="M106 70l29 -11l-84 -198l-17 6zM119 383q10 0 17.5 -7.5t7.5 -17.5q0 -11 -7.5 -18.5t-17.5 -7.5t-17.5 8t-7.5 18t7.5 17.5t17.5 7.5z" />
    <glyph glyph-name="uni0387" unicode="&#x387;" horiz-adv-x="198" 
d="M99 359q10 0 17.5 -7.5t7.5 -17.5q0 -11 -7.5 -18.5t-17.5 -7.5t-17.5 8t-7.5 18t7.5 17.5t17.5 7.5z" />
    <glyph glyph-name="uni1E1E" unicode="&#x1e1e;" horiz-adv-x="425" 
d="M379 641h-261v-290h238v-26h-238v-325h-28v667h289v-26zM235 816q10 0 17.5 -7.5t7.5 -17.5q0 -11 -7.5 -18.5t-17.5 -7.5t-17.5 8t-7.5 18t7.5 17.5t17.5 7.5z" />
    <glyph glyph-name="uni1E1F" unicode="&#x1e1f;" horiz-adv-x="237" 
d="M92 443v95q0 134 86 134q13 0 28 -5v-25q-15 3 -24 3q-34 0 -48.5 -25t-14.5 -82v-95h89v-25h-89v-418h-27v418h-50v25h50zM150 816q10 0 17.5 -7.5t7.5 -17.5q0 -11 -7.5 -18.5t-17.5 -7.5t-17.5 8t-7.5 18t7.5 17.5t17.5 7.5z" />
    <glyph glyph-name="Wgrave" unicode="&#x1e80;" horiz-adv-x="872" 
d="M350 836l32 17l78 -106l-14 -8zM436 639l-180 -639h-38l-201 667h29l191 -639l179 639h40l179 -639l192 639h29l-202 -667h-37z" />
    <glyph glyph-name="wgrave" unicode="&#x1e81;" horiz-adv-x="681" 
d="M248 636l32 18l77 -107l-13 -8zM175 0l-164 443h30l152 -419l129 419h37l129 -420l153 420h29l-164 -443h-36l-129 413l-130 -413h-36z" />
    <glyph glyph-name="Wacute" unicode="&#x1e82;" horiz-adv-x="872" 
d="M529 836l-96 -97l-13 8l77 106zM436 639l-180 -639h-38l-201 667h29l191 -639l179 639h40l179 -639l192 639h29l-202 -667h-37z" />
    <glyph glyph-name="wacute" unicode="&#x1e83;" horiz-adv-x="681" 
d="M404 636l-97 -97l-13 8l78 107zM175 0l-164 443h30l152 -419l129 419h37l129 -420l153 420h29l-164 -443h-36l-129 413l-130 -413h-36z" />
    <glyph glyph-name="Wdieresis" unicode="&#x1e84;" horiz-adv-x="872" 
d="M436 639l-180 -639h-38l-201 667h29l191 -639l179 639h40l179 -639l192 639h29l-202 -667h-37zM528 816q10 0 17.5 -7.5t7.5 -17.5q0 -11 -7.5 -18.5t-17.5 -7.5t-17.5 8t-7.5 18t7.5 17.5t17.5 7.5zM344 816q10 0 17.5 -7.5t7.5 -17.5q0 -11 -7.5 -18.5t-17.5 -7.5
t-17.5 8t-7.5 18t7.5 17.5t17.5 7.5z" />
    <glyph glyph-name="wdieresis" unicode="&#x1e85;" horiz-adv-x="681" 
d="M175 0l-164 443h30l152 -419l129 419h37l129 -420l153 420h29l-164 -443h-36l-129 413l-130 -413h-36zM249 613q10 0 17.5 -7.5t7.5 -17.5q0 -11 -7.5 -18.5t-17.5 -7.5t-17.5 8t-7.5 18t7.5 17.5t17.5 7.5zM433 613q10 0 17.5 -7.5t7.5 -17.5q0 -11 -7.5 -18.5
t-17.5 -7.5t-17.5 8t-7.5 18t7.5 17.5t17.5 7.5z" />
    <glyph glyph-name="uni1EA0" unicode="&#x1ea0;" horiz-adv-x="604" 
d="M127 202l-81 -202h-29l270 667h30l270 -667h-29l-81 202h-350zM138 228h328l-164 411zM302 -86q10 0 17.5 -7.5t7.5 -17.5q0 -11 -7.5 -18.5t-17.5 -7.5t-17.5 8t-7.5 18t7.5 17.5t17.5 7.5z" />
    <glyph glyph-name="uni1EA1" unicode="&#x1ea1;" horiz-adv-x="554" 
d="M481 0h-27v102q-23 -34 -39.5 -51t-40.5 -31q-49 -29 -108 -29q-93 0 -157 67t-64 164t64 163.5t157 66.5q59 0 108 -29q24 -14 40.5 -31t39.5 -51v102h27v-443zM263 426q-82 0 -135.5 -58t-53.5 -146q0 -89 54 -147t138 -58q83 0 136.5 58t53.5 149q0 89 -54 145.5
t-139 56.5zM275 -86q10 0 17.5 -7.5t7.5 -17.5q0 -11 -7.5 -18.5t-17.5 -7.5t-17.5 8t-7.5 18t7.5 17.5t17.5 7.5z" />
    <glyph glyph-name="uni1EA2" unicode="&#x1ea2;" horiz-adv-x="604" 
d="M326 740h-24l2 4l3 5l9 14q21 34 21 49q0 34 -55 34q-8 0 -25 -3l-7 17q21 5 38 5q34 0 52.5 -12.5t18.5 -35.5q0 -20 -11 -38l-14 -25l-5 -7q-2 -4 -3 -7zM127 202l-81 -202h-29l270 667h30l270 -667h-29l-81 202h-350zM138 228h328l-164 411z" />
    <glyph glyph-name="uni1EA3" unicode="&#x1ea3;" horiz-adv-x="554" 
d="M481 0h-27v102q-23 -34 -39.5 -51t-40.5 -31q-49 -29 -108 -29q-93 0 -157 67t-64 164t64 163.5t157 66.5q59 0 108 -29q24 -14 40.5 -31t39.5 -51v102h27v-443zM263 426q-82 0 -135.5 -58t-53.5 -146q0 -89 54 -147t138 -58q83 0 136.5 58t53.5 149q0 89 -54 145.5
t-139 56.5zM296 540h-24l2 4l3 5l9 13q21 34 21 49q0 34 -55 34q-8 0 -25 -3l-7 17q21 5 38 5q34 0 52.5 -12.5t18.5 -35.5q0 -20 -11 -38l-14 -24l-5 -8q0 -2 -3 -6z" />
    <glyph glyph-name="uni1EA4" unicode="&#x1ea4;" horiz-adv-x="604" 
d="M322 847l92 -101l-16 -8l-96 90l-95 -90l-17 8l92 101h40zM127 202l-81 -202h-29l270 667h30l270 -667h-29l-81 202h-350zM138 228h328l-164 411zM498 891l-96 -97l-13 8l77 106z" />
    <glyph glyph-name="uni1EA5" unicode="&#x1ea5;" horiz-adv-x="554" 
d="M283 631l92 -101l-16 -8l-96 90l-95 -90l-17 8l93 101h39zM491 738l-96 -97l-13 8l77 107zM481 0h-27v102q-23 -34 -39.5 -51t-40.5 -31q-49 -29 -108 -29q-93 0 -157 67t-64 164t64 163.5t157 66.5q59 0 108 -29q24 -14 40.5 -31t39.5 -51v102h27v-443zM263 426
q-82 0 -135.5 -58t-53.5 -146q0 -89 54 -147t138 -58q83 0 136.5 58t53.5 149q0 89 -54 145.5t-139 56.5z" />
    <glyph glyph-name="uni1EA6" unicode="&#x1ea6;" horiz-adv-x="604" 
d="M302 828l-95 -90l-17 8l92 101h40l92 -101l-16 -8zM379 891l32 17l78 -106l-13 -8zM127 202l-81 -202h-29l270 667h30l270 -667h-29l-81 202h-350zM138 228h328l-164 411z" />
    <glyph glyph-name="uni1EA7" unicode="&#x1ea7;" horiz-adv-x="554" 
d="M297 738l32 18l78 -107l-14 -8zM263 612l-95 -90l-17 8l93 101h39l92 -101l-16 -8zM481 0h-27v102q-23 -34 -39.5 -51t-40.5 -31q-49 -29 -108 -29q-93 0 -157 67t-64 164t64 163.5t157 66.5q59 0 108 -29q24 -14 40.5 -31t39.5 -51v102h27v-443zM263 426
q-82 0 -135.5 -58t-53.5 -146q0 -89 54 -147t138 -58q83 0 136.5 58t53.5 149q0 89 -54 145.5t-139 56.5z" />
    <glyph glyph-name="uni1EA8" unicode="&#x1ea8;" horiz-adv-x="604" 
d="M322 847l92 -101l-16 -8l-96 90l-95 -90l-17 8l92 101h40zM127 202l-81 -202h-29l270 667h30l270 -667h-29l-81 202h-350zM138 228h328l-164 411zM479 789h-24l2 4l3 5l9 14q21 34 21 49q0 34 -55 34q-9 0 -25 -3l-7 17q21 5 38 5q34 0 52.5 -12.5t18.5 -35.5
q0 -19 -11 -38l-14 -25l-5 -7q-1 -1 -3 -7z" />
    <glyph glyph-name="uni1EA9" unicode="&#x1ea9;" horiz-adv-x="554" 
d="M283 631l92 -101l-16 -8l-96 90l-95 -90l-17 8l93 101h39zM481 0h-27v102q-23 -34 -39.5 -51t-40.5 -31q-49 -29 -108 -29q-93 0 -157 67t-64 164t64 163.5t157 66.5q59 0 108 -29q24 -14 40.5 -31t39.5 -51v102h27v-443zM263 426q-82 0 -135.5 -58t-53.5 -146
q0 -89 54 -147t138 -58q83 0 136.5 58t53.5 149q0 89 -54 145.5t-139 56.5zM410 636h-24q0 1 1 3q1 1 1 2l3 5l9 13q21 34 21 49q0 34 -55 34q-8 0 -25 -3l-7 17q21 5 38 5q34 0 52.5 -12.5t18.5 -35.5q0 -16 -11 -38l-14 -24l-5 -8q-1 -1 -1 -2q-1 -3 -2 -5z" />
    <glyph glyph-name="uni1EAA" unicode="&#x1eaa;" horiz-adv-x="604" 
d="M302 803l-95 -90l-17 8l92 101h40l92 -101l-16 -8zM127 202l-81 -202h-29l270 667h30l270 -667h-29l-81 202h-350zM138 228h328l-164 411zM397 934l20 -5q-13 -50 -58 -50q-21 0 -59 17t-51 17q-30 0 -42 -32l-19 5q14 51 57 51q18 0 62 -19q30 -15 50 -15q30 0 40 31z
" />
    <glyph glyph-name="uni1EAB" unicode="&#x1eab;" horiz-adv-x="554" 
d="M263 612l-95 -90l-17 8l92 101h40l92 -101l-16 -8zM481 0h-27v102q-23 -34 -39.5 -51t-40.5 -31q-49 -29 -108 -29q-93 0 -157 67t-64 164t64 163.5t157 66.5q59 0 108 -29q24 -14 40.5 -31t39.5 -51v102h27v-443zM263 426q-82 0 -135.5 -58t-53.5 -146q0 -89 54 -147
t138 -58q83 0 136.5 58t53.5 149q0 89 -54 145.5t-139 56.5zM358 761l20 -5q-13 -50 -58 -50q-21 0 -59 17t-51 17q-30 0 -42 -32l-19 5q13 51 57 51q18 0 62 -19q30 -15 50 -15q30 0 40 31z" />
    <glyph glyph-name="uni1EAC" unicode="&#x1eac;" horiz-adv-x="604" 
d="M302 828l-95 -90l-17 8l92 101h40l92 -101l-16 -8zM127 202l-81 -202h-29l270 667h30l270 -667h-29l-81 202h-350zM138 228h328l-164 411zM302 -86q10 0 17.5 -7.5t7.5 -17.5q0 -11 -7.5 -18.5t-17.5 -7.5t-17.5 8t-7.5 18t7.5 17.5t17.5 7.5z" />
    <glyph glyph-name="uni1EAD" unicode="&#x1ead;" horiz-adv-x="554" 
d="M263 628l-95 -90l-17 8l93 101h39l92 -101l-16 -8zM481 0h-27v102q-23 -34 -39.5 -51t-40.5 -31q-49 -29 -108 -29q-93 0 -157 67t-64 164t64 163.5t157 66.5q59 0 108 -29q24 -14 40.5 -31t39.5 -51v102h27v-443zM263 426q-82 0 -135.5 -58t-53.5 -146q0 -89 54 -147
t138 -58q83 0 136.5 58t53.5 149q0 89 -54 145.5t-139 56.5zM275 -86q10 0 17.5 -7.5t7.5 -17.5q0 -11 -7.5 -18.5t-17.5 -7.5t-17.5 8t-7.5 18t7.5 17.5t17.5 7.5z" />
    <glyph glyph-name="uni1EAE" unicode="&#x1eae;" horiz-adv-x="604" 
d="M191 804l23 2q5 -33 29.5 -53.5t57.5 -20.5t57 20t31 54l23 -2q-10 -45 -39.5 -70t-71.5 -25q-44 0 -73.5 25.5t-36.5 69.5zM392 916l-97 -97l-13 8l78 106zM127 202l-81 -202h-29l270 667h30l270 -667h-29l-81 202h-350zM138 228h328l-164 411z" />
    <glyph glyph-name="uni1EAF" unicode="&#x1eaf;" horiz-adv-x="554" 
d="M360 738l-97 -97l-13 8l77 107zM153 612l24 2q5 -32 29 -52.5t57 -20.5t57 19.5t31 53.5l23 -2q-10 -44 -39 -69t-71 -25q-44 0 -73.5 25t-37.5 69zM481 0h-27v102q-23 -34 -39.5 -51t-40.5 -31q-49 -29 -108 -29q-93 0 -157 67t-64 164t64 163.5t157 66.5q59 0 108 -29
q24 -14 40.5 -31t39.5 -51v102h27v-443zM263 426q-82 0 -135.5 -58t-53.5 -146q0 -89 54 -147t138 -58q83 0 136.5 58t53.5 149q0 89 -54 145.5t-139 56.5z" />
    <glyph glyph-name="uni1EB0" unicode="&#x1eb0;" horiz-adv-x="604" 
d="M191 804l23 2q5 -33 29.5 -53.5t57.5 -20.5t57 20t31 54l23 -2q-10 -45 -39.5 -70t-71.5 -25q-44 0 -73.5 25.5t-36.5 69.5zM208 916l32 17l77 -106l-13 -8zM127 202l-81 -202h-29l270 667h30l270 -667h-29l-81 202h-350zM138 228h328l-164 411z" />
    <glyph glyph-name="uni1EB1" unicode="&#x1eb1;" horiz-adv-x="554" 
d="M167 738l32 18l77 -107l-13 -8zM153 612l24 2q5 -32 29 -52.5t57 -20.5t57 19.5t31 53.5l23 -2q-10 -44 -39 -69t-71 -25q-44 0 -73.5 25t-37.5 69zM481 0h-27v102q-23 -34 -39.5 -51t-40.5 -31q-49 -29 -108 -29q-93 0 -157 67t-64 164t64 163.5t157 66.5q59 0 108 -29
q24 -14 40.5 -31t39.5 -51v102h27v-443zM263 426q-82 0 -135.5 -58t-53.5 -146q0 -89 54 -147t138 -58q83 0 136.5 58t53.5 149q0 89 -54 145.5t-139 56.5z" />
    <glyph glyph-name="uni1EB2" unicode="&#x1eb2;" horiz-adv-x="604" 
d="M191 804l23 2q5 -33 29.5 -53.5t57.5 -20.5t57 20t31 54l23 -2q-10 -45 -39.5 -70t-71.5 -25q-44 0 -73.5 25.5t-36.5 69.5zM127 202l-81 -202h-29l270 667h30l270 -667h-29l-81 202h-350zM138 228h328l-164 411zM316 814h-24l2 4l3 5l9 14q21 34 21 49q0 34 -55 34
q-8 0 -25 -3l-7 17q21 5 38 5q34 0 52.5 -12.5t18.5 -35.5q0 -19 -11 -38l-14 -25l-5 -7q-1 -1 -3 -7z" />
    <glyph glyph-name="uni1EB3" unicode="&#x1eb3;" horiz-adv-x="554" 
d="M153 612l24 2q5 -32 29 -52.5t57 -20.5t57 19.5t31 53.5l23 -2q-10 -44 -39 -69t-71 -25q-44 0 -73.5 25t-37.5 69zM481 0h-27v102q-23 -34 -39.5 -51t-40.5 -31q-49 -29 -108 -29q-93 0 -157 67t-64 164t64 163.5t157 66.5q59 0 108 -29q24 -14 40.5 -31t39.5 -51v102
h27v-443zM263 426q-82 0 -135.5 -58t-53.5 -146q0 -89 54 -147t138 -58q83 0 136.5 58t53.5 149q0 89 -54 145.5t-139 56.5zM279 636h-25q0 1 1 3q1 1 1 2l4 5l8 13q21 34 21 49q0 34 -55 34q-8 0 -25 -3l-7 17q21 5 38 5q34 0 52.5 -12.5t18.5 -35.5q0 -18 -11 -38l-14 -24
l-5 -8q0 -1 -1 -2q0 -3 -1 -5z" />
    <glyph glyph-name="uni1EB4" unicode="&#x1eb4;" horiz-adv-x="604" 
d="M191 804l23 2q5 -33 29.5 -53.5t57.5 -20.5t57 20t31 54l23 -2q-10 -45 -39.5 -70t-71.5 -25q-44 0 -73.5 25.5t-36.5 69.5zM127 202l-81 -202h-29l270 667h30l270 -667h-29l-81 202h-350zM138 228h328l-164 411zM397 934l20 -5q-13 -50 -58 -50q-21 0 -59 17t-51 17
q-30 0 -42 -32l-19 5q14 51 57 51q18 0 62 -19q30 -15 50 -15q30 0 40 31z" />
    <glyph glyph-name="uni1EB5" unicode="&#x1eb5;" horiz-adv-x="554" 
d="M153 612l23 2q6 -32 30 -52.5t57 -20.5t57 19.5t31 53.5l23 -2q-11 -44 -40 -69t-71 -25q-44 0 -73.5 25.5t-36.5 68.5zM481 0h-27v102q-23 -34 -39.5 -51t-40.5 -31q-49 -29 -108 -29q-93 0 -157 67t-64 164t64 163.5t157 66.5q59 0 108 -29q24 -14 40.5 -31t39.5 -51
v102h27v-443zM263 426q-82 0 -135.5 -58t-53.5 -146q0 -89 54 -147t138 -58q83 0 136.5 58t53.5 149q0 89 -54 145.5t-139 56.5zM358 756l20 -4q-13 -51 -58 -51q-21 0 -59 17t-51 17q-30 0 -42 -32l-19 5q13 51 57 51q18 0 62 -19q30 -15 50 -15q30 0 40 31z" />
    <glyph glyph-name="uni1EB6" unicode="&#x1eb6;" horiz-adv-x="604" 
d="M191 829l23 2q5 -33 29 -53.5t58 -20.5q33 0 57 20t31 54l23 -2q-10 -45 -39.5 -70t-71.5 -25q-44 0 -73.5 25.5t-36.5 69.5zM127 202l-81 -202h-29l270 667h30l270 -667h-29l-81 202h-350zM138 228h328l-164 411zM302 -86q10 0 17.5 -7.5t7.5 -17.5q0 -11 -7.5 -18.5
t-17.5 -7.5t-17.5 8t-7.5 18t7.5 17.5t17.5 7.5z" />
    <glyph glyph-name="uni1EB7" unicode="&#x1eb7;" horiz-adv-x="554" 
d="M152 629l23 2q5 -33 29 -53.5t57 -20.5q34 0 57.5 19.5t31.5 54.5l23 -2q-10 -45 -39.5 -70t-71.5 -25q-44 0 -73.5 25.5t-36.5 69.5zM481 0h-27v102q-23 -34 -39.5 -51t-40.5 -31q-49 -29 -108 -29q-93 0 -157 67t-64 164t64 163.5t157 66.5q59 0 108 -29
q24 -14 40.5 -31t39.5 -51v102h27v-443zM263 426q-82 0 -135.5 -58t-53.5 -146q0 -89 54 -147t138 -58q83 0 136.5 58t53.5 149q0 89 -54 145.5t-139 56.5zM275 -86q10 0 17.5 -7.5t7.5 -17.5q0 -11 -7.5 -18.5t-17.5 -7.5t-17.5 8t-7.5 18t7.5 17.5t17.5 7.5z" />
    <glyph glyph-name="uni1EB8" unicode="&#x1eb8;" horiz-adv-x="466" 
d="M403 641h-285v-290h254v-26h-254v-298h296v-27h-324v667h313v-26zM265 -86q10 0 17.5 -7.5t7.5 -17.5q0 -11 -7.5 -18.5t-17.5 -7.5t-17.5 8t-7.5 18t7.5 17.5t17.5 7.5z" />
    <glyph glyph-name="uni1EB9" unicode="&#x1eb9;" horiz-adv-x="501" 
d="M456 210h-383q5 -87 55.5 -140t128.5 -53q98 0 157 81l25 -11q-71 -96 -181 -96q-91 0 -152 66t-61 165q0 97 60 163.5t147 66.5q62 0 112 -35t73 -96q18 -43 19 -111zM73 233h356q-6 52 -18 81q-19 52 -61.5 82t-96.5 30q-76 0 -125.5 -53.5t-54.5 -139.5zM258 -86
q10 0 17.5 -7.5t7.5 -17.5q0 -11 -7.5 -18.5t-17.5 -7.5t-17.5 8t-7.5 18t7.5 17.5t17.5 7.5z" />
    <glyph glyph-name="uni1EBA" unicode="&#x1eba;" horiz-adv-x="466" 
d="M403 641h-285v-290h254v-26h-254v-298h296v-27h-324v667h313v-26zM274 740h-24l2 4l3 5l9 14q21 34 21 49q0 34 -55 34q-8 0 -25 -3l-7 17q21 5 38 5q34 0 52.5 -12.5t18.5 -35.5q0 -20 -11 -38l-14 -25l-5 -7q-2 -4 -3 -7z" />
    <glyph glyph-name="uni1EBB" unicode="&#x1ebb;" horiz-adv-x="501" 
d="M456 210h-383q5 -87 55.5 -140t128.5 -53q98 0 157 81l25 -11q-71 -96 -181 -96q-91 0 -152 66t-61 165q0 97 60 163.5t147 66.5q62 0 112 -35t73 -96q18 -43 19 -111zM73 233h356q-6 52 -18 81q-19 52 -61.5 82t-96.5 30q-76 0 -125.5 -53.5t-54.5 -139.5zM281 540h-25
q1 2 3 4l3 5l8 13q21 33 21 49q0 34 -55 34q-8 0 -25 -3l-7 17q21 5 38 5q34 0 52.5 -12.5t18.5 -35.5q0 -19 -11 -38l-14 -24l-4 -8q-2 -2 -3 -6z" />
    <glyph glyph-name="uni1EBC" unicode="&#x1ebc;" horiz-adv-x="466" 
d="M403 641h-285v-290h254v-26h-254v-298h296v-27h-324v667h313v-26zM328 817l19 -5q-12 -50 -57 -50q-22 0 -59 17q-38 17 -52 17q-29 0 -41 -32l-20 5q15 51 58 51q18 0 61 -19q31 -15 51 -15q30 0 40 31z" />
    <glyph glyph-name="uni1EBD" unicode="&#x1ebd;" horiz-adv-x="501" 
d="M456 210h-383q5 -87 55.5 -140t128.5 -53q98 0 157 81l25 -11q-71 -96 -181 -96q-91 0 -152 66t-61 165q0 97 60 163.5t147 66.5q62 0 112 -35t73 -96q18 -43 19 -111zM73 233h356q-6 52 -18 81q-19 52 -61.5 82t-96.5 30q-76 0 -125.5 -53.5t-54.5 -139.5zM345 617
l20 -5q-12 -50 -57 -50q-22 0 -60 17t-51 17q-29 0 -41 -32l-20 5q14 51 58 51q17 0 61 -19q31 -15 51 -15q31 0 39 31z" />
    <glyph glyph-name="uni1EBE" unicode="&#x1ebe;" horiz-adv-x="466" 
d="M260 847l92 -101l-16 -8l-95 90l-96 -90l-16 8l92 101h39zM403 641h-285v-290h254v-26h-254v-298h296v-27h-324v667h313v-26zM437 891l-97 -97l-13 8l78 106z" />
    <glyph glyph-name="uni1EBF" unicode="&#x1ebf;" horiz-adv-x="500" 
d="M481 738l-96 -97l-14 8l78 107zM273 631l92 -101l-17 -8l-95 90l-96 -90l-16 8l92 101h40zM456 210h-383q5 -87 55.5 -140t128.5 -53q98 0 157 81l25 -11q-71 -96 -181 -96q-91 0 -152 66t-61 165q0 97 60 163.5t147 66.5q62 0 112 -35t73 -96q18 -43 19 -111zM73 233
h356q-6 52 -18 81q-19 52 -61.5 82t-96.5 30q-76 0 -125.5 -53.5t-54.5 -139.5z" />
    <glyph glyph-name="uni1EC0" unicode="&#x1ec0;" horiz-adv-x="466" 
d="M241 828l-96 -90l-16 8l92 101h39l92 -101l-16 -8zM318 891l32 17l77 -106l-13 -8zM403 641h-285v-290h254v-26h-254v-298h296v-27h-324v667h313v-26z" />
    <glyph glyph-name="uni1EC1" unicode="&#x1ec1;" horiz-adv-x="500" 
d="M287 738l32 18l77 -107l-13 -8zM253 612l-96 -90l-16 8l92 101h40l92 -101l-17 -8zM456 210h-383q5 -87 55.5 -140t128.5 -53q98 0 157 81l25 -11q-71 -96 -181 -96q-91 0 -152 66t-61 165q0 97 60 163.5t147 66.5q62 0 112 -35t73 -96q18 -43 19 -111zM73 233h356
q-6 52 -18 81q-19 52 -61.5 82t-96.5 30q-76 0 -125.5 -53.5t-54.5 -139.5z" />
    <glyph glyph-name="uni1EC2" unicode="&#x1ec2;" horiz-adv-x="466" 
d="M260 847l92 -101l-16 -8l-95 90l-96 -90l-16 8l92 101h39zM403 641h-285v-290h254v-26h-254v-298h296v-27h-324v667h313v-26zM418 789h-25l2 4l4 5l8 14q21 34 21 49q0 34 -55 34q-8 0 -25 -3l-7 17q21 5 38 5q34 0 52.5 -12.5t18.5 -35.5q0 -18 -11 -38l-14 -25l-5 -7
q0 -1 -2 -7z" />
    <glyph glyph-name="uni1EC3" unicode="&#x1ec3;" horiz-adv-x="500" 
d="M273 631l92 -101l-17 -8l-95 90l-96 -90l-16 8l92 101h40zM456 210h-383q5 -87 55.5 -140t128.5 -53q98 0 157 81l25 -11q-71 -96 -181 -96q-91 0 -152 66t-61 165q0 97 60 163.5t147 66.5q62 0 112 -35t73 -96q18 -43 19 -111zM73 233h356q-6 52 -18 81q-19 52 -61.5 82
t-96.5 30q-76 0 -125.5 -53.5t-54.5 -139.5zM400 636h-25q1 3 3 5l3 5l8 13q21 32 21 49q0 34 -55 34q-7 0 -25 -3l-7 17q21 5 38 5q34 0 52.5 -12.5t18.5 -35.5q0 -19 -11 -38l-14 -24l-4 -8q-2 -2 -3 -7z" />
    <glyph glyph-name="uni1EC4" unicode="&#x1ec4;" horiz-adv-x="466" 
d="M241 803l-96 -90l-16 8l92 101h39l92 -101l-16 -8zM403 641h-285v-290h254v-26h-254v-298h296v-27h-324v667h313v-26zM333 934l19 -5q-12 -50 -57 -50q-22 0 -60 17t-51 17q-29 0 -41 -32l-20 5q15 51 58 51q17 0 61 -19q31 -15 51 -15q30 0 40 31z" />
    <glyph glyph-name="uni1EC5" unicode="&#x1ec5;" horiz-adv-x="500" 
d="M253 612l-96 -90l-16 8l92 101h40l92 -101l-17 -8zM456 210h-383q5 -87 55.5 -140t128.5 -53q98 0 157 81l25 -11q-71 -96 -181 -96q-91 0 -152 66t-61 165q0 97 60 163.5t147 66.5q62 0 112 -35t73 -96q18 -43 19 -111zM73 233h356q-6 52 -18 81q-19 52 -61.5 82
t-96.5 30q-76 0 -125.5 -53.5t-54.5 -139.5zM345 756l20 -4q-12 -51 -57 -51q-22 0 -60 17t-51 17q-29 0 -41 -32l-20 5q15 51 58 51q17 0 61 -19q31 -15 51 -15q31 0 39 31z" />
    <glyph glyph-name="uni1EC6" unicode="&#x1ec6;" horiz-adv-x="466" 
d="M252 828l-95 -90l-17 8l92 101h40l92 -101l-16 -8zM403 641h-285v-290h254v-26h-254v-298h296v-27h-324v667h313v-26zM265 -86q10 0 17.5 -7.5t7.5 -17.5q0 -11 -7.5 -18.5t-17.5 -7.5t-17.5 8t-7.5 18t7.5 17.5t17.5 7.5z" />
    <glyph glyph-name="uni1EC7" unicode="&#x1ec7;" horiz-adv-x="500" 
d="M253 628l-96 -90l-16 8l92 101h40l92 -101l-17 -8zM456 210h-383q5 -87 55.5 -140t128.5 -53q98 0 157 81l25 -11q-71 -96 -181 -96q-91 0 -152 66t-61 165q0 97 60 163.5t147 66.5q62 0 112 -35t73 -96q18 -43 19 -111zM73 233h356q-6 52 -18 81q-19 52 -61.5 82
t-96.5 30q-76 0 -125.5 -53.5t-54.5 -139.5zM258 -86q10 0 17.5 -7.5t7.5 -17.5q0 -11 -7.5 -18.5t-17.5 -7.5t-17.5 8t-7.5 18t7.5 17.5t17.5 7.5z" />
    <glyph glyph-name="uni1EC8" unicode="&#x1ec8;" horiz-adv-x="208" 
d="M118 667v-667h-28v667h28zM124 740h-25l2 4l4 5l8 14q21 33 21 49q0 34 -55 34q-9 0 -25 -3l-7 17q21 5 38 5q34 0 52.5 -12.5t18.5 -35.5q0 -18 -11 -38l-14 -25l-5 -7q0 -1 -2 -7z" />
    <glyph glyph-name="uni1EC9" unicode="&#x1ec9;" horiz-adv-x="173" 
d="M100 443v-443h-27v443h27zM109 540h-25l2 4l4 5l8 13q21 34 21 49q0 34 -55 34q-9 0 -25 -3l-7 17q21 5 38 5q34 0 52.5 -12.5t18.5 -35.5q0 -18 -11 -38l-14 -24l-5 -8z" />
    <glyph glyph-name="uni1ECA" unicode="&#x1eca;" horiz-adv-x="208" 
d="M118 667v-667h-28v667h28zM104 -86q10 0 17.5 -7.5t7.5 -17.5q0 -11 -7.5 -18.5t-17.5 -7.5t-17.5 8t-7.5 18t7.5 17.5t17.5 7.5z" />
    <glyph glyph-name="uni1ECB" unicode="&#x1ecb;" horiz-adv-x="173" 
d="M100 443v-443h-27v443h27zM86 613q10 0 17.5 -7.5t7.5 -17.5q0 -11 -7.5 -18.5t-17.5 -7.5t-17.5 8t-7.5 18t7.5 17.5t17.5 7.5zM86 -86q10 0 17.5 -7.5t7.5 -17.5q0 -11 -7.5 -18.5t-17.5 -7.5t-17.5 8t-7.5 18t7.5 17.5t17.5 7.5z" />
    <glyph glyph-name="uni1ECC" unicode="&#x1ecc;" horiz-adv-x="767" 
d="M384 676q136 0 233.5 -101t97.5 -242t-98 -241.5t-236 -100.5q-136 0 -232.5 102t-96.5 246q0 136 99 236.5t233 100.5zM381 649q-126 0 -213 -93t-87 -228q0 -126 90 -218t213 -92q124 0 213 92.5t89 222.5q0 133 -88.5 224.5t-216.5 91.5zM384 -86q10 0 17.5 -7.5
t7.5 -17.5q0 -11 -7.5 -18.5t-17.5 -7.5t-17.5 8t-7.5 18t7.5 17.5t17.5 7.5z" />
    <glyph glyph-name="uni1ECD" unicode="&#x1ecd;" horiz-adv-x="533" 
d="M270 452q91 0 154.5 -67t63.5 -163q0 -97 -64 -164t-157 -67q-94 0 -158 67t-64 166q0 97 65 162.5t160 65.5zM263 426q-82 0 -135.5 -58t-53.5 -146q0 -89 54 -147t139 -58q84 0 138 58t54 149q0 89 -55 145.5t-141 56.5zM267 -86q10 0 17.5 -7.5t7.5 -17.5
q0 -11 -7.5 -18.5t-17.5 -7.5t-17.5 8t-7.5 18t7.5 17.5t17.5 7.5z" />
    <glyph glyph-name="uni1ECE" unicode="&#x1ece;" horiz-adv-x="767" 
d="M384 676q136 0 233.5 -101t97.5 -242t-98 -241.5t-236 -100.5q-136 0 -232.5 102t-96.5 246q0 136 99 236.5t233 100.5zM381 649q-126 0 -213 -93t-87 -228q0 -126 90 -218t213 -92q124 0 213 92.5t89 222.5q0 133 -88.5 224.5t-216.5 91.5zM406 740h-25l2 4l4 5l8 14
q21 33 21 49q0 34 -55 34q-9 0 -25 -3l-7 17q21 5 38 5q34 0 52.5 -12.5t18.5 -35.5q0 -18 -11 -38l-14 -25l-5 -7q0 -1 -2 -7z" />
    <glyph glyph-name="uni1ECF" unicode="&#x1ecf;" horiz-adv-x="533" 
d="M270 452q91 0 154.5 -67t63.5 -163q0 -97 -64 -164t-157 -67q-94 0 -158 67t-64 166q0 97 65 162.5t160 65.5zM263 426q-82 0 -135.5 -58t-53.5 -146q0 -89 54 -147t139 -58q84 0 138 58t54 149q0 89 -55 145.5t-141 56.5zM289 540h-25q1 2 3 4l3 5l8 13q21 33 21 49
q0 34 -55 34q-8 0 -25 -3l-7 17q21 5 38 5q34 0 52.5 -12.5t18.5 -35.5q0 -19 -11 -38l-14 -24l-4 -8q-2 -2 -3 -6z" />
    <glyph glyph-name="uni1ED0" unicode="&#x1ed0;" horiz-adv-x="767" 
d="M404 847l92 -101l-17 -8l-95 90l-96 -90l-16 8l92 101h40zM384 676q136 0 233.5 -101t97.5 -242t-98 -241.5t-236 -100.5q-136 0 -232.5 102t-96.5 246q0 136 99 236.5t233 100.5zM381 649q-126 0 -213 -93t-87 -228q0 -126 90 -218t213 -92q124 0 213 92.5t89 222.5
q0 133 -88.5 224.5t-216.5 91.5zM580 891l-96 -97l-14 8l78 106z" />
    <glyph glyph-name="uni1ED1" unicode="&#x1ed1;" horiz-adv-x="533" 
d="M495 738l-97 -97l-13 8l78 107zM287 631l91 -101l-16 -8l-95 90l-96 -90l-16 8l92 101h40zM270 452q91 0 154.5 -67t63.5 -163q0 -97 -64 -164t-157 -67q-94 0 -158 67t-64 166q0 97 65 162.5t160 65.5zM263 426q-82 0 -135.5 -58t-53.5 -146q0 -89 54 -147t139 -58
q84 0 138 58t54 149q0 89 -55 145.5t-141 56.5z" />
    <glyph glyph-name="uni1ED2" unicode="&#x1ed2;" horiz-adv-x="767" 
d="M384 828l-96 -90l-16 8l92 101h40l92 -101l-17 -8zM461 891l32 17l78 -106l-14 -8zM384 676q136 0 233.5 -101t97.5 -242t-98 -241.5t-236 -100.5q-136 0 -232.5 102t-96.5 246q0 136 99 236.5t233 100.5zM381 649q-126 0 -213 -93t-87 -228q0 -126 90 -218t213 -92
q124 0 213 92.5t89 222.5q0 133 -88.5 224.5t-216.5 91.5z" />
    <glyph glyph-name="uni1ED3" unicode="&#x1ed3;" horiz-adv-x="533" 
d="M300 738l33 18l77 -107l-13 -8zM267 612l-96 -90l-16 8l92 101h40l91 -101l-16 -8zM270 452q91 0 154.5 -67t63.5 -163q0 -97 -64 -164t-157 -67q-94 0 -158 67t-64 166q0 97 65 162.5t160 65.5zM263 426q-82 0 -135.5 -58t-53.5 -146q0 -89 54 -147t139 -58q84 0 138 58
t54 149q0 89 -55 145.5t-141 56.5z" />
    <glyph glyph-name="uni1ED4" unicode="&#x1ed4;" horiz-adv-x="767" 
d="M404 847l92 -101l-17 -8l-95 90l-96 -90l-16 8l92 101h40zM384 676q136 0 233.5 -101t97.5 -242t-98 -241.5t-236 -100.5q-136 0 -232.5 102t-96.5 246q0 136 99 236.5t233 100.5zM381 649q-126 0 -213 -93t-87 -228q0 -126 90 -218t213 -92q124 0 213 92.5t89 222.5
q0 133 -88.5 224.5t-216.5 91.5zM561 789h-25q2 4 3 4l3 5l8 14q21 32 21 49q0 34 -55 34q-8 0 -25 -3l-7 17q21 5 38 5q34 0 52.5 -12.5t18.5 -35.5q0 -19 -11 -38l-14 -25l-4 -7q-1 -1 -3 -7z" />
    <glyph glyph-name="uni1ED5" unicode="&#x1ed5;" horiz-adv-x="533" 
d="M287 631l91 -101l-16 -8l-95 90l-96 -90l-16 8l92 101h40zM270 452q91 0 154.5 -67t63.5 -163q0 -97 -64 -164t-157 -67q-94 0 -158 67t-64 166q0 97 65 162.5t160 65.5zM263 426q-82 0 -135.5 -58t-53.5 -146q0 -89 54 -147t139 -58q84 0 138 58t54 149q0 89 -55 145.5
t-141 56.5zM414 636h-25q1 1 1 3q1 1 1 2l4 5l8 13q21 34 21 49q0 34 -55 34q-9 0 -25 -3l-7 17q21 5 38 5q34 0 52.5 -12.5t18.5 -35.5q0 -18 -11 -38l-14 -24l-5 -8q0 -1 -1 -2q-1 -3 -1 -5z" />
    <glyph glyph-name="uni1ED6" unicode="&#x1ed6;" horiz-adv-x="767" 
d="M384 803l-96 -90l-16 8l92 101h40l92 -101l-17 -8zM384 676q136 0 233.5 -101t97.5 -242t-98 -241.5t-236 -100.5q-136 0 -232.5 102t-96.5 246q0 136 99 236.5t233 100.5zM381 649q-126 0 -213 -93t-87 -228q0 -126 90 -218t213 -92q124 0 213 92.5t89 222.5
q0 133 -88.5 224.5t-216.5 91.5zM478 936l20 -5q-12 -51 -57 -51q-22 0 -60 17t-51 17q-31 0 -41 -31l-20 4q13 51 57 51q18 0 62 -19q30 -15 50 -15q31 0 40 32z" />
    <glyph glyph-name="uni1ED7" unicode="&#x1ed7;" horiz-adv-x="533" 
d="M267 612l-96 -90l-16 8l92 101h40l91 -101l-16 -8zM270 452q91 0 154.5 -67t63.5 -163q0 -97 -64 -164t-157 -67q-94 0 -158 67t-64 166q0 97 65 162.5t160 65.5zM263 426q-82 0 -135.5 -58t-53.5 -146q0 -89 54 -147t139 -58q84 0 138 58t54 149q0 89 -55 145.5
t-141 56.5zM361 759l20 -4q-12 -51 -57 -51q-22 0 -60 17t-51 17q-29 0 -41 -32l-20 5q14 51 58 51q17 0 61 -19q31 -15 51 -15q31 0 39 31z" />
    <glyph glyph-name="uni1ED8" unicode="&#x1ed8;" horiz-adv-x="767" 
d="M384 828l-96 -90l-16 8l92 101h40l92 -101l-17 -8zM384 676q136 0 233.5 -101t97.5 -242t-98 -241.5t-236 -100.5q-136 0 -232.5 102t-96.5 246q0 136 99 236.5t233 100.5zM381 649q-126 0 -213 -93t-87 -228q0 -126 90 -218t213 -92q124 0 213 92.5t89 222.5
q0 133 -88.5 224.5t-216.5 91.5zM384 -86q10 0 17.5 -7.5t7.5 -17.5q0 -11 -7.5 -18.5t-17.5 -7.5t-17.5 8t-7.5 18t7.5 17.5t17.5 7.5z" />
    <glyph glyph-name="uni1ED9" unicode="&#x1ed9;" horiz-adv-x="533" 
d="M267 628l-96 -90l-16 8l92 101h40l91 -101l-16 -8zM270 452q91 0 154.5 -67t63.5 -163q0 -97 -64 -164t-157 -67q-94 0 -158 67t-64 166q0 97 65 162.5t160 65.5zM263 426q-82 0 -135.5 -58t-53.5 -146q0 -89 54 -147t139 -58q84 0 138 58t54 149q0 89 -55 145.5
t-141 56.5zM267 -86q10 0 17.5 -7.5t7.5 -17.5q0 -11 -7.5 -18.5t-17.5 -7.5t-17.5 8t-7.5 18t7.5 17.5t17.5 7.5z" />
    <glyph glyph-name="uni1EDA" unicode="&#x1eda;" horiz-adv-x="757" 
d="M477 836l-97 -97l-13 8l78 106zM668 712l21 11q36 -35 36 -84q0 -33 -16 -56t-57 -51q63 -88 63 -200q0 -139 -98 -240t-233 -101q-136 0 -234 101t-98 241q0 141 98 242t234 101q149 0 252 -123q37 21 50.5 39.5t13.5 47.5q0 37 -32 72zM381 649q-126 0 -213 -93
t-87 -228q0 -126 90 -218t213 -92q124 0 213 92.5t89 222.5q0 133 -88.5 224.5t-216.5 91.5z" />
    <glyph glyph-name="uni1EDB" unicode="&#x1edb;" horiz-adv-x="556" 
d="M346 636l-97 -97l-13 8l77 107zM473 488l21 11q36 -35 36 -84q0 -56 -60 -99q18 -45 18 -94q0 -97 -64 -164t-157 -67q-94 0 -158 66.5t-64 164.5q0 97 64 163.5t158 66.5q61 0 111 -29.5t80 -83.5q47 31 47 77q0 39 -32 72zM263 426q-82 0 -135.5 -58t-53.5 -146
q0 -89 54 -147t139 -58q84 0 138 58t54 149q0 89 -55 145.5t-141 56.5z" />
    <glyph glyph-name="uni1EDC" unicode="&#x1edc;" horiz-adv-x="757" 
d="M291 836l32 17l77 -106l-13 -8zM668 712l21 11q36 -35 36 -84q0 -33 -16 -56t-57 -51q63 -88 63 -200q0 -139 -98 -240t-233 -101q-136 0 -234 101t-98 241q0 141 98 242t234 101q149 0 252 -123q37 21 50.5 39.5t13.5 47.5q0 37 -32 72zM381 649q-126 0 -213 -93
t-87 -228q0 -126 90 -218t213 -92q124 0 213 92.5t89 222.5q0 133 -88.5 224.5t-216.5 91.5z" />
    <glyph glyph-name="uni1EDD" unicode="&#x1edd;" horiz-adv-x="556" 
d="M174 636l32 18l77 -107l-13 -8zM473 488l21 11q36 -35 36 -84q0 -56 -60 -99q18 -45 18 -94q0 -97 -64 -164t-157 -67q-94 0 -158 66.5t-64 164.5q0 97 64 163.5t158 66.5q61 0 111 -29.5t80 -83.5q47 31 47 77q0 39 -32 72zM263 426q-82 0 -135.5 -58t-53.5 -146
q0 -89 54 -147t139 -58q84 0 138 58t54 149q0 89 -55 145.5t-141 56.5z" />
    <glyph glyph-name="uni1EDE" unicode="&#x1ede;" horiz-adv-x="757" 
d="M668 712l21 11q36 -35 36 -84q0 -33 -16 -56t-57 -51q63 -88 63 -200q0 -139 -98 -240t-233 -101q-136 0 -234 101t-98 241q0 141 98 242t234 101q149 0 252 -123q37 21 50.5 39.5t13.5 47.5q0 37 -32 72zM381 649q-126 0 -213 -93t-87 -228q0 -126 90 -218t213 -92
q124 0 213 92.5t89 222.5q0 133 -88.5 224.5t-216.5 91.5zM410 740h-24l2 4l3 5l9 14q21 34 21 49q0 34 -55 34q-8 0 -25 -3l-7 17q21 5 38 5q34 0 52.5 -12.5t18.5 -35.5q0 -20 -11 -38l-14 -25l-5 -7q0 -3 -3 -7z" />
    <glyph glyph-name="uni1EDF" unicode="&#x1edf;" horiz-adv-x="556" 
d="M473 488l21 11q36 -35 36 -84q0 -56 -60 -99q18 -45 18 -94q0 -97 -64 -164t-157 -67q-94 0 -158 66.5t-64 164.5q0 97 64 163.5t158 66.5q61 0 111 -29.5t80 -83.5q47 31 47 77q0 39 -32 72zM263 426q-82 0 -135.5 -58t-53.5 -146q0 -89 54 -147t139 -58q84 0 138 58
t54 149q0 89 -55 145.5t-141 56.5zM297 540h-25l2 4l4 5l8 13q21 34 21 49q0 34 -55 34q-8 0 -25 -3l-7 17q21 5 38 5q34 0 52.5 -12.5t18.5 -35.5q0 -18 -11 -38l-14 -24l-5 -8z" />
    <glyph glyph-name="uni1EE0" unicode="&#x1ee0;" horiz-adv-x="757" 
d="M668 712l21 11q36 -35 36 -84q0 -33 -16 -56t-57 -51q63 -88 63 -200q0 -139 -98 -240t-233 -101q-136 0 -234 101t-98 241q0 141 98 242t234 101q149 0 252 -123q37 21 50.5 39.5t13.5 47.5q0 37 -32 72zM381 649q-126 0 -213 -93t-87 -228q0 -126 90 -218t213 -92
q124 0 213 92.5t89 222.5q0 133 -88.5 224.5t-216.5 91.5zM483 817l20 -5q-12 -50 -58 -50q-21 0 -59 17t-51 17q-31 0 -41 -32l-20 5q14 51 57 51q18 0 62 -19q30 -15 50 -15q30 0 40 31z" />
    <glyph glyph-name="uni1EE1" unicode="&#x1ee1;" horiz-adv-x="556" 
d="M473 488l21 11q36 -35 36 -84q0 -56 -60 -99q18 -45 18 -94q0 -97 -64 -164t-157 -67q-94 0 -158 66.5t-64 164.5q0 97 64 163.5t158 66.5q61 0 111 -29.5t80 -83.5q47 31 47 77q0 39 -32 72zM263 426q-82 0 -135.5 -58t-53.5 -146q0 -89 54 -147t139 -58q84 0 138 58
t54 149q0 89 -55 145.5t-141 56.5zM356 617l20 -5q-12 -50 -57 -50q-22 0 -60 17t-51 17q-29 0 -41 -32l-20 5q14 51 58 51q17 0 61 -19q31 -15 51 -15q31 0 39 31z" />
    <glyph glyph-name="uni1EE2" unicode="&#x1ee2;" horiz-adv-x="757" 
d="M668 712l21 11q36 -35 36 -84q0 -33 -16 -56t-57 -51q63 -88 63 -200q0 -139 -98 -240t-233 -101q-136 0 -234 101t-98 241q0 141 98 242t234 101q149 0 252 -123q37 21 50.5 39.5t13.5 47.5q0 37 -32 72zM381 649q-126 0 -213 -93t-87 -228q0 -126 90 -218t213 -92
q124 0 213 92.5t89 222.5q0 133 -88.5 224.5t-216.5 91.5zM384 -86q10 0 17.5 -7.5t7.5 -17.5q0 -11 -7.5 -18.5t-17.5 -7.5t-17.5 8t-7.5 18t7.5 17.5t17.5 7.5z" />
    <glyph glyph-name="uni1EE3" unicode="&#x1ee3;" horiz-adv-x="556" 
d="M473 488l21 11q36 -35 36 -84q0 -56 -60 -99q18 -45 18 -94q0 -97 -64 -164t-157 -67q-94 0 -158 66.5t-64 164.5q0 97 64 163.5t158 66.5q61 0 111 -29.5t80 -83.5q47 31 47 77q0 39 -32 72zM263 426q-82 0 -135.5 -58t-53.5 -146q0 -89 54 -147t139 -58q84 0 138 58
t54 149q0 89 -55 145.5t-141 56.5zM267 -86q10 0 17.5 -7.5t7.5 -17.5q0 -11 -7.5 -18.5t-17.5 -7.5t-17.5 8t-7.5 18t7.5 17.5t17.5 7.5z" />
    <glyph glyph-name="uni1EE4" unicode="&#x1ee4;" horiz-adv-x="634" 
d="M118 667v-415q0 -59 6 -90t22 -57q24 -39 71 -63t100 -24t100 24t71 63q16 26 22 57t6 90v415h28v-437q0 -99 -41 -151q-31 -41 -81 -64.5t-105 -23.5t-105 23.5t-82 64.5q-40 52 -40 151v437h28zM317 -86q10 0 17.5 -7.5t7.5 -17.5q0 -11 -7.5 -18.5t-17.5 -7.5t-17.5 8
t-7.5 18t7.5 17.5t17.5 7.5z" />
    <glyph glyph-name="uni1EE5" unicode="&#x1ee5;" horiz-adv-x="510" 
d="M410 0v83q-51 -92 -164 -92q-81 0 -129 53q-44 48 -44 158v241h27v-232q0 -106 39 -149q42 -45 109 -45q81 0 127 55q35 45 35 150v221h27v-443h-27zM255 -86q10 0 17.5 -7.5t7.5 -17.5q0 -11 -7.5 -18.5t-17.5 -7.5t-17.5 8t-7.5 18t7.5 17.5t17.5 7.5z" />
    <glyph glyph-name="uni1EE6" unicode="&#x1ee6;" horiz-adv-x="634" 
d="M118 667v-415q0 -59 6 -90t22 -57q24 -39 71 -63t100 -24t100 24t71 63q16 26 22 57t6 90v415h28v-437q0 -99 -41 -151q-31 -41 -81 -64.5t-105 -23.5t-105 23.5t-82 64.5q-40 52 -40 151v437h28zM339 740h-25q1 1 2 3q0 1 1 1l3 5l9 14q21 34 21 49q0 34 -55 34
q-8 0 -26 -3l-6 17q20 5 38 5q34 0 52.5 -12.5t18.5 -35.5q0 -19 -11 -38l-14 -25l-5 -7q-2 -4 -3 -7z" />
    <glyph glyph-name="uni1EE7" unicode="&#x1ee7;" horiz-adv-x="510" 
d="M410 0v83q-51 -92 -164 -92q-81 0 -129 53q-44 48 -44 158v241h27v-232q0 -106 39 -149q42 -45 109 -45q81 0 127 55q35 45 35 150v221h27v-443h-27zM277 540h-24l2 4l3 5l9 13q21 34 21 49q0 34 -55 34q-9 0 -25 -3l-7 17q21 5 38 5q34 0 52.5 -12.5t18.5 -35.5
q0 -19 -11 -38l-14 -24l-5 -8q-2 -2 -3 -6z" />
    <glyph glyph-name="uni1EE8" unicode="&#x1ee8;" horiz-adv-x="656" 
d="M410 836l-96 -97l-14 8l78 106zM544 667v-121q45 26 59.5 44.5t14.5 49.5q0 39 -32 72l21 10q36 -33 36 -83q0 -37 -20.5 -62t-78.5 -59v-288q0 -99 -41 -151q-31 -41 -80.5 -64.5t-105.5 -23.5q-55 0 -105 23.5t-82 64.5q-40 52 -40 151v437h28v-416q0 -99 28 -146
q24 -39 71 -63t100 -24t100 24t71 63q28 47 28 146v416h28z" />
    <glyph glyph-name="uni1EE9" unicode="&#x1ee9;" horiz-adv-x="559" 
d="M343 636l-96 -97l-13 8l77 107zM437 443v-118q42 26 56 44t14 48q0 38 -32 71l22 11q35 -33 35 -83q0 -37 -20 -62.5t-75 -56.5v-297h-27v83q-51 -92 -164 -92q-81 0 -129 53q-44 48 -44 158v241h27v-232q0 -106 39 -149q42 -45 109 -45q81 0 127 55q35 45 35 150v221h27
z" />
    <glyph glyph-name="uni1EEA" unicode="&#x1eea;" horiz-adv-x="656" 
d="M224 836l32 17l78 -106l-14 -8zM544 667v-121q45 26 59.5 44.5t14.5 49.5q0 39 -32 72l21 10q36 -33 36 -83q0 -37 -20.5 -62t-78.5 -59v-288q0 -99 -41 -151q-31 -41 -80.5 -64.5t-105.5 -23.5q-55 0 -105 23.5t-82 64.5q-40 52 -40 151v437h28v-416q0 -99 28 -146
q24 -39 71 -63t100 -24t100 24t71 63q28 47 28 146v416h28z" />
    <glyph glyph-name="uni1EEB" unicode="&#x1eeb;" horiz-adv-x="559" 
d="M157 636l32 18l78 -107l-14 -8zM437 443v-118q42 26 56 44t14 48q0 38 -32 71l22 11q35 -33 35 -83q0 -37 -20 -62.5t-75 -56.5v-297h-27v83q-51 -92 -164 -92q-81 0 -129 53q-44 48 -44 158v241h27v-232q0 -106 39 -149q42 -45 109 -45q81 0 127 55q35 45 35 150v221h27
z" />
    <glyph glyph-name="uni1EEC" unicode="&#x1eec;" horiz-adv-x="656" 
d="M544 667v-121q45 26 59.5 44.5t14.5 49.5q0 39 -32 72l21 10q36 -33 36 -83q0 -37 -20.5 -62t-78.5 -59v-288q0 -99 -41 -151q-31 -41 -80.5 -64.5t-105.5 -23.5q-55 0 -105 23.5t-82 64.5q-40 52 -40 151v437h28v-416q0 -99 28 -146q24 -39 71 -63t100 -24t100 24t71 63
q28 47 28 146v416h28zM350 740h-25q1 1 2 3l1 1l3 5l9 14q20 33 20 49q0 34 -55 34q-7 0 -25 -3l-7 17q21 5 39 5q33 0 51.5 -12.5t18.5 -35.5q0 -21 -11 -38l-13 -25l-5 -7q-2 -4 -3 -7z" />
    <glyph glyph-name="uni1EED" unicode="&#x1eed;" horiz-adv-x="559" 
d="M437 443v-118q42 26 56 44t14 48q0 38 -32 71l22 11q35 -33 35 -83q0 -37 -20 -62.5t-75 -56.5v-297h-27v83q-51 -92 -164 -92q-81 0 -129 53q-44 48 -44 158v241h27v-232q0 -106 39 -149q42 -45 109 -45q81 0 127 55q35 45 35 150v221h27zM277 540h-25l2 4l4 5l8 13
q21 34 21 49q0 34 -55 34q-8 0 -25 -3l-7 17q21 5 38 5q34 0 52.5 -12.5t18.5 -35.5q0 -18 -11 -38l-14 -24l-5 -8z" />
    <glyph glyph-name="uni1EEE" unicode="&#x1eee;" horiz-adv-x="656" 
d="M544 667v-121q45 26 59.5 44.5t14.5 49.5q0 39 -32 72l21 10q36 -33 36 -83q0 -37 -20.5 -62t-78.5 -59v-288q0 -99 -41 -151q-31 -41 -80.5 -64.5t-105.5 -23.5q-55 0 -105 23.5t-82 64.5q-40 52 -40 151v437h28v-416q0 -99 28 -146q24 -39 71 -63t100 -24t100 24t71 63
q28 47 28 146v416h28zM416 817l20 -5q-12 -50 -57 -50q-22 0 -60 17t-51 17q-29 0 -41 -32l-20 5q13 51 57 51q18 0 62 -19q30 -15 50 -15q32 0 40 31z" />
    <glyph glyph-name="uni1EEF" unicode="&#x1eef;" horiz-adv-x="559" 
d="M437 443v-118q42 26 56 44t14 48q0 38 -32 71l22 11q35 -33 35 -83q0 -37 -20 -62.5t-75 -56.5v-297h-27v83q-51 -92 -164 -92q-81 0 -129 53q-44 48 -44 158v241h27v-232q0 -106 39 -149q42 -45 109 -45q81 0 127 55q35 45 35 150v221h27zM350 617l20 -5
q-12 -50 -57 -50q-22 0 -60 17t-51 17q-31 0 -41 -32l-20 5q13 51 57 51q18 0 62 -19q30 -15 50 -15q30 0 40 31z" />
    <glyph glyph-name="uni1EF0" unicode="&#x1ef0;" horiz-adv-x="656" 
d="M544 667v-121q45 26 59.5 44.5t14.5 49.5q0 39 -32 72l21 10q36 -33 36 -83q0 -37 -20.5 -62t-78.5 -59v-288q0 -99 -41 -151q-31 -41 -80.5 -64.5t-105.5 -23.5q-55 0 -105 23.5t-82 64.5q-40 52 -40 151v437h28v-416q0 -99 28 -146q24 -39 71 -63t100 -24t100 24t71 63
q28 47 28 146v416h28zM317 -86q10 0 17.5 -7.5t7.5 -17.5q0 -11 -7.5 -18.5t-17.5 -7.5t-17.5 8t-7.5 18t7.5 17.5t17.5 7.5z" />
    <glyph glyph-name="uni1EF1" unicode="&#x1ef1;" horiz-adv-x="559" 
d="M437 443v-118q42 26 56 44t14 48q0 38 -32 71l22 11q35 -33 35 -83q0 -37 -20 -62.5t-75 -56.5v-297h-27v83q-51 -92 -164 -92q-81 0 -129 53q-44 48 -44 158v241h27v-232q0 -106 39 -149q42 -45 109 -45q81 0 127 55q35 45 35 150v221h27zM246 -86q10 0 17.5 -7.5
t7.5 -17.5q0 -11 -7.5 -18.5t-17.5 -7.5t-17.5 8t-7.5 18t7.5 17.5t17.5 7.5z" />
    <glyph glyph-name="Ygrave" unicode="&#x1ef2;" horiz-adv-x="472" 
d="M149 836l32 17l78 -106l-13 -8zM222 281l-212 386h31l195 -359l195 359h30l-211 -386v-281h-28v281z" />
    <glyph glyph-name="ygrave" unicode="&#x1ef3;" horiz-adv-x="421" 
d="M125 636l32 18l77 -107l-13 -8zM194 7l-183 436h30l167 -404l173 404h30l-292 -676h-27z" />
    <glyph glyph-name="uni1EF4" unicode="&#x1ef4;" horiz-adv-x="472" 
d="M222 281l-212 386h31l195 -359l195 359h30l-211 -386v-281h-28v281zM236 -86q10 0 17.5 -7.5t7.5 -17.5t-7.5 -18t-17.5 -8t-17.5 7.5t-7.5 18.5q0 10 7.5 17.5t17.5 7.5z" />
    <glyph glyph-name="uni1EF5" unicode="&#x1ef5;" horiz-adv-x="421" 
d="M194 7l-183 436h30l167 -404l173 404h30l-292 -676h-27zM310 -86q10 0 17.5 -7.5t7.5 -17.5q0 -11 -7.5 -18.5t-17.5 -7.5t-17.5 8t-7.5 18t7.5 17.5t17.5 7.5z" />
    <glyph glyph-name="uni1EF6" unicode="&#x1ef6;" horiz-adv-x="472" 
d="M222 281l-212 386h31l195 -359l195 359h30l-211 -386v-281h-28v281zM258 740h-25l2 4l4 5l8 14q21 33 21 49q0 34 -55 34q-9 0 -25 -3l-7 17q21 5 38 5q34 0 52.5 -12.5t18.5 -35.5q0 -19 -11 -38l-14 -25l-5 -7q0 -1 -2 -7z" />
    <glyph glyph-name="uni1EF7" unicode="&#x1ef7;" horiz-adv-x="421" 
d="M194 7l-183 436h30l167 -404l173 404h30l-292 -676h-27zM233 540h-25l3 4l3 5l9 13q21 34 21 49q0 34 -55 34q-8 0 -26 -3l-6 17q21 5 38 5q34 0 52.5 -12.5t18.5 -35.5q0 -19 -11 -38l-14 -24l-5 -8q-2 -2 -3 -6z" />
    <glyph glyph-name="uni1EF8" unicode="&#x1ef8;" horiz-adv-x="472" 
d="M222 281l-212 386h31l195 -359l195 359h30l-211 -386v-281h-28v281zM330 817l20 -5q-12 -50 -57 -50q-22 0 -60 17t-51 17q-31 0 -41 -32l-20 5q13 51 57 51q18 0 62 -19q30 -15 50 -15q30 0 40 31z" />
    <glyph glyph-name="uni1EF9" unicode="&#x1ef9;" horiz-adv-x="421" 
d="M194 7l-183 436h30l167 -404l173 404h30l-292 -676h-27zM306 617l20 -5q-13 -50 -58 -50q-21 0 -59 17t-51 17q-30 0 -42 -32l-19 5q13 51 57 51q18 0 62 -19q30 -15 50 -15q30 0 40 31z" />
    <glyph glyph-name="uni2002" unicode="&#x2002;" horiz-adv-x="520" 
 />
    <glyph glyph-name="uni2003" unicode="&#x2003;" horiz-adv-x="1020" 
 />
    <glyph glyph-name="uni2004" unicode="&#x2004;" horiz-adv-x="353" 
 />
    <glyph glyph-name="uni2005" unicode="&#x2005;" horiz-adv-x="270" 
 />
    <glyph glyph-name="uni2006" unicode="&#x2006;" horiz-adv-x="87" 
 />
    <glyph glyph-name="uni2007" unicode="&#x2007;" horiz-adv-x="576" 
 />
    <glyph glyph-name="uni2009" unicode="&#x2009;" horiz-adv-x="145" 
 />
    <glyph glyph-name="uni200A" unicode="&#x200a;" horiz-adv-x="53" 
 />
    <glyph glyph-name="uni2011" unicode="&#x2011;" horiz-adv-x="235" 
d="M47 242h142v-24h-142v24z" />
    <glyph glyph-name="figuredash" unicode="&#x2012;" horiz-adv-x="546" 
d="M127 242h293v-24h-293v24z" />
    <glyph glyph-name="endash" unicode="&#x2013;" horiz-adv-x="546" 
d="M127 242h293v-24h-293v24z" />
    <glyph glyph-name="emdash" unicode="&#x2014;" horiz-adv-x="597" 
d="M47 242h504v-24h-504v24z" />
    <glyph glyph-name="afii00208" unicode="&#x2015;" horiz-adv-x="597" 
d="M47 242h504v-24h-504v24z" />
    <glyph glyph-name="underscoredbl" unicode="&#x2017;" horiz-adv-x="475" 
d="M10 -87h455v-21h-455v21zM10 -176h455v-21h-455v21z" />
    <glyph glyph-name="quoteleft" unicode="&#x2018;" horiz-adv-x="234" 
d="M96 477l-29 11l84 199l17 -7z" />
    <glyph glyph-name="quoteright" unicode="&#x2019;" horiz-adv-x="201" 
d="M116 687l29 -11l-84 -199l-17 7z" />
    <glyph glyph-name="quotesinglbase" unicode="&#x201a;" horiz-adv-x="201" 
d="M116 70l29 -11l-84 -198l-17 6z" />
    <glyph glyph-name="quotereversed" unicode="&#x201b;" horiz-adv-x="201" 
d="M85 687l72 -203l-17 -7l-84 199z" />
    <glyph glyph-name="quotedblleft" unicode="&#x201c;" horiz-adv-x="381" 
d="M96 478l-29 11l84 199l17 -7zM243 478l-30 11l85 199l16 -7z" />
    <glyph glyph-name="quotedblright" unicode="&#x201d;" horiz-adv-x="381" 
d="M285 687l29 -11l-84 -199l-17 7zM139 687l29 -11l-84 -199l-17 7z" />
    <glyph glyph-name="quotedblbase" unicode="&#x201e;" horiz-adv-x="381" 
d="M139 70l29 -11l-84 -198l-17 6zM285 70l29 -11l-84 -198l-17 6z" />
    <glyph glyph-name="dagger" unicode="&#x2020;" horiz-adv-x="538" 
d="M255 665h28v-237h156v-26h-156v-585h-28v585h-157v26h157v237z" />
    <glyph glyph-name="daggerdbl" unicode="&#x2021;" horiz-adv-x="538" 
d="M255 428v237h28v-237h156v-26h-156v-323h156v-26h-156v-237h-28v237h-157v26h157v323h-157v26h157z" />
    <glyph glyph-name="bullet" unicode="&#x2022;" horiz-adv-x="460" 
d="M232 453q48 0 83 -35.5t35 -84.5t-35 -84.5t-85 -35.5t-85 35.5t-35 85.5t35.5 84.5t86.5 34.5z" />
    <glyph glyph-name="ellipsis" unicode="&#x2026;" horiz-adv-x="717" 
d="M110 44q10 0 17.5 -7.5t7.5 -17.5q0 -11 -7.5 -18.5t-17.5 -7.5t-17.5 8t-7.5 18t7.5 17.5t17.5 7.5zM359 44q10 0 17.5 -7.5t7.5 -17.5q0 -11 -7.5 -18.5t-17.5 -7.5t-17.5 8t-7.5 18t7.5 17.5t17.5 7.5zM607 44q10 0 17.5 -7.5t7.5 -17.5q0 -11 -7.5 -18.5t-17.5 -7.5
t-17.5 8t-7.5 18t7.5 17.5t17.5 7.5z" />
    <glyph glyph-name="perthousand" unicode="&#x2030;" horiz-adv-x="1264" 
d="M700 401q146 0 146 -202q0 -104 -36 -153.5t-112 -49.5q-144 0 -144 205q0 200 146 200zM700 374q-117 0 -117 -178q0 -84 30 -128.5t87 -44.5q117 0 117 176q0 175 -117 175zM634 668l18 -10l-381 -659l-17 10zM206 672q146 0 146 -202q0 -104 -36 -153.5t-112 -49.5
q-144 0 -144 205q0 200 146 200zM206 645q-117 0 -117 -178q0 -84 30 -128.5t87 -44.5q117 0 117 176q0 175 -117 175zM1058 401q146 0 146 -202q0 -104 -36 -153.5t-112 -49.5q-144 0 -144 205q0 200 146 200zM1058 374q-117 0 -117 -178q0 -84 30 -128.5t87 -44.5
q117 0 117 176q0 175 -117 175z" />
    <glyph glyph-name="minute" unicode="&#x2032;" horiz-adv-x="144" 
d="M49 687l29 -11l-84 -199l-17 7z" />
    <glyph glyph-name="second" unicode="&#x2033;" horiz-adv-x="291" 
d="M195 687l29 -11l-84 -199l-17 7zM49 687l29 -11l-84 -199l-17 7z" />
    <glyph glyph-name="guilsinglleft" unicode="&#x2039;" horiz-adv-x="251" 
d="M74 222l116 -144l-16 -13l-127 157l127 160l16 -13z" />
    <glyph glyph-name="guilsinglright" unicode="&#x203a;" horiz-adv-x="251" 
d="M177 222l-116 147l16 13l127 -160l-127 -157l-16 13z" />
    <glyph glyph-name="uni203E" unicode="&#x203e;" horiz-adv-x="475" 
d="M10 809h455v-21h-455v21z" />
    <glyph glyph-name="fraction" unicode="&#x2044;" horiz-adv-x="172" 
d="M268 668l17 -10l-380 -659l-18 10z" />
    <glyph glyph-name="zerosuperior" unicode="&#x2070;" 
d="M191 807q76 0 112 -49.5t36 -153.5q0 -203 -146 -203q-75 0 -110.5 50t-35.5 156q0 200 144 200zM193 780q-117 0 -117 -178q0 -85 30 -129.5t87 -44.5q117 0 117 176t-117 176z" />
    <glyph glyph-name="foursuperior" unicode="&#x2074;" 
d="M253 790l-164 -267h155v108h29v-108h52v-27h-52v-90h-29v90h-189v26l174 283z" />
    <glyph glyph-name="fivesuperior" unicode="&#x2075;" 
d="M146 775l-26 -124q31 12 59 12q56 0 94.5 -37.5t38.5 -92.5q0 -57 -37.5 -94.5t-94.5 -37.5q-76 0 -121 62l23 17q34 -51 97 -51q47 0 75.5 28t28.5 75q0 44 -31 74t-76 30q-38 0 -70 -26l-23 5l39 187h169v-27h-145z" />
    <glyph glyph-name="sixsuperior" unicode="&#x2076;" 
d="M223 805l23 -16l-101 -139q22 7 45 7q58 0 96.5 -35t38.5 -88q0 -56 -38.5 -94.5t-94.5 -38.5t-95 38.5t-39 93.5q0 47 31 88zM191 630q-44 0 -74 -28.5t-30 -70.5q0 -43 30.5 -73t73.5 -30q44 0 74.5 30t30.5 74q0 42 -30 70t-75 28z" />
    <glyph glyph-name="sevensuperior" unicode="&#x2077;" 
d="M297 775h-218v27h250v-26l-202 -373l-26 14z" />
    <glyph glyph-name="eightsuperior" unicode="&#x2078;" 
d="M131 617q-49 31 -49 87q0 44 31.5 73.5t79.5 29.5q49 0 80.5 -29.5t31.5 -73.5q0 -56 -49 -87q63 -36 63 -101q0 -50 -35.5 -82.5t-90.5 -32.5t-90 32.5t-35 82.5q0 65 63 101zM192 600q-41 0 -68 -24.5t-27 -62.5q0 -37 27.5 -61t68.5 -24q42 0 69.5 24t27.5 61
q0 38 -27.5 62.5t-70.5 24.5zM193 780q-36 0 -59.5 -22t-23.5 -55q0 -32 24 -54t59 -22q36 0 60 22t24 55t-23.5 54.5t-60.5 21.5z" />
    <glyph glyph-name="ninesuperior" unicode="&#x2079;" 
d="M163 403l-22 17l101 140q-23 -7 -46 -7q-59 0 -97 34.5t-38 87.5q0 55 39 93.5t94 38.5q57 0 95.5 -37.5t38.5 -93.5q0 -45 -30 -88zM195 780q-45 0 -75 -30t-30 -74q0 -42 29.5 -69t75.5 -27q44 0 74 28.5t30 70.5t-30.5 71.5t-73.5 29.5z" />
    <glyph glyph-name="zeroinferior" unicode="&#x2080;" 
d="M191 272q76 0 112 -49.5t36 -153.5q0 -203 -146 -203q-75 0 -110.5 50t-35.5 156q0 200 144 200zM193 245q-117 0 -117 -178q0 -85 30 -129.5t87 -44.5q117 0 117 176t-117 176z" />
    <glyph glyph-name="oneinferior" unicode="&#x2081;" 
d="M223 -130h-29v366l-71 -40l-14 23l83 47h31v-396z" />
    <glyph glyph-name="twoinferior" unicode="&#x2082;" 
d="M72 -130v29l152 161q53 54 53 100q0 36 -25.5 60t-63.5 24q-57 0 -81 -48q-6 -13 -9 -24l-27 7q7 23 14 35q33 57 106 57q49 0 82 -31.5t33 -78.5q0 -54 -64 -122l-134 -142h209v-27h-245z" />
    <glyph glyph-name="threeinferior" unicode="&#x2083;" 
d="M175 92h25q31 0 52 22t21 55q0 34 -23.5 55t-61.5 21q-46 0 -78 -39l-24 13q23 29 46 41t56 12q50 0 81.5 -28.5t31.5 -74.5q0 -57 -48 -89q57 -32 57 -99q0 -51 -33.5 -83t-87.5 -32q-94 0 -121 85l27 7q9 -20 12 -24q23 -41 81 -41q43 0 68 23.5t25 63.5q0 38 -22.5 62
t-59.5 24h-24v26z" />
    <glyph glyph-name="fourinferior" unicode="&#x2084;" 
d="M253 255l-164 -267h155v108h29v-108h52v-27h-52v-90h-29v90h-189v26l174 283z" />
    <glyph glyph-name="fiveinferior" unicode="&#x2085;" 
d="M146 239l-26 -124q31 12 59 12q56 0 94.5 -37t38.5 -92q0 -57 -37.5 -94.5t-94.5 -37.5q-76 0 -121 62l23 16q35 -50 97 -50q47 0 75.5 28.5t28.5 74.5q0 43 -31 73t-76 30q-38 0 -70 -26l-23 5l39 187h169v-27h-145z" />
    <glyph glyph-name="sixinferior" unicode="&#x2086;" 
d="M223 270l23 -17l-101 -139q22 7 45 7q58 0 96.5 -35t38.5 -88q0 -55 -39 -93.5t-94 -38.5q-56 0 -95 38.5t-39 93.5q0 46 31 87zM191 94q-44 0 -74 -28.5t-30 -70.5t30.5 -72t73.5 -30q44 0 74.5 30t30.5 74q0 41 -30 69t-75 28z" />
    <glyph glyph-name="seveninferior" unicode="&#x2087;" 
d="M297 239h-218v27h250v-26l-202 -372l-26 14z" />
    <glyph glyph-name="eightinferior" unicode="&#x2088;" 
d="M131 81q-49 31 -49 88q0 44 31.5 73.5t79.5 29.5q49 0 80.5 -29.5t31.5 -73.5q0 -57 -49 -88q63 -35 63 -100q0 -50 -35.5 -82.5t-90.5 -32.5t-90 32.5t-35 82.5q0 65 63 100zM192 65q-41 0 -68 -24.5t-27 -62.5q0 -37 27.5 -61t68.5 -24q42 0 69.5 24t27.5 61
q0 38 -27.5 62.5t-70.5 24.5zM193 245q-36 0 -59.5 -22t-23.5 -55q0 -32 24 -54t59 -22q36 0 60 22t24 55t-23.5 54.5t-60.5 21.5z" />
    <glyph glyph-name="nineinferior" unicode="&#x2089;" 
d="M163 -132l-22 17l101 139q-24 -6 -46 -6q-59 0 -97 34.5t-38 87.5q0 55 39 93.5t94 38.5q57 0 95.5 -37.5t38.5 -93.5q0 -46 -30 -89zM195 245q-45 0 -75 -30t-30 -74q0 -42 29.5 -69t75.5 -27q44 0 74 28.5t30 70.5t-30.5 71.5t-73.5 29.5z" />
    <glyph glyph-name="franc" unicode="&#x20a3;" horiz-adv-x="642" 
d="M407 373v-84q45 84 151 84v-25q-80 -2 -117 -51t-34 -150v-147h-27v373h27zM419 641h-261v-290h189v-26h-189v-325h-28v667h289v-26z" />
    <glyph glyph-name="lira" unicode="&#x20a4;" horiz-adv-x="552" 
d="M168 392l4 -20l16 -81l4 -16h199v-25h-194q7 -39 7 -63q0 -46 -21 -84t-70 -78h379v-25h-407v36q53 44 72.5 75t19.5 71q0 31 -8 68h-84v25h79l-4 23l-18 85l-2 9h-55v25h51q-3 33 -3 57q0 74 27 121q22 37 65 59t92 22q91 0 145 -79l-22 -15q-51 68 -125 68
q-73 0 -114 -47t-41 -130q0 -25 4 -56h227v-25h-223z" />
    <glyph glyph-name="peseta" unicode="&#x20a7;" horiz-adv-x="602" 
d="M153 469h-60v23h60v175h119q203 4 219 -175h60v-23h-60q-8 -94 -62 -138t-157 -42h-91v-289h-28v469zM181 469v-154h101q83 -2 129 37.5t52 116.5h-282zM181 492h282q-6 75 -52 113t-129 36h-101v-149z" />
    <glyph glyph-name="uni20AB" unicode="&#x20ab;" horiz-adv-x="571" 
d="M454 566v101h27v-101h64v-25h-64v-541h-27v102q-68 -111 -188 -111q-93 0 -157 67t-64 164t64 163.5t157 66.5q119 0 188 -111v200h-126v25h126zM263 426q-81 0 -135 -58t-54 -146q0 -89 54 -147t138 -58q83 0 136.5 58t53.5 149q0 89 -54 145.5t-139 56.5zM49 -87h489
v-21h-489v21z" />
    <glyph glyph-name="Euro" unicode="&#x20ac;" horiz-adv-x="783" 
d="M626 392h-437q-5 -33 -5 -60q0 -26 5 -57h391l-10 -25h-376q26 -102 108.5 -167t186.5 -65q53 0 96 15.5t95 54.5v-33q-84 -64 -188 -64q-118 0 -208.5 71.5t-118.5 187.5h-88l10 25h73q-5 26 -5 58t5 59h-83l10 25h78q29 116 119.5 187.5t207.5 71.5q120 0 212 -86
l-10 -26q-94 85 -206 85q-104 0 -186.5 -64.5t-107.5 -167.5h442z" />
    <glyph glyph-name="uni20B4" unicode="&#x20b4;" horiz-adv-x="602" 
d="M136 250h-43v25h60q32 39 114 73l69 27q21 9 37 17h-280v25h317q44 38 44 92q0 60 -44 100.5t-109 40.5q-77 0 -132 -68l-22 15q60 79 152 79q79 0 130.5 -47t51.5 -120q0 -52 -31 -92h58v-25h-85q-30 -23 -71 -39l-66 -26q-67 -28 -94 -52h316v-25h-339q-21 -30 -21 -70
q0 -68 48.5 -115t118.5 -47q58 0 99.5 31.5t60.5 89.5l28 -8q-23 -68 -71 -104t-115 -36q-83 0 -140 55t-57 135q0 40 16 69z" />
    <glyph glyph-name="uni2101" unicode="&#x2101;" horiz-adv-x="952" 
d="M369 389h-215l-49 -117h-25l166 395h31l146 -346l-15 -26zM360 411l-99 238l-98 -238h197zM850 349l-19 -12q-33 39 -80 39q-38 0 -64 -22t-26 -55q0 -48 70 -75l42 -15q92 -35 92 -100q0 -48 -36 -80.5t-89 -32.5q-91 0 -118 86l25 7q23 -71 95 -71q41 0 69.5 26
t28.5 64q0 28 -19 47t-63 35l-41 15q-81 32 -81 93q0 43 32.5 71.5t82.5 28.5q60 0 99 -49zM706 668l17 -10l-381 -659l-17 10z" />
    <glyph glyph-name="afii61248" unicode="&#x2105;" horiz-adv-x="1070" 
d="M427 617l-16 -16q-52 48 -121 48q-78 0 -131 -52t-53 -128q0 -75 53.5 -127t130.5 -52q67 0 123 50l16 -16q-60 -56 -139 -56q-88 0 -149 58.5t-61 142.5q0 85 61 143.5t149 58.5q77 0 137 -54zM782 398q85 0 146.5 -59t61.5 -142t-61.5 -142t-147.5 -59q-85 0 -145.5 60
t-60.5 144q0 80 62 139t145 59zM781 376q-76 0 -128 -52.5t-52 -129.5q0 -71 54 -123.5t127 -52.5q75 0 128.5 52.5t53.5 126.5q0 75 -53 127t-130 52zM717 668l17 -10l-381 -659l-17 10z" />
    <glyph glyph-name="uni2117" unicode="&#x2117;" horiz-adv-x="877" 
d="M361 298v-190h-26v450h91q82 0 120 -33q42 -37 42 -98q0 -36 -16.5 -65.5t-45.5 -44.5q-35 -19 -100 -19h-65zM361 322h72q129 0 129 105q0 107 -129 107h-72v-212zM445 712q152 0 262 -112t110 -266q0 -158 -110.5 -268.5t-268.5 -110.5t-268 110.5t-110 268.5
t112.5 268t272.5 110zM433 689q-143 0 -246.5 -106t-103.5 -251q0 -147 104 -250.5t251 -103.5q148 0 252 104.5t104 253.5q0 147 -105.5 250t-255.5 103z" />
    <glyph glyph-name="trademark" unicode="&#x2122;" horiz-adv-x="711" 
d="M320 361v312h31l126 -216l126 216h32v-312h-24v279l-120 -206h-27l-120 206v-279h-24zM190 652v-291h-24v291h-89v21h201v-21h-88z" />
    <glyph glyph-name="uni2126" unicode="&#x2126;" horiz-adv-x="808" 
d="M507 0v88q97 36 150 107t53 164q0 121 -89.5 205.5t-216.5 84.5t-216.5 -84.5t-89.5 -205.5q0 -93 53.5 -164.5t149.5 -107.5v-87h-213v27h185v42q-32 15 -39 19q-76 43 -120 116t-44 156q0 130 98.5 223t235.5 93t235.5 -93t98.5 -223q0 -95 -53 -171t-150 -120v-42h185
v-27h-213z" />
    <glyph glyph-name="estimated" unicode="&#x212e;" horiz-adv-x="748" 
d="M669 337h-522v-163q25 -64 47 -90q60 -71 184 -71q173 0 245 140h17q-72 -162 -263 -162q-140 0 -218.5 89.5t-78.5 248.5q0 167 86 259q82 88 213 88q92 0 162 -44t101 -121q24 -62 27 -174zM613 356v146q-14 36 -27 52q-71 100 -209 100q-122 0 -191 -86
q-12 -16 -39 -65v-147h466z" />
    <glyph glyph-name="onethird" unicode="&#x2153;" horiz-adv-x="833" 
d="M552 670l18 -10l-381 -659l-17 10zM606 221h26q31 0 51.5 22t20.5 55q0 34 -23.5 55t-61.5 21q-45 0 -77 -39l-24 14l4 5q38 47 98 47q49 0 80.5 -28.5t31.5 -73.5q0 -57 -47 -90q57 -32 57 -98q0 -52 -33.5 -83.5t-87.5 -31.5q-94 0 -121 84l27 8q8 -18 12 -25
q24 -40 81 -40q43 0 68 23.5t25 62.5q0 38 -23 62t-59 24h-25v26zM185 271h-29v365l-71 -39l-14 23l83 47h31v-396z" />
    <glyph glyph-name="twothirds" unicode="&#x2154;" horiz-adv-x="833" 
d="M602 668l17 -10l-381 -659l-17 10zM608 221h26q31 0 51.5 22t20.5 55q0 34 -23.5 55t-61.5 21q-46 0 -77 -39l-24 14l4 5q38 47 98 47q49 0 80.5 -28.5t31.5 -73.5q0 -57 -47 -90q57 -31 57 -98q0 -52 -33.5 -83.5t-87.5 -31.5q-93 0 -122 84l28 8q7 -17 11 -25
q25 -40 82 -40q43 0 68 23.5t25 62.5q0 38 -23 62t-59 24h-25v26zM64 271v29l152 161q53 56 53 100q0 36 -25.5 60t-63.5 24q-66 0 -90 -72l-27 7q7 25 14 35q33 57 106 57q49 0 82 -31.5t33 -78.5q0 -54 -64 -122l-134 -142h209v-27h-245z" />
    <glyph glyph-name="oneeighth" unicode="&#x215b;" horiz-adv-x="833" 
d="M552 668l18 -10l-381 -659l-17 10zM553 211q-49 31 -49 87q0 44 31.5 73.5t79.5 29.5q49 0 80.5 -29.5t31.5 -73.5q0 -56 -49 -87q63 -35 63 -101q0 -50 -35.5 -82t-90.5 -32t-90 32t-35 82q0 65 63 101zM614 194q-41 0 -68 -24.5t-27 -61.5t27.5 -61t68.5 -24
q42 0 69.5 24t27.5 61q0 38 -27 62t-71 24zM615 374q-36 0 -59.5 -22t-23.5 -55q0 -32 24 -54t59 -22q36 0 60 22t24 55t-23.5 54.5t-60.5 21.5zM185 270h-29v366l-71 -40l-14 23l83 47h31v-396z" />
    <glyph glyph-name="threeeighths" unicode="&#x215c;" horiz-adv-x="833" 
d="M580 668l17 -10l-380 -659l-18 10zM545 211q-49 31 -49 87q0 44 31.5 73.5t79.5 29.5q49 0 80.5 -29.5t31.5 -73.5q0 -56 -49 -87q63 -35 63 -101q0 -50 -35.5 -82t-90.5 -32t-90 32t-35 82q0 65 63 101zM606 194q-41 0 -68 -24.5t-27 -61.5t27.5 -61t68.5 -24
q42 0 69.5 24t27.5 61q0 38 -27 62t-71 24zM607 374q-36 0 -59.5 -22t-23.5 -55q0 -32 24 -54t59 -22q36 0 60 22t24 55t-23.5 54.5t-60.5 21.5zM169 492h25q31 0 52 22t21 55q0 34 -23.5 55t-61.5 21q-45 0 -78 -38l-24 13l5 6q37 46 97 46q50 0 81.5 -28.5t31.5 -73.5
q0 -58 -48 -89q57 -32 57 -99q0 -51 -33.5 -83t-87.5 -32q-94 0 -121 85l27 7q11 -23 12 -25q24 -40 81 -40q43 0 68 23.5t25 63.5q0 38 -22.5 61.5t-59.5 23.5h-24v26z" />
    <glyph glyph-name="fiveeighths" unicode="&#x215d;" horiz-adv-x="833" 
d="M581 668l18 -10l-381 -659l-17 10zM544 211q-49 31 -49 87q0 44 31.5 73.5t79.5 29.5q49 0 80.5 -29.5t31.5 -73.5q0 -56 -49 -87q63 -35 63 -101q0 -50 -35.5 -82t-90.5 -32t-90 32t-35 82q0 65 63 101zM605 194q-41 0 -68 -24.5t-27 -61.5t27.5 -61t68.5 -24
q42 0 69.5 24t27.5 61q0 38 -27 62t-71 24zM606 374q-36 0 -59.5 -22t-23.5 -55q0 -32 24 -54t59 -22q36 0 60 22t24 55t-23.5 54.5t-60.5 21.5zM150 640l-26 -124q31 12 59 12q56 0 94.5 -37t38.5 -92q0 -57 -37.5 -94.5t-94.5 -37.5q-76 0 -121 62l23 16q35 -50 97 -50
q47 0 75.5 28.5t28.5 74.5q0 43 -31 73t-76 30q-38 0 -70 -26l-23 5l39 187h169v-27h-145z" />
    <glyph glyph-name="seveneighths" unicode="&#x215e;" horiz-adv-x="833" 
d="M549 670l18 -10l-381 -659l-18 10zM548 211q-50 31 -50 87q0 44 32 73.5t80 29.5t80 -29.5t32 -73.5q0 -56 -50 -87q63 -36 63 -101q0 -50 -35.5 -82t-90.5 -32t-90 32t-35 82q0 67 64 101zM608 194q-41 0 -68 -24.5t-27 -61.5t27.5 -61t68.5 -24q42 0 69.5 24t27.5 61
q0 38 -27 62t-71 24zM609 374q-36 0 -59.5 -22t-23.5 -55q0 -32 24.5 -54t59.5 -22q36 0 60 22t24 55t-24 54.5t-61 21.5zM303 640h-218v27h250v-26l-202 -372l-26 14z" />
    <glyph glyph-name="partialdiff" unicode="&#x2202;" horiz-adv-x="598" 
d="M158 643l3 21q79 -14 130.5 -37t98.5 -65q132 -118 132 -310q0 -118 -61 -189.5t-162 -71.5q-94 0 -158 66.5t-64 164.5q0 97 64 163.5t158 66.5q105 0 177 -88q-59 234 -318 279zM297 426q-84 0 -137.5 -58.5t-53.5 -149.5q0 -86 55 -143.5t138 -57.5q84 0 138.5 58
t54.5 147t-55 146.5t-140 57.5z" />
    <glyph glyph-name="emptyset" unicode="&#x2205;" horiz-adv-x="608" 
d="M399 552l64 124l17 -9l-63 -125q54 -34 84 -86t30 -113q0 -98 -68 -164.5t-168 -66.5q-47 0 -87 20l-71 -141l-18 9l72 141q-55 35 -84.5 87.5t-29.5 113.5q0 97 66.5 164t162.5 67q50 0 93 -21zM202 163l187 369q-39 19 -83 19q-85 0 -145.5 -61t-60.5 -147
q0 -117 102 -180zM407 522l-188 -368q43 -20 85 -20q85 0 144.5 61t59.5 147q0 57 -26.5 104.5t-74.5 75.5z" />
    <glyph glyph-name="Delta" unicode="&#x2206;" horiz-adv-x="650" 
d="M40 0l270 667h30l270 -667h-570zM570 27l-245 612l-245 -612h490z" />
    <glyph glyph-name="product" unicode="&#x220f;" horiz-adv-x="673" 
d="M160 641v-641h-28v641h-89v26h586v-26h-88v-641h-28v641h-353z" />
    <glyph glyph-name="summation" unicode="&#x2211;" horiz-adv-x="664" 
d="M331 347l-191 283v37h396v-26h-373l200 -291l-219 -323h413v-27h-438v37z" />
    <glyph glyph-name="minus" unicode="&#x2212;" horiz-adv-x="556" 
d="M458 324v-24h-361v24h361z" />
    <glyph glyph-name="uni2215" unicode="&#x2215;" horiz-adv-x="172" 
d="M268 668l17 -10l-380 -659l-18 10z" />
    <glyph glyph-name="uni2218" unicode="&#x2218;" horiz-adv-x="460" 
d="M232 453q48 0 83 -35.5t35 -84.5t-35 -84.5t-85 -35.5t-85 35.5t-35 85.5t35.5 84.5t86.5 34.5zM229 425q-37 0 -64 -27t-27 -65t27 -65t65 -27t65 27t27 66q0 38 -27 64.5t-66 26.5z" />
    <glyph glyph-name="radical" unicode="&#x221a;" horiz-adv-x="648" 
d="M547 841h257v-26h-236l-284 -815h-36l-124 354h-81v26h101l122 -352z" />
    <glyph glyph-name="infinity" unicode="&#x221e;" horiz-adv-x="677" 
d="M375 272l-35 50q-32 -45 -46 -59q-56 -59 -119 -59q-59 0 -95.5 37t-36.5 97q0 58 37 95.5t95 37.5q67 0 125 -67q9 -10 37 -51q29 43 39 54q57 64 126 64q58 0 94.5 -37.5t36.5 -96.5t-36 -96.5t-94 -37.5q-71 0 -128 69zM352 338q25 -40 28 -43q29 -37 57.5 -53
t66.5 -16q50 0 77 27.5t27 78.5q0 55 -28.5 85.5t-78.5 30.5q-73 0 -126 -76q-2 -3 -23 -34zM324 337q-39 64 -71 87.5t-79 23.5q-50 0 -78 -30t-28 -84q0 -51 27.5 -79t77.5 -28q40 0 70 17.5t59 58.5q2 2 22 34z" />
    <glyph glyph-name="integral" unicode="&#x222b;" horiz-adv-x="287" 
d="M43 -175v25q15 -3 24 -3q34 0 48.5 25t14.5 81v646q0 133 86 133q13 0 28 -5v-25q-15 3 -24 3q-34 0 -48.5 -25t-14.5 -81v-646q0 -133 -86 -133q-13 0 -28 5z" />
    <glyph glyph-name="similar" unicode="&#x223c;" horiz-adv-x="524" 
d="M60 272l-12 8q29 50 52.5 69t59.5 19q32 0 103 -32q73 -33 105 -33q31 0 52.5 13.5t44.5 46.5l12 -7q-47 -85 -118 -85q-19 0 -43 8.5t-89 37.5q-44 19 -74 19q-52 0 -93 -64z" />
    <glyph glyph-name="uni2243" unicode="&#x2243;" horiz-adv-x="536" 
d="M488 242v-22h-441v22h441zM64 343l-11 8q28 50 51.5 69t59.5 19q32 0 104 -32q73 -33 104 -33t53 13.5t45 46.5l12 -7q-47 -85 -119 -85q-30 0 -131 46q-44 19 -74 19q-53 0 -94 -64z" />
    <glyph glyph-name="approxequal" unicode="&#x2248;" horiz-adv-x="524" 
d="M59 192l-11 8q28 50 52 69t60 19q32 0 103 -32q73 -33 105 -33q31 0 53 13.5t44 46.5l12 -7q-45 -85 -118 -85q-19 0 -43 8.5t-89 37.5q-44 19 -74 19q-51 0 -94 -64zM60 360l-12 7q28 51 52 70t60 19q32 0 103 -32q48 -22 66 -28t39 -6q31 0 52.5 13.5t44.5 47.5l12 -7
q-46 -86 -118 -86q-19 0 -43 8.5t-89 37.5q-43 20 -74 20q-53 0 -93 -64z" />
    <glyph glyph-name="notequal" unicode="&#x2260;" horiz-adv-x="537" 
d="M320 390h170v-24h-182l-53 -107h235v-24h-247l-65 -130l-20 9l60 121h-170v24h182l54 107h-236v24h248l64 130l20 -9z" />
    <glyph glyph-name="lessequal" unicode="&#x2264;" horiz-adv-x="536" 
d="M464 163l-393 176v40l393 178v-27l-382 -170l382 -169v-28zM464 0h-393v23h393v-23z" />
    <glyph glyph-name="greaterequal" unicode="&#x2265;" horiz-adv-x="536" 
d="M71 0v23h393v-23h-393zM71 163v28l382 169l-382 170v27l393 -178v-40z" />
    <glyph glyph-name="dotmath" unicode="&#x22c5;" horiz-adv-x="198" 
d="M99 359q10 0 17.5 -7.5t7.5 -17.5q0 -11 -7.5 -18.5t-17.5 -7.5t-17.5 8t-7.5 18t7.5 17.5t17.5 7.5z" />
    <glyph glyph-name="lozenge" unicode="&#x25ca;" horiz-adv-x="679" 
d="M339 -40l-261 373l261 373l263 -373zM570 333l-231 331l-229 -331l229 -331z" />
    <glyph glyph-name="openbullet" unicode="&#x25e6;" horiz-adv-x="460" 
d="M232 453q48 0 83 -35.5t35 -84.5t-35 -84.5t-85 -35.5t-85 35.5t-35 85.5t35.5 84.5t86.5 34.5zM229 425q-37 0 -64 -27t-27 -65t27 -65t65 -27t65 27t27 66q0 38 -27 64.5t-66 26.5z" />
    <glyph glyph-name="commaaccent" unicode="&#xf6c3;" horiz-adv-x="476" 
d="M224 -71l29 -9l-50 -116l-15 4z" />
    <glyph glyph-name="Acute" unicode="&#xf6c9;" horiz-adv-x="476" 
d="M335 836l-97 -97l-13 8l77 106z" />
    <glyph glyph-name="Caron" unicode="&#xf6ca;" horiz-adv-x="476" 
d="M238 759l95 90l17 -8l-92 -101h-40l-92 101l16 8z" />
    <glyph glyph-name="Dieresis" unicode="&#xf6cb;" horiz-adv-x="476" 
d="M330 816q10 0 17.5 -7.5t7.5 -17.5q0 -11 -7.5 -18.5t-17.5 -7.5t-17.5 8t-7.5 18t7.5 17.5t17.5 7.5zM146 816q10 0 17.5 -7.5t7.5 -17.5q0 -11 -7.5 -18.5t-17.5 -7.5t-17.5 8t-7.5 18t7.5 17.5t17.5 7.5z" />
    <glyph glyph-name="Grave" unicode="&#xf6ce;" horiz-adv-x="476" 
d="M142 836l32 17l78 -106l-14 -8z" />
    <glyph glyph-name="Hungarumlaut" unicode="&#xf6cf;" horiz-adv-x="476" 
d="M263 836l-96 -96l-11 6l78 107zM403 836l-96 -96l-11 6l78 107z" />
    <glyph glyph-name="Macron" unicode="&#xf6d0;" horiz-adv-x="476" 
d="M121 803h235v-25h-235v25z" />
    <glyph glyph-name="one.fitted" horiz-adv-x="556" 
d="M281 26v616l-125 -73l-13 23l127 75h39v-641h124v-26h-289v26h137z" />
    <glyph glyph-name="two.fitted" horiz-adv-x="556" 
d="M93 0v36l252 277q91 101 91 182q0 67 -45.5 111t-113.5 44q-116 0 -157 -123l-26 8q20 68 69 104.5t120 36.5q77 0 129 -51.5t52 -128.5q0 -91 -105 -206l-239 -264h362v-26h-389z" />
    <glyph glyph-name="three.fitted" horiz-adv-x="556" 
d="M254 363h32q56 0 93.5 41t37.5 103q0 63 -42 103t-109 40q-79 0 -132 -65l-22 13q59 78 155 78q79 0 128 -46.5t49 -121.5q0 -105 -91 -155q107 -54 107 -172q0 -85 -52.5 -137.5t-138.5 -52.5q-70 0 -120 34t-70 96l27 7q23 -58 61 -84t100 -26q75 0 120 44t45 117
q0 71 -41 115t-106 44h-31v25z" />
    <glyph glyph-name="four.fitted" horiz-adv-x="556" 
d="M365 655l-278 -472h287v188h28v-188h87v-26h-87v-157h-28v157h-315v31l283 482z" />
    <glyph glyph-name="five.fitted" horiz-adv-x="556" 
d="M190 641l-48 -245q55 28 111 28q91 0 152 -61t61 -153q0 -95 -59.5 -157t-150.5 -62q-122 0 -188 95l22 16q56 -84 165 -84q86 0 132 52q51 54 51 137q0 81 -54 136t-134 55q-68 0 -120 -45l-24 6l61 308h264v-26h-241z" />
    <glyph glyph-name="six.fitted" horiz-adv-x="556" 
d="M331 668l22 -17l-184 -264q48 26 107 26q93 0 153.5 -57.5t60.5 -145.5q0 -91 -61.5 -155t-150.5 -64t-151.5 63.5t-62.5 154.5q0 76 49 146zM277 388q-79 0 -132 -52.5t-53 -130.5t54 -133t130 -55q79 0 132.5 55t53.5 136q0 77 -53 128.5t-132 51.5z" />
    <glyph glyph-name="seven.fitted" horiz-adv-x="556" 
d="M466 641h-370v26h397v-32l-331 -636l-25 14z" />
    <glyph glyph-name="eight.fitted" horiz-adv-x="556" 
d="M195 355q-93 53 -93 152q0 73 50 121t126 48q77 0 126.5 -48t49.5 -121q0 -97 -93 -152q116 -62 116 -175q0 -83 -56 -136t-143 -53t-143 53t-56 136q0 113 116 175zM276 338q-73 0 -121 -45.5t-48 -115.5q0 -68 49 -113.5t122 -45.5t122 45.5t49 113.5q0 71 -48.5 116
t-124.5 45zM277 650q-64 0 -106 -41t-42 -104q0 -59 43 -100t106 -41q64 0 106.5 41t42.5 103q0 61 -42.5 101.5t-107.5 40.5z" />
    <glyph glyph-name="nine.fitted" horiz-adv-x="556" 
d="M225 -1l-21 17l183 263q-46 -23 -106 -23q-94 0 -154 57t-60 145q0 91 62 154.5t150 63.5q91 0 152.5 -62.5t61.5 -155.5q0 -76 -50 -147zM281 650q-79 0 -132.5 -55t-53.5 -136q0 -78 52 -128t133 -50q79 0 132 52.5t53 129.5q0 79 -53.5 133t-130.5 54z" />
    <glyph glyph-name="zero.fitted" horiz-adv-x="556" 
d="M275 676q122 0 179.5 -83.5t57.5 -258.5q0 -174 -57.5 -258.5t-175.5 -84.5q-120 0 -177 84.5t-57 262.5q0 338 230 338zM279 649q-206 0 -206 -319q0 -152 53 -232t153 -80q101 0 153 80.5t52 235.5q0 154 -52.5 234.5t-152.5 80.5z" />
    <glyph glyph-name="sterling.fitted" horiz-adv-x="556" 
d="M185 319l5 -28q16 -78 16 -104q0 -46 -21 -84t-70 -78h379v-25h-407v36q52 43 72 74.5t20 71.5q0 33 -17 116l-5 21h-70v25h65l-8 38q-9 40 -9 92q0 74 27 121q22 37 65 59t92 22q91 0 145 -79l-22 -15q-51 68 -125 68q-73 0 -114 -47t-41 -131q0 -38 12 -100l6 -28h213
v-25h-208z" />
    <glyph glyph-name="dollar.fitted" horiz-adv-x="556" 
d="M269 675v92h28v-92q85 -6 136 -78l-22 -15q-55 68 -132 68q-65 0 -109 -40.5t-44 -100.5q0 -88 118 -134l69 -27q76 -30 111.5 -70.5t35.5 -97.5q0 -70 -46 -122.5t-117 -63.5v-97h-28v94h-3h-3q-65 -1 -116.5 38t-68.5 102l27 7q42 -120 161 -120q69 0 117.5 47
t48.5 114q0 51 -31 84.5t-107 63.5l-66 26q-129 51 -129 156q0 69 47 115.5t123 50.5z" />
    <glyph glyph-name="cent.fitted" horiz-adv-x="556" 
d="M289 0v104q-88 7 -146 72t-58 158q0 92 56.5 156t147.5 73v104h27v-103q80 -3 140 -60l-18 -19q-56 53 -130 53q-86 0 -140 -57t-54 -147q0 -91 54.5 -148t140.5 -57q80 0 133 56l18 -19q-57 -60 -144 -63v-103h-27z" />
    <glyph glyph-name="florin.fitted" horiz-adv-x="556" 
d="M76 -193l5 27q5 -1 11 -1q72 0 91 92l100 493h-48l5 25h48l21 101q25 128 120 128q9 0 17 -1l-6 -26h-10q-73 0 -91 -92l-23 -110h84l-5 -25h-84l-98 -484q-27 -128 -121 -128q-8 0 -16 1z" />
    <glyph glyph-name="Euro.fitted" horiz-adv-x="556" 
d="M522 392h-437q-5 -33 -5 -60q0 -26 5 -57h391l-10 -25h-376q26 -102 108.5 -167t186.5 -65q53 0 96 15.5t95 54.5v-33q-84 -64 -188 -64q-118 0 -208.5 71.5t-118.5 187.5h-88l10 25h73q-5 26 -5 58t5 59h-83l10 25h78q29 116 119.5 187.5t207.5 71.5q120 0 212 -86
l-10 -26q-94 85 -206 85q-104 0 -186.5 -64.5t-107.5 -167.5h442z" />
    <glyph glyph-name="yen.fitted" horiz-adv-x="556" 
d="M264 250h-173v25h173v6l-61 111h-112v25h98l-137 250h31l195 -360l195 360h30l-137 -250h98v-25h-111l-61 -111v-6h172v-25h-172v-250h-28v250z" />
    <glyph glyph-name="one.numerator" 
d="M223 271h-29v365l-71 -39l-14 23l83 47h31v-396z" />
    <glyph glyph-name="two.numerator" 
d="M72 271v29l152 161q53 56 53 100q0 36 -25.5 60t-63.5 24q-66 0 -90 -72l-27 7q7 25 14 35q33 57 106 57q49 0 82 -31.5t33 -78.5q0 -54 -64 -122l-134 -142h209v-27h-245z" />
    <glyph glyph-name="three.numerator" 
d="M175 492h25q31 0 52 22t21 55q0 34 -23.5 55t-61.5 21q-45 0 -78 -38l-24 13l5 6q37 46 97 46q50 0 81.5 -28.5t31.5 -73.5q0 -58 -48 -89q57 -32 57 -99q0 -51 -33.5 -83t-87.5 -32q-94 0 -121 85l27 7q11 -23 12 -25q24 -40 81 -40q43 0 68 23.5t25 63.5
q0 38 -22.5 61.5t-59.5 23.5h-24v26z" />
    <glyph glyph-name="four.numerator" 
d="M253 656l-164 -268h155v108h29v-108h52v-27h-52v-90h-29v90h-189v26l174 283z" />
    <glyph glyph-name="five.numerator" 
d="M146 640l-26 -124q31 12 59 12q56 0 94.5 -37t38.5 -92q0 -57 -37.5 -94.5t-94.5 -37.5q-76 0 -121 62l23 16q35 -50 97 -50q47 0 75.5 28.5t28.5 74.5q0 43 -31 73t-76 30q-38 0 -70 -26l-23 5l39 187h169v-27h-145z" />
    <glyph glyph-name="six.numerator" 
d="M223 670l23 -16l-101 -139q22 7 45 7q58 0 96.5 -35t38.5 -88q0 -55 -39 -93.5t-94 -38.5q-56 0 -95 38.5t-39 93.5q0 46 31 87zM191 495q-44 0 -74 -28.5t-30 -70.5t30.5 -72t73.5 -30q44 0 74.5 30t30.5 74q0 41 -30 69t-75 28z" />
    <glyph glyph-name="seven.numerator" 
d="M297 640h-218v27h250v-26l-202 -372l-26 14z" />
    <glyph glyph-name="eight.numerator" 
d="M131 482q-49 31 -49 87q0 44 31.5 73.5t79.5 29.5q49 0 80.5 -29.5t31.5 -73.5q0 -56 -49 -87q63 -36 63 -101q0 -50 -35.5 -82t-90.5 -32t-90 32.5t-35 82.5q0 64 63 100zM192 466q-41 0 -68 -24.5t-27 -62.5q0 -37 27.5 -61t68.5 -24q42 0 69.5 24t27.5 61
q0 38 -27.5 62.5t-70.5 24.5zM193 645q-36 0 -59.5 -21.5t-23.5 -55.5q0 -32 24 -53.5t59 -21.5q36 0 60 22t24 54q0 33 -24 54.5t-60 21.5z" />
    <glyph glyph-name="nine.numerator" 
d="M163 268l-22 17l101 140q-23 -7 -46 -7q-59 0 -97 34.5t-38 87.5q0 55 38.5 93.5t94.5 38.5q57 0 95.5 -37.5t38.5 -93.5q0 -45 -30 -88zM195 645q-45 0 -75 -30t-30 -74q0 -42 29.5 -69t75.5 -27q44 0 74 28.5t30 70.5t-30.5 71.5t-73.5 29.5z" />
    <glyph glyph-name="zero.numerator" 
d="M191 672q76 0 112 -49.5t36 -152.5q0 -203 -146 -203q-74 0 -110 50t-36 155q0 200 144 200zM193 645q-117 0 -117 -178q0 -84 30 -128.5t87 -44.5q117 0 117 176q0 175 -117 175z" />
    <glyph glyph-name="one.denominator" 
d="M223 0h-29v365l-71 -40l-14 24l83 46h31v-395z" />
    <glyph glyph-name="two.denominator" 
d="M77 0v29l152 161q53 54 53 100q0 36 -25.5 60t-63.5 24q-57 0 -81 -49q-5 -10 -9 -23l-27 7q7 23 14 35q33 57 106 57q49 0 82 -31.5t33 -78.5q0 -55 -64 -122l-134 -142h209v-27h-245z" />
    <glyph glyph-name="three.denominator" 
d="M173 221h25q31 0 52 22t21 55q0 34 -23.5 55t-61.5 21q-46 0 -78 -39l-24 14l5 5q37 47 97 47q50 0 81.5 -28.5t31.5 -73.5q0 -57 -48 -90q57 -30 57 -98q0 -52 -33.5 -83.5t-87.5 -31.5q-93 0 -121 84l27 8q9 -20 12 -25q24 -40 81 -40q43 0 68 23.5t25 62.5
q0 38 -22.5 62t-59.5 24h-24v26z" />
    <glyph glyph-name="four.denominator" 
d="M251 384l-164 -267h155v108h29v-108h52v-27h-52v-90h-29v90h-189v26l174 283z" />
    <glyph glyph-name="five.denominator" 
d="M146 369l-26 -124q29 12 59 12q56 0 94.5 -37t38.5 -92q0 -57 -37.5 -94.5t-94.5 -37.5q-78 0 -121 62l23 16q36 -50 97 -50q47 0 75.5 28.5t28.5 74.5q0 43 -31 73t-76 30q-39 0 -70 -26l-23 5l39 187h169v-27h-145z" />
    <glyph glyph-name="six.denominator" 
d="M223 399l23 -17l-101 -138q23 6 45 6q58 0 96.5 -34.5t38.5 -87.5q0 -55 -39 -93.5t-94 -38.5q-56 0 -95 38.5t-39 93.5q0 44 31 87zM191 223q-44 0 -74 -28.5t-30 -69.5q0 -43 30.5 -72.5t73.5 -29.5q44 0 74.5 30t30.5 73q0 41 -30 69t-75 28z" />
    <glyph glyph-name="seven.denominator" 
d="M297 369h-218v27h250v-26l-202 -372l-26 13z" />
    <glyph glyph-name="eight.denominator" 
d="M131 211q-49 31 -49 87q0 44 31.5 73.5t79.5 29.5q49 0 80.5 -29.5t31.5 -73.5q0 -56 -49 -87q63 -35 63 -101q0 -50 -35.5 -82t-90.5 -32t-90 32t-35 82q0 66 63 101zM192 194q-41 0 -68 -24.5t-27 -61.5t27.5 -61t68.5 -24q42 0 69.5 24t27.5 61q0 38 -27 62t-71 24z
M193 374q-36 0 -59.5 -22t-23.5 -55q0 -32 24 -54t59 -22q36 0 60 22t24 55t-23.5 54.5t-60.5 21.5z" />
    <glyph glyph-name="nine.denominator" 
d="M163 -2l-22 16l101 140q-24 -6 -46 -6q-59 0 -97 34.5t-38 87.5q0 55 38.5 93t94.5 38q57 0 95.5 -37.5t38.5 -93.5q0 -45 -30 -88zM195 374q-45 0 -75 -29.5t-30 -73.5q0 -42 29.5 -69t75.5 -27q44 0 74 28.5t30 69.5q0 42 -30.5 71.5t-73.5 29.5z" />
    <glyph glyph-name="zero.denominator" 
d="M191 401q76 0 112 -49.5t36 -152.5q0 -203 -146 -203q-74 0 -110 50t-36 155q0 200 144 200zM193 374q-117 0 -117 -178q0 -84 30 -128.5t87 -44.5q117 0 117 176q0 175 -117 175z" />
    <glyph glyph-name="onefifth" horiz-adv-x="833" 
d="M552 668l18 -10l-381 -659l-17 10zM567 369l-26 -124q29 12 59 12q57 0 95 -37t38 -92q0 -57 -37.5 -94.5t-94.5 -37.5q-76 0 -121 62l23 16q36 -50 97 -50q47 0 75.5 28t28.5 75q0 43 -31 73t-76 30q-39 0 -69 -26l-24 5l39 187h169v-27h-145zM185 271h-29v365l-71 -39
l-14 23l83 47h31v-396z" />
    <glyph glyph-name="twofifth" horiz-adv-x="833" 
d="M605 665l17 -10l-381 -659l-17 10zM568 369l-25 -124q29 12 58 12q57 0 95.5 -37t38.5 -92q0 -57 -37.5 -94.5t-94.5 -37.5q-78 0 -121 62l23 16q35 -50 97 -50q47 0 75.5 28.5t28.5 74.5q0 43 -31 73t-76 30q-39 0 -70 -26l-23 5l39 187h169v-27h-146zM63 271v29
l152 161q53 56 53 100q0 36 -25.5 60t-63.5 24q-66 0 -90 -72l-27 7q7 25 14 35q33 57 106 57q49 0 82 -31.5t33 -78.5q0 -54 -64 -122l-134 -142h209v-27h-245z" />
    <glyph glyph-name="threefifth" horiz-adv-x="833" 
d="M582 668l18 -10l-381 -659l-18 10zM566 369l-26 -124q31 12 59 12q57 0 95.5 -37t38.5 -92q0 -57 -37.5 -94.5t-95.5 -37.5q-76 0 -121 62l24 16q35 -50 97 -50q47 0 75.5 28.5t28.5 74.5q0 43 -31 73t-76 30q-40 0 -70 -26l-24 5l39 187h170v-27h-146zM169 492h25
q31 0 52 22t21 55q0 34 -23.5 55t-61.5 21q-45 0 -78 -38l-24 13l5 6q37 46 97 46q50 0 81.5 -28.5t31.5 -73.5q0 -58 -48 -89q57 -32 57 -99q0 -51 -33.5 -83t-87.5 -32q-94 0 -121 85l27 7q11 -23 12 -25q24 -40 81 -40q43 0 68 23.5t25 63.5q0 38 -22.5 61.5t-59.5 23.5
h-24v26z" />
    <glyph glyph-name="fourfifth" horiz-adv-x="833" 
d="M601 668l17 -10l-380 -659l-18 10zM570 369l-25 -124q29 12 58 12q57 0 95.5 -37t38.5 -92q0 -57 -37.5 -94.5t-94.5 -37.5q-78 0 -121 62l23 16q35 -50 97 -50q47 0 75.5 28.5t28.5 74.5q0 43 -31 73t-76 30q-39 0 -70 -26l-23 5l39 187h169v-27h-146zM261 656
l-164 -268h155v108h29v-108h52v-27h-52v-90h-29v90h-189v26l174 283z" />
    <glyph glyph-name="onesixth" horiz-adv-x="833" 
d="M566 668l17 -10l-381 -659l-17 10zM630 399l22 -17l-100 -138q23 6 45 6q58 0 96.5 -34.5t38.5 -87.5q0 -55 -39 -93.5t-94 -38.5q-56 0 -95 38.5t-39 93.5q0 45 30 87zM598 223q-44 0 -74 -28.5t-30 -69.5q0 -43 30.5 -72.5t73.5 -29.5q44 0 74.5 30t30.5 73
q0 41 -30 69t-75 28zM185 271h-29v365l-71 -39l-14 23l83 47h31v-396z" />
    <glyph glyph-name="fivesixth" horiz-adv-x="833" 
d="M606 668l17 -10l-381 -659l-17 10zM630 399l23 -17l-101 -138q23 6 45 6q58 0 96.5 -34.5t38.5 -87.5q0 -55 -39 -93.5t-94 -38.5q-56 0 -95 38.5t-39 93.5q0 44 31 87zM598 223q-44 0 -74 -28.5t-30 -69.5q0 -43 30.5 -72.5t73.5 -29.5q44 0 74.5 30t30.5 73
q0 41 -30 69t-75 28zM150 640l-26 -124q31 12 59 12q56 0 94.5 -37t38.5 -92q0 -57 -37.5 -94.5t-94.5 -37.5q-76 0 -121 62l23 16q35 -50 97 -50q47 0 75.5 28.5t28.5 74.5q0 43 -31 73t-76 30q-38 0 -70 -26l-23 5l39 187h169v-27h-145z" />
    <glyph glyph-name="Dotaccent" horiz-adv-x="476" 
d="M238 816q10 0 17.5 -7.5t7.5 -17.5q0 -11 -7.5 -18.5t-17.5 -7.5t-17.5 8t-7.5 18t7.5 17.5t17.5 7.5z" />
    <glyph glyph-name="Ring" horiz-adv-x="476" 
d="M238 859q30 0 50.5 -19.5t20.5 -48.5t-20.5 -49t-49.5 -20q-30 0 -50.5 20t-20.5 49q0 28 20.5 48t49.5 20zM239 842q-22 0 -37 -15t-15 -37q0 -21 15 -36t37 -15q21 0 36 15t15 36q0 22 -15 37t-36 15z" />
    <glyph glyph-name="Circumflex" horiz-adv-x="476" 
d="M238 828l-96 -90l-16 8l92 101h40l92 -101l-17 -8z" />
    <glyph glyph-name="Breve" horiz-adv-x="476" 
d="M127 829l23 2q6 -33 30 -53.5t57 -20.5t57 20t31 54l23 -2q-11 -45 -39.5 -70t-71.5 -25q-44 0 -73.5 25.5t-36.5 69.5z" />
    <glyph glyph-name="Tilde" horiz-adv-x="476" 
d="M333 817l20 -5q-12 -50 -57 -50q-22 0 -60 17t-51 17q-31 0 -41 -32l-20 5q14 51 57 51q18 0 62 -19q30 -15 50 -15q30 0 40 31z" />
    <glyph glyph-name="Cedilla" horiz-adv-x="476" 
d="M290 -83l-75 -96l-16 8l64 100z" />
    <glyph glyph-name="Ogonek" horiz-adv-x="476" 
d="M380 0h27q-33 -39 -33 -67q0 -19 13 -30t35 -11q13 0 27 5l8 -20q-25 -7 -39 -7q-30 0 -49.5 17t-19.5 43q0 32 31 70z" />
    <glyph glyph-name="Commaaccent" horiz-adv-x="476" 
d="M224 -71l29 -9l-50 -116l-15 4z" />
    <glyph glyph-name="Comma.high" horiz-adv-x="476" 
d="M345 854l29 -9l-50 -116l-15 4z" />
    <glyph glyph-name="Dieresis.alt" horiz-adv-x="476" 
d="M302 816q10 0 17.5 -7.5t7.5 -17.5q0 -11 -7.5 -18.5t-17.5 -7.5t-17.5 8t-7.5 18t7.5 17.5t17.5 7.5zM168 816q10 0 17.5 -7.5t7.5 -17.5q0 -11 -7.5 -18.5t-17.5 -7.5t-17.5 8t-7.5 18t7.5 17.5t17.5 7.5z" />
    <glyph glyph-name="comma.high" horiz-adv-x="476" 
d="M345 655l29 -9l-50 -117l-15 5z" />
    <glyph glyph-name="dieresis.alt" horiz-adv-x="476" 
d="M168 613q10 0 17.5 -7.5t7.5 -17.5q0 -11 -7.5 -18.5t-17.5 -7.5t-17.5 8t-7.5 18t7.5 17.5t17.5 7.5zM302 613q10 0 17.5 -7.5t7.5 -17.5q0 -11 -7.5 -18.5t-17.5 -7.5t-17.5 8t-7.5 18t7.5 17.5t17.5 7.5z" />
    <glyph glyph-name="commareversed" horiz-adv-x="476" 
d="M339 529l-30 9l50 117l15 -5z" />
    <glyph glyph-name="G.salt" horiz-adv-x="729" 
d="M621 295h-181v26h209v-198q-103 -132 -265 -132q-136 0 -234 100t-98 240q0 145 97.5 245t238.5 100q123 0 216 -90l-19 -20q-83 83 -198 83q-130 0 -218 -91.5t-88 -225.5q0 -131 89 -222.5t216 -91.5q136 0 235 112v165z" />
    <glyph glyph-name="M.salt" horiz-adv-x="848" 
d="M143 667h35l246 -475l246 475h36l65 -667h-29l-59 639l-243 -472h-31l-244 472l-60 -639h-28z" />
    <glyph glyph-name="y.salt" horiz-adv-x="421" 
d="M194 7l-183 436h30l167 -404l173 404h30l-258 -597q-21 -48 -41 -68t-46 -20q-7 0 -14 1l4 25h3h3q38 1 68 73z" />
    <glyph glyph-name="parenleft.salt" horiz-adv-x="268" 
d="M170 778l25 -11q-74 -191 -74 -433q0 -243 74 -434l-25 -11q-33 73 -55 199t-22 245q0 121 21.5 246.5t55.5 198.5z" />
    <glyph glyph-name="parenright.salt" horiz-adv-x="268" 
d="M73 767l24 11q34 -74 56 -199t22 -246q0 -120 -22 -245.5t-56 -199.5l-24 11q74 194 74 434q0 241 -74 434z" />
    <glyph glyph-name="bracketleft.salt" horiz-adv-x="272" 
d="M118 751v-835h101v-26h-129v887h129v-26h-101z" />
    <glyph glyph-name="bracketright.salt" horiz-adv-x="272" 
d="M154 751h-101v26h129v-887h-129v26h101v835z" />
    <glyph glyph-name="afii61248.salt" horiz-adv-x="773" 
d="M318 602l-20 -19q-36 32 -78 32q-49 0 -80 -31t-31 -80t31 -80.5t80 -31.5q48 0 80 35l20 -20q-43 -42 -100 -42q-59 0 -99.5 40t-40.5 99q0 58 40.5 98t99.5 40q29 0 49.5 -8.5t48.5 -31.5zM556 266q57 0 97 -40t40 -98t-40.5 -98.5t-98.5 -40.5q-59 0 -99 40.5
t-40 99.5q0 58 40.5 97.5t100.5 39.5zM552 239q-47 0 -77.5 -31.5t-30.5 -79.5q0 -49 31 -80.5t79 -31.5q49 0 79.5 31.5t30.5 81.5q0 49 -31 79.5t-81 30.5zM559 668l20 -12l-375 -657l-20 13z" />
    <glyph glyph-name="braceleft.salt" horiz-adv-x="278" 
d="M61 322v23q34 15 48 42.5t14 77.5v182q-2 72 24.5 101.5t90.5 28.5v-24q-51 -2 -69.5 -22.5t-17.5 -76.5v-189q1 -95 -63 -132q64 -37 63 -131v-190q-1 -56 17.5 -77t69.5 -22v-24q-65 -1 -90.5 28.5t-24.5 101.5v183q0 50 -14 77.5t-48 42.5z" />
    <glyph glyph-name="braceright.salt" horiz-adv-x="278" 
d="M218 345v-23q-34 -15 -48 -42.5t-14 -77.5v-183q1 -72 -25 -101.5t-90 -28.5v24q51 1 69 22t18 77v190q-3 93 63 131q-66 38 -63 132v189q0 56 -18 77t-69 22v24q64 1 90 -28.5t25 -101.5v-182q0 -50 14 -77.5t48 -42.5z" />
    <glyph glyph-name="copyright.salt" horiz-adv-x="485" 
d="M341 639l-15 -15q-29 29 -65 29q-40 0 -67 -27.5t-27 -68.5t27 -68.5t67 -27.5q36 0 66 29l15 -14q-35 -36 -80 -36q-49 0 -82.5 34t-33.5 83t33.5 83t81.5 34q44 0 80 -35zM256 757q84 0 143 -59t59 -142q0 -84 -59 -143t-142 -59q-85 0 -143.5 59t-58.5 145
q0 81 59.5 140t141.5 59zM257 737q-76 0 -129 -53.5t-53 -130.5q0 -73 54 -126t128 -53q75 0 128 53t53 129q0 75 -53 128t-128 53z" />
    <glyph glyph-name="registered.salt" horiz-adv-x="485" 
d="M289 541l55 -100h-24l-52 95q-4 0 -7 -1h-9l-9 -1h-26v-93h-21v232h47q85 0 85 -70q0 -43 -39 -62zM217 554h30q60 0 60 46q0 53 -61 53h-29v-99zM256 757q84 0 143 -59t59 -142t-59 -142.5t-142 -59.5q-85 0 -143.5 59t-58.5 145q0 81 59.5 140t141.5 59zM257 737
q-76 0 -129 -53.5t-53 -130.5q0 -73 54 -126t128 -53q75 0 128 53t53 129q0 75 -53 128t-128 53z" />
    </font>
</defs>
</svg>
