<?xml version="1.0" standalone="no"?>
<!DOCTYPE svg PUBLIC "-//W3C//DTD SVG 1.1//EN" "http://www.w3.org/Graphics/SVG/1.1/DTD/svg11.dtd" >
<svg xmlns="http://www.w3.org/2000/svg" xmlns:xlink="http://www.w3.org/1999/xlink" version="1.1">
<metadata>
Created by FontForge 20170731 at Thu Sep 10 14:38:08 2015
 By ,,,
Copyright 2014 by (URW)++ Design &#38; Development GmbH
</metadata>
<defs>
<font id="URWGeometric-SemiBold" horiz-adv-x="387" >
  <font-face 
    font-family="URW Geometric Semi Bold"
    font-weight="600"
    font-stretch="normal"
    units-per-em="1000"
    panose-1="0 0 7 0 0 0 0 0 0 0"
    ascent="667"
    descent="-333"
    x-height="443"
    cap-height="667"
    bbox="-130 -261 1222 1077"
    underline-thickness="91"
    underline-position="-278"
    unicode-range="U+0020-FB04"
  />
<missing-glyph horiz-adv-x="237" 
 />
    <glyph glyph-name="afii61352" unicode="Nr&#x2e;" horiz-adv-x="1060" 
d="M732 274v71h256v-71h-256zM73 0v667h92l366 -491v491h104v-667h-92l-366 491v-491h-104zM863 681q59 0 100.5 -41.5t41.5 -100.5q0 -60 -42 -101t-103 -41t-102.5 41t-41.5 102q0 60 42.5 100.5t104.5 40.5zM860 615q-31 0 -51.5 -21.5t-20.5 -54.5q0 -34 20.5 -55
t52.5 -21t52 21.5t20 55.5q0 33 -20.5 54t-52.5 21z" />
    <glyph glyph-name="ff" unicode="ff" horiz-adv-x="508" 
d="M245 353h-77v-353h-100v353h-43v90h43v74q0 71 30.5 109.5t87.5 38.5q27 0 58 -8v-90q-25 7 -39 7q-37 0 -37 -57v-74h77v-90zM496 353h-78v-353h-100v353h-43v90h43v84q0 71 30.5 109.5t87.5 38.5q27 0 58 -8v-90q-24 7 -39 7q-37 0 -37 -57v-84h78v-90z" />
    <glyph glyph-name="fi" unicode="fi" horiz-adv-x="464" 
d="M245 353h-77v-353h-100v353h-43v90h43v84q0 71 30.5 109.5t87.5 38.5q27 0 58 -8v-90q-24 7 -39 7q-37 0 -37 -57v-84h77v-90zM407 443v-443h-100v443h100zM357 657q27 0 46 -18.5t19 -45.5q0 -26 -19 -45t-45 -19q-28 0 -46.5 19t-18.5 46q0 26 19 44.5t45 18.5z" />
    <glyph glyph-name="fl" unicode="fl" horiz-adv-x="465" 
d="M245 353h-77v-353h-100v353h-43v90h43v84q0 71 30.5 109.5t87.5 38.5q27 0 58 -8v-90q-24 7 -39 7q-37 0 -37 -57v-84h77v-90zM408 0h-100v667h100v-667z" />
    <glyph glyph-name="ffi" unicode="ffi" horiz-adv-x="713" 
d="M245 353h-77v-353h-100v353h-43v90h43v74q0 71 30.5 109.5t87.5 38.5q27 0 58 -8v-90q-25 7 -39 7q-37 0 -37 -57v-74h77v-90zM496 353h-78v-353h-100v353h-43v90h43v84q0 71 30.5 109.5t87.5 38.5q27 0 58 -8v-90q-24 7 -39 7q-37 0 -37 -57v-84h78v-90zM656 443v-443
h-100v443h100zM606 657q27 0 46 -18.5t19 -45.5q0 -26 -19 -45t-45 -19q-28 0 -46.5 19t-18.5 46q0 26 19 44.5t45 18.5z" />
    <glyph glyph-name="ffl" unicode="ffl" horiz-adv-x="714" 
d="M245 353h-77v-353h-100v353h-43v90h43v74q0 71 30.5 109.5t87.5 38.5q27 0 58 -8v-90q-25 7 -39 7q-37 0 -37 -57v-74h77v-90zM496 353h-78v-353h-100v353h-43v90h43v84q0 71 30.5 109.5t87.5 38.5q27 0 58 -8v-90q-24 7 -39 7q-37 0 -37 -57v-84h78v-90zM657 0h-100v667
h100v-667z" />
    <glyph glyph-name=".notdef" horiz-adv-x="237" 
 />
    <glyph glyph-name=".null" horiz-adv-x="0" 
 />
    <glyph glyph-name="nonmarkingreturn" horiz-adv-x="333" 
 />
    <glyph glyph-name="space" unicode=" " horiz-adv-x="237" 
 />
    <glyph glyph-name="exclam" unicode="!" horiz-adv-x="295" 
d="M147 114q27 0 45.5 -18.5t18.5 -44.5t-19 -44.5t-46 -18.5q-26 0 -44.5 18.5t-18.5 45.5q0 25 19 43.5t45 18.5zM100 164l-9 503h112l-9 -503h-94z" />
    <glyph glyph-name="quotedbl" unicode="&#x22;" horiz-adv-x="323" 
d="M127 397h-77l-13 283h103zM274 397h-78l-12 283h103z" />
    <glyph glyph-name="numbersign" unicode="#" horiz-adv-x="588" 
d="M116 188h-73l16 79h73l27 131h-73l16 79h73l41 203l82 -19l-37 -184h125l41 203l83 -18l-38 -185h73l-16 -79h-73l-27 -131h73l-16 -79h-73l-41 -203l-83 19l38 184h-125l-41 -203l-83 19zM343 267l27 131h-125l-27 -131h125z" />
    <glyph glyph-name="dollar" unicode="$" horiz-adv-x="577" 
d="M243 -103v93q-151 25 -183 188l101 27q13 -48 22 -65q33 -56 97 -56q48 0 81.5 32.5t33.5 78.5q0 33 -23 55t-79 44l-61 23q-144 56 -144 175q0 68 42 117.5t113 65.5v92h102v-92q46 -10 80 -37.5t65 -78.5l-84 -53q-28 44 -53 61t-61 17q-43 0 -72 -26.5t-29 -66.5
q0 -54 85 -86l63 -24q161 -62 161 -185q0 -70 -42.5 -124.5t-112.5 -75.5v-99h-102z" />
    <glyph glyph-name="percent" unicode="%" horiz-adv-x="898" 
d="M694 403q160 0 160 -206q0 -205 -160 -205q-157 0 -157 208q0 99 40 151t117 52zM695 336q-83 0 -83 -135q0 -142 83 -142q84 0 84 138q0 139 -84 139zM612 681l56 -33l-383 -662l-56 32zM200 675q161 0 161 -206q0 -205 -160 -205q-158 0 -158 208q0 99 40 151t117 52z
M202 607q-84 0 -84 -134q0 -141 84 -141t84 138q0 137 -84 137z" />
    <glyph glyph-name="ampersand" unicode="&#x26;" horiz-adv-x="654" 
d="M327 370l136 -162q15 29 40 96l93 -25l-5 -16q-25 -78 -59 -136l107 -127h-123l-45 54q-81 -68 -182 -68q-97 0 -161.5 56t-64.5 139q0 56 31 101t106 98l-1 2q-69 79 -69 147q0 65 44.5 108.5t111.5 43.5q65 0 109 -42.5t44 -104.5q0 -45 -24 -80.5t-88 -83.5zM273 434
q47 39 61.5 58.5t14.5 44.5q0 27 -18 44.5t-46 17.5t-46.5 -19t-18.5 -48q0 -33 53 -98zM408 130l-154 185q-50 -40 -70.5 -69t-20.5 -61q0 -46 36 -76.5t90 -30.5q67 0 119 52z" />
    <glyph glyph-name="quotesingle" unicode="'" horiz-adv-x="177" 
d="M127 397h-77l-13 283h103z" />
    <glyph glyph-name="parenleft" unicode="(" horiz-adv-x="311" 
d="M166 742l89 -42q-77 -195 -77 -424q0 -231 77 -424l-89 -42q-17 38 -23 52q-29 71 -47.5 188.5t-18.5 228.5q0 274 89 463z" />
    <glyph glyph-name="parenright" unicode=")" horiz-adv-x="311" 
d="M146 -190l-89 42q77 195 77 424q0 228 -77 424l89 42q89 -187 89 -463q0 -110 -18.5 -227.5t-47.5 -189.5q-8 -21 -23 -52z" />
    <glyph glyph-name="asterisk" unicode="*" horiz-adv-x="484" 
d="M89 666l111 -42l-5 119h94l-5 -118l111 41l29 -89l-114 -32l73 -93l-75 -55l-66 99l-66 -99l-75 55l73 93l-114 32z" />
    <glyph glyph-name="plus" unicode="+" horiz-adv-x="556" 
d="M232 357v200h92v-200h198v-44v-45h-198v-200h-92v200h-199v45v44h199z" />
    <glyph glyph-name="comma" unicode="," horiz-adv-x="248" 
d="M109 115l91 -34l-111 -250l-72 29z" />
    <glyph glyph-name="hyphen" unicode="-" horiz-adv-x="268" 
d="M30 276h208v-91h-208v91z" />
    <glyph glyph-name="period" unicode="." horiz-adv-x="243" 
d="M121 114q27 0 45.5 -18.5t18.5 -44.5t-19 -44.5t-45 -18.5q-27 0 -45.5 18.5t-18.5 45.5q0 25 19 43.5t45 18.5z" />
    <glyph glyph-name="slash" unicode="/" horiz-adv-x="552" 
d="M425 682l78 -47l-377 -650l-78 47z" />
    <glyph glyph-name="zero" unicode="0" horiz-adv-x="576" 
d="M285 681q257 0 257 -348q0 -347 -254 -347q-129 0 -192 87t-63 265q0 148 50 236q62 107 202 107zM287 584q-60 0 -96 -41q-23 -25 -37.5 -81.5t-14.5 -121.5q0 -257 149 -257q148 0 148 254q0 162 -61 215q-34 32 -88 32z" />
    <glyph glyph-name="one" unicode="1" horiz-adv-x="316" 
d="M243 0h-103v545l-91 -53l-49 85l158 90h85v-667z" />
    <glyph glyph-name="two" unicode="2" horiz-adv-x="489" 
d="M43 0v85l240 267q69 78 69 142q0 41 -27.5 65.5t-74.5 24.5q-57 0 -83 -32q-19 -23 -34 -75l-95 26q41 178 215 178q90 0 145.5 -52.5t55.5 -137.5q0 -95 -69 -172l-199 -223h283v-96h-426z" />
    <glyph glyph-name="three" unicode="3" horiz-adv-x="481" 
d="M9 169l101 27q16 -62 41.5 -87.5t74.5 -25.5q52 0 85 31.5t33 81.5q0 51 -31 78t-90 27h-44v95h44q52 0 80 24.5t28 69.5q0 42 -27.5 68t-73.5 26q-36 0 -60.5 -16t-51.5 -57l-86 47q37 64 84.5 93.5t113.5 29.5q89 0 146 -53.5t57 -135.5q0 -81 -63 -137q78 -64 78 -159
q0 -92 -63 -151t-160 -59q-99 0 -161 67q-36 38 -54 111z" />
    <glyph glyph-name="four" unicode="4" horiz-adv-x="519" 
d="M390 632l-248 -395h167v158h103v-158h79v-95h-79v-142h-103v142h-286v92l283 450z" />
    <glyph glyph-name="five" unicode="5" horiz-adv-x="530" 
d="M457 572h-227l-26 -129q19 8 51 8q99 0 166.5 -66t67.5 -163q0 -100 -69.5 -168t-170.5 -68q-70 0 -121.5 32t-94.5 102l82 57q25 -41 38 -55q36 -39 97 -39q58 0 96.5 39t38.5 97q0 59 -38 98t-95 39t-96 -43l-80 17l68 337h313v-95z" />
    <glyph glyph-name="six" unicode="6" horiz-adv-x="545" 
d="M392 625l-133 -188q11 3 19 3q95 0 161 -64t66 -156q0 -97 -68 -165.5t-165 -68.5q-98 0 -166.5 68t-68.5 165q0 81 52 154l223 311zM271 346q-56 0 -93.5 -37.5t-37.5 -93.5q0 -57 37.5 -95t93.5 -38t93.5 39.5t37.5 97.5q0 54 -37.5 90.5t-93.5 36.5z" />
    <glyph glyph-name="seven" unicode="7" horiz-adv-x="453" 
d="M35 30l293 542h-318v95h440v-76l-325 -608z" />
    <glyph glyph-name="eight" unicode="8" horiz-adv-x="513" 
d="M120 355q-66 62 -66 137q0 80 58 134.5t144 54.5t144 -54.5t58 -134.5q0 -75 -66 -137q87 -67 87 -162q0 -89 -63.5 -148t-159.5 -59t-159.5 59t-63.5 148q0 95 87 162zM254 304q-52 0 -85 -31.5t-33 -80.5t33.5 -80.5t86.5 -31.5t86.5 31.5t33.5 81.5t-33.5 80.5
t-88.5 30.5zM256 590q-46 0 -76 -28t-30 -71t30 -70.5t77 -27.5q46 0 75.5 28t29.5 71q0 42 -30.5 70t-75.5 28z" />
    <glyph glyph-name="nine" unicode="9" horiz-adv-x="548" 
d="M153 42l135 188q-9 -2 -22 -2q-94 0 -159.5 63.5t-65.5 155.5q0 97 68 165.5t165 68.5q98 0 166.5 -68t68.5 -165q0 -80 -53 -154l-222 -311zM274 585q-56 0 -93 -39.5t-37 -97.5q0 -53 38 -89.5t93 -36.5q56 0 93.5 37t37.5 93q0 57 -38 95t-94 38z" />
    <glyph glyph-name="colon" unicode=":" horiz-adv-x="243" 
d="M121 114q27 0 45.5 -18.5t18.5 -44.5t-19 -44.5t-45 -18.5q-27 0 -45.5 18.5t-18.5 45.5q0 25 19 43.5t45 18.5zM121 428q27 0 45.5 -18.5t18.5 -44.5t-19 -44.5t-46 -18.5q-26 0 -44.5 18.5t-18.5 45.5q0 25 19 43.5t45 18.5z" />
    <glyph glyph-name="semicolon" unicode=";" horiz-adv-x="245" 
d="M109 115l91 -34l-111 -250l-72 29zM140 428q27 0 45.5 -18.5t18.5 -44.5t-19 -44.5t-46 -18.5q-26 0 -44.5 18.5t-18.5 45.5q0 25 19 43.5t45 18.5z" />
    <glyph glyph-name="less" unicode="&#x3c;" horiz-adv-x="569" 
d="M515 594v-105l-334 -152l334 -153v-104l-460 216v82z" />
    <glyph glyph-name="equal" unicode="=" horiz-adv-x="556" 
d="M494 432v-89h-431v89h431zM494 282v-89h-431v89h431z" />
    <glyph glyph-name="greater" unicode="&#x3e;" horiz-adv-x="569" 
d="M55 80v104l334 153l-334 153v104l460 -217v-81z" />
    <glyph glyph-name="question" unicode="?" horiz-adv-x="431" 
d="M159 164v69q1 50 12 73.5t49 56.5l42 35q56 47 56 101q0 39 -25.5 62t-69.5 23q-40 0 -64.5 -17t-55.5 -65l-76 61q64 118 192 118q92 0 147 -50t55 -132q0 -48 -18.5 -84.5t-65.5 -80.5l-47 -44l-15 -14q-9 -9 -11 -17t-3 -34v-61h-102zM210 114q27 0 45.5 -18.5
t18.5 -44.5t-19 -44.5t-46 -18.5q-26 0 -44.5 18.5t-18.5 45.5q0 25 19 43.5t45 18.5z" />
    <glyph glyph-name="at" unicode="@" horiz-adv-x="898" 
d="M634 528l-43 -334h10q71 0 110 47t39 134q0 76 -31 136.5t-87 92.5q-61 35 -148 35q-152 0 -244 -86t-92 -229q0 -129 81 -210q86 -86 253 -86q97 0 222 38l26 -72q-120 -41 -249 -41q-148 0 -243 56q-79 45 -123.5 128t-44.5 186q0 86 31.5 162.5t89.5 128.5
q52 48 128 74t162 26q157 0 252 -92t95 -244q0 -80 -30 -139.5t-86 -90.5q-51 -29 -137 -29h-134q-83 0 -133 50.5t-50 133.5q0 105 70 169q62 56 177 56h129zM511 194l33 259h-48q-74 0 -115.5 -39t-41.5 -109q0 -52 29 -81.5t81 -29.5h62z" />
    <glyph glyph-name="A" unicode="A" horiz-adv-x="631" 
d="M172 172l-63 -172h-109l251 667h128l252 -667h-110l-63 172h-286zM207 268h215l-107 291z" />
    <glyph glyph-name="B" unicode="B" horiz-adv-x="526" 
d="M73 0v667h149q98 0 148 -30q40 -23 63.5 -65t23.5 -89q0 -73 -62 -128q45 -23 70 -66t25 -97q0 -108 -99 -164q-52 -28 -137 -28h-181zM175 386h58q56 0 80 14q45 26 45 81q0 41 -27 68q-26 24 -98 24h-58v-187zM175 95h73q62 0 90 16q49 28 49 85q0 56 -45 83
q-33 18 -103 18h-64v-202z" />
    <glyph glyph-name="C" unicode="C" horiz-adv-x="670" 
d="M640 562l-73 -70q-47 50 -88.5 70.5t-95.5 20.5q-103 0 -173 -72t-70 -178q0 -104 70.5 -176.5t172.5 -72.5q82 0 144 52q17 14 43 41l73 -71q-64 -64 -124 -92t-134 -28q-146 0 -248 101t-102 246t102 246.5t247 101.5q74 0 135 -28t121 -91z" />
    <glyph glyph-name="D" unicode="D" horiz-adv-x="619" 
d="M73 667h148q167 0 264.5 -89.5t97.5 -243.5t-97.5 -244t-264.5 -90h-148v667zM177 571v-475h47q118 0 186.5 64t68.5 174q0 109 -68.5 173t-186.5 64h-47z" />
    <glyph glyph-name="E" unicode="E" horiz-adv-x="481" 
d="M435 571h-258v-185h230v-96h-230v-194h268v-96h-372v667h362v-96z" />
    <glyph glyph-name="F" unicode="F" horiz-adv-x="443" 
d="M413 571h-236v-185h215v-96h-215v-290h-104v667h340v-96z" />
    <glyph glyph-name="G" unicode="G" horiz-adv-x="727" 
d="M392 359h297v-50q0 -146 -83.5 -234.5t-219.5 -88.5q-146 0 -248.5 101t-102.5 246t101.5 246.5t246.5 101.5q120 0 209 -74q12 -9 47 -44l-72 -70q-48 50 -89 70t-95 20q-103 0 -173 -72t-70 -178q0 -105 70.5 -177t173.5 -72q102 0 158 72q30 39 40 107h-190v96z" />
    <glyph glyph-name="H" unicode="H" horiz-adv-x="650" 
d="M73 667h104v-281h296v281h104v-667h-104v290h-296v-290h-104v667z" />
    <glyph glyph-name="I" unicode="I" horiz-adv-x="250" 
d="M177 667v-667h-104v667h104z" />
    <glyph glyph-name="J" unicode="J" horiz-adv-x="416" 
d="M343 667v-462q0 -87 -28 -139q-21 -37 -60.5 -58.5t-86.5 -21.5t-86 19t-85 64l65 75q56 -60 105 -60q72 0 72 121v462h104z" />
    <glyph glyph-name="K" unicode="K" horiz-adv-x="584" 
d="M323 386l259 -386h-122l-207 310l-76 -83v-227h-104v667h104v-300l276 300h129z" />
    <glyph glyph-name="L" unicode="L" horiz-adv-x="432" 
d="M177 667v-571h249v-96h-353v667h104z" />
    <glyph glyph-name="M" unicode="M" horiz-adv-x="804" 
d="M73 0v667h101l228 -406l228 406h101v-667h-104v471l-184 -328h-82l-184 328v-471h-104z" />
    <glyph glyph-name="N" unicode="N" horiz-adv-x="708" 
d="M73 0v667h92l366 -491v491h104v-667h-92l-366 491v-491h-104z" />
    <glyph glyph-name="O" unicode="O" horiz-adv-x="762" 
d="M381 681q142 0 244 -102.5t102 -245.5q0 -142 -102 -244.5t-243 -102.5q-145 0 -246 102.5t-101 249.5q0 139 103 241t243 102zM379 583q-100 0 -169.5 -73.5t-69.5 -180.5q0 -100 71.5 -172.5t169.5 -72.5q99 0 170 73t71 176q0 105 -70.5 177.5t-172.5 72.5z" />
    <glyph glyph-name="P" unicode="P" horiz-adv-x="472" 
d="M73 667h148q91 0 141 -28q45 -25 70.5 -72.5t25.5 -103.5t-26 -103.5t-70 -73.5q-52 -28 -141 -28h-44v-258h-104v667zM177 352h52q72 0 101 32q26 31 26 79q0 66 -47 94q-28 15 -80 15h-52v-220z" />
    <glyph glyph-name="Q" unicode="Q" horiz-adv-x="760" 
d="M623 87l62 -61l-71 -70l-72 71q-79 -41 -162 -41q-141 0 -243 102.5t-102 244.5q0 143 102 245.5t244 102.5t244 -102.5t102 -245.5q0 -142 -104 -246zM466 102l-47 47l71 70l61 -61q71 76 71 174q0 105 -70 178t-171 73q-100 0 -170.5 -73t-70.5 -177
q0 -102 70.5 -175.5t168.5 -73.5q42 0 87 18z" />
    <glyph glyph-name="R" unicode="R" horiz-adv-x="547" 
d="M369 285l160 -285h-117l-144 260q-34 -2 -47 -2h-44v-258h-104v667h148q100 0 154 -31q46 -26 72.5 -73.5t26.5 -102.5q0 -57 -28 -103.5t-77 -71.5zM177 352h52q63 0 95 18q48 27 48 91q0 66 -49 93q-30 18 -94 18h-52v-220z" />
    <glyph glyph-name="S" unicode="S" horiz-adv-x="515" 
d="M463 559l-84 -53q-29 44 -53.5 61t-60.5 17q-43 0 -72 -26.5t-29 -66.5q0 -54 85 -86l63 -25q161 -61 161 -184q0 -88 -64 -149t-157 -61q-108 0 -170 78q-33 42 -49 114l101 27l4 -16q26 -106 115 -106q49 0 82 32.5t33 79.5q0 32 -23 54.5t-79 44.5l-61 23
q-144 56 -144 175q0 81 59 135t148 54q64 0 110 -29t85 -93z" />
    <glyph glyph-name="T" unicode="T" horiz-adv-x="436" 
d="M436 571h-166v-571h-104v571h-166v96h436v-96z" />
    <glyph glyph-name="U" unicode="U" horiz-adv-x="638" 
d="M73 667h104v-411q0 -79 17 -109q17 -28 51.5 -45.5t72.5 -17.5q39 0 73.5 17.5t51.5 45.5q17 30 17 109v411h104v-430q0 -83 -29 -134q-32 -53 -90.5 -85t-125.5 -32q-68 0 -126.5 32t-90.5 85q-29 51 -29 134v430z" />
    <glyph glyph-name="V" unicode="V" horiz-adv-x="565" 
d="M0 667h109l173 -526l174 526h109l-222 -667h-121z" />
    <glyph glyph-name="W" unicode="W" horiz-adv-x="878" 
d="M108 667l141 -493l146 493h88l146 -493l141 493h108l-200 -667h-50h-48l-141 474l-141 -474h-48h-50l-200 667h108z" />
    <glyph glyph-name="X" unicode="X" horiz-adv-x="555" 
d="M536 667l-200 -318l219 -349h-118l-160 257l-161 -257h-116l219 348l-200 319h117l142 -229l143 229h115z" />
    <glyph glyph-name="Y" unicode="Y" horiz-adv-x="529" 
d="M535 667l-219 -390v-277h-104v277l-219 390h115l156 -286l157 286h114z" />
    <glyph glyph-name="Z" unicode="Z" horiz-adv-x="511" 
d="M485 584l-337 -488h345v-96h-476v83l343 489h-314v95h439v-83z" />
    <glyph glyph-name="bracketleft" unicode="[" horiz-adv-x="305" 
d="M178 638v-724h89v-93h-190v910h190v-93h-89z" />
    <glyph glyph-name="backslash" unicode="\" horiz-adv-x="552" 
d="M126 682l377 -650l-78 -47l-377 650z" />
    <glyph glyph-name="bracketright" unicode="]" horiz-adv-x="305" 
d="M127 638h-89v93h190v-910h-190v93h89v724z" />
    <glyph glyph-name="asciicircum" unicode="^" horiz-adv-x="545" 
d="M528 347h-121l-135 229l-134 -229h-120l196 339h118z" />
    <glyph glyph-name="underscore" unicode="_" horiz-adv-x="513" 
d="M-7 -52h527v-91h-527v91z" />
    <glyph glyph-name="grave" unicode="`" horiz-adv-x="476" 
d="M91 644l95 51l115 -158l-66 -38z" />
    <glyph glyph-name="a" unicode="a" horiz-adv-x="545" 
d="M489 0h-100v38q-68 -52 -136 -52q-92 0 -158.5 69.5t-66.5 166.5q0 96 66 165.5t158 69.5q68 0 137 -52v38h100v-443zM259 367q-57 0 -93.5 -40.5t-36.5 -104.5q0 -65 37 -105.5t95 -40.5t94 41t36 106q0 64 -37 104t-95 40z" />
    <glyph glyph-name="b" unicode="b" horiz-adv-x="545" 
d="M56 0v667h100v-262q67 52 137 52q92 0 158 -69.5t66 -165.5q0 -97 -66.5 -166.5t-158.5 -69.5q-68 0 -136 52v-38h-100zM285 366q-58 0 -93.5 -40t-35.5 -104t36 -104.5t94 -40.5t94 41t36 106q0 62 -37 102t-94 40z" />
    <glyph glyph-name="c" unicode="c" horiz-adv-x="462" 
d="M444 371l-66 -65q-33 35 -57 48t-58 13q-60 0 -97 -40t-37 -105t37 -105.5t97 -40.5q35 0 61.5 14.5t56.5 50.5l66 -65q-43 -48 -86.5 -69t-97.5 -21q-100 0 -167.5 68t-67.5 168t67.5 167.5t166.5 67.5q53 0 96 -20t86 -66z" />
    <glyph glyph-name="d" unicode="d" horiz-adv-x="545" 
d="M489 0h-100v38q-68 -52 -136 -52q-92 0 -158.5 69.5t-66.5 166.5q0 96 66 165.5t158 69.5q70 0 137 -52v262h100v-667zM258 366q-56 0 -92.5 -40.5t-36.5 -103.5q0 -64 36.5 -104.5t94.5 -40.5t93.5 40.5t35.5 105.5q0 64 -36.5 103.5t-94.5 39.5z" />
    <glyph glyph-name="e" unicode="e" horiz-adv-x="494" 
d="M466 183h-335q10 -51 42.5 -79t81.5 -28q75 0 112 57q0 1 5 8q2 4 4 7l86 -36q-75 -126 -207 -126q-97 0 -162 67.5t-65 168.5q0 98 64 166.5t157 68.5q95 0 156 -69.5t61 -176.5v-28zM131 260h236q-28 108 -117 108q-46 0 -77 -28.5t-42 -79.5z" />
    <glyph glyph-name="f" unicode="f" horiz-adv-x="259" 
d="M245 353h-77v-353h-100v353h-43v90h43v84q0 71 30.5 109.5t87.5 38.5q27 0 58 -8v-90q-24 7 -39 7q-37 0 -37 -57v-84h77v-90z" />
    <glyph glyph-name="g" unicode="g" horiz-adv-x="545" 
d="M489 443v-452q0 -106 -65.5 -172t-171.5 -66q-102 0 -172 64q-11 10 -41 45l65 65q8 -10 12 -14q35 -41 63 -55.5t71 -14.5q66 0 102.5 39t36.5 109v47q-56 -52 -132 -52q-95 0 -162 69t-67 167t67 166.5t162 68.5q73 0 132 -52v38h100zM259 367q-57 0 -93.5 -40.5
t-36.5 -104.5q0 -65 37 -105.5t95 -40.5q57 0 93 41t36 106q0 64 -36 104t-95 40z" />
    <glyph glyph-name="h" unicode="h" horiz-adv-x="509" 
d="M56 667h100v-256q47 46 112 46q50 0 93 -23.5t65 -63.5q27 -45 27 -131v-239h-100v231q0 66 -16 95q-20 39 -78 39q-28 0 -52 -12t-34 -32q-17 -29 -17 -99v-222h-100v667z" />
    <glyph glyph-name="i" unicode="i" horiz-adv-x="213" 
d="M157 443v-443h-100v443h100zM106 657q27 0 46 -18.5t19 -45.5q0 -26 -19 -45t-45 -19q-28 0 -46.5 19t-18.5 46q0 26 19 44.5t45 18.5z" />
    <glyph glyph-name="j" unicode="j" horiz-adv-x="223" 
d="M116 657q27 0 46 -18.5t19 -45.5t-19 -45.5t-46 -18.5t-45.5 19t-18.5 46q0 26 19 44.5t45 18.5zM-10 -232v93q32 -9 47 -9q29 0 29 53v538h100v-538q0 -70 -30 -108.5t-86 -38.5q-26 0 -60 10z" />
    <glyph glyph-name="k" unicode="k" horiz-adv-x="476" 
d="M278 259l203 -259h-123l-148 192l-54 -52v-140h-100v667h100v-401l178 177h131z" />
    <glyph glyph-name="l" unicode="l" horiz-adv-x="214" 
d="M157 0h-100v667h100v-667z" />
    <glyph glyph-name="m" unicode="m" horiz-adv-x="773" 
d="M156 443v-32q43 46 106 46q72 0 126 -60q56 60 138 60q53 0 96.5 -23.5t67.5 -66.5q26 -45 26 -128v-239h-100v231q0 67 -16 98q-20 36 -69 36q-25 0 -46 -11.5t-31 -29.5q-17 -29 -17 -103v-221h-100v231q0 68 -16 97q-19 37 -70 37q-25 0 -46.5 -11t-31.5 -30
q-17 -30 -17 -103v-221h-100v443h100z" />
    <glyph glyph-name="n" unicode="n" horiz-adv-x="509" 
d="M56 443h100v-32q47 46 113 46q49 0 92 -23.5t65 -63.5q27 -45 27 -131v-239h-100v231q0 66 -16 95q-21 39 -78 39q-28 0 -52 -12t-34 -32q-17 -29 -17 -99v-222h-100v443z" />
    <glyph glyph-name="o" unicode="o" horiz-adv-x="522" 
d="M264 457q96 0 163 -68.5t67 -166.5q0 -100 -67.5 -168t-165.5 -68t-165.5 68t-67.5 168t68 167.5t168 67.5zM259 367q-57 0 -93.5 -40.5t-36.5 -104.5q0 -65 37 -105.5t95 -40.5q59 0 95.5 41t36.5 106q0 64 -37 104t-97 40z" />
    <glyph glyph-name="p" unicode="p" horiz-adv-x="545" 
d="M56 443h100v-38q68 52 136 52q92 0 158.5 -69.5t66.5 -166.5q0 -96 -66 -165.5t-158 -69.5q-68 0 -137 52v-272h-100v677zM285 367q-58 0 -93.5 -40.5t-35.5 -105.5q0 -64 36 -104t94 -40q57 0 93.5 40.5t36.5 104.5t-36.5 104.5t-94.5 40.5z" />
    <glyph glyph-name="q" unicode="q" horiz-adv-x="545" 
d="M489 443v-677h-100v272q-69 -52 -137 -52q-92 0 -158 69.5t-66 165.5q0 97 66.5 166.5t158.5 69.5q68 0 136 -52v38h100zM260 367q-58 0 -94.5 -40.5t-36.5 -104.5q0 -65 37 -105t96 -40q56 0 91.5 40.5t35.5 105.5q0 63 -36 103.5t-93 40.5z" />
    <glyph glyph-name="r" unicode="r" horiz-adv-x="302" 
d="M56 443h100v-36q27 23 46 30.5t49 7.5q3 0 37 -2v-89q-20 1 -35 1q-59 0 -81 -40q-16 -31 -16 -102v-213h-100v443z" />
    <glyph glyph-name="s" unicode="s" horiz-adv-x="380" 
d="M23 116l82 33q21 -41 39.5 -57t46.5 -16q27 0 44 15t17 40q0 17 -12.5 27.5t-51.5 25.5l-45 18q-97 36 -97 119q0 58 43.5 97t107.5 39q97 0 148 -97l-78 -39q-18 27 -33.5 37.5t-37.5 10.5q-25 0 -40 -12.5t-15 -32.5q0 -17 11.5 -26.5t51.5 -25.5l42 -16
q106 -40 106 -121q0 -63 -46.5 -106t-115.5 -43q-119 0 -167 130z" />
    <glyph glyph-name="t" unicode="t" horiz-adv-x="260" 
d="M232 443v-90h-69v-213q0 -54 29 -54q14 0 47 9v-93q-36 -10 -60 -10q-56 0 -86 38.5t-30 109.5v213h-48v90h48v98l100 40v-138h69z" />
    <glyph glyph-name="u" unicode="u" horiz-adv-x="509" 
d="M453 0h-100v32q-47 -46 -112 -46q-50 0 -93 23.5t-65 63.5q-27 45 -27 131v239h100v-231q0 -66 16 -95q21 -39 78 -39q28 0 52 12t34 31q17 29 17 101v221h100v-443z" />
    <glyph glyph-name="v" unicode="v" horiz-adv-x="460" 
d="M-6 443h108l128 -305l129 305h107l-190 -443h-91z" />
    <glyph glyph-name="w" unicode="w" horiz-adv-x="664" 
d="M101 443l96 -282l95 282h80l96 -282l96 282h106l-163 -443h-80l-95 279l-95 -279h-80l-163 443h107z" />
    <glyph glyph-name="x" unicode="x" horiz-adv-x="466" 
d="M455 443l-163 -213l175 -230h-118l-116 154l-117 -154h-118l176 229l-163 214h118l104 -138l105 138h117z" />
    <glyph glyph-name="y" unicode="y" horiz-adv-x="463" 
d="M64 -234l112 254l-182 423h108l127 -301l132 301h108l-300 -677h-105z" />
    <glyph glyph-name="z" unicode="z" horiz-adv-x="414" 
d="M395 367l-242 -277h251v-90h-382v76l243 278h-229v89h359v-76z" />
    <glyph glyph-name="braceleft" unicode="{" horiz-adv-x="310" 
d="M271 -88v-90q-30 -1 -41 -1q-71 0 -104 36t-33 115v190q-1 40 -11 54t-44 23v80q33 8 43.5 22t11.5 50v189q0 78 33 114.5t104 36.5q10 0 41 -1v-90h-17q-42 -2 -50.5 -9t-9.5 -43v-201q-2 -45 -11.5 -69.5t-33.5 -41.5q24 -17 33.5 -42.5t11.5 -71.5v-198q0 -35 9.5 -44
t46.5 -9q13 0 21 1z" />
    <glyph glyph-name="bar" unicode="|" horiz-adv-x="514" 
d="M208 728h99v-904h-99v904z" />
    <glyph glyph-name="braceright" unicode="}" horiz-adv-x="310" 
d="M38 -178v90q8 -1 21 -1q37 0 46.5 9t9.5 44v198q2 46 11.5 71.5t33.5 42.5q-24 17 -33.5 41.5t-11.5 69.5v201q-1 36 -9.5 43t-50.5 9h-17v90q31 1 41 1q71 0 104 -36.5t33 -114.5v-189q1 -36 11.5 -50t43.5 -22v-80q-34 -9 -44 -23t-11 -54v-190q0 -79 -33 -115
t-104 -36q-11 0 -41 1z" />
    <glyph glyph-name="asciitilde" unicode="~" horiz-adv-x="687" 
d="M151 564l-65 42q37 75 70 104t83 29q47 0 118 -35q61 -31 92 -31q25 0 42 14.5t43 57.5l66 -38q-30 -62 -60 -91q-17 -17 -45 -28.5t-51 -11.5q-28 0 -52 8t-98 41q-36 17 -62 17q-22 0 -40 -17.5t-41 -60.5z" />
    <glyph glyph-name="uni00A0" unicode="&#xa0;" horiz-adv-x="237" 
 />
    <glyph glyph-name="exclamdown" unicode="&#xa1;" horiz-adv-x="295" 
d="M147 494q26 0 45 -18.5t19 -44.5t-19 -44.5t-46 -18.5q-26 0 -44.5 18.5t-18.5 45.5q0 25 19 43.5t45 18.5zM100 319h94l9 -503h-112z" />
    <glyph glyph-name="cent" unicode="&#xa2;" horiz-adv-x="554" 
d="M240 0v104q-80 19 -129 82.5t-49 146.5q0 84 49 146.5t129 82.5v105h102v-103q74 -15 136 -82l-66 -65q-33 35 -57 48t-58 13q-60 0 -97 -40t-37 -105t37 -105t97 -40q35 0 61 14t57 50l66 -65q-57 -67 -139 -85v-102h-102z" />
    <glyph glyph-name="sterling" unicode="&#xa3;" horiz-adv-x="563" 
d="M225 381h201v-93h-181q10 -50 10 -93q0 -51 -38 -99h303v-96h-452v90l9 8q43 33 58 55.5t15 52.5q0 32 -11 82h-71v93h51q-7 43 -7 82q0 111 64 166q61 52 143 52q119 0 187 -122l-83 -52q-25 42 -49.5 59.5t-58.5 17.5q-47 0 -73.5 -31t-26.5 -85q0 -38 10 -87z" />
    <glyph glyph-name="currency" unicode="&#xa4;" horiz-adv-x="724" 
d="M141 614l87 -88q62 43 134 43t135 -43l86 88l56 -55l-88 -89q42 -64 42 -136q0 -74 -41 -136l87 -89l-55 -56l-87 88q-64 -43 -135 -43q-70 0 -135 43l-87 -88l-55 56l88 89q-41 61 -41 136q0 71 41 136l-88 89zM360 483q-59 0 -97 -42t-38 -107q0 -67 38 -108.5
t99 -41.5t99.5 42t38.5 109q0 66 -39 107t-101 41z" />
    <glyph glyph-name="yen" unicode="&#xa5;" horiz-adv-x="629" 
d="M105 224v87h138l-25 43h-113v87h64l-126 226h115l156 -287l157 287h114l-126 -226h64v-87h-113l-25 -43h138v-87h-157v-224h-104v224h-157z" />
    <glyph glyph-name="brokenbar" unicode="&#xa6;" horiz-adv-x="514" 
d="M208 728h99v-340h-99v340zM208 164h99v-340h-99v340z" />
    <glyph glyph-name="section" unicode="&#xa7;" horiz-adv-x="560" 
d="M270 402l64 -25q84 -32 123.5 -77.5t39.5 -109.5q0 -78 -52 -135q40 -46 40 -111q0 -86 -58.5 -138.5t-152.5 -52.5q-109 0 -180 80q-20 24 -47 72l85 54q30 -54 55 -76q36 -33 90 -33q46 0 74.5 26.5t28.5 67.5q0 32 -24 55t-81 45l-61 24q-145 56 -145 177q0 73 55 132
q-44 47 -44 113q0 82 59.5 136.5t148.5 54.5q64 0 109.5 -29t85.5 -94l-85 -54q-29 46 -53 63t-61 17q-43 0 -72 -27.5t-29 -67.5q0 -53 87 -87zM257 156l64 -24l38 -17q32 35 32 74q0 34 -23 56t-82 45l-69 26q-4 2 -7 3q-37 -34 -37 -74q0 -57 84 -89z" />
    <glyph glyph-name="dieresis" unicode="&#xa8;" horiz-adv-x="476" 
d="M330 657q27 0 45.5 -18.5t18.5 -44.5q0 -27 -19 -45.5t-45 -18.5q-27 0 -45.5 19t-18.5 46q0 25 19 43.5t45 18.5zM146 657q26 0 45 -18.5t19 -44.5q0 -27 -19 -45.5t-45 -18.5q-27 0 -45.5 18.5t-18.5 45.5q0 26 19 44.5t45 18.5z" />
    <glyph glyph-name="copyright" unicode="&#xa9;" horiz-adv-x="843" 
d="M618 483l-59 -58q-36 38 -60 50.5t-61 12.5q-64 0 -107 -44.5t-43 -110.5q0 -65 43.5 -109.5t106.5 -44.5q35 0 60 13t63 51l59 -58q-3 -3 -12 -11q-76 -75 -169 -75q-98 0 -167 68.5t-69 165.5q0 98 69 166.5t167 68.5q85 0 142 -51q16 -14 37 -34zM428 712
q152 0 262 -112t110 -266q0 -157 -110.5 -268t-267.5 -111q-158 0 -268.5 111t-110.5 270q0 157 112 266.5t273 109.5zM417 641q-124 0 -213.5 -91t-89.5 -216q0 -127 90 -217.5t217 -90.5q128 0 218 90.5t90 219.5q0 127 -91 216t-221 89z" />
    <glyph glyph-name="ordfeminine" unicode="&#xaa;" horiz-adv-x="352" 
d="M316 406h-71v19q-35 -28 -75 -28q-59 0 -100.5 41t-41.5 99q0 59 42 101.5t101 42.5q39 0 74 -28v19h71v-266zM173 617q-32 0 -52.5 -22.5t-20.5 -56.5q0 -35 20 -56t53 -21t53 22t20 57q0 34 -20.5 55.5t-52.5 21.5z" />
    <glyph glyph-name="guillemotleft" unicode="&#xab;" horiz-adv-x="467" 
d="M423 73l-67 -53l-164 201l164 206l66 -53l-120 -153zM260 73l-66 -53l-164 201l164 206l66 -53l-120 -153z" />
    <glyph glyph-name="logicalnot" unicode="&#xac;" horiz-adv-x="680" 
d="M620 68h-97v198h-463v91h560v-289z" />
    <glyph glyph-name="uni00AD" unicode="&#xad;" horiz-adv-x="268" 
d="M30 276h208v-91h-208v91z" />
    <glyph glyph-name="registered" unicode="&#xae;" horiz-adv-x="843" 
d="M505 296l108 -188h-94l-96 169q-14 -1 -51 -1v-168h-84v450h117q67 0 102 -21q31 -17 49.5 -49.5t18.5 -70.5q0 -84 -70 -121zM372 480v-126h39q81 0 81 63t-81 63h-39zM426 712q154 0 264 -111.5t110 -266.5q0 -158 -111 -268.5t-268 -110.5q-156 0 -267 110.5
t-111 266.5q0 160 111 270t272 110zM416 641q-123 0 -212.5 -91t-89.5 -216q0 -127 90 -217.5t217 -90.5q128 0 218 90.5t90 219.5q0 127 -91.5 216t-221.5 89z" />
    <glyph glyph-name="macron" unicode="&#xaf;" horiz-adv-x="476" 
d="M88 635h299v-89h-299v89z" />
    <glyph glyph-name="degree" unicode="&#xb0;" horiz-adv-x="336" 
d="M204 742q57 0 98 -41.5t41 -99.5q0 -59 -41 -100.5t-100 -41.5t-100.5 41.5t-41.5 101.5q0 58 42 99t102 41zM201 667q-27 0 -46.5 -19.5t-19.5 -46.5q0 -28 19.5 -47.5t47.5 -19.5q27 0 46.5 19.5t19.5 47.5t-19.5 47t-47.5 19z" />
    <glyph glyph-name="plusminus" unicode="&#xb1;" horiz-adv-x="556" 
d="M232 418v200h92v-200h198v-89h-198v-200h-92v200h-199v89h199zM522 89v-89h-489v89h489z" />
    <glyph glyph-name="twosuperior" unicode="&#xb2;" 
d="M62 406v57l146 155q40 45 40 77q0 22 -14.5 34t-40.5 12q-29 0 -42 -12.5t-25 -49.5l-68 18q25 112 135 112q58 0 93 -31.5t35 -83.5q0 -58 -43 -103l-110 -118h162v-67h-268z" />
    <glyph glyph-name="threesuperior" unicode="&#xb3;" 
d="M153 579v66h32q59 0 59 48q0 22 -15 35.5t-39 13.5q-21 0 -34.5 -9.5t-30.5 -35.5l-63 33q26 42 55.5 60.5t72.5 18.5q55 0 91 -32.5t36 -82.5q0 -47 -34 -78q43 -37 43 -92t-39.5 -90.5t-99.5 -35.5q-109 0 -136 110l-1 5l72 18q10 -37 23.5 -51t41.5 -14q29 0 47 16
t18 42q0 55 -67 55h-32z" />
    <glyph glyph-name="acute" unicode="&#xb4;" horiz-adv-x="476" 
d="M385 644l-144 -145l-66 38l115 158z" />
    <glyph glyph-name="mu" unicode="&#xb5;" horiz-adv-x="509" 
d="M453 0h-100v30q-46 -44 -102 -44q-54 0 -95 44v-264h-100v677h100v-233q0 -64 16 -93q21 -39 78 -39q28 0 52 12t34 31q17 29 17 101v221h100v-443z" />
    <glyph glyph-name="paragraph" unicode="&#xb6;" horiz-adv-x="643" 
d="M284 207h-4q-91 0 -155.5 67.5t-64.5 162.5q0 97 65.5 163.5t160.5 66.5h314v-86h-64v-815h-90v815h-72v-815h-90v441z" />
    <glyph glyph-name="periodcentered" unicode="&#xb7;" horiz-adv-x="243" 
d="M121 396q27 0 45.5 -18.5t18.5 -44.5t-18.5 -44.5t-46.5 -18.5q-26 0 -44.5 18.5t-18.5 45.5q0 25 19 43.5t45 18.5z" />
    <glyph glyph-name="cedilla" unicode="&#xb8;" horiz-adv-x="476" 
d="M248 -30l91 -40l-118 -150l-71 36z" />
    <glyph glyph-name="onesuperior" unicode="&#xb9;" 
d="M246 406h-74v308l-51 -27l-35 58l101 56h59v-395z" />
    <glyph glyph-name="ordmasculine" unicode="&#xba;" horiz-adv-x="346" 
d="M175 681q60 0 102 -41.5t42 -100.5q0 -60 -42 -101t-104 -41t-104 41t-42 102q0 60 42.5 100.5t105.5 40.5zM172 616q-32 0 -52.5 -21.5t-20.5 -55.5t20.5 -55.5t53.5 -21.5t53.5 21.5t20.5 56.5q0 34 -20.5 55t-54.5 21z" />
    <glyph glyph-name="guillemotright" unicode="&#xbb;" horiz-adv-x="467" 
d="M206 73l121 148l-120 153l66 53l164 -206l-164 -201zM44 73l120 148l-120 153l67 53l163 -206l-163 -201z" />
    <glyph glyph-name="onequarter" unicode="&#xbc;" horiz-adv-x="833" 
d="M539 681l56 -33l-382 -662l-57 32zM441 141l173 266l62 -36l-147 -224h83v92h74v-92h48v-66h-48v-81h-74v81h-171v60zM213 272h-74v308l-51 -27l-35 58l101 56h59v-395z" />
    <glyph glyph-name="onehalf" unicode="&#xbd;" horiz-adv-x="833" 
d="M539 681l56 -33l-382 -662l-57 32zM213 272h-74v308l-51 -27l-35 58l101 56h59v-395zM493 0v57l146 155q40 43 40 77q0 22 -14.5 34t-40.5 12q-29 0 -42 -12.5t-25 -50.5l-68 19q26 112 135 112q58 0 93 -31.5t35 -83.5q0 -58 -43 -103l-110 -118h162v-67h-268z" />
    <glyph glyph-name="threequarters" unicode="&#xbe;" horiz-adv-x="833" 
d="M600 681l56 -33l-383 -662l-56 32zM148 445v67h32q59 0 59 47q0 22 -14.5 35t-39.5 13q-21 0 -34.5 -9t-30.5 -34l-63 33q26 41 55.5 59.5t72.5 18.5q55 0 91 -32.5t36 -81.5q0 -48 -34 -79q43 -34 43 -91q0 -55 -39.5 -91t-99.5 -36q-109 0 -136 111l-1 5l72 18
q10 -38 23.5 -52t41.5 -14q29 0 47 16.5t18 42.5q0 54 -67 54h-32zM480 141l173 266l62 -36l-147 -224h83v92h74v-92h47v-66h-47v-81h-74v81h-171v60z" />
    <glyph glyph-name="questiondown" unicode="&#xbf;" horiz-adv-x="431" 
d="M289 319v-69q-1 -50 -12 -73.5t-49 -56.5l-42 -35q-56 -47 -56 -101q0 -39 25.5 -62t69.5 -23q40 0 64.5 17t55.5 65l76 -61q-63 -118 -192 -118q-92 0 -147 50t-55 132q0 48 18.5 84.5t65.5 80.5l47 44l15 14q9 9 11 17t3 34v61h102zM239 494q26 0 44.5 -18.5
t18.5 -45.5q0 -25 -19 -43.5t-45 -18.5q-27 0 -45.5 18.5t-18.5 44.5t19 44.5t46 18.5z" />
    <glyph glyph-name="Agrave" unicode="&#xc0;" horiz-adv-x="631" 
d="M172 172l-63 -172h-109l251 667h128l252 -667h-110l-63 172h-286zM207 268h215l-107 291zM168 844l95 51l115 -158l-66 -38z" />
    <glyph glyph-name="Aacute" unicode="&#xc1;" horiz-adv-x="631" 
d="M172 172l-63 -172h-109l251 667h128l252 -667h-110l-63 172h-286zM207 268h215l-107 291zM460 844l-144 -145l-66 38l115 158z" />
    <glyph glyph-name="Acircumflex" unicode="&#xc2;" horiz-adv-x="631" 
d="M172 172l-63 -172h-109l251 667h128l252 -667h-110l-63 172h-286zM207 268h215l-107 291zM315 788l-89 -88l-75 37l130 143h68l131 -143l-75 -37z" />
    <glyph glyph-name="Atilde" unicode="&#xc3;" horiz-adv-x="631" 
d="M172 172l-63 -172h-109l251 667h128l252 -667h-110l-63 172h-286zM207 268h215l-107 291zM383 857l82 -20q-7 -108 -91 -108q-40 0 -74 21q-24 13 -37 13q-10 0 -17 -38l-81 19q11 108 94 108q32 0 75 -23q20 -11 35 -11q10 0 14 39z" />
    <glyph glyph-name="Adieresis" unicode="&#xc4;" horiz-adv-x="631" 
d="M172 172l-63 -172h-109l251 667h128l252 -667h-110l-63 172h-286zM207 268h215l-107 291zM407 854q27 0 45.5 -18.5t18.5 -44.5q0 -27 -19 -45.5t-45 -18.5q-27 0 -45.5 19t-18.5 46q0 25 19 43.5t45 18.5zM223 854q26 0 45 -18.5t19 -44.5q0 -27 -19 -45.5t-45 -18.5
q-27 0 -45.5 19t-18.5 46q0 25 19 43.5t45 18.5z" />
    <glyph glyph-name="Aring" unicode="&#xc5;" horiz-adv-x="631" 
d="M172 172l-63 -172h-109l251 667h128l252 -667h-110l-63 172h-286zM207 268h215l-107 291zM315 891q43 0 73 -29.5t30 -70.5q0 -42 -30 -71.5t-72 -29.5q-43 0 -73 29.5t-30 72.5q0 40 30.5 69.5t71.5 29.5zM315 842q-21 0 -36 -15t-15 -37q0 -21 15.5 -36t35.5 -15
q22 0 37 15t15 37q0 21 -15 36t-37 15z" />
    <glyph glyph-name="AE" unicode="&#xc6;" horiz-adv-x="839" 
d="M432 172h-228l-88 -172h-116l347 667h447v-96h-258v-185h230v-96h-230v-194h268v-96h-372v172zM432 268v303h-24l-155 -303h179z" />
    <glyph glyph-name="Ccedilla" unicode="&#xc7;" horiz-adv-x="670" 
d="M640 562l-73 -70q-47 50 -88.5 70.5t-95.5 20.5q-103 0 -173 -72t-70 -178q0 -104 70.5 -176.5t172.5 -72.5q82 0 144 52q17 14 43 41l73 -71q-64 -64 -124 -92t-134 -28q-146 0 -248 101t-102 246t102 246.5t247 101.5q74 0 135 -28t121 -91zM345 -30l92 -40l-118 -150
l-71 36z" />
    <glyph glyph-name="Egrave" unicode="&#xc8;" horiz-adv-x="481" 
d="M435 571h-258v-185h230v-96h-230v-194h268v-96h-372v667h362v-96zM120 844l95 51l115 -158l-66 -38z" />
    <glyph glyph-name="Eacute" unicode="&#xc9;" horiz-adv-x="481" 
d="M435 571h-258v-185h230v-96h-230v-194h268v-96h-372v667h362v-96zM399 844l-144 -145l-66 38l115 158z" />
    <glyph glyph-name="Ecircumflex" unicode="&#xca;" horiz-adv-x="481" 
d="M435 571h-258v-185h230v-96h-230v-194h268v-96h-372v667h362v-96zM259 788l-89 -88l-75 37l130 143h69l130 -143l-75 -37z" />
    <glyph glyph-name="Edieresis" unicode="&#xcb;" horiz-adv-x="481" 
d="M435 571h-258v-185h230v-96h-230v-194h268v-96h-372v667h362v-96zM350 854q26 0 45 -18.5t19 -44.5t-19 -45t-45 -19q-27 0 -45.5 18.5t-18.5 45.5q0 26 19 44.5t45 18.5zM166 854q26 0 45 -18.5t19 -44.5q0 -27 -19 -45.5t-45 -18.5q-27 0 -45.5 18.5t-18.5 45.5
q0 26 19 44.5t45 18.5z" />
    <glyph glyph-name="Igrave" unicode="&#xcc;" horiz-adv-x="250" 
d="M177 667v-667h-104v667h104zM-24 844l95 51l115 -158l-66 -38z" />
    <glyph glyph-name="Iacute" unicode="&#xcd;" horiz-adv-x="250" 
d="M177 667v-667h-104v667h104zM274 844l-144 -145l-66 38l115 158z" />
    <glyph glyph-name="Icircumflex" unicode="&#xce;" horiz-adv-x="250" 
d="M177 667v-667h-104v667h104zM125 788l-89 -88l-75 37l130 143h68l131 -143l-75 -37z" />
    <glyph glyph-name="Idieresis" unicode="&#xcf;" horiz-adv-x="250" 
d="M178 667v-667h-104v667h104zM198 854q26 0 45 -18.5t19 -44.5q0 -27 -19 -45.5t-45 -18.5q-27 0 -45.5 19t-18.5 46q0 25 19 43.5t45 18.5zM53 854q26 0 45 -18.5t19 -44.5q0 -27 -19 -45.5t-45 -18.5q-27 0 -45.5 19t-18.5 46q0 25 19 43.5t45 18.5z" />
    <glyph glyph-name="Eth" unicode="&#xd0;" horiz-adv-x="631" 
d="M22 314v92h64v261h148q167 0 265 -89.5t98 -242.5q0 -154 -98 -244.5t-265 -90.5h-148v314h-64zM190 406h149v-92h-149v-218h47q119 0 187.5 64t68.5 175q0 109 -69 172.5t-187 63.5h-47v-165z" />
    <glyph glyph-name="Ntilde" unicode="&#xd1;" horiz-adv-x="708" 
d="M73 0v667h92l366 -491v491h104v-667h-92l-366 491v-491h-104zM424 857l83 -20q-9 -108 -92 -108q-38 0 -74 21q-24 13 -36 13q-7 0 -10 -7t-7 -31l-81 19q11 108 93 108q32 0 75 -23q20 -11 35 -11q10 0 14 39z" />
    <glyph glyph-name="Ograve" unicode="&#xd2;" horiz-adv-x="762" 
d="M381 681q142 0 244 -102.5t102 -245.5q0 -142 -102 -244.5t-243 -102.5q-145 0 -246 102.5t-101 249.5q0 139 103 241t243 102zM379 583q-100 0 -169.5 -73.5t-69.5 -180.5q0 -100 71.5 -172.5t169.5 -72.5q99 0 170 73t71 176q0 105 -70.5 177.5t-172.5 72.5zM234 844
l96 51l115 -158l-66 -38z" />
    <glyph glyph-name="Oacute" unicode="&#xd3;" horiz-adv-x="762" 
d="M381 681q142 0 244 -102.5t102 -245.5q0 -142 -102 -244.5t-243 -102.5q-145 0 -246 102.5t-101 249.5q0 139 103 241t243 102zM379 583q-100 0 -169.5 -73.5t-69.5 -180.5q0 -100 71.5 -172.5t169.5 -72.5q99 0 170 73t71 176q0 105 -70.5 177.5t-172.5 72.5zM527 844
l-144 -145l-66 38l115 158z" />
    <glyph glyph-name="Ocircumflex" unicode="&#xd4;" horiz-adv-x="762" 
d="M381 681q142 0 244 -102.5t102 -245.5q0 -142 -102 -244.5t-243 -102.5q-145 0 -246 102.5t-101 249.5q0 139 103 241t243 102zM379 583q-100 0 -169.5 -73.5t-69.5 -180.5q0 -100 71.5 -172.5t169.5 -72.5q99 0 170 73t71 176q0 105 -70.5 177.5t-172.5 72.5zM381 788
l-90 -88l-74 37l130 143h68l130 -143l-74 -37z" />
    <glyph glyph-name="Otilde" unicode="&#xd5;" horiz-adv-x="762" 
d="M381 681q142 0 244 -102.5t102 -245.5q0 -142 -102 -244.5t-243 -102.5q-145 0 -246 102.5t-101 249.5q0 139 103 241t243 102zM379 583q-100 0 -169.5 -73.5t-69.5 -180.5q0 -100 71.5 -172.5t169.5 -72.5q99 0 170 73t71 176q0 105 -70.5 177.5t-172.5 72.5zM448 857
l83 -20q-7 -108 -92 -108q-39 0 -73 21q-24 13 -37 13q-7 0 -9.5 -6.5t-7.5 -31.5l-81 19q11 108 93 108q32 0 75 -23q22 -11 35 -11q7 0 9.5 7.5t4.5 31.5z" />
    <glyph glyph-name="Odieresis" unicode="&#xd6;" horiz-adv-x="762" 
d="M381 681q142 0 244 -102.5t102 -245.5q0 -142 -102 -244.5t-243 -102.5q-145 0 -246 102.5t-101 249.5q0 139 103 241t243 102zM379 583q-100 0 -169.5 -73.5t-69.5 -180.5q0 -100 71.5 -172.5t169.5 -72.5q99 0 170 73t71 176q0 105 -70.5 177.5t-172.5 72.5zM473 854
q26 0 45 -18.5t19 -44.5q0 -27 -19 -45.5t-45 -18.5q-27 0 -45.5 19t-18.5 46q0 25 19 43.5t45 18.5zM289 854q26 0 45 -18.5t19 -44.5q0 -27 -19 -45.5t-45 -18.5q-27 0 -45.5 18.5t-18.5 45.5q0 26 19 44.5t45 18.5z" />
    <glyph glyph-name="multiply" unicode="&#xd7;" horiz-adv-x="556" 
d="M214 312l-141 141l64 64l141 -141l141 141l63 -64l-141 -141l141 -141l-63 -64l-141 141l-141 -141l-64 64z" />
    <glyph glyph-name="Oslash" unicode="&#xd8;" horiz-adv-x="770" 
d="M47 53l67 66q-75 94 -75 214q0 143 102 245.5t244 102.5q120 0 215 -77l66 65l56 -55l-66 -66q75 -95 75 -215q0 -142 -102 -244.5t-244 -102.5q-120 0 -215 77l-66 -65zM187 192l342 341q-66 50 -142 50q-103 0 -173 -73t-70 -180q0 -73 43 -138zM583 475l-342 -341
q68 -50 143 -50q101 0 171.5 73.5t70.5 177.5q0 74 -43 140z" />
    <glyph glyph-name="Ugrave" unicode="&#xd9;" horiz-adv-x="638" 
d="M73 667h104v-411q0 -79 17 -109q17 -28 51.5 -45.5t72.5 -17.5q39 0 73.5 17.5t51.5 45.5q17 30 17 109v411h104v-430q0 -83 -29 -134q-32 -53 -90.5 -85t-125.5 -32q-68 0 -126.5 32t-90.5 85q-29 51 -29 134v430zM179 844l95 51l115 -158l-66 -38z" />
    <glyph glyph-name="Uacute" unicode="&#xda;" horiz-adv-x="638" 
d="M73 667h104v-411q0 -79 17 -109q17 -28 51.5 -45.5t72.5 -17.5q39 0 73.5 17.5t51.5 45.5q17 30 17 109v411h104v-430q0 -83 -29 -134q-32 -53 -90.5 -85t-125.5 -32q-68 0 -126.5 32t-90.5 85q-29 51 -29 134v430zM458 844l-144 -145l-66 38l115 158z" />
    <glyph glyph-name="Ucircumflex" unicode="&#xdb;" horiz-adv-x="638" 
d="M73 667h104v-411q0 -79 17 -109q17 -28 51.5 -45.5t72.5 -17.5q39 0 73.5 17.5t51.5 45.5q17 30 17 109v411h104v-430q0 -83 -29 -134q-32 -53 -90.5 -85t-125.5 -32q-68 0 -126.5 32t-90.5 85q-29 51 -29 134v430zM319 788l-90 -88l-75 37l131 143h68l130 -143l-75 -37z
" />
    <glyph glyph-name="Udieresis" unicode="&#xdc;" horiz-adv-x="638" 
d="M73 667h104v-411q0 -79 17 -109q17 -28 51.5 -45.5t72.5 -17.5q39 0 73.5 17.5t51.5 45.5q17 30 17 109v411h104v-430q0 -83 -29 -134q-32 -53 -90.5 -85t-125.5 -32q-68 0 -126.5 32t-90.5 85q-29 51 -29 134v430zM410 854q27 0 45.5 -18.5t18.5 -44.5q0 -27 -19 -45.5
t-45 -18.5q-27 0 -45.5 19t-18.5 46q0 25 19 43.5t45 18.5zM227 854q26 0 45 -18.5t19 -44.5q0 -27 -19 -45.5t-45 -18.5q-27 0 -45.5 19t-18.5 46q0 25 19 43.5t45 18.5z" />
    <glyph glyph-name="Yacute" unicode="&#xdd;" horiz-adv-x="529" 
d="M535 667l-219 -390v-277h-104v277l-219 390h115l156 -286l157 286h114zM404 844l-145 -145l-66 38l116 158z" />
    <glyph glyph-name="Thorn" unicode="&#xde;" horiz-adv-x="472" 
d="M177 573h44q91 0 141 -28q45 -25 70.5 -72.5t25.5 -103.5q0 -57 -26 -104t-70 -73q-52 -28 -141 -28h-44v-164h-104v667h104v-94zM177 258h52q72 0 101 32q26 32 26 79q0 66 -47 94q-28 15 -80 15h-52v-220z" />
    <glyph glyph-name="germandbls" unicode="&#xdf;" horiz-adv-x="523" 
d="M56 0v493q0 81 52.5 134.5t132.5 53.5q86 0 139.5 -52t53.5 -135q0 -76 -49 -124q33 -19 46 -33q53 -53 53 -137q0 -89 -62.5 -144.5t-162.5 -55.5h-59v94h62q55 0 88.5 30t33.5 79q0 48 -33 79q-29 27 -91 27h-15v91h15q37 0 56.5 23.5t19.5 67.5q0 46 -24.5 73.5
t-65.5 27.5t-65.5 -27t-24.5 -72v-493h-100z" />
    <glyph glyph-name="agrave" unicode="&#xe0;" horiz-adv-x="545" 
d="M489 0h-100v38q-68 -52 -136 -52q-92 0 -158.5 69.5t-66.5 166.5q0 96 66 165.5t158 69.5q68 0 137 -52v38h100v-443zM259 367q-57 0 -93.5 -40.5t-36.5 -104.5q0 -65 37 -105.5t95 -40.5t94 41t36 106q0 64 -37 104t-95 40zM112 644l95 51l115 -158l-66 -38z" />
    <glyph glyph-name="aacute" unicode="&#xe1;" horiz-adv-x="545" 
d="M489 0h-100v38q-68 -52 -136 -52q-92 0 -158.5 69.5t-66.5 166.5q0 96 66 165.5t158 69.5q68 0 137 -52v38h100v-443zM259 367q-57 0 -93.5 -40.5t-36.5 -104.5q0 -65 37 -105.5t95 -40.5t94 41t36 106q0 64 -37 104t-95 40zM411 644l-144 -145l-66 38l115 158z" />
    <glyph glyph-name="acircumflex" unicode="&#xe2;" horiz-adv-x="545" 
d="M489 0h-100v38q-68 -52 -136 -52q-92 0 -158.5 69.5t-66.5 166.5q0 96 66 165.5t158 69.5q68 0 137 -52v38h100v-443zM259 367q-57 0 -93.5 -40.5t-36.5 -104.5q0 -65 37 -105.5t95 -40.5t94 41t36 106q0 64 -37 104t-95 40zM259 588l-90 -88l-75 37l131 143h68l130 -143
l-75 -37z" />
    <glyph glyph-name="atilde" unicode="&#xe3;" horiz-adv-x="545" 
d="M489 0h-100v38q-68 -52 -136 -52q-92 0 -158.5 69.5t-66.5 166.5q0 96 66 165.5t158 69.5q68 0 137 -52v38h100v-443zM259 367q-57 0 -93.5 -40.5t-36.5 -104.5q0 -65 37 -105.5t95 -40.5t94 41t36 106q0 64 -37 104t-95 40zM326 657l82 -19q-8 -108 -91 -108
q-39 0 -74 20q-24 13 -36 13q-7 0 -10.5 -7t-7.5 -31l-81 19q11 108 94 108q34 0 75 -22q20 -11 35 -11q10 0 14 38z" />
    <glyph glyph-name="adieresis" unicode="&#xe4;" horiz-adv-x="545" 
d="M489 0h-100v38q-68 -52 -136 -52q-92 0 -158.5 69.5t-66.5 166.5q0 96 66 165.5t158 69.5q68 0 137 -52v38h100v-443zM259 367q-57 0 -93.5 -40.5t-36.5 -104.5q0 -65 37 -105.5t95 -40.5t94 41t36 106q0 64 -37 104t-95 40zM358 657q26 0 45 -18.5t19 -44.5
q0 -27 -19 -45.5t-45 -18.5q-27 0 -45.5 19t-18.5 46q0 25 19 43.5t45 18.5zM175 657q26 0 45 -18.5t19 -44.5q0 -27 -19 -45.5t-45 -18.5q-27 0 -45.5 18.5t-18.5 45.5q0 26 19 44.5t45 18.5z" />
    <glyph glyph-name="aring" unicode="&#xe5;" horiz-adv-x="545" 
d="M489 0h-100v38q-68 -52 -136 -52q-92 0 -158.5 69.5t-66.5 166.5q0 96 66 165.5t158 69.5q68 0 137 -52v38h100v-443zM259 367q-57 0 -93.5 -40.5t-36.5 -104.5q0 -65 37 -105.5t95 -40.5t94 41t36 106q0 64 -37 104t-95 40zM270 691q43 0 73 -29.5t30 -70.5
q0 -43 -30 -72t-73 -29t-72.5 30t-29.5 72q0 40 30.5 69.5t71.5 29.5zM270 642q-21 0 -36 -15t-15 -37q0 -21 15.5 -36t35.5 -15q22 0 37 15t15 37q0 21 -15 36t-37 15z" />
    <glyph glyph-name="ae" unicode="&#xe6;" horiz-adv-x="817" 
d="M699 148l86 -36q-74 -126 -208 -126q-97 0 -163 70q-50 -70 -176 -70q-96 0 -153 42t-57 112t52 110t143 40h122q-18 79 -113 79q-73 0 -138 -51l-51 65q50 40 95.5 57t103.5 17q59 0 103.5 -19.5t65.5 -53.5q67 73 160 73q97 0 157.5 -69t60.5 -179q0 -6 -1 -26h-335
q10 -51 43 -79t82 -28q34 0 64.5 15.5t47.5 41.5q0 1 5 8q2 4 4 7zM348 213h-111q-109 0 -109 -71q0 -68 111 -68q109 0 109 74v65zM453 260h236q-25 108 -117 108q-45 0 -76.5 -29t-42.5 -79z" />
    <glyph glyph-name="ccedilla" unicode="&#xe7;" horiz-adv-x="462" 
d="M444 371l-66 -65q-33 35 -57 48t-58 13q-60 0 -97 -40t-37 -105t37 -105.5t97 -40.5q35 0 61.5 14.5t56.5 50.5l66 -65q-43 -48 -86.5 -69t-97.5 -21q-100 0 -167.5 68t-67.5 168t67.5 167.5t166.5 67.5q53 0 96 -20t86 -66zM225 -30l92 -40l-118 -150l-71 36z" />
    <glyph glyph-name="egrave" unicode="&#xe8;" horiz-adv-x="494" 
d="M466 183h-335q10 -51 42.5 -79t81.5 -28q75 0 112 57q0 1 5 8q2 4 4 7l86 -36q-75 -126 -207 -126q-97 0 -162 67.5t-65 168.5q0 98 64 166.5t157 68.5q95 0 156 -69.5t61 -176.5v-28zM131 260h236q-28 108 -117 108q-46 0 -77 -28.5t-42 -79.5zM106 644l95 51l115 -158
l-66 -38z" />
    <glyph glyph-name="eacute" unicode="&#xe9;" horiz-adv-x="494" 
d="M466 183h-335q10 -51 42.5 -79t81.5 -28q75 0 112 57q0 1 5 8q2 4 4 7l86 -36q-75 -126 -207 -126q-97 0 -162 67.5t-65 168.5q0 98 64 166.5t157 68.5q95 0 156 -69.5t61 -176.5v-28zM131 260h236q-28 108 -117 108q-46 0 -77 -28.5t-42 -79.5zM389 644l-145 -145
l-66 38l115 158z" />
    <glyph glyph-name="ecircumflex" unicode="&#xea;" horiz-adv-x="494" 
d="M466 183h-335q10 -51 42.5 -79t81.5 -28q75 0 112 57q0 1 5 8q2 4 4 7l86 -36q-75 -126 -207 -126q-97 0 -162 67.5t-65 168.5q0 98 64 166.5t157 68.5q95 0 156 -69.5t61 -176.5v-28zM131 260h236q-28 108 -117 108q-46 0 -77 -28.5t-42 -79.5zM247 588l-90 -88l-75 37
l131 143h68l130 -143l-74 -37z" />
    <glyph glyph-name="edieresis" unicode="&#xeb;" horiz-adv-x="494" 
d="M466 183h-335q10 -51 42.5 -79t81.5 -28q75 0 112 57q0 1 5 8q2 4 4 7l86 -36q-75 -126 -207 -126q-97 0 -162 67.5t-65 168.5q0 98 64 166.5t157 68.5q95 0 156 -69.5t61 -176.5v-28zM131 260h236q-28 108 -117 108q-46 0 -77 -28.5t-42 -79.5zM339 657q27 0 45.5 -18.5
t18.5 -44.5q0 -27 -19 -45.5t-45 -18.5q-27 0 -45.5 18.5t-18.5 45.5q0 26 19 44.5t45 18.5zM155 657q26 0 45 -18.5t19 -44.5q0 -27 -19 -45.5t-45 -18.5q-27 0 -45.5 18.5t-18.5 45.5q0 26 19 44.5t45 18.5z" />
    <glyph glyph-name="igrave" unicode="&#xec;" horiz-adv-x="213" 
d="M156 443v-443h-100v443h100zM-46 644l95 51l115 -158l-66 -38z" />
    <glyph glyph-name="iacute" unicode="&#xed;" horiz-adv-x="213" 
d="M157 443v-443h-100v443h100zM259 644l-144 -145l-66 38l115 158z" />
    <glyph glyph-name="icircumflex" unicode="&#xee;" horiz-adv-x="213" 
d="M156 443v-443h-100v443h100zM106 588l-89 -88l-75 37l130 143h68l131 -143l-75 -37z" />
    <glyph glyph-name="idieresis" unicode="&#xef;" horiz-adv-x="213" 
d="M157 443v-443h-100v443h100zM179 657q26 0 45 -18.5t19 -44.5q0 -27 -19 -45.5t-45 -18.5q-27 0 -45.5 19t-18.5 46q0 25 19 43.5t45 18.5zM34 657q26 0 45 -18.5t19 -44.5q0 -27 -19 -45.5t-45 -18.5q-27 0 -45.5 18.5t-18.5 45.5q0 26 19 44.5t45 18.5z" />
    <glyph glyph-name="eth" unicode="&#xf0;" horiz-adv-x="523" 
d="M437 680l-100 -52q158 -161 158 -391q0 -110 -65.5 -180.5t-168.5 -70.5q-98 0 -165.5 68t-67.5 168q0 99 67 167t165 68q58 0 108 -27q-2 4 -4 9q-30 60 -52.5 91t-52.5 58l-106 -55l-63 58l92 47q-62 30 -115 46l42 63q88 -24 160 -65l109 55zM259 367
q-57 0 -93.5 -40.5t-36.5 -104.5q0 -65 37 -105.5t95 -40.5q59 0 96 41t37 106q0 64 -37.5 104t-97.5 40z" />
    <glyph glyph-name="ntilde" unicode="&#xf1;" horiz-adv-x="509" 
d="M56 443h100v-32q47 46 113 46q49 0 92 -23.5t65 -63.5q27 -45 27 -131v-239h-100v231q0 66 -16 95q-21 39 -78 39q-28 0 -52 -12t-34 -32q-17 -29 -17 -99v-222h-100v443zM323 657l83 -19q-8 -108 -92 -108q-38 0 -73 20q-24 13 -37 13q-7 0 -9.5 -6.5t-7.5 -31.5l-81 19
q11 108 93 108q34 0 75 -22q22 -11 35 -11q12 0 14 38z" />
    <glyph glyph-name="ograve" unicode="&#xf2;" horiz-adv-x="522" 
d="M265 457q95 0 162 -68.5t67 -166.5q0 -100 -67.5 -168t-165.5 -68q-99 0 -166 68.5t-67 169.5q0 99 68 166t169 67zM259 367q-57 0 -93.5 -40.5t-36.5 -104.5q0 -65 37 -105.5t95 -40.5q59 0 95.5 41t36.5 106q0 64 -37 104t-97 40zM115 644l95 51l115 -158l-66 -38z" />
    <glyph glyph-name="oacute" unicode="&#xf3;" horiz-adv-x="522" 
d="M265 457q95 0 162 -68.5t67 -166.5q0 -100 -67.5 -168t-165.5 -68q-99 0 -166 68.5t-67 169.5q0 99 68 166t169 67zM259 367q-57 0 -93.5 -40.5t-36.5 -104.5q0 -65 37 -105.5t95 -40.5q59 0 95.5 41t36.5 106q0 64 -37 104t-97 40zM408 644l-145 -145l-66 38l116 158z
" />
    <glyph glyph-name="ocircumflex" unicode="&#xf4;" horiz-adv-x="522" 
d="M265 457q95 0 162 -68.5t67 -166.5q0 -100 -67.5 -168t-165.5 -68q-99 0 -166 68.5t-67 169.5q0 99 68 166t169 67zM260 367q-58 0 -94.5 -40.5t-36.5 -104.5q0 -65 37 -105.5t95 -40.5q59 0 95.5 41t36.5 107q0 63 -37 103t-96 40zM261 588l-89 -88l-75 37l130 143h68
l131 -143l-75 -37z" />
    <glyph glyph-name="otilde" unicode="&#xf5;" horiz-adv-x="522" 
d="M265 457q95 0 162 -68.5t67 -166.5q0 -100 -67.5 -168t-165.5 -68q-99 0 -166 68.5t-67 169.5q0 99 68 166t169 67zM259 367q-57 0 -93.5 -40.5t-36.5 -104.5q0 -65 37 -105.5t95 -40.5q59 0 95.5 41t36.5 106q0 64 -37 104t-97 40zM328 657l83 -19q-7 -108 -92 -108
q-38 0 -73 20q-24 13 -37 13q-7 0 -9.5 -6.5t-7.5 -31.5l-81 19q11 108 93 108q34 0 75 -22q22 -11 35 -11q12 0 14 38z" />
    <glyph glyph-name="odieresis" unicode="&#xf6;" horiz-adv-x="522" 
d="M265 457q95 0 162 -68.5t67 -166.5q0 -100 -67.5 -168t-165.5 -68q-99 0 -166 68.5t-67 169.5q0 99 68 166t169 67zM259 367q-57 0 -93.5 -40.5t-36.5 -104.5q0 -65 37 -105.5t95 -40.5q59 0 95.5 41t36.5 106q0 64 -37 104t-97 40zM352 657q26 0 45 -18.5t19 -44.5
t-19 -45t-45 -19q-27 0 -45.5 18.5t-18.5 45.5q0 26 19 44.5t45 18.5zM168 657q26 0 45 -18.5t19 -44.5q0 -27 -19 -45.5t-46 -18.5q-26 0 -44.5 19t-18.5 46q0 25 19 43.5t45 18.5z" />
    <glyph glyph-name="divide" unicode="&#xf7;" horiz-adv-x="556" 
d="M505 357v-89h-455v89h455zM278 553q27 0 46.5 -19.5t19.5 -46.5q0 -28 -19.5 -47.5t-47.5 -19.5q-27 0 -46.5 19.5t-19.5 47.5q0 27 19.5 46.5t47.5 19.5zM278 204q27 0 46.5 -19.5t19.5 -46.5q0 -28 -19.5 -47.5t-47.5 -19.5q-27 0 -46.5 19.5t-19.5 47.5
q0 27 19.5 46.5t47.5 19.5z" />
    <glyph glyph-name="oslash" unicode="&#xf8;" horiz-adv-x="536" 
d="M35 46l41 40q-41 61 -41 135q0 100 67.5 168t166.5 68q80 0 143 -49l39 38l50 -49l-41 -40q41 -58 41 -135q0 -100 -67.5 -168t-166.5 -68q-76 0 -143 49l-39 -37zM388 288l-196 -188q32 -24 75 -24q59 0 96 41t37 106q0 37 -12 65zM148 155l197 189q-34 23 -76 23
q-59 0 -96 -40t-37 -105q0 -36 12 -67z" />
    <glyph glyph-name="ugrave" unicode="&#xf9;" horiz-adv-x="509" 
d="M453 0h-100v32q-47 -46 -112 -46q-50 0 -93 23.5t-65 63.5q-27 45 -27 131v239h100v-231q0 -66 16 -95q21 -39 78 -39q28 0 52 12t34 31q17 29 17 101v221h100v-443zM110 644l95 51l115 -158l-66 -38z" />
    <glyph glyph-name="uacute" unicode="&#xfa;" horiz-adv-x="509" 
d="M453 0h-100v32q-47 -46 -112 -46q-50 0 -93 23.5t-65 63.5q-27 45 -27 131v239h100v-231q0 -66 16 -95q21 -39 78 -39q28 0 52 12t34 31q17 29 17 101v221h100v-443zM396 644l-144 -145l-66 38l115 158z" />
    <glyph glyph-name="ucircumflex" unicode="&#xfb;" horiz-adv-x="509" 
d="M453 0h-100v32q-47 -46 -112 -46q-50 0 -93 23.5t-65 63.5q-27 45 -27 131v239h100v-231q0 -66 16 -95q21 -39 78 -39q28 0 52 12t34 31q17 29 17 101v221h100v-443zM254 588l-89 -88l-75 37l130 143h68l131 -143l-75 -37z" />
    <glyph glyph-name="udieresis" unicode="&#xfc;" horiz-adv-x="509" 
d="M453 0h-100v32q-47 -46 -112 -46q-50 0 -93 23.5t-65 63.5q-27 45 -27 131v239h100v-231q0 -66 16 -95q21 -39 78 -39q28 0 52 12t34 31q17 29 17 101v221h100v-443zM346 657q27 0 45.5 -18.5t18.5 -44.5q0 -27 -19 -45.5t-45 -18.5q-27 0 -45.5 19t-18.5 46
q0 25 19 43.5t45 18.5zM162 657q26 0 45 -18.5t19 -44.5q0 -27 -19 -45.5t-45 -18.5q-27 0 -45.5 18.5t-18.5 45.5q0 26 19 44.5t45 18.5z" />
    <glyph glyph-name="yacute" unicode="&#xfd;" horiz-adv-x="463" 
d="M375 644l-144 -145l-66 38l115 158zM64 -234l112 254l-182 423h108l127 -301l132 301h108l-300 -677h-105z" />
    <glyph glyph-name="thorn" unicode="&#xfe;" horiz-adv-x="546" 
d="M57 667h100v-262q67 52 136 52q92 0 158.5 -69.5t66.5 -166.5q0 -96 -66 -165.5t-158 -69.5q-70 0 -137 52v-272h-100v901zM286 366q-58 0 -93.5 -40.5t-35.5 -105.5q0 -64 36 -103.5t94 -39.5q57 0 93.5 40.5t36.5 103.5q0 64 -36.5 104.5t-94.5 40.5z" />
    <glyph glyph-name="ydieresis" unicode="&#xff;" horiz-adv-x="463" 
d="M323 657q26 0 45 -18.5t19 -44.5q0 -27 -19 -45.5t-45 -18.5q-27 0 -45.5 19t-18.5 46q0 25 19 43.5t45 18.5zM139 657q26 0 45 -18.5t19 -44.5q0 -27 -19 -45.5t-45 -18.5q-27 0 -45.5 18.5t-18.5 45.5q0 26 19 44.5t45 18.5zM64 -234l112 254l-182 423h108l127 -301
l132 301h108l-300 -677h-105z" />
    <glyph glyph-name="Amacron" unicode="&#x100;" horiz-adv-x="631" 
d="M172 172l-63 -172h-109l251 667h128l252 -667h-110l-63 172h-286zM207 268h215l-107 291zM166 835h299v-89h-299v89z" />
    <glyph glyph-name="amacron" unicode="&#x101;" horiz-adv-x="545" 
d="M489 0h-100v38q-68 -52 -136 -52q-92 0 -158.5 69.5t-66.5 166.5q0 96 66 165.5t158 69.5q68 0 137 -52v38h100v-443zM259 367q-57 0 -93.5 -40.5t-36.5 -104.5q0 -65 37 -105.5t95 -40.5t94 41t36 106q0 64 -37 104t-95 40zM121 635h299v-89h-299v89z" />
    <glyph glyph-name="Abreve" unicode="&#x102;" horiz-adv-x="631" 
d="M172 172l-63 -172h-109l251 667h128l252 -667h-110l-63 172h-286zM207 268h215l-107 291zM170 859l86 7q2 -37 7 -46q15 -33 50 -33q37 0 52 35q4 8 9 43l87 -7q-6 -49 -18 -75q-42 -81 -129 -81q-47 0 -84 25.5t-52 68.5q-7 18 -8 63z" />
    <glyph glyph-name="abreve" unicode="&#x103;" horiz-adv-x="545" 
d="M489 0h-100v38q-68 -52 -136 -52q-92 0 -158.5 69.5t-66.5 166.5q0 96 66 165.5t158 69.5q68 0 137 -52v38h100v-443zM259 367q-57 0 -93.5 -40.5t-36.5 -104.5q0 -65 37 -105.5t95 -40.5t94 41t36 106q0 64 -37 104t-95 40zM115 659l86 7q2 -34 7 -45q15 -33 50 -33
q36 0 53 35q5 14 9 43l86 -7q-6 -49 -18 -75q-42 -81 -129 -81q-47 0 -84 25t-52 68q-7 19 -8 63z" />
    <glyph glyph-name="Aogonek" unicode="&#x104;" horiz-adv-x="631" 
d="M251 667h128l252 -667l-5 -6q-31 -39 -31 -60q0 -14 18 -14q16 0 46 11l29 -74q-49 -19 -84 -19q-42 0 -71 26.5t-29 64.5q0 33 27 71h-10l-63 172h-286l-63 -172h-109zM207 268h215l-107 291z" />
    <glyph glyph-name="aogonek" unicode="&#x105;" horiz-adv-x="545" 
d="M389 0v38q-68 -52 -136 -52q-92 0 -158.5 69.5t-66.5 166.5q0 96 66 165.5t158 69.5q68 0 137 -52v38h100v-443q-2 -3 -6 -8q-30 -36 -30 -58q0 -14 18 -14q16 0 46 11l30 -74q-50 -19 -84 -19q-43 0 -72 26.5t-29 64.5q0 33 27 71zM259 367q-57 0 -93.5 -40.5
t-36.5 -104.5q0 -65 37 -105.5t95 -40.5t94 41t36 106q0 64 -37 104t-95 40z" />
    <glyph glyph-name="Cacute" unicode="&#x106;" horiz-adv-x="670" 
d="M640 562l-73 -70q-47 50 -88.5 70.5t-95.5 20.5q-103 0 -173 -72t-70 -178q0 -104 70.5 -176.5t172.5 -72.5q82 0 144 52q17 14 43 41l73 -71q-64 -64 -124 -92t-134 -28q-146 0 -248 101t-102 246t102 246.5t247 101.5q74 0 135 -28t121 -91zM536 844l-144 -145l-66 38
l115 158z" />
    <glyph glyph-name="cacute" unicode="&#x107;" horiz-adv-x="462" 
d="M444 371l-66 -65q-33 35 -57 48t-58 13q-60 0 -97 -40t-37 -105t37 -105.5t97 -40.5q35 0 61.5 14.5t56.5 50.5l66 -65q-43 -48 -86.5 -69t-97.5 -21q-100 0 -167.5 68t-67.5 168t67.5 167.5t166.5 67.5q53 0 96 -20t86 -66zM396 644l-145 -145l-66 38l115 158z" />
    <glyph glyph-name="Ccircumflex" unicode="&#x108;" horiz-adv-x="670" 
d="M640 562l-73 -70q-47 50 -88.5 70.5t-95.5 20.5q-103 0 -173 -72t-70 -178q0 -104 70.5 -176.5t172.5 -72.5q82 0 144 52q17 14 43 41l73 -71q-64 -64 -124 -92t-134 -28q-146 0 -248 101t-102 246t102 246.5t247 101.5q74 0 135 -28t121 -91zM373 788l-90 -88l-75 37
l131 143h68l130 -143l-75 -37z" />
    <glyph glyph-name="ccircumflex" unicode="&#x109;" horiz-adv-x="462" 
d="M444 371l-66 -65q-33 35 -57 48t-58 13q-60 0 -97 -40t-37 -105t37 -105.5t97 -40.5q35 0 61.5 14.5t56.5 50.5l66 -65q-43 -48 -86.5 -69t-97.5 -21q-100 0 -167.5 68t-67.5 168t67.5 167.5t166.5 67.5q53 0 96 -20t86 -66zM251 588l-90 -88l-74 37l130 143h68l131 -143
l-75 -37z" />
    <glyph glyph-name="Cdotaccent" unicode="&#x10a;" horiz-adv-x="670" 
d="M640 562l-73 -70q-47 50 -88.5 70.5t-95.5 20.5q-103 0 -173 -72t-70 -178q0 -104 70.5 -176.5t172.5 -72.5q82 0 144 52q17 14 43 41l73 -71q-64 -64 -124 -92t-134 -28q-146 0 -248 101t-102 246t102 246.5t247 101.5q74 0 135 -28t121 -91zM381 854q26 0 45 -18.5
t19 -44.5q0 -27 -19 -45.5t-45 -18.5q-27 0 -45.5 18.5t-18.5 45.5q0 26 19 44.5t45 18.5z" />
    <glyph glyph-name="cdotaccent" unicode="&#x10b;" horiz-adv-x="462" 
d="M444 371l-66 -65q-33 35 -57 48t-58 13q-60 0 -97 -40t-37 -105t37 -105.5t97 -40.5q35 0 61.5 14.5t56.5 50.5l66 -65q-43 -48 -86.5 -69t-97.5 -21q-100 0 -167.5 68t-67.5 168t67.5 167.5t166.5 67.5q53 0 96 -20t86 -66zM254 657q26 0 45 -18.5t19 -44.5
q0 -27 -19 -45.5t-45 -18.5q-27 0 -45.5 18.5t-18.5 45.5q0 26 19 44.5t45 18.5z" />
    <glyph glyph-name="Ccaron" unicode="&#x10c;" horiz-adv-x="670" 
d="M640 562l-73 -70q-47 50 -88.5 70.5t-95.5 20.5q-103 0 -173 -72t-70 -178q0 -104 70.5 -176.5t172.5 -72.5q82 0 144 52q17 14 43 41l73 -71q-64 -64 -124 -92t-134 -28q-146 0 -248 101t-102 246t102 246.5t247 101.5q74 0 135 -28t121 -91zM373 800l89 88l75 -37
l-130 -143h-68l-131 143l75 37z" />
    <glyph glyph-name="ccaron" unicode="&#x10d;" horiz-adv-x="462" 
d="M444 371l-66 -65q-33 35 -57 48t-58 13q-60 0 -97 -40t-37 -105t37 -105.5t97 -40.5q35 0 61.5 14.5t56.5 50.5l66 -65q-43 -48 -86.5 -69t-97.5 -21q-100 0 -167.5 68t-67.5 168t67.5 167.5t166.5 67.5q53 0 96 -20t86 -66zM251 600l90 88l75 -37l-131 -143h-68
l-130 143l74 37z" />
    <glyph glyph-name="Dcaron" unicode="&#x10e;" horiz-adv-x="619" 
d="M73 667h148q167 0 264.5 -89.5t97.5 -243.5t-97.5 -244t-264.5 -90h-148v667zM177 571v-475h47q118 0 186.5 64t68.5 174q0 109 -68.5 173t-186.5 64h-47zM291 800l89 88l75 -37l-130 -143h-68l-131 143l75 37z" />
    <glyph glyph-name="dcaron" unicode="&#x10f;" horiz-adv-x="664" 
d="M489 0h-100v38q-68 -52 -136 -52q-92 0 -158.5 69.5t-66.5 166.5q0 96 66 165.5t158 69.5q70 0 137 -52v262h100v-667zM258 366q-56 0 -92.5 -40.5t-36.5 -103.5q0 -64 36.5 -104.5t94.5 -40.5t93.5 40.5t35.5 105.5q0 64 -36.5 103.5t-94.5 39.5zM527 512l54 182l95 -28
l-76 -177z" />
    <glyph glyph-name="Dcroat" unicode="&#x110;" horiz-adv-x="631" 
d="M22 314v92h64v261h148q167 0 265 -89.5t98 -242.5q0 -154 -98 -244.5t-265 -90.5h-148v314h-64zM190 406h149v-92h-149v-218h47q119 0 187.5 64t68.5 175q0 109 -69 172.5t-187 63.5h-47v-165z" />
    <glyph glyph-name="dcroat" unicode="&#x111;" horiz-adv-x="546" 
d="M389 598v69h100v-69h58v-90h-58v-508h-100v38q-68 -52 -136 -52q-92 0 -158.5 69.5t-66.5 166.5q0 96 66.5 165.5t158.5 69.5q68 0 136 -52v103h-114v90h114zM258 366q-56 0 -92.5 -40.5t-36.5 -103.5q0 -64 36.5 -104.5t94.5 -40.5t93.5 40.5t35.5 105.5
q0 64 -36.5 103.5t-94.5 39.5z" />
    <glyph glyph-name="Emacron" unicode="&#x112;" horiz-adv-x="481" 
d="M435 571h-258v-185h230v-96h-230v-194h268v-96h-372v667h362v-96zM110 835h299v-89h-299v89z" />
    <glyph glyph-name="emacron" unicode="&#x113;" horiz-adv-x="494" 
d="M466 183h-335q10 -51 42.5 -79t81.5 -28q75 0 112 57q0 1 5 8q2 4 4 7l86 -36q-75 -126 -207 -126q-97 0 -162 67.5t-65 168.5q0 98 64 166.5t157 68.5q95 0 156 -69.5t61 -176.5v-28zM131 260h236q-28 108 -117 108q-46 0 -77 -28.5t-42 -79.5zM97 635h299v-89h-299v89z
" />
    <glyph glyph-name="Ebreve" unicode="&#x114;" horiz-adv-x="481" 
d="M435 571h-258v-185h230v-96h-230v-194h268v-96h-372v667h362v-96zM114 859l86 7q2 -37 7 -46q15 -33 50 -33t52 35q4 8 9 43l86 -7q-5 -49 -18 -75q-40 -81 -129 -81q-46 0 -83 25.5t-52 68.5q-8 21 -8 63z" />
    <glyph glyph-name="ebreve" unicode="&#x115;" horiz-adv-x="494" 
d="M466 183h-335q10 -51 42.5 -79t81.5 -28q75 0 112 57q0 1 5 8q2 4 4 7l86 -36q-75 -126 -207 -126q-97 0 -162 67.5t-65 168.5q0 98 64 166.5t157 68.5q95 0 156 -69.5t61 -176.5v-28zM131 260h236q-28 108 -117 108q-46 0 -77 -28.5t-42 -79.5zM103 659l86 7l1 -14
q3 -65 56 -65q37 0 52 35q4 9 9 44l87 -7q-7 -53 -19 -76q-41 -81 -128 -81q-47 0 -84 25.5t-52 68.5q-7 19 -8 63z" />
    <glyph glyph-name="Edotaccent" unicode="&#x116;" horiz-adv-x="481" 
d="M435 571h-258v-185h230v-96h-230v-194h268v-96h-372v667h362v-96zM259 854q26 0 45 -18.5t19 -44.5q0 -27 -19 -45.5t-46 -18.5q-26 0 -44.5 19t-18.5 46q0 25 19 43.5t45 18.5z" />
    <glyph glyph-name="edotaccent" unicode="&#x117;" horiz-adv-x="494" 
d="M466 183h-335q10 -51 42.5 -79t81.5 -28q75 0 112 57q0 1 5 8q2 4 4 7l86 -36q-75 -126 -207 -126q-97 0 -162 67.5t-65 168.5q0 98 64 166.5t157 68.5q95 0 156 -69.5t61 -176.5v-28zM131 260h236q-28 108 -117 108q-46 0 -77 -28.5t-42 -79.5zM246 657q26 0 45 -18.5
t19 -44.5q0 -27 -19 -45.5t-45 -18.5q-27 0 -45.5 18.5t-18.5 45.5q0 26 19 44.5t45 18.5z" />
    <glyph glyph-name="Eogonek" unicode="&#x118;" horiz-adv-x="481" 
d="M445 96v-96l-1 -2l-3 -3q-32 -39 -32 -61q0 -14 17 -14t47 11l30 -74q-50 -19 -85 -19q-42 0 -71 26.5t-29 64.5q0 35 28 71h-273v667h362v-96h-258v-185h230v-96h-230v-194h268z" />
    <glyph glyph-name="eogonek" unicode="&#x119;" horiz-adv-x="494" 
d="M376 148l86 -36q-61 -106 -169 -123q-28 -35 -28 -55q0 -14 18 -14q15 0 47 11l29 -75q-51 -18 -84 -18q-43 0 -72 26t-29 65q0 31 23 64q-75 18 -122 82t-47 147q0 98 64 166.5t157 68.5q95 0 156 -69.5t61 -176.5v-28h-335q10 -51 42.5 -79t81.5 -28q75 0 112 57
q0 1 5 8q2 4 4 7zM131 260h236q-28 108 -117 108q-46 0 -77 -28.5t-42 -79.5z" />
    <glyph glyph-name="Ecaron" unicode="&#x11a;" horiz-adv-x="481" 
d="M435 571h-258v-185h230v-96h-230v-194h268v-96h-372v667h362v-96zM259 800l90 88l75 -37l-130 -143h-69l-130 143l75 37z" />
    <glyph glyph-name="ecaron" unicode="&#x11b;" horiz-adv-x="494" 
d="M466 183h-335q10 -51 42.5 -79t81.5 -28q75 0 112 57q0 1 5 8q2 4 4 7l86 -36q-75 -126 -207 -126q-97 0 -162 67.5t-65 168.5q0 98 64 166.5t157 68.5q95 0 156 -69.5t61 -176.5v-28zM131 260h236q-28 108 -117 108q-46 0 -77 -28.5t-42 -79.5zM247 600l90 88l74 -37
l-130 -143h-68l-131 143l75 37z" />
    <glyph glyph-name="Gcircumflex" unicode="&#x11c;" horiz-adv-x="727" 
d="M392 359h297v-50q0 -146 -83.5 -234.5t-219.5 -88.5q-146 0 -248.5 101t-102.5 246t101.5 246.5t246.5 101.5q120 0 209 -74q12 -9 47 -44l-72 -70q-48 50 -89 70t-95 20q-103 0 -173 -72t-70 -178q0 -105 70.5 -177t173.5 -72q102 0 158 72q30 39 40 107h-190v96z
M369 788l-90 -88l-75 37l131 143h68l130 -143l-75 -37z" />
    <glyph glyph-name="gcircumflex" unicode="&#x11d;" horiz-adv-x="545" 
d="M489 443v-452q0 -106 -65.5 -172t-171.5 -66q-102 0 -172 64q-11 10 -41 45l65 65q8 -10 12 -14q35 -41 63 -55.5t71 -14.5q66 0 102.5 39t36.5 109v47q-56 -52 -132 -52q-95 0 -162 69t-67 167t67 166.5t162 68.5q73 0 132 -52v38h100zM259 367q-57 0 -93.5 -40.5
t-36.5 -104.5q0 -65 37 -105.5t95 -40.5q57 0 93 41t36 106q0 64 -36 104t-95 40zM259 588l-90 -88l-75 37l131 143h68l130 -143l-75 -37z" />
    <glyph glyph-name="Gbreve" unicode="&#x11e;" horiz-adv-x="727" 
d="M392 359h297v-50q0 -146 -83.5 -234.5t-219.5 -88.5q-146 0 -248.5 101t-102.5 246t101.5 246.5t246.5 101.5q120 0 209 -74q12 -9 47 -44l-72 -70q-48 50 -89 70t-95 20q-103 0 -173 -72t-70 -178q0 -105 70.5 -177t173.5 -72q102 0 158 72q30 39 40 107h-190v96z
M242 859l86 7l1 -14q3 -65 56 -65q37 0 52 35q4 8 9 43l87 -7q-6 -49 -18 -75q-42 -81 -129 -81q-47 0 -84 25.5t-52 68.5q-7 18 -8 63z" />
    <glyph glyph-name="gbreve" unicode="&#x11f;" horiz-adv-x="545" 
d="M489 443v-452q0 -106 -65.5 -172t-171.5 -66q-102 0 -172 64q-11 10 -41 45l65 65q8 -10 12 -14q35 -41 63 -55.5t71 -14.5q66 0 102.5 39t36.5 109v47q-56 -52 -132 -52q-95 0 -162 69t-67 167t67 166.5t162 68.5q73 0 132 -52v38h100zM259 367q-57 0 -93.5 -40.5
t-36.5 -104.5q0 -65 37 -105.5t95 -40.5q57 0 93 41t36 106q0 64 -36 104t-95 40zM115 659l87 7v-14q3 -65 57 -65q35 0 52 35q4 9 9 44l86 -7q-6 -53 -18 -76q-42 -81 -129 -81q-46 0 -83 25.5t-53 68.5q-7 18 -8 63z" />
    <glyph glyph-name="Gdotaccent" unicode="&#x120;" horiz-adv-x="727" 
d="M392 359h297v-50q0 -146 -83.5 -234.5t-219.5 -88.5q-146 0 -248.5 101t-102.5 246t101.5 246.5t246.5 101.5q120 0 209 -74q12 -9 47 -44l-72 -70q-48 50 -89 70t-95 20q-103 0 -173 -72t-70 -178q0 -105 70.5 -177t173.5 -72q102 0 158 72q30 39 40 107h-190v96z
M385 854q26 0 45 -18.5t19 -44.5q0 -27 -19 -45.5t-46 -18.5q-26 0 -44.5 19t-18.5 46q0 25 19 43.5t45 18.5z" />
    <glyph glyph-name="gdotaccent" unicode="&#x121;" horiz-adv-x="545" 
d="M489 443v-452q0 -106 -65.5 -172t-171.5 -66q-102 0 -172 64q-11 10 -41 45l65 65q8 -10 12 -14q35 -41 63 -55.5t71 -14.5q66 0 102.5 39t36.5 109v47q-56 -52 -132 -52q-95 0 -162 69t-67 167t67 166.5t162 68.5q73 0 132 -52v38h100zM259 367q-57 0 -93.5 -40.5
t-36.5 -104.5q0 -65 37 -105.5t95 -40.5q57 0 93 41t36 106q0 64 -36 104t-95 40zM259 657q26 0 45 -18.5t19 -44.5q0 -27 -19 -45.5t-45 -18.5q-27 0 -45.5 18.5t-18.5 45.5q0 26 19 44.5t45 18.5z" />
    <glyph glyph-name="Gcommaaccent" unicode="&#x122;" horiz-adv-x="727" 
d="M392 359h297v-50q0 -146 -83.5 -234.5t-219.5 -88.5q-146 0 -248.5 101t-102.5 246t101.5 246.5t246.5 101.5q120 0 209 -74q12 -9 47 -44l-72 -70q-48 50 -89 70t-95 20q-103 0 -173 -72t-70 -178q0 -105 70.5 -177t173.5 -72q102 0 158 72q30 39 40 107h-190v96z
M288 -213l54 182l96 -28l-76 -177z" />
    <glyph glyph-name="gcommaaccent" unicode="&#x123;" horiz-adv-x="545" 
d="M489 443v-452q0 -106 -65.5 -172t-171.5 -66q-102 0 -172 64q-11 10 -41 45l65 65q8 -10 12 -14q35 -41 63 -55.5t71 -14.5q66 0 102.5 39t36.5 109v47q-56 -52 -132 -52q-95 0 -162 69t-67 167t67 166.5t162 68.5q73 0 132 -52v38h100zM259 367q-57 0 -93.5 -40.5
t-36.5 -104.5q0 -65 37 -105.5t95 -40.5q57 0 93 41t36 106q0 64 -36 104t-95 40zM359 671l-54 -182l-96 29l76 176z" />
    <glyph glyph-name="Hcircumflex" unicode="&#x124;" horiz-adv-x="650" 
d="M73 667h104v-281h296v281h104v-667h-104v290h-296v-290h-104v667zM325 788l-90 -88l-74 37l130 143h68l130 -143l-74 -37z" />
    <glyph glyph-name="hcircumflex" unicode="&#x125;" horiz-adv-x="509" 
d="M56 667h100v-256q47 46 112 46q50 0 93 -23.5t65 -63.5q27 -45 27 -131v-239h-100v231q0 66 -16 95q-20 39 -78 39q-28 0 -52 -12t-34 -32q-17 -29 -17 -99v-222h-100v667zM258 788l-90 -88l-75 37l131 143h68l130 -143l-75 -37z" />
    <glyph glyph-name="Hbar" unicode="&#x126;" horiz-adv-x="649" 
d="M577 508v-508h-104v290h-296v-290h-104v508h-58v90h58v69h104v-69h296v69h104v-69h57v-90h-57zM473 508h-296v-122h296v122z" />
    <glyph glyph-name="hbar" unicode="&#x127;" horiz-adv-x="508" 
d="M154 508v-97q50 46 113 46q49 0 92 -23.5t65 -63.5q27 -45 27 -131v-239h-100v231q0 66 -16 95q-21 39 -77 39q-63 0 -87 -44q-17 -29 -17 -99v-222h-100v508h-58v90h58v69h100v-69h117v-90h-117z" />
    <glyph glyph-name="Itilde" unicode="&#x128;" horiz-adv-x="250" 
d="M177 667v-667h-104v667h104zM192 857l83 -20q-7 -108 -92 -108q-39 0 -73 21q-24 13 -37 13q-7 0 -9.5 -6.5t-7.5 -31.5l-81 19q11 108 93 108q32 0 75 -23q22 -11 35 -11q12 0 14 39z" />
    <glyph glyph-name="itilde" unicode="&#x129;" horiz-adv-x="213" 
d="M157 443v-443h-100v443h100zM174 657l83 -19q-7 -108 -92 -108q-38 0 -73 20q-24 13 -37 13q-7 0 -9.5 -6.5t-7.5 -31.5l-81 19q11 108 93 108q34 0 75 -22q22 -11 35 -11q12 0 14 38z" />
    <glyph glyph-name="Imacron" unicode="&#x12a;" horiz-adv-x="250" 
d="M178 667v-667h-104v667h104zM-24 835h299v-89h-299v89z" />
    <glyph glyph-name="imacron" unicode="&#x12b;" horiz-adv-x="213" 
d="M157 443v-443h-100v443h100zM-43 635h299v-89h-299v89z" />
    <glyph glyph-name="Ibreve" unicode="&#x12c;" horiz-adv-x="250" 
d="M178 667v-667h-104v667h104zM-20 859l86 7q2 -37 7 -46q15 -33 50 -33q36 0 53 35q5 13 8 43l87 -7q-6 -49 -18 -75q-42 -81 -129 -81q-47 0 -84 25.5t-52 68.5q-7 18 -8 63z" />
    <glyph glyph-name="ibreve" unicode="&#x12d;" horiz-adv-x="213" 
d="M156 443v-443h-100v443h100zM-39 659l86 7q2 -37 7 -46q15 -33 50 -33q36 0 53 35q5 13 8 44l87 -7q-6 -50 -18 -76q-42 -81 -129 -81q-47 0 -84 25.5t-52 68.5q-7 18 -8 63z" />
    <glyph glyph-name="Iogonek" unicode="&#x12e;" horiz-adv-x="250" 
d="M73 667h104v-667q-2 -2 -5 -6q-31 -39 -31 -60q0 -14 18 -14q17 0 46 11l30 -74q-50 -19 -84 -19q-43 0 -72 26.5t-29 64.5q0 33 27 71h-4v667z" />
    <glyph glyph-name="iogonek" unicode="&#x12f;" horiz-adv-x="213" 
d="M157 443v-443q-1 -1 -1.5 -2t-2 -3t-2.5 -3q-30 -38 -30 -58q0 -14 18 -14q17 0 46 11l30 -75q-51 -18 -84 -18q-43 0 -72 26t-29 65q0 33 27 71v443h100zM107 657q27 0 46 -18.5t19 -45.5t-19 -45.5t-46 -18.5t-45.5 19t-18.5 46q0 26 19 44.5t45 18.5z" />
    <glyph glyph-name="Idotaccent" unicode="&#x130;" horiz-adv-x="250" 
d="M177 667v-667h-104v667h104zM125 854q26 0 45 -18.5t19 -44.5t-19 -45t-45 -19q-27 0 -45.5 18.5t-18.5 45.5q0 26 19 44.5t45 18.5z" />
    <glyph glyph-name="dotlessi" unicode="&#x131;" horiz-adv-x="213" 
d="M157 443v-443h-100v443h100z" />
    <glyph glyph-name="IJ" unicode="&#x132;" horiz-adv-x="658" 
d="M177 667v-667h-104v667h104zM584 667v-462q0 -87 -28 -139q-21 -37 -60.5 -58.5t-86.5 -21.5t-86 19t-85 64l65 75q56 -60 105 -60q72 0 72 121v462h104z" />
    <glyph glyph-name="ij" unicode="&#x133;" horiz-adv-x="433" 
d="M157 443v-443h-100v443h100zM106 657q27 0 46 -18.5t19 -45.5q0 -26 -19 -45t-45 -19q-28 0 -46.5 19t-18.5 46q0 26 19 44.5t45 18.5zM325 657q27 0 46 -18.5t19 -45.5t-19 -45.5t-46 -18.5t-45.5 19t-18.5 46q0 26 19 44.5t45 18.5zM200 -232v93q32 -9 47 -9
q29 0 29 53v538h100v-538q0 -70 -30 -108.5t-86 -38.5q-26 0 -60 10z" />
    <glyph glyph-name="Jcircumflex" unicode="&#x134;" horiz-adv-x="416" 
d="M343 667v-462q0 -87 -28 -139q-21 -37 -60.5 -58.5t-86.5 -21.5t-86 19t-85 64l65 75q56 -60 105 -60q72 0 72 121v462h104zM254 788l-90 -88l-74 37l130 143h68l131 -143l-75 -37z" />
    <glyph glyph-name="jcircumflex" unicode="&#x135;" horiz-adv-x="223" 
d="M-10 -232v93q32 -9 46 -9q30 0 30 53v538h100v-538q0 -70 -30.5 -108.5t-85.5 -38.5q-26 0 -60 10zM103 588l-89 -88l-75 37l130 143h68l131 -143l-75 -37z" />
    <glyph glyph-name="Kcommaaccent" unicode="&#x136;" horiz-adv-x="584" 
d="M231 -213l54 182l96 -28l-76 -177zM323 386l259 -386h-122l-207 310l-76 -83v-227h-104v667h104v-300l276 300h129z" />
    <glyph glyph-name="kcommaaccent" unicode="&#x137;" horiz-adv-x="476" 
d="M278 259l203 -259h-123l-148 192l-54 -52v-140h-100v667h100v-401l178 177h131zM161 -213l54 182l96 -28l-76 -177z" />
    <glyph glyph-name="kgreenlandic" unicode="&#x138;" horiz-adv-x="476" 
d="M278 259l203 -259h-123l-148 192l-54 -52v-140h-100v443h100v-177l178 177h131z" />
    <glyph glyph-name="Lacute" unicode="&#x139;" horiz-adv-x="426" 
d="M177 667v-571h249v-96h-353v667h104zM275 844l-144 -145l-66 38l115 158z" />
    <glyph glyph-name="lacute" unicode="&#x13a;" horiz-adv-x="214" 
d="M157 0h-100v667h100v-667zM259 855l-144 -144l-66 37l115 159z" />
    <glyph glyph-name="Lcommaaccent" unicode="&#x13b;" horiz-adv-x="432" 
d="M177 667v-571h249v-96h-353v667h104zM182 -213l54 182l95 -28l-76 -177z" />
    <glyph glyph-name="lcommaaccent" unicode="&#x13c;" horiz-adv-x="214" 
d="M157 0h-100v667h100v-667zM16 -213l54 182l95 -28l-76 -177z" />
    <glyph glyph-name="Lcaron" unicode="&#x13d;" horiz-adv-x="432" 
d="M177 667v-571h249v-96h-353v667h104zM250 505l54 182l95 -29l-76 -176z" />
    <glyph glyph-name="lcaron" unicode="&#x13e;" horiz-adv-x="332" 
d="M157 0h-100v667h100v-667zM195 512l54 182l95 -28l-76 -177z" />
    <glyph glyph-name="Ldot" unicode="&#x13f;" horiz-adv-x="432" 
d="M331 396q27 0 45.5 -18.5t18.5 -44.5t-18.5 -44.5t-45.5 -18.5t-45.5 18.5t-18.5 45.5q0 25 19 43.5t45 18.5zM177 667v-571h249v-96h-353v667h104z" />
    <glyph glyph-name="ldot" unicode="&#x140;" horiz-adv-x="355" 
d="M157 0h-100v667h100v-667zM284 396q27 0 45.5 -18.5t18.5 -44.5t-18.5 -44.5t-46.5 -18.5q-26 0 -44.5 18.5t-18.5 45.5q0 25 19 43.5t45 18.5z" />
    <glyph glyph-name="Lslash" unicode="&#x141;" horiz-adv-x="444" 
d="M86 364v303h104v-241l110 73v-107l-110 -73v-223h249v-96h-353v256l-64 -43v108z" />
    <glyph glyph-name="lslash" unicode="&#x142;" horiz-adv-x="260" 
d="M80 0v264l-62 -42v109l62 42v294h100v-227l62 41v-109l-62 -41v-331h-100z" />
    <glyph glyph-name="Nacute" unicode="&#x143;" horiz-adv-x="708" 
d="M73 0v667h92l366 -491v491h104v-667h-92l-366 491v-491h-104zM510 844l-144 -145l-66 38l115 158z" />
    <glyph glyph-name="nacute" unicode="&#x144;" horiz-adv-x="509" 
d="M56 443h100v-32q47 46 113 46q49 0 92 -23.5t65 -63.5q27 -45 27 -131v-239h-100v231q0 66 -16 95q-21 39 -78 39q-28 0 -52 -12t-34 -32q-17 -29 -17 -99v-222h-100v443zM412 644l-144 -145l-66 38l115 158z" />
    <glyph glyph-name="Ncommaaccent" unicode="&#x145;" horiz-adv-x="708" 
d="M73 0v667h92l366 -491v491h104v-667h-92l-366 491v-491h-104zM280 -213l54 182l95 -28l-76 -177z" />
    <glyph glyph-name="ncommaaccent" unicode="&#x146;" horiz-adv-x="509" 
d="M56 443h100v-32q47 46 113 46q49 0 92 -23.5t65 -63.5q27 -45 27 -131v-239h-100v231q0 66 -16 95q-21 39 -78 39q-28 0 -52 -12t-34 -32q-17 -29 -17 -99v-222h-100v443zM181 -213l54 182l95 -28l-76 -177z" />
    <glyph glyph-name="Ncaron" unicode="&#x147;" horiz-adv-x="708" 
d="M73 0v667h92l366 -491v491h104v-667h-92l-366 491v-491h-104zM370 800l90 88l75 -37l-130 -143h-69l-130 143l75 37z" />
    <glyph glyph-name="ncaron" unicode="&#x148;" horiz-adv-x="509" 
d="M56 443h100v-32q47 46 113 46q49 0 92 -23.5t65 -63.5q27 -45 27 -131v-239h-100v231q0 66 -16 95q-21 39 -78 39q-28 0 -52 -12t-34 -32q-17 -29 -17 -99v-222h-100v443zM259 600l90 88l75 -37l-131 -143h-68l-130 143l75 37z" />
    <glyph glyph-name="napostrophe" unicode="&#x149;" horiz-adv-x="599" 
d="M146 443h100v-32q47 46 112 46q50 0 93 -23.5t65 -63.5q27 -45 27 -131v-239h-100v231q0 66 -16 95q-21 39 -78 39q-28 0 -52 -12t-34 -32q-17 -29 -17 -99v-222h-100v443zM84 673l91 -33l-111 -250l-71 29z" />
    <glyph glyph-name="Eng" unicode="&#x14a;" horiz-adv-x="708" 
d="M635 667v-670q0 -71 -30 -109.5t-86 -38.5q-24 0 -60 9v94q32 -9 46 -9q30 0 30 53v15l-358 480v-491h-104v667h92l366 -491v491h104z" />
    <glyph glyph-name="eng" unicode="&#x14b;" horiz-adv-x="509" 
d="M56 0v443h100v-32q47 46 113 46q49 0 92 -23.5t65 -63.5q27 -45 27 -131v-251q0 -65 -31 -102t-85 -37q-24 0 -60 9v94q32 -9 47 -9q29 0 29 52v236q0 66 -16 95q-21 39 -77 39q-29 0 -53 -12t-34 -32q-17 -29 -17 -99v-222h-100z" />
    <glyph glyph-name="Omacron" unicode="&#x14c;" horiz-adv-x="762" 
d="M381 681q142 0 244 -102.5t102 -245.5q0 -142 -102 -244.5t-243 -102.5q-145 0 -246 102.5t-101 249.5q0 139 103 241t243 102zM379 583q-100 0 -169.5 -73.5t-69.5 -180.5q0 -100 71.5 -172.5t169.5 -72.5q99 0 170 73t71 176q0 105 -70.5 177.5t-172.5 72.5zM231 835
h299v-89h-299v89z" />
    <glyph glyph-name="omacron" unicode="&#x14d;" horiz-adv-x="522" 
d="M264 457q96 0 163 -68.5t67 -166.5q0 -100 -67.5 -168t-165.5 -68t-165.5 68t-67.5 168t68 167.5t168 67.5zM259 367q-57 0 -93.5 -40.5t-36.5 -104.5q0 -65 37 -105.5t95 -40.5q59 0 95.5 41t36.5 106q0 64 -37 104t-97 40zM112 635h299v-89h-299v89z" />
    <glyph glyph-name="Obreve" unicode="&#x14e;" horiz-adv-x="762" 
d="M381 681q142 0 244 -102.5t102 -245.5q0 -142 -102 -244.5t-243 -102.5q-145 0 -246 102.5t-101 249.5q0 139 103 241t243 102zM379 583q-100 0 -169.5 -73.5t-69.5 -180.5q0 -100 71.5 -172.5t169.5 -72.5q99 0 170 73t71 176q0 105 -70.5 177.5t-172.5 72.5zM236 859
l86 7l1 -14q3 -65 56 -65q35 0 52 35q4 9 9 43l86 -7q-6 -52 -18 -75q-40 -81 -129 -81q-46 0 -83 25.5t-53 68.5q-7 22 -7 63z" />
    <glyph glyph-name="obreve" unicode="&#x14f;" horiz-adv-x="522" 
d="M264 457q96 0 163 -68.5t67 -166.5q0 -100 -67.5 -168t-165.5 -68t-165.5 68t-67.5 168t68 167.5t168 67.5zM259 367q-57 0 -93.5 -40.5t-36.5 -104.5q0 -65 37 -105.5t95 -40.5q59 0 95.5 41t36.5 106q0 64 -37 104t-97 40zM116 659l86 7q1 -7 1 -14q3 -65 56 -65
q37 0 52 35q4 9 9 44l87 -7q-6 -50 -18 -76q-42 -81 -129 -81q-47 0 -84 25.5t-52 68.5q-7 18 -8 63z" />
    <glyph glyph-name="Ohungarumlaut" unicode="&#x150;" horiz-adv-x="762" 
d="M381 681q142 0 244 -102.5t102 -245.5q0 -142 -102 -244.5t-243 -102.5q-145 0 -246 102.5t-101 249.5q0 139 103 241t243 102zM379 583q-100 0 -169.5 -73.5t-69.5 -180.5q0 -100 71.5 -172.5t169.5 -72.5q99 0 170 73t71 176q0 105 -70.5 177.5t-172.5 72.5zM455 846
l-146 -147l-57 38l115 158zM598 844l-144 -145l-58 36l117 160z" />
    <glyph glyph-name="ohungarumlaut" unicode="&#x151;" horiz-adv-x="524" 
d="M265 457q95 0 162 -68.5t67 -166.5q0 -100 -67.5 -168t-165.5 -68q-99 0 -166 68.5t-67 169.5q0 99 68 166t169 67zM259 367q-57 0 -93.5 -40.5t-36.5 -104.5q0 -65 37 -105.5t95 -40.5q59 0 95.5 41t36.5 106q0 64 -37 104t-97 40zM345 646l-146 -147l-56 38l115 158z
M489 644l-144 -145l-59 36l117 160z" />
    <glyph glyph-name="OE" unicode="&#x152;" horiz-adv-x="1029" 
d="M621 580v87h363v-96h-259v-185h230v-96h-230v-194h268v-96h-372v87q-104 -101 -238 -101q-144 0 -246 102t-102 245t102.5 245.5t245.5 102.5q132 0 238 -101zM379 583q-100 0 -169.5 -73.5t-69.5 -180.5q0 -100 71.5 -173t168.5 -73q100 0 170.5 73.5t70.5 176.5
q0 104 -70.5 177t-171.5 73z" />
    <glyph glyph-name="oe" unicode="&#x153;" horiz-adv-x="860" 
d="M742 148l86 -36q-76 -126 -208 -126q-112 0 -177 87q-68 -87 -181 -87q-99 0 -166.5 68t-67.5 168q0 99 67.5 167t166.5 68q113 0 181 -87q69 87 171 87q95 0 156.5 -69t61.5 -176q0 -9 -1 -29h-335q11 -51 43.5 -79t81.5 -28q76 0 112 57zM259 367q-57 0 -93.5 -40.5
t-36.5 -104.5q0 -65 37 -105.5t95 -40.5q59 0 96 41t37 106q0 64 -37.5 104t-97.5 40zM496 260h236q-26 108 -117 108q-45 0 -77 -28.5t-42 -79.5z" />
    <glyph glyph-name="Racute" unicode="&#x154;" horiz-adv-x="547" 
d="M400 844l-144 -145l-66 38l115 158zM369 285l160 -285h-117l-144 260q-34 -2 -47 -2h-44v-258h-104v667h148q100 0 154 -31q46 -26 72.5 -73.5t26.5 -102.5q0 -57 -28 -103.5t-77 -71.5zM177 352h52q63 0 95 18q48 27 48 91q0 66 -49 93q-30 18 -94 18h-52v-220z" />
    <glyph glyph-name="racute" unicode="&#x155;" horiz-adv-x="302" 
d="M56 443h100v-36q27 23 46 30.5t49 7.5q3 0 37 -2v-89q-20 1 -35 1q-59 0 -81 -40q-16 -31 -16 -102v-213h-100v443zM292 644l-145 -145l-66 38l115 158z" />
    <glyph glyph-name="Rcommaaccent" unicode="&#x156;" horiz-adv-x="547" 
d="M203 -213l54 182l95 -28l-76 -177zM369 285l160 -285h-117l-144 260q-34 -2 -47 -2h-44v-258h-104v667h148q100 0 154 -31q46 -26 72.5 -73.5t26.5 -102.5q0 -57 -28 -103.5t-77 -71.5zM177 352h52q63 0 95 18q48 27 48 91q0 66 -49 93q-30 18 -94 18h-52v-220z" />
    <glyph glyph-name="rcommaaccent" unicode="&#x157;" horiz-adv-x="303" 
d="M56 443h100v-36q27 23 46 30.5t49 7.5q3 0 37 -2v-89q-20 1 -35 1q-59 0 -81 -40q-16 -31 -16 -102v-213h-100v443zM12 -213l54 182l95 -28l-76 -177z" />
    <glyph glyph-name="Rcaron" unicode="&#x158;" horiz-adv-x="547" 
d="M259 800l89 88l75 -37l-130 -143h-68l-131 143l75 37zM369 285l160 -285h-117l-144 260q-34 -2 -47 -2h-44v-258h-104v667h148q100 0 154 -31q46 -26 72.5 -73.5t26.5 -102.5q0 -57 -28 -103.5t-77 -71.5zM177 352h52q63 0 95 18q48 27 48 91q0 66 -49 93q-30 18 -94 18
h-52v-220z" />
    <glyph glyph-name="rcaron" unicode="&#x159;" horiz-adv-x="300" 
d="M56 443h100v-36q27 23 46 30.5t49 7.5q3 0 37 -2v-89q-20 1 -35 1q-59 0 -81 -40q-16 -31 -16 -102v-213h-100v443zM172 600l90 88l75 -37l-131 -143h-68l-130 143l75 37z" />
    <glyph glyph-name="Sacute" unicode="&#x15a;" horiz-adv-x="515" 
d="M463 559l-84 -53q-29 44 -53.5 61t-60.5 17q-43 0 -72 -26.5t-29 -66.5q0 -54 85 -86l63 -25q161 -61 161 -184q0 -88 -64 -149t-157 -61q-108 0 -170 78q-33 42 -49 114l101 27l4 -16q26 -106 115 -106q49 0 82 32.5t33 79.5q0 32 -23 54.5t-79 44.5l-61 23
q-144 56 -144 175q0 81 59 135t148 54q64 0 110 -29t85 -93zM414 844l-144 -145l-66 38l115 158z" />
    <glyph glyph-name="sacute" unicode="&#x15b;" horiz-adv-x="380" 
d="M23 116l82 33q21 -41 39.5 -57t46.5 -16q27 0 44 15t17 40q0 17 -12.5 27.5t-51.5 25.5l-45 18q-97 36 -97 119q0 58 43.5 97t107.5 39q97 0 148 -97l-78 -39q-18 27 -33.5 37.5t-37.5 10.5q-25 0 -40 -12.5t-15 -32.5q0 -17 11.5 -26.5t51.5 -25.5l42 -16
q106 -40 106 -121q0 -63 -46.5 -106t-115.5 -43q-119 0 -167 130zM336 644l-144 -145l-66 38l115 158z" />
    <glyph glyph-name="Scircumflex" unicode="&#x15c;" horiz-adv-x="515" 
d="M463 559l-84 -53q-29 44 -53.5 61t-60.5 17q-43 0 -72 -26.5t-29 -66.5q0 -54 85 -86l63 -25q161 -61 161 -184q0 -88 -64 -149t-157 -61q-108 0 -170 78q-33 42 -49 114l101 27l4 -16q26 -106 115 -106q49 0 82 32.5t33 79.5q0 32 -23 54.5t-79 44.5l-61 23
q-144 56 -144 175q0 81 59 135t148 54q64 0 110 -29t85 -93zM254 788l-89 -88l-75 37l130 143h68l131 -143l-75 -37z" />
    <glyph glyph-name="scircumflex" unicode="&#x15d;" horiz-adv-x="386" 
d="M23 116l82 33q21 -41 39.5 -57t46.5 -16q27 0 44 15t17 40q0 17 -12.5 27.5t-51.5 25.5l-45 18q-97 36 -97 119q0 58 43.5 97t107.5 39q97 0 148 -97l-78 -39q-18 27 -33.5 37.5t-37.5 10.5q-25 0 -40 -12.5t-15 -32.5q0 -17 11.5 -26.5t51.5 -25.5l42 -16
q106 -40 106 -121q0 -63 -46.5 -106t-115.5 -43q-119 0 -167 130zM190 588l-90 -88l-74 37l130 143h68l130 -143l-74 -37z" />
    <glyph glyph-name="Scedilla" unicode="&#x15e;" horiz-adv-x="515" 
d="M463 559l-84 -53q-29 44 -53.5 61t-60.5 17q-43 0 -72 -26.5t-29 -66.5q0 -54 85 -86l63 -25q161 -61 161 -184q0 -88 -64 -149t-157 -61q-108 0 -170 78q-33 42 -49 114l101 27l4 -16q26 -106 115 -106q49 0 82 32.5t33 79.5q0 32 -23 54.5t-79 44.5l-61 23
q-144 56 -144 175q0 81 59 135t148 54q64 0 110 -29t85 -93zM258 -30l92 -40l-118 -150l-71 36z" />
    <glyph glyph-name="scedilla" unicode="&#x15f;" horiz-adv-x="380" 
d="M23 116l82 33q21 -41 39.5 -57t46.5 -16q27 0 44 15t17 40q0 17 -12.5 27.5t-51.5 25.5l-45 18q-97 36 -97 119q0 58 43.5 97t107.5 39q97 0 148 -97l-78 -39q-18 27 -33.5 37.5t-37.5 10.5q-25 0 -40 -12.5t-15 -32.5q0 -17 11.5 -26.5t51.5 -25.5l42 -16
q106 -40 106 -121q0 -63 -46.5 -106t-115.5 -43q-119 0 -167 130zM186 -30l91 -40l-118 -150l-71 36z" />
    <glyph glyph-name="Scaron" unicode="&#x160;" horiz-adv-x="515" 
d="M463 559l-84 -53q-29 44 -53.5 61t-60.5 17q-43 0 -72 -26.5t-29 -66.5q0 -54 85 -86l63 -25q161 -61 161 -184q0 -88 -64 -149t-157 -61q-108 0 -170 78q-33 42 -49 114l101 27l4 -16q26 -106 115 -106q49 0 82 32.5t33 79.5q0 32 -23 54.5t-79 44.5l-61 23
q-144 56 -144 175q0 81 59 135t148 54q64 0 110 -29t85 -93zM254 800l90 88l75 -37l-131 -143h-68l-130 143l75 37z" />
    <glyph glyph-name="scaron" unicode="&#x161;" horiz-adv-x="386" 
d="M23 116l82 33q21 -41 39.5 -57t46.5 -16q27 0 44 15t17 40q0 17 -12.5 27.5t-51.5 25.5l-45 18q-97 36 -97 119q0 58 43.5 97t107.5 39q97 0 148 -97l-78 -39q-18 27 -33.5 37.5t-37.5 10.5q-25 0 -40 -12.5t-15 -32.5q0 -17 11.5 -26.5t51.5 -25.5l42 -16
q106 -40 106 -121q0 -63 -46.5 -106t-115.5 -43q-119 0 -167 130zM190 600l90 88l74 -37l-130 -143h-68l-130 143l74 37z" />
    <glyph glyph-name="Tcommaaccent" unicode="&#x162;" horiz-adv-x="436" 
d="M436 571h-166v-571h-104v571h-166v96h436v-96zM129 -213l54 182l95 -28l-76 -177z" />
    <glyph glyph-name="tcommaaccent" unicode="&#x163;" horiz-adv-x="260" 
d="M232 443v-90h-69v-213q0 -54 29 -54q14 0 47 9v-93q-36 -10 -60 -10q-56 0 -86 38.5t-30 109.5v213h-48v90h48v98l100 40v-138h69zM53 -213l54 182l95 -28l-76 -177z" />
    <glyph glyph-name="Tcaron" unicode="&#x164;" horiz-adv-x="436" 
d="M436 571h-166v-571h-104v571h-166v96h436v-96zM218 800l90 88l74 -37l-130 -143h-68l-130 143l74 37z" />
    <glyph glyph-name="tcaron" unicode="&#x165;" horiz-adv-x="337" 
d="M232 443v-90h-69v-213q0 -54 29 -54q14 0 47 9v-93q-36 -10 -60 -10q-56 0 -86 38.5t-30 109.5v213h-48v90h48v98l100 40v-138h69zM200 512l54 182l95 -28l-76 -177z" />
    <glyph glyph-name="Tbar" unicode="&#x166;" horiz-adv-x="436" 
d="M372 351h-102v-351h-104v351h-102v92h102v128h-166v96h436v-96h-166v-128h102v-92z" />
    <glyph glyph-name="tbar" unicode="&#x167;" horiz-adv-x="260" 
d="M239 95v-93q-36 -10 -60 -10q-56 0 -86 38.5t-30 108.5v90h-48v89h48v36h-48v89h48v98l100 40v-138h69v-89h-69v-36h69v-89h-69v-90q0 -53 29 -53q14 0 47 9z" />
    <glyph glyph-name="Utilde" unicode="&#x168;" horiz-adv-x="638" 
d="M73 667h104v-411q0 -79 17 -109q17 -28 51.5 -45.5t72.5 -17.5q39 0 73.5 17.5t51.5 45.5q17 30 17 109v411h104v-430q0 -83 -29 -134q-32 -53 -90.5 -85t-125.5 -32q-68 0 -126.5 32t-90.5 85q-29 51 -29 134v430zM386 857l83 -20q-9 -108 -92 -108q-38 0 -74 21
q-23 13 -36 13q-7 0 -10 -7t-7 -31l-81 19q11 108 93 108q32 0 75 -23q20 -11 35 -11q7 0 9.5 7.5t4.5 31.5z" />
    <glyph glyph-name="utilde" unicode="&#x169;" horiz-adv-x="509" 
d="M453 0h-100v32q-47 -46 -112 -46q-50 0 -93 23.5t-65 63.5q-27 45 -27 131v239h100v-231q0 -66 16 -95q21 -39 78 -39q28 0 52 12t34 31q17 29 17 101v221h100v-443zM322 657l82 -19q-8 -108 -91 -108q-39 0 -74 20q-24 13 -37 13q-10 0 -17 -38l-81 19q11 108 94 108
q34 0 75 -22q20 -11 35 -11q10 0 14 38z" />
    <glyph glyph-name="Umacron" unicode="&#x16a;" horiz-adv-x="638" 
d="M73 667h104v-411q0 -79 17 -109q17 -28 51.5 -45.5t72.5 -17.5q39 0 73.5 17.5t51.5 45.5q17 30 17 109v411h104v-430q0 -83 -29 -134q-32 -53 -90.5 -85t-125.5 -32q-68 0 -126.5 32t-90.5 85q-29 51 -29 134v430zM169 835h299v-89h-299v89z" />
    <glyph glyph-name="umacron" unicode="&#x16b;" horiz-adv-x="509" 
d="M453 0h-100v32q-47 -46 -112 -46q-50 0 -93 23.5t-65 63.5q-27 45 -27 131v239h100v-231q0 -66 16 -95q21 -39 78 -39q28 0 52 12t34 31q17 29 17 101v221h100v-443zM105 635h299v-89h-299v89z" />
    <glyph glyph-name="Ubreve" unicode="&#x16c;" horiz-adv-x="638" 
d="M73 667h104v-411q0 -79 17 -109q17 -28 51.5 -45.5t72.5 -17.5q39 0 73.5 17.5t51.5 45.5q17 30 17 109v411h104v-430q0 -83 -29 -134q-32 -53 -90.5 -85t-125.5 -32q-68 0 -126.5 32t-90.5 85q-29 51 -29 134v430zM173 859l87 7q1 -35 6 -46q15 -33 51 -33q35 0 52 35
q4 8 9 43l86 -7q-6 -52 -18 -75q-42 -81 -129 -81q-46 0 -83 25.5t-53 68.5q-7 18 -8 63z" />
    <glyph glyph-name="ubreve" unicode="&#x16d;" horiz-adv-x="509" 
d="M453 0h-100v32q-47 -46 -112 -46q-50 0 -93 23.5t-65 63.5q-27 45 -27 131v239h100v-231q0 -66 16 -95q21 -39 78 -39q28 0 52 12t34 31q17 29 17 101v221h100v-443zM109 659l86 7q2 -37 7 -46q15 -33 50 -33q37 0 52 35q4 9 9 44l87 -7q-6 -50 -18 -76q-42 -81 -129 -81
q-47 0 -84 25.5t-52 68.5q-7 18 -8 63z" />
    <glyph glyph-name="Uring" unicode="&#x16e;" horiz-adv-x="638" 
d="M73 667h104v-411q0 -79 17 -109q17 -28 51.5 -45.5t72.5 -17.5q39 0 73.5 17.5t51.5 45.5q17 30 17 109v411h104v-430q0 -83 -29 -134q-32 -53 -90.5 -85t-125.5 -32q-68 0 -126.5 32t-90.5 85q-29 51 -29 134v430zM318 891q43 0 73 -29.5t30 -70.5q0 -42 -30 -71.5
t-72 -29.5q-43 0 -73 29.5t-30 72.5q0 40 30.5 69.5t71.5 29.5zM318 842q-21 0 -36 -15t-15 -37q0 -21 15.5 -36t35.5 -15q22 0 37 15t15 37q0 21 -15 36t-37 15z" />
    <glyph glyph-name="uring" unicode="&#x16f;" horiz-adv-x="509" 
d="M453 0h-100v32q-47 -46 -112 -46q-50 0 -93 23.5t-65 63.5q-27 45 -27 131v239h100v-231q0 -66 16 -95q21 -39 78 -39q28 0 52 12t34 31q17 29 17 101v221h100v-443zM254 691q43 0 73 -29.5t30 -70.5q0 -42 -30 -71.5t-72 -29.5q-43 0 -73 29.5t-30 72.5q0 40 30.5 69.5
t71.5 29.5zM254 642q-21 0 -36 -15t-15 -37q0 -21 15.5 -36t35.5 -15q22 0 37 15t15 37q0 21 -15 36t-37 15z" />
    <glyph glyph-name="Uhungarumlaut" unicode="&#x170;" horiz-adv-x="638" 
d="M73 667h104v-411q0 -79 17 -109q17 -28 51.5 -45.5t72.5 -17.5q39 0 73.5 17.5t51.5 45.5q17 30 17 109v411h104v-430q0 -83 -29 -134q-32 -53 -90.5 -85t-125.5 -32q-68 0 -126.5 32t-90.5 85q-29 51 -29 134v430zM383 846l-146 -147l-57 38l115 158zM526 844l-144 -145
l-58 36l117 160z" />
    <glyph glyph-name="uhungarumlaut" unicode="&#x171;" horiz-adv-x="509" 
d="M453 0h-100v32q-47 -46 -112 -46q-50 0 -93 23.5t-65 63.5q-27 45 -27 131v239h100v-231q0 -66 16 -95q21 -39 78 -39q28 0 52 12t34 31q17 29 17 101v221h100v-443zM324 646l-147 -147l-56 38l115 158zM467 644l-144 -145l-58 36l116 160z" />
    <glyph glyph-name="Uogonek" unicode="&#x172;" horiz-adv-x="638" 
d="M569 667v-430q3 -96 -46 -158.5t-144 -85.5q-29 -40 -29 -59q0 -14 18 -14q17 0 46 11l29 -74q-50 -19 -84 -19q-43 0 -71.5 26.5t-28.5 64.5q0 30 20 61q-99 20 -152 84.5t-49 162.5v430h104v-411q0 -79 17 -109q17 -28 51.5 -45.5t72.5 -17.5t73.5 17.5t51.5 45.5
q17 30 17 109v411h104z" />
    <glyph glyph-name="uogonek" unicode="&#x173;" horiz-adv-x="509" 
d="M453 443v-443q-2 -3 -6 -8q-30 -36 -30 -58q0 -14 18 -14q16 0 46 11l30 -74q-50 -19 -85 -19q-42 0 -71 26.5t-29 64.5q0 33 27 71v32q-47 -46 -112 -46q-50 0 -93 23.5t-65 63.5q-27 45 -27 131v239h100v-231q0 -66 16 -95q21 -39 78 -39q28 0 52 12t34 31
q17 29 17 101v221h100z" />
    <glyph glyph-name="Wcircumflex" unicode="&#x174;" horiz-adv-x="878" 
d="M108 667l141 -493l146 493h88l146 -493l141 493h108l-200 -667h-50h-48l-141 474l-141 -474h-48h-50l-200 667h108zM439 788l-90 -88l-75 37l131 143h68l130 -143l-75 -37z" />
    <glyph glyph-name="wcircumflex" unicode="&#x175;" horiz-adv-x="664" 
d="M332 588l-90 -88l-74 37l130 143h68l130 -143l-74 -37zM101 443l96 -282l95 282h80l96 -282l96 282h106l-163 -443h-80l-95 279l-95 -279h-80l-163 443h107z" />
    <glyph glyph-name="Ycircumflex" unicode="&#x176;" horiz-adv-x="529" 
d="M535 667l-219 -390v-277h-104v277l-219 390h115l156 -286l157 286h114zM264 788l-89 -88l-75 37l130 143h68l131 -143l-75 -37z" />
    <glyph glyph-name="ycircumflex" unicode="&#x177;" horiz-adv-x="463" 
d="M232 588l-89 -88l-75 37l130 143h68l131 -143l-75 -37zM64 -234l112 254l-182 423h108l127 -301l132 301h108l-300 -677h-105z" />
    <glyph glyph-name="Ydieresis" unicode="&#x178;" horiz-adv-x="529" 
d="M535 667l-219 -390v-277h-104v277l-219 390h115l156 -286l157 286h114zM356 854q26 0 45 -18.5t19 -44.5t-19 -45t-45 -19q-27 0 -45.5 18.5t-18.5 45.5q0 26 19 44.5t45 18.5zM172 854q26 0 45 -18.5t19 -44.5q0 -27 -19 -45.5t-45 -18.5q-27 0 -45.5 18.5t-18.5 45.5
q0 26 19 44.5t45 18.5z" />
    <glyph glyph-name="Zacute" unicode="&#x179;" horiz-adv-x="511" 
d="M485 584l-337 -488h345v-96h-476v83l343 489h-314v95h439v-83zM394 844l-144 -145l-66 38l115 158z" />
    <glyph glyph-name="zacute" unicode="&#x17a;" horiz-adv-x="414" 
d="M353 644l-145 -145l-65 38l115 158zM395 367l-242 -277h251v-90h-382v76l243 278h-229v89h359v-76z" />
    <glyph glyph-name="Zdotaccent" unicode="&#x17b;" horiz-adv-x="511" 
d="M485 584l-337 -488h345v-96h-476v83l343 489h-314v95h439v-83zM271 854q26 0 45 -18.5t19 -44.5q0 -27 -19 -45.5t-45 -18.5q-27 0 -45.5 18.5t-18.5 45.5q0 26 19 44.5t45 18.5z" />
    <glyph glyph-name="zdotaccent" unicode="&#x17c;" horiz-adv-x="414" 
d="M213 657q26 0 45 -18.5t19 -44.5q0 -27 -19 -45.5t-45 -18.5q-27 0 -45.5 18.5t-18.5 45.5q0 26 19 44.5t45 18.5zM395 367l-242 -277h251v-90h-382v76l243 278h-229v89h359v-76z" />
    <glyph glyph-name="Zcaron" unicode="&#x17d;" horiz-adv-x="511" 
d="M485 584l-337 -488h345v-96h-476v83l343 489h-314v95h439v-83zM271 800l90 88l75 -37l-131 -143h-68l-130 143l75 37z" />
    <glyph glyph-name="zcaron" unicode="&#x17e;" horiz-adv-x="414" 
d="M213 600l90 88l74 -37l-130 -143h-68l-130 143l74 37zM395 367l-242 -277h251v-90h-382v76l243 278h-229v89h359v-76z" />
    <glyph glyph-name="longs" unicode="&#x17f;" horiz-adv-x="235" 
d="M242 667v-90q-24 7 -39 7q-37 0 -37 -57v-527h-100v353h-43v90h43v84q0 71 30.5 109.5t87.5 38.5q27 0 58 -8z" />
    <glyph glyph-name="florin" unicode="&#x192;" horiz-adv-x="480" 
d="M2 -188l19 94q35 -9 44 -9q33 0 45 59l82 397h-44l18 90h44l2 11l15 73q15 72 52.5 110.5t93.5 38.5q23 0 64 -11l-20 -95q-31 10 -43 10q-34 0 -45 -60l-16 -77h80l-19 -90h-79l-83 -404q-15 -71 -53 -109.5t-93 -38.5q-23 0 -64 11z" />
    <glyph glyph-name="Ohorn" unicode="&#x1a0;" horiz-adv-x="769" 
d="M612 721l74 38q68 -48 68 -118q0 -75 -78 -128q51 -88 51 -180q0 -142 -102 -244.5t-244 -102.5t-244 102.5t-102 244.5q0 143 102 245.5t244 102.5q67 0 130 -26t109 -73q45 22 45 59q0 22 -11 38.5t-42 41.5zM379 583q-100 0 -169.5 -73.5t-69.5 -180.5
q0 -100 71.5 -172.5t169.5 -72.5q99 0 170 73t71 176q0 104 -70.5 177t-172.5 73z" />
    <glyph glyph-name="ohorn" unicode="&#x1a1;" horiz-adv-x="564" 
d="M412 498l75 37q67 -48 67 -118q0 -73 -70 -123q10 -37 10 -73q0 -99 -67.5 -167t-165.5 -68t-165.5 68t-67.5 168q0 99 67.5 167t166.5 68q113 0 180 -86q23 17 23 46q0 22 -11 38.5t-42 42.5zM259 367q-57 0 -93.5 -40.5t-36.5 -104.5q0 -65 37 -105.5t95 -40.5
q59 0 95.5 41t36.5 106q0 64 -37 104t-97 40z" />
    <glyph glyph-name="Uhorn" unicode="&#x1af;" horiz-adv-x="683" 
d="M564 667v-79q33 21 33 53q0 22 -11 38.5t-42 41.5l75 38q67 -48 67 -119q0 -99 -122 -149v-254q0 -83 -29 -134q-32 -53 -90.5 -85t-125.5 -32q-68 0 -126.5 32t-90.5 85q-29 51 -29 134v430h104v-411q0 -79 17 -109q17 -28 51.5 -45.5t72.5 -17.5t73.5 17.5t51.5 45.5
q17 30 17 109v411h104z" />
    <glyph glyph-name="uhorn" unicode="&#x1b0;" horiz-adv-x="586" 
d="M453 443v-80q34 21 34 54q0 22 -11 38.5t-42 41.5l75 38q67 -48 67 -119q0 -50 -30 -86t-93 -63v-267h-100v32q-47 -46 -112 -46q-50 0 -93 23.5t-65 63.5q-27 45 -27 131v239h100v-231q0 -66 16 -95q21 -39 78 -39q28 0 52 12t34 31q17 29 17 101v221h100z" />
    <glyph glyph-name="uni01C4" unicode="&#x1c4;" horiz-adv-x="1129" 
d="M73 667h148q167 0 264.5 -89.5t97.5 -243.5t-97.5 -244t-264.5 -90h-148v667zM177 571v-475h47q118 0 186.5 64t68.5 174q0 109 -68.5 173t-186.5 64h-47zM1104 584l-338 -488h345v-96h-476v83l344 489h-315v95h440v-83zM889 800l90 88l75 -37l-131 -143h-68l-130 143
l75 37z" />
    <glyph glyph-name="uni01C5" unicode="&#x1c5;" horiz-adv-x="1033" 
d="M73 667h148q167 0 264.5 -89.5t97.5 -243.5t-97.5 -244t-264.5 -90h-148v667zM177 571v-475h47q118 0 186.5 64t68.5 174q0 109 -68.5 173t-186.5 64h-47zM832 600l89 88l75 -37l-130 -143h-68l-131 143l75 37zM1014 367l-242 -277h251v-90h-382v76l243 278h-229v89h359
v-76z" />
    <glyph glyph-name="uni01C6" unicode="&#x1c6;" horiz-adv-x="960" 
d="M489 0h-100v38q-68 -52 -136 -52q-92 0 -158.5 69.5t-66.5 166.5q0 96 66 165.5t158 69.5q70 0 137 -52v262h100v-667zM258 366q-56 0 -92.5 -40.5t-36.5 -103.5q0 -64 36.5 -104.5t94.5 -40.5t93.5 40.5t35.5 105.5q0 64 -36.5 103.5t-94.5 39.5zM758 600l90 88l75 -37
l-130 -143h-69l-130 143l75 37zM940 367l-242 -277h252v-90h-383v76l243 278h-229v89h359v-76z" />
    <glyph glyph-name="uni01C7" unicode="&#x1c7;" horiz-adv-x="848" 
d="M177 667v-571h249v-96h-353v667h104zM774 667v-462q0 -87 -28 -139q-21 -37 -60.5 -58.5t-86.5 -21.5t-86 19t-85 64l65 75q56 -60 105 -60q72 0 72 121v462h104z" />
    <glyph glyph-name="uni01C8" unicode="&#x1c8;" horiz-adv-x="655" 
d="M177 667v-571h249v-96h-353v667h104zM547 657q27 0 46 -18.5t19 -45.5t-19 -45.5t-46 -18.5t-45.5 19t-18.5 46q0 26 19 44.5t45 18.5zM422 -232v93q32 -9 47 -9q29 0 29 53v538h100v-538q0 -70 -30 -108.5t-86 -38.5q-26 0 -60 10z" />
    <glyph glyph-name="uni01C9" unicode="&#x1c9;" horiz-adv-x="437" 
d="M157 0h-100v667h100v-667zM330 657q27 0 46 -18.5t19 -45.5t-19 -45.5t-46 -18.5t-45.5 19t-18.5 46q0 26 19 44.5t45 18.5zM204 -232v93q32 -9 47 -9q29 0 29 53v538h100v-538q0 -70 -30 -108.5t-86 -38.5q-26 0 -60 10z" />
    <glyph glyph-name="uni01CA" unicode="&#x1ca;" horiz-adv-x="1124" 
d="M73 0v667h92l366 -491v491h104v-667h-92l-366 491v-491h-104zM1050 667v-462q0 -87 -28 -139q-21 -37 -60.5 -58.5t-86.5 -21.5t-86 19t-85 64l65 75q56 -60 105 -60q72 0 72 121v462h104z" />
    <glyph glyph-name="uni01CB" unicode="&#x1cb;" horiz-adv-x="931" 
d="M73 0v667h92l366 -491v491h104v-667h-92l-366 491v-491h-104zM824 657q27 0 46 -18.5t19 -45.5t-19 -45.5t-46 -18.5t-45.5 19t-18.5 46q0 26 19 44.5t45 18.5zM698 -232v93q32 -9 47 -9q29 0 29 53v538h100v-538q0 -70 -30 -108.5t-86 -38.5q-26 0 -60 10z" />
    <glyph glyph-name="uni01CC" unicode="&#x1cc;" horiz-adv-x="732" 
d="M56 443h100v-32q47 46 113 46q49 0 92 -23.5t65 -63.5q27 -45 27 -131v-239h-100v231q0 66 -16 95q-21 39 -78 39q-28 0 -52 -12t-34 -32q-17 -29 -17 -99v-222h-100v443zM625 657q27 0 46 -18.5t19 -45.5t-19 -45.5t-46 -18.5t-45.5 19t-18.5 46q0 26 19 44.5t45 18.5z
M499 -232v93q32 -9 47 -9q29 0 29 53v538h100v-538q0 -70 -30 -108.5t-86 -38.5q-26 0 -60 10z" />
    <glyph glyph-name="uni01CD" unicode="&#x1cd;" horiz-adv-x="631" 
d="M172 172l-63 -172h-109l251 667h128l252 -667h-110l-63 172h-286zM207 268h215l-107 291zM315 800l90 88l75 -37l-131 -143h-68l-130 143l75 37z" />
    <glyph glyph-name="uni01CE" unicode="&#x1ce;" horiz-adv-x="545" 
d="M489 0h-100v38q-68 -52 -136 -52q-92 0 -158.5 69.5t-66.5 166.5q0 96 66 165.5t158 69.5q68 0 137 -52v38h100v-443zM259 367q-57 0 -93.5 -40.5t-36.5 -104.5q0 -65 37 -105.5t95 -40.5t94 41t36 106q0 64 -37 104t-95 40zM259 600l89 88l75 -37l-130 -143h-68
l-131 143l75 37z" />
    <glyph glyph-name="uni01CF" unicode="&#x1cf;" horiz-adv-x="250" 
d="M177 667v-667h-104v667h104zM125 800l90 88l75 -37l-131 -143h-68l-130 143l75 37z" />
    <glyph glyph-name="uni01D0" unicode="&#x1d0;" horiz-adv-x="213" 
d="M156 443v-443h-100v443h100zM106 600l90 88l75 -37l-131 -143h-68l-130 143l75 37z" />
    <glyph glyph-name="uni01D1" unicode="&#x1d1;" horiz-adv-x="762" 
d="M381 681q142 0 244 -102.5t102 -245.5q0 -142 -102 -244.5t-243 -102.5q-145 0 -246 102.5t-101 249.5q0 139 103 241t243 102zM379 583q-100 0 -169.5 -73.5t-69.5 -180.5q0 -100 71.5 -172.5t169.5 -72.5q99 0 170 73t71 176q0 105 -70.5 177.5t-172.5 72.5zM381 800
l90 88l74 -37l-130 -143h-68l-130 143l74 37z" />
    <glyph glyph-name="uni01D2" unicode="&#x1d2;" horiz-adv-x="522" 
d="M264 457q96 0 163 -68.5t67 -166.5q0 -100 -67.5 -168t-165.5 -68t-165.5 68t-67.5 168t68 167.5t168 67.5zM259 367q-57 0 -93.5 -40.5t-36.5 -104.5q0 -65 37 -105.5t95 -40.5q59 0 95.5 41t36.5 106q0 64 -37 104t-97 40zM261 600l90 88l75 -37l-131 -143h-68
l-130 143l75 37z" />
    <glyph glyph-name="uni01D3" unicode="&#x1d3;" horiz-adv-x="638" 
d="M73 667h104v-411q0 -79 17 -109q17 -28 51.5 -45.5t72.5 -17.5q39 0 73.5 17.5t51.5 45.5q17 30 17 109v411h104v-430q0 -83 -29 -134q-32 -53 -90.5 -85t-125.5 -32q-68 0 -126.5 32t-90.5 85q-29 51 -29 134v430zM319 800l89 88l75 -37l-130 -143h-68l-131 143l75 37z
" />
    <glyph glyph-name="uni01D4" unicode="&#x1d4;" horiz-adv-x="509" 
d="M453 0h-100v32q-47 -46 -112 -46q-50 0 -93 23.5t-65 63.5q-27 45 -27 131v239h100v-231q0 -66 16 -95q21 -39 78 -39q28 0 52 12t34 31q17 29 17 101v221h100v-443zM254 600l90 88l75 -37l-131 -143h-68l-130 143l75 37z" />
    <glyph glyph-name="Gcaron" unicode="&#x1e6;" horiz-adv-x="727" 
d="M392 359h297v-50q0 -146 -83.5 -234.5t-219.5 -88.5q-146 0 -248.5 101t-102.5 246t101.5 246.5t246.5 101.5q120 0 209 -74q12 -9 47 -44l-72 -70q-48 50 -89 70t-95 20q-103 0 -173 -72t-70 -178q0 -105 70.5 -177t173.5 -72q102 0 158 72q30 39 40 107h-190v96z
M385 800l90 88l75 -37l-131 -143h-68l-130 143l75 37z" />
    <glyph glyph-name="gcaron" unicode="&#x1e7;" horiz-adv-x="545" 
d="M489 443v-452q0 -106 -65.5 -172t-171.5 -66q-102 0 -172 64q-11 10 -41 45l65 65q8 -10 12 -14q35 -41 63 -55.5t71 -14.5q66 0 102.5 39t36.5 109v47q-56 -52 -132 -52q-95 0 -162 69t-67 167t67 166.5t162 68.5q73 0 132 -52v38h100zM259 367q-57 0 -93.5 -40.5
t-36.5 -104.5q0 -65 37 -105.5t95 -40.5q57 0 93 41t36 106q0 64 -36 104t-95 40zM259 600l89 88l75 -37l-130 -143h-68l-131 143l75 37z" />
    <glyph glyph-name="uni01F4" unicode="&#x1f4;" horiz-adv-x="727" 
d="M392 359h297v-50q0 -146 -83.5 -234.5t-219.5 -88.5q-146 0 -248.5 101t-102.5 246t101.5 246.5t246.5 101.5q120 0 209 -74q12 -9 47 -44l-72 -70q-48 50 -89 70t-95 20q-103 0 -173 -72t-70 -178q0 -105 70.5 -177t173.5 -72q102 0 158 72q30 39 40 107h-190v96z
M532 844l-145 -145l-66 38l116 158z" />
    <glyph glyph-name="uni01F5" unicode="&#x1f5;" horiz-adv-x="545" 
d="M489 443v-452q0 -106 -65.5 -172t-171.5 -66q-102 0 -172 64q-11 10 -41 45l65 65q8 -10 12 -14q35 -41 63 -55.5t71 -14.5q66 0 102.5 39t36.5 109v47q-56 -52 -132 -52q-95 0 -162 69t-67 167t67 166.5t162 68.5q73 0 132 -52v38h100zM259 367q-57 0 -93.5 -40.5
t-36.5 -104.5q0 -65 37 -105.5t95 -40.5q57 0 93 41t36 106q0 64 -36 104t-95 40zM404 644l-145 -145l-66 38l115 158z" />
    <glyph glyph-name="Aringacute" unicode="&#x1fa;" horiz-adv-x="631" 
d="M274 883l-62 35l115 159l95 -52l-138 -139q14 5 30 5q44 0 74 -29t30 -71t-30 -71.5t-73 -29.5q-42 0 -72 29.5t-30 71.5q0 29 17 54.5t44 37.5zM315 842q-21 0 -36 -15t-15 -37q0 -21 15.5 -36t35.5 -15q22 0 37 15t15 37q0 21 -15 36t-37 15zM172 172l-63 -172h-109
l251 667h128l252 -667h-110l-63 172h-286zM207 268h215l-107 291z" />
    <glyph glyph-name="aringacute" unicode="&#x1fb;" horiz-adv-x="545" 
d="M489 0h-100v38q-68 -52 -136 -52q-92 0 -158.5 69.5t-66.5 166.5q0 96 66 165.5t158 69.5q68 0 137 -52v38h100v-443zM259 367q-57 0 -93.5 -40.5t-36.5 -104.5q0 -65 37 -105.5t95 -40.5t94 41t36 106q0 64 -37 104t-95 40zM271 689q43 0 73 -29.5t30 -70.5
q0 -42 -30 -71.5t-72 -29.5q-43 0 -73 29.5t-30 72.5q0 40 30.5 69.5t71.5 29.5zM271 640q-21 0 -36 -15t-15 -37q0 -21 15 -36t36 -15q22 0 37 15t15 37q0 21 -15 36t-37 15zM378 844l-144 -145l-66 38l115 158z" />
    <glyph glyph-name="AEacute" unicode="&#x1fc;" horiz-adv-x="839" 
d="M432 172h-228l-88 -172h-116l347 667h447v-96h-258v-185h230v-96h-230v-194h268v-96h-372v172zM432 268v303h-24l-155 -303h179zM665 844l-144 -145l-66 38l115 158z" />
    <glyph glyph-name="aeacute" unicode="&#x1fd;" horiz-adv-x="817" 
d="M699 148l86 -36q-74 -126 -208 -126q-97 0 -163 70q-50 -70 -176 -70q-96 0 -153 42t-57 112t52 110t143 40h122q-18 79 -113 79q-73 0 -138 -51l-51 65q50 40 95.5 57t103.5 17q59 0 103.5 -19.5t65.5 -53.5q67 73 160 73q97 0 157.5 -69t60.5 -179q0 -6 -1 -26h-335
q10 -51 43 -79t82 -28q34 0 64.5 15.5t47.5 41.5q0 1 5 8q2 4 4 7zM348 213h-111q-109 0 -109 -71q0 -68 111 -68q109 0 109 74v65zM453 260h236q-25 108 -117 108q-45 0 -76.5 -29t-42.5 -79zM550 644l-145 -145l-66 38l115 158z" />
    <glyph glyph-name="Oslashacute" unicode="&#x1fe;" horiz-adv-x="770" 
d="M47 53l67 66q-75 94 -75 214q0 143 102 245.5t244 102.5q120 0 215 -77l66 65l56 -55l-66 -66q75 -95 75 -215q0 -142 -102 -244.5t-244 -102.5q-120 0 -215 77l-66 -65zM187 192l342 341q-66 50 -142 50q-103 0 -173 -73t-70 -180q0 -73 43 -138zM583 475l-342 -341
q68 -50 143 -50q101 0 171.5 73.5t70.5 177.5q0 74 -43 140zM531 844l-144 -145l-66 38l115 158z" />
    <glyph glyph-name="oslashacute" unicode="&#x1ff;" horiz-adv-x="536" 
d="M35 46l41 40q-41 61 -41 135q0 100 67.5 168t166.5 68q80 0 143 -49l39 38l50 -49l-41 -40q41 -58 41 -135q0 -100 -67.5 -168t-166.5 -68q-76 0 -143 49l-39 -37zM388 288l-196 -188q32 -24 75 -24q59 0 96 41t37 106q0 37 -12 65zM148 155l197 189q-34 23 -76 23
q-59 0 -96 -40t-37 -105q0 -36 12 -67zM415 644l-145 -145l-66 38l116 158z" />
    <glyph glyph-name="uni0200" unicode="&#x200;" horiz-adv-x="631" 
d="M172 172l-63 -172h-109l251 667h128l252 -667h-110l-63 172h-286zM207 268h215l-107 291zM240 844l91 51l115 -158l-62 -38zM100 844l91 51l115 -158l-62 -38z" />
    <glyph glyph-name="uni0201" unicode="&#x201;" horiz-adv-x="545" 
d="M486 0h-99v38q-68 -52 -136 -52q-92 0 -158.5 69.5t-66.5 166.5q0 96 66 165.5t158 69.5q68 0 137 -52v38h99v-443zM257 367q-57 0 -93.5 -40.5t-36.5 -104.5q0 -65 37 -105.5t95 -40.5t93.5 40.5t35.5 106.5q0 65 -36 104.5t-95 39.5zM158 644l91 51l115 -158l-62 -38z
M18 644l91 51l115 -158l-62 -38z" />
    <glyph glyph-name="Scommaaccent" unicode="&#x218;" horiz-adv-x="515" 
d="M463 559l-84 -53q-29 44 -53.5 61t-60.5 17q-43 0 -72 -26.5t-29 -66.5q0 -54 85 -86l63 -25q161 -61 161 -184q0 -88 -64 -149t-157 -61q-108 0 -170 78q-33 42 -49 114l101 27l4 -16q26 -106 115 -106q49 0 82 32.5t33 79.5q0 32 -23 54.5t-79 44.5l-61 23
q-144 56 -144 175q0 81 59 135t148 54q64 0 110 -29t85 -93zM253 -30l91 -40l-117 -150l-72 36z" />
    <glyph glyph-name="scommaaccent" unicode="&#x219;" horiz-adv-x="380" 
d="M23 116l82 33q21 -41 39.5 -57t46.5 -16q27 0 44 15t17 40q0 17 -12.5 27.5t-51.5 25.5l-45 18q-97 36 -97 119q0 58 43.5 97t107.5 39q97 0 148 -97l-78 -39q-18 27 -33.5 37.5t-37.5 10.5q-25 0 -40 -12.5t-15 -32.5q0 -17 11.5 -26.5t51.5 -25.5l42 -16
q106 -40 106 -121q0 -63 -46.5 -106t-115.5 -43q-119 0 -167 130zM115 -213l54 182l95 -28l-76 -177z" />
    <glyph glyph-name="uni021A" unicode="&#x21a;" horiz-adv-x="436" 
d="M436 571h-166v-571h-104v571h-166v96h436v-96zM129 -213l54 182l95 -28l-76 -177z" />
    <glyph glyph-name="uni021B" unicode="&#x21b;" horiz-adv-x="260" 
d="M232 443v-90h-69v-213q0 -54 29 -54q14 0 47 9v-93q-36 -10 -60 -10q-56 0 -86 38.5t-30 109.5v213h-48v90h48v98l100 40v-138h69zM53 -213l54 182l95 -28l-76 -177z" />
    <glyph glyph-name="uni0226" unicode="&#x226;" horiz-adv-x="631" 
d="M172 172l-63 -172h-109l251 667h128l252 -667h-110l-63 172h-286zM207 268h215l-107 291zM315 854q26 0 45 -18.5t19 -44.5q0 -27 -19 -45.5t-46 -18.5q-26 0 -44.5 19t-18.5 46q0 25 19 43.5t45 18.5z" />
    <glyph glyph-name="uni0227" unicode="&#x227;" horiz-adv-x="545" 
d="M489 0h-100v38q-68 -52 -136 -52q-92 0 -158.5 69.5t-66.5 166.5q0 96 66 165.5t158 69.5q68 0 137 -52v38h100v-443zM259 367q-57 0 -93.5 -40.5t-36.5 -104.5q0 -65 37 -105.5t95 -40.5t94 41t36 106q0 64 -37 104t-95 40zM259 657q26 0 45 -18.5t19 -44.5
q0 -27 -19 -45.5t-45 -18.5q-27 0 -45.5 18.5t-18.5 45.5q0 26 19 44.5t45 18.5z" />
    <glyph glyph-name="uni0237" unicode="&#x237;" horiz-adv-x="223" 
d="M-10 -232v93q32 -9 47 -9q29 0 29 53v538h100v-538q0 -70 -30 -108.5t-86 -38.5q-26 0 -60 10z" />
    <glyph glyph-name="uni02BB" unicode="&#x2bb;" horiz-adv-x="249" 
d="M131 434l-91 33l111 249l71 -28z" />
    <glyph glyph-name="afii57929" unicode="&#x2bc;" horiz-adv-x="283" 
d="M142 717l91 -33l-111 -251l-72 29z" />
    <glyph glyph-name="circumflex" unicode="&#x2c6;" horiz-adv-x="476" 
d="M238 588l-89 -88l-75 37l130 143h68l131 -143l-75 -37z" />
    <glyph glyph-name="caron" unicode="&#x2c7;" horiz-adv-x="476" 
d="M238 600l90 88l75 -37l-131 -143h-68l-130 143l75 37z" />
    <glyph glyph-name="uni02C9" unicode="&#x2c9;" horiz-adv-x="476" 
d="M88 635h299v-89h-299v89z" />
    <glyph glyph-name="breve" unicode="&#x2d8;" horiz-adv-x="476" 
d="M93 659l86 7q1 -7 1 -14q3 -65 56 -65q37 0 52 35q4 9 9 44l87 -7q-6 -50 -18 -76q-42 -81 -129 -81q-47 0 -84 25.5t-52 68.5q-7 18 -8 63z" />
    <glyph glyph-name="dotaccent" unicode="&#x2d9;" horiz-adv-x="476" 
d="M238 657q26 0 45 -18.5t19 -44.5q0 -27 -19 -45.5t-45 -18.5q-27 0 -45.5 18.5t-18.5 45.5q0 26 19 44.5t45 18.5z" />
    <glyph glyph-name="ring" unicode="&#x2da;" horiz-adv-x="476" 
d="M237 691q43 0 73 -29.5t30 -70.5q0 -42 -30 -71.5t-72 -29.5q-43 0 -73 29.5t-30 72.5q0 40 30.5 69.5t71.5 29.5zM237 642q-21 0 -36 -15t-15 -37q0 -21 15 -36t36 -15q22 0 37 15t15 37q0 21 -15 36t-37 15z" />
    <glyph glyph-name="ogonek" unicode="&#x2db;" horiz-adv-x="476" 
d="M338 0h100q-36 -45 -36 -66q0 -14 18 -14q17 0 46 11l30 -74q-50 -19 -85 -19q-42 0 -71 26.5t-29 64.5q0 32 27 71z" />
    <glyph glyph-name="tilde" unicode="&#x2dc;" horiz-adv-x="476" 
d="M305 657l83 -19q-8 -108 -92 -108q-38 0 -73 20q-24 13 -37 13q-7 0 -9.5 -6.5t-7.5 -31.5l-81 19q11 108 93 108q34 0 75 -22q22 -11 35 -11q12 0 14 38z" />
    <glyph glyph-name="hungarumlaut" unicode="&#x2dd;" horiz-adv-x="476" 
d="M309 646l-147 -147l-56 38l115 158zM452 644l-144 -145l-58 36l116 160z" />
    <glyph glyph-name="uni0309" unicode="&#x309;" horiz-adv-x="476" 
d="M194 804l-29 74q49 19 87 19q43 0 70.5 -23t27.5 -58q0 -26 -18 -55l-15 -24q-6 -10 -6 -21q0 -5 1 -8h-90q1 37 16 60l10 13q11 17 11 21q0 13 -17 13q-14 0 -48 -11z" />
    <glyph glyph-name="uni0323" unicode="&#x323;" horiz-adv-x="476" 
d="M238 -47q26 0 45 -19t19 -45q0 -27 -19 -45.5t-46 -18.5t-45.5 19t-18.5 46q0 26 19 44.5t46 18.5z" />
    <glyph glyph-name="uni037E" unicode="&#x37e;" horiz-adv-x="245" 
d="M109 115l91 -34l-111 -250l-72 29zM140 428q27 0 45.5 -18.5t18.5 -44.5t-19 -44.5t-46 -18.5q-26 0 -44.5 18.5t-18.5 45.5q0 25 19 43.5t45 18.5z" />
    <glyph glyph-name="uni0387" unicode="&#x387;" horiz-adv-x="243" 
d="M121 396q27 0 45.5 -18.5t18.5 -44.5t-18.5 -44.5t-46.5 -18.5q-26 0 -44.5 18.5t-18.5 45.5q0 25 19 43.5t45 18.5z" />
    <glyph glyph-name="uni1E1E" unicode="&#x1e1e;" horiz-adv-x="443" 
d="M413 571h-236v-185h215v-96h-215v-290h-104v667h340v-96zM243 854q26 0 45 -18.5t19 -44.5q0 -27 -19 -45.5t-46 -18.5q-26 0 -44.5 19t-18.5 46q0 25 19 43.5t45 18.5z" />
    <glyph glyph-name="uni1E1F" unicode="&#x1e1f;" horiz-adv-x="259" 
d="M245 353h-77v-353h-100v353h-43v90h43v84q0 71 30.5 109.5t87.5 38.5q27 0 58 -8v-90q-24 7 -39 7q-37 0 -37 -57v-84h77v-90zM160 851q26 0 45 -18.5t19 -44.5q0 -27 -19 -45.5t-45 -18.5q-27 0 -45.5 18.5t-18.5 45.5q0 26 19 44.5t45 18.5z" />
    <glyph glyph-name="Wgrave" unicode="&#x1e80;" horiz-adv-x="878" 
d="M108 667l141 -493l146 493h88l146 -493l141 493h108l-200 -667h-50h-48l-141 474l-141 -474h-48h-50l-200 667h108zM299 844l95 51l115 -158l-66 -38z" />
    <glyph glyph-name="wgrave" unicode="&#x1e81;" horiz-adv-x="664" 
d="M101 443l96 -282l95 282h80l96 -282l96 282h106l-163 -443h-80l-95 279l-95 -279h-80l-163 443h107zM186 644l95 51l115 -158l-66 -38z" />
    <glyph glyph-name="Wacute" unicode="&#x1e82;" horiz-adv-x="878" 
d="M108 667l141 -493l146 493h88l146 -493l141 493h108l-200 -667h-50h-48l-141 474l-141 -474h-48h-50l-200 667h108zM585 844l-144 -145l-66 38l115 158z" />
    <glyph glyph-name="wacute" unicode="&#x1e83;" horiz-adv-x="666" 
d="M101 443l96 -282l95 282h80l96 -282l96 282h106l-163 -443h-80l-95 279l-95 -279h-80l-163 443h107zM449 644l-145 -145l-66 38l115 158z" />
    <glyph glyph-name="Wdieresis" unicode="&#x1e84;" horiz-adv-x="878" 
d="M108 667l141 -493l146 493h88l146 -493l141 493h108l-200 -667h-50h-48l-141 474l-141 -474h-48h-50l-200 667h108zM530 854q27 0 45.5 -18.5t18.5 -44.5q0 -27 -19 -45.5t-45 -18.5q-27 0 -45.5 19t-18.5 46q0 25 19 43.5t45 18.5zM347 854q26 0 45 -18.5t19 -44.5
q0 -27 -19 -45.5t-46 -18.5q-26 0 -44.5 19t-18.5 46q0 25 19 43.5t45 18.5z" />
    <glyph glyph-name="wdieresis" unicode="&#x1e85;" horiz-adv-x="664" 
d="M101 443l96 -282l95 282h80l96 -282l96 282h106l-163 -443h-80l-95 279l-95 -279h-80l-163 443h107zM424 657q27 0 45.5 -18.5t18.5 -44.5q0 -27 -19 -45.5t-45 -18.5q-27 0 -45.5 19t-18.5 46q0 25 19 43.5t45 18.5zM240 657q26 0 45 -18.5t19 -44.5q0 -27 -19 -45.5
t-45 -18.5q-27 0 -45.5 18.5t-18.5 45.5q0 26 19 44.5t45 18.5z" />
    <glyph glyph-name="uni1EA0" unicode="&#x1ea0;" horiz-adv-x="631" 
d="M172 172l-63 -172h-109l251 667h128l252 -667h-110l-63 172h-286zM207 268h215l-107 291zM315 -47q26 0 45 -18.5t19 -45.5q0 -26 -19 -44.5t-45 -18.5q-27 0 -45.5 18.5t-18.5 45.5q0 26 19 44.5t45 18.5z" />
    <glyph glyph-name="uni1EA1" unicode="&#x1ea1;" horiz-adv-x="545" 
d="M489 0h-100v38q-68 -52 -136 -52q-92 0 -158.5 69.5t-66.5 166.5q0 96 66 165.5t158 69.5q68 0 137 -52v38h100v-443zM259 367q-57 0 -93.5 -40.5t-36.5 -104.5q0 -65 37 -105.5t95 -40.5t94 41t36 106q0 64 -37 104t-95 40zM270 -47q26 0 45 -18.5t19 -44.5
q0 -27 -19 -45.5t-46 -18.5q-26 0 -44.5 19t-18.5 46q0 25 19 43.5t45 18.5z" />
    <glyph glyph-name="uni1EA2" unicode="&#x1ea2;" horiz-adv-x="631" 
d="M172 172l-63 -172h-109l251 667h128l252 -667h-110l-63 172h-286zM207 268h215l-107 291zM250 804l-29 74q49 19 87 19q43 0 70.5 -23t27.5 -58q0 -28 -18 -55l-15 -24q-6 -10 -6 -20q0 -6 1 -9h-90q1 38 16 60l10 13q11 17 11 21q0 13 -17 13q-14 0 -48 -11z" />
    <glyph glyph-name="uni1EA3" unicode="&#x1ea3;" horiz-adv-x="545" 
d="M489 0h-100v38q-68 -52 -136 -52q-92 0 -158.5 69.5t-66.5 166.5q0 96 66 165.5t158 69.5q68 0 137 -52v38h100v-443zM259 367q-57 0 -93.5 -40.5t-36.5 -104.5q0 -65 37 -105.5t95 -40.5t94 41t36 106q0 64 -37 104t-95 40zM199 598l-30 74q50 19 87 19q43 0 70.5 -23
t27.5 -58q0 -28 -18 -55l-15 -24q-5 -7 -5 -29h-90q1 37 16 60l10 13q11 17 11 21q0 13 -17 13q-14 0 -47 -11z" />
    <glyph glyph-name="uni1EA4" unicode="&#x1ea4;" horiz-adv-x="631" 
d="M443 777l37 -40l-75 -37l-90 88l-89 -88l-75 37l130 143h68l39 -42l82 112l95 -51zM172 172l-63 -172h-109l251 667h128l252 -667h-110l-63 172h-286zM207 268h215l-107 291z" />
    <glyph glyph-name="uni1EA5" unicode="&#x1ea5;" horiz-adv-x="545" 
d="M259 571l-90 -88l-75 37l131 143h68l130 -143l-75 -37zM489 0h-100v38q-68 -52 -136 -52q-92 0 -158.5 69.5t-66.5 166.5q0 96 66 165.5t158 69.5q68 0 137 -52v38h100v-443zM259 367q-57 0 -93.5 -40.5t-36.5 -104.5q0 -65 37 -105.5t95 -40.5t94 41t36 106
q0 64 -37 104t-95 40zM540 746l-144 -145l-66 38l115 158z" />
    <glyph glyph-name="uni1EA6" unicode="&#x1ea6;" horiz-adv-x="631" 
d="M172 172l-63 -172h-109l251 667h128l252 -667h-110l-63 172h-286zM207 268h215l-107 291zM315 788l-89 -88l-75 37l130 143h68l131 -143l-75 -37zM361 899l95 51l116 -158l-66 -38z" />
    <glyph glyph-name="uni1EA7" unicode="&#x1ea7;" horiz-adv-x="545" 
d="M489 0h-100v38q-68 -52 -136 -52q-92 0 -158.5 69.5t-66.5 166.5q0 96 66 165.5t158 69.5q68 0 137 -52v38h100v-443zM259 367q-57 0 -93.5 -40.5t-36.5 -104.5q0 -65 37 -105.5t95 -40.5t94 41t36 106q0 64 -37 104t-95 40zM259 571l-90 -88l-75 37l131 143h68l130 -143
l-75 -37zM244 746l96 51l115 -158l-66 -38z" />
    <glyph glyph-name="uni1EA8" unicode="&#x1ea8;" horiz-adv-x="631" 
d="M432 789l1 3l2 6q1 7 10 19l9 14q12 16 12 21q0 13 -17 13q-16 0 -48 -12l-29 75q49 19 86 19q43 0 71 -23t28 -58q0 -28 -18 -56l-16 -24q-5 -9 -5 -20v-9h-57l19 -20l-75 -38l-90 88l-89 -88l-75 38l130 143h68zM172 172l-63 -172h-109l251 667h128l252 -667h-110
l-63 172h-286zM207 268h215l-107 291z" />
    <glyph glyph-name="uni1EA9" unicode="&#x1ea9;" horiz-adv-x="545" 
d="M293 663l48 -54q3 34 17 55l10 14q11 15 11 21q0 13 -17 13q-14 0 -48 -11l-29 74q49 19 87 19q43 0 70.5 -23t27.5 -58q0 -28 -18 -55l-15 -25q-6 -10 -6 -20q0 -6 1 -9h-86l77 -84l-75 -38l-89 88l-90 -88l-75 38l131 143h68zM489 0h-100v38q-68 -52 -136 -52
q-92 0 -158.5 69.5t-66.5 166.5q0 96 66 165.5t158 69.5q68 0 137 -52v38h100v-443zM259 367q-57 0 -93.5 -40.5t-36.5 -104.5q0 -65 37 -105.5t95 -40.5t94 41t36 106q0 64 -37 104t-95 40z" />
    <glyph glyph-name="uni1EAA" unicode="&#x1eaa;" horiz-adv-x="631" 
d="M172 172l-63 -172h-109l251 667h128l252 -667h-110l-63 172h-286zM207 268h215l-107 291zM315 768l-89 -88l-75 38l130 142h68l131 -142l-75 -38zM383 999l82 -19q-7 -108 -91 -108q-40 0 -74 21q-24 13 -37 13q-10 0 -17 -38l-81 19q11 108 94 108q32 0 75 -23
q20 -11 35 -11q10 0 14 38z" />
    <glyph glyph-name="uni1EAB" unicode="&#x1eab;" horiz-adv-x="545" 
d="M489 0h-100v38q-68 -52 -136 -52q-92 0 -158.5 69.5t-66.5 166.5q0 96 66 165.5t158 69.5q68 0 137 -52v38h100v-443zM259 367q-57 0 -93.5 -40.5t-36.5 -104.5q0 -65 37 -105.5t95 -40.5t94 41t36 106q0 64 -37 104t-95 40zM326 814l82 -20q-9 -108 -91 -108
q-39 0 -74 21q-24 13 -37 13q-10 0 -17 -38l-81 19q11 108 94 108q33 0 74 -23q22 -11 36 -11q10 0 14 39zM258 571l-89 -88l-75 37l130 143h68l131 -143l-75 -37z" />
    <glyph glyph-name="uni1EAC" unicode="&#x1eac;" horiz-adv-x="631" 
d="M172 172l-63 -172h-109l251 667h128l252 -667h-110l-63 172h-286zM207 268h215l-107 291zM315 788l-89 -88l-75 37l130 143h68l131 -143l-75 -37zM315 -47q26 0 45 -18.5t19 -45.5q0 -26 -19 -44.5t-45 -18.5q-27 0 -45.5 18.5t-18.5 45.5q0 26 19 44.5t45 18.5z" />
    <glyph glyph-name="uni1EAD" unicode="&#x1ead;" horiz-adv-x="545" 
d="M489 0h-100v38q-68 -52 -136 -52q-92 0 -158.5 69.5t-66.5 166.5q0 96 66 165.5t158 69.5q68 0 137 -52v38h100v-443zM259 367q-57 0 -93.5 -40.5t-36.5 -104.5q0 -65 37 -105.5t95 -40.5t94 41t36 106q0 64 -37 104t-95 40zM262 -47q26 0 45 -18.5t19 -44.5t-19 -45
t-45 -19q-27 0 -45.5 18.5t-18.5 45.5q0 26 19 44.5t45 18.5zM258 588l-89 -88l-75 37l130 143h69l130 -143l-75 -37z" />
    <glyph glyph-name="uni1EAE" unicode="&#x1eae;" horiz-adv-x="631" 
d="M249 848l114 157l95 -51l-144 -145l-57 32v-2l1 -4q3 -65 56 -65q37 0 52 35q4 8 9 43l86 -7q-5 -49 -18 -75q-41 -81 -129 -81q-46 0 -83 25.5t-52 68.5q-8 21 -8 62zM172 172l-63 -172h-109l251 667h128l252 -667h-110l-63 172h-286zM207 268h215l-107 291z" />
    <glyph glyph-name="uni1EAF" unicode="&#x1eaf;" horiz-adv-x="545" 
d="M489 0h-100v38q-68 -52 -136 -52q-92 0 -158.5 69.5t-66.5 166.5q0 96 66 165.5t158 69.5q68 0 137 -52v38h100v-443zM259 367q-57 0 -93.5 -40.5t-36.5 -104.5q0 -65 37 -105.5t95 -40.5t94 41t36 106q0 64 -37 104t-95 40zM115 642l86 7q2 -34 7 -45q15 -33 50 -33
q36 0 53 35q5 14 9 43l86 -7q-6 -49 -18 -75q-42 -81 -129 -81q-47 0 -84 25.5t-52 68.5q-7 18 -8 62zM408 768l-144 -145l-66 38l115 159z" />
    <glyph glyph-name="uni1EB0" unicode="&#x1eb0;" horiz-adv-x="631" 
d="M374 845l-62 -36l-144 145l95 51l114 -157l84 -7q-5 -49 -18 -75q-41 -81 -129 -81q-46 0 -83 25.5t-52 68.5q-8 21 -8 62l86 7q2 -36 7 -45q15 -33 50 -33q26 0 40 17t20 58zM172 172l-63 -172h-109l251 667h128l252 -667h-110l-63 172h-286zM207 268h215l-107 291z" />
    <glyph glyph-name="uni1EB1" unicode="&#x1eb1;" horiz-adv-x="545" 
d="M489 0h-100v38q-68 -52 -136 -52q-92 0 -158.5 69.5t-66.5 166.5q0 96 66 165.5t158 69.5q68 0 137 -52v38h100v-443zM259 367q-57 0 -93.5 -40.5t-36.5 -104.5q0 -65 37 -105.5t95 -40.5t94 41t36 106q0 64 -37 104t-95 40zM115 642l86 7q2 -34 7 -45q15 -33 50 -33
q36 0 53 35q5 14 9 43l86 -7q-6 -49 -18 -75q-42 -81 -129 -81q-47 0 -84 25.5t-52 68.5q-7 18 -8 62zM109 768l95 52l115 -159l-66 -38z" />
    <glyph glyph-name="uni1EB2" unicode="&#x1eb2;" horiz-adv-x="631" 
d="M171 845l86 7l1 -16q3 -63 56 -63q37 0 52 35q4 9 9 44l86 -7q-5 -50 -18 -76q-41 -81 -129 -81q-46 0 -83 25.5t-53 68.5q-7 22 -7 63zM238 921l-29 74q49 19 87 19q43 0 70.5 -23t27.5 -58q0 -27 -18 -55l-15 -24q-6 -8 -6 -20v-9h-90q1 36 17 60l9 13q12 16 12 21
q0 13 -17 13q-14 0 -48 -11zM172 172l-63 -172h-109l251 667h128l252 -667h-110l-63 172h-286zM207 268h215l-107 291z" />
    <glyph glyph-name="uni1EB3" unicode="&#x1eb3;" horiz-adv-x="545" 
d="M489 0h-100v38q-68 -52 -136 -52q-92 0 -158.5 69.5t-66.5 166.5q0 96 66 165.5t158 69.5q68 0 137 -52v38h100v-443zM259 367q-57 0 -93.5 -40.5t-36.5 -104.5q0 -65 37 -105.5t95 -40.5t94 41t36 106q0 64 -37 104t-95 40zM115 642l86 7q2 -34 7 -45q15 -33 50 -33
q36 0 53 35q5 14 9 43l86 -7q-6 -49 -18 -75q-42 -81 -129 -81q-47 0 -84 25.5t-52 68.5q-7 18 -8 62zM183 745l-30 75q51 18 87 18q43 0 70.5 -23t27.5 -58q0 -28 -18 -55l-15 -24q-5 -7 -5 -29h-90q1 38 16 60l10 14q11 14 11 21q0 12 -17 12q-16 0 -47 -11z" />
    <glyph glyph-name="uni1EB4" unicode="&#x1eb4;" horiz-adv-x="631" 
d="M172 172l-63 -172h-109l251 667h128l252 -667h-110l-63 172h-286zM207 268h215l-107 291zM383 999l82 -19q-7 -108 -91 -108q-40 0 -74 21q-24 13 -37 13q-10 0 -17 -38l-81 19q11 108 94 108q32 0 75 -23q20 -11 35 -11q10 0 14 38zM170 845l86 7q1 -6 1 -14
q3 -65 56 -65q37 0 52 35q4 9 9 44l87 -7q-6 -50 -18 -76q-42 -81 -129 -81q-47 0 -84 25.5t-52 68.5q-7 18 -8 63z" />
    <glyph glyph-name="uni1EB5" unicode="&#x1eb5;" horiz-adv-x="545" 
d="M489 0h-100v38q-68 -52 -136 -52q-92 0 -158.5 69.5t-66.5 166.5q0 96 66 165.5t158 69.5q68 0 137 -52v38h100v-443zM259 367q-57 0 -93.5 -40.5t-36.5 -104.5q0 -65 37 -105.5t95 -40.5t94 41t36 106q0 64 -37 104t-95 40zM326 814l83 -20q-9 -108 -92 -108
q-38 0 -74 21q-24 13 -36 13q-7 0 -10 -7t-7 -31l-82 19q12 108 94 108q32 0 75 -23q20 -11 35 -11q10 0 14 39zM114 648l86 7l1 -14q3 -65 56 -65q37 0 52 35q4 9 9 44l86 -7q-6 -53 -18 -76q-40 -81 -129 -81q-46 0 -83 25.5t-52 68.5q-8 21 -8 63z" />
    <glyph glyph-name="uni1EB6" unicode="&#x1eb6;" horiz-adv-x="631" 
d="M172 172l-63 -172h-109l251 667h128l252 -667h-110l-63 172h-286zM207 268h215l-107 291zM315 -47q26 0 45 -18.5t19 -45.5q0 -26 -19 -44.5t-45 -18.5q-27 0 -45.5 18.5t-18.5 45.5q0 26 19 44.5t45 18.5zM170 859l86 7q2 -37 7 -46q15 -33 50 -33q37 0 52 35q4 8 9 43
l87 -7q-6 -49 -18 -75q-42 -81 -129 -81q-47 0 -84 25.5t-52 68.5q-7 18 -8 63z" />
    <glyph glyph-name="uni1EB7" unicode="&#x1eb7;" horiz-adv-x="545" 
d="M489 0h-100v38q-68 -52 -136 -52q-92 0 -158.5 69.5t-66.5 166.5q0 96 66 165.5t158 69.5q68 0 137 -52v38h100v-443zM259 367q-57 0 -93.5 -40.5t-36.5 -104.5q0 -65 37 -105.5t95 -40.5t94 41t36 106q0 64 -37 104t-95 40zM262 -47q26 0 45 -18.5t19 -44.5t-19 -45
t-45 -19q-27 0 -45.5 18.5t-18.5 45.5q0 26 19 44.5t45 18.5zM113 659l86 7l1 -14q3 -65 56 -65q36 0 53 35q3 8 9 44l86 -7q-6 -50 -18 -76q-42 -81 -129 -81q-47 0 -84 25.5t-52 68.5q-7 19 -8 63z" />
    <glyph glyph-name="uni1EB8" unicode="&#x1eb8;" horiz-adv-x="481" 
d="M435 571h-258v-185h230v-96h-230v-194h268v-96h-372v667h362v-96zM272 -47q26 0 45 -18.5t19 -44.5q0 -27 -19 -45.5t-46 -18.5q-26 0 -44.5 19t-18.5 46q0 25 19 43.5t45 18.5z" />
    <glyph glyph-name="uni1EB9" unicode="&#x1eb9;" horiz-adv-x="494" 
d="M466 183h-335q10 -51 42.5 -79t81.5 -28q75 0 112 57q0 1 5 8q2 4 4 7l86 -36q-75 -126 -207 -126q-97 0 -162 67.5t-65 168.5q0 98 64 166.5t157 68.5q95 0 156 -69.5t61 -176.5v-28zM131 260h236q-28 108 -117 108q-46 0 -77 -28.5t-42 -79.5zM254 -47q26 0 45 -18.5
t19 -45.5q0 -26 -19 -44.5t-46 -18.5q-26 0 -44.5 19t-18.5 46q0 25 19 43.5t45 18.5z" />
    <glyph glyph-name="uni1EBA" unicode="&#x1eba;" horiz-adv-x="481" 
d="M435 571h-258v-185h230v-96h-230v-194h268v-96h-372v667h362v-96zM196 804l-29 74q49 19 86 19q43 0 70.5 -23t27.5 -58q0 -26 -17 -55l-16 -24q-5 -9 -5 -20v-9h-90q1 37 17 60l9 13q11 16 11 22q0 12 -17 12q-14 0 -47 -11z" />
    <glyph glyph-name="uni1EBB" unicode="&#x1ebb;" horiz-adv-x="494" 
d="M466 183h-335q10 -51 42.5 -79t81.5 -28q75 0 112 57q0 1 5 8q2 4 4 7l86 -36q-75 -126 -207 -126q-97 0 -162 67.5t-65 168.5q0 98 64 166.5t157 68.5q95 0 156 -69.5t61 -176.5v-28zM131 260h236q-28 108 -117 108q-46 0 -77 -28.5t-42 -79.5zM187 598l-29 74
q49 19 87 19q43 0 70.5 -23t27.5 -58q0 -26 -18 -55l-15 -24q-6 -8 -6 -21v-8h-89q1 37 16 60l9 13q12 16 12 21q0 13 -17 13q-14 0 -48 -11z" />
    <glyph glyph-name="uni1EBC" unicode="&#x1ebc;" horiz-adv-x="481" 
d="M435 571h-258v-185h230v-96h-230v-194h268v-96h-372v667h362v-96zM307 857l82 -20q-7 -108 -91 -108q-40 0 -74 21q-24 13 -37 13q-10 0 -17 -38l-81 19q12 108 94 108q32 0 75 -23q20 -11 35 -11q10 0 14 39z" />
    <glyph glyph-name="uni1EBD" unicode="&#x1ebd;" horiz-adv-x="494" 
d="M466 183h-335q10 -51 42.5 -79t81.5 -28q75 0 112 57q0 1 5 8q2 4 4 7l86 -36q-75 -126 -207 -126q-97 0 -162 67.5t-65 168.5q0 98 64 166.5t157 68.5q95 0 156 -69.5t61 -176.5v-28zM131 260h236q-28 108 -117 108q-46 0 -77 -28.5t-42 -79.5zM314 657l83 -19
q-7 -108 -92 -108q-38 0 -73 20q-24 13 -37 13q-7 0 -9.5 -6.5t-7.5 -31.5l-81 19q11 108 93 108q34 0 75 -22q22 -11 35 -11q12 0 14 38z" />
    <glyph glyph-name="uni1EBE" unicode="&#x1ebe;" horiz-adv-x="481" 
d="M376 777l36 -40l-75 -37l-89 88l-90 -88l-75 37l131 143h68l38 -42l82 112l95 -51zM435 571h-258v-185h230v-96h-230v-194h268v-96h-372v667h362v-96z" />
    <glyph glyph-name="uni1EBF" unicode="&#x1ebf;" horiz-adv-x="494" 
d="M530 746l-144 -145l-66 38l115 158zM249 571l-90 -88l-75 37l131 143h68l130 -143l-74 -37zM466 183h-335q10 -51 42.5 -79t81.5 -28q75 0 112 57q0 1 5 8q2 4 4 7l86 -36q-75 -126 -207 -126q-97 0 -162 67.5t-65 168.5q0 98 64 166.5t157 68.5q95 0 156 -69.5
t61 -176.5v-28zM131 260h236q-28 108 -117 108q-46 0 -77 -28.5t-42 -79.5z" />
    <glyph glyph-name="uni1EC0" unicode="&#x1ec0;" horiz-adv-x="481" 
d="M435 571h-258v-185h230v-96h-230v-194h268v-96h-372v667h362v-96zM294 899l95 51l115 -158l-66 -38zM248 788l-90 -88l-75 37l131 143h68l130 -143l-75 -37z" />
    <glyph glyph-name="uni1EC1" unicode="&#x1ec1;" horiz-adv-x="494" 
d="M466 183h-335q10 -51 42.5 -79t81.5 -28q75 0 112 57q0 1 5 8q2 4 4 7l86 -36q-75 -126 -207 -126q-97 0 -162 67.5t-65 168.5q0 98 64 166.5t157 68.5q95 0 156 -69.5t61 -176.5v-28zM131 260h236q-28 108 -117 108q-46 0 -77 -28.5t-42 -79.5zM235 746l95 51l115 -158
l-66 -38zM249 571l-90 -88l-75 37l131 143h68l130 -143l-74 -37z" />
    <glyph glyph-name="uni1EC2" unicode="&#x1ec2;" horiz-adv-x="481" 
d="M282 880l82 -90q3 11 13 27l10 14q11 17 11 21q0 13 -17 13q-15 0 -47 -12l-30 75q49 19 87 19q43 0 70.5 -23t27.5 -58q0 -29 -18 -56l-15 -24q-5 -7 -5 -29h-57l18 -20l-75 -38l-89 88l-90 -88l-75 38l131 143h68zM435 571h-258v-185h230v-96h-230v-194h268v-96h-372
v667h362v-96z" />
    <glyph glyph-name="uni1EC3" unicode="&#x1ec3;" horiz-adv-x="494" 
d="M283 663l49 -54q1 34 16 55l10 14q11 17 11 21q0 13 -17 13q-14 0 -47 -11l-30 74q49 19 87 19q43 0 70.5 -23t27.5 -58q0 -29 -18 -55l-15 -25q-5 -7 -5 -29h-86l77 -84l-74 -38l-90 88l-90 -88l-75 38l131 143h68zM466 183h-335q10 -51 42.5 -79t81.5 -28q75 0 112 57
q0 1 5 8q2 4 4 7l86 -36q-75 -126 -207 -126q-97 0 -162 67.5t-65 168.5q0 98 64 166.5t157 68.5q95 0 156 -69.5t61 -176.5v-28zM131 260h236q-28 108 -117 108q-46 0 -77 -28.5t-42 -79.5z" />
    <glyph glyph-name="uni1EC4" unicode="&#x1ec4;" horiz-adv-x="481" 
d="M435 571h-258v-185h230v-96h-230v-194h268v-96h-372v667h362v-96zM248 768l-90 -88l-75 38l131 142h68l130 -142l-75 -38zM315 999l83 -19q-9 -108 -92 -108q-38 0 -74 21q-23 13 -36 13q-7 0 -9.5 -6.5t-7.5 -31.5l-81 19q11 108 93 108q32 0 75 -23q22 -11 35 -11
q7 0 9.5 7t4.5 31z" />
    <glyph glyph-name="uni1EC5" unicode="&#x1ec5;" horiz-adv-x="494" 
d="M466 183h-335q10 -51 42.5 -79t81.5 -28q75 0 112 57q0 1 5 8q2 4 4 7l86 -36q-75 -126 -207 -126q-97 0 -162 67.5t-65 168.5q0 98 64 166.5t157 68.5q95 0 156 -69.5t61 -176.5v-28zM131 260h236q-28 108 -117 108q-46 0 -77 -28.5t-42 -79.5zM316 814l83 -20
q-9 -108 -92 -108q-38 0 -74 21q-23 13 -36 13q-7 0 -10 -7t-7 -31l-81 19q11 108 93 108q32 0 75 -23q20 -11 35 -11q7 0 9.5 7.5t4.5 31.5zM249 571l-90 -88l-75 37l131 143h68l130 -143l-74 -37z" />
    <glyph glyph-name="uni1EC6" unicode="&#x1ec6;" horiz-adv-x="481" 
d="M435 571h-258v-185h230v-96h-230v-194h268v-96h-372v667h362v-96zM272 -47q26 0 45 -18.5t19 -44.5q0 -27 -19 -45.5t-46 -18.5q-26 0 -44.5 19t-18.5 46q0 25 19 43.5t45 18.5zM259 788l-89 -88l-75 37l130 143h69l130 -143l-75 -37z" />
    <glyph glyph-name="uni1EC7" unicode="&#x1ec7;" horiz-adv-x="494" 
d="M466 183h-335q10 -51 42.5 -79t81.5 -28q75 0 112 57q0 1 5 8q2 4 4 7l86 -36q-75 -126 -207 -126q-97 0 -162 67.5t-65 168.5q0 98 64 166.5t157 68.5q95 0 156 -69.5t61 -176.5v-28zM131 260h236q-28 108 -117 108q-46 0 -77 -28.5t-42 -79.5zM254 -47q26 0 45 -18.5
t19 -44.5q0 -27 -19 -45.5t-46 -18.5q-26 0 -44.5 19t-18.5 46q0 25 19 43.5t45 18.5zM252 588l-90 -88l-74 37l130 143h68l130 -143l-74 -37z" />
    <glyph glyph-name="uni1EC8" unicode="&#x1ec8;" horiz-adv-x="250" 
d="M177 667v-667h-104v667h104zM61 804l-29 74q49 19 87 19q43 0 70.5 -23t27.5 -58q0 -28 -18 -55l-15 -24q-6 -10 -6 -21q0 -5 1 -8h-90q1 37 16 60l10 13q11 17 11 21q0 13 -17 13q-14 0 -48 -11z" />
    <glyph glyph-name="uni1EC9" unicode="&#x1ec9;" horiz-adv-x="213" 
d="M157 443v-443h-100v443h100zM42 598l-29 74q49 19 87 19q43 0 70.5 -23t27.5 -58q0 -28 -18 -55l-15 -24q-6 -10 -6 -20q0 -6 1 -9h-90q1 38 16 60l10 13q11 17 11 21q0 13 -17 13q-14 0 -48 -11z" />
    <glyph glyph-name="uni1ECA" unicode="&#x1eca;" horiz-adv-x="250" 
d="M177 667v-667h-104v667h104zM125 -47q26 0 45 -18.5t19 -45.5q0 -26 -19 -44.5t-45 -18.5q-27 0 -45.5 18.5t-18.5 45.5q0 26 19 44.5t45 18.5z" />
    <glyph glyph-name="uni1ECB" unicode="&#x1ecb;" horiz-adv-x="213" 
d="M157 443v-443h-100v443h100zM106 657q27 0 46 -18.5t19 -45.5t-19 -45.5t-46 -18.5t-45.5 19t-18.5 46q0 26 19 44.5t45 18.5zM106 -47q27 0 45.5 -18.5t18.5 -45.5q0 -26 -19 -44.5t-45 -18.5q-27 0 -45.5 18.5t-18.5 45.5q0 26 19 44.5t45 18.5z" />
    <glyph glyph-name="uni1ECC" unicode="&#x1ecc;" horiz-adv-x="762" 
d="M381 681q142 0 244 -102.5t102 -245.5q0 -142 -102 -244.5t-243 -102.5q-145 0 -246 102.5t-101 249.5q0 139 103 241t243 102zM379 583q-100 0 -169.5 -73.5t-69.5 -180.5q0 -100 71.5 -172.5t169.5 -72.5q99 0 170 73t71 176q0 105 -70.5 177.5t-172.5 72.5zM381 -47
q26 0 45 -18.5t19 -45.5q0 -26 -19 -44.5t-45 -18.5q-27 0 -45.5 18.5t-18.5 45.5q0 26 19 44.5t45 18.5z" />
    <glyph glyph-name="uni1ECD" unicode="&#x1ecd;" horiz-adv-x="522" 
d="M264 457q96 0 163 -68.5t67 -166.5q0 -100 -67.5 -168t-165.5 -68t-165.5 68t-67.5 168t68 167.5t168 67.5zM259 367q-57 0 -93.5 -40.5t-36.5 -104.5q0 -65 37 -105.5t95 -40.5q59 0 95.5 41t36.5 106q0 64 -37 104t-97 40zM261 -47q26 0 45 -18.5t19 -44.5
q0 -27 -19 -45.5t-46 -18.5q-26 0 -44.5 19t-18.5 46q0 25 19 43.5t45 18.5z" />
    <glyph glyph-name="uni1ECE" unicode="&#x1ece;" horiz-adv-x="762" 
d="M381 681q142 0 244 -102.5t102 -245.5q0 -142 -102 -244.5t-243 -102.5q-145 0 -246 102.5t-101 249.5q0 139 103 241t243 102zM379 583q-100 0 -169.5 -73.5t-69.5 -180.5q0 -100 71.5 -172.5t169.5 -72.5q99 0 170 73t71 176q0 105 -70.5 177.5t-172.5 72.5zM318 804
l-29 74q49 19 86 19q43 0 70.5 -23t27.5 -58q0 -29 -17 -55l-16 -24q-5 -9 -5 -20v-9h-90q1 39 17 60l9 13q11 16 11 21q0 13 -17 13q-14 0 -47 -11z" />
    <glyph glyph-name="uni1ECF" unicode="&#x1ecf;" horiz-adv-x="522" 
d="M264 457q96 0 163 -68.5t67 -166.5q0 -100 -67.5 -168t-165.5 -68t-165.5 68t-67.5 168t68 167.5t168 67.5zM259 367q-57 0 -93.5 -40.5t-36.5 -104.5q0 -65 37 -105.5t95 -40.5q59 0 95.5 41t36.5 106q0 64 -37 104t-97 40zM198 598l-29 74q49 19 87 19q43 0 70.5 -23
t27.5 -58q0 -26 -18 -55l-15 -24q-6 -8 -6 -21v-8h-89q1 37 16 60l9 13q12 16 12 21q0 13 -17 13q-14 0 -48 -11z" />
    <glyph glyph-name="uni1ED0" unicode="&#x1ed0;" horiz-adv-x="762" 
d="M509 777l36 -40l-74 -37l-90 84l-90 -84l-74 37l130 143h68l39 -42l81 112l96 -51zM381 681q142 0 244 -102.5t102 -245.5q0 -142 -102 -244.5t-243 -102.5q-145 0 -246 102.5t-101 249.5q0 139 103 241t243 102zM379 583q-100 0 -169.5 -73.5t-69.5 -180.5
q0 -100 71.5 -172.5t169.5 -72.5q99 0 170 73t71 176q0 105 -70.5 177.5t-172.5 72.5z" />
    <glyph glyph-name="uni1ED1" unicode="&#x1ed1;" horiz-adv-x="522" 
d="M264 457q96 0 163 -68.5t67 -166.5q0 -100 -67.5 -168t-165.5 -68t-165.5 68t-67.5 168t68 167.5t168 67.5zM259 367q-57 0 -93.5 -40.5t-36.5 -104.5q0 -65 37 -105.5t95 -40.5q59 0 95.5 41t36.5 106q0 64 -37 104t-97 40zM261 571l-89 -88l-75 37l130 143h68l131 -143
l-75 -37zM543 746l-145 -145l-66 38l116 158z" />
    <glyph glyph-name="uni1ED2" unicode="&#x1ed2;" horiz-adv-x="762" 
d="M381 681q142 0 244 -102.5t102 -245.5q0 -142 -102 -244.5t-243 -102.5q-145 0 -246 102.5t-101 249.5q0 139 103 241t243 102zM379 583q-100 0 -169.5 -73.5t-69.5 -180.5q0 -100 71.5 -172.5t169.5 -72.5q99 0 170 73t71 176q0 105 -70.5 177.5t-172.5 72.5zM381 788
l-90 -88l-74 37l130 143h68l130 -143l-74 -37zM427 899l95 51l115 -158l-66 -38z" />
    <glyph glyph-name="uni1ED3" unicode="&#x1ed3;" horiz-adv-x="522" 
d="M264 457q96 0 163 -68.5t67 -166.5q0 -100 -67.5 -168t-165.5 -68t-165.5 68t-67.5 168t68 167.5t168 67.5zM259 367q-57 0 -93.5 -40.5t-36.5 -104.5q0 -65 37 -105.5t95 -40.5q59 0 95.5 41t36.5 106q0 64 -37 104t-97 40zM261 571l-89 -88l-75 37l130 143h68l131 -143
l-75 -37zM247 746l95 51l115 -158l-66 -38z" />
    <glyph glyph-name="uni1ED4" unicode="&#x1ed4;" horiz-adv-x="762" 
d="M415 880l82 -90q3 11 13 27l10 14q11 16 11 21q0 13 -17 13q-15 0 -47 -12l-30 75q50 19 87 19q43 0 70.5 -23t27.5 -58q0 -29 -18 -56l-15 -24q-5 -7 -5 -29h-57l18 -20l-74 -38l-90 88l-90 -88l-74 38l130 143h68zM381 681q142 0 244 -102.5t102 -245.5
q0 -142 -102 -244.5t-243 -102.5q-145 0 -246 102.5t-101 249.5q0 139 103 241t243 102zM379 583q-100 0 -169.5 -73.5t-69.5 -180.5q0 -100 71.5 -172.5t169.5 -72.5q99 0 170 73t71 176q0 105 -70.5 177.5t-172.5 72.5z" />
    <glyph glyph-name="uni1ED5" unicode="&#x1ed5;" horiz-adv-x="522" 
d="M295 663l49 -54q1 34 17 55l9 14q11 16 11 21q0 13 -17 13q-14 0 -47 -11l-29 74q49 19 86 19q43 0 70.5 -23t27.5 -58q0 -29 -17 -55l-16 -25q-5 -9 -5 -20v-9h-85l77 -84l-75 -38l-90 88l-89 -88l-75 38l130 143h68zM264 457q96 0 163 -68.5t67 -166.5
q0 -100 -67.5 -168t-165.5 -68t-165.5 68t-67.5 168t68 167.5t168 67.5zM259 367q-57 0 -93.5 -40.5t-36.5 -104.5q0 -65 37 -105.5t95 -40.5q59 0 95.5 41t36.5 106q0 64 -37 104t-97 40z" />
    <glyph glyph-name="uni1ED6" unicode="&#x1ed6;" horiz-adv-x="762" 
d="M381 681q142 0 244 -102.5t102 -245.5q0 -142 -102 -244.5t-243 -102.5q-145 0 -246 102.5t-101 249.5q0 139 103 241t243 102zM379 583q-100 0 -169.5 -73.5t-69.5 -180.5q0 -100 71.5 -172.5t169.5 -72.5q99 0 170 73t71 176q0 105 -70.5 177.5t-172.5 72.5zM381 768
l-90 -88l-74 38l130 142h68l130 -142l-74 -38zM448 999l83 -19q-7 -108 -92 -108q-39 0 -73 21q-24 13 -37 13q-7 0 -9.5 -6.5t-7.5 -31.5l-81 19q11 108 93 108q34 0 75 -23q22 -11 35 -11q7 0 9.5 7t4.5 31z" />
    <glyph glyph-name="uni1ED7" unicode="&#x1ed7;" horiz-adv-x="522" 
d="M264 457q96 0 163 -68.5t67 -166.5q0 -100 -67.5 -168t-165.5 -68t-165.5 68t-67.5 168t68 167.5t168 67.5zM259 367q-57 0 -93.5 -40.5t-36.5 -104.5q0 -65 37 -105.5t95 -40.5q59 0 95.5 41t36.5 106q0 64 -37 104t-97 40zM328 814l83 -20q-7 -108 -92 -108
q-39 0 -73 21q-24 13 -37 13q-7 0 -9.5 -6.5t-7.5 -31.5l-81 19q11 108 93 108q32 0 75 -23q22 -11 35 -11q12 0 14 39zM261 571l-89 -88l-75 37l130 143h68l131 -143l-75 -37z" />
    <glyph glyph-name="uni1ED8" unicode="&#x1ed8;" horiz-adv-x="762" 
d="M381 681q142 0 244 -102.5t102 -245.5q0 -142 -102 -244.5t-243 -102.5q-145 0 -246 102.5t-101 249.5q0 139 103 241t243 102zM379 583q-100 0 -169.5 -73.5t-69.5 -180.5q0 -100 71.5 -172.5t169.5 -72.5q99 0 170 73t71 176q0 105 -70.5 177.5t-172.5 72.5zM381 788
l-90 -88l-74 37l130 143h68l130 -143l-74 -37zM381 -47q26 0 45 -18.5t19 -45.5q0 -26 -19 -44.5t-45 -18.5q-27 0 -45.5 18.5t-18.5 45.5q0 26 19 44.5t45 18.5z" />
    <glyph glyph-name="uni1ED9" unicode="&#x1ed9;" horiz-adv-x="522" 
d="M264 457q96 0 163 -68.5t67 -166.5q0 -100 -67.5 -168t-165.5 -68t-165.5 68t-67.5 168t68 167.5t168 67.5zM259 367q-57 0 -93.5 -40.5t-36.5 -104.5q0 -65 37 -105.5t95 -40.5q59 0 95.5 41t36.5 106q0 64 -37 104t-97 40zM261 -47q26 0 45 -18.5t19 -44.5
q0 -27 -19 -45.5t-46 -18.5q-26 0 -44.5 19t-18.5 46q0 25 19 43.5t45 18.5zM261 588l-89 -88l-75 37l130 143h68l131 -143l-75 -37z" />
    <glyph glyph-name="uni1EDA" unicode="&#x1eda;" horiz-adv-x="769" 
d="M612 721l74 38q68 -48 68 -118q0 -75 -78 -128q51 -88 51 -180q0 -142 -102 -244.5t-244 -102.5t-244 102.5t-102 244.5q0 143 102 245.5t244 102.5q67 0 130 -26t109 -73q45 22 45 59q0 22 -11 38.5t-42 41.5zM379 583q-100 0 -169.5 -73.5t-69.5 -180.5
q0 -100 71.5 -172.5t169.5 -72.5q99 0 170 73t71 176q0 104 -70.5 177t-172.5 73zM527 844l-144 -145l-66 38l115 158z" />
    <glyph glyph-name="uni1EDB" unicode="&#x1edb;" horiz-adv-x="564" 
d="M412 498l75 37q67 -48 67 -118q0 -73 -70 -123q10 -37 10 -73q0 -99 -67.5 -167t-165.5 -68t-165.5 68t-67.5 168q0 99 67.5 167t166.5 68q113 0 180 -86q23 17 23 46q0 22 -11 38.5t-42 42.5zM259 367q-57 0 -93.5 -40.5t-36.5 -104.5q0 -65 37 -105.5t95 -40.5
q59 0 95.5 41t36.5 106q0 64 -37 104t-97 40zM393 644l-144 -145l-66 38l115 158z" />
    <glyph glyph-name="uni1EDC" unicode="&#x1edc;" horiz-adv-x="769" 
d="M612 721l74 38q68 -48 68 -118q0 -75 -78 -128q51 -88 51 -180q0 -142 -102 -244.5t-244 -102.5t-244 102.5t-102 244.5q0 143 102 245.5t244 102.5q67 0 130 -26t109 -73q45 22 45 59q0 22 -11 38.5t-42 41.5zM379 583q-100 0 -169.5 -73.5t-69.5 -180.5
q0 -100 71.5 -172.5t169.5 -72.5q99 0 170 73t71 176q0 104 -70.5 177t-172.5 73zM234 844l96 51l115 -158l-66 -38z" />
    <glyph glyph-name="uni1EDD" unicode="&#x1edd;" horiz-adv-x="564" 
d="M412 498l75 37q67 -48 67 -118q0 -73 -70 -123q10 -37 10 -73q0 -99 -67.5 -167t-165.5 -68t-165.5 68t-67.5 168q0 99 67.5 167t166.5 68q113 0 180 -86q23 17 23 46q0 22 -11 38.5t-42 42.5zM259 367q-57 0 -93.5 -40.5t-36.5 -104.5q0 -65 37 -105.5t95 -40.5
q59 0 95.5 41t36.5 106q0 64 -37 104t-97 40zM115 644l95 51l115 -158l-66 -38z" />
    <glyph glyph-name="uni1EDE" unicode="&#x1ede;" horiz-adv-x="769" 
d="M612 721l74 38q68 -48 68 -118q0 -75 -78 -128q51 -88 51 -180q0 -142 -102 -244.5t-244 -102.5t-244 102.5t-102 244.5q0 143 102 245.5t244 102.5q67 0 130 -26t109 -73q45 22 45 59q0 22 -11 38.5t-42 41.5zM379 583q-100 0 -169.5 -73.5t-69.5 -180.5
q0 -100 71.5 -172.5t169.5 -72.5q99 0 170 73t71 176q0 104 -70.5 177t-172.5 73zM325 804l-29 74q49 19 86 19q43 0 70.5 -23t27.5 -58q0 -29 -17 -55l-16 -24q-5 -9 -5 -20v-9h-90q1 37 17 60l9 13q11 16 11 21q0 13 -17 13q-13 0 -47 -11z" />
    <glyph glyph-name="uni1EDF" unicode="&#x1edf;" horiz-adv-x="564" 
d="M412 498l75 37q67 -48 67 -118q0 -73 -70 -123q10 -37 10 -73q0 -99 -67.5 -167t-165.5 -68t-165.5 68t-67.5 168q0 99 67.5 167t166.5 68q113 0 180 -86q23 17 23 46q0 22 -11 38.5t-42 42.5zM259 367q-57 0 -93.5 -40.5t-36.5 -104.5q0 -65 37 -105.5t95 -40.5
q59 0 95.5 41t36.5 106q0 64 -37 104t-97 40zM204 598l-30 74q50 19 87 19q43 0 70.5 -23t27.5 -58q0 -27 -17 -55l-16 -24q-5 -8 -5 -29h-90q1 38 16 60l10 13q11 17 11 21q0 13 -17 13q-14 0 -47 -11z" />
    <glyph glyph-name="uni1EE0" unicode="&#x1ee0;" horiz-adv-x="769" 
d="M612 721l74 38q68 -48 68 -118q0 -75 -78 -128q51 -88 51 -180q0 -142 -102 -244.5t-244 -102.5t-244 102.5t-102 244.5q0 143 102 245.5t244 102.5q67 0 130 -26t109 -73q45 22 45 59q0 22 -11 38.5t-42 41.5zM379 583q-100 0 -169.5 -73.5t-69.5 -180.5
q0 -100 71.5 -172.5t169.5 -72.5q99 0 170 73t71 176q0 104 -70.5 177t-172.5 73zM448 857l82 -20q-8 -108 -91 -108q-38 0 -74 21q-24 13 -37 13q-10 0 -17 -38l-81 19q12 108 94 108q32 0 75 -23q20 -11 35 -11q10 0 14 39z" />
    <glyph glyph-name="uni1EE1" unicode="&#x1ee1;" horiz-adv-x="564" 
d="M412 498l75 37q67 -48 67 -118q0 -73 -70 -123q10 -37 10 -73q0 -99 -67.5 -167t-165.5 -68t-165.5 68t-67.5 168q0 99 67.5 167t166.5 68q113 0 180 -86q23 17 23 46q0 22 -11 38.5t-42 42.5zM259 367q-57 0 -93.5 -40.5t-36.5 -104.5q0 -65 37 -105.5t95 -40.5
q59 0 95.5 41t36.5 106q0 64 -37 104t-97 40zM328 657l83 -19q-7 -108 -92 -108q-38 0 -73 20q-24 13 -37 13q-7 0 -9.5 -6.5t-7.5 -31.5l-81 19q11 108 93 108q34 0 75 -22q22 -11 35 -11q12 0 14 38z" />
    <glyph glyph-name="uni1EE2" unicode="&#x1ee2;" horiz-adv-x="769" 
d="M612 721l74 38q68 -48 68 -118q0 -75 -78 -128q51 -88 51 -180q0 -142 -102 -244.5t-244 -102.5t-244 102.5t-102 244.5q0 143 102 245.5t244 102.5q67 0 130 -26t109 -73q45 22 45 59q0 22 -11 38.5t-42 41.5zM379 583q-100 0 -169.5 -73.5t-69.5 -180.5
q0 -100 71.5 -172.5t169.5 -72.5q99 0 170 73t71 176q0 104 -70.5 177t-172.5 73zM381 -47q26 0 45 -18.5t19 -44.5t-19 -45t-45 -19q-27 0 -45.5 18.5t-18.5 45.5q0 26 19 44.5t45 18.5z" />
    <glyph glyph-name="uni1EE3" unicode="&#x1ee3;" horiz-adv-x="564" 
d="M412 498l75 37q67 -48 67 -118q0 -73 -70 -123q10 -37 10 -73q0 -99 -67.5 -167t-165.5 -68t-165.5 68t-67.5 168q0 99 67.5 167t166.5 68q113 0 180 -86q23 17 23 46q0 22 -11 38.5t-42 42.5zM259 367q-57 0 -93.5 -40.5t-36.5 -104.5q0 -65 37 -105.5t95 -40.5
q59 0 95.5 41t36.5 106q0 64 -37 104t-97 40zM261 -47q26 0 45 -18.5t19 -44.5q0 -27 -19 -45.5t-46 -18.5q-26 0 -44.5 19t-18.5 46q0 25 19 43.5t45 18.5z" />
    <glyph glyph-name="uni1EE4" unicode="&#x1ee4;" horiz-adv-x="638" 
d="M73 667h104v-411q0 -79 17 -109q17 -28 51.5 -45.5t72.5 -17.5q39 0 73.5 17.5t51.5 45.5q17 30 17 109v411h104v-430q0 -83 -29 -134q-32 -53 -90.5 -85t-125.5 -32q-68 0 -126.5 32t-90.5 85q-29 51 -29 134v430zM319 -47q26 0 45 -18.5t19 -45.5q0 -26 -19 -44.5
t-46 -18.5q-26 0 -44.5 19t-18.5 46q0 25 19 43.5t45 18.5z" />
    <glyph glyph-name="uni1EE5" unicode="&#x1ee5;" horiz-adv-x="509" 
d="M453 0h-100v32q-47 -46 -112 -46q-50 0 -93 23.5t-65 63.5q-27 45 -27 131v239h100v-231q0 -66 16 -95q21 -39 78 -39q28 0 52 12t34 31q17 29 17 101v221h100v-443zM250 -47q26 0 45 -18.5t19 -45.5q0 -26 -19 -44.5t-46 -18.5q-26 0 -44.5 19t-18.5 46q0 25 19 43.5
t45 18.5z" />
    <glyph glyph-name="uni1EE6" unicode="&#x1ee6;" horiz-adv-x="638" 
d="M73 667h104v-411q0 -79 17 -109q17 -28 51.5 -45.5t72.5 -17.5q39 0 73.5 17.5t51.5 45.5q17 30 17 109v411h104v-430q0 -83 -29 -134q-32 -53 -90.5 -85t-125.5 -32q-68 0 -126.5 32t-90.5 85q-29 51 -29 134v430zM254 804l-30 74q50 19 87 19q43 0 70.5 -23t27.5 -58
q0 -28 -18 -55l-15 -24q-5 -8 -5 -29h-90q1 38 16 60l10 13q11 17 11 21q0 13 -17 13q-14 0 -47 -11z" />
    <glyph glyph-name="uni1EE7" unicode="&#x1ee7;" horiz-adv-x="509" 
d="M453 0h-100v32q-47 -46 -112 -46q-50 0 -93 23.5t-65 63.5q-27 45 -27 131v239h100v-231q0 -66 16 -95q21 -39 78 -39q28 0 52 12t34 31q17 29 17 101v221h100v-443zM189 598l-29 74q49 19 87 19q43 0 70.5 -23t27.5 -58q0 -28 -18 -55l-15 -24q-6 -10 -6 -20q0 -6 1 -9
h-90q1 38 16 60l10 13q11 17 11 21q0 13 -17 13q-14 0 -48 -11z" />
    <glyph glyph-name="uni1EE8" unicode="&#x1ee8;" horiz-adv-x="683" 
d="M564 667v-79q33 21 33 53q0 22 -11 38.5t-42 41.5l75 38q67 -48 67 -119q0 -99 -122 -149v-254q0 -83 -29 -134q-32 -53 -90.5 -85t-125.5 -32q-68 0 -126.5 32t-90.5 85q-29 51 -29 134v430h104v-411q0 -79 17 -109q17 -28 51.5 -45.5t72.5 -17.5t73.5 17.5t51.5 45.5
q17 30 17 109v411h104zM465 844l-144 -145l-66 38l115 158z" />
    <glyph glyph-name="uni1EE9" unicode="&#x1ee9;" horiz-adv-x="586" 
d="M453 443v-80q34 21 34 54q0 22 -11 38.5t-42 41.5l75 38q67 -48 67 -119q0 -50 -30 -86t-93 -63v-267h-100v32q-47 -46 -112 -46q-50 0 -93 23.5t-65 63.5q-27 45 -27 131v239h100v-231q0 -66 16 -95q21 -39 78 -39q28 0 52 12t34 31q17 29 17 101v221h100zM396 644
l-144 -145l-66 38l115 158z" />
    <glyph glyph-name="uni1EEA" unicode="&#x1eea;" horiz-adv-x="683" 
d="M564 667v-79q33 21 33 53q0 22 -11 38.5t-42 41.5l75 38q67 -48 67 -119q0 -99 -122 -149v-254q0 -83 -29 -134q-32 -53 -90.5 -85t-125.5 -32q-68 0 -126.5 32t-90.5 85q-29 51 -29 134v430h104v-411q0 -79 17 -109q17 -28 51.5 -45.5t72.5 -17.5t73.5 17.5t51.5 45.5
q17 30 17 109v411h104zM172 844l95 51l115 -158l-66 -38z" />
    <glyph glyph-name="uni1EEB" unicode="&#x1eeb;" horiz-adv-x="586" 
d="M453 443v-80q34 21 34 54q0 22 -11 38.5t-42 41.5l75 38q67 -48 67 -119q0 -50 -30 -86t-93 -63v-267h-100v32q-47 -46 -112 -46q-50 0 -93 23.5t-65 63.5q-27 45 -27 131v239h100v-231q0 -66 16 -95q21 -39 78 -39q28 0 52 12t34 31q17 29 17 101v221h100zM103 644
l95 51l115 -158l-66 -38z" />
    <glyph glyph-name="uni1EEC" unicode="&#x1eec;" horiz-adv-x="683" 
d="M564 667v-79q33 21 33 53q0 22 -11 38.5t-42 41.5l75 38q67 -48 67 -119q0 -99 -122 -149v-254q0 -83 -29 -134q-32 -53 -90.5 -85t-125.5 -32q-68 0 -126.5 32t-90.5 85q-29 51 -29 134v430h104v-411q0 -79 17 -109q17 -28 51.5 -45.5t72.5 -17.5t73.5 17.5t51.5 45.5
q17 30 17 109v411h104zM261 804l-29 74q49 19 86 19q43 0 71 -23t28 -58q0 -26 -18 -55l-16 -24q-5 -9 -5 -21v-8h-89q1 37 16 60l9 13q12 16 12 21q0 13 -17 13q-14 0 -48 -11z" />
    <glyph glyph-name="uni1EED" unicode="&#x1eed;" horiz-adv-x="586" 
d="M453 443v-80q34 21 34 54q0 22 -11 38.5t-42 41.5l75 38q67 -48 67 -119q0 -50 -30 -86t-93 -63v-267h-100v32q-47 -46 -112 -46q-50 0 -93 23.5t-65 63.5q-27 45 -27 131v239h100v-231q0 -66 16 -95q21 -39 78 -39q28 0 52 12t34 31q17 29 17 101v221h100zM192 598
l-29 74q49 19 86 19q43 0 70.5 -23t27.5 -58q0 -29 -17 -55l-16 -24q-5 -9 -5 -20v-9h-90q1 39 17 60l9 13q11 16 11 21q0 13 -17 13q-14 0 -47 -11z" />
    <glyph glyph-name="uni1EEE" unicode="&#x1eee;" horiz-adv-x="683" 
d="M564 667v-79q33 21 33 53q0 22 -11 38.5t-42 41.5l75 38q67 -48 67 -119q0 -99 -122 -149v-254q0 -83 -29 -134q-32 -53 -90.5 -85t-125.5 -32q-68 0 -126.5 32t-90.5 85q-29 51 -29 134v430h104v-411q0 -79 17 -109q17 -28 51.5 -45.5t72.5 -17.5t73.5 17.5t51.5 45.5
q17 30 17 109v411h104zM387 857l82 -20q-7 -108 -91 -108q-40 0 -74 21q-24 13 -36 13q-7 0 -10.5 -7t-7.5 -31l-81 19q12 108 94 108q32 0 75 -23q20 -11 35 -11q10 0 14 39z" />
    <glyph glyph-name="uni1EEF" unicode="&#x1eef;" horiz-adv-x="586" 
d="M453 443v-80q34 21 34 54q0 22 -11 38.5t-42 41.5l75 38q67 -48 67 -119q0 -50 -30 -86t-93 -63v-267h-100v32q-47 -46 -112 -46q-50 0 -93 23.5t-65 63.5q-27 45 -27 131v239h100v-231q0 -66 16 -95q21 -39 78 -39q28 0 52 12t34 31q17 29 17 101v221h100zM322 657
l83 -19q-9 -108 -92 -108q-37 0 -74 20q-24 13 -36 13q-7 0 -10 -7t-7 -31l-81 19q11 108 93 108q34 0 75 -22q20 -11 35 -11q10 0 14 38z" />
    <glyph glyph-name="uni1EF0" unicode="&#x1ef0;" horiz-adv-x="683" 
d="M564 667v-79q33 21 33 53q0 22 -11 38.5t-42 41.5l75 38q67 -48 67 -119q0 -99 -122 -149v-254q0 -83 -29 -134q-32 -53 -90.5 -85t-125.5 -32q-68 0 -126.5 32t-90.5 85q-29 51 -29 134v430h104v-411q0 -79 17 -109q17 -28 51.5 -45.5t72.5 -17.5t73.5 17.5t51.5 45.5
q17 30 17 109v411h104zM319 -47q26 0 45 -18.5t19 -44.5t-19 -45t-45 -19q-27 0 -45.5 18.5t-18.5 45.5q0 26 19 44.5t45 18.5z" />
    <glyph glyph-name="uni1EF1" unicode="&#x1ef1;" horiz-adv-x="586" 
d="M453 443v-80q34 21 34 54q0 22 -11 38.5t-42 41.5l75 38q67 -48 67 -119q0 -50 -30 -86t-93 -63v-267h-100v32q-47 -46 -112 -46q-50 0 -93 23.5t-65 63.5q-27 45 -27 131v239h100v-231q0 -66 16 -95q21 -39 78 -39q28 0 52 12t34 31q17 29 17 101v221h100zM254 -47
q26 0 45 -18.5t19 -44.5t-19 -45t-45 -19q-27 0 -45.5 18.5t-18.5 45.5q0 26 19 44.5t45 18.5z" />
    <glyph glyph-name="Ygrave" unicode="&#x1ef2;" horiz-adv-x="529" 
d="M535 667l-219 -390v-277h-104v277l-219 390h115l156 -286l157 286h114zM124 844l96 51l115 -158l-66 -38z" />
    <glyph glyph-name="ygrave" unicode="&#x1ef3;" horiz-adv-x="463" 
d="M64 -234l112 254l-182 423h108l127 -301l132 301h108l-300 -677h-105zM92 644l95 51l115 -158l-66 -38z" />
    <glyph glyph-name="uni1EF4" unicode="&#x1ef4;" horiz-adv-x="529" 
d="M535 667l-219 -390v-277h-104v277l-219 390h115l156 -286l157 286h114zM264 -47q26 0 45 -18.5t19 -44.5t-19 -45t-45 -19q-27 0 -45.5 18.5t-18.5 45.5q0 26 19 44.5t45 18.5z" />
    <glyph glyph-name="uni1EF5" unicode="&#x1ef5;" horiz-adv-x="463" 
d="M64 -234l112 254l-182 423h108l127 -301l132 301h108l-300 -677h-105zM342 -47q26 0 45 -18.5t19 -44.5t-19 -45t-45 -19q-27 0 -45.5 18.5t-18.5 45.5q0 26 19 44.5t45 18.5z" />
    <glyph glyph-name="uni1EF6" unicode="&#x1ef6;" horiz-adv-x="529" 
d="M535 667l-219 -390v-277h-104v277l-219 390h115l156 -286l157 286h114zM201 804l-29 74q49 19 86 19q43 0 70.5 -23t27.5 -58q0 -29 -17 -55l-16 -24q-5 -9 -5 -20v-9h-89q0 37 16 60l9 13q11 16 11 21q0 13 -17 13q-13 0 -47 -11z" />
    <glyph glyph-name="uni1EF7" unicode="&#x1ef7;" horiz-adv-x="463" 
d="M64 -234l112 254l-182 423h108l127 -301l132 301h108l-300 -677h-105zM168 598l-29 74q49 19 87 19q43 0 70.5 -23t27.5 -58q0 -28 -18 -55l-15 -24q-6 -10 -6 -20q0 -6 1 -9h-90q1 38 16 60l10 13q11 17 11 22q0 12 -17 12q-14 0 -48 -11z" />
    <glyph glyph-name="uni1EF8" unicode="&#x1ef8;" horiz-adv-x="529" 
d="M535 667l-219 -390v-277h-104v277l-219 390h115l156 -286l157 286h114zM331 857l83 -20q-8 -108 -92 -108q-38 0 -73 21q-24 13 -37 13q-7 0 -9.5 -6.5t-7.5 -31.5l-81 19q11 108 93 108q32 0 75 -23q22 -11 35 -11q12 0 14 39z" />
    <glyph glyph-name="uni1EF9" unicode="&#x1ef9;" horiz-adv-x="463" 
d="M64 -234l112 254l-182 423h108l127 -301l132 301h108l-300 -677h-105zM299 657l82 -19q-7 -108 -91 -108q-39 0 -74 20q-24 13 -37 13q-10 0 -17 -38l-81 19q11 108 94 108q34 0 75 -22q20 -11 35 -11q10 0 14 38z" />
    <glyph glyph-name="uni2002" unicode="&#x2002;" horiz-adv-x="500" 
 />
    <glyph glyph-name="uni2003" unicode="&#x2003;" horiz-adv-x="1000" 
 />
    <glyph glyph-name="uni2004" unicode="&#x2004;" horiz-adv-x="333" 
 />
    <glyph glyph-name="uni2005" unicode="&#x2005;" horiz-adv-x="250" 
 />
    <glyph glyph-name="uni2006" unicode="&#x2006;" horiz-adv-x="67" 
 />
    <glyph glyph-name="uni2007" unicode="&#x2007;" horiz-adv-x="556" 
 />
    <glyph glyph-name="uni2009" unicode="&#x2009;" horiz-adv-x="125" 
 />
    <glyph glyph-name="uni200A" unicode="&#x200a;" horiz-adv-x="33" 
 />
    <glyph glyph-name="uni2011" unicode="&#x2011;" horiz-adv-x="268" 
d="M30 276h208v-91h-208v91z" />
    <glyph glyph-name="figuredash" unicode="&#x2012;" horiz-adv-x="579" 
d="M110 276h359v-91h-359v91z" />
    <glyph glyph-name="endash" unicode="&#x2013;" horiz-adv-x="579" 
d="M110 276h359v-91h-359v91z" />
    <glyph glyph-name="emdash" unicode="&#x2014;" horiz-adv-x="631" 
d="M30 276h571v-91h-571v91z" />
    <glyph glyph-name="afii00208" unicode="&#x2015;" horiz-adv-x="631" 
d="M30 276h571v-91h-571v91z" />
    <glyph glyph-name="underscoredbl" unicode="&#x2017;" horiz-adv-x="513" 
d="M-7 -58h527v-78h-527v78zM-7 -183h527v-78h-527v78z" />
    <glyph glyph-name="quoteleft" unicode="&#x2018;" horiz-adv-x="283" 
d="M141 433l-91 34l111 250l72 -29z" />
    <glyph glyph-name="quoteright" unicode="&#x2019;" horiz-adv-x="250" 
d="M119 717l91 -33l-111 -251l-72 29z" />
    <glyph glyph-name="quotesinglbase" unicode="&#x201a;" horiz-adv-x="250" 
d="M119 115l91 -34l-111 -250l-72 29z" />
    <glyph glyph-name="quotereversed" unicode="&#x201b;" horiz-adv-x="250" 
d="M131 717l92 -255l-72 -29l-111 251z" />
    <glyph glyph-name="quotedblleft" unicode="&#x201c;" horiz-adv-x="430" 
d="M288 433l-92 34l112 250l72 -29zM141 433l-91 34l111 250l72 -29z" />
    <glyph glyph-name="quotedblright" unicode="&#x201d;" horiz-adv-x="430" 
d="M142 717l91 -33l-111 -251l-72 29zM288 717l92 -33l-112 -251l-71 29z" />
    <glyph glyph-name="quotedblbase" unicode="&#x201e;" horiz-adv-x="430" 
d="M142 115l91 -34l-111 -250l-72 29zM288 115l92 -34l-112 -250l-71 29z" />
    <glyph glyph-name="dagger" unicode="&#x2020;" horiz-adv-x="552" 
d="M82 443h144v222h100v-222h145v-94h-145v-533h-100v533h-144v94z" />
    <glyph glyph-name="daggerdbl" unicode="&#x2021;" horiz-adv-x="552" 
d="M471 37h-145v-221h-100v221h-144v94h144v218h-144v94h144v222h100v-222h145v-94h-145v-218h145v-94z" />
    <glyph glyph-name="bullet" unicode="&#x2022;" horiz-adv-x="493" 
d="M249 487q61 0 106 -45.5t45 -107.5q0 -64 -45 -109t-108 -45q-64 0 -109 45t-45 110q0 63 45.5 107.5t110.5 44.5z" />
    <glyph glyph-name="ellipsis" unicode="&#x2026;" horiz-adv-x="762" 
d="M132 114q27 0 45.5 -18.5t18.5 -44.5t-19 -44.5t-45 -18.5q-27 0 -45.5 18.5t-18.5 45.5q0 25 19 43.5t45 18.5zM629 114q27 0 45.5 -18.5t18.5 -44.5t-19 -44.5t-45 -18.5q-27 0 -45.5 18.5t-18.5 45.5q0 25 19 43.5t45 18.5zM381 114q27 0 45.5 -18.5t18.5 -44.5
t-19 -44.5t-45 -18.5q-27 0 -45.5 18.5t-18.5 45.5q0 25 19 43.5t45 18.5z" />
    <glyph glyph-name="perthousand" unicode="&#x2030;" horiz-adv-x="1265" 
d="M694 403q160 0 160 -206q0 -205 -160 -205q-157 0 -157 208q0 99 40 151t117 52zM695 336q-83 0 -83 -135q0 -142 83 -142q84 0 84 138q0 139 -84 139zM612 681l56 -33l-383 -662l-56 32zM200 675q161 0 161 -206q0 -205 -160 -205q-158 0 -158 208q0 99 40 151t117 52z
M202 607q-84 0 -84 -134q0 -141 84 -141t84 138q0 137 -84 137zM1061 403q161 0 161 -206q0 -205 -160 -205q-158 0 -158 208q0 99 40 151t117 52zM1063 336q-84 0 -84 -135q0 -142 84 -142t84 138q0 139 -84 139z" />
    <glyph glyph-name="minute" unicode="&#x2032;" horiz-adv-x="192" 
d="M51 716l91 -33l-111 -249l-71 28z" />
    <glyph glyph-name="second" unicode="&#x2033;" horiz-adv-x="338" 
d="M51 716l91 -33l-111 -249l-71 28zM198 716l90 -33l-111 -249l-71 28z" />
    <glyph glyph-name="guilsinglleft" unicode="&#x2039;" horiz-adv-x="305" 
d="M261 73l-67 -53l-164 201l164 206l67 -53l-120 -152z" />
    <glyph glyph-name="guilsinglright" unicode="&#x203a;" horiz-adv-x="305" 
d="M44 73l121 149l-121 152l67 53l164 -206l-164 -201z" />
    <glyph glyph-name="uni203E" unicode="&#x203e;" horiz-adv-x="513" 
d="M-7 844h527v-91h-527v91z" />
    <glyph glyph-name="fraction" unicode="&#x2044;" horiz-adv-x="179" 
d="M253 681l56 -33l-382 -662l-57 32z" />
    <glyph glyph-name="zerosuperior" unicode="&#x2070;" 
d="M192 809q161 0 161 -206q0 -205 -159 -205t-159 208q0 99 40 151t117 52zM194 741q-84 0 -84 -134q0 -141 83 -141q36 0 56 22q12 14 20.5 47.5t8.5 68.5q0 137 -84 137z" />
    <glyph glyph-name="foursuperior" unicode="&#x2074;" 
d="M44 548l173 265l62 -36l-147 -223h83v91h74v-91h48v-66h-48v-82h-74v82h-171v60z" />
    <glyph glyph-name="fivesuperior" unicode="&#x2075;" 
d="M174 734l-13 -60q18 3 26 3q60 0 101.5 -40t41.5 -97q0 -60 -43 -101t-107 -41q-44 0 -76.5 20t-61.5 64l60 40q28 -56 78 -56q33 0 54.5 20.5t21.5 51.5t-21 51.5t-53 20.5q-19 0 -29 -4.5t-27 -20.5l-57 12l44 204h198v-67h-137z" />
    <glyph glyph-name="sixsuperior" unicode="&#x2076;" 
d="M216 814l58 -42l-76 -102q3 1 7 1q31 0 69 -20q30 -17 47.5 -47t17.5 -65q0 -59 -42.5 -100t-103.5 -41t-104 40.5t-43 99.5q0 48 33 92zM193 605q-31 0 -52 -20t-21 -49q0 -31 20.5 -51t52.5 -20q31 0 51.5 21t20.5 52q0 29 -20.5 48t-51.5 19z" />
    <glyph glyph-name="sevensuperior" unicode="&#x2077;" 
d="M253 734h-187v67h276v-52l-198 -356l-65 33z" />
    <glyph glyph-name="eightsuperior" unicode="&#x2078;" 
d="M103 616q-36 35 -36 78q0 49 36.5 82t90.5 33t90.5 -33t36.5 -82q0 -43 -36 -78q49 -39 49 -93t-40 -89.5t-100 -35.5t-100 35.5t-40 89.5q0 55 49 93zM194 581q-29 0 -47.5 -16.5t-18.5 -42.5t18.5 -42t47.5 -16t47.5 16.5t18.5 42.5t-18.5 42t-47.5 16zM194 745
q-25 0 -41 -14.5t-16 -36.5t16 -36t41 -14t41 14t16 36t-16 36.5t-41 14.5z" />
    <glyph glyph-name="ninesuperior" unicode="&#x2079;" 
d="M171 393l-58 42l77 103q-4 -1 -7 -1q-32 0 -70 20q-30 17 -47.5 47t-17.5 65q0 58 42.5 99t103.5 41t104 -40.5t43 -99.5q0 -47 -33 -92zM194 742q-31 0 -51.5 -20.5t-20.5 -51.5q0 -29 20.5 -48t51.5 -19t52 19.5t21 48.5q0 31 -20.5 51t-52.5 20z" />
    <glyph glyph-name="zeroinferior" unicode="&#x2080;" 
d="M192 273q161 0 161 -206q0 -205 -159 -205t-159 208q0 99 40 151t117 52zM194 205q-84 0 -84 -134q0 -141 83 -141q36 0 56 22q12 14 20.5 47.5t8.5 68.5q0 137 -84 137z" />
    <glyph glyph-name="oneinferior" unicode="&#x2081;" 
d="M246 -130h-74v308l-51 -27l-35 58l101 56h59v-395z" />
    <glyph glyph-name="twoinferior" unicode="&#x2082;" 
d="M62 -130v57l146 155q40 43 40 77q0 22 -14.5 34t-40.5 12q-29 0 -42 -12.5t-25 -49.5l-68 18q25 112 135 112q58 0 93 -31.5t35 -83.5q0 -58 -43 -103l-110 -118h162v-67h-268z" />
    <glyph glyph-name="threeinferior" unicode="&#x2083;" 
d="M153 43v67h32q59 0 59 48q0 22 -15 35t-39 13q-21 0 -34.5 -9t-30.5 -35l-63 33q26 41 55.5 59.5t72.5 18.5q55 0 91 -32.5t36 -81.5q0 -47 -34 -78q43 -37 43 -92t-39.5 -91t-99.5 -36q-109 0 -136 111l-1 5l72 18q10 -38 23.5 -52t41.5 -14q29 0 47 16.5t18 42.5
q0 54 -67 54h-32z" />
    <glyph glyph-name="fourinferior" unicode="&#x2084;" 
d="M44 12l173 266l62 -36l-147 -224h83v92h74v-92h48v-66h-48v-82h-74v82h-171v60z" />
    <glyph glyph-name="fiveinferior" unicode="&#x2085;" 
d="M174 199l-13 -60q12 2 26 2q59 0 101 -40t42 -97q0 -59 -43 -100t-107 -41q-44 0 -76.5 20t-61.5 64l60 40q27 -57 78 -57q33 0 54.5 20.5t21.5 51.5t-21 52t-53 21q-18 0 -28.5 -5t-27.5 -20l-57 11l44 205h198v-67h-137z" />
    <glyph glyph-name="sixinferior" unicode="&#x2086;" 
d="M216 278l58 -41l-76 -103q3 1 7 1q31 0 69 -20q30 -17 47.5 -47t17.5 -65q0 -59 -42.5 -100t-103.5 -41t-104 40.5t-43 99.5q0 48 33 92zM193 69q-31 0 -52 -20t-21 -49q0 -31 20.5 -51t52.5 -20q31 0 51.5 21t20.5 52q0 29 -20.5 48t-51.5 19z" />
    <glyph glyph-name="seveninferior" unicode="&#x2087;" 
d="M253 198h-187v67h276v-52l-198 -356l-65 33z" />
    <glyph glyph-name="eightinferior" unicode="&#x2088;" 
d="M103 81q-36 35 -36 78q0 48 36.5 81t90.5 33t90.5 -32.5t36.5 -81.5q0 -43 -36 -78q49 -39 49 -94q0 -54 -40 -89.5t-100 -35.5t-100 35.5t-40 89.5t49 94zM194 45q-29 0 -47.5 -16.5t-18.5 -42.5t18.5 -42t47.5 -16t47.5 16.5t18.5 42.5t-18.5 42t-47.5 16zM194 209
q-25 0 -41 -14.5t-16 -36.5t16 -36t41 -14t41 14t16 36t-16 36.5t-41 14.5z" />
    <glyph glyph-name="nineinferior" unicode="&#x2089;" 
d="M171 -142l-58 41l77 103h-7q-55 0 -95 39t-40 92q0 58 42.5 99t103.5 41t104 -40.5t43 -99.5q0 -47 -33 -91zM194 206q-31 0 -51.5 -20.5t-20.5 -51.5q0 -28 20.5 -47t51.5 -19t52 19.5t21 48.5q0 30 -21 50t-52 20z" />
    <glyph glyph-name="franc" unicode="&#x20a3;" horiz-adv-x="727" 
d="M453 571h-236v-185h178v-96h-178v-290h-104v667h340v-96zM428 386h100v-36q38 38 96 38q2 0 36 -2v-90q-20 2 -35 2q-59 0 -81 -40q-16 -31 -16 -102v-156h-100v386z" />
    <glyph glyph-name="lira" unicode="&#x20a4;" horiz-adv-x="563" 
d="M426 355h-196q7 -32 10 -45h186v-86h-173l1 -3q1 -11 1 -21q0 -14 -7 -39t-14 -38q0 -1 -9 -15q0 -1 -1.5 -2.5t-3.5 -4.5t-3 -5h303v-96h-452v90q50 39 66 61.5t16 52.5q0 10 -1 20h-81v86h66q0 2 -6 33l-3 12h-57v86h44v20q0 113 64 168q61 52 144 52q120 0 186 -121
l-83 -52q-25 41 -49.5 58.5t-58.5 17.5q-47 0 -73.5 -31.5t-26.5 -87.5v-24h211v-86z" />
    <glyph glyph-name="peseta" unicode="&#x20a7;" horiz-adv-x="604" 
d="M571 421h-58q-37 -167 -234 -163h-44v-258h-104v421h-54v83h54v163h148q101 2 158 -38t76 -125h58v-83zM407 421h-172v-69h52q53 1 80.5 16.5t39.5 52.5zM235 504h173q-13 37 -40.5 52t-80.5 16h-52v-68z" />
    <glyph glyph-name="uni20AB" unicode="&#x20ab;" horiz-adv-x="557" 
d="M389 598v69h100v-69h58v-90h-58v-508h-100v38q-68 -52 -136 -52q-92 0 -158.5 69.5t-66.5 166.5q0 96 66.5 165.5t158.5 69.5q68 0 136 -52v103h-116v90h116zM259 366q-57 0 -93.5 -40.5t-36.5 -103.5q0 -64 37 -104.5t95 -40.5q57 0 92.5 40.5t35.5 105.5
q0 64 -36 103.5t-94 39.5zM34 -52h508v-91h-508v91z" />
    <glyph glyph-name="Euro" unicode="&#x20ac;" horiz-adv-x="804" 
d="M166 224h-106l36 87h53q0 14 -1 18v16q0 5 1 9h-89l36 87h69q39 111 128 175.5t203 64.5q72 0 129.5 -25.5t114.5 -83.5l-39 -93q-54 55 -103 79.5t-107 24.5q-100 0 -169 -78q-31 -34 -45 -64h409l-37 -87h-395q-1 -11 -1 -22q0 -10 1 -21h377l-36 -87h-318
q34 -65 92 -102.5t125 -37.5q61 0 110 26t107 88v-134q-95 -78 -213 -78q-116 0 -202.5 62t-129.5 176z" />
    <glyph glyph-name="uni20B4" unicode="&#x20b4;" horiz-adv-x="618" 
d="M77 310h69q23 25 65 45h-134v83h308q25 24 25 52q0 40 -28.5 67t-72.5 27q-36 0 -60.5 -17t-53.5 -61l-84 53q40 65 85.5 93.5t109.5 28.5q89 0 148 -54t59 -135q0 -27 -9 -54h34v-83h-96q-26 -18 -62 -34l-21 -8q-4 -2 -7 -3h186v-83h-326q-6 -19 -6 -34q0 -46 33.5 -78
t81.5 -32q70 0 102 65q6 12 17 57l101 -27q-16 -72 -49 -114q-62 -78 -170 -78q-92 0 -156.5 60.5t-64.5 146.5q0 15 3 34h-27v83z" />
    <glyph glyph-name="uni2101" unicode="&#x2101;" horiz-adv-x="938" 
d="M864 325l-61 -36q-18 27 -32 36.5t-35 9.5q-23 0 -38.5 -13.5t-15.5 -34.5q0 -27 47 -43l38 -14q101 -37 101 -112q0 -53 -40.5 -90t-98.5 -37q-41 0 -74 19t-50 53q-6 12 -16 49l73 18q11 -40 25.5 -55.5t42.5 -15.5q26 0 44.5 17t18.5 41q0 17 -13 28.5t-45 23.5
l-37 13q-90 35 -90 106q0 49 37 82t93 33q41 0 69 -16.5t53 -55.5zM180 371l-39 -100h-78l156 396h84l124 -314l-46 -82l-39 100h-162zM206 438h110l-55 144zM675 681l56 -33l-382 -662l-57 32z" />
    <glyph glyph-name="afii61248" unicode="&#x2105;" horiz-adv-x="1050" 
d="M442 602l-52 -49q-30 30 -54.5 42t-56.5 12q-59 0 -99.5 -40t-40.5 -98t40.5 -97.5t99.5 -39.5q33 0 54 10t59 45l52 -48q-42 -41 -79.5 -58.5t-84.5 -17.5q-91 0 -154 60t-63 146t63 146.5t153 60.5q88 0 163 -74zM772 403q88 0 151.5 -60.5t63.5 -145.5q0 -84 -63 -145
t-151 -61q-90 0 -152.5 60.5t-62.5 147.5q0 83 63.5 143.5t150.5 60.5zM771 334q-58 0 -97.5 -40t-39.5 -99q0 -55 41 -95t97 -40q58 0 98.5 40t40.5 97q0 58 -40.5 97.5t-99.5 39.5zM685 681l56 -33l-383 -662l-56 32z" />
    <glyph glyph-name="uni2117" unicode="&#x2117;" horiz-adv-x="843" 
d="M389 277v-169h-84v450h117q60 0 95 -19q31 -18 49 -50.5t18 -71.5q0 -38 -17.5 -71t-48.5 -50q-35 -19 -96 -19h-33zM389 354h38q74 0 74 63t-74 63h-38v-126zM428 712q152 0 262 -112t110 -266q0 -157 -110.5 -268t-267.5 -111q-158 0 -268.5 111t-110.5 270
q0 157 112 266.5t273 109.5zM417 641q-124 0 -213.5 -91t-89.5 -216q0 -127 90 -217.5t217 -90.5q128 0 218 90.5t90 219.5q0 127 -91 216t-221 89z" />
    <glyph glyph-name="trademark" unicode="&#x2122;" horiz-adv-x="675" 
d="M302 361v312h49l108 -188l107 188h49v-312h-51v216l-85 -150h-41l-85 150v-216h-51zM268 627h-78v-266h-51v266h-79v46h208v-46z" />
    <glyph glyph-name="uni2126" unicode="&#x2126;" horiz-adv-x="796" 
d="M726 0h-274v142q88 25 136.5 82.5t48.5 134.5q0 94 -70 159.5t-170 65.5q-99 0 -169 -65.5t-70 -159.5q0 -54 26 -101.5t73 -78.5q33 -22 86 -37v-142h-274v96h134v1q-150 104 -150 262q0 132 101.5 227t242.5 95q142 0 243.5 -94.5t101.5 -227.5q0 -158 -150 -262v-1
h134v-96z" />
    <glyph glyph-name="estimated" unicode="&#x212e;" horiz-adv-x="741" 
d="M677 308h-482v-114q22 -59 49 -83q44 -41 130 -41q73 0 122 32.5t80 101.5h87q-25 -84 -68 -132q-78 -86 -220 -86q-146 0 -229 91t-83 251q0 163 84.5 258t228.5 95q98 0 173.5 -49.5t105.5 -134.5q21 -60 22 -189zM555 383v98q-46 116 -179 116q-68 0 -106.5 -25
t-74.5 -92v-97h360z" />
    <glyph glyph-name="onethird" unicode="&#x2153;" horiz-adv-x="833" 
d="M539 681l56 -33l-382 -662l-57 32zM587 173v66h32q59 0 59 49q0 22 -15 35t-39 13q-21 0 -34.5 -9.5t-30.5 -35.5l-63 33q26 42 55.5 60.5t72.5 18.5q55 0 91 -32.5t36 -82.5q0 -45 -34 -78q43 -36 43 -92q0 -55 -39.5 -90.5t-99.5 -35.5q-107 0 -136 111l-1 4l72 18
q10 -37 23.5 -51t41.5 -14q29 0 47 16.5t18 42.5q0 54 -67 54h-32zM213 272h-74v308l-51 -27l-35 58l101 56h59v-395z" />
    <glyph glyph-name="twothirds" unicode="&#x2154;" horiz-adv-x="833" 
d="M585 681l56 -33l-382 -662l-57 32zM51 272v57l146 155q40 45 40 77q0 22 -15 34t-41 12q-28 0 -41 -12.5t-25 -49.5l-68 18q25 112 136 112q57 0 92 -31.5t35 -83.5q0 -57 -43 -103l-110 -118h162v-67h-268zM586 173v66h32q59 0 59 49q0 22 -15 35t-39 13
q-21 0 -34.5 -9.5t-30.5 -35.5l-63 33q26 42 55.5 60.5t72.5 18.5q55 0 91 -32.5t36 -82.5q0 -45 -34 -78q43 -36 43 -91t-39.5 -91t-99.5 -36q-109 0 -136 111l-1 4l72 18q10 -37 23.5 -51t41.5 -14q29 0 47 16.5t18 42.5q0 54 -67 54h-32z" />
    <glyph glyph-name="oneeighth" unicode="&#x215b;" horiz-adv-x="833" 
d="M539 681l56 -33l-382 -662l-57 32zM213 272h-74v308l-51 -28l-35 58l101 56h59v-394zM530 210q-37 36 -37 78q0 49 36.5 82t91.5 33q54 0 90.5 -33t36.5 -82q0 -42 -37 -78q49 -39 49 -93t-39.5 -89.5t-99.5 -35.5t-100 35.5t-40 89.5t49 93zM620 175q-29 0 -47 -16.5
t-18 -42.5q0 -25 18 -41.5t47 -16.5t47.5 16.5t18.5 42.5t-18.5 42t-47.5 16zM620 339q-25 0 -41 -14.5t-16 -36.5t16.5 -36t41.5 -14t41 14t16 36t-16 36.5t-42 14.5z" />
    <glyph glyph-name="threeeighths" unicode="&#x215c;" horiz-adv-x="833" 
d="M520 210q-37 36 -37 78q0 49 36.5 82t91.5 33q54 0 90.5 -33t36.5 -82q0 -42 -37 -78q49 -38 49 -93q0 -54 -39.5 -89.5t-99.5 -35.5q-61 0 -100.5 35.5t-39.5 89.5q0 55 49 93zM609 175q-28 0 -46 -16t-18 -42t18.5 -42.5t47.5 -16.5t47 16.5t18 42.5t-18.5 42t-48.5 16
zM610 339q-25 0 -41 -14.5t-16 -37.5q0 -21 16 -35t41 -14t41.5 14t16.5 36t-16 36.5t-42 14.5zM148 445v67h32q59 0 59 47q0 22 -14.5 35t-39.5 13q-21 0 -34.5 -9t-30.5 -34l-63 33q26 41 55.5 59.5t72.5 18.5q55 0 91 -32.5t36 -81.5q0 -48 -34 -79q43 -34 43 -91
q0 -55 -39.5 -91t-99.5 -36q-109 0 -136 111l-1 5l72 18q10 -38 23.5 -52t41.5 -14q29 0 47 16.5t18 42.5q0 54 -67 54h-32zM564 681l57 -33l-383 -662l-57 32z" />
    <glyph glyph-name="fiveeighths" unicode="&#x215d;" horiz-adv-x="833" 
d="M177 600l-13 -60q12 2 26 2q59 0 101 -40t42 -97q0 -59 -43.5 -100t-106.5 -41q-44 0 -76.5 20t-61.5 64l60 40q27 -57 78 -57q33 0 54.5 20.5t21.5 51.5t-21 52t-53 21q-30 0 -56 -25l-57 11l44 205h198v-67h-137zM519 210q-36 36 -36 78q0 49 36.5 82t90.5 33t90.5 -33
t36.5 -82q0 -42 -36 -78q49 -39 49 -93t-40 -89.5t-100 -35.5t-100 35.5t-40 89.5t49 93zM609 339q-25 0 -40.5 -14.5t-15.5 -37.5q0 -21 16 -35t41 -14t41 14t16 36t-16 36.5t-42 14.5zM609 175q-29 0 -47 -16.5t-18 -41.5q0 -26 18.5 -42.5t47.5 -16.5t47.5 16.5
t18.5 42.5t-18.5 42t-48.5 16zM566 681l57 -33l-383 -662l-57 32z" />
    <glyph glyph-name="seveneighths" unicode="&#x215e;" horiz-adv-x="833" 
d="M529 681l57 -33l-383 -662l-56 32zM258 600h-187v67h276v-52l-198 -356l-65 33zM518 210q-37 34 -37 78q0 49 36.5 82t91.5 33q54 0 90.5 -33t36.5 -82q0 -42 -37 -78q49 -38 49 -93q0 -54 -39.5 -89.5t-99.5 -35.5q-61 0 -100.5 35.5t-39.5 89.5q0 55 49 93zM608 339
q-25 0 -41 -14.5t-16 -36.5t16 -36t41 -14t41.5 14t16.5 36t-16 36.5t-42 14.5zM608 175q-29 0 -47 -16.5t-18 -42.5t18.5 -42t47.5 -16t47 16.5t18 42.5t-18.5 42t-47.5 16z" />
    <glyph glyph-name="partialdiff" unicode="&#x2202;" horiz-adv-x="588" 
d="M369 440l-8 8q-87 111 -243 130l13 89q128 -17 206 -62q92 -53 141.5 -144.5t49.5 -207.5q0 -93 -35 -155q-30 -52 -83.5 -82t-116.5 -30q-98 0 -165.5 68t-67.5 168q0 96 66.5 165.5t158.5 69.5q41 0 84 -17zM292 366q-57 0 -94 -40.5t-37 -103.5q0 -64 36.5 -104.5
t95.5 -40.5t96 40.5t37 105.5q0 64 -37 103.5t-97 39.5z" />
    <glyph glyph-name="emptyset" unicode="&#x2205;" horiz-adv-x="631" 
d="M237 90l-53 -105l-72 37l53 105q-105 84 -105 205q0 107 74 182t180 75q36 0 80 -12l52 103l71 -37l-52 -104q59 -52 82.5 -97t23.5 -105q0 -110 -76 -184.5t-189 -74.5q-45 0 -69 12zM275 165q25 -4 42 -4q71 0 121.5 51t50.5 122q0 82 -61 132zM203 202l153 300
q-27 5 -42 5q-71 0 -121.5 -51.5t-50.5 -123.5q0 -68 61 -130z" />
    <glyph glyph-name="Delta" unicode="&#x2206;" horiz-adv-x="677" 
d="M653 0h-630l259 667h112zM169 97h338l-170 441z" />
    <glyph glyph-name="product" unicode="&#x220f;" horiz-adv-x="663" 
d="M211 571v-571h-104v571h-80v96h610v-96h-81v-571h-104v571h-241z" />
    <glyph glyph-name="summation" unicode="&#x2211;" horiz-adv-x="668" 
d="M122 583v84h437v-96l-312 1l159 -227l-173 -249h345v-96h-475v83l184 262z" />
    <glyph glyph-name="minus" unicode="&#x2212;" horiz-adv-x="556" 
d="M492 357v-89h-427v89h427z" />
    <glyph glyph-name="uni2215" unicode="&#x2215;" horiz-adv-x="179" 
d="M253 681l56 -33l-382 -662l-57 32z" />
    <glyph glyph-name="uni2218" unicode="&#x2218;" horiz-adv-x="493" 
d="M249 486q61 0 106 -45.5t45 -107.5q0 -64 -45 -108.5t-108 -44.5q-65 0 -109.5 45t-44.5 109t45.5 108t110.5 44zM245 425q-37 0 -64 -27t-27 -65t27 -65t66 -27q38 0 65 27t27 66q0 38 -27.5 64.5t-66.5 26.5z" />
    <glyph glyph-name="radical" unicode="&#x221a;" horiz-adv-x="628" 
d="M27 412h156l7 -21l81 -241l228 678h26h277v-96h-227l-249 -732h-111l-109 320h-79v92z" />
    <glyph glyph-name="infinity" unicode="&#x221e;" horiz-adv-x="710" 
d="M357 264q-43 -51 -80.5 -72.5t-84.5 -21.5q-73 0 -119 47t-46 121q0 72 47 119t118 47q46 0 84 -22t78 -72q74 94 166 94q72 0 118 -47t46 -121q0 -72 -46.5 -119t-117.5 -47q-89 0 -163 94zM409 337q28 -42 51.5 -59t52.5 -17q33 0 55 21.5t22 54.5q0 32 -22.5 54
t-56.5 22q-28 0 -51.5 -17.5t-50.5 -58.5zM302 337q-29 42 -52 59t-52 17q-33 0 -55 -22t-22 -55q0 -32 22.5 -54t56.5 -22q52 0 102 77z" />
    <glyph glyph-name="integral" unicode="&#x222b;" horiz-adv-x="306" 
d="M279 729v-90q-24 7 -39 7q-37 0 -37 -57v-626q0 -71 -30.5 -109.5t-87.5 -38.5q-27 0 -58 8v90q25 -7 39 -7q37 0 37 57v626q0 72 30.5 110t87.5 38q27 0 58 -8z" />
    <glyph glyph-name="similar" unicode="&#x223c;" horiz-adv-x="577" 
d="M97 224l-66 43q33 72 68.5 103t85.5 31q44 0 118 -35q64 -30 91 -30q25 0 42 14.5t43 57.5l67 -39q-28 -60 -60 -92q-42 -40 -97 -40q-28 0 -52 8t-98 41q-38 16 -62 16q-21 0 -39 -17.5t-41 -60.5z" />
    <glyph glyph-name="uni2243" unicode="&#x2243;" horiz-adv-x="577" 
d="M97 301l-66 43q33 73 68.5 103.5t85.5 30.5q45 0 118 -35q63 -30 91 -30q25 0 42 14t43 58l67 -39q-30 -62 -61 -92q-17 -17 -44.5 -28.5t-51.5 -11.5q-28 0 -53 8t-97 41q-38 16 -62 16q-21 0 -39 -17.5t-41 -60.5zM542 269v-88h-507v88h507z" />
    <glyph glyph-name="approxequal" unicode="&#x2248;" horiz-adv-x="577" 
d="M97 318l-66 43q34 73 69 103.5t85 30.5q46 0 118 -36q63 -30 91 -30q25 0 42 14.5t43 58.5l67 -40q-30 -62 -61 -92q-17 -17 -44.5 -28.5t-51.5 -11.5q-28 0 -52 8t-98 41q-37 17 -62 17q-21 0 -39 -17.5t-41 -60.5zM97 139l-66 43q33 72 68.5 103t85.5 31q45 0 118 -35
q63 -30 91 -30q25 0 42 14.5t43 57.5l67 -40q-28 -59 -60 -91q-42 -40 -97 -40q-28 0 -53 8t-97 41q-38 16 -62 16q-21 0 -38.5 -17t-41.5 -61z" />
    <glyph glyph-name="notequal" unicode="&#x2260;" horiz-adv-x="569" 
d="M391 432h148v-89h-193l-30 -61h223v-89h-268l-64 -128l-76 31l48 97h-148v89h193l30 61h-223v89h268l64 128l76 -31z" />
    <glyph glyph-name="lessequal" unicode="&#x2264;" horiz-adv-x="569" 
d="M515 125l-460 206v82l460 209v-101l-333 -147l333 -148v-101zM515 0h-460v89h460v-89z" />
    <glyph glyph-name="greaterequal" unicode="&#x2265;" horiz-adv-x="569" 
d="M55 125v101l333 148l-333 147v101l460 -209v-82zM55 0v89h460v-89h-460z" />
    <glyph glyph-name="dotmath" unicode="&#x22c5;" horiz-adv-x="243" 
d="M121 396q27 0 45.5 -18.5t18.5 -44.5t-18.5 -44.5t-46.5 -18.5q-26 0 -44.5 18.5t-18.5 45.5q0 25 19 43.5t45 18.5z" />
    <glyph glyph-name="lozenge" unicode="&#x25ca;" horiz-adv-x="659" 
d="M329 -40l-268 373l268 373l269 -373zM478 333l-149 209l-148 -209l148 -208z" />
    <glyph glyph-name="openbullet" unicode="&#x25e6;" horiz-adv-x="493" 
d="M249 486q61 0 106 -45.5t45 -107.5q0 -64 -45 -108.5t-108 -44.5q-65 0 -109.5 45t-44.5 109t45.5 108t110.5 44zM245 425q-37 0 -64 -27t-27 -65t27 -65t66 -27q38 0 65 27t27 66q0 38 -27.5 64.5t-66.5 26.5z" />
    <glyph glyph-name="commaaccent" unicode="&#xf6c3;" horiz-adv-x="476" 
d="M147 -213l54 182l95 -28l-76 -177z" />
    <glyph glyph-name="Acute" unicode="&#xf6c9;" horiz-adv-x="476" 
d="M385 844l-144 -145l-66 38l115 158z" />
    <glyph glyph-name="Caron" unicode="&#xf6ca;" horiz-adv-x="476" 
d="M238 800l90 88l75 -37l-131 -143h-68l-130 143l75 37z" />
    <glyph glyph-name="Dieresis" unicode="&#xf6cb;" horiz-adv-x="476" 
d="M330 854q27 0 45.5 -18.5t18.5 -44.5q0 -27 -19 -45.5t-45 -18.5q-27 0 -45.5 18.5t-18.5 45.5q0 26 19 44.5t45 18.5zM146 854q26 0 45 -18.5t19 -44.5q0 -27 -19 -45.5t-45 -18.5q-27 0 -45.5 19t-18.5 46q0 25 19 43.5t45 18.5z" />
    <glyph glyph-name="Grave" unicode="&#xf6ce;" horiz-adv-x="476" 
d="M91 844l95 51l115 -158l-66 -38z" />
    <glyph glyph-name="Hungarumlaut" unicode="&#xf6cf;" horiz-adv-x="476" 
d="M309 846l-147 -147l-56 38l115 158zM452 844l-144 -145l-58 36l116 160z" />
    <glyph glyph-name="Macron" unicode="&#xf6d0;" horiz-adv-x="476" 
d="M88 835h299v-89h-299v89z" />
    <glyph glyph-name="one.fitted" horiz-adv-x="556" 
d="M127 95h124v450l-91 -52l-49 84l158 90h85v-572h112v-95h-339v95z" />
    <glyph glyph-name="two.fitted" horiz-adv-x="556" 
d="M76 0v85l240 267q69 78 69 142q0 41 -27.5 65.5t-74.5 24.5q-57 0 -83 -32q-19 -23 -34 -75l-95 26q41 178 215 178q90 0 145.5 -52.5t55.5 -137.5q0 -95 -69 -172l-199 -223h283v-96h-426z" />
    <glyph glyph-name="three.fitted" horiz-adv-x="556" 
d="M49 169l101 27q16 -62 41.5 -87.5t74.5 -25.5q52 0 85 31.5t33 81.5q0 51 -31 78t-90 27h-44v95h44q52 0 80 24.5t28 69.5q0 42 -28 68t-74 26q-36 0 -60 -16t-51 -57l-86 47q37 65 83.5 94t112.5 29q89 0 147 -53.5t58 -135.5q0 -81 -63 -137q78 -64 78 -159
q0 -92 -63 -151t-160 -59q-99 0 -161 67q-36 38 -54 111z" />
    <glyph glyph-name="four.fitted" horiz-adv-x="556" 
d="M407 632l-248 -395h167v158h103v-158h79v-95h-79v-142h-103v142h-286v92l283 450z" />
    <glyph glyph-name="five.fitted" horiz-adv-x="556" 
d="M462 572h-227l-26 -129q19 8 51 8q99 0 166.5 -66t67.5 -163q0 -100 -69.5 -168t-170.5 -68q-70 0 -121.5 32t-94.5 102l82 57q25 -41 38 -55q36 -39 97 -39q58 0 96.5 39t38.5 97q0 59 -38 98t-95 39t-96 -43l-80 17l68 337h313v-95z" />
    <glyph glyph-name="six.fitted" horiz-adv-x="556" 
d="M398 625l-133 -188q11 3 19 3q95 0 161 -64t66 -156q0 -97 -68 -165.5t-165 -68.5q-98 0 -166.5 68t-68.5 165q0 81 52 154l223 311zM277 346q-56 0 -93.5 -37.5t-37.5 -93.5q0 -57 37.5 -95t94.5 -38q56 0 93 39.5t37 97.5q0 54 -37.5 90.5t-93.5 36.5z" />
    <glyph glyph-name="seven.fitted" horiz-adv-x="556" 
d="M100 30l293 542h-318v95h440v-76l-325 -608z" />
    <glyph glyph-name="eight.fitted" horiz-adv-x="556" 
d="M142 355q-66 62 -66 137q0 80 58 134.5t144 54.5t144 -54.5t58 -134.5q0 -75 -66 -137q87 -67 87 -162q0 -89 -63.5 -148t-159.5 -59t-159.5 59t-63.5 148q0 95 87 162zM276 304q-52 0 -85 -31.5t-33 -80.5t33.5 -80.5t86.5 -31.5t86.5 31.5t33.5 81.5t-33.5 80.5
t-88.5 30.5zM278 590q-46 0 -76 -28t-30 -71t30 -70.5t77 -27.5q46 0 75.5 28t29.5 71q0 42 -30.5 70t-75.5 28z" />
    <glyph glyph-name="nine.fitted" horiz-adv-x="556" 
d="M158 42l135 188q-8 -2 -22 -2q-94 0 -159.5 63.5t-65.5 155.5q0 97 68 165.5t165 68.5q98 0 166.5 -68t68.5 -165q0 -80 -53 -154l-222 -311zM279 585q-56 0 -93 -39.5t-37 -97.5q0 -53 37.5 -89.5t93.5 -36.5t93.5 37t37.5 93q0 57 -38 95t-94 38z" />
    <glyph glyph-name="zero.fitted" horiz-adv-x="556" 
d="M275 681q257 0 257 -348q0 -347 -254 -347q-129 0 -192 87t-63 265q0 148 50 236q62 107 202 107zM277 584q-60 0 -96 -41q-23 -25 -37.5 -81.5t-14.5 -121.5q0 -257 149 -257q148 0 148 254q0 162 -61 215q-34 32 -88 32z" />
    <glyph glyph-name="sterling.fitted" horiz-adv-x="556" 
d="M222 381h201v-93h-181q10 -62 10 -94q0 -48 -38 -98h303v-96h-452v90q2 1 5 4t5 4l2 2q40 30 55.5 53t15.5 52q0 32 -12 83h-71v93h51q-7 43 -7 82q0 111 64 166q61 52 144 52q120 0 186 -122l-83 -52q-25 42 -49.5 59.5t-58.5 17.5q-47 0 -73.5 -31t-26.5 -85
q0 -37 10 -87z" />
    <glyph glyph-name="dollar.fitted" horiz-adv-x="556" 
d="M233 -103v93q-151 25 -183 188l101 27q13 -48 22 -65q33 -56 97 -56q48 0 81.5 32.5t33.5 78.5q0 33 -23 55t-79 44l-61 23q-144 56 -144 175q0 68 42 117.5t113 65.5v92h102v-92q46 -10 80 -37.5t65 -78.5l-84 -53q-28 44 -53 61t-61 17q-43 0 -72 -26.5t-29 -66.5
q0 -54 85 -86l63 -24q161 -62 161 -185q0 -70 -42.5 -124.5t-112.5 -75.5v-99h-102z" />
    <glyph glyph-name="cent.fitted" horiz-adv-x="556" 
d="M241 0v104q-80 19 -129 82.5t-49 146.5q0 84 49 146.5t129 82.5v105h102v-103q74 -15 136 -82l-66 -65q-33 35 -57 48t-58 13q-60 0 -97 -40t-37 -105t37 -105t97 -40q35 0 61 14t57 50l66 -65q-57 -67 -139 -85v-102h-102z" />
    <glyph glyph-name="florin.fitted" horiz-adv-x="556" 
d="M43 -188l19 94q35 -9 44 -9q33 0 45 59l82 397h-44l18 90h44l2 11l15 73q15 72 52.5 110.5t93.5 38.5q23 0 64 -11l-20 -95q-31 10 -43 10q-34 0 -45 -60l-16 -77h80l-19 -90h-79l-83 -404q-15 -71 -53 -109.5t-93 -38.5q-23 0 -64 11z" />
    <glyph glyph-name="Euro.fitted" horiz-adv-x="556" 
d="M52 224h-106l36 87h53q0 14 -1 18v16q0 5 1 9h-89l36 87h69q39 111 128 175.5t203 64.5q72 0 129.5 -25.5t114.5 -83.5l-39 -93q-54 55 -103 79.5t-107 24.5q-100 0 -169 -78q-31 -34 -45 -64h409l-37 -87h-395q-1 -11 -1 -22q0 -10 1 -21h377l-36 -87h-318
q34 -65 92 -102.5t125 -37.5q61 0 110 26t107 88v-134q-95 -78 -213 -78q-116 0 -202.5 62t-129.5 176z" />
    <glyph glyph-name="yen.fitted" horiz-adv-x="556" 
d="M69 224v87h138l-25 43h-113v87h64l-126 226h115l156 -287l157 287h114l-126 -226h64v-87h-113l-25 -43h138v-87h-157v-224h-104v224h-157z" />
    <glyph glyph-name="one.numerator" 
d="M246 272h-74v309l-51 -28l-35 58l101 56h59v-395z" />
    <glyph glyph-name="two.numerator" 
d="M62 272v57l146 155q40 45 40 77q0 22 -15 34t-41 12q-28 0 -41 -12.5t-25 -49.5l-68 18q25 112 136 112q57 0 92 -31.5t35 -83.5q0 -57 -43 -103l-110 -118h162v-67h-268z" />
    <glyph glyph-name="three.numerator" 
d="M153 445v67h32q59 0 59 48q0 22 -15 35t-39 13q-21 0 -35 -9.5t-30 -34.5l-63 33q26 41 55.5 59.5t72.5 18.5q55 0 91 -32.5t36 -81.5q0 -46 -34 -79q43 -36 43 -91t-39.5 -91t-99.5 -36q-109 0 -136 111l-1 5l72 18q10 -38 23.5 -52t41.5 -14q29 0 47 16.5t18 42.5
q0 54 -67 54h-32z" />
    <glyph glyph-name="four.numerator" 
d="M44 413l173 266l62 -36l-147 -224h83v92h74v-92h48v-66h-48v-81h-74v81h-171v60z" />
    <glyph glyph-name="five.numerator" 
d="M174 600l-13 -60q12 2 26 2q59 0 101 -40t42 -97q0 -59 -43.5 -100t-106.5 -41q-44 0 -76.5 20t-61.5 64l60 40q27 -57 78 -57q33 0 54.5 20.5t21.5 51.5t-21 52t-53 21q-30 0 -56 -25l-57 11l44 205h198v-67h-137z" />
    <glyph glyph-name="six.numerator" 
d="M216 679l58 -41l-76 -102h7q32 0 69 -20q30 -17 47.5 -47t17.5 -65q0 -58 -42.5 -99t-103.5 -41t-104 40.5t-43 99.5q0 49 33 92zM193 470q-32 0 -52.5 -19.5t-20.5 -49.5t21 -50t52 -20t51.5 20.5t20.5 51.5q0 29 -20.5 48t-51.5 19z" />
    <glyph glyph-name="seven.numerator" 
d="M253 600h-187v67h276v-52l-198 -356l-65 33z" />
    <glyph glyph-name="eight.numerator" 
d="M103 483q-36 35 -36 77q0 49 36.5 82t90.5 33t90.5 -33t36.5 -82q0 -44 -36 -77q49 -39 49 -94q0 -54 -40 -89.5t-100 -35.5t-100 35.5t-40 89.5t49 94zM193 447q-29 0 -47 -16.5t-18 -41.5q0 -26 18.5 -42t47.5 -16t47.5 16.5t18.5 42.5t-18.5 41.5t-48.5 15.5zM194 611
q-25 0 -41 -14.5t-16 -36.5t16 -36t41 -14t41 14t16 36t-16 36.5t-41 14.5z" />
    <glyph glyph-name="nine.numerator" 
d="M171 259l-58 41l77 103h-7q-55 0 -95 39.5t-40 92.5q0 58 42.5 99t103.5 41t104 -40.5t43 -99.5q0 -49 -33 -92zM194 607q-31 0 -51.5 -20.5t-20.5 -51.5q0 -28 20.5 -47t51.5 -19t52 19.5t21 48.5q0 30 -21 50t-52 20z" />
    <glyph glyph-name="zero.numerator" 
d="M192 675q161 0 161 -206q0 -205 -160 -205q-158 0 -158 208q0 99 40 151t117 52zM194 607q-84 0 -84 -134q0 -141 84 -141t84 138q0 137 -84 137z" />
    <glyph glyph-name="one.denominator" 
d="M246 0h-74v308l-51 -27l-35 58l101 56h59v-395z" />
    <glyph glyph-name="two.denominator" 
d="M62 0v57l146 155q40 43 40 77q0 22 -14.5 34t-40.5 12q-29 0 -42 -12.5t-25 -50.5l-68 19q25 112 135 112q58 0 93 -31.5t35 -83.5q0 -58 -43 -103l-110 -118h162v-67h-268z" />
    <glyph glyph-name="three.denominator" 
d="M153 173v66h32q59 0 59 49q0 22 -15 35t-39 13q-21 0 -34.5 -9.5t-30.5 -35.5l-63 33q26 42 55.5 60.5t72.5 18.5q55 0 91 -32.5t36 -82.5q0 -45 -34 -78q43 -36 43 -91t-39.5 -91t-99.5 -36q-109 0 -136 111l-1 4l72 18q10 -37 23.5 -51t41.5 -14q29 0 47 16.5t18 42.5
q0 54 -67 54h-32z" />
    <glyph glyph-name="four.denominator" 
d="M44 141l173 266l62 -36l-147 -224h83v92h74v-92h48v-66h-48v-81h-74v81h-171v60z" />
    <glyph glyph-name="five.denominator" 
d="M174 328l-13 -60q12 2 26 2q59 0 101 -40t42 -97q0 -59 -43 -100t-107 -41q-43 0 -76 20t-62 64l60 40q27 -57 78 -57q33 0 54.5 20.5t21.5 51.5t-21 52t-53 21q-30 0 -56 -25l-57 12l44 204h198v-67h-137z" />
    <glyph glyph-name="six.denominator" 
d="M216 407l58 -41l-76 -102h7q32 0 69 -20q30 -17 47.5 -47t17.5 -65q0 -58 -42.5 -99t-103.5 -41t-104 40.5t-43 99.5q0 49 33 91zM193 198q-32 0 -52.5 -19.5t-20.5 -49.5t21 -50t52 -20t51.5 20.5t20.5 51.5q0 29 -20.5 48t-51.5 19z" />
    <glyph glyph-name="seven.denominator" 
d="M253 328h-187v67h276v-52l-198 -356l-65 33z" />
    <glyph glyph-name="eight.denominator" 
d="M103 210q-36 36 -36 78q0 49 36.5 82t90.5 33t90.5 -33t36.5 -82q0 -42 -36 -78q49 -39 49 -93t-40 -89.5t-100 -35.5t-100 35.5t-40 89.5t49 93zM194 175q-29 0 -47.5 -16.5t-18.5 -42.5t18.5 -42t47.5 -16t47.5 16.5t18.5 42.5t-18.5 42t-47.5 16zM194 339
q-25 0 -41 -14.5t-16 -36.5t16 -36t41 -14t41 14t16 36t-16 36.5t-41 14.5z" />
    <glyph glyph-name="nine.denominator" 
d="M171 -13l-58 42l77 102h-7q-33 0 -70 20q-30 17 -47.5 47t-17.5 65q0 58 42.5 99t103.5 41t104 -40.5t43 -99.5q0 -49 -33 -92zM194 336q-31 0 -51.5 -20.5t-20.5 -51.5q0 -29 20.5 -48t51.5 -19t52 19.5t21 48.5q0 31 -20.5 51t-52.5 20z" />
    <glyph glyph-name="zero.denominator" 
d="M192 403q161 0 161 -206q0 -205 -159 -205t-159 208q0 99 40 151t117 52zM194 336q-84 0 -84 -135q0 -141 83 -141q36 0 56 22q12 14 20.5 47.5t8.5 69.5q0 137 -84 137z" />
    <glyph glyph-name="onefifth" horiz-adv-x="833" 
d="M539 681l56 -33l-382 -662l-57 32zM594 328l-13 -60q12 2 26 2q59 0 101 -40t42 -97q0 -59 -43 -100t-107 -41q-44 0 -76 19.5t-62 64.5l60 40q27 -57 78 -57q33 0 54.5 20.5t21.5 51.5t-21 52t-53 21q-31 0 -56 -25l-57 12l44 204h198v-67h-137zM213 272h-74v308
l-51 -27l-35 58l101 56h59v-395z" />
    <glyph glyph-name="twofifth" horiz-adv-x="833" 
d="M589 681l56 -33l-383 -662l-56 32zM51 272v57l146 155q40 45 40 77q0 22 -15 34t-41 12q-28 0 -41 -12.5t-25 -49.5l-68 18q25 112 136 112q57 0 92 -31.5t35 -83.5q0 -57 -43 -103l-110 -118h162v-67h-268zM594 328l-13 -60q12 2 26 2q59 0 101 -40t42 -97
q0 -59 -43 -100t-107 -41q-43 0 -76 20t-62 64l60 40q28 -57 78 -57q33 0 54.5 20.5t21.5 51.5t-21 52t-53 21q-18 0 -28.5 -5t-27.5 -20l-57 12l44 204h198v-67h-137z" />
    <glyph glyph-name="threefifth" horiz-adv-x="833" 
d="M569 681l56 -33l-383 -662l-56 32zM594 328l-13 -60q12 2 26 2q59 0 101 -40t42 -97q0 -59 -43 -100t-107 -41q-43 0 -76 20t-62 64l60 40q28 -57 78 -57q33 0 54.5 20.5t21.5 51.5t-21 52t-53 21q-18 0 -28.5 -5t-27.5 -20l-57 12l44 204h198v-67h-137zM148 445v67h32
q59 0 59 47q0 22 -14.5 35t-39.5 13q-21 0 -34.5 -9t-30.5 -34l-63 33q26 41 55.5 59.5t72.5 18.5q55 0 91 -32.5t36 -81.5q0 -48 -34 -79q43 -34 43 -91q0 -55 -39.5 -91t-99.5 -36q-109 0 -136 111l-1 5l72 18q10 -38 23.5 -52t41.5 -14q29 0 47 16.5t18 42.5q0 54 -67 54
h-32z" />
    <glyph glyph-name="fourfifth" horiz-adv-x="833" 
d="M582 681l56 -33l-383 -662l-56 32zM51 413l173 266l62 -36l-147 -224h83v92h74v-92h48v-66h-48v-81h-74v81h-171v60zM592 328l-13 -60q12 2 26 2q59 0 101 -40t42 -97q0 -59 -43 -100t-107 -41q-43 0 -76 20t-62 64l60 40q27 -57 78 -57q33 0 54.5 20.5t21.5 51.5t-21 52
t-53 21q-30 0 -56 -25l-57 12l44 204h198v-67h-137z" />
    <glyph glyph-name="onesixth" horiz-adv-x="833" 
d="M552 681l57 -33l-383 -662l-57 32zM627 407l58 -41l-76 -102h7q32 0 69 -20q30 -17 47.5 -47t17.5 -65q0 -58 -42.5 -99t-103.5 -41t-104 40.5t-43 99.5q0 48 33 91zM604 198q-32 0 -52.5 -19.5t-20.5 -49.5t21 -50t52 -20t51.5 20.5t20.5 51.5q0 29 -20.5 48t-51.5 19z
M213 272h-74v308l-51 -27l-35 58l101 56h59v-395z" />
    <glyph glyph-name="fivesixth" horiz-adv-x="833" 
d="M591 681l57 -33l-383 -662l-56 32zM178 600l-13 -60q12 2 26 2q59 0 101 -40t42 -97q0 -59 -43.5 -100t-106.5 -41q-44 0 -76.5 20t-61.5 64l60 40q27 -57 78 -57q33 0 54.5 20.5t21.5 51.5t-21 52t-53 21q-30 0 -56 -25l-57 11l44 205h198v-67h-137zM627 407l58 -41
l-76 -102h7q32 0 69 -20q30 -17 47.5 -47t17.5 -65q0 -58 -42.5 -99t-103.5 -41t-104 40.5t-43 99.5q0 49 33 91zM604 198q-32 0 -52.5 -19.5t-20.5 -49.5t21 -50t52 -20t51.5 20.5t20.5 51.5q0 29 -20.5 48t-51.5 19z" />
    <glyph glyph-name="Dotaccent" horiz-adv-x="476" 
d="M238 854q26 0 45 -18.5t19 -44.5q0 -27 -19 -45.5t-45 -18.5q-27 0 -45.5 19t-18.5 46q0 25 19 43.5t45 18.5z" />
    <glyph glyph-name="Ring" horiz-adv-x="476" 
d="M237 891q43 0 73 -29.5t30 -70.5q0 -42 -30 -71.5t-72 -29.5q-43 0 -73 29.5t-30 72.5q0 40 30.5 69.5t71.5 29.5zM237 842q-21 0 -36 -15t-15 -37q0 -21 15 -36t36 -15q22 0 37 15t15 37q0 21 -15 36t-37 15z" />
    <glyph glyph-name="Circumflex" horiz-adv-x="476" 
d="M238 788l-89 -88l-75 37l130 143h68l131 -143l-75 -37z" />
    <glyph glyph-name="Breve" horiz-adv-x="476" 
d="M93 859l86 7q2 -37 7 -46q15 -33 50 -33q36 0 53 35q5 13 8 43l87 -7q-6 -49 -18 -75q-42 -81 -129 -81q-47 0 -84 25.5t-52 68.5q-7 18 -8 63z" />
    <glyph glyph-name="Tilde" horiz-adv-x="476" 
d="M305 857l83 -20q-8 -108 -92 -108q-38 0 -73 21q-24 13 -37 13q-7 0 -9.5 -6.5t-7.5 -31.5l-81 19q11 108 93 108q32 0 75 -23q22 -11 35 -11q12 0 14 39z" />
    <glyph glyph-name="Cedilla" horiz-adv-x="476" 
d="M248 -30l91 -40l-118 -150l-71 36z" />
    <glyph glyph-name="Ogonek" horiz-adv-x="476" 
d="M338 0h100q-36 -45 -36 -66q0 -14 18 -14q17 0 46 11l30 -74q-50 -19 -85 -19q-42 0 -71 26.5t-29 64.5q0 33 27 71z" />
    <glyph glyph-name="Commaaccent" horiz-adv-x="476" 
d="M147 -213l54 182l95 -28l-76 -177z" />
    <glyph glyph-name="Comma.high" horiz-adv-x="476" 
d="M267 712l54 182l95 -28l-76 -177z" />
    <glyph glyph-name="Dieresis.alt" horiz-adv-x="476" 
d="M307 854q26 0 45 -18.5t19 -44.5q0 -27 -19 -45.5t-45 -18.5q-27 0 -45.5 19t-18.5 46q0 25 19 43.5t45 18.5zM162 854q26 0 45 -18.5t19 -44.5q0 -27 -19 -45.5t-45 -18.5q-27 0 -45.5 19t-18.5 46q0 25 19 43.5t45 18.5z" />
    <glyph glyph-name="comma.high" horiz-adv-x="476" 
d="M267 512l54 182l95 -28l-76 -177z" />
    <glyph glyph-name="dieresis.alt" horiz-adv-x="476" 
d="M307 657q26 0 45 -18.5t19 -44.5q0 -27 -19 -45.5t-45 -18.5q-27 0 -45.5 19t-18.5 46q0 25 19 43.5t45 18.5zM162 657q26 0 45 -18.5t19 -44.5q0 -27 -19 -45.5t-45 -18.5q-27 0 -45.5 18.5t-18.5 45.5q0 26 19 44.5t45 18.5z" />
    <glyph glyph-name="commareversed" horiz-adv-x="476" 
d="M416 671l-54 -182l-95 29l76 176z" />
    <glyph glyph-name="G.salt" horiz-adv-x="729" 
d="M393 359h272v-228l-5 -7q-23 -28 -33 -38q-46 -46 -112 -73t-134 -27q-143 0 -244.5 102t-101.5 245q0 145 101.5 246.5t246.5 101.5q120 0 209 -74q12 -9 47 -44l-72 -70q-49 50 -89.5 70t-93.5 20q-103 0 -173.5 -72t-70.5 -178q0 -104 70.5 -176.5t171.5 -72.5
q106 0 180 82v6v91h-169v96z" />
    <glyph glyph-name="M.salt" horiz-adv-x="836" 
d="M60 0l67 667h97l194 -401l194 401h96l68 -667h-105l-47 480l-164 -337h-84l-164 336l-47 -479h-105z" />
    <glyph glyph-name="y.salt" horiz-adv-x="463" 
d="M230 141l131 302h108l-261 -590q-44 -100 -114 -100q-25 0 -59 11l16 94l5 -3q18 -8 27 -8q18 0 38 45l55 127l-182 424h108z" />
    <glyph glyph-name="parenleft.salt" horiz-adv-x="311" 
d="M166 799l89 -42q-77 -195 -77 -424t77 -424l-89 -41q-15 31 -23 52q-29 71 -47.5 188.5t-18.5 228.5q0 275 89 462z" />
    <glyph glyph-name="parenright.salt" horiz-adv-x="311" 
d="M146 -132l-89 41q77 195 77 424q0 228 -77 424l89 42q89 -187 89 -462q0 -110 -18.5 -228t-47.5 -189q-8 -21 -23 -52z" />
    <glyph glyph-name="bracketleft.salt" horiz-adv-x="301" 
d="M174 694v-722h90v-94h-191v910h191v-94h-90z" />
    <glyph glyph-name="bracketright.salt" horiz-adv-x="301" 
d="M127 -28v722h-90v94h191v-910h-191v94h90z" />
    <glyph glyph-name="afii61248.salt" horiz-adv-x="753" 
d="M546 269q59 0 101 -41.5t42 -99.5q0 -60 -42 -101t-104 -41t-104 41t-42 102q0 59 42.5 99.5t106.5 40.5zM542 205q-32 0 -52.5 -21.5t-20.5 -55.5q0 -35 20.5 -56.5t53.5 -21.5q34 0 54 22t20 57q0 34 -21 55t-54 21zM328 589l-49 -46q-22 23 -36 30.5t-34 7.5
q-34 0 -54 -21.5t-20 -56.5t20.5 -56t54.5 -21q20 0 35 8.5t35 31.5l49 -46q-55 -58 -119 -58q-62 0 -104.5 41t-42.5 101t42.5 100.5t104.5 40.5t118 -56zM534 681l56 -33l-382 -662l-57 32z" />
    <glyph glyph-name="braceleft.salt" horiz-adv-x="302" 
d="M277 697h-20q-40 -1 -48 -9.5t-9 -47.5v-196q-2 -44 -11.5 -68.5t-33.5 -42.5q24 -18 33.5 -42.5t11.5 -71.5v-192q0 -39 10 -49t49 -10h18v-90h-41q-72 0 -104.5 36t-32.5 116v188q-1 40 -11 54.5t-44 22.5v81q33 8 43.5 22t11.5 50v191q0 78 33 113.5t104 35.5
q11 0 41 -1v-90z" />
    <glyph glyph-name="braceright.salt" horiz-adv-x="302" 
d="M24 698v90q30 1 41 1q72 0 104.5 -35.5t32.5 -113.5v-191q1 -36 11.5 -50t43.5 -23v-80q-34 -8 -44 -22.5t-11 -54.5v-188q0 -80 -32.5 -116.5t-104.5 -36.5q-10 0 -41 1v90l18 -1q39 0 49 10t10 50v192q2 46 11.5 70.5t33.5 43.5q-24 17 -33.5 41.5t-11.5 69.5v196
q-1 41 -11.5 49t-65.5 8z" />
    <glyph glyph-name="copyright.salt" horiz-adv-x="461" 
d="M346 632l-35 -34q-19 19 -31.5 26t-29.5 7q-31 0 -51.5 -21.5t-20.5 -53.5q0 -31 20.5 -52.5t51.5 -21.5q18 0 28.5 5.5t33.5 28.5l35 -34q-27 -27 -48 -37.5t-49 -10.5q-51 0 -87 35.5t-36 86.5q0 52 36 87.5t87 35.5q49 0 96 -47zM244 762q86 0 146.5 -60t60.5 -146
t-60.5 -146.5t-145.5 -60.5q-87 0 -147 61t-60 149q0 83 61 143t145 60zM243 717q-67 0 -113.5 -48t-46.5 -116q0 -64 48 -111.5t113 -47.5q67 0 114.5 47t47.5 114q0 68 -47.5 115t-115.5 47z" />
    <glyph glyph-name="registered.salt" horiz-adv-x="461" 
d="M290 537l55 -97h-55l-47 85l-9 -1h-4h-9v-84h-50v233h64q41 0 64.5 -20t23.5 -55q0 -39 -33 -61zM221 628v-59h16q38 0 38 30q0 29 -38 29h-16zM244 762q86 0 146.5 -60t60.5 -146t-60.5 -146.5t-145.5 -60.5q-87 0 -147 61t-60 149q0 83 61 143t145 60zM243 717
q-67 0 -113.5 -48t-46.5 -116q0 -64 48 -111.5t113 -47.5q67 0 114.5 47t47.5 114q0 68 -47.5 115t-115.5 47z" />
    </font>
</defs>
</svg>
