<?xml version="1.0" standalone="no"?>
<!DOCTYPE svg PUBLIC "-//W3C//DTD SVG 1.1//EN" "http://www.w3.org/Graphics/SVG/1.1/DTD/svg11.dtd" >
<svg xmlns="http://www.w3.org/2000/svg" xmlns:xlink="http://www.w3.org/1999/xlink" version="1.1">
<metadata>
Created by FontForge 20170731 at Thu Sep 10 14:38:16 2015
 By ,,,
Copyright 2014 by (URW)++ Design &#38; Development GmbH
</metadata>
<defs>
<font id="URWGeometric-RegularOblique" horiz-adv-x="549" >
  <font-face 
    font-family="URW Geometric"
    font-weight="400"
    font-style="oblique"
    font-stretch="normal"
    units-per-em="1000"
    panose-1="0 0 5 0 0 0 0 0 0 0"
    ascent="667"
    descent="-333"
    x-height="443"
    cap-height="667"
    bbox="-122 -245 1252 1060"
    underline-thickness="66"
    underline-position="-230"
    unicode-range="U+0020-FB04"
  />
<missing-glyph horiz-adv-x="250" 
 />
    <glyph glyph-name="afii61352" unicode="Nr&#x2e;" horiz-adv-x="1060" 
d="M775 284l8 53h252l-9 -53h-251zM80 0l106 667h70l319 -545l86 545h75l-106 -667h-70l-319 545l-86 -545h-75zM965 679q52 0 86 -33.5t34 -84.5q0 -65 -49.5 -113.5t-116.5 -48.5q-54 0 -88 33t-34 86q0 65 50 113t118 48zM953 628q-41 0 -70 -31t-29 -75q0 -33 20 -52.5
t53 -19.5q43 0 72 31t29 75q0 34 -20 53t-55 19z" />
    <glyph glyph-name="ff" unicode="ff" horiz-adv-x="481" 
d="M208 379l-60 -379h-71l60 379h-45l10 64h45l13 80q23 141 129 141q16 0 43 -7l-10 -65q-19 5 -29 5q-50 0 -62 -74l-12 -80h81l-10 -64h-82zM440 379l-60 -379h-72l60 379h-45l11 64h45l14 90q23 141 129 141q16 0 43 -7l-10 -65q-19 5 -30 5q-49 0 -61 -74l-14 -90h82
l-11 -64h-81z" />
    <glyph glyph-name="fi" unicode="fi" horiz-adv-x="434" 
d="M208 379l-60 -379h-71l60 379h-45l10 64h45l14 90q23 141 130 141q16 0 43 -7l-10 -65q-19 5 -30 5q-49 0 -61 -74l-14 -90h81l-10 -64h-82zM441 443l-71 -443h-71l70 443h72zM437 642q19 0 31 -12t12 -31q0 -23 -18 -41t-42 -18q-19 0 -31 12.5t-12 31.5q0 23 18 40.5
t42 17.5z" />
    <glyph glyph-name="fl" unicode="fl" horiz-adv-x="434" 
d="M208 379l-60 -379h-71l60 379h-45l10 64h45l14 90q23 141 130 141q16 0 43 -7l-10 -65q-19 5 -30 5q-49 0 -61 -74l-14 -90h81l-10 -64h-82zM370 0h-71l106 667h71z" />
    <glyph glyph-name="ffi" unicode="ffi" horiz-adv-x="665" 
d="M440 379l-60 -379h-72l60 379h-45l11 64h45l14 90q23 141 129 141q16 0 43 -7l-10 -65q-19 5 -30 5q-49 0 -61 -74l-14 -90h82l-11 -64h-81zM672 443l-70 -443h-72l71 443h71zM668 642q19 0 31 -12t12 -31q0 -23 -18 -41t-42 -18q-19 0 -31 12.5t-12 31.5q0 23 18 40.5
t42 17.5zM208 379l-60 -379h-71l60 379h-45l10 64h45l13 80q23 141 129 141q16 0 43 -7l-10 -65q-19 5 -29 5q-50 0 -62 -74l-12 -80h81l-10 -64h-82z" />
    <glyph glyph-name="ffl" unicode="ffl" horiz-adv-x="665" 
d="M440 379l-60 -379h-72l60 379h-45l11 64h45l14 90q23 141 129 141q16 0 43 -7l-10 -65q-19 5 -30 5q-49 0 -61 -74l-14 -90h82l-11 -64h-81zM707 667l-105 -667h-72l106 667h71zM208 379l-60 -379h-71l60 379h-45l10 64h45l13 80q23 141 129 141q16 0 43 -7l-10 -65
q-19 5 -29 5q-50 0 -62 -74l-12 -80h81l-10 -64h-82z" />
    <glyph glyph-name=".notdef" horiz-adv-x="250" 
 />
    <glyph glyph-name=".null" horiz-adv-x="0" 
 />
    <glyph glyph-name="nonmarkingreturn" horiz-adv-x="333" 
 />
    <glyph glyph-name="space" unicode=" " horiz-adv-x="250" 
 />
    <glyph glyph-name="exclam" unicode="!" horiz-adv-x="279" 
d="M153 89q18 0 30 -11.5t12 -30.5q0 -23 -17.5 -40t-40.5 -17q-18 0 -30 12t-12 30q0 22 17.5 39.5t40.5 17.5zM129 150l74 517h83l-90 -517h-67z" />
    <glyph glyph-name="quotedbl" unicode="&#x22;" horiz-adv-x="307" 
d="M172 410h-52l29 257h75zM317 410h-52l29 257h76z" />
    <glyph glyph-name="numbersign" unicode="#" horiz-adv-x="585" 
d="M156 195h-75l20 57h75l59 163h-75l21 57h75l74 208l58 -14l-70 -194h155l75 208l58 -13l-71 -195h75l-20 -57h-75l-59 -163h75l-20 -57h-75l-75 -208l-57 14l70 194h-156l-75 -208l-57 14zM394 252l59 163h-156l-58 -163h155z" />
    <glyph glyph-name="dollar" unicode="$" horiz-adv-x="567" 
d="M236 -103l15 93q-70 6 -113 52t-46 118l75 21q12 -122 117 -122q61 0 108.5 45t47.5 103q0 32 -22.5 55t-75.5 46l-59 24q-114 47 -114 139q0 76 53 133t138 72l14 91h73l-14 -91q88 -16 125 -102l-65 -39q-36 74 -109 74q-57 0 -99 -37.5t-42 -88.5q0 -57 82 -91l62 -25
q129 -54 129 -149q0 -76 -55.5 -141t-135.5 -82l-15 -98h-74z" />
    <glyph glyph-name="percent" unicode="%" horiz-adv-x="901" 
d="M761 402q127 0 127 -135q0 -109 -42 -185q-48 -89 -148 -89q-63 0 -95.5 34.5t-32.5 99.5q0 113 42 186q48 89 149 89zM752 351q-64 0 -97 -72q-27 -62 -27 -139q0 -96 77 -96q64 0 97 72q27 64 27 140q0 95 -77 95zM730 679l38 -24l-492 -667l-37 23zM310 674
q127 0 127 -135q0 -109 -42 -185q-48 -89 -148 -89q-128 0 -128 133q0 113 41 187q50 89 150 89zM302 623q-65 0 -98 -72q-27 -60 -27 -139q0 -96 77 -96q65 0 98 72q27 64 27 140q0 95 -77 95z" />
    <glyph glyph-name="ampersand" unicode="&#x26;" horiz-adv-x="639" 
d="M366 372l134 -199q30 40 65 110l64 -19q-43 -92 -89 -149l78 -115h-87l-42 63q-93 -75 -202 -75q-85 0 -138 44.5t-53 115.5q0 64 42.5 118.5t138.5 115.5l-3 4q-51 76 -51 129q0 67 50.5 115.5t118.5 48.5q55 0 89 -31.5t34 -83.5q0 -51 -33 -93.5t-116 -98.5zM334 419
q67 46 92 76.5t25 63.5q0 27 -19 44t-49 17q-40 0 -67.5 -27.5t-27.5 -66.5q0 -37 46 -107zM452 118l-143 215l-2 -2q-72 -47 -101 -81q-38 -44 -38 -89q0 -47 36 -77t92 -30q87 0 156 64z" />
    <glyph glyph-name="quotesingle" unicode="'" horiz-adv-x="162" 
d="M172 410h-52l29 257h75z" />
    <glyph glyph-name="parenleft" unicode="(" horiz-adv-x="294" 
d="M283 733l59 -29q-77 -139 -118.5 -304.5t-41.5 -332.5q0 -118 24 -219l-68 -29q-28 89 -28 237q0 181 46 359q51 196 127 318z" />
    <glyph glyph-name="parenright" unicode=")" horiz-adv-x="294" 
d="M98 -181l-59 29q77 141 118.5 306.5t41.5 330.5q0 110 -24 219l68 29q28 -89 28 -236q0 -182 -46 -360q-52 -199 -127 -318z" />
    <glyph glyph-name="asterisk" unicode="*" horiz-adv-x="464" 
d="M299 606l15 124h67l-25 -124l123 43l11 -63l-125 -34l62 -98l-61 -39l-52 104l-85 -104l-48 39l93 98l-115 34l31 63z" />
    <glyph glyph-name="plus" unicode="+" horiz-adv-x="556" 
d="M300 343l31 200h65l-31 -200h198l-5 -31l-5 -31h-198l-32 -200h-65l32 200h-199l5 31l5 31h199z" />
    <glyph glyph-name="comma" unicode="," horiz-adv-x="227" 
d="M122 98l62 -24l-136 -226l-45 19z" />
    <glyph glyph-name="hyphen" unicode="-" horiz-adv-x="255" 
d="M78 262h182l-10 -64h-182z" />
    <glyph glyph-name="period" unicode="." horiz-adv-x="227" 
d="M127 89q18 0 30 -12t12 -30q0 -23 -17.5 -40t-39.5 -17q-19 0 -30.5 12t-11.5 31q0 22 17.5 39t39.5 17z" />
    <glyph glyph-name="slash" unicode="/" horiz-adv-x="548" 
d="M545 680l50 -33l-487 -660l-50 33z" />
    <glyph glyph-name="zero" unicode="0" horiz-adv-x="572" 
d="M393 679q100 0 151 -56t51 -165q0 -86 -19 -174.5t-51 -147.5q-79 -148 -239 -148q-99 0 -151 56t-52 162q0 88 19 177t51 148q79 148 240 148zM382 611q-116 0 -174 -133q-48 -113 -48 -251q0 -171 136 -171q116 0 174 133q48 113 48 251q0 171 -136 171z" />
    <glyph glyph-name="one" unicode="1" horiz-adv-x="300" 
d="M220 0h-74l93 584l-115 -61l-25 59l159 85h68z" />
    <glyph glyph-name="two" unicode="2" horiz-adv-x="481" 
d="M46 0l10 66l288 275q103 97 103 177q0 43 -27.5 67.5t-76.5 24.5q-55 0 -90.5 -25.5t-61.5 -81.5l-64 18q30 76 89.5 117t139.5 41q76 0 120.5 -40t44.5 -108q0 -111 -98 -203l-271 -260h313l-11 -68h-408z" />
    <glyph glyph-name="three" unicode="3" horiz-adv-x="472" 
d="M248 383h29q71 0 110 40q38 40 38 93q0 44 -27 69t-74 25q-40 0 -70.5 -16t-64.5 -55l-56 35q82 105 202 105q75 0 119 -41t44 -109q0 -107 -95 -173q62 -51 62 -128q0 -101 -72 -170.5t-175 -69.5q-73 0 -119.5 39t-57.5 109l-1 15l75 20q7 -59 34.5 -86t80.5 -27
q67 0 113.5 45t46.5 110q0 102 -124 102h-28z" />
    <glyph glyph-name="four" unicode="4" horiz-adv-x="518" 
d="M473 641l-332 -425h219l28 176h74l-28 -176h82l-10 -68h-82l-24 -148h-74l24 148h-297l12 76l355 455z" />
    <glyph glyph-name="five" unicode="5" horiz-adv-x="520" 
d="M241 426l3 1q40 13 76 13q83 0 137 -52.5t54 -133.5q0 -106 -81 -186t-188 -80q-88 0 -145 57q-21 21 -40 62l65 42q29 -93 130 -93q75 0 129.5 55t54.5 130q0 59 -36.5 96t-95.5 37q-66 0 -112 -43l-56 12l116 324h294l-11 -69h-232z" />
    <glyph glyph-name="six" unicode="6" horiz-adv-x="543" 
d="M424 679l50 -43l-183 -213q28 9 54 9q82 0 135 -50.5t53 -129.5q0 -105 -80 -184.5t-186 -79.5q-83 0 -137.5 54t-54.5 137q0 97 78 187zM327 366q-72 0 -125 -54t-53 -127q0 -57 36 -93t93 -36q72 0 126 55t54 128q0 56 -36.5 91.5t-94.5 35.5z" />
    <glyph glyph-name="seven" unicode="7" horiz-adv-x="450" 
d="M451 598h-340l11 69h423l-9 -60l-425 -619l-59 34z" />
    <glyph glyph-name="eight" unicode="8" horiz-adv-x="507" 
d="M190 355q-52 51 -52 115q0 85 66 147t157 62q74 0 119.5 -42.5t45.5 -111.5q0 -99 -98 -170q71 -53 71 -134q0 -97 -72.5 -165t-175.5 -68q-82 0 -133 46.5t-51 120.5q0 123 123 200zM302 317q-67 0 -114 -44.5t-47 -106.5q0 -50 33 -80t87 -30q67 0 115 44.5t48 106.5
q0 51 -32.5 80.5t-89.5 29.5zM350 613q-59 0 -101 -40t-42 -95q0 -43 30 -69.5t77 -26.5q59 0 101 39.5t42 94.5q0 44 -29.5 70.5t-77.5 26.5z" />
    <glyph glyph-name="nine" unicode="9" horiz-adv-x="545" 
d="M225 -12l-50 42l185 214q-28 -6 -52 -6q-85 0 -138.5 49.5t-53.5 128.5q0 104 80 183.5t185 79.5q83 0 137.5 -54t54.5 -137q0 -99 -78 -188zM370 611q-71 0 -125 -54.5t-54 -127.5q0 -56 36.5 -90.5t94.5 -34.5q72 0 124.5 52.5t52.5 125.5q0 57 -36 93t-93 36z" />
    <glyph glyph-name="colon" unicode=":" horiz-adv-x="227" 
d="M127 89q18 0 30 -12t12 -30q0 -23 -17.5 -40t-39.5 -17q-19 0 -30.5 12t-11.5 31q0 22 17.5 39t39.5 17zM181 426q18 0 30 -11.5t12 -29.5q0 -23 -17.5 -40t-40.5 -17q-18 0 -30 11.5t-12 30.5q0 22 17.5 39t40.5 17z" />
    <glyph glyph-name="semicolon" unicode=";" horiz-adv-x="227" 
d="M122 98l62 -24l-136 -226l-45 19zM198 426q18 0 30 -11.5t12 -29.5q0 -23 -17.5 -40t-40.5 -17q-18 0 -30 12t-12 30q0 22 17.5 39t40.5 17z" />
    <glyph glyph-name="less" unicode="&#x3c;" horiz-adv-x="556" 
d="M586 573l-12 -75l-379 -161l328 -162l-12 -74l-401 203l10 65z" />
    <glyph glyph-name="equal" unicode="=" horiz-adv-x="556" 
d="M545 409l-10 -63h-404l10 63h404zM524 278l-10 -63h-404l10 63h404z" />
    <glyph glyph-name="greater" unicode="&#x3e;" horiz-adv-x="556" 
d="M77 101l12 74l378 162l-327 161l12 75l401 -204l-10 -65z" />
    <glyph glyph-name="question" unicode="?" horiz-adv-x="421" 
d="M189 150l12 75q8 47 22.5 70.5t54.5 53.5l49 37q85 64 85 136q0 41 -26.5 64.5t-72.5 23.5q-44 0 -74.5 -17t-67.5 -62l-47 45q78 103 195 103q80 0 123.5 -38t43.5 -108q0 -55 -25 -97.5t-85 -92.5l-56 -46q-28 -22 -35 -33.5t-13 -46.5l-10 -67h-73zM216 89
q18 0 30 -11.5t12 -29.5q0 -23 -17.5 -40.5t-40.5 -17.5q-18 0 -30 12t-12 30q0 22 17.5 39.5t40.5 17.5z" />
    <glyph glyph-name="at" unicode="@" horiz-adv-x="899" 
d="M707 521l-97 -341h22q93 0 144 70q54 73 54 182q0 107 -63.5 166t-178.5 59q-105 0 -191 -41.5t-142 -120.5q-74 -103 -74 -228q0 -124 78.5 -190.5t223.5 -66.5q105 0 226 37l11 -54q-116 -38 -250 -38q-167 0 -257 78t-90 224q0 145 86 265q66 92 165 141t219 49
q137 0 216 -72t79 -198q0 -135 -75 -226q-40 -48 -91 -69.5t-125 -21.5h-136q-68 0 -108 38t-40 103q0 59 28 114.5t76 91.5q67 49 172 49h118zM551 180l81 286h-61q-85 0 -137 -49q-60 -58 -60 -142q0 -44 27.5 -69.5t76.5 -25.5h73z" />
    <glyph glyph-name="A" unicode="A" horiz-adv-x="620" 
d="M186 189l-102 -189h-77l362 667h94l151 -667h-78l-42 189h-308zM223 258h255l-75 337z" />
    <glyph glyph-name="B" unicode="B" horiz-adv-x="522" 
d="M80 0l106 667h138q107 0 155 -39q47 -41 47 -111q0 -98 -100 -166q34 -15 49 -31q37 -42 37 -105q0 -87 -66 -148q-39 -36 -83.5 -51.5t-110.5 -15.5h-172zM213 373h76q52 0 82.5 11t53.5 39q30 38 30 84q0 48 -31 70t-99 22h-76zM165 69h92q56 0 89.5 12t58.5 40
q33 39 33 87q0 55 -41 80q-35 21 -111 21h-83z" />
    <glyph glyph-name="C" unicode="C" horiz-adv-x="662" 
d="M716 572l-59 -51q-37 47 -78 67.5t-97 20.5q-127 0 -221 -96.5t-94 -225.5q0 -100 64 -164.5t164 -64.5q56 0 103.5 20.5t102.5 69.5l43 -51q-67 -58 -127.5 -83.5t-131.5 -25.5q-128 0 -211 82.5t-83 209.5q0 157 122 278t281 121q70 0 121.5 -25t100.5 -82z" />
    <glyph glyph-name="D" unicode="D" horiz-adv-x="619" 
d="M186 667h136q148 0 230.5 -71t82.5 -198q0 -79 -29 -153t-82 -128q-115 -117 -307 -117h-137zM249 598l-83 -529h65q144 0 236 88.5t92 227.5q0 100 -65 156.5t-179 56.5h-66z" />
    <glyph glyph-name="E" unicode="E" horiz-adv-x="475" 
d="M518 598h-269l-35 -225h238l-11 -69h-238l-37 -235h278l-11 -69h-353l106 667h343z" />
    <glyph glyph-name="F" unicode="F" horiz-adv-x="436" 
d="M495 598h-246l-35 -225h223l-11 -69h-223l-48 -304h-75l106 667h320z" />
    <glyph glyph-name="G" unicode="G" horiz-adv-x="727" 
d="M464 344h274l-6 -37q-23 -144 -118 -231.5t-228 -87.5q-129 0 -212.5 82t-83.5 208q0 158 122 279.5t281 121.5q70 0 121.5 -25t100.5 -82l-59 -51q-38 47 -78 67.5t-97 20.5q-126 0 -220.5 -96.5t-94.5 -226.5q0 -99 64.5 -163.5t164.5 -64.5q97 0 167 59.5t88 157.5
h-197z" />
    <glyph glyph-name="H" unicode="H" horiz-adv-x="650" 
d="M214 373h340l47 294h75l-106 -667h-75l48 304h-340l-48 -304h-75l106 667h74z" />
    <glyph glyph-name="I" unicode="I" horiz-adv-x="235" 
d="M260 667l-105 -667h-75l106 667h74z" />
    <glyph glyph-name="J" unicode="J" horiz-adv-x="402" 
d="M428 667l-74 -467q-11 -65 -28 -102t-48 -64q-54 -46 -124 -46q-40 0 -72.5 16.5t-68.5 54.5l54 54q47 -55 97 -55q48 0 75.5 34.5t39.5 107.5l74 467h75z" />
    <glyph glyph-name="K" unicode="K" horiz-adv-x="567" 
d="M364 391l197 -391h-87l-168 336l-115 -108l-36 -228h-75l106 667h74l-54 -341l364 341h90z" />
    <glyph glyph-name="L" unicode="L" horiz-adv-x="426" 
d="M260 667l-94 -598h258l-11 -69h-333l106 667h74z" />
    <glyph glyph-name="M" unicode="M" horiz-adv-x="810" 
d="M80 0l106 667h80l175 -437l315 437h80l-106 -667h-75l86 539l-279 -389h-67l-155 389l-85 -539h-75z" />
    <glyph glyph-name="N" unicode="N" horiz-adv-x="710" 
d="M80 0l106 667h70l319 -545l86 545h75l-106 -667h-70l-319 545l-86 -545h-75z" />
    <glyph glyph-name="O" unicode="O" horiz-adv-x="764" 
d="M493 679q122 0 204.5 -84t82.5 -208q0 -103 -56.5 -195.5t-150.5 -148t-199 -55.5q-67 0 -128 31t-101 85q-54 75 -54 178q0 156 122 276.5t280 120.5zM480 609q-124 0 -219 -97t-95 -225q0 -96 64 -162.5t158 -66.5q125 0 220.5 96.5t95.5 223.5q0 100 -63.5 165.5
t-160.5 65.5z" />
    <glyph glyph-name="P" unicode="P" horiz-adv-x="467" 
d="M197 270l-42 -270h-75l106 667h136q115 0 161 -49q41 -44 41 -114q0 -87 -59 -156q-36 -42 -84 -60t-122 -18h-62zM208 338h71q98 0 140 59q31 43 31 98q0 103 -130 103h-71z" />
    <glyph glyph-name="Q" unicode="Q" horiz-adv-x="762" 
d="M621 77l53 -64l-57 -50l-61 72q-88 -47 -180 -47q-121 0 -203.5 84t-82.5 207q0 102 56.5 195t150 149t196.5 56q121 0 203.5 -84t82.5 -208q0 -85 -42 -167t-116 -143zM512 87l-45 54l58 50l53 -63q58 46 91.5 113t33.5 138q0 99 -63.5 164.5t-158.5 65.5
q-125 0 -220 -96.5t-95 -224.5q0 -98 64.5 -164t159.5 -66q64 0 122 29z" />
    <glyph glyph-name="R" unicode="R" horiz-adv-x="533" 
d="M394 289l114 -289h-83l-106 273q-41 -3 -60 -3h-62l-42 -270h-75l106 667h136q66 0 106 -11.5t67 -39.5q45 -45 45 -118q0 -69 -39.5 -125.5t-106.5 -83.5zM208 338h71q108 0 154 57q33 41 33 94q0 109 -146 109h-71z" />
    <glyph glyph-name="S" unicode="S" horiz-adv-x="505" 
d="M531 574l-65 -39q-37 75 -109 75q-57 0 -99 -38t-42 -88q0 -57 82 -92l62 -25q129 -54 129 -149q0 -92 -74 -161t-172 -69q-79 0 -125.5 45t-52.5 127l75 20q12 -122 117 -122q61 0 108.5 45t47.5 104q0 32 -23 55t-75 45l-59 25q-114 47 -114 139q0 86 67 147t161 61
q112 0 161 -105z" />
    <glyph glyph-name="T" unicode="T" horiz-adv-x="433" 
d="M348 598l-94 -598h-75l95 598h-173l11 69h420l-11 -69h-173z" />
    <glyph glyph-name="U" unicode="U" horiz-adv-x="635" 
d="M261 667l-66 -414q-7 -47 -7 -72q0 -55 38.5 -89t99.5 -34q44 0 86 19.5t67 51.5q16 20 25 46t17 78l66 414h74l-68 -434q-17 -98 -68 -154q-40 -43 -95.5 -67t-113.5 -24q-88 0 -146 51.5t-58 129.5q0 26 5 64l69 434h75z" />
    <glyph glyph-name="V" unicode="V" horiz-adv-x="553" 
d="M190 667l100 -580l285 580h77l-331 -667h-90l-119 667h78z" />
    <glyph glyph-name="W" unicode="W" horiz-adv-x="880" 
d="M190 667l76 -559l246 559h67l69 -559l253 559h78l-309 -667h-39h-38l-68 540l-239 -540h-37h-39l-98 667h78z" />
    <glyph glyph-name="X" unicode="X" horiz-adv-x="530" 
d="M362 350l162 -350h-84l-130 285l-221 -285h-82l273 348l-147 319h81l117 -255l198 255h80z" />
    <glyph glyph-name="Y" unicode="Y" horiz-adv-x="507" 
d="M260 278l-154 389h82l121 -318l223 318h81l-278 -389l-44 -278h-75z" />
    <glyph glyph-name="Z" unicode="Z" horiz-adv-x="509" 
d="M122 69h373l-11 -69h-461l10 66l455 532h-340l11 69h423l-11 -66z" />
    <glyph glyph-name="bracketleft" unicode="[" horiz-adv-x="293" 
d="M259 662l-122 -772h93l-10 -66h-165l143 904h165l-11 -66h-93z" />
    <glyph glyph-name="backslash" unicode="\" horiz-adv-x="548" 
d="M218 680l278 -660l-61 -33l-278 660z" />
    <glyph glyph-name="bracketright" unicode="]" horiz-adv-x="293" 
d="M243 662h-93l10 66h165l-143 -904h-165l10 66h93z" />
    <glyph glyph-name="asciicircum" unicode="^" horiz-adv-x="500" 
d="M105 364h-81l176 305h99l176 -305h-81l-145 245z" />
    <glyph glyph-name="underscore" unicode="_" horiz-adv-x="500" 
d="M-11 -65h500l-10 -66h-500z" />
    <glyph glyph-name="grave" unicode="`" horiz-adv-x="476" 
d="M213 641l76 38l78 -138l-49 -26z" />
    <glyph glyph-name="a" unicode="a" 
d="M486 0h-71l9 58q-76 -70 -167 -70q-83 0 -136.5 55t-53.5 140q0 109 80 190.5t187 81.5q88 0 142 -70l9 58h71zM321 390q-75 0 -128.5 -59.5t-53.5 -142.5q0 -61 36 -98t96 -37q76 0 129.5 59t53.5 144q0 62 -36 98t-97 36z" />
    <glyph glyph-name="b" unicode="b" 
d="M63 0l106 667h71l-45 -282q74 70 167 70q83 0 136.5 -55t53.5 -140q0 -108 -80 -190t-186 -82q-92 0 -142 70l-10 -58h-71zM345 390q-73 0 -125.5 -59.5t-52.5 -142.5q0 -61 34.5 -98t92.5 -37q77 0 131 59t54 143q0 62 -36 98.5t-98 36.5z" />
    <glyph glyph-name="c" unicode="c" horiz-adv-x="457" 
d="M492 380l-55 -48q-41 58 -111 58q-79 0 -133 -58.5t-54 -143.5q0 -62 36.5 -98.5t98.5 -36.5q39 0 68 13.5t64 48.5l40 -48q-46 -43 -88 -61t-94 -18q-88 0 -142.5 54t-54.5 142q0 110 80.5 190.5t190.5 80.5q93 0 154 -75z" />
    <glyph glyph-name="d" unicode="d" 
d="M486 0h-71l9 58q-76 -70 -167 -70q-83 0 -136.5 55t-53.5 140q0 109 80 190.5t187 81.5q88 0 142 -70l44 282h71zM321 390q-75 0 -128.5 -59.5t-53.5 -142.5q0 -61 36 -98t96 -37q75 0 128 59t53 144q0 62 -35 98t-96 36z" />
    <glyph glyph-name="e" unicode="e" horiz-adv-x="496" 
d="M138 191v-8q0 -58 34.5 -94t89.5 -36q90 0 149 78l59 -27q-87 -116 -217 -116q-83 0 -134.5 53.5t-51.5 140.5q0 109 77 191t180 82q78 0 127 -53.5t49 -138.5q0 -27 -8 -72h-354zM431 252v8q0 58 -32.5 94.5t-85.5 36.5q-56 0 -101.5 -38t-63.5 -101h283z" />
    <glyph glyph-name="f" unicode="f" horiz-adv-x="250" 
d="M208 379l-60 -379h-71l60 379h-45l10 64h45l14 90q23 141 130 141q16 0 43 -7l-10 -65q-19 5 -30 5q-49 0 -61 -74l-14 -90h81l-10 -64h-82z" />
    <glyph glyph-name="g" unicode="g" 
d="M556 443l-72 -451q-16 -107 -90 -172t-179 -65q-62 0 -105.5 23t-80.5 75l54 47q32 -45 62.5 -62.5t78.5 -17.5q76 0 126 46t63 126l11 66q-76 -70 -167 -70q-83 0 -136.5 55t-53.5 140q0 109 80 190.5t187 81.5q87 0 141 -70l10 58h71zM321 390q-75 0 -128.5 -59.5
t-53.5 -142.5q0 -61 36 -98t96 -37q76 0 129 59t53 144q0 62 -35.5 98t-96.5 36z" />
    <glyph glyph-name="h" unicode="h" horiz-adv-x="509" 
d="M240 667l-43 -273q59 61 143 61q68 0 109 -40t41 -105q0 -32 -6 -70l-38 -240h-71l37 232q5 33 5 59q0 46 -24.5 71t-70.5 25q-65 0 -105 -42q-33 -33 -48 -123l-35 -222h-71l106 667h71z" />
    <glyph glyph-name="i" unicode="i" horiz-adv-x="199" 
d="M206 443l-71 -443h-71l70 443h72zM202 642q19 0 31 -12t12 -31q0 -23 -18 -41t-42 -18q-19 0 -31 12.5t-12 31.5q0 23 18 40.5t42 17.5z" />
    <glyph glyph-name="j" unicode="j" horiz-adv-x="209" 
d="M211 642q19 0 31 -12t12 -31q0 -23 -18 -41t-42 -18q-19 0 -31 12.5t-12 31.5q0 23 18 40.5t42 17.5zM143 443h71l-86 -543q-21 -140 -129 -140q-18 0 -43 7l10 64q19 -5 30 -5q49 0 61 74z" />
    <glyph glyph-name="k" unicode="k" horiz-adv-x="465" 
d="M300 263l163 -263h-88l-130 215l-88 -75l-23 -140h-71l106 667h71l-69 -438l248 214h91z" />
    <glyph glyph-name="l" unicode="l" horiz-adv-x="199" 
d="M135 0h-71l106 667h71z" />
    <glyph glyph-name="m" unicode="m" horiz-adv-x="786" 
d="M205 443l-8 -50q56 62 135 62q85 0 123 -74q67 74 158 74q70 0 112.5 -40.5t42.5 -105.5q0 -23 -7 -69l-38 -240h-71l37 231q6 46 6 62q0 45 -22.5 69t-63.5 24q-62 0 -99 -42q-31 -34 -45 -122l-35 -222h-72l37 231q6 44 6 62q0 45 -22.5 69.5t-64.5 24.5q-62 0 -99 -42
q-31 -32 -46 -123l-35 -222h-71l70 443h72z" />
    <glyph glyph-name="n" unicode="n" horiz-adv-x="509" 
d="M205 443l-8 -50q59 62 143 62q68 0 109 -40t41 -105q0 -34 -6 -70l-38 -240h-71l37 231q5 35 5 60q0 46 -24.5 71t-70.5 25q-65 0 -105 -42q-33 -33 -48 -123l-35 -222h-71l70 443h72z" />
    <glyph glyph-name="o" unicode="o" horiz-adv-x="526" 
d="M338 455q84 0 138 -55t54 -140q0 -109 -80.5 -190.5t-188.5 -81.5q-86 0 -140 54.5t-54 141.5q0 110 80.5 190.5t190.5 80.5zM322 390q-76 0 -129.5 -59.5t-53.5 -142.5q0 -62 36 -98.5t97 -36.5q77 0 131.5 59t54.5 143q0 62 -36.5 98.5t-99.5 36.5z" />
    <glyph glyph-name="p" unicode="p" 
d="M133 443h71l-9 -58q73 70 167 70q83 0 136.5 -55.5t53.5 -140.5q0 -107 -80.5 -189t-186.5 -82q-91 0 -141 70l-47 -292h-71zM348 390q-75 0 -128 -59t-53 -144q0 -62 35 -98t96 -36q75 0 128.5 59.5t53.5 142.5q0 61 -36 98t-96 37z" />
    <glyph glyph-name="q" unicode="q" 
d="M556 443l-107 -677h-71l46 292q-79 -70 -166 -70q-83 0 -137 55t-54 140q0 108 80.5 190t186.5 82q89 0 142 -70l9 58h71zM325 390q-77 0 -131 -59t-54 -143q0 -62 36 -98.5t98 -36.5q74 0 126 59.5t52 143.5q0 61 -34.5 97.5t-92.5 36.5z" />
    <glyph glyph-name="r" unicode="r" horiz-adv-x="293" 
d="M205 443l-8 -50q49 50 127 50q10 0 19 -1l-10 -64q-10 1 -19 1q-46 0 -78 -22q-29 -20 -43.5 -51t-24.5 -92l-34 -214h-71l70 443h72z" />
    <glyph glyph-name="s" unicode="s" horiz-adv-x="371" 
d="M383 375l-62 -30q-22 47 -69 47q-35 0 -59.5 -21t-24.5 -51q0 -20 12 -31t54 -28l41 -17q44 -19 64 -41.5t20 -54.5q0 -64 -53 -112t-124 -48q-110 0 -136 113l66 26q14 -42 32 -58.5t51 -16.5q37 0 64.5 24.5t27.5 58.5q0 21 -13 32.5t-55 28.5l-45 19q-74 31 -74 93
q0 60 48.5 103.5t115.5 43.5q86 0 119 -80z" />
    <glyph glyph-name="t" unicode="t" horiz-adv-x="246" 
d="M203 379l-39 -246q-2 -20 -2 -29q0 -45 40 -45q13 0 32 6l-11 -65q-29 -7 -45 -7q-89 0 -89 97q0 16 4 43l39 246h-50l10 64h50l17 105l76 28l-21 -133h73l-10 -64h-74z" />
    <glyph glyph-name="u" unicode="u" horiz-adv-x="509" 
d="M375 0l8 50q-59 -62 -144 -62q-67 0 -108.5 40t-41.5 105q0 34 6 70l38 240h71l-36 -231q-6 -32 -6 -60q0 -46 24.5 -71t70.5 -25q66 0 106 42q32 33 47 124l35 221h71l-70 -443h-71z" />
    <glyph glyph-name="v" unicode="v" horiz-adv-x="451" 
d="M148 443l92 -356l205 356h76l-259 -443h-73l-118 443h77z" />
    <glyph glyph-name="w" unicode="w" horiz-adv-x="668" 
d="M147 443l68 -336l159 336h60l53 -336l175 336h76l-237 -443h-60l-54 333l-160 -333h-60l-96 443h76z" />
    <glyph glyph-name="x" unicode="x" horiz-adv-x="442" 
d="M299 230l138 -230h-84l-104 176l-161 -176h-83l211 230l-127 213h83l94 -159l146 159h82z" />
    <glyph glyph-name="y" unicode="y" horiz-adv-x="441" 
d="M184 19l-113 424h77l87 -337l200 337h76l-404 -677h-73z" />
    <glyph glyph-name="z" unicode="z" horiz-adv-x="419" 
d="M128 64h285l-11 -64h-373l9 58l326 321h-260l10 64h349l-10 -59z" />
    <glyph glyph-name="braceleft" unicode="{" horiz-adv-x="299" 
d="M267 593l-31 -200q-8 -49 -25.5 -75t-52.5 -42q25 -15 34.5 -33t9.5 -48q0 -16 -4 -39l-31 -197q-3 -15 -3 -31q0 -23 14.5 -32t49.5 -9h8l-10 -62q-13 -1 -26 -1q-56 0 -82 23t-26 72q0 11 4 47l31 190q3 24 3 33q0 26 -10.5 39.5t-35.5 20.5l9 59q33 9 48.5 28.5
t23.5 60.5l30 190q12 81 51.5 113t122.5 28l-10 -63h-10q-41 0 -59 -15.5t-23 -56.5z" />
    <glyph glyph-name="bar" unicode="|" horiz-adv-x="500" 
d="M214 728h72v-904h-72v904z" />
    <glyph glyph-name="braceright" unicode="}" horiz-adv-x="299" 
d="M119 -41l31 197q7 49 25.5 76t53.5 44q-26 15 -35.5 32t-9.5 48q0 16 3 37l32 200q3 17 3 32q0 28 -29 37q-15 3 -43 3l10 63q49 0 66 -3q68 -15 68 -92q0 -14 -4 -46l-30 -190q-3 -18 -3 -30q0 -46 46 -59l-9 -59q-34 -8 -49.5 -28.5t-23.5 -64.5l-30 -190
q-12 -76 -46 -109t-102 -33q-13 0 -26 1l10 62h10q43 0 58.5 14t23.5 58z" />
    <glyph glyph-name="asciitilde" unicode="~" horiz-adv-x="667" 
d="M136 582l-43 29q31 64 62 89.5t75 25.5q39 0 112 -34q67 -32 97 -32q28 0 47.5 15t42.5 53l45 -26q-29 -59 -63.5 -86t-80.5 -27q-21 0 -47 9t-93 39q-39 18 -65 18q-50 0 -89 -73z" />
    <glyph glyph-name="uni00A0" unicode="&#xa0;" horiz-adv-x="250" 
 />
    <glyph glyph-name="exclamdown" unicode="&#xa1;" horiz-adv-x="279" 
d="M217 493q18 0 30 -12t12 -30q0 -23 -17.5 -40t-40.5 -17q-19 0 -30.5 11.5t-11.5 30.5q0 22 17.5 39.5t40.5 17.5zM158 333h67l-74 -517h-83z" />
    <glyph glyph-name="cent" unicode="&#xa2;" 
d="M250 0l17 105q-69 14 -109 65t-40 125q0 95 63.5 171.5t157.5 95.5l17 105h73l-16 -102q79 -9 130 -73l-55 -48q-41 58 -111 58q-79 0 -133 -58.5t-54 -143.5q0 -63 36.5 -99.5t98.5 -36.5q38 0 68 14t64 48l40 -48q-71 -67 -157 -77l-16 -101h-74z" />
    <glyph glyph-name="sterling" unicode="&#xa3;" horiz-adv-x="559" 
d="M460 300h-191q1 -16 1 -42q0 -103 -44 -155q-7 -7 -37 -34h331l-11 -69h-434l11 69q67 47 88 81.5t21 96.5q0 9 -2 53h-70l10 67h56v32q0 54 12 100q20 82 81.5 131t144.5 49q108 0 153 -105l-65 -39q-32 75 -102 75q-69 0 -109 -52t-40 -142q0 -18 1 -49h205z" />
    <glyph glyph-name="currency" unicode="&#xa4;" horiz-adv-x="727" 
d="M228 608l75 -90q70 49 150 49t134 -49l103 90l35 -39l-105 -92q27 -43 27 -105q0 -102 -72 -182l75 -91l-46 -41l-75 91q-70 -49 -150 -49q-81 0 -135 49l-104 -91l-33 41l105 91q-27 42 -27 106q0 101 72 181l-76 92zM440 502q-76 0 -129.5 -59.5t-53.5 -142.5
q0 -62 36 -98.5t97 -36.5q77 0 131 59t54 143q0 62 -36.5 98.5t-98.5 36.5z" />
    <glyph glyph-name="yen" unicode="&#xa5;" horiz-adv-x="607" 
d="M377 233l-37 -233h-74l37 233h-163l11 67h150l-26 66h-114l11 67h76l-93 234h82l122 -319l222 319h81l-167 -234h77l-11 -67h-113l-48 -66h151l-11 -67h-163z" />
    <glyph glyph-name="brokenbar" unicode="&#xa6;" horiz-adv-x="500" 
d="M214 728h72v-340h-72v340zM214 164h72v-340h-72v340z" />
    <glyph glyph-name="section" unicode="&#xa7;" horiz-adv-x="543" 
d="M315 392l61 -25q130 -54 130 -149q0 -80 -61 -147l-22 -22q31 -32 31 -85q0 -89 -66 -149t-165 -60q-69 0 -114 32.5t-73 102.5l65 38q41 -104 136 -104q59 0 100.5 37.5t41.5 90.5q0 61 -100 102l-59 25q-113 47 -113 139q0 91 87 164q-35 36 -35 91q0 84 67 145t160 61
q111 0 158 -105l-65 -39q-35 75 -107 75q-55 0 -96.5 -38t-41.5 -88q0 -58 81 -92zM331 307l-59 25q-14 6 -20 9q-32 -20 -51 -50t-19 -60q0 -59 81 -92l61 -25q7 -3 45 -22q61 54 61 115q0 32 -23 55t-76 45z" />
    <glyph glyph-name="dieresis" unicode="&#xa8;" horiz-adv-x="476" 
d="M432 641q18 0 30 -12t12 -30q0 -23 -18 -40.5t-40 -17.5q-19 0 -31 12t-12 31q0 22 18 39.5t41 17.5zM248 641q19 0 31 -12t12 -30q0 -23 -18 -40.5t-41 -17.5q-19 0 -31 12t-12 31q0 22 18 39.5t41 17.5z" />
    <glyph glyph-name="copyright" unicode="&#xa9;" horiz-adv-x="857" 
d="M611 488l-44 -44q-32 34 -59.5 47.5t-64.5 13.5q-70 0 -118 -49.5t-48 -122.5q0 -72 48 -121.5t117 -49.5q38 0 64.5 13t62.5 49l44 -45q-45 -43 -82.5 -60.5t-87.5 -17.5q-97 0 -164.5 67.5t-67.5 164.5t67.5 165t164.5 68q49 0 86.5 -17t81.5 -61zM435 712
q152 0 262 -112t110 -266q0 -157 -110.5 -268t-267.5 -111q-158 0 -268.5 111t-110.5 270q0 157 112 266.5t273 109.5zM423 657q-130 0 -224 -95.5t-94 -227.5q0 -134 94.5 -229t228.5 -95q135 0 229.5 95t94.5 231q0 134 -96 227.5t-233 93.5z" />
    <glyph glyph-name="ordfeminine" unicode="&#xaa;" horiz-adv-x="358" 
d="M379 406h-54l5 30q-45 -37 -94 -37q-51 0 -85 33.5t-34 83.5q0 65 49.5 114t114.5 49q48 0 81 -37l5 30h54zM274 631q-42 0 -72 -32t-30 -78q0 -34 20.5 -54t54.5 -20q43 0 73 32t30 77q0 35 -20.5 55t-55.5 20z" />
    <glyph glyph-name="guillemotleft" unicode="&#xab;" horiz-adv-x="431" 
d="M297 221l95 -146l-52 -37l-120 183l179 188l41 -37zM149 221l95 -146l-52 -37l-120 183l179 188l40 -37z" />
    <glyph glyph-name="logicalnot" unicode="&#xac;" horiz-adv-x="667" 
d="M600 81h-71v198h-462v64h533v-262z" />
    <glyph glyph-name="uni00AD" unicode="&#xad;" horiz-adv-x="255" 
d="M78 262h182l-10 -64h-182z" />
    <glyph glyph-name="registered" unicode="&#xae;" horiz-adv-x="857" 
d="M494 295l112 -187h-74l-104 178h-65v-178h-64v450h121q77 0 115 -34q43 -40 43 -102q0 -92 -84 -127zM363 499v-154h63q88 0 88 77t-88 77h-63zM435 712q152 0 262 -112t110 -266q0 -157 -110.5 -268t-267.5 -111q-158 0 -268.5 111t-110.5 270q0 157 112 266.5
t273 109.5zM423 657q-130 0 -224 -95.5t-94 -227.5q0 -134 94.5 -229t228.5 -95q135 0 229.5 95t94.5 231q0 134 -96 227.5t-233 93.5z" />
    <glyph glyph-name="macron" unicode="&#xaf;" horiz-adv-x="476" 
d="M200 622h273l-10 -64h-273z" />
    <glyph glyph-name="degree" unicode="&#xb0;" horiz-adv-x="346" 
d="M325 740q50 0 84 -33.5t34 -82.5q0 -65 -49.5 -114t-114.5 -49q-51 0 -85 33.5t-34 83.5q0 64 50 113t115 49zM314 685q-38 0 -68.5 -30t-30.5 -68q0 -31 20.5 -51t52.5 -20q39 0 69.5 30t30.5 68q0 31 -21 51t-53 20z" />
    <glyph glyph-name="plusminus" unicode="&#xb1;" horiz-adv-x="556" 
d="M308 391l31 200h65l-31 -200h198l-10 -62h-198l-32 -200h-65l32 200h-199l10 62h199zM519 63l-10 -63h-462l10 63h462z" />
    <glyph glyph-name="twosuperior" unicode="&#xb2;" horiz-adv-x="387" 
d="M131 406l7 46l174 160q59 54 59 97q0 22 -15.5 35t-42.5 13q-32 0 -51.5 -14t-35.5 -50l-50 14q41 101 147 101q47 0 75.5 -24.5t28.5 -65.5q0 -67 -60 -122l-151 -139h180l-8 -51h-257z" />
    <glyph glyph-name="threesuperior" unicode="&#xb3;" horiz-adv-x="387" 
d="M263 638h23q37 0 59 18.5t22 49.5q0 23 -15 36t-41 13q-24 0 -40.5 -8.5t-38.5 -32.5l-43 25q55 68 131 68q47 0 75 -25t28 -67q0 -61 -52 -99q33 -29 33 -73q0 -61 -44.5 -102.5t-109.5 -41.5q-46 0 -75.5 23.5t-36.5 65.5l-1 14l57 15q5 -36 19.5 -51t45.5 -15
q37 0 62.5 23.5t25.5 57.5q0 55 -69 55h-23z" />
    <glyph glyph-name="acute" unicode="&#xb4;" horiz-adv-x="476" 
d="M466 641l-145 -126l-41 26l122 138z" />
    <glyph glyph-name="mu" unicode="&#xb5;" horiz-adv-x="509" 
d="M134 43v-277h-71v677h71v-231q0 -89 30 -122q32 -34 84 -34q65 0 99 42q28 35 28 124v221h71v-443h-71v43q-50 -55 -130 -55q-63 0 -111 55z" />
    <glyph glyph-name="paragraph" unicode="&#xb6;" horiz-adv-x="640" 
d="M330 220h-11q-82 0 -133.5 52t-51.5 135q0 104 76.5 182t178.5 78h307l-10 -62h-65l-133 -839h-65l133 839h-99h-1l-133 -839h-65z" />
    <glyph glyph-name="periodcentered" unicode="&#xb7;" horiz-adv-x="227" 
d="M174 383q18 0 30 -12t12 -30q0 -23 -17 -40t-40 -17q-19 0 -30.5 12t-11.5 31q0 22 17.5 39t39.5 17z" />
    <glyph glyph-name="cedilla" unicode="&#xb8;" horiz-adv-x="476" 
d="M307 -75l-121 -128l-45 24l105 132z" />
    <glyph glyph-name="onesuperior" unicode="&#xb9;" horiz-adv-x="387" 
d="M301 406h-56l52 331l-64 -33l-20 45l103 52h48z" />
    <glyph glyph-name="ordmasculine" unicode="&#xba;" horiz-adv-x="351" 
d="M285 679q52 0 86 -33.5t34 -84.5q0 -65 -49.5 -113.5t-116.5 -48.5q-54 0 -88 33t-34 86q0 65 50 113t118 48zM274 631q-43 0 -73 -32t-30 -77q0 -34 20.5 -54.5t55.5 -20.5q43 0 73.5 32t30.5 78q0 34 -21 54t-56 20z" />
    <glyph glyph-name="guillemotright" unicode="&#xbb;" horiz-adv-x="431" 
d="M353 221l-95 151l53 37l119 -188l-178 -183l-41 37zM205 221l-95 151l52 37l120 -188l-178 -183l-41 37z" />
    <glyph glyph-name="onequarter" unicode="&#xbc;" horiz-adv-x="833" 
d="M653 679l38 -24l-492 -667l-37 23zM723 376l-194 -240h114l16 102h56l-16 -102h50l-9 -51h-49l-13 -85h-57l14 85h-178l8 52l216 267zM245 272h-56l52 331l-64 -33l-20 45l103 52h48z" />
    <glyph glyph-name="onehalf" unicode="&#xbd;" horiz-adv-x="833" 
d="M653 679l38 -24l-492 -667l-37 23zM245 272h-56l52 331l-64 -33l-20 45l103 52h48zM496 0l8 46l173 160q59 54 59 96q0 22 -15.5 35t-42.5 13q-32 0 -51 -14t-36 -49l-49 14q39 100 146 100q47 0 75.5 -24.5t28.5 -65.5q0 -66 -60 -121l-151 -139h180l-8 -51h-257z" />
    <glyph glyph-name="threequarters" unicode="&#xbe;" horiz-adv-x="833" 
d="M715 679l37 -24l-491 -667l-37 23zM236 504h23q37 0 59 19t22 50q0 23 -15 36t-41 13q-24 0 -40.5 -9t-38.5 -33l-43 25q54 69 131 69q47 0 75 -25t28 -67q0 -63 -52 -99q33 -30 33 -74q0 -60 -45 -102t-109 -42q-46 0 -75.5 24t-35.5 66l-2 14l57 14q4 -37 18.5 -51.5
t46.5 -14.5q37 0 62.5 24t25.5 58q0 54 -69 54h-23zM762 376l-194 -240h115l16 102h56l-16 -102h49l-8 -51h-49l-14 -85h-56l14 85h-178l8 52l216 267z" />
    <glyph glyph-name="questiondown" unicode="&#xbf;" horiz-adv-x="421" 
d="M325 333l-12 -75q-7 -46 -22 -70t-55 -54l-50 -37q-84 -64 -84 -135q0 -41 26.5 -64.5t72.5 -23.5q44 0 74.5 16.5t67.5 62.5l47 -45q-78 -103 -195 -103q-80 0 -123.5 38t-43.5 108q0 54 25 97t84 92l57 46q28 23 35 34.5t12 45.5l11 67h73zM313 493q19 0 30.5 -12
t11.5 -30q0 -23 -17.5 -40t-39.5 -17q-18 0 -30 11.5t-12 29.5q0 23 17 40.5t40 17.5z" />
    <glyph glyph-name="Agrave" unicode="&#xc0;" horiz-adv-x="620" 
d="M186 189l-102 -189h-77l362 667h94l151 -667h-78l-42 189h-308zM223 258h255l-75 337zM317 841l76 37l78 -137l-49 -26z" />
    <glyph glyph-name="Aacute" unicode="&#xc1;" horiz-adv-x="620" 
d="M186 189l-102 -189h-77l362 667h94l151 -667h-78l-42 189h-308zM223 258h255l-75 337zM567 841l-145 -126l-41 26l122 137z" />
    <glyph glyph-name="Acircumflex" unicode="&#xc2;" horiz-adv-x="620" 
d="M186 189l-102 -189h-77l362 667h94l151 -667h-78l-42 189h-308zM223 258h255l-75 337zM437 802l-105 -87l-48 26l135 126h57l95 -126l-55 -26z" />
    <glyph glyph-name="Atilde" unicode="&#xc3;" horiz-adv-x="620" 
d="M186 189l-102 -189h-77l362 667h94l151 -667h-78l-42 189h-308zM223 258h255l-75 337zM522 841l56 -14q-21 -85 -93 -85q-25 0 -64 19q-30 15 -41 15q-12 0 -18.5 -7.5t-13.5 -27.5l-54 13q10 40 35 62.5t58 22.5q23 0 66 -21q25 -13 40 -13q12 0 18.5 7.5t10.5 28.5z
" />
    <glyph glyph-name="Adieresis" unicode="&#xc4;" horiz-adv-x="620" 
d="M186 189l-102 -189h-77l362 667h94l151 -667h-78l-42 189h-308zM223 258h255l-75 337zM536 841q18 0 30 -12t12 -30q0 -23 -18 -40.5t-40 -17.5q-19 0 -31 12t-12 31q0 22 18 39.5t41 17.5zM352 841q19 0 31 -12t12 -30q0 -23 -18 -40.5t-41 -17.5q-19 0 -31 12t-12 31
q0 22 18 39.5t41 17.5z" />
    <glyph glyph-name="Aring" unicode="&#xc5;" horiz-adv-x="620" 
d="M186 189l-102 -189h-77l362 667h94l151 -667h-78l-42 189h-308zM223 258h255l-75 337zM449 878q33 0 55 -21t22 -53q0 -40 -31.5 -70.5t-72.5 -30.5q-34 0 -55.5 21t-21.5 54q0 39 31.5 69.5t72.5 30.5zM444 842q-24 0 -42.5 -18t-18.5 -41q0 -19 12.5 -31.5t31.5 -12.5
q24 0 42.5 18t18.5 42q0 19 -12.5 31t-31.5 12z" />
    <glyph glyph-name="AE" unicode="&#xc6;" horiz-adv-x="840" 
d="M475 189h-259l-126 -189h-83l449 667h438l-11 -69h-269l-35 -225h238l-11 -69h-238l-37 -235h278l-11 -69h-353zM486 258l54 340h-52l-226 -340h224z" />
    <glyph glyph-name="Ccedilla" unicode="&#xc7;" horiz-adv-x="662" 
d="M716 572l-59 -51q-37 47 -78 67.5t-97 20.5q-127 0 -221 -96.5t-94 -225.5q0 -100 64 -164.5t164 -64.5q56 0 103.5 20.5t102.5 69.5l43 -51q-67 -58 -127.5 -83.5t-131.5 -25.5q-128 0 -211 82.5t-83 209.5q0 157 122 278t281 121q70 0 121.5 -25t100.5 -82zM401 -75
l-121 -128l-45 24l105 132z" />
    <glyph glyph-name="Egrave" unicode="&#xc8;" horiz-adv-x="475" 
d="M518 598h-269l-35 -225h238l-11 -69h-238l-37 -235h278l-11 -69h-353l106 667h343zM271 841l76 37l79 -137l-49 -26z" />
    <glyph glyph-name="Eacute" unicode="&#xc9;" horiz-adv-x="475" 
d="M518 598h-269l-35 -225h238l-11 -69h-238l-37 -235h278l-11 -69h-353l106 667h343zM508 841l-145 -126l-41 26l122 137z" />
    <glyph glyph-name="Ecircumflex" unicode="&#xca;" horiz-adv-x="475" 
d="M518 598h-269l-35 -225h238l-11 -69h-238l-37 -235h278l-11 -69h-353l106 667h343zM384 802l-106 -87l-47 26l135 126h56l95 -126l-55 -26z" />
    <glyph glyph-name="Edieresis" unicode="&#xcb;" horiz-adv-x="475" 
d="M518 598h-269l-35 -225h238l-11 -69h-238l-37 -235h278l-11 -69h-353l106 667h343zM480 841q19 0 31 -12t12 -30q0 -23 -18 -40.5t-41 -17.5q-19 0 -31 12t-12 31q0 22 18 39.5t41 17.5zM296 841q19 0 31 -12t12 -30q0 -23 -18 -40.5t-41 -17.5q-18 0 -30 12t-12 31
q0 22 17.5 39.5t40.5 17.5z" />
    <glyph glyph-name="Igrave" unicode="&#xcc;" horiz-adv-x="235" 
d="M260 667l-105 -667h-75l106 667h74zM123 841l76 37l78 -137l-49 -26z" />
    <glyph glyph-name="Iacute" unicode="&#xcd;" horiz-adv-x="235" 
d="M260 667l-105 -667h-75l106 667h74zM378 841l-145 -126l-41 26l122 137z" />
    <glyph glyph-name="Icircumflex" unicode="&#xce;" horiz-adv-x="235" 
d="M260 667l-105 -667h-75l106 667h74zM244 802l-105 -87l-48 26l135 126h57l95 -126l-55 -26z" />
    <glyph glyph-name="Idieresis" unicode="&#xcf;" horiz-adv-x="235" 
d="M260 667l-105 -667h-75l106 667h74zM318 841q18 0 30 -12t12 -30q0 -23 -18 -40.5t-40 -17.5q-19 0 -31 12t-12 31q0 22 18 39.5t41 17.5zM184 841q19 0 31 -12t12 -30q0 -23 -18 -40.5t-41 -17.5q-19 0 -31 12t-12 31q0 22 18 39.5t41 17.5z" />
    <glyph glyph-name="Eth" unicode="&#xd0;" horiz-adv-x="634" 
d="M157 393l44 274h136q148 0 230.5 -71t82.5 -198q0 -79 -29 -153t-82 -128q-115 -117 -307 -117h-137l52 326h-67l11 67h66zM232 393h160l-11 -67h-160l-40 -257h65q144 0 236 88.5t92 227.5q0 100 -65 156.5t-179 56.5h-66z" />
    <glyph glyph-name="Ntilde" unicode="&#xd1;" horiz-adv-x="710" 
d="M80 0l106 667h70l319 -545l86 545h75l-106 -667h-70l-319 545l-86 -545h-75zM575 841l56 -14q-21 -85 -93 -85q-25 0 -64 19q-30 15 -41 15q-12 0 -18.5 -7.5t-13.5 -27.5l-54 13q10 40 35 62.5t58 22.5q23 0 66 -21q25 -13 40 -13q12 0 18.5 7.5t10.5 28.5z" />
    <glyph glyph-name="Ograve" unicode="&#xd2;" horiz-adv-x="764" 
d="M493 679q122 0 204.5 -84t82.5 -208q0 -103 -56.5 -195.5t-150.5 -148t-199 -55.5q-67 0 -128 31t-101 85q-54 75 -54 178q0 156 122 276.5t280 120.5zM480 609q-124 0 -219 -97t-95 -225q0 -96 64 -162.5t158 -66.5q125 0 220.5 96.5t95.5 223.5q0 100 -63.5 165.5
t-160.5 65.5zM390 841l76 37l78 -137l-49 -26z" />
    <glyph glyph-name="Oacute" unicode="&#xd3;" horiz-adv-x="764" 
d="M493 679q122 0 204.5 -84t82.5 -208q0 -103 -56.5 -195.5t-150.5 -148t-199 -55.5q-67 0 -128 31t-101 85q-54 75 -54 178q0 156 122 276.5t280 120.5zM480 609q-124 0 -219 -97t-95 -225q0 -96 64 -162.5t158 -66.5q125 0 220.5 96.5t95.5 223.5q0 100 -63.5 165.5
t-160.5 65.5zM640 841l-145 -126l-40 26l121 137z" />
    <glyph glyph-name="Ocircumflex" unicode="&#xd4;" horiz-adv-x="764" 
d="M493 679q122 0 204.5 -84t82.5 -208q0 -103 -56.5 -195.5t-150.5 -148t-199 -55.5q-67 0 -128 31t-101 85q-54 75 -54 178q0 156 122 276.5t280 120.5zM480 609q-124 0 -219 -97t-95 -225q0 -96 64 -162.5t158 -66.5q125 0 220.5 96.5t95.5 223.5q0 100 -63.5 165.5
t-160.5 65.5zM509 802l-106 -87l-47 26l135 126h57l95 -126l-56 -26z" />
    <glyph glyph-name="Otilde" unicode="&#xd5;" horiz-adv-x="764" 
d="M493 679q122 0 204.5 -84t82.5 -208q0 -103 -56.5 -195.5t-150.5 -148t-199 -55.5q-67 0 -128 31t-101 85q-54 75 -54 178q0 156 122 276.5t280 120.5zM480 609q-124 0 -219 -97t-95 -225q0 -96 64 -162.5t158 -66.5q125 0 220.5 96.5t95.5 223.5q0 100 -63.5 165.5
t-160.5 65.5zM594 841l55 -14q-20 -85 -92 -85q-25 0 -64 19q-30 15 -41 15q-12 0 -18.5 -7.5t-13.5 -27.5l-55 13q24 85 93 85q24 0 67 -21q25 -13 40 -13q12 0 18.5 7.5t10.5 28.5z" />
    <glyph glyph-name="Odieresis" unicode="&#xd6;" horiz-adv-x="764" 
d="M493 679q122 0 204.5 -84t82.5 -208q0 -103 -56.5 -195.5t-150.5 -148t-199 -55.5q-67 0 -128 31t-101 85q-54 75 -54 178q0 156 122 276.5t280 120.5zM480 609q-124 0 -219 -97t-95 -225q0 -96 64 -162.5t158 -66.5q125 0 220.5 96.5t95.5 223.5q0 100 -63.5 165.5
t-160.5 65.5zM608 841q18 0 30 -12t12 -30q0 -23 -18 -40.5t-40 -17.5q-19 0 -31 12t-12 31q0 22 18 39.5t41 17.5zM423 841q19 0 31 -12t12 -30q0 -23 -18 -40.5t-41 -17.5q-18 0 -30 12t-12 31q0 22 17.5 39.5t40.5 17.5z" />
    <glyph glyph-name="multiply" unicode="&#xd7;" horiz-adv-x="556" 
d="M282 312l-118 141l52 45l118 -141l163 141l38 -45l-163 -141l118 -141l-51 -45l-119 141l-163 -141l-38 45z" />
    <glyph glyph-name="Oslash" unicode="&#xd8;" horiz-adv-x="771" 
d="M60 38l84 73q-50 73 -50 169q0 102 56.5 195t150 148.5t196.5 55.5q56 0 110.5 -22.5t91.5 -60.5l83 73l35 -40l-84 -73q50 -75 50 -170q0 -156 -122.5 -277t-280.5 -121q-121 0 -202 83l-83 -73zM204 163l437 382q-67 64 -156 64q-125 0 -220 -97t-95 -225
q0 -66 34 -124zM673 504l-437 -382q67 -64 156 -64q125 0 220 97t95 224q0 66 -34 125z" />
    <glyph glyph-name="Ugrave" unicode="&#xd9;" horiz-adv-x="635" 
d="M261 667l-66 -414q-7 -47 -7 -72q0 -55 38.5 -89t99.5 -34q44 0 86 19.5t67 51.5q16 20 25 46t17 78l66 414h74l-68 -434q-17 -98 -68 -154q-40 -43 -95.5 -67t-113.5 -24q-88 0 -146 51.5t-58 129.5q0 26 5 64l69 434h75zM333 841l76 37l78 -137l-49 -26z" />
    <glyph glyph-name="Uacute" unicode="&#xda;" horiz-adv-x="635" 
d="M261 667l-66 -414q-7 -47 -7 -72q0 -55 38.5 -89t99.5 -34q44 0 86 19.5t67 51.5q16 20 25 46t17 78l66 414h74l-68 -434q-17 -98 -68 -154q-40 -43 -95.5 -67t-113.5 -24q-88 0 -146 51.5t-58 129.5q0 26 5 64l69 434h75zM570 841l-145 -126l-41 26l122 137z" />
    <glyph glyph-name="Ucircumflex" unicode="&#xdb;" horiz-adv-x="635" 
d="M261 667l-66 -414q-7 -47 -7 -72q0 -55 38.5 -89t99.5 -34q44 0 86 19.5t67 51.5q16 20 25 46t17 78l66 414h74l-68 -434q-17 -98 -68 -154q-40 -43 -95.5 -67t-113.5 -24q-88 0 -146 51.5t-58 129.5q0 26 5 64l69 434h75zM445 802l-106 -87l-47 26l135 126h57l95 -126
l-56 -26z" />
    <glyph glyph-name="Udieresis" unicode="&#xdc;" horiz-adv-x="635" 
d="M261 667l-66 -414q-7 -47 -7 -72q0 -55 38.5 -89t99.5 -34q44 0 86 19.5t67 51.5q16 20 25 46t17 78l66 414h74l-68 -434q-17 -98 -68 -154q-40 -43 -95.5 -67t-113.5 -24q-88 0 -146 51.5t-58 129.5q0 26 5 64l69 434h75zM543 841q19 0 31 -12t12 -30q0 -23 -18 -40.5
t-41 -17.5q-19 0 -31 12t-12 31q0 22 18 39.5t41 17.5zM359 841q19 0 31 -12t12 -30q0 -23 -18 -40.5t-41 -17.5q-18 0 -30 12t-12 31q0 22 17.5 39.5t40.5 17.5z" />
    <glyph glyph-name="Yacute" unicode="&#xdd;" horiz-adv-x="507" 
d="M260 278l-154 389h82l121 -318l223 318h81l-278 -389l-44 -278h-75zM505 841l-145 -126l-41 26l122 137z" />
    <glyph glyph-name="Thorn" unicode="&#xde;" horiz-adv-x="467" 
d="M244 567h62q115 0 161 -49q41 -44 41 -114q0 -87 -59 -156q-36 -42 -83.5 -60t-121.5 -18h-62l-27 -170h-75l106 667h74zM192 238h71q98 0 140 59q31 43 31 98q0 103 -129 103h-71z" />
    <glyph glyph-name="germandbls" unicode="&#xdf;" horiz-adv-x="518" 
d="M63 0l79 499q13 79 70.5 129.5t134.5 50.5q71 0 113.5 -39.5t42.5 -105.5q0 -50 -22 -96.5t-57 -71.5q82 -36 82 -140q0 -97 -71 -161.5t-178 -64.5h-56l11 68h59q68 0 115.5 43t47.5 106q0 51 -32 78t-93 27h-5l10 65h5q50 0 81.5 38t31.5 98q0 43 -24.5 67.5
t-66.5 24.5q-49 0 -84.5 -32t-43.5 -84l-79 -499h-71z" />
    <glyph glyph-name="agrave" unicode="&#xe0;" 
d="M486 0h-71l9 58q-76 -70 -167 -70q-83 0 -136.5 55t-53.5 140q0 109 80 190.5t187 81.5q88 0 142 -70l9 58h71zM321 390q-75 0 -128.5 -59.5t-53.5 -142.5q0 -61 36 -98t96 -37q76 0 129.5 59t53.5 144q0 62 -36 98t-97 36zM237 641l76 38l78 -138l-49 -26z" />
    <glyph glyph-name="aacute" unicode="&#xe1;" 
d="M486 0h-71l9 58q-76 -70 -167 -70q-83 0 -136.5 55t-53.5 140q0 109 80 190.5t187 81.5q88 0 142 -70l9 58h71zM321 390q-75 0 -128.5 -59.5t-53.5 -142.5q0 -61 36 -98t96 -37q76 0 129.5 59t53.5 144q0 62 -36 98t-97 36zM494 641l-145 -126l-41 26l122 138z" />
    <glyph glyph-name="acircumflex" unicode="&#xe2;" 
d="M486 0h-71l9 58q-76 -70 -167 -70q-83 0 -136.5 55t-53.5 140q0 109 80 190.5t187 81.5q88 0 142 -70l9 58h71zM321 390q-75 0 -128.5 -59.5t-53.5 -142.5q0 -61 36 -98t96 -37q76 0 129.5 59t53.5 144q0 62 -36 98t-97 36zM356 602l-106 -87l-47 26l135 126h57l95 -126
l-56 -26z" />
    <glyph glyph-name="atilde" unicode="&#xe3;" 
d="M486 0h-71l9 58q-76 -70 -167 -70q-83 0 -136.5 55t-53.5 140q0 109 80 190.5t187 81.5q88 0 142 -70l9 58h71zM321 390q-75 0 -128.5 -59.5t-53.5 -142.5q0 -61 36 -98t96 -37q76 0 129.5 59t53.5 144q0 62 -36 98t-97 36zM441 641l55 -14q-20 -85 -92 -85q-24 0 -65 19
q-29 15 -40 15q-12 0 -19 -7.5t-13 -27.5l-55 13q11 40 35.5 62.5t57.5 22.5q24 0 66 -21q26 -13 41 -13q12 0 18 7.5t11 28.5z" />
    <glyph glyph-name="adieresis" unicode="&#xe4;" 
d="M486 0h-71l9 58q-76 -70 -167 -70q-83 0 -136.5 55t-53.5 140q0 109 80 190.5t187 81.5q88 0 142 -70l9 58h71zM321 390q-75 0 -128.5 -59.5t-53.5 -142.5q0 -61 36 -98t96 -37q76 0 129.5 59t53.5 144q0 62 -36 98t-97 36zM463 641q18 0 30 -12t12 -30
q0 -23 -17.5 -40.5t-40.5 -17.5q-19 0 -31 12t-12 31q0 22 18 39.5t41 17.5zM278 641q19 0 31 -12t12 -30q0 -23 -18 -40.5t-41 -17.5q-18 0 -30 12t-12 31q0 22 17.5 39.5t40.5 17.5z" />
    <glyph glyph-name="aring" unicode="&#xe5;" 
d="M486 0h-71l9 58q-76 -70 -167 -70q-83 0 -136.5 55t-53.5 140q0 109 80 190.5t187 81.5q88 0 142 -70l9 58h71zM321 390q-75 0 -128.5 -59.5t-53.5 -142.5q0 -61 36 -98t96 -37q76 0 129.5 59t53.5 144q0 62 -36 98t-97 36zM380 679q33 0 55 -21t22 -53
q0 -41 -31.5 -71.5t-73.5 -30.5q-34 0 -55.5 21t-21.5 54q0 40 32 70.5t73 30.5zM374 643q-24 0 -42.5 -18t-18.5 -42q0 -19 13 -31.5t32 -12.5q24 0 42.5 18.5t18.5 41.5q0 19 -12.5 31.5t-32.5 12.5z" />
    <glyph glyph-name="ae" unicode="&#xe6;" horiz-adv-x="822" 
d="M736 131l60 -27q-88 -116 -217 -116q-105 0 -158 85q-55 -85 -190 -85q-83 0 -129.5 33t-46.5 94q0 77 58 124.5t152 47.5h140q1 5 1 15q0 89 -114 89q-80 0 -151 -50l-26 48q92 66 195 66q122 0 154 -88q80 88 184 88q79 0 128 -53t49 -139q0 -25 -8 -72h-353v-8
q0 -58 34.5 -94t89.5 -36q91 0 148 78zM398 226h-129q-67 0 -105 -27t-38 -75q0 -35 30 -53.5t86 -18.5q129 0 143 91zM756 252v8v5q-1 56 -33.5 91t-84.5 35q-56 0 -101.5 -38.5t-62.5 -100.5h282z" />
    <glyph glyph-name="ccedilla" unicode="&#xe7;" horiz-adv-x="457" 
d="M492 380l-55 -48q-41 58 -111 58q-79 0 -133 -58.5t-54 -143.5q0 -62 36.5 -98.5t98.5 -36.5q39 0 68 13.5t64 48.5l40 -48q-46 -43 -88 -61t-94 -18q-88 0 -142.5 54t-54.5 142q0 110 80.5 190.5t190.5 80.5q93 0 154 -75zM282 -75l-122 -128l-45 24l105 132z" />
    <glyph glyph-name="egrave" unicode="&#xe8;" horiz-adv-x="496" 
d="M138 191v-8q0 -58 34.5 -94t89.5 -36q90 0 149 78l59 -27q-87 -116 -217 -116q-83 0 -134.5 53.5t-51.5 140.5q0 109 77 191t180 82q78 0 127 -53.5t49 -138.5q0 -27 -8 -72h-354zM431 252v8q0 58 -32.5 94.5t-85.5 36.5q-56 0 -101.5 -38t-63.5 -101h283zM230 641l76 38
l78 -138l-49 -26z" />
    <glyph glyph-name="eacute" unicode="&#xe9;" horiz-adv-x="496" 
d="M138 191v-8q0 -58 34.5 -94t89.5 -36q90 0 149 78l59 -27q-87 -116 -217 -116q-83 0 -134.5 53.5t-51.5 140.5q0 109 77 191t180 82q78 0 127 -53.5t49 -138.5q0 -27 -8 -72h-354zM431 252v8q0 58 -32.5 94.5t-85.5 36.5q-56 0 -101.5 -38t-63.5 -101h283zM470 641
l-145 -126l-41 26l122 138z" />
    <glyph glyph-name="ecircumflex" unicode="&#xea;" horiz-adv-x="496" 
d="M138 191v-8q0 -58 34.5 -94t89.5 -36q90 0 149 78l59 -27q-87 -116 -217 -116q-83 0 -134.5 53.5t-51.5 140.5q0 109 77 191t180 82q78 0 127 -53.5t49 -138.5q0 -27 -8 -72h-354zM431 252v8q0 58 -32.5 94.5t-85.5 36.5q-56 0 -101.5 -38t-63.5 -101h283zM344 602
l-106 -87l-48 26l136 126h56l95 -126l-55 -26z" />
    <glyph glyph-name="edieresis" unicode="&#xeb;" horiz-adv-x="496" 
d="M138 191v-8q0 -58 34.5 -94t89.5 -36q90 0 149 78l59 -27q-87 -116 -217 -116q-83 0 -134.5 53.5t-51.5 140.5q0 109 77 191t180 82q78 0 127 -53.5t49 -138.5q0 -27 -8 -72h-354zM431 252v8q0 58 -32.5 94.5t-85.5 36.5q-56 0 -101.5 -38t-63.5 -101h283zM442 641
q18 0 30 -12t12 -30q0 -23 -18 -40.5t-40 -17.5q-19 0 -31 12t-12 31q0 22 18 39.5t41 17.5zM258 641q19 0 31 -12t12 -30q0 -23 -18 -40.5t-41 -17.5q-18 0 -30 12t-12 31q0 22 17.5 39.5t40.5 17.5z" />
    <glyph glyph-name="igrave" unicode="&#xec;" horiz-adv-x="199" 
d="M206 443l-71 -443h-71l70 443h72zM70 641l76 38l78 -138l-49 -26z" />
    <glyph glyph-name="iacute" unicode="&#xed;" horiz-adv-x="199" 
d="M206 443l-71 -443h-71l70 443h72zM332 641l-145 -126l-41 26l122 138z" />
    <glyph glyph-name="icircumflex" unicode="&#xee;" horiz-adv-x="199" 
d="M206 443l-71 -443h-71l70 443h72zM195 602l-106 -87l-47 26l135 126h57l95 -126l-56 -26z" />
    <glyph glyph-name="idieresis" unicode="&#xef;" horiz-adv-x="199" 
d="M206 443l-71 -443h-71l70 443h72zM267 641q18 0 30 -12t12 -30q0 -23 -17.5 -40.5t-40.5 -17.5q-19 0 -31 12t-12 31q0 22 18 39.5t41 17.5zM133 641q19 0 31 -12t12 -30q0 -23 -18 -40.5t-41 -17.5q-18 0 -30 12t-12 31q0 22 17.5 39.5t40.5 17.5z" />
    <glyph glyph-name="eth" unicode="&#xf0;" horiz-adv-x="526" 
d="M535 696l-111 -54q112 -121 112 -313q0 -109 -33 -182q-34 -72 -100 -115.5t-142 -43.5q-85 0 -139.5 55t-54.5 141q0 109 80.5 190t187.5 81q75 0 127 -43q-5 47 -36.5 109.5t-63.5 90.5l-116 -56l-39 41l107 52q-39 30 -115 54l35 44q84 -23 147 -67l119 56zM322 390
q-76 0 -129.5 -59.5t-53.5 -142.5q0 -62 36 -98.5t97 -36.5q77 0 131 59t54 143q0 62 -36.5 98.5t-98.5 36.5z" />
    <glyph glyph-name="ntilde" unicode="&#xf1;" horiz-adv-x="509" 
d="M205 443l-8 -50q59 62 143 62q68 0 109 -40t41 -105q0 -34 -6 -70l-38 -240h-71l37 231q5 35 5 60q0 46 -24.5 71t-70.5 25q-65 0 -105 -42q-33 -33 -48 -123l-35 -222h-71l70 443h72zM440 641l55 -14q-20 -85 -92 -85q-24 0 -65 19q-29 15 -40 15q-12 0 -19 -7.5
t-13 -27.5l-55 13q11 40 35.5 62.5t57.5 22.5q24 0 66 -21q26 -13 41 -13q12 0 18 7.5t11 28.5z" />
    <glyph glyph-name="ograve" unicode="&#xf2;" horiz-adv-x="526" 
d="M338 455q84 0 138 -55t54 -140q0 -109 -80.5 -190.5t-188.5 -81.5q-86 0 -140 54.5t-54 141.5q0 110 80.5 190.5t190.5 80.5zM322 390q-76 0 -129.5 -59.5t-53.5 -142.5q0 -62 36 -98.5t97 -36.5q77 0 131.5 59t54.5 143q0 62 -36.5 98.5t-99.5 36.5zM240 641l76 38
l78 -138l-49 -26z" />
    <glyph glyph-name="oacute" unicode="&#xf3;" horiz-adv-x="526" 
d="M338 455q84 0 138 -55t54 -140q0 -109 -80.5 -190.5t-188.5 -81.5q-86 0 -140 54.5t-54 141.5q0 110 80.5 190.5t190.5 80.5zM322 390q-76 0 -129.5 -59.5t-53.5 -142.5q0 -62 36 -98.5t97 -36.5q77 0 131.5 59t54.5 143q0 62 -36.5 98.5t-99.5 36.5zM490 641l-145 -126
l-41 26l122 138z" />
    <glyph glyph-name="ocircumflex" unicode="&#xf4;" horiz-adv-x="526" 
d="M338 455q84 0 138 -55t54 -140q0 -109 -80.5 -190.5t-188.5 -81.5q-86 0 -140 54.5t-54 141.5q0 110 80.5 190.5t190.5 80.5zM322 390q-76 0 -129.5 -59.5t-53.5 -142.5q0 -62 36 -98.5t97 -36.5q77 0 131 59t54 143q0 62 -36.5 98.5t-98.5 36.5zM359 602l-106 -87
l-48 26l136 126h56l95 -126l-55 -26z" />
    <glyph glyph-name="otilde" unicode="&#xf5;" horiz-adv-x="526" 
d="M338 455q84 0 138 -55t54 -140q0 -109 -80.5 -190.5t-188.5 -81.5q-86 0 -140 54.5t-54 141.5q0 110 80.5 190.5t190.5 80.5zM322 390q-76 0 -129.5 -59.5t-53.5 -142.5q0 -62 36 -98.5t97 -36.5q77 0 131.5 59t54.5 143q0 62 -36.5 98.5t-99.5 36.5zM444 641l55 -14
q-22 -85 -92 -85q-26 0 -65 19q-29 15 -41 15t-18.5 -7.5t-13.5 -27.5l-54 13q11 40 35.5 62.5t57.5 22.5q23 0 66 -21q26 -13 40 -13q13 0 19 7.5t11 28.5z" />
    <glyph glyph-name="odieresis" unicode="&#xf6;" horiz-adv-x="526" 
d="M338 455q84 0 138 -55t54 -140q0 -109 -80.5 -190.5t-188.5 -81.5q-86 0 -140 54.5t-54 141.5q0 110 80.5 190.5t190.5 80.5zM322 390q-76 0 -129.5 -59.5t-53.5 -142.5q0 -62 36 -98.5t97 -36.5q77 0 131.5 59t54.5 143q0 62 -36.5 98.5t-99.5 36.5zM457 641
q18 0 30 -12t12 -30q0 -23 -17.5 -40.5t-40.5 -17.5q-19 0 -31 12t-12 31q0 22 18 39.5t41 17.5zM273 641q19 0 31 -12t12 -30q0 -23 -18 -40.5t-41 -17.5q-18 0 -30 12t-12 31q0 22 17.5 39.5t40.5 17.5z" />
    <glyph glyph-name="divide" unicode="&#xf7;" horiz-adv-x="556" 
d="M547 343l-10 -63h-429l10 63h429zM364 540q19 0 32 -13t13 -32q0 -25 -19 -43.5t-44 -18.5q-19 0 -32 13t-13 32q0 25 19 43.5t44 18.5zM309 191q19 0 32 -13t13 -32q0 -25 -19 -43.5t-44 -18.5q-19 0 -32 13t-13 32q0 25 19 43.5t44 18.5z" />
    <glyph glyph-name="oslash" unicode="&#xf8;" horiz-adv-x="539" 
d="M47 35l53 45q-26 44 -26 104q0 109 80.5 190t188.5 81q81 0 137 -53l51 43l32 -36l-53 -45q26 -47 26 -104q0 -109 -80.5 -190.5t-188.5 -81.5q-81 0 -137 53l-51 -43zM455 317l-272 -231q38 -33 95 -33q78 0 132 59.5t54 145.5q0 38 -9 59zM155 126l272 231
q-36 33 -95 33q-79 0 -132.5 -59.5t-53.5 -145.5q0 -32 9 -59z" />
    <glyph glyph-name="ugrave" unicode="&#xf9;" horiz-adv-x="509" 
d="M375 0l8 50q-59 -62 -144 -62q-67 0 -108.5 40t-41.5 105q0 34 6 70l38 240h71l-36 -231q-6 -32 -6 -60q0 -46 24.5 -71t70.5 -25q66 0 106 42q32 33 47 124l35 221h71l-70 -443h-71zM232 641l76 38l79 -138l-49 -26z" />
    <glyph glyph-name="uacute" unicode="&#xfa;" horiz-adv-x="509" 
d="M375 0l8 50q-59 -62 -144 -62q-67 0 -108.5 40t-41.5 105q0 34 6 70l38 240h71l-36 -231q-6 -32 -6 -60q0 -46 24.5 -71t70.5 -25q66 0 106 42q32 33 47 124l35 221h71l-70 -443h-71zM476 641l-145 -126l-41 26l122 138z" />
    <glyph glyph-name="ucircumflex" unicode="&#xfb;" horiz-adv-x="509" 
d="M375 0l8 50q-59 -62 -144 -62q-67 0 -108.5 40t-41.5 105q0 34 6 70l38 240h71l-36 -231q-6 -32 -6 -60q0 -46 24.5 -71t70.5 -25q66 0 106 42q32 33 47 124l35 221h71l-70 -443h-71zM350 602l-106 -87l-47 26l135 126h56l95 -126l-55 -26z" />
    <glyph glyph-name="udieresis" unicode="&#xfc;" horiz-adv-x="509" 
d="M375 0l8 50q-59 -62 -144 -62q-67 0 -108.5 40t-41.5 105q0 34 6 70l38 240h71l-36 -231q-6 -32 -6 -60q0 -46 24.5 -71t70.5 -25q66 0 106 42q32 33 47 124l35 221h71l-70 -443h-71zM448 641q18 0 30 -12t12 -30q0 -23 -18 -40.5t-40 -17.5q-19 0 -31 12t-12 31
q0 22 18 39.5t41 17.5zM264 641q19 0 31 -12t12 -30q0 -23 -18 -40.5t-41 -17.5q-18 0 -30 12t-12 31q0 22 17.5 39.5t40.5 17.5z" />
    <glyph glyph-name="yacute" unicode="&#xfd;" horiz-adv-x="441" 
d="M445 641l-145 -126l-41 26l122 138zM184 19l-113 424h77l87 -337l200 337h76l-404 -677h-73z" />
    <glyph glyph-name="thorn" unicode="&#xfe;" horiz-adv-x="550" 
d="M170 667h71l-45 -282q75 70 167 70q83 0 136.5 -55.5t53.5 -140.5q0 -107 -80.5 -189t-186.5 -82q-91 0 -141 70l-47 -292h-71zM349 390q-75 0 -128 -59t-53 -144q0 -62 35 -98t96 -36q75 0 128.5 59.5t53.5 142.5q0 61 -36 98t-96 37z" />
    <glyph glyph-name="ydieresis" unicode="&#xff;" horiz-adv-x="441" 
d="M414 641q19 0 31 -12t12 -30q0 -23 -18 -40.5t-41 -17.5q-19 0 -31 12t-12 31q0 22 18 39.5t41 17.5zM230 641q19 0 31 -12t12 -30q0 -23 -18 -40.5t-41 -17.5q-18 0 -30 12t-12 31q0 22 17.5 39.5t40.5 17.5zM184 19l-113 424h77l87 -337l200 337h76l-404 -677h-73z" />
    <glyph glyph-name="Amacron" unicode="&#x100;" horiz-adv-x="620" 
d="M186 189l-102 -189h-77l362 667h94l151 -667h-78l-42 189h-308zM223 258h255l-75 337zM304 822h273l-10 -64h-273z" />
    <glyph glyph-name="amacron" unicode="&#x101;" 
d="M486 0h-71l9 58q-76 -70 -167 -70q-83 0 -136.5 55t-53.5 140q0 109 80 190.5t187 81.5q88 0 142 -70l9 58h71zM321 390q-75 0 -128.5 -59.5t-53.5 -142.5q0 -61 36 -98t96 -37q76 0 129.5 59t53.5 144q0 62 -36 98t-97 36zM234 622h274l-10 -64h-274z" />
    <glyph glyph-name="Abreve" unicode="&#x102;" horiz-adv-x="620" 
d="M186 189l-102 -189h-77l362 667h94l151 -667h-78l-42 189h-308zM223 258h255l-75 337zM313 847l62 5q-2 -16 -2 -20q0 -24 16.5 -39.5t42.5 -15.5q61 0 84 75l60 -5q-17 -62 -58 -97t-96 -35q-48 0 -80 29.5t-32 73.5q0 11 3 29z" />
    <glyph glyph-name="abreve" unicode="&#x103;" 
d="M486 0h-71l9 58q-76 -70 -167 -70q-83 0 -136.5 55t-53.5 140q0 109 80 190.5t187 81.5q88 0 142 -70l9 58h71zM321 390q-75 0 -128.5 -59.5t-53.5 -142.5q0 -61 36 -98t96 -37q76 0 129.5 59t53.5 144q0 62 -36 98t-97 36zM233 647l62 5q-2 -16 -2 -19q0 -25 16.5 -40.5
t42.5 -15.5q61 0 84 75l60 -5q-17 -62 -58 -97t-96 -35q-48 0 -80 30t-32 74q0 10 3 28z" />
    <glyph glyph-name="Aogonek" unicode="&#x104;" horiz-adv-x="620" 
d="M542 0h-6l-42 189h-308l-102 -189h-77l362 667h94l151 -667q-47 -46 -47 -72q0 -20 29 -20q17 0 37 7l12 -51q-35 -13 -65 -13q-36 0 -58 18t-22 48q0 39 42 83zM223 258h255l-75 337z" />
    <glyph glyph-name="aogonek" unicode="&#x105;" 
d="M415 0l9 58q-76 -70 -167 -70q-83 0 -136.5 55t-53.5 140q0 109 80 190.5t187 81.5q88 0 142 -70l9 58h71l-70 -443q-47 -46 -47 -72q0 -20 29 -20q17 0 38 7l12 -51q-36 -13 -66 -13q-36 0 -58 18t-22 48q0 40 43 83zM321 390q-75 0 -128.5 -59.5t-53.5 -142.5
q0 -61 36 -98t96 -37q76 0 129.5 59t53.5 144q0 62 -36 98t-97 36z" />
    <glyph glyph-name="Cacute" unicode="&#x106;" horiz-adv-x="662" 
d="M716 572l-59 -51q-37 47 -78 67.5t-97 20.5q-127 0 -221 -96.5t-94 -225.5q0 -100 64 -164.5t164 -64.5q56 0 103.5 20.5t102.5 69.5l43 -51q-67 -58 -127.5 -83.5t-131.5 -25.5q-128 0 -211 82.5t-83 209.5q0 157 122 278t281 121q70 0 121.5 -25t100.5 -82zM644 841
l-145 -126l-40 26l121 137z" />
    <glyph glyph-name="cacute" unicode="&#x107;" horiz-adv-x="457" 
d="M492 380l-55 -48q-41 58 -111 58q-79 0 -133 -58.5t-54 -143.5q0 -62 36.5 -98.5t98.5 -36.5q39 0 68 13.5t64 48.5l40 -48q-46 -43 -88 -61t-94 -18q-88 0 -142.5 54t-54.5 142q0 110 80.5 190.5t190.5 80.5q93 0 154 -75zM473 641l-145 -126l-41 26l122 138z" />
    <glyph glyph-name="Ccircumflex" unicode="&#x108;" horiz-adv-x="662" 
d="M716 572l-59 -51q-37 47 -78 67.5t-97 20.5q-127 0 -221 -96.5t-94 -225.5q0 -100 64 -164.5t164 -64.5q56 0 103.5 20.5t102.5 69.5l43 -51q-67 -58 -127.5 -83.5t-131.5 -25.5q-128 0 -211 82.5t-83 209.5q0 157 122 278t281 121q70 0 121.5 -25t100.5 -82zM496 802
l-105 -87l-48 26l135 126h57l95 -126l-55 -26z" />
    <glyph glyph-name="ccircumflex" unicode="&#x109;" horiz-adv-x="457" 
d="M492 380l-55 -48q-41 58 -111 58q-79 0 -133 -58.5t-54 -143.5q0 -62 36.5 -98.5t98.5 -36.5q39 0 68 13.5t64 48.5l40 -48q-46 -43 -88 -61t-94 -18q-88 0 -142.5 54t-54.5 142q0 110 80.5 190.5t190.5 80.5q93 0 154 -75zM344 602l-106 -87l-47 26l135 126h57l95 -126
l-56 -26z" />
    <glyph glyph-name="Cdotaccent" unicode="&#x10a;" horiz-adv-x="662" 
d="M716 572l-59 -51q-37 47 -78 67.5t-97 20.5q-127 0 -221 -96.5t-94 -225.5q0 -100 64 -164.5t164 -64.5q56 0 103.5 20.5t102.5 69.5l43 -51q-67 -58 -127.5 -83.5t-131.5 -25.5q-128 0 -211 82.5t-83 209.5q0 157 122 278t281 121q70 0 121.5 -25t100.5 -82zM511 841
q19 0 31 -12t12 -30q0 -23 -18 -40.5t-41 -17.5q-18 0 -30 12t-12 31q0 22 17.5 39.5t40.5 17.5z" />
    <glyph glyph-name="cdotaccent" unicode="&#x10b;" horiz-adv-x="457" 
d="M492 380l-55 -48q-41 58 -111 58q-79 0 -133 -58.5t-54 -143.5q0 -62 36.5 -98.5t98.5 -36.5q39 0 68 13.5t64 48.5l40 -48q-46 -43 -88 -61t-94 -18q-88 0 -142.5 54t-54.5 142q0 110 80.5 190.5t190.5 80.5q93 0 154 -75zM354 641q19 0 31 -12t12 -30q0 -23 -18 -40.5
t-41 -17.5q-19 0 -31 12t-12 31q0 22 18 39.5t41 17.5z" />
    <glyph glyph-name="Ccaron" unicode="&#x10c;" horiz-adv-x="662" 
d="M716 572l-59 -51q-37 47 -78 67.5t-97 20.5q-127 0 -221 -96.5t-94 -225.5q0 -100 64 -164.5t164 -64.5q56 0 103.5 20.5t102.5 69.5l43 -51q-67 -58 -127.5 -83.5t-131.5 -25.5q-128 0 -211 82.5t-83 209.5q0 157 122 278t281 121q70 0 121.5 -25t100.5 -82zM494 786
l106 87l47 -26l-135 -126h-57l-95 126l56 26z" />
    <glyph glyph-name="ccaron" unicode="&#x10d;" horiz-adv-x="457" 
d="M492 380l-55 -48q-41 58 -111 58q-79 0 -133 -58.5t-54 -143.5q0 -62 36.5 -98.5t98.5 -36.5q39 0 68 13.5t64 48.5l40 -48q-46 -43 -88 -61t-94 -18q-88 0 -142.5 54t-54.5 142q0 110 80.5 190.5t190.5 80.5q93 0 154 -75zM341 586l106 87l47 -26l-134 -126h-57l-95 126
l55 26z" />
    <glyph glyph-name="Dcaron" unicode="&#x10e;" horiz-adv-x="619" 
d="M186 667h136q148 0 230.5 -71t82.5 -198q0 -79 -29 -153t-82 -128q-115 -117 -307 -117h-137zM249 598l-83 -529h65q144 0 236 88.5t92 227.5q0 100 -65 156.5t-179 56.5h-66zM414 786l106 87l47 -26l-134 -126h-57l-95 126l55 26z" />
    <glyph glyph-name="dcaron" unicode="&#x10f;" horiz-adv-x="643" 
d="M486 0h-71l9 58q-76 -70 -167 -70q-83 0 -136.5 55t-53.5 140q0 109 80 190.5t187 81.5q88 0 142 -70l44 282h71zM321 390q-75 0 -128.5 -59.5t-53.5 -142.5q0 -61 36 -98t96 -37q75 0 128 59t53 144q0 62 -35 98t-96 36zM687 679l65 -21l-89 -153l-48 16z" />
    <glyph glyph-name="Dcroat" unicode="&#x110;" horiz-adv-x="634" 
d="M157 393l44 274h136q148 0 230.5 -71t82.5 -198q0 -79 -29 -153t-82 -128q-115 -117 -307 -117h-137l52 326h-67l11 67h66zM232 393h160l-11 -67h-160l-40 -257h65q144 0 236 88.5t92 227.5q0 100 -65 156.5t-179 56.5h-66z" />
    <glyph glyph-name="dcroat" unicode="&#x111;" 
d="M507 585l13 82h71l-12 -82h60l-11 -64h-60l-82 -521h-71l9 58q-75 -70 -167 -70q-83 0 -136.5 55t-53.5 140q0 109 80 190.5t187 81.5q88 0 142 -70l21 136h-120l10 64h120zM321 390q-75 0 -128.5 -59.5t-53.5 -142.5q0 -61 36 -98t96 -37q75 0 128 59t53 144
q0 62 -35 98t-96 36z" />
    <glyph glyph-name="Emacron" unicode="&#x112;" horiz-adv-x="475" 
d="M518 598h-269l-35 -225h238l-11 -69h-238l-37 -235h278l-11 -69h-353l106 667h343zM250 822h274l-10 -64h-274z" />
    <glyph glyph-name="emacron" unicode="&#x113;" horiz-adv-x="496" 
d="M138 191v-8q0 -58 34.5 -94t89.5 -36q90 0 149 78l59 -27q-87 -116 -217 -116q-83 0 -134.5 53.5t-51.5 140.5q0 109 77 191t180 82q78 0 127 -53.5t49 -138.5q0 -27 -8 -72h-354zM431 252v8q0 58 -32.5 94.5t-85.5 36.5q-56 0 -101.5 -38t-63.5 -101h283zM210 622h273
l-10 -64h-273z" />
    <glyph glyph-name="Ebreve" unicode="&#x114;" horiz-adv-x="475" 
d="M518 598h-269l-35 -225h238l-11 -69h-238l-37 -235h278l-11 -69h-353l106 667h343zM259 847l62 5q-1 -8 -1 -20q0 -24 16.5 -39.5t42.5 -15.5q60 0 83 75l60 -5q-16 -61 -57 -96.5t-96 -35.5q-48 0 -80 29.5t-32 73.5q0 5 2 29z" />
    <glyph glyph-name="ebreve" unicode="&#x115;" horiz-adv-x="496" 
d="M138 191v-8q0 -58 34.5 -94t89.5 -36q90 0 149 78l59 -27q-87 -116 -217 -116q-83 0 -134.5 53.5t-51.5 140.5q0 109 77 191t180 82q78 0 127 -53.5t49 -138.5q0 -27 -8 -72h-354zM431 252v8q0 58 -32.5 94.5t-85.5 36.5q-56 0 -101.5 -38t-63.5 -101h283zM222 647l62 5
q-1 -8 -1 -19q0 -25 16.5 -40.5t42.5 -15.5q62 0 83 75l61 -5q-16 -61 -57.5 -96.5t-96.5 -35.5q-48 0 -80 29.5t-32 73.5q0 5 2 29z" />
    <glyph glyph-name="Edotaccent" unicode="&#x116;" horiz-adv-x="475" 
d="M518 598h-269l-35 -225h238l-11 -69h-238l-37 -235h278l-11 -69h-353l106 667h343zM390 841q19 0 31 -12t12 -30q0 -23 -18 -40.5t-41 -17.5q-19 0 -31 12t-12 31q0 22 18 39.5t41 17.5z" />
    <glyph glyph-name="edotaccent" unicode="&#x117;" horiz-adv-x="496" 
d="M138 191v-8q0 -58 34.5 -94t89.5 -36q90 0 149 78l59 -27q-87 -116 -217 -116q-83 0 -134.5 53.5t-51.5 140.5q0 109 77 191t180 82q78 0 127 -53.5t49 -138.5q0 -27 -8 -72h-354zM431 252v8q0 58 -32.5 94.5t-85.5 36.5q-56 0 -101.5 -38t-63.5 -101h283zM349 641
q19 0 31 -12t12 -30q0 -23 -18 -40.5t-41 -17.5q-18 0 -30 12t-12 31q0 22 17.5 39.5t40.5 17.5z" />
    <glyph glyph-name="Eogonek" unicode="&#x118;" horiz-adv-x="475" 
d="M444 69l-11 -69q-47 -47 -47 -72q0 -20 29 -20q17 0 38 7l12 -51q-36 -13 -65 -13q-37 0 -59 18t-22 48q0 39 43 83h-282l106 667h343l-11 -69h-269l-35 -225h238l-11 -69h-238l-37 -235h278z" />
    <glyph glyph-name="eogonek" unicode="&#x119;" horiz-adv-x="496" 
d="M411 131l59 -27q-72 -100 -187 -114q-37 -37 -37 -63q0 -20 28 -20q14 0 38 7l12 -50q-38 -14 -65 -14q-36 0 -58 18t-22 48q0 38 35 76q-68 12 -107.5 63t-39.5 127q0 109 77 191t180 82q78 0 127 -53.5t49 -138.5q0 -27 -8 -72h-354v-8q0 -58 34.5 -94t89.5 -36
q90 0 149 78zM431 252v8q0 58 -32.5 94.5t-85.5 36.5q-56 0 -101.5 -38t-63.5 -101h283z" />
    <glyph glyph-name="Ecaron" unicode="&#x11a;" horiz-adv-x="475" 
d="M518 598h-269l-35 -225h238l-11 -69h-238l-37 -235h278l-11 -69h-353l106 667h343zM381 786l106 87l47 -26l-135 -126h-56l-96 126l56 26z" />
    <glyph glyph-name="ecaron" unicode="&#x11b;" horiz-adv-x="496" 
d="M138 191v-8q0 -58 34.5 -94t89.5 -36q90 0 149 78l59 -27q-87 -116 -217 -116q-83 0 -134.5 53.5t-51.5 140.5q0 109 77 191t180 82q78 0 127 -53.5t49 -138.5q0 -27 -8 -72h-354zM431 252v8q0 58 -32.5 94.5t-85.5 36.5q-56 0 -101.5 -38t-63.5 -101h283zM341 586
l106 87l47 -26l-135 -126h-57l-95 126l56 26z" />
    <glyph glyph-name="Gcircumflex" unicode="&#x11c;" horiz-adv-x="727" 
d="M464 344h274l-6 -37q-23 -144 -118 -231.5t-228 -87.5q-129 0 -212.5 82t-83.5 208q0 158 122 279.5t281 121.5q70 0 121.5 -25t100.5 -82l-59 -51q-38 47 -78 67.5t-97 20.5q-126 0 -220.5 -96.5t-94.5 -226.5q0 -99 64.5 -163.5t164.5 -64.5q97 0 167 59.5t88 157.5
h-197zM496 802l-106 -87l-47 26l135 126h56l95 -126l-55 -26z" />
    <glyph glyph-name="gcircumflex" unicode="&#x11d;" 
d="M556 443l-72 -451q-16 -107 -90 -172t-179 -65q-62 0 -105.5 23t-80.5 75l54 47q32 -45 62.5 -62.5t78.5 -17.5q76 0 126 46t63 126l11 66q-76 -70 -167 -70q-83 0 -136.5 55t-53.5 140q0 109 80 190.5t187 81.5q87 0 141 -70l10 58h71zM321 390q-75 0 -128.5 -59.5
t-53.5 -142.5q0 -61 36 -98t96 -37q76 0 129 59t53 144q0 62 -35.5 98t-96.5 36zM356 602l-106 -87l-47 26l135 126h56l95 -126l-55 -26z" />
    <glyph glyph-name="Gbreve" unicode="&#x11e;" horiz-adv-x="727" 
d="M464 344h274l-6 -37q-23 -144 -118 -231.5t-228 -87.5q-129 0 -212.5 82t-83.5 208q0 158 122 279.5t281 121.5q70 0 121.5 -25t100.5 -82l-59 -51q-38 47 -78 67.5t-97 20.5q-126 0 -220.5 -96.5t-94.5 -226.5q0 -99 64.5 -163.5t164.5 -64.5q97 0 167 59.5t88 157.5
h-197zM389 847l62 5q-1 -8 -1 -20q0 -24 16.5 -39.5t42.5 -15.5q62 0 83 75l61 -5q-16 -61 -57.5 -96.5t-96.5 -35.5q-48 0 -80 29.5t-32 73.5q0 5 2 29z" />
    <glyph glyph-name="gbreve" unicode="&#x11f;" 
d="M556 443l-72 -451q-16 -107 -90 -172t-179 -65q-62 0 -105.5 23t-80.5 75l54 47q32 -45 62.5 -62.5t78.5 -17.5q76 0 126 46t63 126l11 66q-76 -70 -167 -70q-83 0 -136.5 55t-53.5 140q0 109 80 190.5t187 81.5q87 0 141 -70l10 58h71zM321 390q-75 0 -128.5 -59.5
t-53.5 -142.5q0 -61 36 -98t96 -37q76 0 129 59t53 144q0 62 -35.5 98t-96.5 36zM233 647l61 5l-1 -19q0 -25 16.5 -40.5t42.5 -15.5q61 0 84 75l60 -5q-16 -61 -57.5 -96.5t-96.5 -35.5q-48 0 -80 29.5t-32 73.5q0 11 3 29z" />
    <glyph glyph-name="Gdotaccent" unicode="&#x120;" horiz-adv-x="727" 
d="M464 344h274l-6 -37q-23 -144 -118 -231.5t-228 -87.5q-129 0 -212.5 82t-83.5 208q0 158 122 279.5t281 121.5q70 0 121.5 -25t100.5 -82l-59 -51q-38 47 -78 67.5t-97 20.5q-126 0 -220.5 -96.5t-94.5 -226.5q0 -99 64.5 -163.5t164.5 -64.5q97 0 167 59.5t88 157.5
h-197zM519 841q19 0 31 -12t12 -30q0 -23 -18 -40.5t-41 -17.5q-18 0 -30 12t-12 31q0 22 17.5 39.5t40.5 17.5z" />
    <glyph glyph-name="gdotaccent" unicode="&#x121;" 
d="M556 443l-72 -451q-16 -107 -90 -172t-179 -65q-62 0 -105.5 23t-80.5 75l54 47q32 -45 62.5 -62.5t78.5 -17.5q76 0 126 46t63 126l11 66q-76 -70 -167 -70q-83 0 -136.5 55t-53.5 140q0 109 80 190.5t187 81.5q87 0 141 -70l10 58h71zM321 390q-75 0 -128.5 -59.5
t-53.5 -142.5q0 -61 36 -98t96 -37q76 0 129 59t53 144q0 62 -35.5 98t-96.5 36zM362 641q19 0 31 -12t12 -30q0 -23 -18 -40.5t-41 -17.5q-18 0 -30 12t-12 31q0 22 17.5 39.5t40.5 17.5z" />
    <glyph glyph-name="Gcommaaccent" unicode="&#x122;" horiz-adv-x="727" 
d="M464 344h274l-6 -37q-23 -144 -118 -231.5t-228 -87.5q-129 0 -212.5 82t-83.5 208q0 158 122 279.5t281 121.5q70 0 121.5 -25t100.5 -82l-59 -51q-38 47 -78 67.5t-97 20.5q-126 0 -220.5 -96.5t-94.5 -226.5q0 -99 64.5 -163.5t164.5 -64.5q97 0 167 59.5t88 157.5
h-197zM344 -47l65 -21l-89 -152l-48 16z" />
    <glyph glyph-name="gcommaaccent" unicode="&#x123;" 
d="M556 443l-72 -451q-16 -107 -90 -172t-179 -65q-62 0 -105.5 23t-80.5 75l54 47q32 -45 62.5 -62.5t78.5 -17.5q76 0 126 46t63 126l11 66q-76 -70 -167 -70q-83 0 -136.5 55t-53.5 140q0 109 80 190.5t187 81.5q87 0 141 -70l10 58h71zM321 390q-75 0 -128.5 -59.5
t-53.5 -142.5q0 -61 36 -98t96 -37q76 0 129 59t53 144q0 62 -35.5 98t-96.5 36zM378 505l-66 21l90 153l47 -16z" />
    <glyph glyph-name="Hcircumflex" unicode="&#x124;" horiz-adv-x="650" 
d="M214 373h340l47 294h75l-106 -667h-75l48 304h-340l-48 -304h-75l106 667h74zM452 802l-106 -87l-47 26l135 126h57l95 -126l-56 -26z" />
    <glyph glyph-name="hcircumflex" unicode="&#x125;" horiz-adv-x="509" 
d="M240 667l-43 -273q59 61 143 61q68 0 109 -40t41 -105q0 -32 -6 -70l-38 -240h-71l37 232q5 33 5 59q0 46 -24.5 71t-70.5 25q-65 0 -105 -42q-33 -33 -48 -123l-35 -222h-71l106 667h71zM385 802l-106 -87l-47 26l135 126h57l95 -126l-56 -26z" />
    <glyph glyph-name="Hbar" unicode="&#x126;" horiz-adv-x="653" 
d="M654 521l-82 -521h-75l48 304h-340l-48 -304h-75l82 521h-60l11 64h60l13 82h74l-13 -82h341l13 82h75l-13 -82h60l-11 -64h-60zM580 521h-341l-23 -148h340z" />
    <glyph glyph-name="hbar" unicode="&#x127;" horiz-adv-x="510" 
d="M217 521l-20 -127q59 61 143 61q68 0 109 -40t41 -105q0 -32 -6 -70l-38 -240h-71l37 232q5 33 5 59q0 46 -24.5 71t-70.5 25q-65 0 -105 -42q-33 -33 -48 -123l-35 -222h-71l82 521h-60l11 64h60l13 82h71l-13 -82h120l-10 -64h-120z" />
    <glyph glyph-name="Itilde" unicode="&#x128;" horiz-adv-x="235" 
d="M260 667l-105 -667h-75l106 667h74zM329 841l56 -14q-21 -85 -93 -85q-25 0 -64 19q-30 15 -41 15q-12 0 -18.5 -7.5t-13.5 -27.5l-54 13q10 40 35 62.5t58 22.5q23 0 66 -21q25 -13 40 -13q12 0 18.5 7.5t10.5 28.5z" />
    <glyph glyph-name="itilde" unicode="&#x129;" horiz-adv-x="199" 
d="M205 443l-70 -443h-71l70 443h71zM280 641l55 -14q-20 -85 -92 -85q-26 0 -65 19q-29 15 -41 15t-18.5 -7.5t-13.5 -27.5l-54 13q11 40 35.5 62.5t57.5 22.5q23 0 66 -21q26 -13 40 -13q13 0 19 7.5t11 28.5z" />
    <glyph glyph-name="Imacron" unicode="&#x12a;" horiz-adv-x="235" 
d="M260 667l-105 -667h-75l106 667h74zM111 822h273l-10 -64h-273z" />
    <glyph glyph-name="imacron" unicode="&#x12b;" horiz-adv-x="199" 
d="M206 443l-70 -443h-72l71 443h71zM62 622h273l-10 -64h-273z" />
    <glyph glyph-name="Ibreve" unicode="&#x12c;" horiz-adv-x="235" 
d="M260 667l-105 -667h-75l106 667h74zM120 847l62 5q-2 -16 -2 -20q0 -24 16.5 -39.5t42.5 -15.5q61 0 84 75l60 -5q-17 -62 -58 -97t-96 -35q-48 0 -80 29.5t-32 73.5q0 11 3 29z" />
    <glyph glyph-name="ibreve" unicode="&#x12d;" horiz-adv-x="199" 
d="M206 443l-71 -443h-71l70 443h72zM70 647l62 5q-1 -8 -1 -19q0 -25 16.5 -40.5t42.5 -15.5q61 0 84 75l60 -5q-16 -61 -57.5 -96.5t-96.5 -35.5q-48 0 -80 29.5t-32 73.5q0 5 2 29z" />
    <glyph glyph-name="Iogonek" unicode="&#x12e;" horiz-adv-x="235" 
d="M84 0h-4l106 667h75l-106 -667q-47 -44 -47 -72q0 -20 29 -20q13 0 38 7l12 -51q-36 -13 -65 -13q-37 0 -59 18t-22 48q0 40 43 83z" />
    <glyph glyph-name="iogonek" unicode="&#x12f;" horiz-adv-x="199" 
d="M205 443l-70 -443q-47 -47 -47 -73q0 -20 29 -20q14 0 38 7l12 -50q-39 -14 -65 -14q-37 0 -59 18t-22 48q0 40 43 84l70 443h71zM201 642q19 0 31.5 -12t12.5 -31q0 -23 -18 -41t-42 -18q-19 0 -31.5 12t-12.5 32q0 22 18.5 40t41.5 18z" />
    <glyph glyph-name="Idotaccent" unicode="&#x130;" horiz-adv-x="235" 
d="M260 667l-105 -667h-75l106 667h74zM250 841q19 0 31 -12t12 -30q0 -23 -18 -40.5t-41 -17.5q-18 0 -30 12t-12 31q0 22 17.5 39.5t40.5 17.5z" />
    <glyph glyph-name="dotlessi" unicode="&#x131;" horiz-adv-x="199" 
d="M206 443l-71 -443h-71l70 443h72z" />
    <glyph glyph-name="IJ" unicode="&#x132;" horiz-adv-x="625" 
d="M260 667l-105 -667h-75l106 667h74zM650 667l-74 -467q-10 -64 -26.5 -101.5t-48.5 -64.5q-54 -46 -124 -46q-40 0 -72.5 16.5t-68.5 54.5l54 54q47 -55 97 -55q92 0 115 142l74 467h74z" />
    <glyph glyph-name="ij" unicode="&#x133;" horiz-adv-x="394" 
d="M206 443l-71 -443h-71l70 443h72zM202 642q19 0 31 -12t12 -31q0 -23 -18 -41t-42 -18q-19 0 -31 12.5t-12 31.5q0 23 18 40.5t42 17.5zM396 642q19 0 31.5 -12t12.5 -31q0 -23 -18 -41t-42 -18q-20 0 -32 12t-12 32q0 22 18.5 40t41.5 18zM329 443h71l-86 -543
q-23 -140 -129 -140q-18 0 -43 7l10 64q19 -5 30 -5q49 0 61 74z" />
    <glyph glyph-name="Jcircumflex" unicode="&#x134;" horiz-adv-x="402" 
d="M428 667l-74 -467q-11 -65 -28 -102t-48 -64q-54 -46 -124 -46q-40 0 -72.5 16.5t-68.5 54.5l54 54q47 -55 97 -55q48 0 75.5 34.5t39.5 107.5l74 467h75zM374 802l-105 -87l-48 26l135 126h57l95 -126l-55 -26z" />
    <glyph glyph-name="jcircumflex" unicode="&#x135;" horiz-adv-x="209" 
d="M143 443h71l-86 -543q-21 -140 -129 -140q-18 0 -43 7l10 64q19 -5 30 -5q49 0 61 74zM190 602l-106 -87l-47 26l135 126h56l95 -126l-55 -26z" />
    <glyph glyph-name="Kcommaaccent" unicode="&#x136;" horiz-adv-x="567" 
d="M280 -47l65 -21l-89 -152l-48 16zM364 391l197 -391h-87l-168 336l-115 -108l-36 -228h-75l106 667h74l-54 -341l364 341h90z" />
    <glyph glyph-name="kcommaaccent" unicode="&#x137;" horiz-adv-x="465" 
d="M300 264l163 -264h-88l-130 216l-88 -76l-23 -140h-71l106 667h71l-69 -438l248 215l91 -1zM211 -47l66 -21l-90 -152l-47 16z" />
    <glyph glyph-name="kgreenlandic" unicode="&#x138;" horiz-adv-x="465" 
d="M300 263l163 -263h-88l-130 215l-88 -75l-23 -140h-71l70 443h72l-34 -214l248 214h91z" />
    <glyph glyph-name="Lacute" unicode="&#x139;" horiz-adv-x="420" 
d="M260 667l-94 -598h258l-11 -69h-333l106 667h74zM378 841l-145 -126l-41 26l122 137z" />
    <glyph glyph-name="lacute" unicode="&#x13a;" horiz-adv-x="199" 
d="M135 0h-71l106 667h71zM366 852l-145 -125l-41 25l122 138z" />
    <glyph glyph-name="Lcommaaccent" unicode="&#x13b;" horiz-adv-x="426" 
d="M260 667l-94 -598h258l-11 -69h-333l106 667h74zM228 -47l66 -21l-90 -152l-47 16z" />
    <glyph glyph-name="lcommaaccent" unicode="&#x13c;" horiz-adv-x="199" 
d="M135 0h-71l105 667h72zM64 -47l65 -21l-90 -152l-47 16z" />
    <glyph glyph-name="Lcaron" unicode="&#x13d;" horiz-adv-x="426" 
d="M260 667l-94 -598h258l-11 -69h-333l106 667h74zM409 679l65 -21l-89 -153l-48 16z" />
    <glyph glyph-name="lcaron" unicode="&#x13e;" horiz-adv-x="292" 
d="M135 0h-71l106 667h71zM336 679l66 -21l-90 -153l-48 16z" />
    <glyph glyph-name="Ldot" unicode="&#x13f;" horiz-adv-x="426" 
d="M380 383q18 0 30 -12t12 -30q0 -23 -17.5 -40t-40.5 -17q-19 0 -30.5 12t-11.5 31q0 22 17.5 39t40.5 17zM260 667l-94 -598h258l-11 -69h-333l106 667h74z" />
    <glyph glyph-name="ldot" unicode="&#x140;" horiz-adv-x="338" 
d="M135 0h-71l106 667h71zM329 383q18 0 30 -12t12 -30q0 -23 -17.5 -40t-39.5 -17q-19 0 -30.5 12t-11.5 31q0 22 17.5 39t39.5 17z" />
    <glyph glyph-name="Lslash" unicode="&#x141;" horiz-adv-x="441" 
d="M152 361l48 306h75l-43 -273l127 80l-12 -76l-127 -80l-39 -249h258l-11 -69h-333l45 285l-74 -46l12 75z" />
    <glyph glyph-name="lslash" unicode="&#x142;" horiz-adv-x="250" 
d="M135 287l-71 -44l12 78l72 44l47 302h72l-41 -255l72 43l-13 -78l-71 -43l-53 -334h-71z" />
    <glyph glyph-name="Nacute" unicode="&#x143;" horiz-adv-x="710" 
d="M80 0l106 667h70l319 -545l86 545h75l-106 -667h-70l-319 545l-86 -545h-75zM623 841l-145 -126l-41 26l122 137z" />
    <glyph glyph-name="nacute" unicode="&#x144;" horiz-adv-x="509" 
d="M205 443l-8 -50q59 62 143 62q68 0 109 -40t41 -105q0 -34 -6 -70l-38 -240h-71l37 231q5 35 5 60q0 46 -24.5 71t-70.5 25q-65 0 -105 -42q-33 -33 -48 -123l-35 -222h-71l70 443h72zM493 641l-145 -126l-41 26l122 138z" />
    <glyph glyph-name="Ncommaaccent" unicode="&#x145;" horiz-adv-x="710" 
d="M80 0l106 667h70l319 -545l86 545h75l-106 -667h-70l-319 545l-86 -545h-75zM336 -47l66 -21l-90 -152l-47 16z" />
    <glyph glyph-name="ncommaaccent" unicode="&#x146;" horiz-adv-x="509" 
d="M205 443l-8 -50q59 62 143 62q68 0 109 -40t41 -105q0 -34 -6 -70l-38 -240h-71l37 231q5 35 5 60q0 46 -24.5 71t-70.5 25q-65 0 -105 -42q-33 -33 -48 -123l-35 -222h-71l70 443h72zM236 -47l66 -21l-90 -152l-47 16z" />
    <glyph glyph-name="Ncaron" unicode="&#x147;" horiz-adv-x="710" 
d="M80 0l106 667h70l319 -545l86 545h75l-106 -667h-70l-319 545l-86 -545h-75zM496 786l106 87l47 -26l-135 -126h-56l-96 126l56 26z" />
    <glyph glyph-name="ncaron" unicode="&#x148;" horiz-adv-x="509" 
d="M205 443l-8 -50q59 62 143 62q68 0 109 -40t41 -105q0 -34 -6 -70l-38 -240h-71l37 231q5 35 5 60q0 46 -24.5 71t-70.5 25q-65 0 -105 -42q-33 -33 -48 -123l-35 -222h-71l70 443h72zM352 586l106 87l47 -26l-135 -126h-56l-95 126l55 26z" />
    <glyph glyph-name="napostrophe" unicode="&#x149;" horiz-adv-x="590" 
d="M284 443l-7 -50q60 62 143 62q68 0 109 -40t41 -105q0 -34 -6 -70l-38 -240h-71l37 231q5 35 5 60q0 46 -24.5 71t-70.5 25q-66 0 -105 -42q-33 -33 -48 -123l-35 -222h-71l70 443h71zM186 656l62 -24l-136 -226l-45 19z" />
    <glyph glyph-name="Eng" unicode="&#x14a;" horiz-adv-x="710" 
d="M736 667l-107 -676q-23 -140 -130 -140q-16 0 -43 6l10 65q19 -5 30 -5q49 0 61 74l2 11l-318 543l-86 -545h-75l106 667h70l319 -545l86 545h75z" />
    <glyph glyph-name="eng" unicode="&#x14b;" horiz-adv-x="509" 
d="M272 -143l11 65q17 -5 29 -5q26 0 40.5 17.5t21.5 56.5l38 240q5 35 5 60q0 46 -24.5 71t-70.5 25q-65 0 -105 -42q-33 -33 -48 -123l-35 -222h-71l70 443h72l-8 -50q59 62 143 62q68 0 109 -40t41 -105q0 -34 -6 -70l-39 -249q-23 -140 -130 -140q-16 0 -43 6z" />
    <glyph glyph-name="Omacron" unicode="&#x14c;" horiz-adv-x="764" 
d="M493 679q122 0 204.5 -84t82.5 -208q0 -103 -56.5 -195.5t-150.5 -148t-199 -55.5q-67 0 -128 31t-101 85q-54 75 -54 178q0 156 122 276.5t280 120.5zM480 609q-124 0 -219 -97t-95 -225q0 -96 64 -162.5t158 -66.5q125 0 220.5 96.5t95.5 223.5q0 100 -63.5 165.5
t-160.5 65.5zM376 822h273l-10 -64h-273z" />
    <glyph glyph-name="omacron" unicode="&#x14d;" horiz-adv-x="526" 
d="M338 455q84 0 138 -55t54 -140q0 -109 -80.5 -190.5t-188.5 -81.5q-86 0 -140 54.5t-54 141.5q0 110 80.5 190.5t190.5 80.5zM322 390q-76 0 -129.5 -59.5t-53.5 -142.5q0 -62 36 -98.5t97 -36.5q77 0 131.5 59t54.5 143q0 62 -36.5 98.5t-99.5 36.5zM225 622h273
l-10 -64h-273z" />
    <glyph glyph-name="Obreve" unicode="&#x14e;" horiz-adv-x="764" 
d="M493 679q122 0 204.5 -84t82.5 -208q0 -103 -56.5 -195.5t-150.5 -148t-199 -55.5q-67 0 -128 31t-101 85q-54 75 -54 178q0 156 122 276.5t280 120.5zM480 609q-124 0 -219 -97t-95 -225q0 -96 64 -162.5t158 -66.5q125 0 220.5 96.5t95.5 223.5q0 100 -63.5 165.5
t-160.5 65.5zM385 847l61 5l-1 -20q0 -24 16.5 -39.5t42.5 -15.5q61 0 84 75l60 -5q-16 -61 -57.5 -96.5t-96.5 -35.5q-48 0 -80 29.5t-32 73.5q0 11 3 29z" />
    <glyph glyph-name="obreve" unicode="&#x14f;" horiz-adv-x="526" 
d="M338 455q84 0 138 -55t54 -140q0 -109 -80.5 -190.5t-188.5 -81.5q-86 0 -140 54.5t-54 141.5q0 110 80.5 190.5t190.5 80.5zM322 390q-76 0 -129.5 -59.5t-53.5 -142.5q0 -62 36 -98.5t97 -36.5q77 0 131.5 59t54.5 143q0 62 -36.5 98.5t-99.5 36.5zM234 647l62 5
q-1 -7 -1 -19q0 -25 16.5 -40.5t42.5 -15.5q60 0 83 75l60 -5q-16 -61 -57 -96.5t-96 -35.5q-48 0 -80 29.5t-32 73.5q0 7 2 29z" />
    <glyph glyph-name="Ohungarumlaut" unicode="&#x150;" horiz-adv-x="764" 
d="M493 679q122 0 204.5 -84t82.5 -208q0 -103 -56.5 -195.5t-150.5 -148t-199 -55.5q-67 0 -128 31t-101 85q-54 75 -54 178q0 156 122 276.5t280 120.5zM480 609q-124 0 -219 -97t-95 -225q0 -96 64 -162.5t158 -66.5q125 0 220.5 96.5t95.5 223.5q0 100 -63.5 165.5
t-160.5 65.5zM572 841l-145 -126l-37 26l121 137zM712 841l-145 -126l-37 26l121 137z" />
    <glyph glyph-name="ohungarumlaut" unicode="&#x151;" horiz-adv-x="526" 
d="M338 455q84 0 138 -55t54 -140q0 -109 -80.5 -190.5t-188.5 -81.5q-86 0 -140 54.5t-54 141.5q0 110 80.5 190.5t190.5 80.5zM322 390q-76 0 -129.5 -59.5t-53.5 -142.5q0 -62 36 -98.5t97 -36.5q77 0 131.5 59t54.5 143q0 62 -36.5 98.5t-99.5 36.5zM431 641l-145 -126
l-37 26l122 138zM571 641l-145 -126l-37 26l122 138z" />
    <glyph glyph-name="OE" unicode="&#x152;" horiz-adv-x="1042" 
d="M734 548l18 119h344l-11 -69h-269l-35 -225h238l-11 -69h-238l-37 -235h278l-11 -69h-353l19 118q-124 -130 -291 -130q-120 0 -202.5 84t-82.5 208q0 102 56.5 194.5t150 148.5t196.5 56q74 0 138 -34.5t103 -96.5zM479 609q-124 0 -218.5 -97t-94.5 -224
q0 -97 64 -163.5t157 -66.5q125 0 220.5 97t95.5 224q0 99 -63.5 164.5t-160.5 65.5z" />
    <glyph glyph-name="oe" unicode="&#x153;" horiz-adv-x="881" 
d="M795 131l60 -27q-87 -116 -217 -116q-120 0 -169 105q-38 -49 -93.5 -77t-114.5 -28q-85 0 -139.5 54.5t-54.5 140.5q0 109 80.5 190.5t188.5 81.5q58 0 104.5 -27.5t69.5 -76.5q86 104 197 104q79 0 128.5 -53t49.5 -139q0 -28 -8 -72h-354v-8q0 -58 34.5 -94t89.5 -36
q91 0 148 78zM322 390q-76 0 -129.5 -59.5t-53.5 -142.5q0 -62 36 -98.5t97 -36.5q77 0 131 59t54 143q0 62 -36.5 98.5t-98.5 36.5zM816 252v8q0 58 -32.5 94.5t-85.5 36.5q-56 0 -101.5 -38t-63.5 -101h283z" />
    <glyph glyph-name="Racute" unicode="&#x154;" horiz-adv-x="533" 
d="M510 841l-145 -126l-41 26l122 137zM394 289l114 -289h-83l-106 273q-41 -3 -60 -3h-62l-42 -270h-75l106 667h136q66 0 106 -11.5t67 -39.5q45 -45 45 -118q0 -69 -39.5 -125.5t-106.5 -83.5zM208 338h71q108 0 154 57q33 41 33 94q0 109 -146 109h-71z" />
    <glyph glyph-name="racute" unicode="&#x155;" horiz-adv-x="293" 
d="M205 443l-8 -50q49 50 127 50q10 0 19 -1l-10 -64q-10 1 -19 1q-46 0 -78 -22q-29 -20 -43.5 -51t-24.5 -92l-34 -214h-71l70 443h72zM368 641l-145 -126l-41 26l122 138z" />
    <glyph glyph-name="Rcommaaccent" unicode="&#x156;" horiz-adv-x="533" 
d="M256 -47l66 -21l-90 -152l-47 16zM394 289l114 -289h-83l-106 273q-41 -3 -60 -3h-62l-42 -270h-75l106 667h136q66 0 106 -11.5t67 -39.5q45 -45 45 -118q0 -69 -39.5 -125.5t-106.5 -83.5zM208 338h71q108 0 154 57q33 41 33 94q0 109 -146 109h-71z" />
    <glyph glyph-name="rcommaaccent" unicode="&#x157;" horiz-adv-x="293" 
d="M204 443l-8 -50q50 50 128 50q10 0 19 -1l-10 -64q-10 1 -19 1q-47 0 -79 -22q-28 -20 -42.5 -51t-24.5 -92l-34 -214h-71l70 443h71zM63 -47l65 -21l-90 -152l-47 16z" />
    <glyph glyph-name="Rcaron" unicode="&#x158;" horiz-adv-x="533" 
d="M381 786l106 87l47 -26l-135 -126h-56l-96 126l56 26zM394 289l114 -289h-83l-106 273q-41 -3 -60 -3h-62l-42 -270h-75l106 667h136q66 0 106 -11.5t67 -39.5q45 -45 45 -118q0 -69 -39.5 -125.5t-106.5 -83.5zM208 338h71q108 0 154 57q33 41 33 94q0 109 -146 109h-71
z" />
    <glyph glyph-name="rcaron" unicode="&#x159;" horiz-adv-x="293" 
d="M205 443l-8 -50q49 50 127 50q10 0 19 -1l-10 -64q-10 1 -19 1q-46 0 -78 -22q-29 -20 -43.5 -51t-24.5 -92l-34 -214h-71l70 443h72zM261 586l105 87l48 -26l-135 -126h-57l-95 126l55 26z" />
    <glyph glyph-name="Sacute" unicode="&#x15a;" horiz-adv-x="505" 
d="M531 574l-65 -39q-37 75 -109 75q-57 0 -99 -38t-42 -88q0 -57 82 -92l62 -25q129 -54 129 -149q0 -92 -74 -161t-172 -69q-79 0 -125.5 45t-52.5 127l75 20q12 -122 117 -122q61 0 108.5 45t47.5 104q0 32 -23 55t-75 45l-59 25q-114 47 -114 139q0 86 67 147t161 61
q112 0 161 -105zM520 841l-145 -126l-41 26l122 137z" />
    <glyph glyph-name="sacute" unicode="&#x15b;" horiz-adv-x="371" 
d="M383 375l-62 -30q-22 47 -69 47q-35 0 -59.5 -21t-24.5 -51q0 -20 12 -31t54 -28l41 -17q44 -19 64 -41.5t20 -54.5q0 -64 -53 -112t-124 -48q-110 0 -136 113l66 26q14 -42 32 -58.5t51 -16.5q37 0 64.5 24.5t27.5 58.5q0 21 -13 32.5t-55 28.5l-45 19q-74 31 -74 93
q0 60 48.5 103.5t115.5 43.5q86 0 119 -80zM411 641l-145 -126l-41 26l122 138z" />
    <glyph glyph-name="Scircumflex" unicode="&#x15c;" horiz-adv-x="505" 
d="M531 574l-65 -39q-37 75 -109 75q-57 0 -99 -38t-42 -88q0 -57 82 -92l62 -25q129 -54 129 -149q0 -92 -74 -161t-172 -69q-79 0 -125.5 45t-52.5 127l75 20q12 -122 117 -122q61 0 108.5 45t47.5 104q0 32 -23 55t-75 45l-59 25q-114 47 -114 139q0 86 67 147t161 61
q112 0 161 -105zM375 802l-105 -87l-48 26l135 126h57l95 -126l-55 -26z" />
    <glyph glyph-name="scircumflex" unicode="&#x15d;" horiz-adv-x="371" 
d="M383 375l-62 -30q-22 47 -69 47q-35 0 -59.5 -21t-24.5 -51q0 -20 12 -31t54 -28l41 -17q44 -19 64 -41.5t20 -54.5q0 -64 -53 -112t-124 -48q-110 0 -136 113l66 26q14 -42 32 -58.5t51 -16.5q37 0 64.5 24.5t27.5 58.5q0 21 -13 32.5t-55 28.5l-45 19q-74 31 -74 93
q0 60 48.5 103.5t115.5 43.5q86 0 119 -80zM280 602l-106 -87l-47 26l135 126h56l95 -126l-55 -26z" />
    <glyph glyph-name="Scedilla" unicode="&#x15e;" horiz-adv-x="505" 
d="M531 574l-65 -39q-37 75 -109 75q-57 0 -99 -38t-42 -88q0 -57 82 -92l62 -25q129 -54 129 -149q0 -92 -74 -161t-172 -69q-79 0 -125.5 45t-52.5 127l75 20q12 -122 117 -122q61 0 108.5 45t47.5 104q0 32 -23 55t-75 45l-59 25q-114 47 -114 139q0 86 67 147t161 61
q112 0 161 -105zM311 -75l-121 -128l-45 24l105 132z" />
    <glyph glyph-name="scedilla" unicode="&#x15f;" horiz-adv-x="371" 
d="M383 375l-62 -30q-22 47 -69 47q-35 0 -59.5 -21t-24.5 -51q0 -20 12 -31t54 -28l41 -17q44 -19 64 -41.5t20 -54.5q0 -64 -53 -112t-124 -48q-110 0 -136 113l66 26q14 -42 32 -58.5t51 -16.5q37 0 64.5 24.5t27.5 58.5q0 21 -13 32.5t-55 28.5l-45 19q-74 31 -74 93
q0 60 48.5 103.5t115.5 43.5q86 0 119 -80zM239 -75l-121 -128l-45 24l105 132z" />
    <glyph glyph-name="Scaron" unicode="&#x160;" horiz-adv-x="505" 
d="M531 574l-65 -39q-37 75 -109 75q-57 0 -99 -38t-42 -88q0 -57 82 -92l62 -25q129 -54 129 -149q0 -92 -74 -161t-172 -69q-79 0 -125.5 45t-52.5 127l75 20q12 -122 117 -122q61 0 108.5 45t47.5 104q0 32 -23 55t-75 45l-59 25q-114 47 -114 139q0 86 67 147t161 61
q112 0 161 -105zM373 786l105 87l48 -26l-135 -126h-57l-95 126l55 26z" />
    <glyph glyph-name="scaron" unicode="&#x161;" horiz-adv-x="371" 
d="M383 375l-62 -30q-22 47 -69 47q-35 0 -59.5 -21t-24.5 -51q0 -20 12 -31t54 -28l41 -17q44 -19 64 -41.5t20 -54.5q0 -64 -53 -112t-124 -48q-110 0 -136 113l66 26q14 -42 32 -58.5t51 -16.5q37 0 64.5 24.5t27.5 58.5q0 21 -13 32.5t-55 28.5l-45 19q-74 31 -74 93
q0 60 48.5 103.5t115.5 43.5q86 0 119 -80zM277 586l106 87l47 -26l-135 -126h-56l-96 126l56 26z" />
    <glyph glyph-name="Tcommaaccent" unicode="&#x162;" horiz-adv-x="433" 
d="M348 598l-94 -598h-75l95 598h-173l11 69h420l-11 -69h-173zM182 -47l66 -21l-90 -152l-47 16z" />
    <glyph glyph-name="tcommaaccent" unicode="&#x163;" horiz-adv-x="246" 
d="M203 379l-39 -246q-2 -14 -2 -29q0 -45 40 -45q12 0 31 6l-10 -65q-29 -7 -45 -7q-89 0 -89 97q0 24 4 43l38 246h-50l11 64h50l16 105l76 28l-21 -133h73l-10 -64h-73zM104 -47l65 -21l-90 -152l-47 16z" />
    <glyph glyph-name="Tcaron" unicode="&#x164;" horiz-adv-x="433" 
d="M348 598l-94 -598h-75l95 598h-173l11 69h420l-11 -69h-173zM341 786l105 87l48 -26l-135 -126h-57l-95 126l55 26z" />
    <glyph glyph-name="tcaron" unicode="&#x165;" horiz-adv-x="300" 
d="M203 379l-39 -246q-2 -20 -2 -29q0 -45 40 -45q13 0 32 6l-11 -65q-29 -7 -45 -7q-89 0 -89 97q0 16 4 43l39 246h-50l10 64h50l17 105l76 28l-21 -133h73l-10 -64h-74zM344 679l66 -21l-90 -153l-48 16z" />
    <glyph glyph-name="Tbar" unicode="&#x166;" horiz-adv-x="433" 
d="M314 379l-60 -379h-75l60 379h-106l10 64h106l25 155h-173l11 69h420l-11 -69h-173l-24 -155h106l-10 -64h-106z" />
    <glyph glyph-name="tbar" unicode="&#x167;" horiz-adv-x="246" 
d="M114 266h-50l10 61h50l8 55h-50l10 61h50l17 105l75 28l-21 -133h74l-10 -61h-73l-9 -55h73l-9 -61h-74l-21 -133q-2 -18 -2 -29q0 -45 40 -45q13 0 31 6l-10 -65q-29 -7 -45 -7q-89 0 -89 97q0 20 4 43z" />
    <glyph glyph-name="Utilde" unicode="&#x168;" horiz-adv-x="635" 
d="M261 667l-66 -414q-7 -47 -7 -72q0 -55 38.5 -89t99.5 -34q44 0 86 19.5t67 51.5q16 20 25 46t17 78l66 414h74l-68 -434q-17 -98 -68 -154q-40 -43 -95.5 -67t-113.5 -24q-88 0 -146 51.5t-58 129.5q0 26 5 64l69 434h75zM530 841l55 -14q-21 -85 -92 -85q-25 0 -64 19
q-30 15 -41 15q-12 0 -19 -7.5t-13 -27.5l-55 13q24 85 93 85q24 0 66 -21q26 -13 41 -13q12 0 18.5 7.5t10.5 28.5z" />
    <glyph glyph-name="utilde" unicode="&#x169;" horiz-adv-x="509" 
d="M375 0l8 50q-59 -62 -144 -62q-67 0 -108.5 40t-41.5 105q0 34 6 70l38 240h71l-36 -231q-6 -32 -6 -60q0 -46 24.5 -71t70.5 -25q66 0 106 42q32 33 47 124l35 221h71l-70 -443h-71zM435 641l55 -14q-20 -85 -92 -85q-26 0 -65 19q-29 15 -41 15t-18.5 -7.5t-13.5 -27.5
l-54 13q11 40 35.5 62.5t57.5 22.5q23 0 66 -21q26 -13 40 -13q13 0 19 7.5t11 28.5z" />
    <glyph glyph-name="Umacron" unicode="&#x16a;" horiz-adv-x="635" 
d="M261 667l-66 -414q-7 -47 -7 -72q0 -55 38.5 -89t99.5 -34q44 0 86 19.5t67 51.5q16 20 25 46t17 78l66 414h74l-68 -434q-17 -98 -68 -154q-40 -43 -95.5 -67t-113.5 -24q-88 0 -146 51.5t-58 129.5q0 26 5 64l69 434h75zM312 822h273l-10 -64h-273z" />
    <glyph glyph-name="umacron" unicode="&#x16b;" horiz-adv-x="509" 
d="M375 0l8 50q-59 -62 -144 -62q-67 0 -108.5 40t-41.5 105q0 34 6 70l38 240h71l-36 -231q-6 -32 -6 -60q0 -46 24.5 -71t70.5 -25q66 0 106 42q32 33 47 124l35 221h71l-70 -443h-71zM216 622h274l-10 -64h-274z" />
    <glyph glyph-name="Ubreve" unicode="&#x16c;" horiz-adv-x="635" 
d="M261 667l-66 -414q-7 -47 -7 -72q0 -55 38.5 -89t99.5 -34q44 0 86 19.5t67 51.5q16 20 25 46t17 78l66 414h74l-68 -434q-17 -98 -68 -154q-40 -43 -95.5 -67t-113.5 -24q-88 0 -146 51.5t-58 129.5q0 26 5 64l69 434h75zM321 847l61 5q-1 -8 -1 -20q0 -24 16.5 -39.5
t42.5 -15.5q61 0 84 75l60 -5q-16 -61 -57.5 -96.5t-96.5 -35.5q-48 0 -80 29.5t-32 73.5q0 11 3 29z" />
    <glyph glyph-name="ubreve" unicode="&#x16d;" horiz-adv-x="509" 
d="M375 0l8 50q-59 -62 -144 -62q-67 0 -108.5 40t-41.5 105q0 34 6 70l38 240h71l-36 -231q-6 -32 -6 -60q0 -46 24.5 -71t70.5 -25q66 0 106 42q32 33 47 124l35 221h71l-70 -443h-71zM225 647l62 5q-1 -7 -1 -19q0 -25 16.5 -40.5t42.5 -15.5q60 0 83 75l60 -5
q-16 -61 -57 -96.5t-96 -35.5q-48 0 -80 29.5t-32 73.5q0 5 2 29z" />
    <glyph glyph-name="Uring" unicode="&#x16e;" horiz-adv-x="635" 
d="M261 667l-66 -414q-7 -47 -7 -72q0 -55 38.5 -89t99.5 -34q44 0 86 19.5t67 51.5q16 20 25 46t17 78l66 414h74l-68 -434q-17 -98 -68 -154q-40 -43 -95.5 -67t-113.5 -24q-88 0 -146 51.5t-58 129.5q0 26 5 64l69 434h75zM457 878q33 0 55 -21t22 -53q0 -40 -31.5 -70.5
t-72.5 -30.5q-34 0 -55.5 21t-21.5 54q0 39 31.5 69.5t72.5 30.5zM452 842q-24 0 -42.5 -18t-18.5 -41q0 -19 12.5 -31.5t31.5 -12.5q24 0 42.5 18t18.5 42q0 19 -12.5 31t-31.5 12z" />
    <glyph glyph-name="uring" unicode="&#x16f;" horiz-adv-x="509" 
d="M375 0l8 50q-59 -62 -144 -62q-67 0 -108.5 40t-41.5 105q0 34 6 70l38 240h71l-36 -231q-6 -32 -6 -60q0 -46 24.5 -71t70.5 -25q66 0 106 42q32 33 47 124l35 221h71l-70 -443h-71zM362 679q33 0 55 -21t22 -53q0 -41 -31.5 -71.5t-73.5 -30.5q-34 0 -55.5 21t-21.5 54
q0 40 32 70.5t73 30.5zM356 643q-24 0 -42.5 -18t-18.5 -42q0 -19 13 -31.5t32 -12.5q24 0 42.5 18.5t18.5 41.5q0 19 -12.5 31.5t-32.5 12.5z" />
    <glyph glyph-name="Uhungarumlaut" unicode="&#x170;" horiz-adv-x="635" 
d="M261 667l-66 -414q-7 -47 -7 -72q0 -55 38.5 -89t99.5 -34q44 0 86 19.5t67 51.5q16 20 25 46t17 78l66 414h74l-68 -434q-17 -98 -68 -154q-40 -43 -95.5 -67t-113.5 -24q-88 0 -146 51.5t-58 129.5q0 26 5 64l69 434h75zM498 841l-145 -126l-38 26l122 137zM638 841
l-145 -126l-38 26l122 137z" />
    <glyph glyph-name="uhungarumlaut" unicode="&#x171;" horiz-adv-x="509" 
d="M375 0l8 50q-59 -62 -144 -62q-67 0 -108.5 40t-41.5 105q0 34 6 70l38 240h71l-36 -231q-6 -32 -6 -60q0 -46 24.5 -71t70.5 -25q66 0 106 42q32 33 47 124l35 221h71l-70 -443h-71zM407 641l-145 -126l-37 26l122 138zM547 641l-145 -126l-37 26l122 138z" />
    <glyph glyph-name="Uogonek" unicode="&#x172;" horiz-adv-x="635" 
d="M661 667l-68 -433q-12 -98 -74 -161.5t-163 -81.5q-38 -38 -38 -63q0 -20 29 -20q13 0 38 7l12 -51q-36 -13 -65 -13q-37 0 -59 18t-22 48q0 35 33 73q-79 11 -125.5 59.5t-46.5 119.5q0 27 5 65l69 433h75l-66 -413q-7 -47 -7 -73q0 -54 38.5 -88.5t99.5 -34.5
q43 0 85.5 19.5t67.5 51.5q16 20 25 46t17 79l66 413h74z" />
    <glyph glyph-name="uogonek" unicode="&#x173;" horiz-adv-x="509" 
d="M516 443l-70 -443q-47 -46 -47 -72q0 -20 29 -20q17 0 38 7l12 -51q-36 -13 -65 -13q-37 0 -59 18t-22 48q0 40 43 83l8 50q-59 -62 -144 -62q-67 0 -108.5 40t-41.5 105q0 34 6 70l38 240h71l-36 -231q-6 -32 -6 -60q0 -46 24.5 -71t70.5 -25q66 0 106 42q32 33 47 124
l35 221h71z" />
    <glyph glyph-name="Wcircumflex" unicode="&#x174;" horiz-adv-x="880" 
d="M190 667l76 -559l246 559h67l69 -559l253 559h78l-309 -667h-39h-38l-68 540l-239 -540h-37h-39l-98 667h78zM567 802l-106 -87l-47 26l135 126h56l95 -126l-55 -26z" />
    <glyph glyph-name="wcircumflex" unicode="&#x175;" horiz-adv-x="668" 
d="M429 602l-105 -87l-48 26l135 126h57l95 -126l-55 -26zM147 443l68 -336l159 336h60l53 -336l175 336h76l-237 -443h-60l-54 333l-160 -333h-60l-96 443h76z" />
    <glyph glyph-name="Ycircumflex" unicode="&#x176;" horiz-adv-x="507" 
d="M260 278l-154 389h82l121 -318l223 318h81l-278 -389l-44 -278h-75zM381 802l-106 -87l-47 26l135 126h57l95 -126l-56 -26z" />
    <glyph glyph-name="ycircumflex" unicode="&#x177;" horiz-adv-x="441" 
d="M317 602l-106 -87l-47 26l135 126h57l95 -126l-56 -26zM184 19l-113 424h77l87 -337l200 337h76l-404 -677h-73z" />
    <glyph glyph-name="Ydieresis" unicode="&#x178;" horiz-adv-x="507" 
d="M260 278l-154 389h82l121 -318l223 318h81l-278 -389l-44 -278h-75zM479 841q18 0 30 -12t12 -30q0 -23 -17.5 -40.5t-40.5 -17.5q-19 0 -31 12t-12 31q0 22 18 39.5t41 17.5zM295 841q19 0 31 -12t12 -30q0 -23 -18 -40.5t-41 -17.5q-18 0 -30 12t-12 31q0 22 17.5 39.5
t40.5 17.5z" />
    <glyph glyph-name="Zacute" unicode="&#x179;" horiz-adv-x="509" 
d="M122 69h373l-11 -69h-461l10 66l455 532h-340l11 69h423l-11 -66zM505 841l-145 -126l-41 26l122 137z" />
    <glyph glyph-name="zacute" unicode="&#x17a;" horiz-adv-x="419" 
d="M435 641l-145 -126l-41 26l122 138zM128 64h285l-11 -64h-373l9 58l326 321h-260l10 64h349l-10 -59z" />
    <glyph glyph-name="Zdotaccent" unicode="&#x17b;" horiz-adv-x="509" 
d="M122 69h373l-11 -69h-461l10 66l455 532h-340l11 69h423l-11 -66zM403 841q19 0 31 -12t12 -30q0 -23 -18 -40.5t-41 -17.5q-18 0 -30 12t-12 31q0 22 17.5 39.5t40.5 17.5z" />
    <glyph glyph-name="zdotaccent" unicode="&#x17c;" horiz-adv-x="419" 
d="M317 641q19 0 31 -12t12 -30q0 -23 -18 -40.5t-41 -17.5q-18 0 -30 12t-12 31q0 22 17.5 39.5t40.5 17.5zM128 64h285l-11 -64h-373l9 58l326 321h-260l10 64h349l-10 -59z" />
    <glyph glyph-name="Zcaron" unicode="&#x17d;" horiz-adv-x="509" 
d="M122 69h373l-11 -69h-461l10 66l455 532h-340l11 69h423l-11 -66zM394 786l106 87l47 -26l-134 -126h-57l-95 126l55 26z" />
    <glyph glyph-name="zcaron" unicode="&#x17e;" horiz-adv-x="419" 
d="M308 586l106 87l47 -26l-135 -126h-56l-95 126l55 26zM128 64h285l-11 -64h-373l9 58l326 321h-260l10 64h349l-10 -59z" />
    <glyph glyph-name="longs" unicode="&#x17f;" horiz-adv-x="228" 
d="M148 0h-71l60 379h-45l10 64h45l14 90q23 141 130 141q16 0 43 -7l-10 -65q-19 5 -30 5q-49 0 -61 -74z" />
    <glyph glyph-name="florin" unicode="&#x192;" horiz-adv-x="464" 
d="M-22 -190l23 65q17 -6 29 -6q26 0 44 17.5t32 56.5l158 436h-45l23 64h45l12 34l21 56q50 141 158 141q16 0 41 -7l-23 -65q-18 5 -29 5q-49 0 -76 -74l-33 -90h82l-23 -64h-82l-157 -436q-51 -140 -158 -140q-17 0 -42 7z" />
    <glyph glyph-name="Ohorn" unicode="&#x1a0;" horiz-adv-x="764" 
d="M750 719l54 25q41 -34 41 -85q0 -84 -96 -138q30 -62 30 -134q0 -102 -56.5 -195t-150 -148.5t-197.5 -55.5q-120 0 -202.5 84t-82.5 207q0 157 122.5 278.5t280.5 121.5q67 0 126 -28.5t99 -79.5q63 28 63 83q0 35 -31 65zM480 609q-124 0 -219 -97t-95 -225
q0 -97 64 -163t157 -66q125 0 220.5 96.5t95.5 223.5q0 100 -63.5 165.5t-159.5 65.5z" />
    <glyph glyph-name="ohorn" unicode="&#x1a1;" horiz-adv-x="560" 
d="M516 495l54 25q41 -33 41 -84q0 -77 -85 -132q4 -19 4 -42q0 -110 -80.5 -192t-188.5 -82q-85 0 -139.5 55t-54.5 141q0 109 80.5 190t189.5 81q115 0 169 -96q41 27 41 72q0 34 -31 64zM322 390q-76 0 -129.5 -59.5t-53.5 -142.5q0 -62 36 -98.5t97 -36.5q77 0 131 59
t54 143q0 62 -36.5 98.5t-98.5 36.5z" />
    <glyph glyph-name="Uhorn" unicode="&#x1af;" horiz-adv-x="664" 
d="M661 667l-14 -92q53 28 53 79q0 35 -30 65l54 25q40 -34 40 -85q0 -48 -34 -88.5t-94 -63.5l-43 -274q-15 -97 -68 -154q-40 -42 -95.5 -66.5t-113.5 -24.5q-88 0 -146 51.5t-58 129.5q0 26 5 64l69 434h75l-66 -414q-7 -47 -7 -72q0 -54 38.5 -88.5t99.5 -34.5
q44 0 86 19.5t67 51.5q16 20 25 46t17 78l66 414h74z" />
    <glyph glyph-name="uhorn" unicode="&#x1b0;" horiz-adv-x="569" 
d="M516 443l-14 -92q53 29 53 79q0 34 -31 65l54 25q41 -34 41 -85q0 -48 -34 -88.5t-94 -63.5l-45 -283h-71l8 50q-59 -62 -144 -62q-67 0 -108.5 40t-41.5 105q0 34 6 70l38 240h71l-36 -231q-6 -32 -6 -60q0 -46 24.5 -71t70.5 -25q66 0 106 42q32 33 47 124l35 221h71z
" />
    <glyph glyph-name="uni01C4" unicode="&#x1c4;" horiz-adv-x="1111" 
d="M186 667h136q148 0 230.5 -71t82.5 -198q0 -79 -29 -153t-82 -128q-115 -117 -307 -117h-137zM249 598l-83 -529h65q144 0 236 88.5t92 227.5q0 100 -65 156.5t-179 56.5h-66zM725 69h372l-11 -69h-461l11 66l455 532h-341l11 69h423l-10 -66zM997 786l105 87l48 -26
l-135 -126h-57l-95 126l55 26z" />
    <glyph glyph-name="uni01C5" unicode="&#x1c5;" horiz-adv-x="1021" 
d="M186 667h136q148 0 230.5 -71t82.5 -198q0 -79 -29 -153t-82 -128q-115 -117 -307 -117h-137zM249 598l-83 -529h65q144 0 236 88.5t92 227.5q0 100 -65 156.5t-179 56.5h-66zM910 586l106 87l47 -26l-135 -126h-57l-95 126l56 26zM730 64h284l-10 -64h-373l9 58l326 321
h-260l10 64h348l-9 -59z" />
    <glyph glyph-name="uni01C6" unicode="&#x1c6;" horiz-adv-x="967" 
d="M486 0h-71l9 58q-76 -70 -167 -70q-83 0 -136.5 55t-53.5 140q0 109 80 190.5t187 81.5q88 0 142 -70l44 282h71zM321 390q-75 0 -128.5 -59.5t-53.5 -142.5q0 -61 36 -98t96 -37q75 0 128 59t53 144q0 62 -35 98t-96 36zM677 64h284l-10 -64h-373l9 58l326 321h-260
l10 64h348l-9 -59zM857 586l106 87l47 -26l-135 -126h-57l-95 126l56 26z" />
    <glyph glyph-name="uni01C7" unicode="&#x1c7;" horiz-adv-x="828" 
d="M260 667l-94 -598h258l-11 -69h-333l106 667h74zM854 667l-74 -467q-10 -64 -27 -101.5t-48 -64.5q-55 -46 -124 -46q-40 0 -72.5 16.5t-69.5 54.5l54 54q48 -55 98 -55q92 0 114 142l74 467h75z" />
    <glyph glyph-name="uni01C8" unicode="&#x1c8;" horiz-adv-x="629" 
d="M260 667l-94 -598h258l-11 -69h-333l106 667h74zM631 642q19 0 31 -12t12 -31q0 -23 -18 -41t-42 -18q-19 0 -31 12.5t-12 31.5q0 23 18 40.5t42 17.5zM564 443h71l-86 -543q-23 -140 -130 -140q-16 0 -43 7l11 64q17 -5 29 -5q26 0 40.5 17.5t20.5 56.5z" />
    <glyph glyph-name="uni01C9" unicode="&#x1c9;" horiz-adv-x="394" 
d="M135 0h-71l106 667h71zM396 642q19 0 31.5 -12t12.5 -31q0 -23 -18 -41t-42 -18q-20 0 -32 12t-12 32q0 22 18.5 40t41.5 18zM329 443h71l-86 -543q-23 -140 -129 -140q-18 0 -43 7l10 64q19 -5 30 -5q49 0 61 74z" />
    <glyph glyph-name="uni01CA" unicode="&#x1ca;" horiz-adv-x="1108" 
d="M80 0l106 667h70l319 -545l86 545h75l-106 -667h-70l-319 545l-86 -545h-75zM1134 667l-74 -467q-10 -64 -27 -101.5t-48 -64.5q-55 -46 -124 -46q-40 0 -72.5 16.5t-69.5 54.5l54 54q48 -55 98 -55q92 0 114 142l74 467h75z" />
    <glyph glyph-name="uni01CB" unicode="&#x1cb;" horiz-adv-x="919" 
d="M80 0l106 667h70l319 -545l86 545h75l-106 -667h-70l-319 545l-86 -545h-75zM921 642q19 0 31 -12t12 -31q0 -23 -18 -41t-42 -18q-19 0 -31 12.5t-12 31.5q0 23 18 40.5t42 17.5zM854 443h71l-86 -543q-23 -140 -130 -140q-16 0 -43 7l11 64q17 -5 29 -5q26 0 40.5 17.5
t20.5 56.5z" />
    <glyph glyph-name="uni01CC" unicode="&#x1cc;" horiz-adv-x="705" 
d="M205 443l-8 -50q59 62 143 62q68 0 109 -40t41 -105q0 -34 -6 -70l-38 -240h-71l37 231q5 35 5 60q0 46 -24.5 71t-70.5 25q-65 0 -105 -42q-33 -33 -48 -123l-35 -222h-71l70 443h72zM707 642q19 0 31.5 -12t12.5 -31q0 -23 -18 -41t-42 -18q-19 0 -31.5 12t-12.5 32
q0 22 18.5 40t41.5 18zM640 443h71l-86 -543q-23 -140 -129 -140q-18 0 -43 7l10 64q19 -5 30 -5q49 0 61 74z" />
    <glyph glyph-name="uni01CD" unicode="&#x1cd;" horiz-adv-x="620" 
d="M186 189l-102 -189h-77l362 667h94l151 -667h-78l-42 189h-308zM223 258h255l-75 337zM435 786l105 87l48 -26l-135 -126h-57l-95 126l55 26z" />
    <glyph glyph-name="uni01CE" unicode="&#x1ce;" 
d="M486 0h-71l9 58q-76 -70 -167 -70q-83 0 -136.5 55t-53.5 140q0 109 80 190.5t187 81.5q88 0 142 -70l9 58h71zM321 390q-75 0 -128.5 -59.5t-53.5 -142.5q0 -61 36 -98t96 -37q76 0 129.5 59t53.5 144q0 62 -36 98t-97 36zM353 586l106 87l47 -26l-135 -126h-56l-95 126
l55 26z" />
    <glyph glyph-name="uni01CF" unicode="&#x1cf;" horiz-adv-x="235" 
d="M260 667l-105 -667h-75l106 667h74zM242 786l105 87l48 -26l-135 -126h-57l-95 126l55 26z" />
    <glyph glyph-name="uni01D0" unicode="&#x1d0;" horiz-adv-x="199" 
d="M206 443l-70 -443h-72l70 443h72zM193 586l105 87l48 -26l-135 -126h-57l-95 126l55 26z" />
    <glyph glyph-name="uni01D1" unicode="&#x1d1;" horiz-adv-x="764" 
d="M493 679q122 0 204.5 -84t82.5 -208q0 -103 -56.5 -195.5t-150.5 -148t-199 -55.5q-67 0 -128 31t-101 85q-54 75 -54 178q0 156 122 276.5t280 120.5zM480 609q-124 0 -219 -97t-95 -225q0 -96 64 -162.5t158 -66.5q125 0 220.5 96.5t95.5 223.5q0 100 -63.5 165.5
t-160.5 65.5zM507 786l105 87l48 -26l-135 -126h-57l-95 126l55 26z" />
    <glyph glyph-name="uni01D2" unicode="&#x1d2;" horiz-adv-x="526" 
d="M338 455q84 0 138 -55t54 -140q0 -109 -80.5 -190.5t-188.5 -81.5q-86 0 -140 54.5t-54 141.5q0 110 80.5 190.5t190.5 80.5zM322 390q-76 0 -129.5 -59.5t-53.5 -142.5q0 -62 36 -98.5t97 -36.5q77 0 131.5 59t54.5 143q0 62 -36.5 98.5t-99.5 36.5zM356 586l106 87
l47 -26l-135 -126h-57l-95 126l56 26z" />
    <glyph glyph-name="uni01D3" unicode="&#x1d3;" horiz-adv-x="635" 
d="M261 667l-66 -414q-7 -47 -7 -72q0 -55 38.5 -89t99.5 -34q44 0 86 19.5t67 51.5q16 20 25 46t17 78l66 414h74l-68 -434q-17 -98 -68 -154q-40 -43 -95.5 -67t-113.5 -24q-88 0 -146 51.5t-58 129.5q0 26 5 64l69 434h75zM443 786l105 87l48 -26l-135 -126h-57l-95 126
l55 26z" />
    <glyph glyph-name="uni01D4" unicode="&#x1d4;" horiz-adv-x="509" 
d="M375 0l8 50q-59 -62 -144 -62q-67 0 -108.5 40t-41.5 105q0 34 6 70l38 240h71l-36 -231q-6 -32 -6 -60q0 -46 24.5 -71t70.5 -25q66 0 106 42q32 33 47 124l35 221h71l-70 -443h-71zM347 586l106 87l47 -26l-135 -126h-56l-96 126l56 26z" />
    <glyph glyph-name="Gcaron" unicode="&#x1e6;" horiz-adv-x="727" 
d="M464 344h274l-6 -37q-23 -144 -118 -231.5t-228 -87.5q-129 0 -212.5 82t-83.5 208q0 158 122 279.5t281 121.5q70 0 121.5 -25t100.5 -82l-59 -51q-38 47 -78 67.5t-97 20.5q-126 0 -220.5 -96.5t-94.5 -226.5q0 -99 64.5 -163.5t164.5 -64.5q97 0 167 59.5t88 157.5
h-197zM510 786l106 87l47 -26l-135 -126h-57l-95 126l56 26z" />
    <glyph glyph-name="gcaron" unicode="&#x1e7;" 
d="M556 443l-72 -451q-16 -107 -90 -172t-179 -65q-62 0 -105.5 23t-80.5 75l54 47q32 -45 62.5 -62.5t78.5 -17.5q76 0 126 46t63 126l11 66q-76 -70 -167 -70q-83 0 -136.5 55t-53.5 140q0 109 80 190.5t187 81.5q87 0 141 -70l10 58h71zM321 390q-75 0 -128.5 -59.5
t-53.5 -142.5q0 -61 36 -98t96 -37q76 0 129 59t53 144q0 62 -35.5 98t-96.5 36zM353 586l106 87l47 -26l-135 -126h-56l-95 126l55 26z" />
    <glyph glyph-name="uni01F4" unicode="&#x1f4;" horiz-adv-x="727" 
d="M464 344h274l-6 -37q-23 -144 -118 -231.5t-228 -87.5q-129 0 -212.5 82t-83.5 208q0 158 122 279.5t281 121.5q70 0 121.5 -25t100.5 -82l-59 -51q-38 47 -78 67.5t-97 20.5q-126 0 -220.5 -96.5t-94.5 -226.5q0 -99 64.5 -163.5t164.5 -64.5q97 0 167 59.5t88 157.5
h-197zM644 841l-145 -126l-41 26l122 137z" />
    <glyph glyph-name="uni01F5" unicode="&#x1f5;" 
d="M556 443l-72 -451q-16 -107 -90 -172t-179 -65q-62 0 -105.5 23t-80.5 75l54 47q32 -45 62.5 -62.5t78.5 -17.5q76 0 126 46t63 126l11 66q-76 -70 -167 -70q-83 0 -136.5 55t-53.5 140q0 109 80 190.5t187 81.5q87 0 141 -70l10 58h71zM321 390q-75 0 -128.5 -59.5
t-53.5 -142.5q0 -61 36 -98t96 -37q76 0 129 59t53 144q0 62 -35.5 98t-96.5 36zM485 641l-145 -126l-40 26l121 138z" />
    <glyph glyph-name="Aringacute" unicode="&#x1fa;" horiz-adv-x="620" 
d="M186 189l-102 -189h-77l362 667h94l151 -667h-78l-42 189h-308zM223 258h255l-75 337zM449 878q33 0 55 -21t22 -53q0 -40 -31.5 -70.5t-72.5 -30.5q-34 0 -55.5 21t-21.5 54q0 39 31.5 69.5t72.5 30.5zM444 842q-24 0 -42.5 -18t-18.5 -41q0 -19 12.5 -31.5t31.5 -12.5
q24 0 42.5 18t18.5 42q0 19 -12.5 31t-31.5 12zM557 1022l-145 -125l-40 25l121 138z" />
    <glyph glyph-name="aringacute" unicode="&#x1fb;" 
d="M486 0h-71l9 58q-76 -70 -167 -70q-83 0 -136.5 55t-53.5 140q0 109 80 190.5t187 81.5q88 0 142 -70l9 58h71zM321 390q-75 0 -128.5 -59.5t-53.5 -142.5q0 -61 36 -98t96 -37q76 0 129.5 59t53.5 144q0 62 -36 98t-97 36zM381 679q33 0 55 -21t22 -53q0 -40 -31.5 -71
t-72.5 -31q-34 0 -55.5 21t-21.5 54q0 40 31.5 70.5t72.5 30.5zM376 643q-24 0 -42.5 -18t-18.5 -42q0 -19 12.5 -31.5t31.5 -12.5q24 0 42.5 18t18.5 42q0 19 -12.5 31.5t-31.5 12.5zM492 841l-145 -126l-41 26l122 137z" />
    <glyph glyph-name="AEacute" unicode="&#x1fc;" horiz-adv-x="840" 
d="M475 189h-259l-126 -189h-83l449 667h438l-11 -69h-269l-35 -225h238l-11 -69h-238l-37 -235h278l-11 -69h-353zM486 258l54 340h-52l-226 -340h224zM778 841l-145 -126l-41 26l122 137z" />
    <glyph glyph-name="aeacute" unicode="&#x1fd;" horiz-adv-x="822" 
d="M736 131l60 -27q-88 -116 -217 -116q-105 0 -158 85q-55 -85 -190 -85q-83 0 -129.5 33t-46.5 94q0 77 58 124.5t152 47.5h140q1 5 1 15q0 89 -114 89q-80 0 -151 -50l-26 48q92 66 195 66q122 0 154 -88q80 88 184 88q79 0 128 -53t49 -139q0 -25 -8 -72h-353v-8
q0 -58 34.5 -94t89.5 -36q91 0 148 78zM398 226h-129q-67 0 -105 -27t-38 -75q0 -35 30 -53.5t86 -18.5q129 0 143 91zM756 252v8v5q-1 56 -33.5 91t-84.5 35q-56 0 -101.5 -38.5t-62.5 -100.5h282zM632 641l-145 -126l-41 26l122 138z" />
    <glyph glyph-name="Oslashacute" unicode="&#x1fe;" horiz-adv-x="771" 
d="M60 38l84 73q-50 73 -50 169q0 102 56.5 195t150 148.5t196.5 55.5q56 0 110.5 -22.5t91.5 -60.5l83 73l35 -40l-84 -73q50 -75 50 -170q0 -156 -122.5 -277t-280.5 -121q-121 0 -202 83l-83 -73zM204 163l437 382q-67 64 -156 64q-125 0 -220 -97t-95 -225
q0 -66 34 -124zM673 504l-437 -382q67 -64 156 -64q125 0 220 97t95 224q0 66 -34 125zM644 841l-145 -126l-41 26l122 137z" />
    <glyph glyph-name="oslashacute" unicode="&#x1ff;" horiz-adv-x="539" 
d="M47 35l53 45q-26 44 -26 104q0 109 80.5 190t188.5 81q81 0 137 -53l51 43l32 -36l-53 -45q26 -47 26 -104q0 -109 -80.5 -190.5t-188.5 -81.5q-81 0 -137 53l-51 -43zM455 317l-272 -231q38 -33 95 -33q78 0 132 59.5t54 145.5q0 38 -9 59zM155 126l272 231
q-36 33 -95 33q-79 0 -132.5 -59.5t-53.5 -145.5q0 -32 9 -59zM496 641l-145 -126l-40 26l121 138z" />
    <glyph glyph-name="uni0200" unicode="&#x200;" horiz-adv-x="620" 
d="M186 189l-102 -189h-77l362 667h94l151 -667h-78l-42 189h-308zM223 258h255l-75 337zM389 841l72 37l79 -137l-46 -26zM249 841l72 37l79 -137l-46 -26z" />
    <glyph glyph-name="uni0201" unicode="&#x201;" 
d="M486 0h-71l9 58q-76 -70 -167 -70q-83 0 -136.5 55t-53.5 140q0 109 80 190.5t187 81.5q88 0 142 -70l9 58h71zM321 390q-75 0 -128.5 -59.5t-53.5 -142.5q0 -61 36 -98t96 -37q76 0 129.5 59t53.5 144q0 62 -36 98t-97 36zM285 641l73 38l78 -138l-45 -26zM145 641
l73 38l78 -138l-45 -26z" />
    <glyph glyph-name="Scommaaccent" unicode="&#x218;" horiz-adv-x="505" 
d="M531 574l-65 -39q-37 75 -109 75q-57 0 -99 -38t-42 -88q0 -57 82 -92l62 -25q129 -54 129 -149q0 -92 -74 -161t-172 -69q-79 0 -125.5 45t-52.5 127l75 20q12 -122 117 -122q61 0 108.5 45t47.5 104q0 32 -23 55t-75 45l-59 25q-114 47 -114 139q0 86 67 147t161 61
q112 0 161 -105zM306 -75l-121 -128l-45 24l105 132z" />
    <glyph glyph-name="scommaaccent" unicode="&#x219;" horiz-adv-x="371" 
d="M383 375l-62 -30q-22 47 -69 47q-35 0 -59.5 -21t-24.5 -51q0 -20 12 -31t54 -28l41 -17q44 -19 64 -41.5t20 -54.5q0 -64 -53 -112t-124 -48q-110 0 -136 113l66 26q14 -42 32 -58.5t51 -16.5q37 0 64.5 24.5t27.5 58.5q0 21 -13 32.5t-55 28.5l-45 19q-74 31 -74 93
q0 60 48.5 103.5t115.5 43.5q86 0 119 -80zM165 -47l66 -21l-90 -152l-48 16z" />
    <glyph glyph-name="uni021A" unicode="&#x21a;" horiz-adv-x="433" 
d="M348 598l-94 -598h-75l95 598h-173l11 69h420l-11 -69h-173zM182 -47l66 -21l-90 -152l-47 16z" />
    <glyph glyph-name="uni021B" unicode="&#x21b;" horiz-adv-x="246" 
d="M203 379l-39 -246q-2 -14 -2 -29q0 -45 40 -45q12 0 31 6l-10 -65q-29 -7 -45 -7q-89 0 -89 97q0 24 4 43l38 246h-50l11 64h50l16 105l76 28l-21 -133h73l-10 -64h-73zM104 -47l65 -21l-90 -152l-47 16z" />
    <glyph glyph-name="uni0226" unicode="&#x226;" horiz-adv-x="620" 
d="M186 189l-102 -189h-77l362 667h94l151 -667h-78l-42 189h-308zM223 258h255l-75 337zM443 841q19 0 31 -12t12 -30q0 -23 -18 -40.5t-41 -17.5q-18 0 -30 12t-12 31q0 22 17.5 39.5t40.5 17.5z" />
    <glyph glyph-name="uni0227" unicode="&#x227;" 
d="M486 0h-71l9 58q-76 -70 -167 -70q-83 0 -136.5 55t-53.5 140q0 109 80 190.5t187 81.5q88 0 142 -70l9 58h71zM321 390q-75 0 -128.5 -59.5t-53.5 -142.5q0 -61 36 -98t96 -37q76 0 129.5 59t53.5 144q0 62 -36 98t-97 36zM362 641q19 0 31 -12t12 -30q0 -23 -18 -40.5
t-41 -17.5q-18 0 -30 12t-12 31q0 22 17.5 39.5t40.5 17.5z" />
    <glyph glyph-name="uni0237" unicode="&#x237;" horiz-adv-x="209" 
d="M143 443h71l-86 -543q-21 -140 -129 -140q-18 0 -43 7l10 64q19 -5 30 -5q49 0 61 74z" />
    <glyph glyph-name="uni02BB" unicode="&#x2bb;" horiz-adv-x="228" 
d="M183 451l-62 24l136 225l45 -19z" />
    <glyph glyph-name="afii57929" unicode="&#x2bc;" horiz-adv-x="262" 
d="M250 700l62 -24l-136 -225l-45 19z" />
    <glyph glyph-name="circumflex" unicode="&#x2c6;" horiz-adv-x="476" 
d="M333 602l-106 -87l-47 26l135 126h57l95 -126l-56 -26z" />
    <glyph glyph-name="caron" unicode="&#x2c7;" horiz-adv-x="476" 
d="M331 586l105 87l48 -26l-135 -126h-57l-95 126l55 26z" />
    <glyph glyph-name="uni02C9" unicode="&#x2c9;" horiz-adv-x="476" 
d="M200 622h273l-10 -64h-273z" />
    <glyph glyph-name="breve" unicode="&#x2d8;" horiz-adv-x="476" 
d="M208 647l62 5q-1 -8 -1 -19q0 -25 16.5 -40.5t42.5 -15.5q61 0 84 75l60 -5q-16 -61 -57.5 -96.5t-96.5 -35.5q-48 0 -80 29.5t-32 73.5q0 5 2 29z" />
    <glyph glyph-name="dotaccent" unicode="&#x2d9;" horiz-adv-x="476" 
d="M340 641q19 0 31 -12t12 -30q0 -23 -18 -40.5t-41 -17.5q-19 0 -31 12t-12 31q0 22 18 39.5t41 17.5z" />
    <glyph glyph-name="ring" unicode="&#x2da;" horiz-adv-x="476" 
d="M345 679q33 0 55 -21t22 -53q0 -40 -31.5 -71t-72.5 -31q-34 0 -55.5 21t-21.5 54q0 40 31.5 70.5t72.5 30.5zM340 643q-24 0 -42.5 -18t-18.5 -42q0 -19 12.5 -31.5t31.5 -12.5q24 0 42.5 18t18.5 42q0 19 -12.5 31.5t-31.5 12.5z" />
    <glyph glyph-name="ogonek" unicode="&#x2db;" horiz-adv-x="476" 
d="M356 0h71q-47 -46 -47 -72q0 -20 29 -20q17 0 38 7l12 -51q-36 -13 -65 -13q-37 0 -59 18t-22 48q0 40 43 83z" />
    <glyph glyph-name="tilde" unicode="&#x2dc;" horiz-adv-x="476" 
d="M419 641l55 -14q-20 -85 -92 -85q-26 0 -65 19q-29 15 -41 15t-18.5 -7.5t-13.5 -27.5l-54 13q11 40 35.5 62.5t57.5 22.5q23 0 66 -21q26 -13 40 -13q13 0 19 7.5t11 28.5z" />
    <glyph glyph-name="hungarumlaut" unicode="&#x2dd;" horiz-adv-x="476" 
d="M395 641l-145 -126l-38 26l122 138zM535 641l-145 -126l-38 26l122 138z" />
    <glyph glyph-name="uni0309" unicode="&#x309;" horiz-adv-x="476" 
d="M411 721h-63q4 21 19 40l12 13q19 23 19 33q0 20 -30 20q-13 0 -38 -7l-12 51q38 13 67 13q37 0 58.5 -15.5t21.5 -41.5q0 -29 -24 -59l-19 -24q-9 -11 -11 -23z" />
    <glyph glyph-name="uni0323" unicode="&#x323;" horiz-adv-x="476" 
d="M228 -60q19 0 31.5 -12t12.5 -31q0 -23 -18.5 -41t-41.5 -18q-19 0 -31.5 12t-12.5 31q0 23 18.5 41t41.5 18z" />
    <glyph glyph-name="uni037E" unicode="&#x37e;" horiz-adv-x="227" 
d="M122 98l62 -24l-136 -226l-45 19zM198 426q18 0 30 -11.5t12 -29.5q0 -23 -17.5 -40t-40.5 -17q-18 0 -30 12t-12 30q0 22 17.5 39t40.5 17z" />
    <glyph glyph-name="uni0387" unicode="&#x387;" horiz-adv-x="227" 
d="M174 383q18 0 30 -12t12 -30q0 -23 -17 -40t-40 -17q-19 0 -30.5 12t-11.5 31q0 22 17.5 39t39.5 17z" />
    <glyph glyph-name="uni1E1E" unicode="&#x1e1e;" horiz-adv-x="436" 
d="M495 598h-246l-35 -225h223l-11 -69h-223l-48 -304h-75l106 667h320zM373 841q19 0 31 -12t12 -30q0 -23 -18 -40.5t-41 -17.5q-18 0 -30 12t-12 31q0 22 17.5 39.5t40.5 17.5z" />
    <glyph glyph-name="uni1E1F" unicode="&#x1e1f;" horiz-adv-x="250" 
d="M208 379l-60 -379h-71l60 379h-45l10 64h45l14 90q23 141 130 141q16 0 43 -7l-10 -65q-19 5 -30 5q-49 0 -61 -74l-14 -90h81l-10 -64h-82zM289 841q19 0 31 -12t12 -30q0 -23 -18 -40.5t-41 -17.5q-18 0 -30 12t-12 31q0 22 17.5 39.5t40.5 17.5z" />
    <glyph glyph-name="Wgrave" unicode="&#x1e80;" horiz-adv-x="880" 
d="M190 667l76 -559l246 559h67l69 -559l253 559h78l-309 -667h-39h-38l-68 540l-239 -540h-37h-39l-98 667h78zM455 841l76 37l78 -137l-49 -26z" />
    <glyph glyph-name="wgrave" unicode="&#x1e81;" horiz-adv-x="668" 
d="M147 443l68 -336l159 336h60l53 -336l175 336h76l-237 -443h-60l-54 333l-160 -333h-60l-96 443h76zM310 641l76 38l79 -138l-49 -26z" />
    <glyph glyph-name="Wacute" unicode="&#x1e82;" horiz-adv-x="880" 
d="M190 667l76 -559l246 559h67l69 -559l253 559h78l-309 -667h-39h-38l-68 540l-239 -540h-37h-39l-98 667h78zM698 841l-145 -126l-41 26l122 137z" />
    <glyph glyph-name="wacute" unicode="&#x1e83;" horiz-adv-x="668" 
d="M147 443l68 -336l159 336h60l53 -336l175 336h76l-237 -443h-60l-54 333l-160 -333h-60l-96 443h76zM531 641l-145 -126l-41 26l122 138z" />
    <glyph glyph-name="Wdieresis" unicode="&#x1e84;" horiz-adv-x="880" 
d="M190 667l76 -559l246 559h67l69 -559l253 559h78l-309 -667h-39h-38l-68 540l-239 -540h-37h-39l-98 667h78zM665 841q18 0 30 -12t12 -30q0 -23 -17.5 -40.5t-40.5 -17.5q-19 0 -31 12t-12 31q0 22 18 39.5t41 17.5zM481 841q19 0 31 -12t12 -30q0 -23 -18 -40.5
t-41 -17.5q-18 0 -30 12t-12 31q0 22 17.5 39.5t40.5 17.5z" />
    <glyph glyph-name="wdieresis" unicode="&#x1e85;" horiz-adv-x="668" 
d="M147 443l68 -336l159 336h60l53 -336l175 336h76l-237 -443h-60l-54 333l-160 -333h-60l-96 443h76zM528 641q18 0 30 -12t12 -30q0 -23 -18 -40.5t-40 -17.5q-19 0 -31 12t-12 31q0 22 18 39.5t41 17.5zM344 641q19 0 31 -12t12 -30q0 -23 -18 -40.5t-41 -17.5
q-19 0 -31 12t-12 31q0 22 18 39.5t41 17.5z" />
    <glyph glyph-name="uni1EA0" unicode="&#x1ea0;" horiz-adv-x="620" 
d="M186 189l-102 -189h-77l362 667h94l151 -667h-78l-42 189h-308zM223 258h255l-75 337zM301 -60q19 0 31 -12t12 -30q0 -23 -18 -40.5t-41 -17.5q-19 0 -31 12t-12 31q0 22 18 39.5t41 17.5z" />
    <glyph glyph-name="uni1EA1" unicode="&#x1ea1;" 
d="M486 0h-71l9 58q-76 -70 -167 -70q-83 0 -136.5 55t-53.5 140q0 109 80 190.5t187 81.5q88 0 142 -70l9 58h71zM321 390q-75 0 -128.5 -59.5t-53.5 -142.5q0 -61 36 -98t96 -37q76 0 129.5 59t53.5 144q0 62 -36 98t-97 36zM263 -60q19 0 31 -12t12 -30q0 -23 -18 -40.5
t-41 -17.5q-18 0 -30 12t-12 31q0 22 17.5 39.5t40.5 17.5z" />
    <glyph glyph-name="uni1EA2" unicode="&#x1ea2;" horiz-adv-x="620" 
d="M186 189l-102 -189h-77l362 667h94l151 -667h-78l-42 189h-308zM223 258h255l-75 337zM464 721h-64q3 19 20 40l12 13q18 21 18 33q0 20 -29 20q-14 0 -38 -7l-12 51q38 13 67 13q37 0 58.5 -15.5t21.5 -41.5q0 -27 -24 -59l-19 -24q-9 -11 -11 -23z" />
    <glyph glyph-name="uni1EA3" unicode="&#x1ea3;" 
d="M486 0h-71l9 58q-76 -70 -167 -70q-83 0 -136.5 55t-53.5 140q0 109 80 190.5t187 81.5q88 0 142 -70l9 58h71zM321 390q-75 0 -128.5 -59.5t-53.5 -142.5q0 -61 36 -98t96 -37q76 0 129.5 59t53.5 144q0 62 -36 98t-97 36zM391 515h-64q4 21 20 40l12 13q18 22 18 34
q0 20 -29 20q-14 0 -38 -7l-12 50q36 14 67 14q37 0 58.5 -15.5t21.5 -42.5t-24 -59l-19 -24q-10 -13 -11 -23z" />
    <glyph glyph-name="uni1EA4" unicode="&#x1ea4;" horiz-adv-x="620" 
d="M544 777l27 -36l-55 -26l-79 87l-105 -87l-48 26l135 126h57l38 -50l102 117l65 -38zM186 189l-102 -189h-77l362 667h94l151 -667h-78l-42 189h-308zM223 258h255l-75 337z" />
    <glyph glyph-name="uni1EA5" unicode="&#x1ea5;" 
d="M392 650l95 -126l-55 -26l-79 87l-105 -87l-48 26l135 126h57zM486 0h-71l9 58q-76 -70 -167 -70q-83 0 -136.5 55t-53.5 140q0 109 80 190.5t187 81.5q88 0 142 -70l9 58h71zM321 390q-75 0 -128.5 -59.5t-53.5 -142.5q0 -61 36 -98t96 -37q76 0 129.5 59t53.5 144
q0 62 -36 98t-97 36zM638 743l-145 -126l-40 26l121 138z" />
    <glyph glyph-name="uni1EA6" unicode="&#x1ea6;" horiz-adv-x="620" 
d="M186 189l-102 -189h-77l362 667h94l151 -667h-78l-42 189h-308zM223 258h255l-75 337zM437 802l-105 -87l-48 26l135 126h57l95 -126l-55 -26zM497 896l76 37l78 -137l-49 -26z" />
    <glyph glyph-name="uni1EA7" unicode="&#x1ea7;" 
d="M486 0h-71l9 58q-76 -70 -167 -70q-83 0 -136.5 55t-53.5 140q0 109 80 190.5t187 81.5q88 0 142 -70l9 58h71zM321 390q-75 0 -128.5 -59.5t-53.5 -142.5q0 -61 36 -98t96 -37q76 0 129.5 59t53.5 144q0 62 -36 98t-97 36zM353 585l-105 -87l-48 26l135 126h57l95 -126
l-55 -26zM380 743l76 38l78 -138l-49 -26z" />
    <glyph glyph-name="uni1EA8" unicode="&#x1ea8;" horiz-adv-x="620" 
d="M476 867l95 -126l-55 -26l-79 87l-105 -87l-48 26l135 126h57zM186 189l-102 -189h-77l362 667h94l151 -667h-78l-42 189h-308zM223 258h255l-75 337zM623 770h-64q4 21 20 40l11 13q19 22 19 33q0 20 -29 20q-14 0 -39 -7l-12 51q39 13 68 13q37 0 58.5 -15.5
t21.5 -41.5q0 -28 -25 -59l-19 -24q-9 -11 -10 -23z" />
    <glyph glyph-name="uni1EA9" unicode="&#x1ea9;" 
d="M486 0h-71l9 58q-76 -70 -167 -70q-83 0 -136.5 55t-53.5 140q0 109 80 190.5t187 81.5q88 0 142 -70l9 58h71zM321 390q-75 0 -128.5 -59.5t-53.5 -142.5q0 -61 36 -98t96 -37q76 0 129.5 59t53.5 144q0 62 -36 98t-97 36zM392 650l95 -126l-55 -26l-79 87l-105 -87
l-48 26l135 126h57zM519 617h-64q4 21 20 40l11 13q19 22 19 33q0 20 -30 20q-13 0 -38 -7l-12 51q39 13 68 13q37 0 58.5 -15.5t21.5 -41.5q0 -29 -24 -59l-20 -24q-7 -9 -10 -23z" />
    <glyph glyph-name="uni1EAA" unicode="&#x1eaa;" horiz-adv-x="620" 
d="M186 189l-102 -189h-77l362 667h94l151 -667h-78l-42 189h-308zM223 258h255l-75 337zM433 777l-105 -87l-48 26l135 126h57l95 -126l-55 -26zM541 958l55 -13q-20 -85 -92 -85q-24 0 -65 19q-29 15 -40 15q-12 0 -19 -7.5t-13 -28.5l-55 14q11 40 35.5 62.5t57.5 22.5
q24 0 66 -21q26 -13 41 -13q12 0 18 7.5t11 27.5z" />
    <glyph glyph-name="uni1EAB" unicode="&#x1eab;" 
d="M486 0h-71l9 58q-76 -70 -167 -70q-83 0 -136.5 55t-53.5 140q0 109 80 190.5t187 81.5q88 0 142 -70l9 58h71zM321 390q-75 0 -128.5 -59.5t-53.5 -142.5q0 -61 36 -98t96 -37q76 0 129.5 59t53.5 144q0 62 -36 98t-97 36zM463 781l55 -13q-20 -85 -92 -85q-24 0 -65 19
q-31 14 -40 14q-12 0 -18.5 -7.5t-13.5 -27.5l-55 13q11 40 35.5 62.5t57.5 22.5q23 0 66 -21q27 -12 41 -12q12 0 18 7t11 28zM353 585l-106 -87l-47 26l135 126h57l95 -126l-56 -26z" />
    <glyph glyph-name="uni1EAC" unicode="&#x1eac;" horiz-adv-x="620" 
d="M186 189l-102 -189h-77l362 667h94l151 -667h-78l-42 189h-308zM223 258h255l-75 337zM437 802l-105 -87l-48 26l135 126h57l95 -126l-55 -26zM301 -60q19 0 31 -12t12 -30q0 -23 -18 -40.5t-41 -17.5q-19 0 -31 12t-12 31q0 22 18 39.5t41 17.5z" />
    <glyph glyph-name="uni1EAD" unicode="&#x1ead;" 
d="M486 0h-71l9 58q-76 -70 -167 -70q-83 0 -136.5 55t-53.5 140q0 109 80 190.5t187 81.5q88 0 142 -70l9 58h71zM321 390q-75 0 -128.5 -59.5t-53.5 -142.5q0 -61 36 -98t96 -37q76 0 129.5 59t53.5 144q0 62 -36 98t-97 36zM263 -60q19 0 31 -12t12 -30q0 -23 -18 -40.5
t-41 -17.5q-18 0 -30 12t-12 31q0 22 17.5 39.5t40.5 17.5zM356 602l-106 -87l-47 26l135 126h57l95 -126l-56 -26z" />
    <glyph glyph-name="uni1EAE" unicode="&#x1eae;" horiz-adv-x="620" 
d="M186 189l-102 -189h-77l362 667h94l151 -667h-78l-42 189h-308zM223 258h255l-75 337zM309 822l62 5q-2 -16 -2 -20q0 -24 16.5 -39.5t42.5 -15.5q61 0 84 75l60 -5q-17 -62 -58 -97t-96 -35q-47 0 -79.5 30t-32.5 73q0 11 3 29zM578 921l-145 -126l-41 26l122 137z" />
    <glyph glyph-name="uni1EAF" unicode="&#x1eaf;" 
d="M486 0h-71l9 58q-76 -70 -167 -70q-83 0 -136.5 55t-53.5 140q0 109 80 190.5t187 81.5q88 0 142 -70l9 58h71zM321 390q-75 0 -128.5 -59.5t-53.5 -142.5q0 -61 36 -98t96 -37q76 0 129.5 59t53.5 144q0 62 -36 98t-97 36zM230 630l62 5q-1 -7 -1 -20q0 -24 16.5 -39.5
t42.5 -15.5q60 0 83 75l60 -5q-16 -61 -57 -96.5t-96 -35.5q-48 0 -80 29.5t-32 73.5q0 5 2 29zM507 743l-145 -126l-41 26l122 138z" />
    <glyph glyph-name="uni1EB0" unicode="&#x1eb0;" horiz-adv-x="620" 
d="M186 189l-102 -189h-77l362 667h94l151 -667h-78l-42 189h-308zM223 258h255l-75 337zM309 822l62 5q-2 -16 -2 -20q0 -24 16.5 -39.5t42.5 -15.5q61 0 84 75l60 -5q-17 -62 -58 -97t-96 -35q-47 0 -79.5 30t-32.5 73q0 11 3 29zM330 921l76 37l78 -137l-49 -26z" />
    <glyph glyph-name="uni1EB1" unicode="&#x1eb1;" 
d="M486 0h-71l9 58q-76 -70 -167 -70q-83 0 -136.5 55t-53.5 140q0 109 80 190.5t187 81.5q88 0 142 -70l9 58h71zM321 390q-75 0 -128.5 -59.5t-53.5 -142.5q0 -61 36 -98t96 -37q76 0 129.5 59t53.5 144q0 62 -36 98t-97 36zM230 630l62 5q-1 -7 -1 -20q0 -24 16.5 -39.5
t42.5 -15.5q60 0 83 75l60 -5q-16 -61 -57 -96.5t-96 -35.5q-48 0 -80 29.5t-32 73.5q0 5 2 29zM250 743l76 38l78 -138l-49 -26z" />
    <glyph glyph-name="uni1EB2" unicode="&#x1eb2;" horiz-adv-x="620" 
d="M186 189l-102 -189h-77l362 667h94l151 -667h-78l-42 189h-308zM223 258h255l-75 337zM309 822l62 5q-2 -16 -2 -20q0 -24 16.5 -39.5t42.5 -15.5q61 0 84 75l60 -5q-17 -62 -58 -97t-96 -35q-47 0 -79.5 30t-32.5 73q0 11 3 29zM464 795h-64q4 21 20 40l11 13
q19 22 19 33q0 20 -30 20q-13 0 -38 -7l-12 51q38 13 68 13q37 0 58.5 -15.5t21.5 -41.5q0 -28 -25 -59l-19 -24q-9 -11 -10 -23z" />
    <glyph glyph-name="uni1EB3" unicode="&#x1eb3;" 
d="M486 0h-71l9 58q-76 -70 -167 -70q-83 0 -136.5 55t-53.5 140q0 109 80 190.5t187 81.5q88 0 142 -70l9 58h71zM321 390q-75 0 -128.5 -59.5t-53.5 -142.5q0 -61 36 -98t96 -37q76 0 129.5 59t53.5 144q0 62 -36 98t-97 36zM230 630l62 5q-1 -7 -1 -20q0 -24 16.5 -39.5
t42.5 -15.5q60 0 83 75l60 -5q-16 -61 -57 -96.5t-96 -35.5q-48 0 -80 29.5t-32 73.5q0 5 2 29zM387 617h-64q5 21 20 40l12 13q19 23 19 33q0 20 -30 20q-13 0 -38 -7l-12 51q38 13 67 13q37 0 58.5 -15.5t21.5 -41.5q0 -27 -24 -59l-19 -24q-9 -11 -11 -23z" />
    <glyph glyph-name="uni1EB4" unicode="&#x1eb4;" horiz-adv-x="620" 
d="M186 189l-102 -189h-77l362 667h94l151 -667h-78l-42 189h-308zM223 258h255l-75 337zM541 958l55 -13q-20 -85 -92 -85q-24 0 -65 19q-29 15 -40 15q-12 0 -19 -7.5t-13 -28.5l-55 14q11 40 35.5 62.5t57.5 22.5q24 0 66 -21q26 -13 41 -13q12 0 18 7.5t11 27.5z
M309 822l62 5q-2 -16 -2 -20q0 -24 16.5 -39.5t42.5 -15.5q61 0 84 75l60 -5q-17 -62 -58 -97t-96 -35q-47 0 -79.5 30t-32.5 73q0 11 3 29z" />
    <glyph glyph-name="uni1EB5" unicode="&#x1eb5;" 
d="M486 0h-71l9 58q-76 -70 -167 -70q-83 0 -136.5 55t-53.5 140q0 109 80 190.5t187 81.5q88 0 142 -70l9 58h71zM321 390q-75 0 -128.5 -59.5t-53.5 -142.5q0 -61 36 -98t96 -37q76 0 129.5 59t53.5 144q0 62 -36 98t-97 36zM463 781l55 -13q-20 -85 -92 -85q-24 0 -65 19
q-31 14 -40 14q-12 0 -18.5 -7.5t-13.5 -27.5l-55 13q11 40 35.5 62.5t57.5 22.5q23 0 66 -21q27 -12 41 -12q12 0 18 7t11 28zM230 630l62 5q-2 -16 -2 -20q0 -24 16.5 -39.5t42.5 -15.5q61 0 84 75l60 -5q-17 -62 -58 -97t-96 -35q-48 0 -80 29.5t-32 73.5q0 11 3 29z" />
    <glyph glyph-name="uni1EB6" unicode="&#x1eb6;" horiz-adv-x="620" 
d="M186 189l-102 -189h-77l362 667h94l151 -667h-78l-42 189h-308zM223 258h255l-75 337zM301 -60q19 0 31 -12t12 -30q0 -23 -18 -40.5t-41 -17.5q-19 0 -31 12t-12 31q0 22 18 39.5t41 17.5zM313 847l62 5q-2 -16 -2 -20q0 -24 16.5 -39.5t42.5 -15.5q61 0 84 75l60 -5
q-17 -62 -58 -97t-96 -35q-48 0 -80 29.5t-32 73.5q0 11 3 29z" />
    <glyph glyph-name="uni1EB7" unicode="&#x1eb7;" 
d="M486 0h-71l9 58q-76 -70 -167 -70q-83 0 -136.5 55t-53.5 140q0 109 80 190.5t187 81.5q88 0 142 -70l9 58h71zM321 390q-75 0 -128.5 -59.5t-53.5 -142.5q0 -61 36 -98t96 -37q76 0 129.5 59t53.5 144q0 62 -36 98t-97 36zM263 -60q19 0 31 -12t12 -30q0 -23 -18 -40.5
t-41 -17.5q-18 0 -30 12t-12 31q0 22 17.5 39.5t40.5 17.5zM231 647l62 5q-1 -7 -1 -19q0 -25 16.5 -40.5t42.5 -15.5q60 0 83 75l60 -5q-16 -61 -57 -96.5t-96 -35.5q-48 0 -80 29.5t-32 73.5q0 5 2 29z" />
    <glyph glyph-name="uni1EB8" unicode="&#x1eb8;" horiz-adv-x="475" 
d="M518 598h-269l-35 -225h238l-11 -69h-238l-37 -235h278l-11 -69h-353l106 667h343zM260 -60q19 0 31 -12t12 -30q0 -23 -18 -40.5t-41 -17.5q-18 0 -30 12t-12 31q0 22 17.5 39.5t40.5 17.5z" />
    <glyph glyph-name="uni1EB9" unicode="&#x1eb9;" horiz-adv-x="496" 
d="M138 191v-8q0 -58 34.5 -94t89.5 -36q90 0 149 78l59 -27q-87 -116 -217 -116q-83 0 -134.5 53.5t-51.5 140.5q0 109 77 191t180 82q78 0 127 -53.5t49 -138.5q0 -27 -8 -72h-354zM431 252v8q0 58 -32.5 94.5t-85.5 36.5q-56 0 -101.5 -38t-63.5 -101h283zM246 -60
q19 0 31 -12t12 -30q0 -23 -18 -40.5t-41 -17.5q-18 0 -30 12t-12 31q0 22 17.5 39.5t40.5 17.5z" />
    <glyph glyph-name="uni1EBA" unicode="&#x1eba;" horiz-adv-x="475" 
d="M518 598h-269l-35 -225h238l-11 -69h-238l-37 -235h278l-11 -69h-353l106 667h343zM410 721h-63q4 21 19 40l12 13q19 23 19 33q0 20 -30 20q-13 0 -38 -7l-12 51q38 13 68 13q37 0 58 -15.5t21 -41.5q0 -29 -24 -59l-19 -24q-9 -11 -11 -23z" />
    <glyph glyph-name="uni1EBB" unicode="&#x1ebb;" horiz-adv-x="496" 
d="M138 191v-8q0 -58 34.5 -94t89.5 -36q90 0 149 78l59 -27q-87 -116 -217 -116q-83 0 -134.5 53.5t-51.5 140.5q0 109 77 191t180 82q78 0 127 -53.5t49 -138.5q0 -27 -8 -72h-354zM431 252v8q0 58 -32.5 94.5t-85.5 36.5q-56 0 -101.5 -38t-63.5 -101h283zM379 515h-64
q4 21 20 40l11 13q19 23 19 34q0 20 -30 20q-13 0 -38 -7l-12 50q37 14 68 14q37 0 58.5 -15.5t21.5 -42.5q0 -29 -24 -59l-20 -24q-9 -11 -10 -23z" />
    <glyph glyph-name="uni1EBC" unicode="&#x1ebc;" horiz-adv-x="475" 
d="M518 598h-269l-35 -225h238l-11 -69h-238l-37 -235h278l-11 -69h-353l106 667h343zM448 841l55 -14q-21 -85 -92 -85q-25 0 -64 19q-30 15 -41 15q-12 0 -19 -7.5t-13 -27.5l-55 13q24 85 93 85q24 0 66 -21q26 -13 41 -13q12 0 18.5 7.5t10.5 28.5z" />
    <glyph glyph-name="uni1EBD" unicode="&#x1ebd;" horiz-adv-x="496" 
d="M138 191v-8q0 -58 34.5 -94t89.5 -36q90 0 149 78l59 -27q-87 -116 -217 -116q-83 0 -134.5 53.5t-51.5 140.5q0 109 77 191t180 82q78 0 127 -53.5t49 -138.5q0 -27 -8 -72h-354zM431 252v8q0 58 -32.5 94.5t-85.5 36.5q-56 0 -101.5 -38t-63.5 -101h283zM429 641
l55 -14q-22 -85 -92 -85q-26 0 -65 19q-29 15 -41 15t-18.5 -7.5t-13.5 -27.5l-54 13q11 40 35.5 62.5t57.5 22.5q23 0 66 -21q26 -13 40 -13q13 0 19 7.5t11 28.5z" />
    <glyph glyph-name="uni1EBE" unicode="&#x1ebe;" horiz-adv-x="475" 
d="M518 598h-269l-35 -225h238l-11 -69h-238l-37 -235h278l-11 -69h-353l106 667h343zM478 777l28 -36l-56 -26l-78 87l-106 -87l-47 26l135 126h57l37 -50l103 117l64 -38z" />
    <glyph glyph-name="uni1EBF" unicode="&#x1ebf;" horiz-adv-x="496" 
d="M138 191v-8q0 -58 34.5 -94t89.5 -36q90 0 149 78l59 -27q-87 -116 -217 -116q-83 0 -134.5 53.5t-51.5 140.5q0 109 77 191t180 82q78 0 127 -53.5t49 -138.5q0 -27 -8 -72h-354zM431 252v8q0 58 -32.5 94.5t-85.5 36.5q-56 0 -101.5 -38t-63.5 -101h283zM628 743
l-145 -126l-41 26l122 138zM382 650l95 -126l-56 -26l-78 87l-106 -87l-47 26l135 126h57z" />
    <glyph glyph-name="uni1EC0" unicode="&#x1ec0;" horiz-adv-x="475" 
d="M518 598h-269l-35 -225h238l-11 -69h-238l-37 -235h278l-11 -69h-353l106 667h343zM432 896l76 37l78 -137l-49 -26zM372 802l-106 -87l-47 26l135 126h57l95 -126l-56 -26z" />
    <glyph glyph-name="uni1EC1" unicode="&#x1ec1;" horiz-adv-x="496" 
d="M138 191v-8q0 -58 34.5 -94t89.5 -36q90 0 149 78l59 -27q-87 -116 -217 -116q-83 0 -134.5 53.5t-51.5 140.5q0 109 77 191t180 82q78 0 127 -53.5t49 -138.5q0 -27 -8 -72h-354zM431 252v8q0 58 -32.5 94.5t-85.5 36.5q-56 0 -101.5 -38t-63.5 -101h283zM370 743l76 38
l78 -138l-49 -26zM343 585l-106 -87l-47 26l135 126h57l95 -126l-56 -26z" />
    <glyph glyph-name="uni1EC2" unicode="&#x1ec2;" horiz-adv-x="475" 
d="M518 598h-269l-35 -225h238l-11 -69h-238l-37 -235h278l-11 -69h-353l106 667h343zM411 867l95 -126l-56 -26l-78 87l-106 -87l-47 26l135 126h57zM557 770h-63q4 21 19 40l12 13q19 23 19 33q0 20 -30 20q-13 0 -38 -7l-12 51q38 13 68 13q37 0 58 -15.5t21 -41.5
q0 -29 -24 -59l-19 -24q-9 -11 -11 -23z" />
    <glyph glyph-name="uni1EC3" unicode="&#x1ec3;" horiz-adv-x="496" 
d="M138 191v-8q0 -58 34.5 -94t89.5 -36q90 0 149 78l59 -27q-87 -116 -217 -116q-83 0 -134.5 53.5t-51.5 140.5q0 109 77 191t180 82q78 0 127 -53.5t49 -138.5q0 -27 -8 -72h-354zM431 252v8q0 58 -32.5 94.5t-85.5 36.5q-56 0 -101.5 -38t-63.5 -101h283zM382 650
l95 -126l-56 -26l-78 87l-106 -87l-47 26l135 126h57zM508 617h-63q4 21 19 40l12 13q19 23 19 33q0 20 -30 20q-13 0 -38 -7l-12 51q38 13 68 13q37 0 58 -15.5t21 -41.5q0 -29 -24 -59l-19 -24q-9 -11 -11 -23z" />
    <glyph glyph-name="uni1EC4" unicode="&#x1ec4;" horiz-adv-x="475" 
d="M518 598h-269l-35 -225h238l-11 -69h-238l-37 -235h278l-11 -69h-353l106 667h343zM368 777l-106 -87l-47 26l135 126h57l95 -126l-56 -26zM476 958l55 -13q-20 -85 -92 -85q-26 0 -65 19q-29 15 -41 15t-18.5 -7.5t-13.5 -28.5l-54 14q11 40 35.5 62.5t57.5 22.5
q23 0 66 -21q26 -13 40 -13q13 0 19 7t11 28z" />
    <glyph glyph-name="uni1EC5" unicode="&#x1ec5;" horiz-adv-x="496" 
d="M138 191v-8q0 -58 34.5 -94t89.5 -36q90 0 149 78l59 -27q-87 -116 -217 -116q-83 0 -134.5 53.5t-51.5 140.5q0 109 77 191t180 82q78 0 127 -53.5t49 -138.5q0 -27 -8 -72h-354zM431 252v8q0 58 -32.5 94.5t-85.5 36.5q-56 0 -101.5 -38t-63.5 -101h283zM453 781
l55 -13q-20 -85 -92 -85q-26 0 -65 19q-31 14 -41 14q-12 0 -18.5 -7.5t-13.5 -27.5l-54 13q11 40 35.5 62.5t57.5 22.5q23 0 66 -21q27 -12 40 -12t19 7t11 28zM343 585l-106 -87l-47 26l135 126h57l95 -126l-56 -26z" />
    <glyph glyph-name="uni1EC6" unicode="&#x1ec6;" horiz-adv-x="475" 
d="M518 598h-269l-35 -225h238l-11 -69h-238l-37 -235h278l-11 -69h-353l106 667h343zM260 -60q19 0 31 -12t12 -30q0 -23 -18 -40.5t-41 -17.5q-18 0 -30 12t-12 31q0 22 17.5 39.5t40.5 17.5zM384 802l-106 -87l-47 26l135 126h56l95 -126l-55 -26z" />
    <glyph glyph-name="uni1EC7" unicode="&#x1ec7;" horiz-adv-x="496" 
d="M138 191v-8q0 -58 34.5 -94t89.5 -36q90 0 149 78l59 -27q-87 -116 -217 -116q-83 0 -134.5 53.5t-51.5 140.5q0 109 77 191t180 82q78 0 127 -53.5t49 -138.5q0 -27 -8 -72h-354zM431 252v8q0 58 -32.5 94.5t-85.5 36.5q-56 0 -101.5 -38t-63.5 -101h283zM246 -60
q19 0 31 -12t12 -30q0 -23 -18 -40.5t-41 -17.5q-18 0 -30 12t-12 31q0 22 17.5 39.5t40.5 17.5zM346 602l-106 -87l-48 26l136 126h56l95 -126l-55 -26z" />
    <glyph glyph-name="uni1EC8" unicode="&#x1ec8;" horiz-adv-x="235" 
d="M260 667l-105 -667h-75l106 667h74zM269 721h-64q4 21 20 40l12 13q18 22 18 33q0 20 -29 20q-14 0 -39 -7l-11 51q36 13 67 13q37 0 58.5 -15.5t21.5 -41.5q0 -27 -24 -59l-20 -24q-9 -11 -10 -23z" />
    <glyph glyph-name="uni1EC9" unicode="&#x1ec9;" horiz-adv-x="199" 
d="M206 443l-71 -443h-71l70 443h72zM217 515h-64q4 21 20 40l12 13q18 22 18 34q0 20 -29 20q-14 0 -38 -7l-12 50q36 14 67 14q37 0 58.5 -15.5t21.5 -42.5t-24 -59l-19 -24q-10 -13 -11 -23z" />
    <glyph glyph-name="uni1ECA" unicode="&#x1eca;" horiz-adv-x="235" 
d="M260 667l-105 -667h-75l106 667h74zM108 -60q19 0 31 -12t12 -30q0 -23 -18 -40.5t-41 -17.5q-19 0 -31 12t-12 31q0 22 18 39.5t41 17.5z" />
    <glyph glyph-name="uni1ECB" unicode="&#x1ecb;" horiz-adv-x="199" 
d="M205 443l-70 -443h-71l70 443h71zM201 642q19 0 31.5 -12t12.5 -31q0 -23 -18 -41t-42 -18q-19 0 -31.5 12t-12.5 32q0 22 18.5 40t41.5 18zM90 -60q19 0 31 -12t12 -30q0 -23 -18 -40.5t-41 -17.5q-19 0 -31 12t-12 31q0 22 18 39.5t41 17.5z" />
    <glyph glyph-name="uni1ECC" unicode="&#x1ecc;" horiz-adv-x="764" 
d="M493 679q122 0 204.5 -84t82.5 -208q0 -103 -56.5 -195.5t-150.5 -148t-199 -55.5q-67 0 -128 31t-101 85q-54 75 -54 178q0 156 122 276.5t280 120.5zM480 609q-124 0 -219 -97t-95 -225q0 -96 64 -162.5t158 -66.5q125 0 220.5 96.5t95.5 223.5q0 100 -63.5 165.5
t-160.5 65.5zM373 -60q19 0 31 -12t12 -30q0 -23 -18 -40.5t-41 -17.5q-18 0 -30 12t-12 31q0 22 17.5 39.5t40.5 17.5z" />
    <glyph glyph-name="uni1ECD" unicode="&#x1ecd;" horiz-adv-x="526" 
d="M338 455q84 0 138 -55t54 -140q0 -109 -80.5 -190.5t-188.5 -81.5q-86 0 -140 54.5t-54 141.5q0 110 80.5 190.5t190.5 80.5zM322 390q-76 0 -129.5 -59.5t-53.5 -142.5q0 -62 36 -98.5t97 -36.5q77 0 131.5 59t54.5 143q0 62 -36.5 98.5t-99.5 36.5zM254 -60
q19 0 31 -12t12 -30q0 -23 -18 -40.5t-41 -17.5q-18 0 -30 12t-12 31q0 22 17.5 39.5t40.5 17.5z" />
    <glyph glyph-name="uni1ECE" unicode="&#x1ece;" horiz-adv-x="764" 
d="M493 679q122 0 204.5 -84t82.5 -208q0 -103 -56.5 -195.5t-150.5 -148t-199 -55.5q-67 0 -128 31t-101 85q-54 75 -54 178q0 156 122 276.5t280 120.5zM480 609q-124 0 -219 -97t-95 -225q0 -96 64 -162.5t158 -66.5q125 0 220.5 96.5t95.5 223.5q0 100 -63.5 165.5
t-160.5 65.5zM536 721h-64q4 21 20 40l12 13q18 22 18 33q0 20 -29 20q-14 0 -38 -7l-12 51q38 13 67 13q37 0 58.5 -15.5t21.5 -41.5q0 -27 -24 -59l-19 -24q-10 -13 -11 -23z" />
    <glyph glyph-name="uni1ECF" unicode="&#x1ecf;" horiz-adv-x="526" 
d="M338 455q84 0 138 -55t54 -140q0 -109 -80.5 -190.5t-188.5 -81.5q-86 0 -140 54.5t-54 141.5q0 110 80.5 190.5t190.5 80.5zM322 390q-76 0 -129.5 -59.5t-53.5 -142.5q0 -62 36 -98.5t97 -36.5q77 0 131.5 59t54.5 143q0 62 -36.5 98.5t-99.5 36.5zM384 515h-63
q4 21 19 40l12 13q19 23 19 34q0 20 -30 20q-13 0 -38 -7l-12 50q37 14 68 14q37 0 58 -15.5t21 -42.5q0 -29 -24 -59l-19 -24q-9 -11 -11 -23z" />
    <glyph glyph-name="uni1ED0" unicode="&#x1ed0;" horiz-adv-x="764" 
d="M493 679q122 0 204.5 -84t82.5 -208q0 -103 -56.5 -195.5t-150.5 -148t-199 -55.5q-67 0 -128 31t-101 85q-54 75 -54 178q0 156 122 276.5t280 120.5zM480 609q-124 0 -219 -97t-95 -225q0 -96 64 -162.5t158 -66.5q125 0 220.5 96.5t95.5 223.5q0 100 -63.5 165.5
t-160.5 65.5zM615 777l28 -36l-56 -26l-78 87l-106 -87l-47 26l135 126h57l37 -50l103 117l64 -38z" />
    <glyph glyph-name="uni1ED1" unicode="&#x1ed1;" horiz-adv-x="526" 
d="M338 455q84 0 138 -55t54 -140q0 -109 -80.5 -190.5t-188.5 -81.5q-86 0 -140 54.5t-54 141.5q0 110 80.5 190.5t190.5 80.5zM322 390q-76 0 -129.5 -59.5t-53.5 -142.5q0 -62 36 -98.5t97 -36.5q77 0 131.5 59t54.5 143q0 62 -36.5 98.5t-99.5 36.5zM395 650l95 -126
l-56 -26l-78 87l-106 -87l-47 26l135 126h57zM641 743l-145 -126l-41 26l122 138z" />
    <glyph glyph-name="uni1ED2" unicode="&#x1ed2;" horiz-adv-x="764" 
d="M493 679q122 0 204.5 -84t82.5 -208q0 -103 -56.5 -195.5t-150.5 -148t-199 -55.5q-67 0 -128 31t-101 85q-54 75 -54 178q0 156 122 276.5t280 120.5zM480 609q-124 0 -219 -97t-95 -225q0 -96 64 -162.5t158 -66.5q125 0 220.5 96.5t95.5 223.5q0 100 -63.5 165.5
t-160.5 65.5zM509 802l-106 -87l-47 26l135 126h57l95 -126l-56 -26zM569 896l76 37l78 -137l-49 -26z" />
    <glyph glyph-name="uni1ED3" unicode="&#x1ed3;" horiz-adv-x="526" 
d="M338 455q84 0 138 -55t54 -140q0 -109 -80.5 -190.5t-188.5 -81.5q-86 0 -140 54.5t-54 141.5q0 110 80.5 190.5t190.5 80.5zM322 390q-76 0 -129.5 -59.5t-53.5 -142.5q0 -62 36 -98.5t97 -36.5q77 0 131.5 59t54.5 143q0 62 -36.5 98.5t-99.5 36.5zM356 585l-106 -87
l-47 26l135 126h57l95 -126l-56 -26zM383 743l76 38l78 -138l-49 -26z" />
    <glyph glyph-name="uni1ED4" unicode="&#x1ed4;" horiz-adv-x="764" 
d="M493 679q122 0 204.5 -84t82.5 -208q0 -103 -56.5 -195.5t-150.5 -148t-199 -55.5q-67 0 -128 31t-101 85q-54 75 -54 178q0 156 122 276.5t280 120.5zM480 609q-124 0 -219 -97t-95 -225q0 -96 64 -162.5t158 -66.5q125 0 220.5 96.5t95.5 223.5q0 100 -63.5 165.5
t-160.5 65.5zM548 867l95 -126l-56 -26l-78 87l-106 -87l-47 26l135 126h57zM694 770h-63q4 21 19 40l12 13q19 22 19 33q0 20 -29 20q-14 0 -39 -7l-12 51q38 13 68 13q37 0 58 -15.5t21 -41.5q0 -29 -24 -59l-19 -24q-9 -11 -11 -23z" />
    <glyph glyph-name="uni1ED5" unicode="&#x1ed5;" horiz-adv-x="526" 
d="M338 455q84 0 138 -55t54 -140q0 -109 -80.5 -190.5t-188.5 -81.5q-86 0 -140 54.5t-54 141.5q0 110 80.5 190.5t190.5 80.5zM322 390q-76 0 -129.5 -59.5t-53.5 -142.5q0 -62 36 -98.5t97 -36.5q77 0 131.5 59t54.5 143q0 62 -36.5 98.5t-99.5 36.5zM395 650l95 -126
l-56 -26l-78 87l-106 -87l-47 26l135 126h57zM521 617h-63q4 21 19 40l12 13q19 23 19 33q0 20 -30 20q-13 0 -38 -7l-12 51q38 13 68 13q37 0 58 -15.5t21 -41.5q0 -29 -24 -59l-19 -24q-9 -11 -11 -23z" />
    <glyph glyph-name="uni1ED6" unicode="&#x1ed6;" horiz-adv-x="764" 
d="M493 679q122 0 204.5 -84t82.5 -208q0 -103 -56.5 -195.5t-150.5 -148t-199 -55.5q-67 0 -128 31t-101 85q-54 75 -54 178q0 156 122 276.5t280 120.5zM480 609q-124 0 -219 -97t-95 -225q0 -96 64 -162.5t158 -66.5q125 0 220.5 96.5t95.5 223.5q0 100 -63.5 165.5
t-160.5 65.5zM505 777l-106 -87l-47 26l135 126h57l95 -126l-56 -26zM613 958l55 -13q-20 -85 -92 -85q-24 0 -65 19q-29 15 -40 15q-12 0 -19 -7.5t-14 -28.5l-54 14q11 40 35.5 62.5t57.5 22.5q24 0 66 -21q26 -13 40 -13q13 0 19 7t11 28z" />
    <glyph glyph-name="uni1ED7" unicode="&#x1ed7;" horiz-adv-x="526" 
d="M338 455q84 0 138 -55t54 -140q0 -109 -80.5 -190.5t-188.5 -81.5q-86 0 -140 54.5t-54 141.5q0 110 80.5 190.5t190.5 80.5zM322 390q-76 0 -129.5 -59.5t-53.5 -142.5q0 -62 36 -98.5t97 -36.5q77 0 131.5 59t54.5 143q0 62 -36.5 98.5t-99.5 36.5zM466 781l55 -13
q-20 -85 -92 -85q-26 0 -65 19q-31 14 -41 14q-12 0 -18.5 -7.5t-13.5 -27.5l-54 13q11 40 35.5 62.5t57.5 22.5q23 0 66 -21q27 -12 40 -12t19 7t11 28zM356 585l-106 -87l-47 26l135 126h57l95 -126l-56 -26z" />
    <glyph glyph-name="uni1ED8" unicode="&#x1ed8;" horiz-adv-x="764" 
d="M493 679q122 0 204.5 -84t82.5 -208q0 -103 -56.5 -195.5t-150.5 -148t-199 -55.5q-67 0 -128 31t-101 85q-54 75 -54 178q0 156 122 276.5t280 120.5zM480 609q-124 0 -219 -97t-95 -225q0 -96 64 -162.5t158 -66.5q125 0 220.5 96.5t95.5 223.5q0 100 -63.5 165.5
t-160.5 65.5zM509 802l-106 -87l-47 26l135 126h57l95 -126l-56 -26zM372 -60q19 0 31 -12t12 -30q0 -23 -18 -40.5t-41 -17.5q-18 0 -30 12t-12 31q0 22 17.5 39.5t40.5 17.5z" />
    <glyph glyph-name="uni1ED9" unicode="&#x1ed9;" horiz-adv-x="526" 
d="M338 455q84 0 138 -55t54 -140q0 -109 -80.5 -190.5t-188.5 -81.5q-86 0 -140 54.5t-54 141.5q0 110 80.5 190.5t190.5 80.5zM322 390q-76 0 -129.5 -59.5t-53.5 -142.5q0 -62 36 -98.5t97 -36.5q77 0 131.5 59t54.5 143q0 62 -36.5 98.5t-99.5 36.5zM254 -60
q19 0 31 -12t12 -30q0 -23 -18 -40.5t-41 -17.5q-18 0 -30 12t-12 31q0 22 17.5 39.5t40.5 17.5zM359 602l-106 -87l-48 26l136 126h56l95 -126l-55 -26z" />
    <glyph glyph-name="uni1EDA" unicode="&#x1eda;" horiz-adv-x="764" 
d="M750 719l54 25q41 -34 41 -85q0 -84 -96 -138q30 -62 30 -134q0 -102 -56.5 -195t-150 -148.5t-197.5 -55.5q-120 0 -202.5 84t-82.5 207q0 157 122.5 278.5t280.5 121.5q67 0 126 -28.5t99 -79.5q63 28 63 83q0 35 -31 65zM480 609q-124 0 -219 -97t-95 -225
q0 -97 64 -163t157 -66q125 0 220.5 96.5t95.5 223.5q0 100 -63.5 165.5t-159.5 65.5zM640 841l-145 -126l-40 26l121 137z" />
    <glyph glyph-name="uni1EDB" unicode="&#x1edb;" horiz-adv-x="560" 
d="M516 495l54 25q41 -33 41 -84q0 -77 -85 -132q4 -19 4 -42q0 -110 -80.5 -192t-188.5 -82q-85 0 -139.5 55t-54.5 141q0 109 80.5 190t189.5 81q115 0 169 -96q41 27 41 72q0 34 -31 64zM322 390q-76 0 -129.5 -59.5t-53.5 -142.5q0 -62 36 -98.5t97 -36.5q77 0 131 59
t54 143q0 62 -36.5 98.5t-98.5 36.5zM476 641l-145 -126l-41 26l122 138z" />
    <glyph glyph-name="uni1EDC" unicode="&#x1edc;" horiz-adv-x="764" 
d="M750 719l54 25q41 -34 41 -85q0 -84 -96 -138q30 -62 30 -134q0 -102 -56.5 -195t-150 -148.5t-197.5 -55.5q-120 0 -202.5 84t-82.5 207q0 157 122.5 278.5t280.5 121.5q67 0 126 -28.5t99 -79.5q63 28 63 83q0 35 -31 65zM480 609q-124 0 -219 -97t-95 -225
q0 -97 64 -163t157 -66q125 0 220.5 96.5t95.5 223.5q0 100 -63.5 165.5t-159.5 65.5zM390 841l76 37l78 -137l-49 -26z" />
    <glyph glyph-name="uni1EDD" unicode="&#x1edd;" horiz-adv-x="560" 
d="M516 495l54 25q41 -33 41 -84q0 -77 -85 -132q4 -19 4 -42q0 -110 -80.5 -192t-188.5 -82q-85 0 -139.5 55t-54.5 141q0 109 80.5 190t189.5 81q115 0 169 -96q41 27 41 72q0 34 -31 64zM322 390q-76 0 -129.5 -59.5t-53.5 -142.5q0 -62 36 -98.5t97 -36.5q77 0 131 59
t54 143q0 62 -36.5 98.5t-98.5 36.5zM240 641l76 38l78 -138l-49 -26z" />
    <glyph glyph-name="uni1EDE" unicode="&#x1ede;" horiz-adv-x="764" 
d="M750 719l54 25q41 -34 41 -85q0 -84 -96 -138q30 -62 30 -134q0 -102 -56.5 -195t-150 -148.5t-197.5 -55.5q-120 0 -202.5 84t-82.5 207q0 157 122.5 278.5t280.5 121.5q67 0 126 -28.5t99 -79.5q63 28 63 83q0 35 -31 65zM480 609q-124 0 -219 -97t-95 -225
q0 -97 64 -163t157 -66q125 0 220.5 96.5t95.5 223.5q0 100 -63.5 165.5t-159.5 65.5zM545 721h-64q3 19 20 40l12 13q18 21 18 33q0 20 -29 20q-14 0 -38 -7l-12 51q38 13 67 13q37 0 58.5 -15.5t21.5 -41.5q0 -27 -24 -59l-19 -24q-9 -11 -11 -23z" />
    <glyph glyph-name="uni1EDF" unicode="&#x1edf;" horiz-adv-x="560" 
d="M516 495l54 25q41 -33 41 -84q0 -77 -85 -132q4 -19 4 -42q0 -110 -80.5 -192t-188.5 -82q-85 0 -139.5 55t-54.5 141q0 109 80.5 190t189.5 81q115 0 169 -96q41 27 41 72q0 34 -31 64zM322 390q-76 0 -129.5 -59.5t-53.5 -142.5q0 -62 36 -98.5t97 -36.5q77 0 131 59
t54 143q0 62 -36.5 98.5t-98.5 36.5zM392 515h-64q4 21 20 40l11 13q19 22 19 34q0 20 -29 20q-14 0 -38 -7l-12 50q36 14 67 14q37 0 58.5 -15.5t21.5 -42.5q0 -29 -24 -59l-20 -24q-9 -14 -10 -23z" />
    <glyph glyph-name="uni1EE0" unicode="&#x1ee0;" horiz-adv-x="764" 
d="M750 719l54 25q41 -34 41 -85q0 -84 -96 -138q30 -62 30 -134q0 -102 -56.5 -195t-150 -148.5t-197.5 -55.5q-120 0 -202.5 84t-82.5 207q0 157 122.5 278.5t280.5 121.5q67 0 126 -28.5t99 -79.5q63 28 63 83q0 35 -31 65zM480 609q-124 0 -219 -97t-95 -225
q0 -97 64 -163t157 -66q125 0 220.5 96.5t95.5 223.5q0 100 -63.5 165.5t-159.5 65.5zM594 841l55 -14q-20 -85 -92 -85q-25 0 -64 19q-30 15 -41 15q-12 0 -18.5 -7.5t-13.5 -27.5l-55 13q24 85 93 85q24 0 67 -21q25 -13 40 -13q12 0 18.5 7.5t10.5 28.5z" />
    <glyph glyph-name="uni1EE1" unicode="&#x1ee1;" horiz-adv-x="560" 
d="M516 495l54 25q41 -33 41 -84q0 -77 -85 -132q4 -19 4 -42q0 -110 -80.5 -192t-188.5 -82q-85 0 -139.5 55t-54.5 141q0 109 80.5 190t189.5 81q115 0 169 -96q41 27 41 72q0 34 -31 64zM322 390q-76 0 -129.5 -59.5t-53.5 -142.5q0 -62 36 -98.5t97 -36.5q77 0 131 59
t54 143q0 62 -36.5 98.5t-98.5 36.5zM444 641l55 -14q-22 -85 -92 -85q-26 0 -65 19q-29 15 -41 15t-18.5 -7.5t-13.5 -27.5l-54 13q11 40 35.5 62.5t57.5 22.5q23 0 66 -21q26 -13 40 -13q13 0 19 7.5t11 28.5z" />
    <glyph glyph-name="uni1EE2" unicode="&#x1ee2;" horiz-adv-x="764" 
d="M750 719l54 25q41 -34 41 -85q0 -84 -96 -138q30 -62 30 -134q0 -102 -56.5 -195t-150 -148.5t-197.5 -55.5q-120 0 -202.5 84t-82.5 207q0 157 122.5 278.5t280.5 121.5q67 0 126 -28.5t99 -79.5q63 28 63 83q0 35 -31 65zM480 609q-124 0 -219 -97t-95 -225
q0 -97 64 -163t157 -66q125 0 220.5 96.5t95.5 223.5q0 100 -63.5 165.5t-159.5 65.5zM373 -60q19 0 31 -12t12 -30q0 -23 -18 -40.5t-41 -17.5q-18 0 -30 12t-12 31q0 22 17.5 39.5t40.5 17.5z" />
    <glyph glyph-name="uni1EE3" unicode="&#x1ee3;" horiz-adv-x="560" 
d="M516 495l54 25q41 -33 41 -84q0 -77 -85 -132q4 -19 4 -42q0 -110 -80.5 -192t-188.5 -82q-85 0 -139.5 55t-54.5 141q0 109 80.5 190t189.5 81q115 0 169 -96q41 27 41 72q0 34 -31 64zM322 390q-76 0 -129.5 -59.5t-53.5 -142.5q0 -62 36 -98.5t97 -36.5q77 0 131 59
t54 143q0 62 -36.5 98.5t-98.5 36.5zM254 -60q19 0 31 -12t12 -30q0 -23 -18 -40.5t-41 -17.5q-18 0 -30 12t-12 31q0 22 17.5 39.5t40.5 17.5z" />
    <glyph glyph-name="uni1EE4" unicode="&#x1ee4;" horiz-adv-x="635" 
d="M261 667l-66 -414q-7 -47 -7 -72q0 -55 38.5 -89t99.5 -34q44 0 86 19.5t67 51.5q16 20 25 46t17 78l66 414h74l-68 -434q-17 -98 -68 -154q-40 -43 -95.5 -67t-113.5 -24q-88 0 -146 51.5t-58 129.5q0 26 5 64l69 434h75zM309 -60q19 0 31 -12t12 -30q0 -23 -18 -40.5
t-41 -17.5q-18 0 -30 12t-12 31q0 22 17.5 39.5t40.5 17.5z" />
    <glyph glyph-name="uni1EE5" unicode="&#x1ee5;" horiz-adv-x="509" 
d="M375 0l8 50q-59 -62 -144 -62q-67 0 -108.5 40t-41.5 105q0 34 6 70l38 240h71l-36 -231q-6 -32 -6 -60q0 -46 24.5 -71t70.5 -25q66 0 106 42q32 33 47 124l35 221h71l-70 -443h-71zM233 -60q19 0 31 -12t12 -30q0 -23 -18 -40.5t-41 -17.5q-18 0 -30 12t-12 31
q0 22 17.5 39.5t40.5 17.5z" />
    <glyph glyph-name="uni1EE6" unicode="&#x1ee6;" horiz-adv-x="635" 
d="M261 667l-66 -414q-7 -47 -7 -72q0 -55 38.5 -89t99.5 -34q44 0 86 19.5t67 51.5q16 20 25 46t17 78l66 414h74l-68 -434q-17 -98 -68 -154q-40 -43 -95.5 -67t-113.5 -24q-88 0 -146 51.5t-58 129.5q0 26 5 64l69 434h75zM472 721h-64q4 21 20 40l12 13q18 22 18 33
q0 20 -29 20q-14 0 -38 -7l-12 51q36 13 67 13q37 0 58.5 -15.5t21.5 -41.5q0 -27 -24 -59l-20 -24q-9 -11 -10 -23z" />
    <glyph glyph-name="uni1EE7" unicode="&#x1ee7;" horiz-adv-x="509" 
d="M375 0l8 50q-59 -62 -144 -62q-67 0 -108.5 40t-41.5 105q0 34 6 70l38 240h71l-36 -231q-6 -32 -6 -60q0 -46 24.5 -71t70.5 -25q66 0 106 42q32 33 47 124l35 221h71l-70 -443h-71zM375 515h-63q4 21 19 40l12 13q19 22 19 34q0 20 -30 20q-13 0 -38 -7l-12 50
q37 14 68 14q37 0 58 -15.5t21 -42.5q0 -29 -24 -59l-19 -24q-9 -11 -11 -23z" />
    <glyph glyph-name="uni1EE8" unicode="&#x1ee8;" horiz-adv-x="664" 
d="M661 667l-14 -92q53 28 53 79q0 35 -30 65l54 25q40 -34 40 -85q0 -48 -34 -88.5t-94 -63.5l-43 -274q-15 -97 -68 -154q-40 -42 -95.5 -66.5t-113.5 -24.5q-88 0 -146 51.5t-58 129.5q0 26 5 64l69 434h75l-66 -414q-7 -47 -7 -72q0 -54 38.5 -88.5t99.5 -34.5
q44 0 86 19.5t67 51.5q16 20 25 46t17 78l66 414h74zM576 841l-145 -126l-40 26l121 137z" />
    <glyph glyph-name="uni1EE9" unicode="&#x1ee9;" horiz-adv-x="569" 
d="M516 443l-14 -92q53 29 53 79q0 34 -31 65l54 25q41 -34 41 -85q0 -48 -34 -88.5t-94 -63.5l-45 -283h-71l8 50q-59 -62 -144 -62q-67 0 -108.5 40t-41.5 105q0 34 6 70l38 240h71l-36 -231q-6 -32 -6 -60q0 -46 24.5 -71t70.5 -25q66 0 106 42q32 33 47 124l35 221h71z
M476 641l-145 -126l-41 26l122 138z" />
    <glyph glyph-name="uni1EEA" unicode="&#x1eea;" horiz-adv-x="664" 
d="M661 667l-14 -92q53 28 53 79q0 35 -30 65l54 25q40 -34 40 -85q0 -48 -34 -88.5t-94 -63.5l-43 -274q-15 -97 -68 -154q-40 -42 -95.5 -66.5t-113.5 -24.5q-88 0 -146 51.5t-58 129.5q0 26 5 64l69 434h75l-66 -414q-7 -47 -7 -72q0 -54 38.5 -88.5t99.5 -34.5
q44 0 86 19.5t67 51.5q16 20 25 46t17 78l66 414h74zM326 841l76 37l78 -137l-49 -26z" />
    <glyph glyph-name="uni1EEB" unicode="&#x1eeb;" horiz-adv-x="569" 
d="M516 443l-14 -92q53 29 53 79q0 34 -31 65l54 25q41 -34 41 -85q0 -48 -34 -88.5t-94 -63.5l-45 -283h-71l8 50q-59 -62 -144 -62q-67 0 -108.5 40t-41.5 105q0 34 6 70l38 240h71l-36 -231q-6 -32 -6 -60q0 -46 24.5 -71t70.5 -25q66 0 106 42q32 33 47 124l35 221h71z
M226 641l76 38l78 -138l-49 -26z" />
    <glyph glyph-name="uni1EEC" unicode="&#x1eec;" horiz-adv-x="664" 
d="M661 667l-14 -92q53 28 53 79q0 35 -30 65l54 25q40 -34 40 -85q0 -48 -34 -88.5t-94 -63.5l-43 -274q-15 -97 -68 -154q-40 -42 -95.5 -66.5t-113.5 -24.5q-88 0 -146 51.5t-58 129.5q0 26 5 64l69 434h75l-66 -414q-7 -47 -7 -72q0 -54 38.5 -88.5t99.5 -34.5
q44 0 86 19.5t67 51.5q16 20 25 46t17 78l66 414h74zM479 721h-63q4 21 19 40l12 13q19 23 19 33q0 20 -30 20q-13 0 -38 -7l-12 51q38 13 67 13q37 0 58.5 -15.5t21.5 -41.5q0 -29 -24 -59l-19 -24q-9 -11 -11 -23z" />
    <glyph glyph-name="uni1EED" unicode="&#x1eed;" horiz-adv-x="569" 
d="M516 443l-14 -92q53 29 53 79q0 34 -31 65l54 25q41 -34 41 -85q0 -48 -34 -88.5t-94 -63.5l-45 -283h-71l8 50q-59 -62 -144 -62q-67 0 -108.5 40t-41.5 105q0 34 6 70l38 240h71l-36 -231q-6 -32 -6 -60q0 -46 24.5 -71t70.5 -25q66 0 106 42q32 33 47 124l35 221h71z
M378 515h-64q5 23 20 40l12 13q18 22 18 34q0 20 -29 20q-14 0 -38 -7l-12 50q36 14 67 14q37 0 58.5 -15.5t21.5 -42.5t-24 -59l-19 -24q-9 -11 -11 -23z" />
    <glyph glyph-name="uni1EEE" unicode="&#x1eee;" horiz-adv-x="664" 
d="M661 667l-14 -92q53 28 53 79q0 35 -30 65l54 25q40 -34 40 -85q0 -48 -34 -88.5t-94 -63.5l-43 -274q-15 -97 -68 -154q-40 -42 -95.5 -66.5t-113.5 -24.5q-88 0 -146 51.5t-58 129.5q0 26 5 64l69 434h75l-66 -414q-7 -47 -7 -72q0 -54 38.5 -88.5t99.5 -34.5
q44 0 86 19.5t67 51.5q16 20 25 46t17 78l66 414h74zM530 841l55 -14q-21 -85 -92 -85q-25 0 -64 19q-30 15 -41 15q-12 0 -19 -7.5t-13 -27.5l-55 13q24 85 93 85q24 0 66 -21q26 -13 41 -13q12 0 18.5 7.5t10.5 28.5z" />
    <glyph glyph-name="uni1EEF" unicode="&#x1eef;" horiz-adv-x="569" 
d="M516 443l-14 -92q53 29 53 79q0 34 -31 65l54 25q41 -34 41 -85q0 -48 -34 -88.5t-94 -63.5l-45 -283h-71l8 50q-59 -62 -144 -62q-67 0 -108.5 40t-41.5 105q0 34 6 70l38 240h71l-36 -231q-6 -32 -6 -60q0 -46 24.5 -71t70.5 -25q66 0 106 42q32 33 47 124l35 221h71z
M435 641l55 -14q-20 -85 -92 -85q-26 0 -65 19q-29 15 -41 15t-18.5 -7.5t-13.5 -27.5l-54 13q11 40 35.5 62.5t57.5 22.5q23 0 66 -21q26 -13 40 -13q13 0 19 7.5t11 28.5z" />
    <glyph glyph-name="uni1EF0" unicode="&#x1ef0;" horiz-adv-x="664" 
d="M661 667l-14 -92q53 28 53 79q0 35 -30 65l54 25q40 -34 40 -85q0 -48 -34 -88.5t-94 -63.5l-43 -274q-15 -97 -68 -154q-40 -42 -95.5 -66.5t-113.5 -24.5q-88 0 -146 51.5t-58 129.5q0 26 5 64l69 434h75l-66 -414q-7 -47 -7 -72q0 -54 38.5 -88.5t99.5 -34.5
q44 0 86 19.5t67 51.5q16 20 25 46t17 78l66 414h74zM309 -60q19 0 31 -12t12 -30q0 -23 -18 -40.5t-41 -17.5q-18 0 -30 12t-12 31q0 22 17.5 39.5t40.5 17.5z" />
    <glyph glyph-name="uni1EF1" unicode="&#x1ef1;" horiz-adv-x="569" 
d="M516 443l-14 -92q53 29 53 79q0 34 -31 65l54 25q41 -34 41 -85q0 -48 -34 -88.5t-94 -63.5l-45 -283h-71l8 50q-59 -62 -144 -62q-67 0 -108.5 40t-41.5 105q0 34 6 70l38 240h71l-36 -231q-6 -32 -6 -60q0 -46 24.5 -71t70.5 -25q66 0 106 42q32 33 47 124l35 221h71z
M245 -60q19 0 31 -12t12 -30q0 -23 -18 -40.5t-41 -17.5q-18 0 -30 12t-12 31q0 22 17.5 39.5t40.5 17.5z" />
    <glyph glyph-name="Ygrave" unicode="&#x1ef2;" horiz-adv-x="507" 
d="M260 278l-154 389h82l121 -318l223 318h81l-278 -389l-44 -278h-75zM269 841l76 37l78 -137l-49 -26z" />
    <glyph glyph-name="ygrave" unicode="&#x1ef3;" horiz-adv-x="441" 
d="M184 19l-113 424h77l87 -337l200 337h76l-404 -677h-73zM204 641l76 38l78 -138l-49 -26z" />
    <glyph glyph-name="uni1EF4" unicode="&#x1ef4;" horiz-adv-x="507" 
d="M260 278l-154 389h82l121 -318l223 318h81l-278 -389l-44 -278h-75zM244 -60q19 0 31 -12t12 -30q0 -23 -18 -40.5t-41 -17.5q-18 0 -30 12t-12 31q0 22 17.5 39.5t40.5 17.5z" />
    <glyph glyph-name="uni1EF5" unicode="&#x1ef5;" horiz-adv-x="441" 
d="M184 19l-113 424h77l87 -337l200 337h76l-404 -677h-73zM314 -60q19 0 31 -12t12 -30q0 -23 -18 -40.5t-41 -17.5q-18 0 -30 12t-12 31q0 22 17.5 39.5t40.5 17.5z" />
    <glyph glyph-name="uni1EF6" unicode="&#x1ef6;" horiz-adv-x="507" 
d="M260 278l-154 389h82l121 -318l223 318h81l-278 -389l-44 -278h-75zM407 721h-63q4 21 19 40l12 13q19 22 19 33q0 20 -30 20q-13 0 -38 -7l-12 51q38 13 68 13q37 0 58 -15.5t21 -41.5q0 -29 -24 -59l-19 -24q-9 -11 -11 -23z" />
    <glyph glyph-name="uni1EF7" unicode="&#x1ef7;" horiz-adv-x="441" 
d="M184 19l-113 424h77l87 -337l200 337h76l-404 -677h-73zM342 515h-64q4 21 20 40l12 13q18 22 18 34q0 20 -29 20q-14 0 -38 -7l-12 50q36 14 67 14q37 0 58.5 -15.5t21.5 -42.5t-24 -59l-19 -24q-10 -13 -11 -23z" />
    <glyph glyph-name="uni1EF8" unicode="&#x1ef8;" horiz-adv-x="507" 
d="M260 278l-154 389h82l121 -318l223 318h81l-278 -389l-44 -278h-75zM466 841l55 -14q-21 -85 -92 -85q-26 0 -65 19q-29 15 -40 15q-13 0 -19.5 -7.5t-13.5 -27.5l-54 13q24 85 93 85q23 0 66 -21q26 -13 40 -13q13 0 19 7.5t11 28.5z" />
    <glyph glyph-name="uni1EF9" unicode="&#x1ef9;" horiz-adv-x="441" 
d="M184 19l-113 424h77l87 -337l200 337h76l-404 -677h-73zM401 641l55 -14q-20 -85 -92 -85q-25 0 -64 19q-30 15 -41 15q-12 0 -18.5 -7.5t-13.5 -27.5l-55 13q11 40 35.5 62.5t57.5 22.5q24 0 66 -21q26 -13 41 -13q12 0 18 7.5t11 28.5z" />
    <glyph glyph-name="uni2002" unicode="&#x2002;" horiz-adv-x="500" 
 />
    <glyph glyph-name="uni2003" unicode="&#x2003;" horiz-adv-x="1000" 
 />
    <glyph glyph-name="uni2004" unicode="&#x2004;" horiz-adv-x="333" 
 />
    <glyph glyph-name="uni2005" unicode="&#x2005;" horiz-adv-x="250" 
 />
    <glyph glyph-name="uni2006" unicode="&#x2006;" horiz-adv-x="67" 
 />
    <glyph glyph-name="uni2007" unicode="&#x2007;" horiz-adv-x="556" 
 />
    <glyph glyph-name="uni2009" unicode="&#x2009;" horiz-adv-x="125" 
 />
    <glyph glyph-name="uni200A" unicode="&#x200a;" horiz-adv-x="33" 
 />
    <glyph glyph-name="uni2011" unicode="&#x2011;" horiz-adv-x="255" 
d="M78 262h182l-10 -64h-182z" />
    <glyph glyph-name="figuredash" unicode="&#x2012;" horiz-adv-x="566" 
d="M158 262h333l-10 -64h-333z" />
    <glyph glyph-name="endash" unicode="&#x2013;" horiz-adv-x="566" 
d="M158 262h333l-10 -64h-333z" />
    <glyph glyph-name="emdash" unicode="&#x2014;" horiz-adv-x="617" 
d="M78 262h544l-10 -64h-544z" />
    <glyph glyph-name="afii00208" unicode="&#x2015;" horiz-adv-x="617" 
d="M78 262h544l-10 -64h-544z" />
    <glyph glyph-name="underscoredbl" unicode="&#x2017;" horiz-adv-x="500" 
d="M-10 -65h500l-9 -52h-500zM-27 -168h500l-8 -52h-500z" />
    <glyph glyph-name="quoteleft" unicode="&#x2018;" horiz-adv-x="261" 
d="M194 451l-62 24l136 225l45 -19z" />
    <glyph glyph-name="quoteright" unicode="&#x2019;" horiz-adv-x="228" 
d="M227 700l62 -24l-136 -225l-45 19z" />
    <glyph glyph-name="quotesinglbase" unicode="&#x201a;" horiz-adv-x="228" 
d="M132 98l62 -24l-136 -226l-45 19z" />
    <glyph glyph-name="quotereversed" unicode="&#x201b;" horiz-adv-x="228" 
d="M222 700l47 -230l-51 -19l-65 225z" />
    <glyph glyph-name="quotedblleft" unicode="&#x201c;" horiz-adv-x="408" 
d="M340 451l-62 24l137 225l44 -19zM194 451l-62 24l136 225l45 -19z" />
    <glyph glyph-name="quotedblright" unicode="&#x201d;" horiz-adv-x="408" 
d="M250 700l62 -24l-136 -225l-45 19zM397 700l61 -24l-136 -225l-45 19z" />
    <glyph glyph-name="quotedblbase" unicode="&#x201e;" horiz-adv-x="408" 
d="M155 98l62 -24l-136 -226l-45 19zM302 98l61 -24l-136 -226l-45 19z" />
    <glyph glyph-name="dagger" unicode="&#x2020;" 
d="M344 665h72l-35 -222h150l-11 -69h-150l-88 -558h-72l88 558h-150l11 69h150z" />
    <glyph glyph-name="daggerdbl" unicode="&#x2021;" 
d="M244 37h-150l11 69h150l42 268h-150l11 69h150l35 222h72l-35 -222h150l-11 -69h-150l-42 -268h150l-11 -69h-150l-35 -221h-72z" />
    <glyph glyph-name="bullet" unicode="&#x2022;" horiz-adv-x="480" 
d="M317 473q50 0 84 -34t34 -84q0 -64 -50 -113t-116 -49q-51 0 -84.5 33.5t-33.5 84.5q0 64 50 113t116 49z" />
    <glyph glyph-name="ellipsis" unicode="&#x2026;" horiz-adv-x="746" 
d="M138 89q18 0 30 -12t12 -30q0 -23 -17 -40t-40 -17q-19 0 -30.5 12t-11.5 31q0 22 17.5 39t39.5 17zM636 89q18 0 30 -12t12 -30q0 -23 -17.5 -40t-40.5 -17q-18 0 -30 12t-12 31q0 22 17.5 39t40.5 17zM387 89q18 0 30 -12t12 -30q0 -23 -17.5 -40t-40.5 -17
q-18 0 -30 12t-12 31q0 22 17.5 39t40.5 17z" />
    <glyph glyph-name="perthousand" unicode="&#x2030;" horiz-adv-x="1265" 
d="M761 402q127 0 127 -135q0 -109 -42 -185q-48 -89 -148 -89q-63 0 -95.5 34.5t-32.5 99.5q0 113 42 186q48 89 149 89zM752 351q-64 0 -97 -72q-27 -62 -27 -139q0 -96 77 -96q64 0 97 72q27 64 27 140q0 95 -77 95zM730 679l38 -24l-492 -667l-37 23zM310 674
q127 0 127 -135q0 -109 -42 -185q-48 -89 -148 -89q-128 0 -128 133q0 113 41 187q50 89 150 89zM302 623q-65 0 -98 -72q-27 -60 -27 -139q0 -96 77 -96q65 0 98 72q27 64 27 140q0 95 -77 95zM1124 402q128 0 128 -135q0 -109 -42 -185q-48 -89 -149 -89q-128 0 -128 134
q0 112 42 186q48 89 149 89zM1116 351q-65 0 -98 -72q-27 -60 -27 -139q0 -96 77 -96q65 0 98 72q27 60 27 140q0 95 -77 95z" />
    <glyph glyph-name="minute" unicode="&#x2032;" horiz-adv-x="172" 
d="M160 700l62 -24l-136 -225l-45 19z" />
    <glyph glyph-name="second" unicode="&#x2033;" horiz-adv-x="318" 
d="M160 700l62 -24l-136 -225l-45 19zM307 700l61 -24l-136 -225l-45 19z" />
    <glyph glyph-name="guilsinglleft" unicode="&#x2039;" horiz-adv-x="283" 
d="M149 221l95 -146l-52 -37l-120 183l179 188l40 -37z" />
    <glyph glyph-name="guilsinglright" unicode="&#x203a;" horiz-adv-x="283" 
d="M205 221l-95 151l52 37l120 -188l-178 -183l-41 37z" />
    <glyph glyph-name="uni203E" unicode="&#x203e;" horiz-adv-x="500" 
d="M131 831h500l-10 -66h-500z" />
    <glyph glyph-name="fraction" unicode="&#x2044;" horiz-adv-x="180" 
d="M369 679l38 -24l-492 -667l-37 23z" />
    <glyph glyph-name="zerosuperior" unicode="&#x2070;" horiz-adv-x="387" 
d="M321 808q62 0 94.5 -34.5t32.5 -100.5q0 -109 -42 -185q-48 -89 -148 -89q-128 0 -128 133q0 113 41 187q50 89 150 89zM312 757q-64 0 -97 -72q-27 -62 -27 -139q0 -96 77 -96q65 0 98 72q27 64 27 140q0 95 -78 95z" />
    <glyph glyph-name="foursuperior" unicode="&#x2074;" horiz-adv-x="387" 
d="M392 783l-194 -241h114l16 102h57l-17 -102h50l-8 -51h-50l-13 -85h-56l13 85h-178l8 52l216 268z" />
    <glyph glyph-name="fivesuperior" unicode="&#x2075;" horiz-adv-x="387" 
d="M282 750l-32 -84q22 5 39 5q53 0 87 -31.5t34 -81.5q0 -63 -50 -111t-116 -48q-70 0 -105 48q-1 3 -6 11t-9 17l51 31l2 -6q16 -50 73 -50q42 0 72.5 29.5t30.5 69.5q0 32 -21 52t-54 20q-36 0 -65 -25l-42 9l72 196h187l-8 -51h-140z" />
    <glyph glyph-name="sixsuperior" unicode="&#x2076;" horiz-adv-x="387" 
d="M347 811l38 -32l-101 -114q8 1 19 1q50 0 83.5 -31t33.5 -78q0 -63 -49.5 -110.5t-114.5 -47.5q-53 0 -87.5 33t-34.5 83q0 58 47 111zM289 616q-40 0 -69.5 -28.5t-29.5 -67.5q0 -31 20.5 -50.5t52.5 -19.5q40 0 70 29t30 69q0 30 -20.5 49t-53.5 19z" />
    <glyph glyph-name="sevensuperior" unicode="&#x2077;" horiz-adv-x="387" 
d="M390 750h-200l8 51h266l-7 -42l-257 -363l-45 25z" />
    <glyph glyph-name="eightsuperior" unicode="&#x2078;" horiz-adv-x="387" 
d="M210 616q-28 28 -28 65q0 52 41.5 89.5t97.5 37.5q47 0 76 -26t29 -68q0 -56 -54 -98q39 -33 39 -77q0 -58 -45.5 -99t-109.5 -41q-52 0 -84 28t-32 73q0 69 70 116zM285 587q-37 0 -62.5 -23t-25.5 -56q0 -26 18.5 -42t48.5 -16q38 0 64 23t26 56q0 27 -18.5 42.5
t-50.5 15.5zM313 758q-32 0 -55 -20.5t-23 -49.5q0 -23 16.5 -37t42.5 -14q33 0 56 20.5t23 49.5q0 23 -16.5 37t-43.5 14z" />
    <glyph glyph-name="ninesuperior" unicode="&#x2079;" horiz-adv-x="387" 
d="M231 396l-39 31l104 116q-9 -1 -19 -1q-52 0 -85.5 30.5t-33.5 78.5q0 62 50 109.5t114 47.5q53 0 87.5 -33t34.5 -83q0 -58 -48 -112zM315 757q-40 0 -70 -29.5t-30 -68.5q0 -30 20.5 -48.5t53.5 -18.5q41 0 70 28t29 67q0 31 -20.5 50.5t-52.5 19.5z" />
    <glyph glyph-name="zeroinferior" unicode="&#x2080;" horiz-adv-x="387" 
d="M236 272q62 0 94.5 -34.5t32.5 -99.5q0 -110 -42 -186q-48 -89 -148 -89q-128 0 -128 134q0 113 42 186q48 89 149 89zM227 221q-64 0 -97 -72q-27 -62 -27 -139q0 -96 77 -96q64 0 97 72q27 64 27 140q0 95 -77 95z" />
    <glyph glyph-name="oneinferior" unicode="&#x2081;" horiz-adv-x="387" 
d="M217 -130h-56l52 331l-64 -33l-20 45l103 52h48z" />
    <glyph glyph-name="twoinferior" unicode="&#x2082;" horiz-adv-x="387" 
d="M46 -130l7 46l174 160q59 54 59 97q0 22 -15.5 35t-42.5 13q-32 0 -52 -14.5t-35 -49.5l-50 14q41 101 147 101q47 0 75.5 -25t28.5 -66q0 -64 -60 -121l-151 -139h180l-8 -51h-257z" />
    <glyph glyph-name="threeinferior" unicode="&#x2083;" horiz-adv-x="387" 
d="M178 103h23q37 0 59 18.5t22 49.5q0 49 -56 49q-24 0 -40.5 -8.5t-38.5 -33.5l-43 26q54 68 131 68q47 0 75 -25t28 -67q0 -63 -52 -99q33 -29 33 -74q0 -60 -44.5 -101.5t-109.5 -41.5q-46 0 -75.5 23.5t-36.5 65.5l-1 14l57 15q4 -37 18.5 -51.5t46.5 -14.5
q37 0 62.5 23.5t25.5 57.5q0 54 -69 54h-23z" />
    <glyph glyph-name="fourinferior" unicode="&#x2084;" horiz-adv-x="387" 
d="M307 247l-194 -240h114l16 101h57l-17 -101h50l-8 -51h-50l-13 -86h-57l14 86h-178l8 52l216 267z" />
    <glyph glyph-name="fiveinferior" unicode="&#x2085;" horiz-adv-x="387" 
d="M197 214l-32 -84q22 5 39 5q53 0 87 -31.5t34 -81.5q0 -63 -50 -111t-116 -48q-71 0 -105 49q-6 10 -15 27l51 32q2 -6 2 -7q17 -50 73 -50q42 0 72.5 29.5t30.5 69.5q0 32 -21 52t-54 20q-36 0 -65 -25l-42 9l72 196h187l-8 -51h-140z" />
    <glyph glyph-name="sixinferior" unicode="&#x2086;" horiz-adv-x="387" 
d="M262 275l38 -32l-101 -114q16 2 19 2q50 0 83.5 -31t33.5 -79q0 -62 -49.5 -109.5t-114.5 -47.5q-53 0 -87.5 33t-34.5 83q0 57 47 110zM204 81q-40 0 -69.5 -28.5t-29.5 -67.5q0 -31 20.5 -50.5t52.5 -19.5q40 0 70 29t30 69q0 30 -20.5 49t-53.5 19z" />
    <glyph glyph-name="seveninferior" unicode="&#x2087;" horiz-adv-x="387" 
d="M305 214h-200l8 51h266l-7 -42l-257 -362l-45 25z" />
    <glyph glyph-name="eightinferior" unicode="&#x2088;" horiz-adv-x="387" 
d="M125 81q-28 28 -28 65q0 51 41.5 88.5t97.5 37.5q47 0 76 -26t29 -68q0 -55 -54 -97q39 -33 39 -77q0 -58 -45.5 -99t-109.5 -41q-52 0 -84 28t-32 73q0 69 70 116zM200 52q-37 0 -63 -23t-26 -56q0 -26 18.5 -42t49.5 -16q38 0 64 23t26 56q0 27 -18.5 42.5t-50.5 15.5z
M229 222q-33 0 -56 -20.5t-23 -49.5q0 -22 16.5 -36t42.5 -14q33 0 56 20t23 49q0 23 -16.5 37t-42.5 14z" />
    <glyph glyph-name="nineinferior" unicode="&#x2089;" horiz-adv-x="387" 
d="M146 -139l-39 31l104 116q-9 -1 -19 -1q-52 0 -85.5 30.5t-33.5 78.5q0 61 50 108.5t114 47.5q53 0 87.5 -33t34.5 -83q0 -57 -48 -111zM230 221q-40 0 -70 -29t-30 -68q0 -30 20.5 -48.5t53.5 -18.5q41 0 70 28t29 67q0 30 -20.5 49.5t-52.5 19.5z" />
    <glyph glyph-name="franc" unicode="&#x20a3;" horiz-adv-x="689" 
d="M535 598h-246l-35 -225h178l-11 -69h-178l-48 -304h-75l106 667h320zM536 373l-8 -50q50 51 128 51q10 0 19 -1l-10 -65q-9 1 -19 1q-47 0 -79 -22q-28 -20 -42.5 -51t-24.5 -93l-23 -143h-71l59 373h71z" />
    <glyph glyph-name="lira" unicode="&#x20a4;" horiz-adv-x="559" 
d="M450 235h-181q-2 -61 -18.5 -94.5t-61.5 -71.5h331l-11 -69h-434l11 69q63 44 85 77t24 89h-83l10 63h71q0 6 -0.5 14.5t-1 13.5t-0.5 7q0 10 -0.5 18t-1 12t-0.5 6h-56l10 63h47q1 27 10 67q20 82 81.5 131t144.5 49q109 0 154 -105l-65 -39q-32 75 -102 75
q-51 0 -88 -29.5t-51 -81.5q-10 -40 -10 -67h217l-10 -63h-206q2 -47 4 -71h191z" />
    <glyph glyph-name="peseta" unicode="&#x20a7;" horiz-adv-x="603" 
d="M632 438h-58q-57 -172 -255 -168h-62l-42 -270h-75l69 438h-56l10 63h56l27 166h136q115 0 161 -49q41 -44 41 -111v-6h58zM500 438h-216l-16 -100h71q64 -1 103 23.5t58 76.5zM294 501h215q-3 51 -34 74.5t-95 22.5h-71z" />
    <glyph glyph-name="uni20AB" unicode="&#x20ab;" horiz-adv-x="562" 
d="M507 585l12 82h72l-13 -82h60l-10 -64h-60l-83 -521h-71l9 58q-75 -70 -167 -70q-83 0 -136.5 55t-53.5 140q0 109 80 190.5t187 81.5q88 0 142 -70l21 136h-120l11 64h120zM320 390q-75 0 -128.5 -59.5t-53.5 -142.5q0 -61 36 -98t96 -37q76 0 129 59t53 144
q0 62 -35.5 98t-96.5 36zM29 -65h500l-10 -66h-500z" />
    <glyph glyph-name="Euro" unicode="&#x20ac;" horiz-adv-x="796" 
d="M203 233h-99l37 67h60q2 35 10 66h-86l37 67h73q55 114 153.5 180t214.5 66q127 0 215 -99l-38 -68q-81 97 -190 97q-86 0 -158 -46t-119 -130h423l-37 -67h-412q-9 -36 -11 -66h386l-37 -67h-344q17 -79 78 -127t144 -48q58 0 108 22.5t113 76.5l-15 -96
q-100 -73 -214 -73q-117 0 -194.5 65.5t-97.5 179.5z" />
    <glyph glyph-name="uni20B4" unicode="&#x20b4;" horiz-adv-x="610" 
d="M131 298h68q40 38 124 69l4 2h-185l10 63h314q41 35 41 82q0 43 -29 69.5t-76 26.5q-71 0 -132 -75l-53 39q81 105 194 105q76 0 123.5 -42t47.5 -110q0 -51 -26 -95h39l-10 -63h-94q-35 -23 -75 -37l-67 -25q-8 -3 -22 -9h247l-10 -63h-332q-19 -29 -19 -66
q0 -49 32.5 -80t82.5 -31q104 0 155 122l69 -20q-32 -82 -93 -127t-140 -45q-80 0 -131 48t-51 123q0 37 15 76h-31z" />
    <glyph glyph-name="uni2101" unicode="&#x2101;" horiz-adv-x="950" 
d="M919 333l-50 -28q-23 44 -64 44q-31 0 -54 -19.5t-23 -45.5q0 -29 47 -47l37 -15q81 -32 81 -91q0 -55 -46.5 -96.5t-107.5 -41.5q-39 0 -68 19t-39 53q-4 15 -6 37l57 14q4 -26 7 -34q14 -37 59 -37q34 0 60 23.5t26 54.5q0 32 -56 54l-36 14q-72 28 -72 85
q0 51 42.5 88t100.5 37q39 0 62.5 -15.5t42.5 -52.5zM232 380l-60 -109h-59l221 396h65l81 -335l-45 -61l-26 109h-177zM261 432h136l-41 171zM802 679l37 -24l-491 -667l-38 23z" />
    <glyph glyph-name="afii61248" unicode="&#x2105;" horiz-adv-x="1055" 
d="M530 607l-45 -38q-25 31 -47.5 42t-57.5 11q-73 0 -127 -53t-54 -124q0 -56 37.5 -92t95.5 -36q34 0 60.5 11.5t63.5 42.5l33 -37q-81 -69 -165 -69q-80 0 -131.5 49t-51.5 125q0 93 75 164t173 71q65 0 110 -36q10 -8 31 -31zM840 401q76 0 127.5 -50t51.5 -124
q0 -92 -75.5 -163t-172.5 -71q-76 0 -126.5 50t-50.5 125q0 92 74.5 162.5t171.5 70.5zM831 349q-71 0 -125.5 -53.5t-54.5 -123.5q0 -53 37.5 -90t91.5 -37q72 0 126.5 53t54.5 123q0 55 -37 91.5t-93 36.5zM804 679l37 -24l-491 -667l-38 23z" />
    <glyph glyph-name="uni2117" unicode="&#x2117;" horiz-adv-x="857" 
d="M376 286v-178h-64v450h120q78 0 115 -34q43 -40 43 -104q0 -63 -43 -101q-37 -33 -115 -33h-56zM376 345h62q88 0 88 77t-88 77h-62v-154zM435 712q152 0 262 -112t110 -266q0 -157 -110.5 -268t-267.5 -111q-158 0 -268.5 111t-110.5 270q0 157 112 266.5t273 109.5z
M423 657q-130 0 -224 -95.5t-94 -227.5q0 -134 94.5 -229t228.5 -95q135 0 229.5 95t94.5 231q0 134 -96 227.5t-233 93.5z" />
    <glyph glyph-name="trademark" unicode="&#x2122;" horiz-adv-x="695" 
d="M311 361v312h42l117 -198l117 198h42v-312h-41v241l-100 -172h-36l-100 172v-241h-41zM191 636v-275h-41v275h-83v37h207v-37h-83z" />
    <glyph glyph-name="uni2126" unicode="&#x2126;" horiz-adv-x="800" 
d="M473 0v121q89 26 140.5 90.5t51.5 148.5q0 104 -77.5 176.5t-187.5 72.5t-187.5 -72.5t-77.5 -176.5q0 -84 52 -148.5t140 -90.5v-121h-250v69h175v3q-87 40 -139.5 118.5t-52.5 168.5q0 131 100.5 225.5t239.5 94.5t239.5 -94.5t100.5 -225.5q0 -90 -52.5 -168.5
t-139.5 -118.5v-3h175v-69h-250z" />
    <glyph glyph-name="estimated" unicode="&#x212e;" horiz-adv-x="740" 
d="M669 323h-496v-138q25 -67 56 -94q51 -46 144 -46q158 0 219 137h57q-60 -194 -277 -194q-142 0 -222 90.5t-80 249.5q0 167 86 261q84 90 218 90q94 0 165.5 -44.5t102.5 -123.5q26 -65 27 -188zM576 368v122q-13 33 -30 54q-64 78 -175 78q-73 0 -115.5 -28.5
t-82.5 -103.5v-122h403z" />
    <glyph glyph-name="onethird" unicode="&#x2153;" horiz-adv-x="833" 
d="M653 679l38 -24l-492 -667l-37 23zM631 232h23q37 0 59 19t22 50q0 23 -15 36t-41 13q-24 0 -40.5 -9t-38.5 -33l-43 25q55 68 131 68q47 0 75 -25t28 -67q0 -61 -52 -99q33 -27 33 -74q0 -60 -44.5 -101.5t-109.5 -41.5q-96 0 -112 89l-1 15l57 14q5 -36 19.5 -51
t45.5 -15q37 0 62.5 23.5t25.5 57.5q0 55 -69 55h-23zM245 272h-56l52 331l-64 -33l-20 45l103 52h48z" />
    <glyph glyph-name="twothirds" unicode="&#x2154;" horiz-adv-x="833" 
d="M701 679l37 -24l-491 -667l-38 23zM99 271l7 46l174 160q59 54 59 96q0 22 -15.5 35t-42.5 13q-32 0 -51.5 -14t-35.5 -48l-50 14q42 100 147 100q47 0 75.5 -24.5t28.5 -65.5q0 -65 -60 -122l-151 -139h180l-8 -51h-257zM631 232h24q37 0 59 19t22 50q0 23 -15 36
t-41 13q-24 0 -40.5 -9t-38.5 -33l-43 25q54 68 131 68q47 0 75 -25t28 -67q0 -62 -53 -99q34 -27 34 -74q0 -60 -44.5 -101.5t-109.5 -41.5q-96 0 -112 89l-1 15l57 14q4 -36 18.5 -51t45.5 -15q37 0 63 23.5t26 57.5q0 55 -69 55h-24z" />
    <glyph glyph-name="oneeighth" unicode="&#x215b;" horiz-adv-x="833" 
d="M653 679l38 -24l-491 -667l-38 23zM245 271h-56l52 331l-64 -33l-20 45l103 52h48zM570 210q-28 31 -28 66q0 51 41.5 88.5t98.5 37.5q47 0 76 -26t29 -68q0 -56 -54 -98q39 -33 39 -77q0 -58 -45.5 -99t-109.5 -41q-52 0 -84 28t-32 73q0 69 69 116zM646 181
q-37 0 -63 -23t-26 -56q0 -26 18.5 -42t49.5 -16q38 0 64 23t26 56q0 27 -18.5 42.5t-50.5 15.5zM674 352q-33 0 -56 -20.5t-23 -49.5q0 -23 16.5 -37t43.5 -14q33 0 56 20.5t23 49.5q0 23 -16.5 37t-43.5 14z" />
    <glyph glyph-name="threeeighths" unicode="&#x215c;" horiz-adv-x="833" 
d="M561 210q-28 31 -28 66q0 51 41.5 88.5t98.5 37.5q47 0 76 -26t29 -68q0 -56 -54 -98q39 -32 39 -77q0 -58 -45.5 -99t-109.5 -41q-52 0 -84 28t-32 73q0 69 69 116zM637 181q-37 0 -63 -23t-26 -56q0 -26 18.5 -42t49.5 -16q38 0 64 23t26 56q0 27 -18.5 42.5
t-50.5 15.5zM665 352q-33 0 -56 -20.5t-23 -49.5q0 -23 16.5 -37t43.5 -14q33 0 56 20.5t23 49.5q0 23 -16.5 37t-43.5 14zM236 504h23q37 0 59 19t22 50q0 23 -15 36t-41 13q-24 0 -40.5 -9t-38.5 -33l-43 25q54 69 131 69q47 0 75 -25t28 -67q0 -63 -52 -99q33 -30 33 -74
q0 -60 -45 -102t-109 -42q-46 0 -75.5 24t-35.5 66l-2 14l57 14q4 -37 18.5 -51.5t46.5 -14.5q37 0 62.5 24t25.5 58q0 54 -69 54h-23zM680 679l37 -24l-491 -667l-38 23z" />
    <glyph glyph-name="fiveeighths" unicode="&#x215d;" horiz-adv-x="833" 
d="M264 616l-32 -84q22 5 39 5q53 0 87 -31.5t34 -81.5q0 -63 -50 -111t-116 -48q-71 0 -105 49q-6 10 -15 27l51 32l2 -7q16 -50 73 -50q42 0 72.5 29.5t30.5 69.5q0 32 -21 52t-54 20q-36 0 -65 -25l-42 9l72 196h187l-8 -51h-140zM562 210q-28 29 -28 66q0 51 41.5 88.5
t97.5 37.5q47 0 76 -26t29 -68q0 -56 -54 -98q39 -33 39 -77q0 -58 -45.5 -99t-109.5 -41q-52 0 -84 28t-32 73q0 69 70 116zM665 352q-32 0 -55 -20.5t-23 -49.5q0 -23 16.5 -37t42.5 -14q33 0 56 20.5t23 49.5q0 23 -16.5 37t-43.5 14zM637 181q-37 0 -63 -23t-26 -56
q0 -26 18.5 -42t49.5 -16q38 0 64 23t26 56q0 27 -18.5 42.5t-50.5 15.5zM683 679l37 -24l-491 -667l-38 23z" />
    <glyph glyph-name="seveneighths" unicode="&#x215e;" horiz-adv-x="833" 
d="M647 679l37 -24l-491 -667l-38 23zM374 615h-200l8 51h266l-7 -42l-257 -362l-45 25zM561 210q-28 29 -28 66q0 51 41.5 88.5t97.5 37.5q47 0 76 -26t29 -68q0 -55 -53 -98q39 -32 39 -77q0 -58 -45.5 -99t-109.5 -41q-52 0 -84 28t-32 73q0 69 69 116zM664 352
q-32 0 -55 -20.5t-23 -49.5q0 -23 16.5 -37t42.5 -14q33 0 56 20.5t23 49.5q0 23 -16.5 37t-43.5 14zM637 181q-37 0 -63 -23t-26 -56q0 -26 18.5 -42t49.5 -16q38 0 64 23t26 56q0 27 -18.5 42.5t-50.5 15.5z" />
    <glyph glyph-name="partialdiff" unicode="&#x2202;" horiz-adv-x="594" 
d="M138 605l9 62q157 -22 250 -105q131 -117 131 -310q0 -118 -64.5 -191t-167.5 -73q-97 0 -163 67.5t-66 166.5q0 98 66 165.5t162 67.5q66 0 121 -35q-32 73 -109 123.5t-169 61.5zM293 390q-67 0 -110.5 -47.5t-43.5 -120.5q0 -74 44 -121.5t113 -47.5q68 0 112 47.5
t44 121.5q0 75 -44 121.5t-115 46.5z" />
    <glyph glyph-name="emptyset" unicode="&#x2205;" horiz-adv-x="618" 
d="M225 107l-60 -119l-49 25l60 118q-7 3 -13 9q-96 80 -96 193q0 101 71 172t172 71q45 0 84 -15l60 118l49 -25l-60 -119q109 -77 109 -201q0 -102 -72 -172.5t-176 -70.5q-43 0 -79 16zM250 157l1 -1q32 -8 58 -8q77 0 132 54.5t55 131.5q0 46 -22 88t-57 63zM202 182
l166 328q-22 9 -57 9q-77 0 -132.5 -54.5t-55.5 -130.5q0 -90 77 -152h2z" />
    <glyph glyph-name="Delta" unicode="&#x2206;" horiz-adv-x="667" 
d="M637 0h-607l257 667h93zM133 69h400l-201 526z" />
    <glyph glyph-name="product" unicode="&#x220f;" horiz-adv-x="667" 
d="M191 598v-598h-75v598h-83v69h600v-69h-83v-598h-75v598h-284z" />
    <glyph glyph-name="summation" unicode="&#x2211;" horiz-adv-x="667" 
d="M304 346l-175 255v66h421v-69h-338l176 -252l-191 -277h373v-69h-461v66z" />
    <glyph glyph-name="minus" unicode="&#x2212;" horiz-adv-x="556" 
d="M532 343l-10 -63h-400l10 63h400z" />
    <glyph glyph-name="uni2215" unicode="&#x2215;" horiz-adv-x="180" 
d="M369 679l38 -24l-492 -667l-37 23z" />
    <glyph glyph-name="uni2218" unicode="&#x2218;" horiz-adv-x="480" 
d="M242 473q56 0 97 -41.5t41 -98.5q0 -58 -41 -99t-99 -41t-99 41t-41 100q0 58 41.5 98.5t100.5 40.5zM239 425q-37 0 -64 -27t-27 -65t27 -65t65 -27t65 27t27 66q0 38 -27 64.5t-66 26.5z" />
    <glyph glyph-name="radical" unicode="&#x221a;" horiz-adv-x="631" 
d="M185 333l82 -246l247 741h77h206v-69h-229l-256 -759h-90l-113 333h-76v63h132z" />
    <glyph glyph-name="infinity" unicode="&#x221e;" horiz-adv-x="697" 
d="M350 287q-75 -104 -165 -104q-67 0 -109.5 43.5t-42.5 111.5q0 67 43 110t110 43q90 0 161 -103q70 103 165 103q67 0 109 -43.5t42 -111.5q0 -67 -42.5 -110t-107.5 -43q-93 0 -163 104zM386 337q32 -49 58.5 -69.5t60.5 -20.5q38 0 64 26t26 64t-26 64t-65 26
q-33 0 -60 -20.5t-58 -69.5zM310 337q-30 48 -57.5 69t-61.5 21q-38 0 -64 -26t-26 -64t26.5 -64t64.5 -26q34 0 60 20t58 70z" />
    <glyph glyph-name="integral" unicode="&#x222b;" horiz-adv-x="298" 
d="M33 -176v65q19 -5 30 -5q50 0 50 74v637q0 140 107 140q17 0 44 -7v-64q-19 5 -30 5q-50 0 -50 -74v-637q0 -140 -107 -140q-16 0 -44 6z" />
    <glyph glyph-name="similar" unicode="&#x223c;" horiz-adv-x="556" 
d="M82 244l-44 28q53 116 137 116q39 0 112 -34q69 -31 97 -31t47.5 14.5t42.5 52.5l45 -26q-29 -59 -63.5 -86t-81.5 -27q-21 0 -47 8.5t-93 38.5q-39 18 -65 18q-25 0 -45.5 -17t-41.5 -55z" />
    <glyph glyph-name="uni2243" unicode="&#x2243;" horiz-adv-x="556" 
d="M81 315l-44 29q29 61 61.5 88.5t75.5 27.5q37 0 112 -34q70 -32 96 -32q29 0 48.5 14.5t42.5 53.5l45 -27q-29 -59 -63.5 -86t-81.5 -27q-21 0 -46.5 8.5t-93.5 39.5q-41 18 -65 18q-48 0 -87 -73zM518 262v-62h-481v62h481z" />
    <glyph glyph-name="approxequal" unicode="&#x2248;" horiz-adv-x="556" 
d="M82 332l-44 28q53 116 137 116q37 0 112 -34q70 -32 96 -32q28 0 48 15t43 53l45 -26q-29 -60 -63.5 -87t-81.5 -27q-21 0 -46.5 8.5t-93.5 39.5q-40 18 -65 18t-45.5 -17t-41.5 -55zM82 164l-44 28q28 61 61 88.5t77 27.5q38 0 111 -34q69 -31 97 -31t48 15t42 52
l45 -26q-29 -59 -63.5 -86t-81.5 -27q-21 0 -47 8.5t-93 38.5q-39 18 -65 18q-25 0 -45.5 -17t-41.5 -55z" />
    <glyph glyph-name="notequal" unicode="&#x2260;" horiz-adv-x="556" 
d="M358 409h161v-63h-192l-35 -68h227v-63h-258l-67 -134l-51 21l56 113h-161v63h192l35 68h-227v63h258l67 134l51 -21z" />
    <glyph glyph-name="lessequal" unicode="&#x2264;" horiz-adv-x="556" 
d="M515 132l-402 194l10 65l465 197l-12 -71l-378 -157l329 -156zM494 0h-433l10 63h433z" />
    <glyph glyph-name="greaterequal" unicode="&#x2265;" horiz-adv-x="556" 
d="M82 132l11 72l378 156l-328 157l11 71l402 -197l-10 -65zM61 0l10 63h433l-10 -63h-433z" />
    <glyph glyph-name="dotmath" unicode="&#x22c5;" horiz-adv-x="227" 
d="M174 383q18 0 30 -12t12 -30q0 -23 -17 -40t-40 -17q-19 0 -30.5 12t-11.5 31q0 22 17.5 39t39.5 17z" />
    <glyph glyph-name="lozenge" unicode="&#x25ca;" horiz-adv-x="667" 
d="M333 -40l-265 373l265 373l266 -373zM511 333l-178 253l-177 -253l177 -252z" />
    <glyph glyph-name="openbullet" unicode="&#x25e6;" horiz-adv-x="480" 
d="M242 473q56 0 97 -41.5t41 -98.5q0 -58 -41 -99t-99 -41t-99 41t-41 100q0 58 41.5 98.5t100.5 40.5zM239 425q-37 0 -64 -27t-27 -65t27 -65t65 -27t65 27t27 66q0 38 -27 64.5t-66 26.5z" />
    <glyph glyph-name="commaaccent" unicode="&#xf6c3;" horiz-adv-x="476" 
d="M203 -47l65 -21l-90 -152l-47 16z" />
    <glyph glyph-name="Acute" unicode="&#xf6c9;" horiz-adv-x="476" 
d="M498 841l-145 -126l-41 26l122 137z" />
    <glyph glyph-name="Caron" unicode="&#xf6ca;" horiz-adv-x="476" 
d="M363 786l105 87l48 -26l-135 -126h-57l-95 126l55 26z" />
    <glyph glyph-name="Dieresis" unicode="&#xf6cb;" horiz-adv-x="476" 
d="M464 841q18 0 30 -12t12 -30q0 -23 -18 -40.5t-40 -17.5q-19 0 -31 12t-12 31q0 22 18 39.5t41 17.5zM280 841q19 0 31 -12t12 -30q0 -23 -18 -40.5t-41 -17.5q-19 0 -31 12t-12 31q0 22 18 39.5t41 17.5z" />
    <glyph glyph-name="Grave" unicode="&#xf6ce;" horiz-adv-x="476" 
d="M244 841l76 37l78 -137l-49 -26z" />
    <glyph glyph-name="Hungarumlaut" unicode="&#xf6cf;" horiz-adv-x="476" 
d="M425 841l-145 -126l-37 26l122 137zM565 841l-145 -126l-37 26l122 137z" />
    <glyph glyph-name="Macron" unicode="&#xf6d0;" horiz-adv-x="476" 
d="M232 822h273l-10 -64h-273z" />
    <glyph glyph-name="one.fitted" horiz-adv-x="556" 
d="M274 67l81 517l-114 -61l-25 59l159 85h68l-95 -600h116l-10 -67h-320l11 67h129z" />
    <glyph glyph-name="two.fitted" horiz-adv-x="556" 
d="M84 0l10 66l288 275q103 97 103 177q0 43 -27.5 67.5t-76.5 24.5q-55 0 -90.5 -25.5t-61.5 -81.5l-64 18q30 76 89.5 117t139.5 41q76 0 120.5 -40t44.5 -108q0 -111 -98 -203l-271 -260h313l-11 -68h-408z" />
    <glyph glyph-name="three.fitted" horiz-adv-x="556" 
d="M293 383h29q71 0 110 40q38 40 38 92q0 44 -28.5 69.5t-78.5 25.5q-39 0 -67.5 -16t-61.5 -55l-56 35q78 105 196 105q76 0 122.5 -41.5t46.5 -109.5q0 -106 -95 -172q62 -51 62 -128q0 -101 -72 -170.5t-175 -69.5q-73 0 -119.5 39t-57.5 109l-1 15l75 20
q7 -59 34.5 -86t80.5 -27q67 0 113.5 45t46.5 110q0 102 -124 102h-28z" />
    <glyph glyph-name="four.fitted" horiz-adv-x="556" 
d="M491 641l-332 -425h219l28 176h74l-28 -176h82l-10 -68h-82l-24 -148h-74l24 148h-297l12 76l355 455z" />
    <glyph glyph-name="five.fitted" horiz-adv-x="556" 
d="M251 426l3 1q40 13 76 13q83 0 137 -52.5t54 -133.5q0 -106 -81 -186t-188 -80q-88 0 -145 57q-21 21 -40 62l65 42q29 -93 130 -93q75 0 129.5 55t54.5 130q0 59 -36.5 96t-95.5 37q-66 0 -112 -43l-56 12l116 324h294l-11 -69h-232z" />
    <glyph glyph-name="six.fitted" horiz-adv-x="556" 
d="M431 679l50 -43l-183 -213q28 9 54 9q82 0 135 -50.5t53 -129.5q0 -105 -80 -184.5t-186 -79.5q-83 0 -137.5 54t-54.5 137q0 97 78 187zM334 366q-72 0 -125 -54t-53 -127q0 -57 36 -93t93 -36q72 0 126 55t54 128q0 56 -36.5 91.5t-94.5 35.5z" />
    <glyph glyph-name="seven.fitted" horiz-adv-x="556" 
d="M518 598h-340l11 69h423l-9 -60l-425 -619l-59 34z" />
    <glyph glyph-name="eight.fitted" horiz-adv-x="556" 
d="M215 355q-52 51 -52 115q0 85 66 147t157 62q74 0 119.5 -42.5t45.5 -111.5q0 -99 -98 -170q71 -53 71 -134q0 -97 -72.5 -165t-175.5 -68q-82 0 -133 46.5t-51 120.5q0 123 123 200zM327 317q-67 0 -114 -44.5t-47 -106.5q0 -50 33 -80t87 -30q67 0 115 44.5t48 106.5
q0 51 -32.5 80.5t-89.5 29.5zM375 613q-59 0 -101 -40t-42 -95q0 -43 30 -69.5t77 -26.5q59 0 101 39.5t42 94.5q0 44 -29.5 70.5t-77.5 26.5z" />
    <glyph glyph-name="nine.fitted" horiz-adv-x="556" 
d="M231 -12l-50 42l185 214q-28 -6 -52 -6q-85 0 -138.5 49.5t-53.5 128.5q0 104 80 183.5t185 79.5q83 0 137.5 -54t54.5 -137q0 -99 -78 -188zM376 611q-71 0 -125 -54.5t-54 -127.5q0 -56 36.5 -90.5t94.5 -34.5q72 0 124.5 52.5t52.5 125.5q0 57 -36 93t-93 36z" />
    <glyph glyph-name="zero.fitted" horiz-adv-x="556" 
d="M385 679q100 0 151 -56t51 -165q0 -86 -19 -174.5t-51 -147.5q-79 -148 -239 -148q-99 0 -151 56t-52 162q0 88 19 177t51 148q79 148 240 148zM374 611q-116 0 -174 -133q-48 -113 -48 -251q0 -171 136 -171q116 0 174 133q48 113 48 251q0 171 -136 171z" />
    <glyph glyph-name="sterling.fitted" horiz-adv-x="556" 
d="M459 300h-191q1 -16 1 -42q0 -103 -44 -155q-7 -7 -37 -34h331l-11 -69h-434l11 69q67 47 88 81.5t21 96.5q0 9 -2 53h-70l10 67h56v32q0 54 12 100q20 82 81.5 131t144.5 49q108 0 153 -105l-65 -39q-32 75 -102 75q-69 0 -109 -52t-40 -142q0 -18 1 -49h205z" />
    <glyph glyph-name="dollar.fitted" horiz-adv-x="556" 
d="M230 -103l15 93q-70 6 -113 52t-46 118l75 21q12 -122 117 -122q61 0 108.5 45t47.5 103q0 32 -22.5 55t-75.5 46l-59 24q-114 47 -114 139q0 76 53 133t138 72l14 91h73l-14 -91q88 -16 125 -102l-65 -39q-36 74 -109 74q-57 0 -99 -37.5t-42 -88.5q0 -57 82 -91l62 -25
q129 -54 129 -149q0 -76 -55.5 -141t-135.5 -82l-15 -98h-74z" />
    <glyph glyph-name="cent.fitted" horiz-adv-x="556" 
d="M254 0l17 105q-69 14 -109 65t-40 125q0 95 63.5 171.5t157.5 95.5l17 105h73l-16 -102q79 -9 130 -73l-55 -48q-41 58 -111 58q-79 0 -133 -58.5t-54 -143.5q0 -63 36.5 -99.5t98.5 -36.5q38 0 68 14t64 48l40 -48q-71 -67 -157 -77l-16 -101h-74z" />
    <glyph glyph-name="florin.fitted" horiz-adv-x="556" 
d="M28 -190l23 65q17 -6 29 -6q26 0 44 17.5t32 56.5l158 436h-45l23 64h45l12 34l21 56q50 141 158 141q16 0 41 -7l-23 -65q-18 5 -29 5q-49 0 -76 -74l-33 -90h82l-23 -64h-82l-157 -436q-51 -140 -158 -140q-17 0 -42 7z" />
    <glyph glyph-name="Euro.fitted" horiz-adv-x="556" 
d="M93 233h-99l37 67h60q2 35 10 66h-86l37 67h73q55 114 153.5 180t214.5 66q127 0 215 -99l-38 -68q-81 97 -190 97q-86 0 -158 -46t-119 -130h423l-37 -67h-412q-9 -36 -11 -66h386l-37 -67h-344q17 -79 78 -127t144 -48q58 0 108 22.5t113 76.5l-15 -96
q-100 -73 -214 -73q-117 0 -194.5 65.5t-97.5 179.5z" />
    <glyph glyph-name="yen.fitted" horiz-adv-x="556" 
d="M352 233l-37 -233h-74l37 233h-163l11 67h150l-26 66h-114l11 67h76l-93 234h82l122 -319l222 319h81l-167 -234h77l-11 -67h-113l-48 -66h151l-11 -67h-163z" />
    <glyph glyph-name="one.numerator" horiz-adv-x="387" 
d="M280 271h-56l52 332l-64 -33l-20 45l103 52h48z" />
    <glyph glyph-name="two.numerator" horiz-adv-x="387" 
d="M109 271l7 46l174 160q59 54 59 96q0 22 -15.5 35t-42.5 13q-32 0 -51.5 -14t-35.5 -48l-50 14q42 100 147 100q47 0 75.5 -24.5t28.5 -65.5q0 -65 -60 -122l-151 -139h180l-8 -51h-257z" />
    <glyph glyph-name="three.numerator" horiz-adv-x="387" 
d="M242 504h23q37 0 59 19t22 50q0 23 -15 36t-41 13q-23 0 -40 -9t-39 -33l-43 26q54 68 131 68q47 0 75 -25t28 -67q0 -63 -52 -99q33 -29 33 -74q0 -61 -44.5 -102.5t-109.5 -41.5q-46 0 -75 23.5t-37 66.5l-1 14l57 14q5 -36 19.5 -51t45.5 -15q37 0 62.5 24t25.5 58
q0 54 -69 54h-23z" />
    <glyph glyph-name="four.numerator" horiz-adv-x="387" 
d="M371 648l-194 -241h114l16 102h57l-17 -102h50l-8 -51h-50l-13 -85h-56l13 85h-178l8 52l216 267z" />
    <glyph glyph-name="five.numerator" horiz-adv-x="387" 
d="M261 616l-32 -84q23 5 39 5q53 0 87 -31.5t34 -81.5q0 -63 -50 -111t-116 -48q-71 0 -105 49q-6 10 -15 27l51 32l2 -7q16 -50 73 -50q42 0 72.5 29.5t30.5 69.5q0 32 -21 52t-54 20q-36 0 -65 -25l-42 9l72 196h187l-8 -51h-140z" />
    <glyph glyph-name="six.numerator" horiz-adv-x="387" 
d="M326 675l38 -31l-101 -114q8 1 19 1q50 0 83.5 -31t33.5 -78q0 -63 -49.5 -110.5t-114.5 -47.5q-53 0 -87.5 33t-34.5 83q0 58 47 111zM268 481q-40 0 -69.5 -28.5t-29.5 -67.5q0 -31 20.5 -50.5t52.5 -19.5q40 0 70 29t30 69q0 30 -20.5 49t-53.5 19z" />
    <glyph glyph-name="seven.numerator" horiz-adv-x="387" 
d="M368 616h-200l8 51h266l-7 -42l-257 -362l-45 25z" />
    <glyph glyph-name="eight.numerator" horiz-adv-x="387" 
d="M189 482q-28 28 -28 66q0 51 41.5 88.5t97.5 37.5q47 0 76 -26t29 -68q0 -56 -54 -98q39 -33 39 -77q0 -58 -45.5 -99t-109.5 -41q-52 0 -84 28t-32 73q0 69 70 116zM265 455q-38 0 -63.5 -23t-25.5 -57q0 -26 18.5 -42t49.5 -16q37 0 63 23t26 56q0 28 -18 43.5
t-50 15.5zM292 624q-32 0 -55 -20.5t-23 -49.5q0 -23 16.5 -37t42.5 -14q33 0 56 20.5t23 49.5q0 23 -16.5 37t-43.5 14z" />
    <glyph glyph-name="nine.numerator" horiz-adv-x="387" 
d="M210 262l-39 31l104 116q-9 -1 -19 -1q-52 0 -85.5 30.5t-33.5 78.5q0 62 50 109.5t114 47.5q53 0 87.5 -33t34.5 -83q0 -58 -48 -112zM294 623q-40 0 -70 -29.5t-30 -68.5q0 -30 20.5 -48.5t53.5 -18.5q41 0 70 28t29 68q0 30 -20.5 49.5t-52.5 19.5z" />
    <glyph glyph-name="zero.numerator" horiz-adv-x="387" 
d="M299 674q62 0 94.5 -34.5t32.5 -99.5q0 -110 -42 -186q-48 -89 -148 -89q-128 0 -128 134q0 113 42 186q48 89 149 89zM290 623q-64 0 -97 -72q-27 -62 -27 -139q0 -96 77 -96q64 0 97 72q27 64 27 140q0 95 -77 95z" />
    <glyph glyph-name="one.denominator" horiz-adv-x="387" 
d="M237 0h-56l52 331l-64 -33l-20 45l103 52h48z" />
    <glyph glyph-name="two.denominator" horiz-adv-x="387" 
d="M67 0l7 46l174 160q59 54 59 96q0 22 -15.5 35t-42.5 13q-32 0 -51 -14t-36 -49l-50 14q41 100 147 100q47 0 75.5 -24.5t28.5 -65.5q0 -64 -60 -121l-151 -139h180l-8 -51h-257z" />
    <glyph glyph-name="three.denominator" horiz-adv-x="387" 
d="M199 232h23q37 0 59 19t22 50q0 23 -15 36t-41 13q-24 0 -40.5 -9t-38.5 -33l-43 25q55 68 131 68q47 0 75 -25t28 -67q0 -61 -52 -99q33 -27 33 -74q0 -60 -44.5 -101.5t-109.5 -41.5q-96 0 -112 89l-1 15l57 14q5 -36 19.5 -51t45.5 -15q37 0 62.5 23.5t25.5 57.5
q0 55 -69 55h-23z" />
    <glyph glyph-name="four.denominator" horiz-adv-x="387" 
d="M328 376l-194 -240h114l16 102h57l-17 -102h50l-8 -51h-50l-13 -85h-56l13 85h-178l8 52l216 267z" />
    <glyph glyph-name="five.denominator" horiz-adv-x="387" 
d="M217 344l-31 -84q21 5 38 5q53 0 87 -31.5t34 -81.5q0 -63 -50 -111t-116 -48q-71 0 -105 49q-6 10 -15 27l51 31l2 -6q17 -50 73 -50q42 0 72.5 29.5t30.5 69.5q0 32 -21 52t-54 20q-36 0 -61 -22l-4 -3l-42 9l72 196h187l-8 -51h-140z" />
    <glyph glyph-name="six.denominator" horiz-adv-x="387" 
d="M283 404l38 -32l-101 -113l19 1q50 0 83.5 -31.5t33.5 -78.5q0 -62 -49.5 -109.5t-114.5 -47.5q-53 0 -87.5 33t-34.5 83q0 58 47 111zM225 210q-41 0 -70 -28.5t-29 -68.5q0 -30 20.5 -49.5t52.5 -19.5q40 0 70 29t30 69q0 30 -20.5 49t-53.5 19z" />
    <glyph glyph-name="seven.denominator" horiz-adv-x="387" 
d="M325 344h-200l8 51h266l-7 -42l-257 -363l-45 25z" />
    <glyph glyph-name="eight.denominator" horiz-adv-x="387" 
d="M146 210q-28 29 -28 66q0 51 41.5 88.5t97.5 37.5q47 0 76 -26t29 -68q0 -56 -54 -98q39 -33 39 -77q0 -58 -45.5 -99t-109.5 -41q-52 0 -84 28t-32 73q0 69 70 116zM221 181q-37 0 -63 -23t-26 -56q0 -26 18.5 -42t49.5 -16q38 0 64 23t26 56q0 27 -18.5 42.5
t-50.5 15.5zM249 352q-32 0 -55 -20.5t-23 -49.5q0 -23 16.5 -37t42.5 -14q33 0 56 20.5t23 49.5q0 23 -16.5 37t-43.5 14z" />
    <glyph glyph-name="nine.denominator" horiz-adv-x="387" 
d="M167 -10l-39 32l103 115q-8 -1 -18 -1q-52 0 -85.5 30.5t-33.5 77.5q0 62 49.5 109.5t114.5 47.5q53 0 87.5 -33t34.5 -83q0 -57 -48 -111zM251 350q-40 0 -70 -29t-30 -68q0 -30 20.5 -48.5t53.5 -18.5q41 0 70 28t29 67q0 30 -20.5 49.5t-52.5 19.5z" />
    <glyph glyph-name="zero.denominator" horiz-adv-x="387" 
d="M256 401q128 0 128 -134q0 -109 -42 -185q-48 -89 -149 -89q-128 0 -128 133q0 113 42 186q48 89 149 89zM247 350q-64 0 -97 -72q-27 -62 -27 -138q0 -96 77 -96q65 0 98 72q27 59 27 139q0 95 -78 95z" />
    <glyph glyph-name="onefifth" horiz-adv-x="833" 
d="M653 679l38 -24l-492 -667l-37 23zM637 344l-31 -84q21 5 39 5q53 0 86.5 -32t33.5 -81q0 -63 -50 -111t-116 -48q-70 0 -104 49q-6 7 -15 27l51 31l2 -6q16 -50 73 -50q41 0 71.5 29.5t30.5 69.5q0 32 -20.5 52t-54.5 20t-61 -22l-3 -3l-43 9l73 196h187l-9 -51h-140z
M245 272h-56l52 331l-64 -33l-20 45l103 52h48z" />
    <glyph glyph-name="twofifth" horiz-adv-x="833" 
d="M705 679l37 -24l-491 -667l-38 23zM99 271l7 46l174 160q59 54 59 96q0 22 -15.5 35t-42.5 13q-32 0 -51.5 -14t-35.5 -48l-50 14q42 100 147 100q47 0 75.5 -24.5t28.5 -65.5q0 -65 -60 -122l-151 -139h180l-8 -51h-257zM638 344l-31 -84q21 5 38 5q53 0 87 -31.5
t34 -81.5q0 -63 -50 -111t-116 -48q-70 0 -104 49q-5 6 -16 27l51 31l2 -6q17 -50 74 -50q41 0 71.5 29.5t30.5 69.5q0 32 -20.5 52t-54.5 20t-61 -22l-4 -3l-42 9l73 196h186l-8 -51h-140z" />
    <glyph glyph-name="threefifth" horiz-adv-x="833" 
d="M684 679l37 -24l-491 -667l-37 23zM637 344l-31 -84q22 5 39 5q53 0 87 -31.5t34 -81.5q0 -63 -50 -111t-116 -48q-71 0 -105 49q-6 7 -15 27l51 31l2 -6q16 -50 73 -50q42 0 72.5 29.5t30.5 69.5q0 32 -21 52t-54 20q-35 0 -62 -22l-3 -3l-42 9l72 196h187l-8 -51h-141z
M236 504h23q37 0 59 19t22 50q0 23 -15 36t-41 13q-24 0 -40.5 -9t-38.5 -33l-43 25q54 69 131 69q47 0 75 -25t28 -67q0 -63 -52 -99q33 -30 33 -74q0 -60 -45 -102t-109 -42q-46 0 -75.5 24t-35.5 66l-2 14l57 14q4 -37 18.5 -51.5t46.5 -14.5q37 0 62.5 24t25.5 58
q0 54 -69 54h-23z" />
    <glyph glyph-name="fourfifth" horiz-adv-x="833" 
d="M698 679l38 -24l-492 -667l-37 23zM378 648l-194 -241h114l16 102h57l-17 -102h50l-8 -51h-50l-13 -85h-56l13 85h-178l8 52l216 267zM637 344l-31 -84q22 5 39 5q53 0 87 -31.5t34 -81.5q0 -63 -50 -111t-116 -48q-71 0 -105 49q-6 7 -15 27l51 31l2 -6q16 -50 73 -50
q42 0 72.5 29.5t30.5 69.5q0 32 -21 52t-54 20q-35 0 -62 -22l-3 -3l-42 9l72 196h187l-8 -51h-141z" />
    <glyph glyph-name="onesixth" horiz-adv-x="833" 
d="M667 679l37 -24l-491 -667l-38 23zM692 404l39 -32l-101 -113l18 1q50 0 83.5 -31.5t33.5 -78.5q0 -62 -49.5 -109.5t-114.5 -47.5q-53 0 -87.5 33t-34.5 83q0 59 48 111zM635 210q-41 0 -70 -28.5t-29 -68.5q0 -30 20.5 -49.5t52.5 -19.5q40 0 70 29t30 69
q0 30 -20.5 49t-53.5 19zM245 272h-56l52 331l-64 -33l-20 45l103 52h48z" />
    <glyph glyph-name="fivesixth" horiz-adv-x="833" 
d="M707 679l37 -24l-491 -667l-38 23zM264 616l-32 -84q22 5 39 5q53 0 87 -31.5t34 -81.5q0 -63 -50 -111t-116 -48q-71 0 -105 49q-6 10 -15 27l51 32l2 -7q16 -50 73 -50q42 0 72.5 29.5t30.5 69.5q0 32 -21 52t-54 20q-36 0 -65 -25l-42 9l72 196h187l-8 -51h-140z
M693 404l39 -32l-102 -113l19 1q50 0 83.5 -31.5t33.5 -78.5q0 -62 -49.5 -109.5t-114.5 -47.5q-53 0 -87.5 33t-34.5 83q0 59 48 111zM635 210q-41 0 -70 -28.5t-29 -68.5q0 -30 20.5 -49.5t52.5 -19.5q40 0 70 29t30 69q0 30 -20.5 49t-53.5 19z" />
    <glyph glyph-name="Dotaccent" horiz-adv-x="476" 
d="M371 841q19 0 31 -12t12 -30q0 -23 -18 -40.5t-41 -17.5q-19 0 -31 12t-12 31q0 22 18 39.5t41 17.5z" />
    <glyph glyph-name="Ring" horiz-adv-x="476" 
d="M377 878q33 0 55 -21t22 -53q0 -40 -31.5 -70.5t-72.5 -30.5q-34 0 -55.5 21t-21.5 54q0 39 31.5 69.5t72.5 30.5zM372 842q-24 0 -42.5 -18t-18.5 -41q0 -19 12.5 -31.5t31.5 -12.5q24 0 42.5 18t18.5 42q0 19 -12.5 31t-31.5 12z" />
    <glyph glyph-name="Circumflex" horiz-adv-x="476" 
d="M365 802l-106 -87l-47 26l135 126h57l95 -126l-56 -26z" />
    <glyph glyph-name="Breve" horiz-adv-x="476" 
d="M240 847l62 5q-1 -8 -1 -20q0 -24 16.5 -39.5t42.5 -15.5q61 0 84 75l60 -5q-16 -61 -57.5 -96.5t-96.5 -35.5q-48 0 -80 29.5t-32 73.5q0 5 2 29z" />
    <glyph glyph-name="Tilde" horiz-adv-x="476" 
d="M450 841l55 -14q-21 -85 -92 -85q-26 0 -65 19q-29 15 -40 15q-13 0 -19.5 -7.5t-13.5 -27.5l-54 13q24 85 93 85q23 0 66 -21q26 -13 40 -13q13 0 19 7.5t11 28.5z" />
    <glyph glyph-name="Cedilla" horiz-adv-x="476" 
d="M307 -75l-121 -128l-45 24l105 132z" />
    <glyph glyph-name="Ogonek" horiz-adv-x="476" 
d="M356 0h71q-47 -46 -47 -72q0 -20 29 -20q17 0 38 7l12 -51q-36 -13 -65 -13q-37 0 -59 18t-22 48q0 40 43 83z" />
    <glyph glyph-name="Commaaccent" horiz-adv-x="476" 
d="M203 -47l65 -21l-90 -152l-47 16z" />
    <glyph glyph-name="Comma.high" horiz-adv-x="476" 
d="M470 878l65 -21l-89 -152l-48 16z" />
    <glyph glyph-name="Dieresis.alt" horiz-adv-x="476" 
d="M435 841q18 0 30 -12t12 -30q0 -23 -17.5 -40.5t-40.5 -17.5q-19 0 -31 12t-12 31q0 22 18 39.5t41 17.5zM301 841q19 0 31 -12t12 -30q0 -23 -18 -40.5t-41 -17.5q-19 0 -31 12t-12 31q0 22 18 39.5t41 17.5z" />
    <glyph glyph-name="comma.high" horiz-adv-x="476" 
d="M438 679l65 -21l-89 -153l-48 16z" />
    <glyph glyph-name="dieresis.alt" horiz-adv-x="476" 
d="M404 641q18 0 30 -12t12 -30q0 -23 -18 -40.5t-40 -17.5q-19 0 -31 12t-12 31q0 22 18 39.5t41 17.5zM270 641q19 0 31 -12t12 -30q0 -23 -18 -40.5t-41 -17.5q-19 0 -31 12t-12 31q0 22 18 39.5t41 17.5z" />
    <glyph glyph-name="commareversed" horiz-adv-x="476" 
d="M433 505l-66 21l90 153l47 -16z" />
    <glyph glyph-name="G.salt" horiz-adv-x="729" 
d="M629 275h-175l11 69h248l-35 -216q-128 -140 -301 -140q-122 0 -204.5 83t-82.5 207q0 104 56 197t149.5 148.5t197.5 55.5q70 0 121.5 -25t100.5 -82l-59 -51q-38 47 -78 67.5t-97 20.5q-126 0 -220.5 -96.5t-94.5 -226.5q0 -97 64 -162.5t159 -65.5q123 0 220 95l3 17z
" />
    <glyph glyph-name="M.salt" horiz-adv-x="840" 
d="M67 0l172 667h75l143 -437l281 437h75l-39 -667h-76l33 546l-253 -396h-67l-129 395l-139 -545h-76z" />
    <glyph glyph-name="y.salt" horiz-adv-x="441" 
d="M236 103l198 340h77l-349 -592q-30 -52 -57.5 -74t-61.5 -22q-18 0 -38 7l20 64q11 -5 20 -5q16 0 28 12t32 46l80 137l-114 427h76z" />
    <glyph glyph-name="parenleft.salt" horiz-adv-x="294" 
d="M292 790l58 -29q-76 -140 -117.5 -305t-41.5 -331q0 -112 24 -219l-68 -29q-28 89 -28 236q0 181 46 359q52 200 127 318z" />
    <glyph glyph-name="parenright.salt" horiz-adv-x="294" 
d="M107 -123l-59 29q77 140 118.5 305t41.5 330q0 114 -25 220l68 29q29 -90 29 -237q0 -180 -46 -358q-51 -195 -127 -318z" />
    <glyph glyph-name="bracketleft.salt" horiz-adv-x="291" 
d="M267 719l-122 -771h95l-11 -67h-168l143 905h168l-10 -67h-95z" />
    <glyph glyph-name="bracketright.salt" horiz-adv-x="291" 
d="M129 -52l122 771h-94l10 67h168l-143 -905h-168l11 67h94z" />
    <glyph glyph-name="afii61248.salt" horiz-adv-x="761" 
d="M592 268q52 0 86.5 -33.5t34.5 -84.5q0 -65 -50.5 -114t-117.5 -49q-54 0 -88 33t-34 86q0 66 50.5 114t118.5 48zM580 219q-42 0 -72 -32t-30 -77q0 -34 20.5 -54t54.5 -20q44 0 74 31.5t30 77.5q0 35 -20.5 54.5t-56.5 19.5zM417 595l-43 -37q-26 37 -66 37
q-44 0 -74 -31.5t-30 -77.5q0 -34 20.5 -54t55.5 -20q24 0 39 7.5t40 30.5l32 -36q-32 -28 -58.5 -39.5t-60.5 -11.5q-55 0 -89.5 33t-34.5 85q0 66 50 114.5t118 48.5q59 0 101 -49zM655 679l38 -24l-492 -667l-37 23z" />
    <glyph glyph-name="braceleft.salt" horiz-adv-x="291" 
d="M281 636l-29 -187q-10 -51 -26.5 -75t-52.5 -41q45 -28 45 -79q0 -18 -3 -39l-29 -181q-4 -36 -4 -47q0 -28 20 -38q13 -6 49 -5l-10 -63h-19q-39 0 -64 8q-50 16 -50 86q0 19 4 53l30 184q3 24 3 33q0 48 -46 61l9 59q33 8 48.5 27.5t23.5 60.5l31 196q11 73 45.5 105
t101.5 32h26l-10 -63h-9q-43 0 -59 -17t-25 -70z" />
    <glyph glyph-name="braceright.salt" horiz-adv-x="291" 
d="M116 34l28 181q7 47 25.5 74t54.5 44q-28 16 -37 31.5t-9 46.5q0 19 3 38l30 187q4 26 4 43q0 25 -13.5 34.5t-49.5 9.5h-7l10 63h27q56 0 81.5 -23t25.5 -72q0 -23 -3 -42l-31 -196q-3 -18 -3 -30q0 -47 46 -58l-9 -59q-34 -9 -49.5 -29.5t-23.5 -64.5l-29 -184
q-13 -82 -48.5 -115.5t-107.5 -31.5h-19l10 63q49 -2 66.5 14.5t27.5 75.5z" />
    <glyph glyph-name="copyright.salt" horiz-adv-x="471" 
d="M346 634l-26 -26q-19 19 -31.5 25.5t-31.5 6.5q-34 0 -57 -24t-23 -59t23 -59t57 -24q30 0 64 33l26 -27q-26 -25 -44.5 -34t-45.5 -9q-50 0 -85 35t-35 85t35 85t85 35q26 0 45 -9t44 -34zM249 760q85 0 145 -59.5t60 -144.5t-60 -145t-144 -60q-85 0 -145 60.5
t-60 146.5q0 82 60.5 142t143.5 60zM249 725q-70 0 -119.5 -50t-49.5 -121q0 -69 50 -118.5t119 -49.5q71 0 120.5 50t49.5 120t-50 119.5t-120 49.5z" />
    <glyph glyph-name="registered.salt" horiz-adv-x="471" 
d="M288 536l57 -96h-46l-51 89h-28v-89h-39v233h64q40 0 61.5 -19t21.5 -53q0 -45 -40 -65zM220 636v-71h28q41 0 41 36q0 35 -41 35h-28zM249 760q85 0 145 -59.5t60 -144.5t-60 -145t-144 -60q-85 0 -145 60.5t-60 146.5q0 82 60.5 142t143.5 60zM249 725
q-70 0 -119.5 -50t-49.5 -121q0 -69 50 -118.5t119 -49.5q71 0 120.5 50t49.5 120t-50 119.5t-120 49.5z" />
    </font>
</defs>
</svg>
