<?xml version="1.0" standalone="no"?>
<!DOCTYPE svg PUBLIC "-//W3C//DTD SVG 1.1//EN" "http://www.w3.org/Graphics/SVG/1.1/DTD/svg11.dtd" >
<svg xmlns="http://www.w3.org/2000/svg" xmlns:xlink="http://www.w3.org/1999/xlink" version="1.1">
<metadata>
Created by FontForge 20170731 at Thu Sep 10 14:38:10 2015
 By ,,,
Copyright 2014 by (URW)++ Design &#38; Development GmbH
</metadata>
<defs>
<font id="URWGeometric-ExtraBold" horiz-adv-x="387" >
  <font-face 
    font-family="URW Geometric Extra Bold"
    font-weight="800"
    font-stretch="normal"
    units-per-em="1000"
    panose-1="0 0 9 0 0 0 0 0 0 0"
    ascent="667"
    descent="-333"
    x-height="443"
    cap-height="667"
    bbox="-136 -286 1230 1081"
    underline-thickness="118"
    underline-position="-336"
    unicode-range="U+0020-FB04"
  />
<missing-glyph horiz-adv-x="224" 
 />
    <glyph glyph-name="afii61352" unicode="Nr&#x2e;" horiz-adv-x="1056" 
d="M730 265v89h260v-89h-260zM67 0v667h113l327 -434v434h133v-667h-113l-327 434v-434h-133zM863 683q60 0 102 -42t42 -102q0 -61 -42.5 -102.5t-104.5 -41.5t-104 42t-42 103t43 102t106 41zM860 604q-27 0 -44 -18t-17 -47t17 -47t44 -18q28 0 45 18t17 47t-17 47
t-45 18z" />
    <glyph glyph-name="ff" unicode="ff" horiz-adv-x="530" 
d="M188 328v-328h-128v328h-41v115h41v78q0 74 34 114.5t96 40.5q34 0 70 -9v-115q-27 9 -43 9q-29 0 -29 -42v-76h74v-115h-74zM449 328v-328h-128v328h-41v115h41v78q0 74 34 114.5t96 40.5q34 0 70 -9v-115q-27 9 -43 9q-29 0 -29 -42v-76h74v-115h-74z" />
    <glyph glyph-name="fi" unicode="fi" horiz-adv-x="490" 
d="M188 328v-328h-128v328h-41v115h41v78q0 74 34 114.5t96 40.5q34 0 70 -9v-115q-27 9 -43 9q-29 0 -29 -42v-76h74v-115h-74zM376 671q32 0 55 -22.5t23 -53.5q0 -32 -23 -54t-56 -22q-32 0 -54.5 22.5t-22.5 54.5q0 31 23 53t55 22zM440 443v-443h-128v443h128z" />
    <glyph glyph-name="fl" unicode="fl" horiz-adv-x="500" 
d="M188 328v-328h-128v328h-41v115h41v78q0 74 34 114.5t96 40.5q34 0 70 -9v-115q-27 9 -43 9q-29 0 -29 -42v-76h74v-115h-74zM449 0h-128v667h128v-667z" />
    <glyph glyph-name="ffi" unicode="ffi" horiz-adv-x="751" 
d="M188 328v-328h-128v328h-41v115h41v78q0 74 34 114.5t96 40.5q34 0 70 -9v-115q-27 9 -43 9q-29 0 -29 -42v-76h74v-115h-74zM449 328v-328h-128v328h-41v115h41v78q0 74 34 114.5t96 40.5q34 0 70 -9v-115q-27 9 -43 9q-29 0 -29 -42v-76h74v-115h-74zM637 671
q32 0 55 -22.5t23 -53.5q0 -32 -23 -54t-56 -22q-32 0 -54.5 22.5t-22.5 54.5q0 31 23 53t55 22zM701 443v-443h-128v443h128z" />
    <glyph glyph-name="ffl" unicode="ffl" horiz-adv-x="752" 
d="M188 328v-328h-128v328h-41v115h41v78q0 74 34 114.5t96 40.5q34 0 70 -9v-115q-27 9 -43 9q-29 0 -29 -42v-76h74v-115h-74zM449 328v-328h-128v328h-41v115h41v78q0 74 34 114.5t96 40.5q34 0 70 -9v-115q-27 9 -43 9q-29 0 -29 -42v-76h74v-115h-74zM701 0h-128v667
h128v-667z" />
    <glyph glyph-name=".notdef" horiz-adv-x="224" 
 />
    <glyph glyph-name=".null" horiz-adv-x="0" 
 />
    <glyph glyph-name="nonmarkingreturn" horiz-adv-x="333" 
 />
    <glyph glyph-name="space" unicode=" " horiz-adv-x="224" 
 />
    <glyph glyph-name="exclam" unicode="!" horiz-adv-x="310" 
d="M95 178l-11 489h142l-11 -489h-120zM155 138q32 0 55 -22.5t23 -53.5t-23 -53.5t-55 -22.5q-33 0 -55.5 22.5t-22.5 54.5q0 31 23 53t55 22z" />
    <glyph glyph-name="quotedbl" unicode="&#x22;" horiz-adv-x="353" 
d="M147 383h-103l-14 310h131zM308 383h-103l-14 310h131z" />
    <glyph glyph-name="numbersign" unicode="#" horiz-adv-x="593" 
d="M108 180h-71l20 99h71l22 105h-71l20 99h71l41 198l104 -24l-35 -174h95l41 198l105 -22l-36 -176h71l-21 -99h-71l-21 -105h71l-21 -99h-71l-40 -197l-105 24l36 173h-96l-40 -197l-105 24zM333 279l22 105h-96l-21 -105h95z" />
    <glyph glyph-name="dollar" unicode="$" horiz-adv-x="587" 
d="M54 190l130 34q15 -58 27 -76q27 -39 76 -39q40 0 67.5 26.5t27.5 65.5q0 26 -20 43.5t-70 36.5l-58 23q-151 56 -151 182q0 67 41 117.5t110 70.5v93h131v-93q46 -13 79 -41t66 -82l-109 -69q-30 46 -50.5 61.5t-52.5 15.5q-35 0 -58.5 -21t-23.5 -53q0 -41 72 -69
l61 -23q167 -63 167 -191q0 -70 -41.5 -126.5t-109.5 -78.5v-100h-131v93q-146 32 -180 200z" />
    <glyph glyph-name="percent" unicode="%" horiz-adv-x="896" 
d="M602 683l72 -42l-380 -657l-72 41zM199 676q166 0 166 -207q0 -101 -41.5 -153.5t-121.5 -52.5q-165 0 -165 209q0 99 41.5 151.5t120.5 52.5zM201 593q-71 0 -71 -119q0 -128 71 -128t71 123q0 124 -71 124zM693 404q166 0 166 -207q0 -206 -165 -206q-163 0 -163 209
q0 99 41.5 151.5t120.5 52.5zM695 321q-71 0 -71 -119q0 -128 71 -128t71 122q0 125 -71 125z" />
    <glyph glyph-name="ampersand" unicode="&#x26;" horiz-adv-x="675" 
d="M351 367l107 -124q13 29 32 82l122 -33l-6 -15q-27 -87 -58 -140l118 -137h-164l-36 43q-80 -59 -173 -59q-100 0 -168 58.5t-68 144.5q0 55 28.5 98t99.5 94q-36 47 -49.5 77t-13.5 64q0 70 48 116.5t120 46.5q70 0 117.5 -45t47.5 -112q0 -44 -24.5 -81.5t-79.5 -77.5z
M280 450q36 29 48 44.5t12 35.5q0 22 -14 35.5t-37 13.5t-37.5 -14.5t-14.5 -37.5q0 -27 43 -77zM385 140l-130 155q-69 -59 -69 -103q0 -38 30 -63t75 -25q51 0 94 36z" />
    <glyph glyph-name="quotesingle" unicode="'" horiz-adv-x="192" 
d="M147 383h-103l-14 310h131z" />
    <glyph glyph-name="parenleft" unicode="(" horiz-adv-x="329" 
d="M164 750l115 -54q-43 -111 -61 -205.5t-18 -214.5t18 -214.5t61 -205.5l-115 -54q-26 57 -27 59q-29 73 -48 189t-19 226t19 225.5t48 188.5q2 5 27 60z" />
    <glyph glyph-name="parenright" unicode=")" horiz-adv-x="329" 
d="M50 696l115 54q10 -21 27 -60q29 -73 48 -188.5t19 -225.5t-19 -226t-48 -189q-2 -3 -3.5 -6.5l-7.5 -17.5t-16 -35l-115 54q43 110 61 205t18 215t-18 215t-61 205z" />
    <glyph glyph-name="asterisk" unicode="*" horiz-adv-x="505" 
d="M197 644l-5 112h121l-4 -112l105 39l38 -115l-109 -31l70 -88l-98 -71l-62 93l-62 -93l-99 71l70 88l-108 31l38 115z" />
    <glyph glyph-name="plus" unicode="+" horiz-adv-x="556" 
d="M219 370v200h118v-200h199v-115h-199v-200h-118v200h-199v115h199z" />
    <glyph glyph-name="comma" unicode="," horiz-adv-x="271" 
d="M112 132l117 -43l-123 -275l-95 38z" />
    <glyph glyph-name="hyphen" unicode="-" horiz-adv-x="283" 
d="M24 289h235v-117h-235v117z" />
    <glyph glyph-name="period" unicode="." horiz-adv-x="258" 
d="M129 138q32 0 55 -22.5t23 -53.5t-23 -53.5t-55 -22.5q-33 0 -55.5 22.5t-22.5 54.5q0 31 23 53t55 22z" />
    <glyph glyph-name="slash" unicode="/" horiz-adv-x="563" 
d="M42 44l376 640l103 -61l-375 -640z" />
    <glyph glyph-name="zero" unicode="0" horiz-adv-x="582" 
d="M291 683q263 0 263 -350q0 -349 -263 -349q-264 0 -264 354q0 170 67 257.5t197 87.5zM290 560q-50 0 -82 -34q-20 -23 -33 -75t-13 -110q0 -119 31.5 -176.5t97.5 -57.5q128 0 128 229q0 149 -54 197q-29 27 -75 27z" />
    <glyph glyph-name="one" unicode="1" horiz-adv-x="334" 
d="M268 0h-133v506l-77 -43l-64 108l170 96h104v-667z" />
    <glyph glyph-name="two" unicode="2" horiz-adv-x="499" 
d="M40 0v103l236 260q63 71 63 126q0 33 -21.5 52t-59.5 19q-44 0 -65 -21t-38 -82l-123 33q15 72 50 115q28 37 74.5 57.5t101.5 20.5q95 0 154 -54.5t59 -143.5q0 -95 -72 -175l-169 -187h255v-123h-445z" />
    <glyph glyph-name="three" unicode="3" horiz-adv-x="493" 
d="M175 289v118h56q89 0 89 76q0 35 -23 56t-61 21q-32 0 -53 -14.5t-51 -57.5l-110 60q43 72 92.5 103.5t120.5 31.5q94 0 155 -55.5t61 -141.5q0 -75 -57 -131q72 -62 72 -154q0 -94 -66 -155.5t-167 -61.5q-114 0 -177 77q-32 40 -53 121l128 34q17 -62 38.5 -85.5
t64.5 -23.5q44 0 71.5 26t27.5 69q0 87 -102 87h-56z" />
    <glyph glyph-name="four" unicode="4" horiz-adv-x="522" 
d="M301 689l109 -67l-232 -365h121v130h132v-130h69v-122h-69v-135h-132v135h-282v109z" />
    <glyph glyph-name="five" unicode="5" horiz-adv-x="541" 
d="M253 544l-18 -88q18 3 31 3q101 0 171 -67.5t70 -166.5q0 -102 -72 -171.5t-178 -69.5q-74 0 -128 34t-102 110l107 73q21 -34 26 -42q37 -52 99 -52q49 0 82 32.5t33 82.5t-32 83t-81 33q-48 0 -87 -43l-102 22l72 350h332v-123h-223z" />
    <glyph glyph-name="six" unicode="6" horiz-adv-x="549" 
d="M310 689l104 -76l-121 -167q82 -8 134 -48q87 -65 87 -175q0 -100 -70 -169.5t-171 -69.5t-171.5 69.5t-70.5 168.5q0 82 53 156zM273 326q-47 0 -78.5 -31t-31.5 -77q0 -47 31.5 -79t78.5 -32t78 32.5t31 81.5q0 45 -31 75t-78 30z" />
    <glyph glyph-name="seven" unicode="7" horiz-adv-x="457" 
d="M23 38l276 506h-295v123h456v-94l-322 -595z" />
    <glyph glyph-name="eight" unicode="8" horiz-adv-x="520" 
d="M108 355q-33 32 -47 62t-14 69q0 83 61.5 140t151.5 57t151.5 -57t61.5 -140q0 -71 -61 -131q43 -36 62 -72.5t19 -84.5q0 -92 -66.5 -153t-166.5 -61t-166.5 61t-66.5 153q0 48 19 84.5t62 72.5zM258 292q-44 0 -71.5 -26t-27.5 -68t28 -68t73 -26t73 26t28 69
q0 42 -28 67.5t-75 25.5zM259 567q-38 0 -62 -23.5t-24 -60.5q0 -35 24.5 -57.5t62.5 -22.5t62.5 22.5t24.5 58.5q0 37 -24.5 60t-63.5 23z" />
    <glyph glyph-name="nine" unicode="9" horiz-adv-x="551" 
d="M238 -22l-103 76l120 167q-82 8 -134 48q-87 65 -87 175q0 100 70 169.5t171 69.5t171.5 -69.5t70.5 -168.5q0 -81 -53 -156zM275 560q-47 0 -78 -32.5t-31 -81.5q0 -45 31 -75t78 -30t78.5 31t31.5 77q0 47 -31.5 79t-78.5 32z" />
    <glyph glyph-name="colon" unicode=":" horiz-adv-x="258" 
d="M129 138q32 0 55 -22.5t23 -53.5t-23 -53.5t-55 -22.5q-33 0 -55.5 22.5t-22.5 54.5q0 31 23 53t55 22zM129 430q32 0 55 -22.5t23 -53.5t-23 -53.5t-55 -22.5q-33 0 -55.5 22.5t-22.5 54.5q0 31 23 53t55 22z" />
    <glyph glyph-name="semicolon" unicode=";" horiz-adv-x="265" 
d="M112 132l117 -43l-123 -275l-95 38zM151 430q32 0 55 -22.5t23 -53.5q0 -32 -23 -54t-56 -22q-32 0 -54.5 22.5t-22.5 54.5q0 31 23 53t55 22z" />
    <glyph glyph-name="less" unicode="&#x3c;" horiz-adv-x="584" 
d="M535 615v-134l-316 -144l316 -145v-133l-487 229v98z" />
    <glyph glyph-name="equal" unicode="=" horiz-adv-x="556" 
d="M507 455v-116h-458v116h458zM507 286v-116h-458v116h458z" />
    <glyph glyph-name="greater" unicode="&#x3e;" horiz-adv-x="584" 
d="M48 59v134l316 144l-316 144v134l487 -229v-99z" />
    <glyph glyph-name="question" unicode="?" horiz-adv-x="441" 
d="M152 178v63q0 49 13 76.5t51 58.5l40 34q49 40 49 84q0 30 -20 47.5t-55 17.5t-57.5 -16t-54.5 -65l-98 79q38 65 88 95.5t121 30.5q93 0 150.5 -52.5t57.5 -136.5q0 -49 -19.5 -87t-67.5 -82l-45 -42q-14 -13 -19 -20q-3 -7 -3 -30v-55h-131zM217 138q32 0 55 -22.5
t23 -53.5t-23 -53.5t-55 -22.5q-33 0 -55.5 22.5t-22.5 54.5q0 31 23 53t55 22z" />
    <glyph glyph-name="at" unicode="@" horiz-adv-x="895" 
d="M641 533l-42 -324h3q62 0 96.5 43.5t34.5 121.5q0 71 -29 128t-81 86q-57 33 -141 33q-145 0 -232 -81t-87 -216q0 -121 76 -197q81 -81 244 -81q55 0 99.5 7.5t124.5 30.5l33 -90q-133 -43 -260 -43q-107 0 -191.5 31.5t-135.5 89.5q-89 103 -89 251q0 86 32 162.5
t90 129.5q52 48 129.5 74.5t163.5 26.5q160 0 256.5 -93t96.5 -247q0 -80 -31 -140.5t-89 -91.5q-52 -30 -141 -30h-131q-85 0 -137 52.5t-52 137.5q0 105 72 171q63 58 180 58h138zM498 209l30 229h-34q-67 0 -104.5 -35t-37.5 -97q0 -46 25 -71.5t71 -25.5h50z" />
    <glyph glyph-name="A" unicode="A" horiz-adv-x="643" 
d="M453 155h-263l-56 -155h-140l249 667h157l249 -667h-141zM409 279l-88 246l-88 -246h176z" />
    <glyph glyph-name="B" unicode="B" horiz-adv-x="531" 
d="M67 0v667h160q99 0 152 -31q42 -24 67 -67t25 -90q0 -68 -55 -122q86 -58 86 -159q0 -53 -27 -97t-76 -71q-52 -30 -141 -30h-191zM197 396h41q49 0 70 11q37 21 37 67q0 36 -22 56q-20 20 -85 20h-41v-154zM197 120h56q55 0 79 14q40 22 40 69q0 46 -36 67
q-27 16 -92 16h-47v-166z" />
    <glyph glyph-name="C" unicode="C" horiz-adv-x="674" 
d="M650 556l-94 -90q-47 51 -85.5 71.5t-88.5 20.5q-92 0 -155 -65t-63 -160q0 -94 63.5 -159t155.5 -65q49 0 88 20.5t88 72.5l95 -89q-66 -69 -129 -99t-141 -30q-148 0 -251.5 102t-103.5 247t103.5 247.5t250.5 102.5q77 0 140 -30t127 -97z" />
    <glyph glyph-name="D" unicode="D" horiz-adv-x="620" 
d="M67 667h158q167 0 266.5 -90.5t99.5 -242.5t-99.5 -243t-266.5 -91h-158v667zM200 543v-419h29q107 0 167.5 56t60.5 154q0 97 -61 153t-167 56h-29z" />
    <glyph glyph-name="E" unicode="E" horiz-adv-x="489" 
d="M449 667v-123h-249v-145h221v-123h-221v-152h258v-124h-391v667h382z" />
    <glyph glyph-name="F" unicode="F" horiz-adv-x="452" 
d="M427 667v-123h-227v-145h207v-124h-207v-275h-133v667h360z" />
    <glyph glyph-name="G" unicode="G" horiz-adv-x="728" 
d="M376 373h321v-64q0 -146 -85.5 -235.5t-225.5 -89.5q-149 0 -253 101.5t-104 247.5t103.5 248t252.5 102q76 0 137 -28.5t131 -95.5l-94 -89q-49 50 -87 69t-88 19q-94 0 -157 -65t-63 -160t64 -159.5t158 -64.5q81 0 132 55q29 32 40 86h-182v123z" />
    <glyph glyph-name="H" unicode="H" horiz-adv-x="652" 
d="M200 667v-268h252v268h133v-667h-133v275h-252v-275h-133v667h133z" />
    <glyph glyph-name="I" unicode="I" horiz-adv-x="267" 
d="M200 667v-667h-133v667h133z" />
    <glyph glyph-name="J" unicode="J" horiz-adv-x="427" 
d="M359 667v-459q0 -87 -29 -140q-22 -40 -63.5 -62t-92.5 -22q-97 0 -184 91l81 96q55 -62 99 -62q56 0 56 99v459h133z" />
    <glyph glyph-name="K" unicode="K" horiz-adv-x="604" 
d="M347 384l257 -384h-158l-190 287l-56 -61v-226h-133v667h133v-260l241 260h169z" />
    <glyph glyph-name="L" unicode="L" horiz-adv-x="440" 
d="M67 667h133v-543h240v-124h-373v667z" />
    <glyph glyph-name="M" unicode="M" horiz-adv-x="800" 
d="M67 0v667h123l210 -369l210 369h123v-667h-133v403l-151 -267h-98l-151 267v-403h-133z" />
    <glyph glyph-name="N" unicode="N" horiz-adv-x="708" 
d="M67 0v667h113l328 -434v434h133v-667h-113l-328 434v-434h-133z" />
    <glyph glyph-name="O" unicode="O" horiz-adv-x="762" 
d="M381 683q145 0 248.5 -103t103.5 -247q0 -143 -103.5 -246t-247.5 -103q-147 0 -250 103t-103 251q0 140 105 242.5t247 102.5zM380 558q-91 0 -153.5 -66.5t-62.5 -161.5q0 -90 64.5 -155.5t152.5 -65.5q89 0 153 66t64 158q0 94 -63.5 159.5t-154.5 65.5z" />
    <glyph glyph-name="P" unicode="P" horiz-adv-x="478" 
d="M200 242v-242h-133v667h158q94 0 145 -30q47 -26 73.5 -75t26.5 -107q0 -59 -27 -108t-73 -75q-51 -30 -145 -30h-25zM200 363h34q55 0 80.5 22t25.5 69t-25.5 69t-80.5 22h-34v-182z" />
    <glyph glyph-name="Q" unicode="Q" horiz-adv-x="760" 
d="M607 -51l-73 71q-76 -36 -154 -36q-144 0 -247.5 103t-103.5 246q0 144 103.5 247t248.5 103t248.5 -103t103.5 -247q0 -134 -93 -235l60 -58zM395 156l92 91l60 -58q51 60 51 143q0 95 -63 160.5t-154 65.5q-90 0 -153.5 -65.5t-63.5 -159.5q0 -90 63.5 -157t148.5 -67
q20 0 58 8z" />
    <glyph glyph-name="R" unicode="R" horiz-adv-x="561" 
d="M399 0l-136 243h-2h-3l-33 -1h-25v-242h-133v667h158q104 0 158 -32q48 -28 75.5 -76.5t27.5 -106.5q0 -113 -94 -173l157 -279h-150zM200 363h34q64 0 93 21.5t29 68.5q0 55 -40 77q-27 15 -82 15h-34v-182z" />
    <glyph glyph-name="S" unicode="S" horiz-adv-x="525" 
d="M483 551l-109 -69q-30 46 -51 61.5t-52 15.5q-35 0 -58.5 -21.5t-23.5 -53.5q0 -41 72 -68l62 -23q166 -63 166 -191q0 -92 -66.5 -155t-164.5 -63q-54 0 -101.5 21.5t-76.5 58.5q-35 46 -53 125l130 35q14 -58 27 -76q28 -40 75 -40q40 0 68 27t28 65q0 26 -20.5 44
t-69.5 37l-58 22q-151 58 -151 182q0 85 62.5 141.5t155.5 56.5q68 0 117 -31t92 -101z" />
    <glyph glyph-name="T" unicode="T" horiz-adv-x="441" 
d="M447 667v-123h-160v-544h-133v544h-160v123h453z" />
    <glyph glyph-name="U" unicode="U" horiz-adv-x="642" 
d="M200 667v-409q0 -72 14 -96q13 -23 43.5 -38t63.5 -15t63.5 15t43.5 38q14 24 14 96v409h133v-427q0 -84 -30 -135q-32 -56 -93 -88.5t-131 -32.5t-131 32.5t-94 88.5q-29 51 -29 135v427h133z" />
    <glyph glyph-name="V" unicode="V" horiz-adv-x="584" 
d="M134 667l158 -479l158 479h140l-222 -667h-152l-222 667h140z" />
    <glyph glyph-name="W" unicode="W" horiz-adv-x="877" 
d="M133 667l123 -427l127 427h111l128 -427l123 427h138l-199 -667h-119l-126 417l-126 -417h-119l-200 667h139z" />
    <glyph glyph-name="X" unicode="X" horiz-adv-x="581" 
d="M367 348l221 -348h-153l-144 230l-146 -230h-151l222 347l-203 320h151l128 -203l128 203h149z" />
    <glyph glyph-name="Y" unicode="Y" horiz-adv-x="552" 
d="M209 276l-222 391h149l140 -254l140 254h149l-223 -391v-276h-133v276z" />
    <glyph glyph-name="Z" unicode="Z" horiz-adv-x="513" 
d="M494 566l-310 -442h317v-124h-491v101l315 443h-287v123h456v-101z" />
    <glyph glyph-name="bracketleft" unicode="[" horiz-adv-x="319" 
d="M286 613h-86v-674h86v-121h-216v916h216v-121z" />
    <glyph glyph-name="backslash" unicode="\" horiz-adv-x="549" 
d="M131 684l375 -648l-89 -53l-375 648z" />
    <glyph glyph-name="bracketright" unicode="]" horiz-adv-x="319" 
d="M32 613v121h216v-916h-216v121h86v674h-86z" />
    <glyph glyph-name="asciicircum" unicode="^" horiz-adv-x="579" 
d="M163 334h-151l211 365h134l211 -365h-151l-128 216z" />
    <glyph glyph-name="underscore" unicode="_" horiz-adv-x="528" 
d="M-13 -40h553v-118h-553v118z" />
    <glyph glyph-name="grave" unicode="`" horiz-adv-x="476" 
d="M72 645l119 62l130 -172l-86 -48z" />
    <glyph glyph-name="a" unicode="a" horiz-adv-x="543" 
d="M494 0h-128v25q-55 -41 -115 -41q-95 0 -161.5 69.5t-66.5 168.5q0 98 66.5 167.5t161.5 69.5q60 0 115 -41v25h128v-443zM259 344q-48 0 -77.5 -34t-29.5 -90q0 -53 30.5 -87t78.5 -34t77.5 34t29.5 90q0 55 -30 88t-79 33z" />
    <glyph glyph-name="b" unicode="b" horiz-adv-x="543" 
d="M50 0v667h128v-248q55 40 115 40q95 0 161.5 -69.5t66.5 -167.5q0 -99 -66.5 -168.5t-161.5 -69.5q-60 0 -115 41v-25h-128zM282 343q-46 0 -75.5 -34t-29.5 -88t29.5 -87.5t76.5 -33.5q49 0 79 34t30 89q0 54 -30 87t-80 33z" />
    <glyph glyph-name="c" unicode="c" horiz-adv-x="461" 
d="M450 371l-82 -85q-32 34 -54 45.5t-52 11.5q-50 0 -80.5 -33.5t-30.5 -89.5q0 -54 30.5 -87t80.5 -33q31 0 55 13.5t53 47.5l82 -85q-46 -49 -90 -70.5t-100 -21.5q-102 0 -171 68.5t-69 169.5t69 169t171 68q54 0 96 -20t92 -68z" />
    <glyph glyph-name="d" unicode="d" horiz-adv-x="543" 
d="M494 0h-128v25q-56 -41 -115 -41q-95 0 -161.5 69.5t-66.5 168.5q0 98 66.5 167.5t161.5 69.5q58 0 115 -40v248h128v-667zM259 343q-47 0 -77 -34t-30 -89q0 -53 30.5 -86.5t77.5 -33.5q48 0 77.5 34t29.5 89q0 54 -29.5 87t-78.5 33z" />
    <glyph glyph-name="e" unicode="e" horiz-adv-x="493" 
d="M353 154l112 -44q-77 -126 -210 -126q-100 0 -166.5 68t-66.5 169q0 100 66 169t161 69q97 0 160 -70t63 -177q0 -16 -1 -35h-318q25 -80 101 -80q63 0 99 57zM153 266h192q-26 81 -96 81q-73 0 -96 -81z" />
    <glyph glyph-name="f" unicode="f" horiz-adv-x="269" 
d="M188 328v-328h-128v328h-41v115h41v78q0 74 34 114.5t96 40.5q34 0 70 -9v-115q-27 9 -43 9q-29 0 -29 -42v-76h74v-115h-74z" />
    <glyph glyph-name="g" unicode="g" horiz-adv-x="543" 
d="M366 -9v34q-57 -41 -115 -41q-95 0 -161.5 69.5t-66.5 168.5q0 98 66.5 167.5t161.5 69.5q58 0 115 -41v25h128v-452q0 -107 -67 -173.5t-174 -66.5q-105 0 -179 68q-23 23 -46 50l86 82q10 -12 11 -13q3 -4 9 -10q51 -61 118 -61q55 0 84.5 32.5t29.5 91.5zM260 344
q-47 0 -77.5 -34t-30.5 -87q0 -55 30 -89.5t78 -34.5t77.5 34t29.5 89t-29.5 88.5t-77.5 33.5z" />
    <glyph glyph-name="h" unicode="h" horiz-adv-x="510" 
d="M178 667v-244q46 36 101 36q47 0 89 -23.5t64 -63.5q28 -47 28 -133v-239h-128v232q0 62 -16 86.5t-56 24.5q-50 0 -68 -33q-14 -25 -14 -87v-223h-128v667h128z" />
    <glyph glyph-name="i" unicode="i" horiz-adv-x="229" 
d="M115 671q32 0 55 -22.5t23 -53.5q0 -32 -23 -54t-56 -22q-32 0 -54.5 22.5t-22.5 54.5q0 31 23 53t55 22zM179 443v-443h-128v443h128z" />
    <glyph glyph-name="j" unicode="j" horiz-adv-x="237" 
d="M186 443v-532q0 -73 -33.5 -114t-93.5 -41q-31 0 -73 13v119q36 -13 53 -13q19 0 19 39v529h128zM123 671q32 0 55 -22.5t23 -53.5t-23 -53.5t-55 -22.5q-33 0 -55.5 22.5t-22.5 54.5q0 31 23 53t55 22z" />
    <glyph glyph-name="k" unicode="k" horiz-adv-x="491" 
d="M300 256l202 -256h-159l-132 170l-33 -32v-138h-128v667h128v-365l144 141h170z" />
    <glyph glyph-name="l" unicode="l" horiz-adv-x="230" 
d="M179 0h-128v667h128v-667z" />
    <glyph glyph-name="m" unicode="m" horiz-adv-x="761" 
d="M177 443v-21q45 37 97 37q62 0 115 -49q57 49 129 49q115 0 166 -92q27 -46 27 -130v-237h-128v230q0 64 -14 89t-50 25q-43 0 -60 -31q-14 -27 -14 -92v-221h-128v230q0 64 -14.5 89t-50.5 25q-43 0 -60 -31q-14 -27 -14 -92v-221h-128v443h127z" />
    <glyph glyph-name="n" unicode="n" horiz-adv-x="510" 
d="M178 443v-21q45 37 101 37q47 0 89 -23.5t64 -63.5q28 -49 28 -133v-239h-128v232q0 63 -16 87.5t-56 24.5q-50 0 -68 -33q-14 -27 -14 -88v-223h-128v443h128z" />
    <glyph glyph-name="o" unicode="o" horiz-adv-x="520" 
d="M264 459q97 0 166 -69.5t69 -167.5q0 -100 -68.5 -169t-169.5 -69t-170 69t-69 171q0 100 69.5 167.5t172.5 67.5zM259 343q-47 0 -77.5 -33.5t-30.5 -86.5q0 -55 30 -89t80 -34q49 0 79 33.5t30 88.5t-30.5 88t-80.5 33z" />
    <glyph glyph-name="p" unicode="p" horiz-adv-x="543" 
d="M50 443h128v-25q55 41 115 41q95 0 161.5 -69.5t66.5 -168.5q0 -98 -66.5 -167.5t-161.5 -69.5q-60 0 -115 41v-259h-128v677zM283 344q-47 0 -76.5 -34t-29.5 -89t29.5 -88t78.5 -33q47 0 77 34t30 89q0 53 -30.5 87t-78.5 34z" />
    <glyph glyph-name="q" unicode="q" horiz-adv-x="543" 
d="M494 443v-677h-128v259q-56 -41 -115 -41q-95 0 -161.5 69.5t-66.5 167.5q0 99 66.5 168.5t161.5 69.5q60 0 115 -41v25h128zM260 344q-48 0 -78 -34t-30 -89q0 -54 30.5 -87.5t79.5 -33.5q47 0 76 34t29 89q0 54 -30 87.5t-77 33.5z" />
    <glyph glyph-name="r" unicode="r" horiz-adv-x="311" 
d="M178 443v-24q38 27 81 27q14 0 44 -3v-114q-24 2 -44 2q-46 0 -63.5 -25t-17.5 -92v-214h-128v443h128z" />
    <glyph glyph-name="s" unicode="s" horiz-adv-x="389" 
d="M17 120l108 40q31 -63 72 -63q19 0 30.5 10t11.5 27q0 12 -8.5 19.5t-36.5 18.5l-59 23q-91 37 -91 121q0 61 46.5 102t114.5 41q103 0 160 -103l-102 -49q-27 40 -59 40q-37 0 -37 -29q0 -10 8.5 -16.5t35.5 -17.5l51 -20q105 -39 105 -125q0 -65 -49 -110t-122 -45
q-77 0 -129 50q-29 30 -50 86z" />
    <glyph glyph-name="t" unicode="t" horiz-adv-x="274" 
d="M182 328v-180q0 -38 19 -38q16 0 54 13v-119q-36 -13 -73 -13q-61 0 -94.5 40.5t-33.5 114.5v182h-45v115h45v92l128 50v-142h67v-115h-67z" />
    <glyph glyph-name="u" unicode="u" horiz-adv-x="510" 
d="M332 0v21q-45 -37 -101 -37q-47 0 -89 23.5t-64 63.5q-28 49 -28 133v239h128v-232q0 -62 16 -86.5t56 -24.5q50 0 68 33q14 25 14 87v223h128v-443h-128z" />
    <glyph glyph-name="v" unicode="v" horiz-adv-x="469" 
d="M125 443l110 -262l109 262h137l-190 -443h-113l-190 443h137z" />
    <glyph glyph-name="w" unicode="w" horiz-adv-x="658" 
d="M-12 443h136l76 -234l80 234h98l80 -234l77 234h136l-161 -443h-102l-79 230l-79 -230h-102z" />
    <glyph glyph-name="x" unicode="x" horiz-adv-x="493" 
d="M323 229l178 -229h-154l-101 132l-100 -132h-154l178 229l-166 214h154l89 -117l89 117h153z" />
    <glyph glyph-name="y" unicode="y" horiz-adv-x="474" 
d="M163 22l-175 421h137l108 -265l117 265h137l-302 -677h-135z" />
    <glyph glyph-name="z" unicode="z" horiz-adv-x="418" 
d="M401 443v-93l-209 -236h218v-114h-392v92l210 237h-197v114h370z" />
    <glyph glyph-name="braceleft" unicode="{" horiz-adv-x="321" 
d="M289 -63v-118q-25 0 -31 -1h-25q-148 0 -148 159v190q-1 34 -9 43.5t-44 17.5v102l12 3q26 8 33 17t8 37v187q0 82 36.5 121t111.5 39q11 0 56 -1v-119l-31 1h-9q-25 -1 -29 -5t-5 -27v-201q-1 -71 -34 -106q33 -35 34 -109v-198q0 -22 4.5 -26.5t27.5 -5.5h42z" />
    <glyph glyph-name="bar" unicode="|" horiz-adv-x="529" 
d="M201 728h126v-904h-126v904z" />
    <glyph glyph-name="braceright" unicode="}" horiz-adv-x="321" 
d="M32 -181v118q8 1 19 1t23 -1q22 0 27 5t5 27v198q1 74 34 109q-33 35 -34 106v201q-1 23 -5 27t-29 5h-9l-31 -1v119q45 1 56 1q75 0 111.5 -39t36.5 -121v-187q1 -28 8 -37t33 -17l12 -3v-102q-36 -8 -44 -17.5t-9 -43.5v-190q0 -159 -148 -159q-20 0 -56 1z" />
    <glyph glyph-name="asciitilde" unicode="~" horiz-adv-x="709" 
d="M167 545l-87 56q39 80 72 113q36 38 98 38q48 0 124 -36q58 -29 86 -29q23 0 36.5 13t44.5 64l88 -52q-36 -73 -60 -97q-50 -52 -113 -52q-28 0 -58.5 10t-97.5 40q-37 15 -56 15q-20 0 -34.5 -16t-42.5 -67z" />
    <glyph glyph-name="uni00A0" unicode="&#xa0;" horiz-adv-x="224" 
 />
    <glyph glyph-name="exclamdown" unicode="&#xa1;" horiz-adv-x="310" 
d="M95 305h120l11 -489h-142zM155 496q32 0 55 -22.5t23 -53.5q0 -32 -23 -54t-56 -22q-32 0 -54.5 22.5t-22.5 54.5q0 31 23 53t55 22z" />
    <glyph glyph-name="cent" unicode="&#xa2;" horiz-adv-x="553" 
d="M355 0h-131v106q-76 22 -122.5 84.5t-46.5 142.5q0 81 46 142.5t123 84.5v107h131v-104q69 -18 128 -80l-82 -85q-33 33 -54.5 45t-51.5 12q-50 0 -80.5 -33.5t-30.5 -89.5q0 -55 30.5 -88t80.5 -33q32 0 56 13.5t52 47.5l82 -85q-58 -65 -130 -84v-103z" />
    <glyph glyph-name="sterling" unicode="&#xa3;" horiz-adv-x="569" 
d="M441 395v-118h-173q8 -44 8 -74q0 -42 -23 -81h279v-122h-470v108l6 5q47 38 60.5 57t13.5 47q0 20 -9 60h-71v118h47q-5 34 -5 62q0 114 67 172q64 54 150 54q67 0 115 -31.5t88 -100.5l-107 -67q-27 44 -48 60t-52 16q-39 0 -60 -26.5t-21 -75.5q0 -22 7 -63h198z" />
    <glyph glyph-name="currency" unicode="&#xa4;" horiz-adv-x="750" 
d="M155 632l87 -89q67 39 133 39t133 -39l88 89l75 -73l-90 -91q38 -71 38 -134q0 -64 -37 -135l89 -90l-74 -75l-89 90q-69 -39 -133 -39t-133 39l-89 -90l-74 75l90 90q-38 71 -38 135q0 63 38 134l-90 91zM374 469q-55 0 -89 -38t-34 -97q0 -61 34.5 -98.5t89.5 -37.5
q56 0 90 38t34 99q0 60 -34.5 97t-90.5 37z" />
    <glyph glyph-name="yen" unicode="&#xa5;" horiz-adv-x="652" 
d="M234 318l-15 29h-110v99h53l-125 221h149l139 -253h1l140 253h149l-126 -221h55v-99h-112l-16 -29h128v-99h-152v-219h-133v219h-150v99h125z" />
    <glyph glyph-name="brokenbar" unicode="&#xa6;" horiz-adv-x="529" 
d="M201 728h126v-340h-126v340zM201 164h126v-340h-126v340z" />
    <glyph glyph-name="section" unicode="&#xa7;" horiz-adv-x="577" 
d="M287 410l62 -23q88 -34 129.5 -81t41.5 -114q0 -68 -46 -132q34 -46 34 -107q0 -89 -62.5 -145t-162.5 -56q-81 0 -139 38t-104 122l112 70q33 -59 63 -82.5t72 -23.5q39 0 63 21t24 56q0 26 -20.5 44.5t-73.5 38.5l-60 23q-153 59 -153 185q0 72 48 128q-37 47 -37 110
q0 86 63.5 143.5t158.5 57.5q69 0 118 -30.5t94 -100.5l-111 -71q-9 15 -14 20l-7 10q-22 28 -39.5 38t-44.5 10q-37 0 -61 -22t-24 -56q0 -42 76 -71zM225 299l-2 -2q-24 -27 -24 -53q0 -22 18 -39t58 -32l68 -26l22 -9q21 28 21 53q0 26 -20 43.5t-76 39.5z" />
    <glyph glyph-name="dieresis" unicode="&#xa8;" horiz-adv-x="476" 
d="M331 668q31 0 53 -21.5t22 -51.5t-22 -51.5t-53 -21.5t-53 21.5t-22 52.5q0 29 22 50.5t53 21.5zM145 668q32 0 53.5 -21t21.5 -52t-22 -52t-54 -21q-31 0 -52.5 21.5t-21.5 52.5q0 29 22 50.5t53 21.5z" />
    <glyph glyph-name="copyright" unicode="&#xa9;" horiz-adv-x="835" 
d="M620 478l-74 -70q-34 38 -57 51t-56 13q-56 0 -95 -40.5t-39 -98.5t39 -98t95 -40q33 0 55.5 12.5t59.5 51.5l74 -70l-4 -4q-8 -8 -13 -12q-76 -76 -172 -76q-99 0 -169 69t-70 167t70 167.5t170 69.5q84 0 145 -52q15 -13 41 -40zM424 714q153 0 263.5 -112.5
t110.5 -267.5q0 -158 -111 -269.5t-269 -111.5q-159 0 -270 111.5t-111 271.5q0 158 113 268t274 110zM413 628q-118 0 -204 -87t-86 -207q0 -122 86 -208.5t208 -86.5q123 0 209 86.5t86 210.5q0 122 -87.5 207t-211.5 85z" />
    <glyph glyph-name="ordfeminine" unicode="&#xaa;" horiz-adv-x="348" 
d="M317 406h-89v10q-32 -21 -65 -21q-60 0 -101.5 41t-41.5 101t42 103t101 43q33 0 65 -22v11h89v-266zM170 604q-26 0 -43 -18.5t-17 -48.5q0 -29 16 -46t44 -17q27 0 43 18t16 48q0 28 -16.5 46t-42.5 18z" />
    <glyph glyph-name="guillemotleft" unicode="&#xab;" horiz-adv-x="509" 
d="M349 222l123 -151l-87 -68l-178 219l178 223l86 -68zM167 222l122 -151l-87 -69l-178 219l178 224l87 -68z" />
    <glyph glyph-name="logicalnot" unicode="&#xac;" horiz-adv-x="694" 
d="M641 54h-124v199h-463v117h587v-316z" />
    <glyph glyph-name="uni00AD" unicode="&#xad;" horiz-adv-x="283" 
d="M24 289h235v-117h-235v117z" />
    <glyph glyph-name="registered" unicode="&#xae;" horiz-adv-x="835" 
d="M423 714q153 0 263.5 -112.5t110.5 -267.5q0 -158 -111 -269.5t-269 -111.5t-269 111.5t-111 271.5q0 157 112.5 267.5t273.5 110.5zM606 108h-102l-88 158q-9 -1 -23 -1h-14v-157h-103v450h119q70 0 107 -22q33 -19 52 -52.5t19 -73.5q0 -71 -59 -115l101 -179
q45 40 70.5 98t25.5 120q0 122 -86.5 208t-207.5 86q-122 0 -208 -86.5t-86 -208.5q0 -121 86.5 -207.5t207.5 -86.5q105 0 189 69zM379 361h22q37 0 54 12t17 38q0 27 -16.5 39t-54.5 12h-22v-101z" />
    <glyph glyph-name="macron" unicode="&#xaf;" horiz-adv-x="476" 
d="M76 645h324v-110h-324v110z" />
    <glyph glyph-name="degree" unicode="&#xb0;" horiz-adv-x="328" 
d="M200 744q58 0 99.5 -42t41.5 -101q0 -60 -42 -102t-101 -42q-60 0 -102 42t-42 103q0 59 42.5 100.5t103.5 41.5zM197 655q-22 0 -38 -16t-16 -38q0 -23 16.5 -39t38.5 -16t38 16t16 39q0 22 -16 38t-39 16z" />
    <glyph glyph-name="plusminus" unicode="&#xb1;" horiz-adv-x="556" 
d="M219 449v194h118v-194h199v-115h-199v-194h-118v194h-199v115h199zM536 116v-116h-516v116h516z" />
    <glyph glyph-name="twosuperior" unicode="&#xb2;" 
d="M57 406v68l143 151q37 38 37 67q0 35 -43 35q-25 0 -36 -11.5t-22 -48.5l-85 22q27 121 143 121q60 0 97 -33t37 -86q0 -59 -45 -105l-92 -97h145v-83h-279z" />
    <glyph glyph-name="threesuperior" unicode="&#xb3;" 
d="M147 652h39q48 0 48 38q0 17 -11.5 27.5t-31.5 10.5q-19 0 -30.5 -8t-31.5 -35l-76 40q29 47 59.5 66t77.5 19q58 0 96.5 -34t38.5 -85q0 -43 -32 -75q40 -40 40 -88q0 -57 -41 -94.5t-105 -37.5q-87 0 -125 68q-10 19 -19 57l88 22q10 -39 21.5 -51.5t35.5 -12.5
t38.5 13.5t14.5 35.5q0 44 -55 44h-39v80z" />
    <glyph glyph-name="acute" unicode="&#xb4;" horiz-adv-x="476" 
d="M404 645l-163 -158l-86 48l130 172z" />
    <glyph glyph-name="mu" unicode="&#xb5;" horiz-adv-x="510" 
d="M178 -234h-128v677h128v-233q0 -61 16 -85.5t56 -24.5q50 0 68 33q14 25 14 87v223h128v-443h-128v21q-41 -37 -82 -37q-35 0 -72 27v-245z" />
    <glyph glyph-name="paragraph" unicode="&#xb6;" horiz-adv-x="645" 
d="M383 -234h-113v432q-48 6 -75 17t-56 35q-85 70 -85 182q0 100 67.5 167.5t166.5 67.5h320v-108h-63v-793h-113v793h-49v-793z" />
    <glyph glyph-name="periodcentered" unicode="&#xb7;" horiz-adv-x="258" 
d="M129 409q32 0 55 -22.5t23 -53.5t-23 -53.5t-55 -22.5q-33 0 -55.5 22.5t-22.5 54.5q0 31 23 53t55 22z" />
    <glyph glyph-name="cedilla" unicode="&#xb8;" horiz-adv-x="476" 
d="M358 -67l-134 -164l-93 45l111 167z" />
    <glyph glyph-name="onesuperior" unicode="&#xb9;" 
d="M256 406h-92v286l-42 -23l-45 73l109 59h70v-395z" />
    <glyph glyph-name="ordmasculine" unicode="&#xba;" horiz-adv-x="341" 
d="M172 683q62 0 105 -42t43 -102q0 -61 -43.5 -102.5t-106.5 -41.5t-106.5 41.5t-43.5 102.5t43.5 102.5t108.5 41.5zM170 603q-27 0 -43.5 -17.5t-16.5 -46.5t16.5 -46.5t43.5 -17.5t43.5 18t16.5 47q0 28 -17 45.5t-43 17.5z" />
    <glyph glyph-name="guillemotright" unicode="&#xbb;" horiz-adv-x="509" 
d="M343 222l-122 155l87 68l178 -224l-179 -219l-86 69zM160 222l-122 155l87 68l178 -223l-178 -219l-87 68z" />
    <glyph glyph-name="onequarter" unicode="&#xbc;" horiz-adv-x="833" 
d="M689 365l-137 -205h56v75h91v-75h41v-82h-41v-78h-91v78h-170v70l175 262zM532 683l72 -42l-380 -657l-72 41zM225 272h-92v286l-42 -23l-45 72l109 59h70v-394z" />
    <glyph glyph-name="onehalf" unicode="&#xbd;" horiz-adv-x="833" 
d="M531 683l72 -42l-380 -657l-72 41zM224 272h-92v286l-42 -23l-45 72l109 59h70v-394zM488 0v68l143 151q38 39 38 67q0 35 -43 35q-26 0 -37 -11.5t-21 -48.5l-86 22q27 121 143 121q60 0 97.5 -33t37.5 -86q0 -57 -45 -105l-93 -97h146v-83h-280z" />
    <glyph glyph-name="threequarters" unicode="&#xbe;" horiz-adv-x="833" 
d="M727 365l-136 -205h55v75h91v-75h42v-82h-42v-78h-91v78h-169v70l174 262zM592 683l72 -42l-380 -657l-72 41zM144 517h39q48 0 48 38q0 17 -11.5 27.5t-31.5 10.5t-31.5 -8t-30.5 -35l-76 40q30 48 60.5 67t76.5 19q58 0 96.5 -34t38.5 -85q0 -44 -32 -76q40 -39 40 -88
q0 -57 -41.5 -94t-104.5 -37q-87 0 -125 67q-13 24 -19 57l88 22q10 -38 21.5 -50.5t35.5 -12.5t38.5 13t14.5 35q0 44 -55 44h-39v80z" />
    <glyph glyph-name="questiondown" unicode="&#xbf;" horiz-adv-x="441" 
d="M305 305v-63q0 -50 -13 -77t-51 -58l-40 -34q-49 -40 -49 -83q0 -31 20 -48.5t54 -17.5q36 0 58.5 16t54.5 65l98 -79q-72 -126 -210 -126q-92 0 -149.5 52.5t-57.5 136.5q0 49 19.5 87t66.5 82l46 42q16 15 18 20q4 0 4 30v55h131zM241 496q32 0 54.5 -22.5t22.5 -54.5
q0 -31 -23 -53t-55 -22t-55 22.5t-23 53.5q0 32 23 54t56 22z" />
    <glyph glyph-name="Agrave" unicode="&#xc0;" horiz-adv-x="643" 
d="M453 155h-263l-56 -155h-140l249 667h157l249 -667h-141zM409 279l-88 246l-88 -246h176zM153 849l120 62l129 -172l-86 -47z" />
    <glyph glyph-name="Aacute" unicode="&#xc1;" horiz-adv-x="643" 
d="M487 849l-163 -157l-86 47l130 172zM453 155h-263l-56 -155h-140l249 667h157l249 -667h-141zM409 279l-88 246l-88 -246h176z" />
    <glyph glyph-name="Acircumflex" unicode="&#xc2;" horiz-adv-x="643" 
d="M453 155h-263l-56 -155h-140l249 667h157l249 -667h-141zM409 279l-88 246l-88 -246h176zM234 693l-97 47l145 153h79l145 -153l-97 -47l-87 83z" />
    <glyph glyph-name="Atilde" unicode="&#xc3;" horiz-adv-x="643" 
d="M453 155h-263l-56 -155h-140l249 667h157l249 -667h-141zM409 279l-88 246l-88 -246h176zM378 873l107 -24q-4 -53 -21 -81q-11 -20 -34 -32t-50 -12q-40 0 -79 21q-15 9 -25 9q-4 0 -6 -3q-1 -1 -7 -33l-105 23q13 125 108 125q33 0 78 -24q16 -8 24 -8q4 0 5.5 5
t4.5 34z" />
    <glyph glyph-name="Adieresis" unicode="&#xc4;" horiz-adv-x="643" 
d="M453 155h-263l-56 -155h-140l249 667h157l249 -667h-141zM409 279l-88 246l-88 -246h176zM415 868q32 0 53.5 -21t21.5 -52t-22 -52t-54 -21q-31 0 -52.5 21.5t-21.5 52.5q0 29 22 50.5t53 21.5zM229 868q32 0 53.5 -21t21.5 -52t-22 -52t-54 -21q-31 0 -52.5 21.5
t-21.5 52.5q0 29 22 50.5t53 21.5z" />
    <glyph glyph-name="Aring" unicode="&#xc5;" horiz-adv-x="643" 
d="M322 904q48 0 81.5 -33t33.5 -80t-33.5 -80t-81.5 -33t-81.5 33.5t-33.5 81.5q0 45 34 78t81 33zM322 843q-22 0 -37 -15.5t-15 -37.5q0 -20 15.5 -35.5t36.5 -15.5q22 0 37 15t15 37t-15 37t-37 15zM453 155h-263l-56 -155h-140l249 667h157l249 -667h-141zM409 279
l-88 246l-88 -246h176z" />
    <glyph glyph-name="AE" unicode="&#xc6;" horiz-adv-x="845" 
d="M423 155h-200l-80 -155h-149l351 667h460v-123h-249v-145h221v-123h-221v-152h258v-124h-391v155zM423 279v249h-7l-129 -249h136z" />
    <glyph glyph-name="Ccedilla" unicode="&#xc7;" horiz-adv-x="674" 
d="M650 556l-94 -90q-47 51 -85.5 71.5t-88.5 20.5q-92 0 -155 -65t-63 -160q0 -94 63.5 -159t155.5 -65q49 0 88 20.5t88 72.5l95 -89q-66 -69 -129 -99t-141 -30q-148 0 -251.5 102t-103.5 247t103.5 247.5t250.5 102.5q77 0 140 -30t127 -97zM457 -67l-134 -164l-93 45
l111 167z" />
    <glyph glyph-name="Egrave" unicode="&#xc8;" horiz-adv-x="489" 
d="M449 667v-123h-249v-145h221v-123h-221v-152h258v-124h-391v667h382zM103 849l119 62l130 -172l-86 -47z" />
    <glyph glyph-name="Eacute" unicode="&#xc9;" horiz-adv-x="489" 
d="M449 667v-123h-249v-145h221v-123h-221v-152h258v-124h-391v667h382zM423 849l-163 -157l-86 47l130 172z" />
    <glyph glyph-name="Ecircumflex" unicode="&#xca;" horiz-adv-x="489" 
d="M449 667v-123h-249v-145h221v-123h-221v-152h258v-124h-391v667h382zM176 693l-98 47l146 153h79l145 -153l-98 -47l-87 83z" />
    <glyph glyph-name="Edieresis" unicode="&#xcb;" horiz-adv-x="489" 
d="M449 667v-123h-249v-145h221v-123h-221v-152h258v-124h-391v667h382zM356 868q32 0 53.5 -21t21.5 -52q0 -30 -22 -51.5t-53 -21.5t-53 21.5t-22 52.5q0 29 22 50.5t53 21.5zM170 868q32 0 53.5 -21t21.5 -52t-22 -52t-54 -21q-31 0 -52.5 21.5t-21.5 52.5q0 29 22 50.5
t53 21.5z" />
    <glyph glyph-name="Igrave" unicode="&#xcc;" horiz-adv-x="267" 
d="M200 667v-667h-133v667h133zM-40 849l119 62l130 -172l-86 -47z" />
    <glyph glyph-name="Iacute" unicode="&#xcd;" horiz-adv-x="267" 
d="M200 667v-667h-133v667h133zM303 849l-163 -157l-86 47l130 172z" />
    <glyph glyph-name="Icircumflex" unicode="&#xce;" horiz-adv-x="267" 
d="M200 667v-667h-133v667h133zM46 693l-97 47l145 153h79l145 -153l-97 -47l-87 83z" />
    <glyph glyph-name="Idieresis" unicode="&#xcf;" horiz-adv-x="267" 
d="M200 667v-667h-133v667h133zM53 868q32 0 53.5 -21t21.5 -52q0 -30 -22 -51.5t-53 -21.5q-32 0 -53.5 21.5t-21.5 52.5q0 29 22 50.5t53 21.5zM215 868q31 0 53 -21.5t22 -51.5q0 -31 -22 -52t-54 -21q-31 0 -52.5 21.5t-21.5 52.5q0 29 22 50.5t53 21.5z" />
    <glyph glyph-name="Eth" unicode="&#xd0;" horiz-adv-x="632" 
d="M79 418v249h159q166 0 265.5 -90.5t99.5 -242.5t-99.5 -243t-265.5 -91h-159v298h-62v120h62zM212 418h143v-120h-143v-174h29q107 0 167.5 56t60.5 154q0 97 -61 153t-167 56h-29v-125z" />
    <glyph glyph-name="Ntilde" unicode="&#xd1;" horiz-adv-x="708" 
d="M67 0v667h113l328 -434v434h133v-667h-113l-328 434v-434h-133zM414 873l106 -24q-4 -55 -20 -81q-26 -44 -84 -44q-40 0 -79 21q-15 9 -26 9q-3 0 -5 -3q-2 -2 -8 -33l-104 23q12 125 107 125q34 0 79 -24q16 -8 24 -8q4 0 5.5 5t4.5 34z" />
    <glyph glyph-name="Ograve" unicode="&#xd2;" horiz-adv-x="762" 
d="M214 849l119 62l130 -172l-86 -47zM381 683q145 0 248.5 -103t103.5 -247q0 -143 -103.5 -246t-247.5 -103q-147 0 -250 103t-103 251q0 140 105 242.5t247 102.5zM380 558q-91 0 -153.5 -66.5t-62.5 -161.5q0 -90 64.5 -155.5t152.5 -65.5q89 0 153 66t64 158
q0 94 -63.5 159.5t-154.5 65.5z" />
    <glyph glyph-name="Oacute" unicode="&#xd3;" horiz-adv-x="762" 
d="M381 683q145 0 248.5 -103t103.5 -247q0 -143 -103.5 -246t-247.5 -103q-147 0 -250 103t-103 251q0 140 105 242.5t247 102.5zM380 558q-91 0 -153.5 -66.5t-62.5 -161.5q0 -90 64.5 -155.5t152.5 -65.5q89 0 153 66t64 158q0 94 -63.5 159.5t-154.5 65.5zM549 849
l-163 -157l-86 47l129 172z" />
    <glyph glyph-name="Ocircumflex" unicode="&#xd4;" horiz-adv-x="762" 
d="M381 683q145 0 248.5 -103t103.5 -247q0 -143 -103.5 -246t-247.5 -103q-147 0 -250 103t-103 251q0 140 105 242.5t247 102.5zM380 558q-91 0 -153.5 -66.5t-62.5 -161.5q0 -90 64.5 -155.5t152.5 -65.5q89 0 153 66t64 158q0 94 -63.5 159.5t-154.5 65.5zM294 693
l-98 47l146 153h79l145 -153l-97 -47l-88 83z" />
    <glyph glyph-name="Otilde" unicode="&#xd5;" horiz-adv-x="762" 
d="M381 683q145 0 248.5 -103t103.5 -247q0 -143 -103.5 -246t-247.5 -103q-147 0 -250 103t-103 251q0 140 105 242.5t247 102.5zM380 558q-91 0 -153.5 -66.5t-62.5 -161.5q0 -90 64.5 -155.5t152.5 -65.5q89 0 153 66t64 158q0 94 -63.5 159.5t-154.5 65.5zM438 873
l106 -24q-4 -53 -20 -81q-26 -44 -84 -44q-40 0 -79 21q-15 9 -26 9q-3 0 -5 -3q-2 -2 -8 -33l-104 23q12 125 107 125q34 0 79 -24q16 -8 24 -8q4 0 5.5 5t4.5 34z" />
    <glyph glyph-name="Odieresis" unicode="&#xd6;" horiz-adv-x="762" 
d="M381 683q145 0 248.5 -103t103.5 -247q0 -143 -103.5 -246t-247.5 -103q-147 0 -250 103t-103 251q0 140 105 242.5t247 102.5zM380 558q-91 0 -153.5 -66.5t-62.5 -161.5q0 -90 64.5 -155.5t152.5 -65.5q89 0 153 66t64 158q0 94 -63.5 159.5t-154.5 65.5zM474 868
q32 0 53.5 -21t21.5 -52t-22 -52t-54 -21q-31 0 -52.5 21.5t-21.5 52.5q0 29 22 50.5t53 21.5zM288 868q31 0 53 -21.5t22 -51.5q0 -31 -22 -52t-54 -21q-31 0 -52.5 21.5t-21.5 52.5q0 29 22 50.5t53 21.5z" />
    <glyph glyph-name="multiply" unicode="&#xd7;" horiz-adv-x="556" 
d="M196 312l-141 141l83 82l140 -140l141 140l83 -82l-141 -141l141 -141l-83 -82l-141 140l-140 -140l-83 82z" />
    <glyph glyph-name="Oslash" unicode="&#xd8;" horiz-adv-x="770" 
d="M729 600l-61 -60q69 -95 69 -206q0 -144 -103.5 -247t-248.5 -103q-113 0 -211 71l-60 -58l-73 70l61 60q-69 90 -69 206q0 144 104 247t249 103q114 0 211 -71l59 58zM573 447l-306 -301q54 -37 118 -37q89 0 153 65.5t64 157.5q0 59 -29 115zM197 220l307 301
q-55 37 -119 37q-90 0 -153.5 -65.5t-63.5 -158.5q0 -61 29 -114z" />
    <glyph glyph-name="Ugrave" unicode="&#xd9;" horiz-adv-x="642" 
d="M200 667v-409q0 -72 14 -96q13 -23 43.5 -38t63.5 -15t63.5 15t43.5 38q14 24 14 96v409h133v-427q0 -84 -30 -135q-32 -56 -93 -88.5t-131 -32.5t-131 32.5t-94 88.5q-29 51 -29 135v427h133zM157 849l119 62l130 -172l-86 -47z" />
    <glyph glyph-name="Uacute" unicode="&#xda;" horiz-adv-x="642" 
d="M200 667v-409q0 -72 14 -96q13 -23 43.5 -38t63.5 -15t63.5 15t43.5 38q14 24 14 96v409h133v-427q0 -84 -30 -135q-32 -56 -93 -88.5t-131 -32.5t-131 32.5t-94 88.5q-29 51 -29 135v427h133zM485 849l-163 -157l-86 47l130 172z" />
    <glyph glyph-name="Ucircumflex" unicode="&#xdb;" horiz-adv-x="642" 
d="M200 667v-409q0 -72 14 -96q13 -23 43.5 -38t63.5 -15t63.5 15t43.5 38q14 24 14 96v409h133v-427q0 -84 -30 -135q-32 -56 -93 -88.5t-131 -32.5t-131 32.5t-94 88.5q-29 51 -29 135v427h133zM234 693l-98 47l146 153h79l145 -153l-98 -47l-87 83z" />
    <glyph glyph-name="Udieresis" unicode="&#xdc;" horiz-adv-x="642" 
d="M200 667v-409q0 -72 14 -96q13 -23 43.5 -38t63.5 -15t63.5 15t43.5 38q14 24 14 96v409h133v-427q0 -84 -30 -135q-32 -56 -93 -88.5t-131 -32.5t-131 32.5t-94 88.5q-29 51 -29 135v427h133zM414 868q32 0 53.5 -21t21.5 -52t-22 -52t-54 -21q-31 0 -52.5 21.5
t-21.5 52.5q0 29 22 50.5t53 21.5zM228 868q32 0 53.5 -21t21.5 -52q0 -30 -22 -51.5t-53 -21.5q-32 0 -53.5 21.5t-21.5 52.5q0 29 22 50.5t53 21.5z" />
    <glyph glyph-name="Yacute" unicode="&#xdd;" horiz-adv-x="552" 
d="M209 276l-222 391h149l140 -254l140 254h149l-223 -391v-276h-133v276zM440 849l-163 -157l-86 47l130 172z" />
    <glyph glyph-name="Thorn" unicode="&#xde;" horiz-adv-x="478" 
d="M200 581h25q94 0 145 -30q47 -26 73.5 -75t26.5 -107q0 -59 -27 -108t-73 -75q-51 -30 -145 -30h-25v-156h-133v667h133v-86zM200 459v-182h34q55 0 80.5 22t25.5 69t-25.5 69t-80.5 22h-34z" />
    <glyph glyph-name="germandbls" unicode="&#xdf;" horiz-adv-x="530" 
d="M209 0v118h58q47 0 75 25.5t28 67.5q0 86 -106 86h-24v116h24q61 0 61 73q0 39 -19.5 61t-53.5 22q-35 0 -54.5 -22t-19.5 -60v-487h-128v487q0 85 55.5 140.5t140.5 55.5q90 0 147 -54t57 -140q0 -64 -42 -115q90 -60 90 -167q0 -92 -65.5 -149.5t-168.5 -57.5h-55z" />
    <glyph glyph-name="agrave" unicode="&#xe0;" horiz-adv-x="543" 
d="M494 0h-128v25q-55 -41 -115 -41q-95 0 -161.5 69.5t-66.5 168.5q0 98 66.5 167.5t161.5 69.5q60 0 115 -41v25h128v-443zM259 344q-48 0 -77.5 -34t-29.5 -90q0 -53 30.5 -87t78.5 -34t77.5 34t29.5 90q0 55 -30 88t-79 33zM91 645l119 62l129 -172l-85 -47z" />
    <glyph glyph-name="aacute" unicode="&#xe1;" horiz-adv-x="543" 
d="M431 645l-163 -157l-86 47l130 172zM494 0h-128v25q-55 -41 -115 -41q-95 0 -161.5 69.5t-66.5 168.5q0 98 66.5 167.5t161.5 69.5q60 0 115 -41v25h128v-443zM259 344q-48 0 -77.5 -34t-29.5 -90q0 -53 30.5 -87t78.5 -34t77.5 34t29.5 90q0 55 -30 88t-79 33z" />
    <glyph glyph-name="acircumflex" unicode="&#xe2;" horiz-adv-x="543" 
d="M494 0h-128v25q-55 -41 -115 -41q-95 0 -161.5 69.5t-66.5 168.5q0 98 66.5 167.5t161.5 69.5q60 0 115 -41v25h128v-443zM259 344q-48 0 -77.5 -34t-29.5 -90q0 -53 30.5 -87t78.5 -34t77.5 34t29.5 90q0 55 -30 88t-79 33zM345 489l-87 85l-88 -85l-96 46l144 153h79
l145 -153z" />
    <glyph glyph-name="atilde" unicode="&#xe3;" horiz-adv-x="543" 
d="M494 0h-128v25q-55 -41 -115 -41q-95 0 -161.5 69.5t-66.5 168.5q0 98 66.5 167.5t161.5 69.5q60 0 115 -41v25h128v-443zM259 344q-48 0 -77.5 -34t-29.5 -90q0 -53 30.5 -87t78.5 -34t77.5 34t29.5 90q0 55 -30 88t-79 33zM314 669l107 -24q-4 -53 -20 -81
q-26 -44 -85 -44q-40 0 -79 21q-15 9 -25 9q-4 0 -6 -3q-1 -1 -7 -33l-105 23q13 125 108 125q33 0 78 -24q16 -8 24 -8q4 0 5.5 5t4.5 34z" />
    <glyph glyph-name="adieresis" unicode="&#xe4;" horiz-adv-x="543" 
d="M494 0h-128v25q-55 -41 -115 -41q-95 0 -161.5 69.5t-66.5 168.5q0 98 66.5 167.5t161.5 69.5q60 0 115 -41v25h128v-443zM259 344q-48 0 -77.5 -34t-29.5 -90q0 -53 30.5 -87t78.5 -34t77.5 34t29.5 90q0 55 -30 88t-79 33zM359 668q32 0 53.5 -21t21.5 -52
q0 -30 -22 -51.5t-53 -21.5q-32 0 -53.5 21.5t-21.5 52.5q0 29 22 50.5t53 21.5zM173 668q31 0 53 -21.5t22 -51.5t-22 -51.5t-53 -21.5q-32 0 -53.5 21.5t-21.5 52.5q0 29 22 50.5t53 21.5z" />
    <glyph glyph-name="aring" unicode="&#xe5;" horiz-adv-x="543" 
d="M269 704q48 0 81.5 -33t33.5 -80t-33.5 -80t-82.5 -33q-47 0 -80.5 33.5t-33.5 81.5q0 45 34 78t81 33zM269 643q-22 0 -37 -15.5t-15 -37.5q0 -20 15.5 -35.5t36.5 -15.5q22 0 37 15t15 37t-15 37t-37 15zM494 0h-128v25q-55 -41 -115 -41q-95 0 -161.5 69.5
t-66.5 168.5q0 98 66.5 167.5t161.5 69.5q60 0 115 -41v25h128v-443zM259 344q-48 0 -77.5 -34t-29.5 -90q0 -53 30.5 -87t78.5 -34t77.5 34t29.5 90q0 55 -30 88t-79 33z" />
    <glyph glyph-name="ae" unicode="&#xe6;" horiz-adv-x="801" 
d="M98 300l-67 83q55 42 103 59t108 17q108 0 163 -60q65 60 150 60q98 0 161 -70t63 -179q0 -15 -1 -33h-317q25 -80 100 -80q64 0 99 57l112 -44q-76 -126 -212 -126q-86 0 -152 57q-57 -57 -169 -57q-98 0 -157.5 43t-59.5 114q0 68 54 107t149 39h97q-20 60 -91 60
q-63 0 -133 -47zM461 266h191q-25 81 -95 81q-76 0 -96 -81zM327 198h-89q-89 0 -89 -52q0 -51 89 -51t89 57v46z" />
    <glyph glyph-name="ccedilla" unicode="&#xe7;" horiz-adv-x="461" 
d="M336 -67l-134 -164l-93 45l111 167zM450 371l-82 -85q-33 34 -54.5 45.5t-52.5 11.5q-50 0 -80 -33.5t-30 -89.5q0 -54 30.5 -87t80.5 -33q32 0 56 13.5t52 47.5l82 -85q-84 -92 -190 -92q-102 0 -171 68.5t-69 169.5t69 169t171 68q103 0 188 -88z" />
    <glyph glyph-name="egrave" unicode="&#xe8;" horiz-adv-x="493" 
d="M85 645l119 62l130 -172l-86 -48zM353 154l112 -44q-77 -126 -210 -126q-100 0 -166.5 68t-66.5 169q0 100 66 169t161 69q97 0 160 -70t63 -177q0 -16 -1 -35h-318q25 -80 101 -80q63 0 99 57zM153 266h192q-26 81 -96 81q-73 0 -96 -81z" />
    <glyph glyph-name="eacute" unicode="&#xe9;" horiz-adv-x="493" 
d="M409 645l-163 -158l-86 48l130 172zM353 154l112 -44q-77 -126 -210 -126q-100 0 -166.5 68t-66.5 169q0 100 66 169t161 69q97 0 160 -70t63 -177q0 -16 -1 -35h-318q25 -80 101 -80q63 0 99 57zM153 266h192q-26 81 -96 81q-73 0 -96 -81z" />
    <glyph glyph-name="ecircumflex" unicode="&#xea;" horiz-adv-x="493" 
d="M353 154l112 -44q-77 -126 -210 -126q-100 0 -166.5 68t-66.5 169q0 100 66 169t161 69q97 0 160 -70t63 -177q0 -16 -1 -35h-318q25 -80 101 -80q63 0 99 57zM153 266h192q-26 81 -96 81q-73 0 -96 -81zM334 489l-87 85l-88 -85l-97 46l145 153h79l145 -153z" />
    <glyph glyph-name="edieresis" unicode="&#xeb;" horiz-adv-x="493" 
d="M353 154l112 -44q-77 -126 -210 -126q-100 0 -166.5 68t-66.5 169q0 100 66 169t161 69q97 0 160 -70t63 -177q0 -16 -1 -35h-318q25 -80 101 -80q63 0 99 57zM153 266h192q-26 81 -96 81q-73 0 -96 -81zM340 668q31 0 53 -21.5t22 -51.5q0 -31 -22 -52t-54 -21
q-31 0 -52.5 21.5t-21.5 52.5q0 29 22 50.5t53 21.5zM154 668q31 0 53 -21.5t22 -51.5q0 -31 -22 -52t-54 -21q-31 0 -52.5 21.5t-21.5 52.5q0 29 22 50.5t53 21.5z" />
    <glyph glyph-name="igrave" unicode="&#xec;" horiz-adv-x="229" 
d="M-58 645l119 62l130 -172l-86 -48zM179 443v-443h-128v443h128z" />
    <glyph glyph-name="iacute" unicode="&#xed;" horiz-adv-x="229" 
d="M288 645l-163 -158l-86 48l130 172zM179 443v-443h-128v443h128z" />
    <glyph glyph-name="icircumflex" unicode="&#xee;" horiz-adv-x="229" 
d="M178 443v-443h-128v443h128zM202 489l-88 85l-87 -85l-97 46l145 153h79l145 -153z" />
    <glyph glyph-name="idieresis" unicode="&#xef;" horiz-adv-x="229" 
d="M178 443v-443h-128v443h128zM195 668q31 0 53 -21.5t22 -51.5t-22 -51.5t-53 -21.5q-32 0 -53.5 21.5t-21.5 52.5q0 29 22 50.5t53 21.5zM33 668q32 0 53.5 -21t21.5 -52t-22 -52t-54 -21q-31 0 -52.5 21.5t-21.5 52.5q0 29 22 50.5t53 21.5z" />
    <glyph glyph-name="eth" unicode="&#xf0;" horiz-adv-x="521" 
d="M453 664l-95 -49q142 -160 142 -373q0 -131 -80 -199q-68 -59 -160 -59q-100 0 -169 69t-69 169q0 99 68.5 168t167.5 69q38 0 83 -14l-2 3q-49 81 -85 114l-101 -52l-83 75l79 40q-43 18 -99 35l59 87q94 -25 160 -62l107 53zM259 343q-47 0 -77.5 -33.5t-30.5 -86.5
q0 -55 30 -89t80 -34q49 0 79 33.5t30 88.5t-30.5 88t-80.5 33z" />
    <glyph glyph-name="ntilde" unicode="&#xf1;" horiz-adv-x="510" 
d="M178 443v-21q45 37 101 37q47 0 89 -23.5t64 -63.5q28 -49 28 -133v-239h-128v232q0 63 -16 87.5t-56 24.5q-50 0 -68 -33q-14 -27 -14 -88v-223h-128v443h128zM313 669l107 -24q-4 -53 -21 -81q-11 -20 -34 -32t-50 -12q-40 0 -79 21q-15 9 -25 9q-5 0 -6 -3
q-1 -1 -7 -33l-105 23q13 125 108 125q33 0 78 -24q16 -8 24 -8q5 0 6 5t4 34z" />
    <glyph glyph-name="ograve" unicode="&#xf2;" horiz-adv-x="520" 
d="M94 645l119 62l129 -172l-86 -47zM265 459q97 0 165.5 -69.5t68.5 -167.5q0 -100 -68.5 -169t-169.5 -69t-170 69t-69 171q0 100 70 167.5t173 67.5zM260 343q-48 0 -78.5 -33.5t-30.5 -86.5q0 -55 30 -89t80 -34q49 0 79 33.5t30 88.5t-30 88t-80 33z" />
    <glyph glyph-name="oacute" unicode="&#xf3;" horiz-adv-x="520" 
d="M427 645l-162 -157l-86 47l129 172zM265 459q97 0 165.5 -69.5t68.5 -167.5q0 -100 -68.5 -169t-169.5 -69t-170 69t-69 171q0 100 70 167.5t173 67.5zM260 343q-48 0 -78.5 -33.5t-30.5 -86.5q0 -55 30 -89t80 -34q49 0 79 33.5t30 88.5t-30 88t-80 33z" />
    <glyph glyph-name="ocircumflex" unicode="&#xf4;" horiz-adv-x="520" 
d="M348 489l-88 85l-87 -85l-97 46l145 153h79l145 -153zM265 459q97 0 165.5 -69.5t68.5 -167.5q0 -100 -68.5 -169t-169.5 -69t-170 69t-69 171q0 100 70 167.5t173 67.5zM260 343q-48 0 -78.5 -33.5t-30.5 -86.5q0 -55 30 -89t80 -34q49 0 79 33.5t30 88.5t-30 88t-80 33
z" />
    <glyph glyph-name="otilde" unicode="&#xf5;" horiz-adv-x="520" 
d="M317 669l106 -24q-4 -55 -20 -81q-26 -44 -84 -44q-40 0 -79 21q-15 9 -26 9q-4 0 -5 -3l-8 -33l-104 23q12 125 107 125q34 0 79 -24q16 -8 24 -8q5 0 6 5t4 34zM265 459q97 0 165.5 -69.5t68.5 -167.5q0 -100 -68.5 -169t-169.5 -69t-170 69t-69 171q0 100 70 167.5
t173 67.5zM260 343q-48 0 -78.5 -33.5t-30.5 -86.5q0 -55 30 -89t80 -34q49 0 79 33.5t30 88.5t-30 88t-80 33z" />
    <glyph glyph-name="odieresis" unicode="&#xf6;" horiz-adv-x="520" 
d="M265 459q97 0 165.5 -69.5t68.5 -167.5q0 -100 -68.5 -169t-169.5 -69t-170 69t-69 171q0 100 70 167.5t173 67.5zM260 343q-48 0 -78.5 -33.5t-30.5 -86.5q0 -55 30 -89t80 -34q49 0 79 33.5t30 88.5t-30 88t-80 33zM352 668q32 0 53.5 -21t21.5 -52q0 -30 -22 -51.5
t-53 -21.5t-53 21.5t-22 52.5q0 29 22 50.5t53 21.5zM166 668q32 0 53.5 -21t21.5 -52q0 -30 -22 -51.5t-53 -21.5q-32 0 -53.5 21.5t-21.5 52.5q0 29 22 50.5t53 21.5z" />
    <glyph glyph-name="divide" unicode="&#xf7;" horiz-adv-x="556" 
d="M519 370v-116h-482v116h482zM279 569q32 0 55.5 -24t23.5 -56q0 -33 -23.5 -56.5t-56.5 -23.5t-56.5 23.5t-23.5 57.5q0 32 23.5 55.5t57.5 23.5zM279 215q32 0 55.5 -24t23.5 -56q0 -33 -23.5 -56.5t-56.5 -23.5t-56.5 23.5t-23.5 57.5q0 32 23.5 55.5t57.5 23.5z" />
    <glyph glyph-name="oslash" unicode="&#xf8;" horiz-adv-x="534" 
d="M28 58l37 35q-37 59 -37 128q0 101 69 169.5t170 68.5q75 0 140 -45l34 32l64 -61l-37 -35q37 -56 37 -129q0 -100 -69 -168.5t-170 -68.5q-80 0 -141 45l-34 -32zM162 184l156 147q-23 13 -52 13q-49 0 -79.5 -33.5t-30.5 -87.5q0 -21 6 -39zM371 260l-157 -148
q25 -13 53 -13q49 0 79.5 34.5t30.5 89.5q0 21 -6 37z" />
    <glyph glyph-name="ugrave" unicode="&#xf9;" horiz-adv-x="510" 
d="M90 645l119 62l130 -172l-87 -48zM332 0v21q-45 -37 -101 -37q-47 0 -89 23.5t-64 63.5q-28 49 -28 133v239h128v-232q0 -62 16 -86.5t56 -24.5q50 0 68 33q14 25 14 87v223h128v-443h-128z" />
    <glyph glyph-name="uacute" unicode="&#xfa;" horiz-adv-x="510" 
d="M417 645l-163 -158l-86 48l130 172zM332 0v21q-45 -37 -101 -37q-47 0 -89 23.5t-64 63.5q-28 49 -28 133v239h128v-232q0 -62 16 -86.5t56 -24.5q50 0 68 33q14 25 14 87v223h128v-443h-128z" />
    <glyph glyph-name="ucircumflex" unicode="&#xfb;" horiz-adv-x="510" 
d="M332 0v21q-45 -37 -101 -37q-47 0 -89 23.5t-64 63.5q-28 49 -28 133v239h128v-232q0 -62 16 -86.5t56 -24.5q50 0 68 33q14 25 14 87v223h128v-443h-128zM342 489l-87 85l-88 -85l-96 46l145 153h78l145 -153z" />
    <glyph glyph-name="udieresis" unicode="&#xfc;" horiz-adv-x="510" 
d="M332 0v21q-45 -37 -101 -37q-47 0 -89 23.5t-64 63.5q-28 49 -28 133v239h128v-232q0 -62 16 -86.5t56 -24.5q50 0 68 33q14 25 14 87v223h128v-443h-128zM348 668q31 0 53 -21.5t22 -51.5q0 -31 -22 -52t-54 -21q-31 0 -52.5 21.5t-21.5 52.5q0 29 22 50.5t53 21.5z
M162 668q32 0 53.5 -21t21.5 -52q0 -30 -22 -51.5t-53 -21.5q-32 0 -53.5 21.5t-21.5 52.5q0 29 22 50.5t53 21.5z" />
    <glyph glyph-name="yacute" unicode="&#xfd;" horiz-adv-x="474" 
d="M163 22l-175 421h137l108 -265l117 265h137l-302 -677h-135zM402 645l-163 -158l-86 48l130 172z" />
    <glyph glyph-name="thorn" unicode="&#xfe;" horiz-adv-x="544" 
d="M51 667h128v-248q55 40 115 40q95 0 161.5 -69.5t66.5 -168.5q0 -98 -66.5 -167.5t-161.5 -69.5q-60 0 -115 41v-259h-128v901zM284 343q-47 0 -76.5 -34t-29.5 -89q0 -54 29.5 -87t78.5 -33q47 0 77 34t30 89q0 53 -30.5 86.5t-78.5 33.5z" />
    <glyph glyph-name="ydieresis" unicode="&#xff;" horiz-adv-x="474" 
d="M163 22l-175 421h137l108 -265l117 265h137l-302 -677h-135zM331 668q32 0 53.5 -21t21.5 -52q0 -30 -22 -51.5t-53 -21.5q-32 0 -53.5 21.5t-21.5 52.5q0 29 22 50.5t53 21.5zM144 668q31 0 53 -21.5t22 -51.5t-22 -51.5t-53 -21.5q-32 0 -53.5 21.5t-21.5 52.5
q0 29 22 50.5t53 21.5z" />
    <glyph glyph-name="Amacron" unicode="&#x100;" horiz-adv-x="643" 
d="M453 155h-263l-56 -155h-140l249 667h157l249 -667h-141zM409 279l-88 246l-88 -246h176zM160 850h324v-110h-324v110z" />
    <glyph glyph-name="amacron" unicode="&#x101;" horiz-adv-x="543" 
d="M494 0h-128v25q-55 -41 -115 -41q-95 0 -161.5 69.5t-66.5 168.5q0 98 66.5 167.5t161.5 69.5q60 0 115 -41v25h128v-443zM259 344q-48 0 -77.5 -34t-29.5 -90q0 -53 30.5 -87t78.5 -34t77.5 34t29.5 90q0 55 -30 88t-79 33zM108 645h324v-110h-324v110z" />
    <glyph glyph-name="Abreve" unicode="&#x102;" horiz-adv-x="643" 
d="M453 155h-263l-56 -155h-140l249 667h157l249 -667h-141zM409 279l-88 246l-88 -246h176zM163 871l111 9l1 -25q3 -51 44 -51q27 0 41 27q3 6 9 49l111 -9q-7 -63 -19 -85q-44 -88 -141 -88q-52 0 -92.5 28t-56.5 74q-7 20 -8 71z" />
    <glyph glyph-name="abreve" unicode="&#x103;" horiz-adv-x="543" 
d="M494 0h-128v25q-55 -41 -115 -41q-95 0 -161.5 69.5t-66.5 168.5q0 98 66.5 167.5t161.5 69.5q60 0 115 -41v25h128v-443zM259 344q-48 0 -77.5 -34t-29.5 -90q0 -53 30.5 -87t78.5 -34t77.5 34t29.5 90q0 55 -30 88t-79 33zM102 667l111 9l1 -26q1 -52 44 -52
q28 0 41 27q3 8 9 51l111 -9q-7 -60 -19 -85q-44 -88 -142 -88q-52 0 -92.5 28t-56.5 74q-6 17 -7 71z" />
    <glyph glyph-name="Aogonek" unicode="&#x104;" horiz-adv-x="643" 
d="M400 667l249 -667q-1 -2 -4 -5q-28 -36 -28 -54q0 -8 10 -8q16 0 43 12l38 -93q-63 -23 -95 -23q-52 0 -85 28t-33 72q0 33 26 71h-13l-55 155h-263l-56 -155h-140l249 667h157zM409 279l-88 246l-88 -246h176z" />
    <glyph glyph-name="aogonek" unicode="&#x105;" horiz-adv-x="543" 
d="M494 443v-443q-1 -2 -4 -5q-28 -36 -28 -54q0 -8 10 -8q16 0 43 12l38 -93q-65 -23 -96 -23q-51 0 -84 28t-33 72q0 31 26 71v25q-55 -41 -115 -41q-95 0 -161.5 69.5t-66.5 168.5q0 98 66.5 167.5t161.5 69.5q60 0 115 -41v25h128zM259 344q-48 0 -77.5 -34t-29.5 -90
q0 -53 30.5 -87t78.5 -34t77.5 34t29.5 90q0 55 -30 88t-79 33z" />
    <glyph glyph-name="Cacute" unicode="&#x106;" horiz-adv-x="674" 
d="M650 556l-94 -90q-47 51 -85.5 71.5t-88.5 20.5q-92 0 -155 -65t-63 -160q0 -94 63.5 -159t155.5 -65q49 0 88 20.5t88 72.5l95 -89q-66 -69 -129 -99t-141 -30q-148 0 -251.5 102t-103.5 247t103.5 247.5t250.5 102.5q77 0 140 -30t127 -97zM553 849l-163 -157l-86 47
l130 172z" />
    <glyph glyph-name="cacute" unicode="&#x107;" horiz-adv-x="461" 
d="M416 645l-163 -158l-86 48l129 172zM450 371l-82 -85q-33 34 -54.5 45.5t-52.5 11.5q-50 0 -80 -33.5t-30 -89.5q0 -54 30.5 -87t80.5 -33q32 0 56 13.5t52 47.5l82 -85q-84 -92 -190 -92q-102 0 -171 68.5t-69 169.5t69 169t171 68q103 0 188 -88z" />
    <glyph glyph-name="Ccircumflex" unicode="&#x108;" horiz-adv-x="674" 
d="M650 556l-94 -90q-47 51 -85.5 71.5t-88.5 20.5q-92 0 -155 -65t-63 -160q0 -94 63.5 -159t155.5 -65q49 0 88 20.5t88 72.5l95 -89q-66 -69 -129 -99t-141 -30q-148 0 -251.5 102t-103.5 247t103.5 247.5t250.5 102.5q77 0 140 -30t127 -97zM285 693l-97 47l145 153h79
l146 -153l-98 -47l-87 83z" />
    <glyph glyph-name="ccircumflex" unicode="&#x109;" horiz-adv-x="461" 
d="M450 371l-82 -85q-32 34 -54 45.5t-52 11.5q-50 0 -80.5 -33.5t-30.5 -89.5q0 -54 30.5 -87t80.5 -33q31 0 55 13.5t53 47.5l82 -85q-46 -49 -90 -70.5t-100 -21.5q-102 0 -171 68.5t-69 169.5t69 169t171 68q54 0 96 -20t92 -68zM338 489l-87 85l-88 -85l-97 46l145 153
h79l145 -153z" />
    <glyph glyph-name="Cdotaccent" unicode="&#x10a;" horiz-adv-x="674" 
d="M650 556l-94 -90q-47 51 -85.5 71.5t-88.5 20.5q-92 0 -155 -65t-63 -160q0 -94 63.5 -159t155.5 -65q49 0 88 20.5t88 72.5l95 -89q-66 -69 -129 -99t-141 -30q-148 0 -251.5 102t-103.5 247t103.5 247.5t250.5 102.5q77 0 140 -30t127 -97zM381 871q32 0 55 -22.5
t23 -53.5t-23 -53.5t-55 -22.5q-33 0 -55.5 22.5t-22.5 54.5q0 31 23 53t55 22z" />
    <glyph glyph-name="cdotaccent" unicode="&#x10b;" horiz-adv-x="461" 
d="M450 371l-82 -85q-33 34 -54.5 45.5t-52.5 11.5q-50 0 -80 -33.5t-30 -89.5q0 -54 30.5 -87t80.5 -33q32 0 56 13.5t52 47.5l82 -85q-84 -92 -190 -92q-102 0 -171 68.5t-69 169.5t69 169t171 68q103 0 188 -88zM254 671q32 0 55 -22.5t23 -53.5q0 -32 -23 -54t-56 -22
q-32 0 -54.5 22.5t-22.5 54.5q0 31 23 53t55 22z" />
    <glyph glyph-name="Ccaron" unicode="&#x10c;" horiz-adv-x="674" 
d="M650 556l-94 -90q-47 51 -85.5 71.5t-88.5 20.5q-92 0 -155 -65t-63 -160q0 -94 63.5 -159t155.5 -65q49 0 88 20.5t88 72.5l95 -89q-66 -69 -129 -99t-141 -30q-148 0 -251.5 102t-103.5 247t103.5 247.5t250.5 102.5q77 0 140 -30t127 -97zM285 899l88 -83l87 83
l98 -47l-146 -153h-79l-145 153z" />
    <glyph glyph-name="ccaron" unicode="&#x10d;" horiz-adv-x="460" 
d="M450 371l-82 -85q-33 34 -54.5 45.5t-52.5 11.5q-50 0 -80 -33.5t-30 -89.5q0 -54 30.5 -87t80.5 -33q32 0 56 13.5t52 47.5l82 -85q-84 -92 -190 -92q-102 0 -171 68.5t-69 169.5t69 169t171 68q103 0 188 -88zM338 699l97 -46l-145 -153h-79l-145 153l97 46l88 -85z
" />
    <glyph glyph-name="Dcaron" unicode="&#x10e;" horiz-adv-x="620" 
d="M67 667h158q167 0 266.5 -90.5t99.5 -242.5t-99.5 -243t-266.5 -91h-158v667zM200 543v-419h29q107 0 167.5 56t60.5 154q0 97 -61 153t-167 56h-29zM204 899l87 -83l88 83l97 -47l-145 -153h-79l-145 153z" />
    <glyph glyph-name="dcaron" unicode="&#x10f;" horiz-adv-x="686" 
d="M494 0h-128v25q-56 -41 -115 -41q-95 0 -161.5 69.5t-66.5 168.5q0 98 66.5 167.5t161.5 69.5q58 0 115 -40v248h128v-667zM259 343q-47 0 -77 -34t-30 -89q0 -53 30.5 -86.5t77.5 -33.5q48 0 77.5 34t29.5 89q0 54 -29.5 87t-78.5 33zM583 706l121 -36l-86 -192l-96 29z
" />
    <glyph glyph-name="Dcroat" unicode="&#x110;" horiz-adv-x="632" 
d="M79 418v249h159q166 0 265.5 -90.5t99.5 -242.5t-99.5 -243t-265.5 -91h-159v298h-62v120h62zM212 418h143v-120h-143v-174h29q107 0 167.5 56t60.5 154q0 97 -61 153t-167 56h-29v-125z" />
    <glyph glyph-name="dcroat" unicode="&#x111;" horiz-adv-x="546" 
d="M366 497h-110v112h110v58h128v-58h55v-112h-55v-497h-128v25q-56 -41 -116 -41q-95 0 -161.5 69.5t-66.5 168.5q0 98 66.5 167.5t161.5 69.5q59 0 116 -40v78zM258 343q-47 0 -77 -34t-30 -89q0 -53 30.5 -86.5t78.5 -33.5t77.5 34t29.5 89q0 54 -30 87t-79 33z" />
    <glyph glyph-name="Emacron" unicode="&#x112;" horiz-adv-x="489" 
d="M449 667v-123h-249v-145h221v-123h-221v-152h258v-124h-391v667h382zM101 850h324v-110h-324v110z" />
    <glyph glyph-name="emacron" unicode="&#x113;" horiz-adv-x="493" 
d="M353 154l112 -44q-77 -126 -210 -126q-100 0 -166.5 68t-66.5 169q0 100 66 169t161 69q97 0 160 -70t63 -177q0 -16 -1 -35h-318q25 -80 101 -80q63 0 99 57zM153 266h192q-26 81 -96 81q-73 0 -96 -81zM85 645h324v-110h-324v110z" />
    <glyph glyph-name="Ebreve" unicode="&#x114;" horiz-adv-x="489" 
d="M449 667v-123h-249v-145h221v-123h-221v-152h258v-124h-391v667h382zM104 871l111 9l1 -25q3 -51 44 -51q28 0 41 27q3 6 9 49l111 -9q-7 -63 -19 -85q-44 -88 -141 -88q-52 0 -92.5 28t-56.5 74q-7 20 -8 71z" />
    <glyph glyph-name="ebreve" unicode="&#x115;" horiz-adv-x="493" 
d="M353 154l112 -44q-77 -126 -210 -126q-100 0 -166.5 68t-66.5 169q0 100 66 169t161 69q97 0 160 -70t63 -177q0 -16 -1 -35h-318q25 -80 101 -80q63 0 99 57zM153 266h192q-26 81 -96 81q-73 0 -96 -81zM88 667l111 9q1 -12 1 -26q3 -52 44 -52q29 0 41 27q3 6 10 51
l111 -9q-7 -60 -19 -85q-46 -88 -142 -88q-52 0 -92.5 28t-56.5 74q-7 20 -8 71z" />
    <glyph glyph-name="Edotaccent" unicode="&#x116;" horiz-adv-x="489" 
d="M449 667v-123h-249v-145h221v-123h-221v-152h258v-124h-391v667h382zM263 871q32 0 55 -22.5t23 -53.5t-23 -53.5t-55 -22.5q-33 0 -55.5 22.5t-22.5 54.5q0 31 23 53t55 22z" />
    <glyph glyph-name="edotaccent" unicode="&#x117;" horiz-adv-x="493" 
d="M353 154l112 -44q-77 -126 -210 -126q-100 0 -166.5 68t-66.5 169q0 100 66 169t161 69q97 0 160 -70t63 -177q0 -16 -1 -35h-318q25 -80 101 -80q63 0 99 57zM153 266h192q-26 81 -96 81q-73 0 -96 -81zM246 671q32 0 55 -22.5t23 -53.5q0 -32 -23 -54t-56 -22
q-32 0 -54.5 22.5t-22.5 54.5q0 31 23 53t55 22z" />
    <glyph glyph-name="Eogonek" unicode="&#x118;" horiz-adv-x="489" 
d="M458 124v-124q0 -1 -2 -2q-1 -2 -2 -3q-28 -36 -28 -54q0 -8 10 -8q16 0 43 12l38 -93q-63 -23 -96 -23q-51 0 -84 28t-33 72q0 33 26 71h-263v667h382v-123h-249v-145h221v-123h-221v-152h258z" />
    <glyph glyph-name="eogonek" unicode="&#x119;" horiz-adv-x="493" 
d="M353 154l112 -45q-58 -97 -158 -119q-25 -33 -25 -49q0 -8 10 -8q16 0 43 12l38 -93q-64 -23 -95 -23q-52 0 -85 28t-33 72q0 28 23 66q-73 22 -117 84t-44 142q0 100 66 169t161 69q97 0 160 -70t63 -177q0 -16 -1 -35h-318q25 -79 101 -79q64 0 99 56zM153 266h192
q-26 81 -96 81q-73 0 -96 -81z" />
    <glyph glyph-name="Ecaron" unicode="&#x11a;" horiz-adv-x="489" 
d="M449 667v-123h-249v-145h221v-123h-221v-152h258v-124h-391v667h382zM176 899l87 -83l87 83l98 -47l-145 -153h-79l-146 153z" />
    <glyph glyph-name="ecaron" unicode="&#x11b;" horiz-adv-x="493" 
d="M353 154l112 -44q-77 -126 -210 -126q-100 0 -166.5 68t-66.5 169q0 100 66 169t161 69q97 0 160 -70t63 -177q0 -16 -1 -35h-318q25 -80 101 -80q63 0 99 57zM153 266h192q-26 81 -96 81q-73 0 -96 -81zM334 699l97 -46l-145 -153h-79l-145 153l97 46l88 -85z" />
    <glyph glyph-name="Gcircumflex" unicode="&#x11c;" horiz-adv-x="728" 
d="M376 373h321v-64q0 -146 -85.5 -235.5t-225.5 -89.5q-149 0 -253 101.5t-104 247.5t103.5 248t252.5 102q76 0 137 -28.5t131 -95.5l-94 -89q-49 50 -87 69t-88 19q-94 0 -157 -65t-63 -160t64 -159.5t158 -64.5q81 0 132 55q29 32 40 86h-182v123zM282 693l-97 47
l145 153h79l145 -153l-97 -47l-88 83z" />
    <glyph glyph-name="gcircumflex" unicode="&#x11d;" horiz-adv-x="543" 
d="M366 -9v34q-57 -41 -115 -41q-95 0 -161.5 69.5t-66.5 168.5q0 98 66.5 167.5t161.5 69.5q58 0 115 -41v25h128v-452q0 -107 -67 -173.5t-174 -66.5q-105 0 -179 68q-23 23 -46 50l86 82q10 -12 11 -13q3 -4 9 -10q51 -61 118 -61q55 0 84.5 32.5t29.5 91.5zM260 344
q-47 0 -77.5 -34t-30.5 -87q0 -55 30 -89.5t78 -34.5t77.5 34t29.5 89t-29.5 88.5t-77.5 33.5zM345 489l-87 85l-88 -85l-97 46l145 153h79l145 -153z" />
    <glyph glyph-name="Gbreve" unicode="&#x11e;" horiz-adv-x="728" 
d="M376 373h321v-64q0 -146 -85.5 -235.5t-225.5 -89.5q-149 0 -253 101.5t-104 247.5t103.5 248t252.5 102q76 0 137 -28.5t131 -95.5l-94 -89q-49 50 -87 69t-88 19q-94 0 -157 -65t-63 -160t64 -159.5t158 -64.5q81 0 132 55q29 32 40 86h-182v123zM230 871l111 9l1 -25
q2 -51 44 -51q28 0 41 27q3 7 9 49l111 -9q-7 -63 -19 -85q-44 -88 -141 -88q-53 0 -93.5 28t-56.5 74q-6 20 -7 71z" />
    <glyph glyph-name="gbreve" unicode="&#x11f;" horiz-adv-x="543" 
d="M366 -9v34q-57 -41 -115 -41q-95 0 -161.5 69.5t-66.5 168.5q0 98 66.5 167.5t161.5 69.5q58 0 115 -41v25h128v-452q0 -107 -67 -173.5t-174 -66.5q-105 0 -179 68q-23 23 -46 50l86 82q10 -12 11 -13q3 -4 9 -10q51 -61 118 -61q55 0 84.5 32.5t29.5 91.5zM260 344
q-47 0 -77.5 -34t-30.5 -87q0 -55 30 -89.5t78 -34.5t77.5 34t29.5 89t-29.5 88.5t-77.5 33.5zM102 667l111 9l1 -26q1 -52 44 -52q28 0 41 27q3 8 9 51l111 -9q-7 -63 -19 -85q-44 -88 -141 -88q-53 0 -93.5 28t-55.5 74q-7 20 -8 71z" />
    <glyph glyph-name="Gdotaccent" unicode="&#x120;" horiz-adv-x="728" 
d="M376 373h321v-64q0 -146 -85.5 -235.5t-225.5 -89.5q-149 0 -253 101.5t-104 247.5t103.5 248t252.5 102q76 0 137 -28.5t131 -95.5l-94 -89q-49 50 -87 69t-88 19q-94 0 -157 -65t-63 -160t64 -159.5t158 -64.5q81 0 132 55q29 32 40 86h-182v123zM386 871
q32 0 55 -22.5t23 -53.5t-23 -53.5t-55 -22.5q-33 0 -55.5 22.5t-22.5 54.5q0 31 23 53t55 22z" />
    <glyph glyph-name="gdotaccent" unicode="&#x121;" horiz-adv-x="543" 
d="M366 -9v34q-57 -41 -115 -41q-95 0 -161.5 69.5t-66.5 168.5q0 98 66.5 167.5t161.5 69.5q58 0 115 -41v25h128v-452q0 -107 -67 -173.5t-174 -66.5q-105 0 -179 68q-23 23 -46 50l86 82q10 -12 11 -13q3 -4 9 -10q51 -61 118 -61q55 0 84.5 32.5t29.5 91.5zM260 344
q-47 0 -77.5 -34t-30.5 -87q0 -55 30 -89.5t78 -34.5t77.5 34t29.5 89t-29.5 88.5t-77.5 33.5zM258 671q32 0 55 -22.5t23 -53.5q0 -32 -23 -54t-56 -22q-32 0 -54.5 22.5t-22.5 54.5q0 31 23 53t55 22z" />
    <glyph glyph-name="Gcommaaccent" unicode="&#x122;" horiz-adv-x="728" 
d="M376 373h321v-64q0 -146 -85.5 -235.5t-225.5 -89.5q-149 0 -253 101.5t-104 247.5t103.5 248t252.5 102q76 0 137 -28.5t131 -95.5l-94 -89q-49 50 -87 69t-88 19q-94 0 -157 -65t-63 -160t64 -159.5t158 -64.5q81 0 132 55q29 32 40 86h-182v123zM334 -19l120 -36
l-86 -192l-95 29z" />
    <glyph glyph-name="gcommaaccent" unicode="&#x123;" horiz-adv-x="543" 
d="M366 -9v34q-57 -41 -115 -41q-95 0 -161.5 69.5t-66.5 168.5q0 98 66.5 167.5t161.5 69.5q58 0 115 -41v25h128v-452q0 -107 -67 -173.5t-174 -66.5q-105 0 -179 68q-23 23 -46 50l86 82q10 -12 11 -13q3 -4 9 -10q51 -61 118 -61q55 0 84.5 32.5t29.5 91.5zM260 344
q-47 0 -77.5 -34t-30.5 -87q0 -55 30 -89.5t78 -34.5t77.5 34t29.5 89t-29.5 88.5t-77.5 33.5zM313 478l-121 35l86 192l96 -29z" />
    <glyph glyph-name="Hcircumflex" unicode="&#x124;" horiz-adv-x="652" 
d="M200 667v-268h252v268h133v-667h-133v275h-252v-275h-133v667h133zM239 693l-98 47l146 153h79l145 -153l-98 -47l-87 83z" />
    <glyph glyph-name="hcircumflex" unicode="&#x125;" horiz-adv-x="510" 
d="M178 667v-244q46 36 101 36q47 0 89 -23.5t64 -63.5q28 -47 28 -133v-239h-128v232q0 62 -16 86.5t-56 24.5q-50 0 -68 -33q-14 -25 -14 -87v-223h-128v667h128zM170 693l-98 47l146 153h79l145 -153l-97 -47l-88 83z" />
    <glyph glyph-name="Hbar" unicode="&#x126;" horiz-adv-x="648" 
d="M450 609v58h133v-58h55v-113h-55v-496h-133v275h-252v-275h-133v496h-56v113h56v58h133v-58h252zM450 496h-252v-97h252v97z" />
    <glyph glyph-name="hbar" unicode="&#x127;" horiz-adv-x="506" 
d="M46 497h-56v112h56v58h128v-58h111v-112h-111v-74q46 36 100 36q47 0 89 -23.5t64 -63.5q28 -47 28 -133v-239h-128v232q0 62 -16 86.5t-56 24.5q-49 0 -67 -33q-14 -25 -14 -87v-223h-128v497z" />
    <glyph glyph-name="Itilde" unicode="&#x128;" horiz-adv-x="267" 
d="M200 667v-667h-133v667h133zM190 873l106 -24q-4 -55 -20 -81q-26 -44 -84 -44q-40 0 -79 21q-15 9 -26 9q-3 0 -5 -3q-2 -2 -8 -33l-104 23q12 125 107 125q34 0 79 -24q16 -8 24 -8q4 0 5.5 5t4.5 34z" />
    <glyph glyph-name="itilde" unicode="&#x129;" horiz-adv-x="229" 
d="M178 443v-443h-128v443h128zM171 669l106 -24q-4 -55 -20 -81q-26 -44 -84 -44q-40 0 -79 21q-15 9 -26 9q-4 0 -5 -3l-8 -33l-104 23q12 125 107 125q34 0 79 -24q16 -8 24 -8q5 0 6 5t4 34z" />
    <glyph glyph-name="Imacron" unicode="&#x12a;" horiz-adv-x="267" 
d="M200 667v-667h-133v667h133zM-28 850h324v-110h-324v110z" />
    <glyph glyph-name="imacron" unicode="&#x12b;" horiz-adv-x="229" 
d="M179 443v-443h-128v443h128zM-47 645h324v-110h-324v110z" />
    <glyph glyph-name="Ibreve" unicode="&#x12c;" horiz-adv-x="267" 
d="M200 667v-667h-133v667h133zM-25 871l111 9q1 -11 1 -25q3 -51 44 -51q27 0 41 27q2 5 10 49l110 -9q-7 -63 -19 -85q-44 -88 -141 -88q-52 0 -92.5 28t-56.5 74q-7 20 -8 71z" />
    <glyph glyph-name="ibreve" unicode="&#x12d;" horiz-adv-x="229" 
d="M179 443v-443h-128v443h128zM-44 667l111 9q1 -12 1 -26q3 -52 44 -52q28 0 41 27q3 6 10 51l110 -9q-7 -63 -19 -85q-44 -88 -141 -88q-52 0 -92.5 28t-56.5 74q-7 20 -8 71z" />
    <glyph glyph-name="Iogonek" unicode="&#x12e;" horiz-adv-x="267" 
d="M200 667v-667q0 -1 -1.5 -2t-2.5 -3q-28 -35 -28 -53q0 -8 10 -8q16 0 43 12l38 -93q-65 -23 -96 -23q-51 0 -84 28t-33 72q0 32 26 70h-5v667h133z" />
    <glyph glyph-name="iogonek" unicode="&#x12f;" horiz-adv-x="229" 
d="M178 443v-443q-1 -2 -4 -6q-28 -35 -28 -53q0 -8 10 -8q16 0 43 12l38 -93q-65 -23 -96 -23q-51 0 -84 28t-33 72q0 32 26 71v443h128zM114 671q32 0 55 -22.5t23 -53.5t-23 -53.5t-55 -22.5q-33 0 -55.5 22.5t-22.5 54.5q0 31 23 53t55 22z" />
    <glyph glyph-name="Idotaccent" unicode="&#x130;" horiz-adv-x="267" 
d="M200 667v-667h-133v667h133zM134 871q32 0 55 -22.5t23 -53.5t-23 -53.5t-55 -22.5q-33 0 -55.5 22.5t-22.5 54.5q0 31 23 53t55 22z" />
    <glyph glyph-name="dotlessi" unicode="&#x131;" horiz-adv-x="229" 
d="M179 443v-443h-128v443h128z" />
    <glyph glyph-name="IJ" unicode="&#x132;" horiz-adv-x="691" 
d="M200 667v-667h-133v667h133zM624 667v-459q0 -87 -29 -140q-22 -40 -63.5 -62t-92.5 -22t-94 21t-90 70l81 96q55 -62 99 -62q56 0 56 99v459h133z" />
    <glyph glyph-name="ij" unicode="&#x133;" horiz-adv-x="463" 
d="M115 671q32 0 55 -22.5t23 -53.5q0 -32 -23 -54t-56 -22q-32 0 -54.5 22.5t-22.5 54.5q0 31 23 53t55 22zM179 443v-443h-128v443h128zM413 443v-532q0 -73 -33.5 -114t-93.5 -41q-32 0 -74 13v119q38 -13 54 -13q19 0 19 39v529h128zM349 671q32 0 55 -22.5t23 -53.5
t-23 -53.5t-55 -22.5q-33 0 -55.5 22.5t-22.5 54.5q0 31 23 53t55 22z" />
    <glyph glyph-name="Jcircumflex" unicode="&#x134;" horiz-adv-x="427" 
d="M359 667v-459q0 -87 -29 -140q-22 -40 -63.5 -62t-92.5 -22q-97 0 -184 91l81 96q55 -62 99 -62q56 0 56 99v459h133zM170 693l-97 47l145 153h79l145 -153l-97 -47l-87 83z" />
    <glyph glyph-name="jcircumflex" unicode="&#x135;" horiz-adv-x="237" 
d="M187 443v-532q0 -73 -33.5 -114t-93.5 -41q-32 0 -74 13v119q38 -13 54 -13q19 0 19 39v529h128zM198 489l-88 85l-87 -85l-97 46l145 153h79l145 -153z" />
    <glyph glyph-name="Kcommaaccent" unicode="&#x136;" horiz-adv-x="604" 
d="M347 384l257 -384h-158l-190 287l-56 -61v-226h-133v667h133v-260l241 260h169zM284 -19l121 -36l-86 -192l-96 29z" />
    <glyph glyph-name="kcommaaccent" unicode="&#x137;" horiz-adv-x="491" 
d="M300 256l202 -256h-159l-132 170l-33 -32v-138h-128v667h128v-365l144 141h170zM214 -19l121 -36l-86 -192l-96 29z" />
    <glyph glyph-name="kgreenlandic" unicode="&#x138;" horiz-adv-x="491" 
d="M300 256l202 -256h-159l-132 170l-33 -32v-138h-128v443h128v-141l144 141h170z" />
    <glyph glyph-name="Lacute" unicode="&#x139;" horiz-adv-x="437" 
d="M67 667h133v-543h240v-124h-373v667zM307 849l-163 -157l-86 47l130 172z" />
    <glyph glyph-name="lacute" unicode="&#x13a;" horiz-adv-x="230" 
d="M288 857l-163 -158l-86 47l130 172zM179 0h-128v667h128v-667z" />
    <glyph glyph-name="Lcommaaccent" unicode="&#x13b;" horiz-adv-x="440" 
d="M67 667h133v-543h240v-124h-373v667zM231 -19l120 -36l-86 -192l-95 29z" />
    <glyph glyph-name="lcommaaccent" unicode="&#x13c;" horiz-adv-x="230" 
d="M180 0h-128v667h128v-667zM71 -19l121 -36l-86 -192l-96 29z" />
    <glyph glyph-name="Lcaron" unicode="&#x13d;" horiz-adv-x="440" 
d="M67 667h133v-543h240v-124h-373v667zM311 698l120 -35l-86 -192l-95 28z" />
    <glyph glyph-name="lcaron" unicode="&#x13e;" horiz-adv-x="371" 
d="M179 0h-128v667h128v-667zM269 706l121 -36l-86 -192l-96 29z" />
    <glyph glyph-name="Ldot" unicode="&#x13f;" horiz-adv-x="440" 
d="M67 667h133v-543h240v-124h-373v667zM345 409q32 0 55 -22.5t23 -53.5t-23 -53.5t-55 -22.5q-33 0 -55.5 22.5t-22.5 54.5q0 31 23 53t55 22z" />
    <glyph glyph-name="ldot" unicode="&#x140;" horiz-adv-x="382" 
d="M306 409q32 0 55 -22.5t23 -53.5t-23 -53.5t-55 -22.5q-33 0 -55.5 22.5t-22.5 54.5q0 31 23 53t55 22zM179 0h-128v667h128v-667z" />
    <glyph glyph-name="Lslash" unicode="&#x141;" horiz-adv-x="453" 
d="M212 452l106 66v-132l-106 -66v-196h240v-124h-373v237l-64 -40v132l64 40v298h133v-215z" />
    <glyph glyph-name="lslash" unicode="&#x142;" horiz-adv-x="273" 
d="M72 245l-60 -39v133l60 39v289h128v-207l60 39v-133l-60 -39v-327h-128v245z" />
    <glyph glyph-name="Nacute" unicode="&#x143;" horiz-adv-x="708" 
d="M67 0v667h113l328 -434v434h133v-667h-113l-328 434v-434h-133zM538 849l-163 -157l-86 47l130 172z" />
    <glyph glyph-name="nacute" unicode="&#x144;" horiz-adv-x="510" 
d="M434 645l-163 -158l-86 48l129 172zM178 443v-21q45 37 101 37q47 0 89 -23.5t64 -63.5q28 -49 28 -133v-239h-128v232q0 63 -16 87.5t-56 24.5q-50 0 -68 -33q-14 -27 -14 -88v-223h-128v443h128z" />
    <glyph glyph-name="Ncommaaccent" unicode="&#x145;" horiz-adv-x="708" 
d="M67 0v667h113l328 -434v434h133v-667h-113l-328 434v-434h-133zM325 -19l120 -36l-86 -192l-95 29z" />
    <glyph glyph-name="ncommaaccent" unicode="&#x146;" horiz-adv-x="510" 
d="M178 443v-21q45 37 101 37q47 0 89 -23.5t64 -63.5q28 -49 28 -133v-239h-128v232q0 63 -16 87.5t-56 24.5q-50 0 -68 -33q-14 -27 -14 -88v-223h-128v443h128zM226 -19l120 -36l-85 -192l-96 29z" />
    <glyph glyph-name="Ncaron" unicode="&#x147;" horiz-adv-x="708" 
d="M67 0v667h113l328 -434v434h133v-667h-113l-328 434v-434h-133zM283 899l87 -83l88 83l97 -47l-145 -153h-79l-145 153z" />
    <glyph glyph-name="ncaron" unicode="&#x148;" horiz-adv-x="510" 
d="M178 443v-21q45 37 101 37q47 0 89 -23.5t64 -63.5q28 -49 28 -133v-239h-128v232q0 63 -16 87.5t-56 24.5q-50 0 -68 -33q-14 -27 -14 -88v-223h-128v443h128zM347 699l97 -46l-145 -153h-79l-144 153l96 46l88 -85z" />
    <glyph glyph-name="napostrophe" unicode="&#x149;" horiz-adv-x="609" 
d="M87 687l115 -40l-122 -263l-93 36zM277 443v-21q45 37 101 37q47 0 89 -23.5t64 -63.5q28 -49 28 -133v-239h-128v232q0 63 -15.5 87.5t-56.5 24.5q-50 0 -68 -33q-14 -27 -14 -88v-223h-128v443h128z" />
    <glyph glyph-name="Eng" unicode="&#x14a;" horiz-adv-x="708" 
d="M641 667v-667q-1 -73 -34 -113t-93 -40q-35 0 -74 12v120q38 -13 54 -13q19 0 19 38v16l-313 414v-434h-133v667h113l328 -434v434h133z" />
    <glyph glyph-name="eng" unicode="&#x14b;" horiz-adv-x="510" 
d="M178 443v-21q45 37 101 37q65 0 115.5 -42t59.5 -104q10 -63 10 -229q0 -132 -25 -179q-14 -26 -43 -42t-63 -16q-36 0 -74 13v119q36 -13 54 -13q19 0 19 37v203v26q0 63 -16 87.5t-57 24.5q-49 0 -67 -33q-14 -27 -14 -88v-223h-128v443h128z" />
    <glyph glyph-name="Omacron" unicode="&#x14c;" horiz-adv-x="762" 
d="M381 683q145 0 248.5 -103t103.5 -247q0 -143 -103.5 -246t-247.5 -103q-147 0 -250 103t-103 251q0 140 105 242.5t247 102.5zM380 558q-91 0 -153.5 -66.5t-62.5 -161.5q0 -90 64.5 -155.5t152.5 -65.5q89 0 153 66t64 158q0 94 -63.5 159.5t-154.5 65.5zM219 850h324
v-110h-324v110z" />
    <glyph glyph-name="omacron" unicode="&#x14d;" horiz-adv-x="520" 
d="M264 459q97 0 166 -69.5t69 -167.5q0 -100 -68.5 -169t-169.5 -69t-170 69t-69 171q0 100 69.5 167.5t172.5 67.5zM259 343q-47 0 -77.5 -33.5t-30.5 -86.5q0 -55 30 -89t80 -34q49 0 79 33.5t30 88.5t-30.5 88t-80.5 33zM98 645h324v-110h-324v110z" />
    <glyph glyph-name="Obreve" unicode="&#x14e;" horiz-adv-x="762" 
d="M381 683q145 0 248.5 -103t103.5 -247q0 -143 -103.5 -246t-247.5 -103q-147 0 -250 103t-103 251q0 140 105 242.5t247 102.5zM380 558q-91 0 -153.5 -66.5t-62.5 -161.5q0 -90 64.5 -155.5t152.5 -65.5q89 0 153 66t64 158q0 94 -63.5 159.5t-154.5 65.5zM222 871
l111 9q2 -22 2 -25q1 -51 44 -51q28 0 40 27q4 9 10 49l111 -9q-7 -60 -19 -85q-44 -88 -142 -88q-52 0 -92.5 28t-56.5 74q-6 16 -8 71z" />
    <glyph glyph-name="obreve" unicode="&#x14f;" horiz-adv-x="520" 
d="M264 459q97 0 166 -69.5t69 -167.5q0 -100 -68.5 -169t-169.5 -69t-170 69t-69 171q0 100 69.5 167.5t172.5 67.5zM259 343q-47 0 -77.5 -33.5t-30.5 -86.5q0 -55 30 -89t80 -34q49 0 79 33.5t30 88.5t-30.5 88t-80.5 33zM102 667l111 9l1 -26q1 -52 44 -52q28 0 41 27
q3 8 9 51l111 -9q-7 -60 -19 -85q-44 -88 -142 -88q-52 0 -92.5 28t-56.5 74q-6 17 -7 71z" />
    <glyph glyph-name="Ohungarumlaut" unicode="&#x150;" horiz-adv-x="762" 
d="M476 852l42 58l105 -60l-163 -157l-69 41l84 117l-164 -158l-72 46l129 171zM381 683q145 0 248.5 -103t103.5 -247q0 -143 -103.5 -246t-247.5 -103q-147 0 -250 103t-103 251q0 140 105 242.5t247 102.5zM380 558q-91 0 -153.5 -66.5t-62.5 -161.5q0 -90 64.5 -155.5
t152.5 -65.5q89 0 153 66t64 158q0 94 -63.5 159.5t-154.5 65.5z" />
    <glyph glyph-name="ohungarumlaut" unicode="&#x151;" horiz-adv-x="530" 
d="M361 646l42 59l105 -61l-162 -157l-70 42l84 116l-163 -158l-73 47l129 171zM265 459q97 0 165.5 -69.5t68.5 -167.5q0 -100 -68.5 -169t-169.5 -69t-170 69t-69 171q0 100 70 167.5t173 67.5zM260 343q-48 0 -78.5 -33.5t-30.5 -86.5q0 -55 30 -89t80 -34q49 0 79 33.5
t30 88.5t-30 88t-80 33z" />
    <glyph glyph-name="OE" unicode="&#x152;" horiz-adv-x="1021" 
d="M990 0h-391v61q-96 -77 -215 -77q-146 0 -250.5 102.5t-104.5 246.5t104.5 247t250.5 103q119 0 215 -77v61h382v-123h-250v-145h222v-123h-222v-152h259v-124zM380 558q-91 0 -153.5 -66.5t-62.5 -162.5q0 -89 64.5 -154.5t152.5 -65.5q90 0 154 66t64 158
q0 94 -64 159.5t-155 65.5z" />
    <glyph glyph-name="oe" unicode="&#x153;" horiz-adv-x="841" 
d="M700 154l113 -45q-78 -125 -212 -125q-101 0 -168 73q-73 -73 -171 -73q-101 0 -170.5 69t-69.5 169t69 168.5t170 68.5q102 0 172 -73q70 73 162 73q98 0 161 -69.5t63 -177.5v-35h-318q23 -79 100 -79q65 0 99 56zM501 266h191q-26 81 -95 81q-75 0 -96 -81zM259 343
q-48 0 -78 -34t-30 -89q0 -53 30.5 -86.5t79.5 -33.5t79 34t30 89q0 54 -30.5 87t-80.5 33z" />
    <glyph glyph-name="Racute" unicode="&#x154;" horiz-adv-x="561" 
d="M399 0l-136 243h-2h-3l-33 -1h-25v-242h-133v667h158q104 0 158 -32q48 -28 75.5 -76.5t27.5 -106.5q0 -113 -94 -173l157 -279h-150zM200 363h34q64 0 93 21.5t29 68.5q0 55 -40 77q-27 15 -82 15h-34v-182zM427 849l-162 -157l-87 47l130 172z" />
    <glyph glyph-name="racute" unicode="&#x155;" horiz-adv-x="311" 
d="M317 645l-163 -158l-86 48l130 172zM178 443v-24q38 27 81 27q14 0 44 -3v-114q-24 2 -44 2q-46 0 -63.5 -25t-17.5 -92v-214h-128v443h128z" />
    <glyph glyph-name="Rcommaaccent" unicode="&#x156;" horiz-adv-x="561" 
d="M399 0l-136 243h-2h-3l-33 -1h-25v-242h-133v667h158q104 0 158 -32q48 -28 75.5 -76.5t27.5 -106.5q0 -113 -94 -173l157 -279h-150zM200 363h34q64 0 93 21.5t29 68.5q0 55 -40 77q-27 15 -82 15h-34v-182zM254 -19l121 -36l-86 -192l-96 29z" />
    <glyph glyph-name="rcommaaccent" unicode="&#x157;" horiz-adv-x="311" 
d="M178 443v-24q38 27 81 27q14 0 44 -3v-114q-24 2 -44 2q-46 0 -63.5 -25t-17.5 -92v-214h-128v443h128zM63 -19l121 -36l-86 -192l-96 29z" />
    <glyph glyph-name="Rcaron" unicode="&#x158;" horiz-adv-x="561" 
d="M399 0l-136 243h-2h-3l-33 -1h-25v-242h-133v667h158q104 0 158 -32q48 -28 75.5 -76.5t27.5 -106.5q0 -113 -94 -173l157 -279h-150zM200 363h34q64 0 93 21.5t29 68.5q0 55 -40 77q-27 15 -82 15h-34v-182zM174 899l88 -83l87 83l97 -47l-145 -153h-79l-145 153z" />
    <glyph glyph-name="rcaron" unicode="&#x159;" horiz-adv-x="311" 
d="M178 443v-24q38 27 81 27q14 0 44 -3v-114q-24 2 -44 2q-46 0 -63.5 -25t-17.5 -92v-214h-128v443h128zM265 699l97 -46l-145 -153h-79l-145 153l97 46l87 -85z" />
    <glyph glyph-name="Sacute" unicode="&#x15a;" horiz-adv-x="525" 
d="M483 551l-109 -69q-30 46 -51 61.5t-52 15.5q-35 0 -58.5 -21.5t-23.5 -53.5q0 -41 72 -68l62 -23q166 -63 166 -191q0 -92 -66.5 -155t-164.5 -63q-54 0 -101.5 21.5t-76.5 58.5q-35 46 -53 125l130 35q14 -58 27 -76q28 -40 75 -40q40 0 68 27t28 65q0 26 -20.5 44
t-69.5 37l-58 22q-151 58 -151 182q0 85 62.5 141.5t155.5 56.5q68 0 117 -31t92 -101zM445 849l-163 -157l-87 47l130 172z" />
    <glyph glyph-name="sacute" unicode="&#x15b;" horiz-adv-x="389" 
d="M364 645l-163 -158l-86 48l130 172zM17 120l108 40q31 -63 72 -63q19 0 30.5 10t11.5 27q0 12 -8.5 19.5t-36.5 18.5l-59 23q-91 37 -91 121q0 61 46.5 102t114.5 41q103 0 160 -103l-102 -49q-27 40 -59 40q-37 0 -37 -29q0 -10 8.5 -16.5t35.5 -17.5l51 -20
q105 -39 105 -125q0 -65 -49 -110t-122 -45q-77 0 -129 50q-29 30 -50 86z" />
    <glyph glyph-name="Scircumflex" unicode="&#x15c;" horiz-adv-x="525" 
d="M483 551l-109 -69q-30 46 -51 61.5t-52 15.5q-35 0 -58.5 -21.5t-23.5 -53.5q0 -41 72 -68l62 -23q166 -63 166 -191q0 -92 -66.5 -155t-164.5 -63q-54 0 -101.5 21.5t-76.5 58.5q-35 46 -53 125l130 35q14 -58 27 -76q28 -40 75 -40q40 0 68 27t28 65q0 26 -20.5 44
t-69.5 37l-58 22q-151 58 -151 182q0 85 62.5 141.5t155.5 56.5q68 0 117 -31t92 -101zM172 693l-97 47l145 153h79l145 -153l-97 -47l-88 83z" />
    <glyph glyph-name="scircumflex" unicode="&#x15d;" horiz-adv-x="396" 
d="M18 120l108 40q18 -35 34.5 -49t38.5 -14q19 0 30 10t11 27q0 12 -8.5 19.5t-36.5 18.5l-59 23q-91 37 -91 121q0 61 46.5 102t114.5 41q103 0 160 -103l-101 -49q-28 40 -60 40q-37 0 -37 -29q0 -10 8.5 -16.5t35.5 -17.5l51 -20q105 -39 105 -124q0 -66 -49 -111
t-122 -45q-65 0 -108.5 33t-70.5 103zM286 489l-88 85l-87 -85l-97 46l145 153h79l145 -153z" />
    <glyph glyph-name="Scedilla" unicode="&#x15e;" horiz-adv-x="525" 
d="M483 551l-109 -69q-30 46 -51 61.5t-52 15.5q-35 0 -58.5 -21.5t-23.5 -53.5q0 -41 72 -68l62 -23q166 -63 166 -191q0 -92 -66.5 -155t-164.5 -63q-54 0 -101.5 21.5t-76.5 58.5q-35 46 -53 125l130 35q14 -58 27 -76q28 -40 75 -40q40 0 68 27t28 65q0 26 -20.5 44
t-69.5 37l-58 22q-151 58 -151 182q0 85 62.5 141.5t155.5 56.5q68 0 117 -31t92 -101zM374 -67l-134 -164l-93 45l111 167z" />
    <glyph glyph-name="scedilla" unicode="&#x15f;" horiz-adv-x="389" 
d="M17 120l108 40q31 -63 72 -63q19 0 30.5 10t11.5 27q0 12 -8.5 19.5t-36.5 18.5l-59 23q-91 37 -91 121q0 61 46.5 102t114.5 41q103 0 160 -103l-102 -49q-27 40 -59 40q-37 0 -37 -29q0 -10 8.5 -16.5t35.5 -17.5l51 -20q105 -39 105 -125q0 -65 -49 -110t-122 -45
q-77 0 -129 50q-29 30 -50 86zM303 -67l-134 -164l-92 45l110 167z" />
    <glyph glyph-name="Scaron" unicode="&#x160;" horiz-adv-x="525" 
d="M483 551l-109 -69q-30 46 -51 61.5t-52 15.5q-35 0 -58.5 -21.5t-23.5 -53.5q0 -41 72 -68l62 -23q166 -63 166 -191q0 -92 -66.5 -155t-164.5 -63q-54 0 -101.5 21.5t-76.5 58.5q-35 46 -53 125l130 35q14 -58 27 -76q28 -40 75 -40q40 0 68 27t28 65q0 26 -20.5 44
t-69.5 37l-58 22q-151 58 -151 182q0 85 62.5 141.5t155.5 56.5q68 0 117 -31t92 -101zM172 899l87 -83l88 83l97 -47l-145 -153h-79l-145 153z" />
    <glyph glyph-name="scaron" unicode="&#x161;" horiz-adv-x="396" 
d="M18 120l108 40q18 -35 34.5 -49t38.5 -14q19 0 30 10t11 27q0 12 -8.5 19.5t-36.5 18.5l-59 23q-91 37 -91 121q0 61 46.5 102t114.5 41q103 0 160 -103l-101 -49q-28 40 -60 40q-37 0 -37 -29q0 -10 8.5 -16.5t35.5 -17.5l51 -20q105 -39 105 -124q0 -66 -49 -111
t-122 -45q-65 0 -108.5 33t-70.5 103zM286 699l97 -46l-145 -153h-79l-145 153l97 46l87 -85z" />
    <glyph glyph-name="Tcommaaccent" unicode="&#x162;" horiz-adv-x="441" 
d="M447 667v-123h-160v-544h-133v544h-160v123h453zM181 -19l121 -36l-86 -192l-96 29z" />
    <glyph glyph-name="tcommaaccent" unicode="&#x163;" horiz-adv-x="274" 
d="M182 328v-180q0 -38 19 -38q16 0 54 13v-119q-36 -13 -73 -13q-61 0 -94.5 40.5t-33.5 114.5v182h-45v115h45v92l128 50v-142h67v-115h-67zM103 -19l121 -36l-86 -192l-96 29z" />
    <glyph glyph-name="Tcaron" unicode="&#x164;" horiz-adv-x="441" 
d="M447 667v-123h-160v-544h-133v544h-160v123h453zM133 899l87 -83l88 83l97 -47l-145 -153h-79l-145 153z" />
    <glyph glyph-name="tcaron" unicode="&#x165;" horiz-adv-x="374" 
d="M182 328v-180q0 -38 19 -38q16 0 54 13v-119q-36 -13 -73 -13q-61 0 -94.5 40.5t-33.5 114.5v182h-45v115h45v92l128 50v-142h67v-115h-67zM272 706l121 -36l-86 -192l-96 29z" />
    <glyph glyph-name="Tbar" unicode="&#x166;" horiz-adv-x="441" 
d="M154 327h-99v116h99v101h-160v123h453v-123h-160v-101h98v-116h-98v-327h-133v327z" />
    <glyph glyph-name="tbar" unicode="&#x167;" horiz-adv-x="274" 
d="M54 443v92l128 50v-142h67v-104h-67v-28h67v-104h-67v-59q0 -38 19 -38q16 0 54 13v-119q-36 -13 -73 -13q-61 0 -94.5 40.5t-33.5 114.5v61h-45v104h45v28h-45v104h45z" />
    <glyph glyph-name="Utilde" unicode="&#x168;" horiz-adv-x="642" 
d="M200 667v-409q0 -72 14 -96q13 -23 43.5 -38t63.5 -15t63.5 15t43.5 38q14 24 14 96v409h133v-427q0 -84 -30 -135q-32 -56 -93 -88.5t-131 -32.5t-131 32.5t-94 88.5q-29 51 -29 135v427h133zM377 873l107 -24q-4 -53 -20 -81q-26 -44 -84 -44q-40 0 -79 21q-15 9 -26 9
q-5 0 -6 -3l-1 -4q-1 -4 -2.5 -12t-3.5 -17l-104 23q12 125 107 125q34 0 79 -24q16 -8 23 -8q5 0 6.5 5t3.5 34z" />
    <glyph glyph-name="utilde" unicode="&#x169;" horiz-adv-x="510" 
d="M332 0v21q-45 -37 -101 -37q-47 0 -89 23.5t-64 63.5q-28 49 -28 133v239h128v-232q0 -62 16 -86.5t56 -24.5q50 0 68 33q14 25 14 87v223h128v-443h-128zM311 669l107 -24q-4 -53 -20 -81q-26 -44 -85 -44q-39 0 -78 21q-17 9 -26 9q-5 0 -6 -3l-1 -4q-1 -4 -2.5 -12
t-3.5 -17l-104 23q12 125 107 125q33 0 79 -24q14 -8 23 -8q5 0 6 5t4 34z" />
    <glyph glyph-name="Umacron" unicode="&#x16a;" horiz-adv-x="642" 
d="M200 667v-409q0 -72 14 -96q13 -23 43.5 -38t63.5 -15t63.5 15t43.5 38q14 24 14 96v409h133v-427q0 -84 -30 -135q-32 -56 -93 -88.5t-131 -32.5t-131 32.5t-94 88.5q-29 51 -29 135v427h133zM159 850h324v-110h-324v110z" />
    <glyph glyph-name="umacron" unicode="&#x16b;" horiz-adv-x="510" 
d="M332 0v21q-45 -37 -101 -37q-47 0 -89 23.5t-64 63.5q-28 49 -28 133v239h128v-232q0 -62 16 -86.5t56 -24.5q50 0 68 33q14 25 14 87v223h128v-443h-128zM93 645h324v-110h-324v110z" />
    <glyph glyph-name="Ubreve" unicode="&#x16c;" horiz-adv-x="642" 
d="M200 667v-409q0 -72 14 -96q13 -23 43.5 -38t63.5 -15t63.5 15t43.5 38q14 24 14 96v409h133v-427q0 -84 -30 -135q-32 -56 -93 -88.5t-131 -32.5t-131 32.5t-94 88.5q-29 51 -29 135v427h133zM162 871l111 9q0 -4 0.5 -10t1 -9.5t0.5 -5.5q1 -51 43 -51q29 0 41 27
q4 9 10 49l111 -9q-7 -60 -19 -85q-44 -88 -142 -88q-52 0 -92.5 28t-56.5 74q-7 20 -8 71z" />
    <glyph glyph-name="ubreve" unicode="&#x16d;" horiz-adv-x="510" 
d="M332 0v21q-45 -37 -101 -37q-47 0 -89 23.5t-64 63.5q-28 49 -28 133v239h128v-232q0 -62 16 -86.5t56 -24.5q50 0 68 33q14 25 14 87v223h128v-443h-128zM97 667l111 9l1 -26q1 -52 44 -52q27 0 41 27q3 8 9 51l111 -9q-7 -64 -19 -85q-44 -88 -141 -88q-53 0 -93.5 28
t-55.5 74q-7 20 -8 71z" />
    <glyph glyph-name="Uring" unicode="&#x16e;" horiz-adv-x="642" 
d="M321 909q48 0 81.5 -33t33.5 -80t-33.5 -80t-82.5 -33q-47 0 -80.5 33.5t-33.5 81.5q0 45 34 78t81 33zM321 848q-22 0 -37 -15.5t-15 -37.5q0 -21 15.5 -36t36.5 -15q22 0 37 15t15 37t-15 37t-37 15zM200 667v-409q0 -72 14 -96q13 -23 43.5 -38t63.5 -15t63.5 15
t43.5 38q14 24 14 96v409h133v-427q0 -84 -30 -135q-32 -56 -93 -88.5t-131 -32.5t-131 32.5t-94 88.5q-29 51 -29 135v427h133z" />
    <glyph glyph-name="uring" unicode="&#x16f;" horiz-adv-x="510" 
d="M332 0v21q-45 -37 -101 -37q-47 0 -89 23.5t-64 63.5q-28 49 -28 133v239h128v-232q0 -62 16 -86.5t56 -24.5q50 0 68 33q14 25 14 87v223h128v-443h-128zM255 704q48 0 81.5 -33t33.5 -80t-33.5 -80t-82.5 -33q-47 0 -80.5 33.5t-33.5 81.5q0 45 34 78t81 33zM255 643
q-22 0 -37 -15.5t-15 -37.5q0 -20 15.5 -35.5t36.5 -15.5q22 0 37 15t15 37t-15 37t-37 15z" />
    <glyph glyph-name="Uhungarumlaut" unicode="&#x170;" horiz-adv-x="644" 
d="M409 852l42 58l105 -60l-162 -157l-70 41l84 117l-163 -158l-73 46l129 171zM200 667v-409q0 -72 14 -96q13 -23 43.5 -38t63.5 -15t63.5 15t43.5 38q14 24 14 96v409h133v-427q0 -84 -30 -135q-32 -56 -93 -88.5t-131 -32.5t-131 32.5t-94 88.5q-29 51 -29 135v427h133z
" />
    <glyph glyph-name="uhungarumlaut" unicode="&#x171;" horiz-adv-x="510" 
d="M339 646l42 59l105 -61l-162 -157l-69 42l84 116l-164 -158l-72 47l129 171zM332 0v21q-45 -37 -101 -37q-47 0 -89 23.5t-64 63.5q-28 49 -28 133v239h128v-232q0 -62 16 -86.5t56 -24.5q50 0 68 33q14 25 14 87v223h128v-443h-128z" />
    <glyph glyph-name="Uogonek" unicode="&#x172;" horiz-adv-x="642" 
d="M579 667v-427q3 -95 -45 -158.5t-142 -88.5q-26 -36 -26 -51q0 -8 10 -8q16 0 43 12l38 -93q-64 -23 -96 -23q-51 0 -84 28t-33 72q0 29 20 62q-96 22 -146 87t-47 161v427h133v-409q0 -71 14 -96q13 -23 43.5 -38t63.5 -15t63 15t44 38q14 25 14 96v409h133z" />
    <glyph glyph-name="uogonek" unicode="&#x173;" horiz-adv-x="510" 
d="M460 0l-1 -2l-3 -3q-28 -35 -28 -54q0 -8 10 -8q15 0 43 12l38 -93q-63 -23 -95 -23q-52 0 -85 28t-33 72q0 33 26 71v21q-45 -37 -101 -37q-47 0 -89 23.5t-64 63.5q-28 49 -28 133v239h128v-232q0 -62 16 -86.5t56 -24.5q50 0 68 33q14 25 14 87v223h128v-443z" />
    <glyph glyph-name="Wcircumflex" unicode="&#x174;" horiz-adv-x="877" 
d="M133 667l123 -427l127 427h111l128 -427l123 427h138l-199 -667h-119l-126 417l-126 -417h-119l-200 667h139zM351 693l-97 47l145 153h79l145 -153l-97 -47l-87 83z" />
    <glyph glyph-name="wcircumflex" unicode="&#x175;" horiz-adv-x="658" 
d="M-12 443h136l76 -234l80 234h98l80 -234l77 234h136l-161 -443h-102l-79 230l-79 -230h-102zM417 489l-88 85l-87 -85l-97 46l145 153h79l145 -153z" />
    <glyph glyph-name="Ycircumflex" unicode="&#x176;" horiz-adv-x="552" 
d="M209 276l-222 391h149l140 -254l140 254h149l-223 -391v-276h-133v276zM189 693l-97 47l145 153h79l145 -153l-97 -47l-88 83z" />
    <glyph glyph-name="ycircumflex" unicode="&#x177;" horiz-adv-x="474" 
d="M163 22l-175 421h137l108 -265l117 265h137l-302 -677h-135zM326 489l-88 85l-87 -85l-97 46l145 153h79l144 -153z" />
    <glyph glyph-name="Ydieresis" unicode="&#x178;" horiz-adv-x="552" 
d="M209 276l-222 391h149l140 -254l140 254h149l-223 -391v-276h-133v276zM369 868q32 0 53.5 -21t21.5 -52q0 -30 -22 -51.5t-53 -21.5q-32 0 -53.5 21.5t-21.5 52.5q0 29 22 50.5t53 21.5zM183 868q32 0 53.5 -21t21.5 -52q0 -30 -22 -51.5t-53 -21.5t-53 21.5t-22 52.5
q0 29 22 50.5t53 21.5z" />
    <glyph glyph-name="Zacute" unicode="&#x179;" horiz-adv-x="513" 
d="M494 566l-310 -442h317v-124h-491v101l315 443h-287v123h456v-101zM419 849l-163 -157l-86 47l130 172z" />
    <glyph glyph-name="zacute" unicode="&#x17a;" horiz-adv-x="418" 
d="M374 645l-163 -158l-86 48l130 172zM401 443v-93l-209 -236h218v-114h-392v92l210 237h-197v114h370z" />
    <glyph glyph-name="Zdotaccent" unicode="&#x17b;" horiz-adv-x="513" 
d="M494 566l-310 -442h317v-124h-491v101l315 443h-287v123h456v-101zM271 871q32 0 55 -22.5t23 -53.5q0 -32 -23 -54t-56 -22q-32 0 -54.5 22.5t-22.5 54.5q0 31 23 53t55 22z" />
    <glyph glyph-name="zdotaccent" unicode="&#x17c;" horiz-adv-x="418" 
d="M401 443v-93l-209 -236h218v-114h-392v92l210 237h-197v114h370zM214 671q32 0 55 -22.5t23 -53.5q0 -32 -23 -54t-56 -22q-32 0 -54.5 22.5t-22.5 54.5q0 31 23 53t55 22z" />
    <glyph glyph-name="Zcaron" unicode="&#x17d;" horiz-adv-x="513" 
d="M494 566l-310 -442h317v-124h-491v101l315 443h-287v123h456v-101zM184 899l88 -83l87 83l98 -47l-146 -153h-79l-145 153z" />
    <glyph glyph-name="zcaron" unicode="&#x17e;" horiz-adv-x="418" 
d="M400 443v-93l-209 -236h218v-114h-392v92l210 237h-197v114h370zM300 699l97 -46l-145 -153h-79l-144 153l96 46l88 -85z" />
    <glyph glyph-name="longs" unicode="&#x17f;" horiz-adv-x="248" 
d="M186 0h-128v328h-41v115h41v78q0 74 34 114.5t96 40.5q34 0 70 -9v-115q-27 9 -43 9q-29 0 -29 -42v-519z" />
    <glyph glyph-name="florin" unicode="&#x192;" horiz-adv-x="493" 
d="M-5 -186l25 118q6 -1 26 -8q18 -4 24 -4q23 0 32 46l76 362h-43l24 115h43l16 80q15 73 56 114t99 41q32 0 82 -15l-24 -118q-41 11 -50 11q-23 0 -33 -45l-14 -68h77l-24 -115h-77l-78 -375q-15 -73 -56 -113.5t-99 -40.5q-32 0 -82 15z" />
    <glyph glyph-name="Ohorn" unicode="&#x1a0;" horiz-adv-x="776" 
d="M589 724l99 49q24 -18 36 -29q42 -40 42 -104q0 -79 -79 -135q46 -82 46 -173q0 -142 -104 -245t-248 -103q-145 0 -248.5 103t-103.5 246q0 144 104 247t249 103q134 0 233 -90q37 19 37 47q0 21 -11.5 36.5t-51.5 47.5zM380 558q-91 0 -153.5 -66.5t-62.5 -161.5
q0 -90 64.5 -155.5t152.5 -65.5q89 0 153 66t64 158q0 94 -63.5 159.5t-154.5 65.5z" />
    <glyph glyph-name="ohorn" unicode="&#x1a1;" horiz-adv-x="569" 
d="M389 500l98 50q28 -20 37 -29q42 -44 42 -104q0 -79 -76 -133q9 -32 9 -62q0 -100 -68.5 -169t-169.5 -69t-170 68.5t-69 169.5q0 100 69 168.5t170 68.5q105 0 175 -76q16 13 16 34q0 20 -11.5 35.5t-51.5 47.5zM259 343q-47 0 -77.5 -33.5t-30.5 -86.5q0 -55 30 -89
t80 -34q49 0 79 33.5t30 88.5t-30.5 88t-80.5 33z" />
    <glyph glyph-name="Uhorn" unicode="&#x1af;" horiz-adv-x="704" 
d="M575 667v-67q25 18 25 41q0 20 -11.5 35.5t-51.5 47.5l98 49q22 -16 37 -29q42 -42 42 -105q0 -106 -128 -158l-6 -3l-5 -2v-236q0 -84 -30 -135q-32 -56 -93 -88.5t-131 -32.5t-131 32.5t-94 88.5q-29 51 -29 135v427h133v-409q0 -72 14 -96q13 -23 43.5 -38t63.5 -15
t63.5 15t43.5 38q14 24 14 96v409h133z" />
    <glyph glyph-name="uhorn" unicode="&#x1b0;" horiz-adv-x="605" 
d="M460 443v-69q28 17 28 43q0 20 -11.5 35.5t-51.5 47.5l98 49q28 -20 37 -29q42 -42 42 -104q0 -56 -33.5 -95t-108.5 -70v-251h-128v21q-45 -37 -101 -37q-47 0 -89 23.5t-64 63.5q-28 49 -28 133v239h128v-232q0 -62 16 -86.5t56 -24.5q50 0 68 33q14 25 14 87v223h128z
" />
    <glyph glyph-name="uni01C4" unicode="&#x1c4;" horiz-adv-x="1128" 
d="M67 667h158q167 0 266.5 -90.5t99.5 -242.5t-99.5 -243t-266.5 -91h-158v667zM200 543v-419h29q107 0 167.5 56t60.5 154q0 97 -61 153t-167 56h-29zM1115 566l-311 -442h317v-124h-490v101l315 443h-288v123h457v-101zM805 899l87 -83l88 83l97 -47l-145 -153h-79
l-145 153z" />
    <glyph glyph-name="uni01C5" unicode="&#x1c5;" horiz-adv-x="1038" 
d="M67 667h158q167 0 266.5 -90.5t99.5 -242.5t-99.5 -243t-266.5 -91h-158v667zM200 543v-419h29q107 0 167.5 56t60.5 154q0 97 -61 153t-167 56h-29zM1020 443v-93l-209 -236h218v-114h-392v92l210 237h-197v114h370zM920 699l97 -46l-145 -153h-79l-145 153l97 46
l88 -85z" />
    <glyph glyph-name="uni01C6" unicode="&#x1c6;" horiz-adv-x="961" 
d="M493 0h-128v25q-56 -41 -115 -41q-95 0 -161.5 69.5t-66.5 168.5q0 98 66.5 167.5t161.5 69.5q58 0 115 -40v248h128v-667zM258 343q-47 0 -77 -34t-30 -89q0 -53 30.5 -86.5t77.5 -33.5q48 0 77.5 34t29.5 89q0 54 -29.5 87t-78.5 33zM944 443v-93l-209 -236h217v-114
h-391v92l210 237h-197v114h370zM844 699l97 -46l-145 -153h-79l-145 153l97 46l87 -85z" />
    <glyph glyph-name="uni01C7" unicode="&#x1c7;" horiz-adv-x="884" 
d="M67 667h133v-543h240v-124h-373v667zM817 667v-459q0 -87 -29 -140q-22 -40 -63.5 -62t-92.5 -22t-94 21t-90 70l81 96q55 -62 99 -62q56 0 56 99v459h133z" />
    <glyph glyph-name="uni01C8" unicode="&#x1c8;" horiz-adv-x="677" 
d="M67 667h133v-543h240v-124h-373v667zM627 443v-532q0 -73 -33.5 -114t-93.5 -41q-32 0 -74 13v119q38 -13 54 -13q19 0 19 39v529h128zM563 671q32 0 55 -22.5t23 -53.5t-23 -53.5t-55 -22.5q-33 0 -55.5 22.5t-22.5 54.5q0 31 23 53t55 22z" />
    <glyph glyph-name="uni01C9" unicode="&#x1c9;" horiz-adv-x="467" 
d="M179 0h-128v667h128v-667zM417 443v-532q0 -73 -33.5 -114t-93.5 -41q-32 0 -74 13v119q38 -13 54 -13q19 0 19 39v529h128zM353 671q32 0 55 -22.5t23 -53.5t-23 -53.5t-55 -22.5q-33 0 -55.5 22.5t-22.5 54.5q0 31 23 53t55 22z" />
    <glyph glyph-name="uni01CA" unicode="&#x1ca;" horiz-adv-x="1135" 
d="M67 0v667h113l327 -434v434h133v-667h-113l-327 434v-434h-133zM1068 667v-459q0 -87 -29 -140q-22 -40 -63.5 -62t-92.5 -22t-94 21t-90 70l81 96q55 -62 99 -62q56 0 56 99v459h133z" />
    <glyph glyph-name="uni01CB" unicode="&#x1cb;" horiz-adv-x="945" 
d="M67 0v667h113l328 -434v434h133v-667h-113l-328 434v-434h-133zM894 443v-532q0 -73 -33.5 -114t-93.5 -41q-31 0 -73 13v119q36 -13 53 -13q19 0 19 39v529h128zM830 671q32 0 55 -22.5t23 -53.5t-23 -53.5t-55 -22.5q-33 0 -55.5 22.5t-22.5 54.5q0 31 23 53t55 22z
" />
    <glyph glyph-name="uni01CC" unicode="&#x1cc;" horiz-adv-x="747" 
d="M178 443v-21q45 37 101 37q47 0 89 -23.5t64 -63.5q28 -49 28 -133v-239h-128v232q0 63 -16 87.5t-56 24.5q-50 0 -68 -33q-14 -27 -14 -88v-223h-128v443h128zM696 443v-532q0 -73 -33.5 -114t-93.5 -41q-31 0 -73 13v119q36 -13 53 -13q19 0 19 39v529h128zM632 671
q32 0 55 -22.5t23 -53.5t-23 -53.5t-55 -22.5q-33 0 -55.5 22.5t-22.5 54.5q0 31 23 53t55 22z" />
    <glyph glyph-name="uni01CD" unicode="&#x1cd;" horiz-adv-x="643" 
d="M453 155h-263l-56 -155h-140l249 667h157l249 -667h-141zM409 279l-88 246l-88 -246h176zM234 899l88 -83l87 83l97 -47l-145 -153h-79l-145 153z" />
    <glyph glyph-name="uni01CE" unicode="&#x1ce;" horiz-adv-x="543" 
d="M494 0h-128v25q-55 -41 -115 -41q-95 0 -161.5 69.5t-66.5 168.5q0 98 66.5 167.5t161.5 69.5q60 0 115 -41v25h128v-443zM259 344q-48 0 -77.5 -34t-29.5 -90q0 -53 30.5 -87t78.5 -34t77.5 34t29.5 90q0 55 -30 88t-79 33zM345 699l97 -46l-145 -153h-79l-144 153
l96 46l88 -85z" />
    <glyph glyph-name="uni01CF" unicode="&#x1cf;" horiz-adv-x="267" 
d="M200 667v-667h-133v667h133zM46 899l88 -83l87 83l97 -47l-145 -153h-79l-145 153z" />
    <glyph glyph-name="uni01D0" unicode="&#x1d0;" horiz-adv-x="229" 
d="M178 443v-443h-128v443h128zM202 699l97 -46l-145 -153h-79l-145 153l97 46l87 -85z" />
    <glyph glyph-name="uni01D1" unicode="&#x1d1;" horiz-adv-x="762" 
d="M381 683q145 0 248.5 -103t103.5 -247q0 -143 -103.5 -246t-247.5 -103q-147 0 -250 103t-103 251q0 140 105 242.5t247 102.5zM380 558q-91 0 -153.5 -66.5t-62.5 -161.5q0 -90 64.5 -155.5t152.5 -65.5q89 0 153 66t64 158q0 94 -63.5 159.5t-154.5 65.5zM294 899
l87 -83l88 83l97 -47l-145 -153h-79l-146 153z" />
    <glyph glyph-name="uni01D2" unicode="&#x1d2;" horiz-adv-x="520" 
d="M264 459q97 0 166 -69.5t69 -167.5q0 -100 -68.5 -169t-169.5 -69t-170 69t-69 171q0 100 69.5 167.5t172.5 67.5zM259 343q-47 0 -77.5 -33.5t-30.5 -86.5q0 -55 30 -89t80 -34q49 0 79 33.5t30 88.5t-30.5 88t-80.5 33zM348 699l97 -46l-145 -153h-79l-145 153l97 46
l87 -85z" />
    <glyph glyph-name="uni01D3" unicode="&#x1d3;" horiz-adv-x="642" 
d="M200 667v-409q0 -72 14 -96q13 -23 43.5 -38t63.5 -15t63.5 15t43.5 38q14 24 14 96v409h133v-427q0 -84 -30 -135q-32 -56 -93 -88.5t-131 -32.5t-131 32.5t-94 88.5q-29 51 -29 135v427h133zM234 899l87 -83l87 83l98 -47l-145 -153h-79l-146 153z" />
    <glyph glyph-name="uni01D4" unicode="&#x1d4;" horiz-adv-x="510" 
d="M332 0v21q-45 -37 -101 -37q-47 0 -89 23.5t-64 63.5q-28 49 -28 133v239h128v-232q0 -62 16 -86.5t56 -24.5q50 0 68 33q14 25 14 87v223h128v-443h-128zM342 699l97 -46l-145 -153h-78l-145 153l96 46l88 -85z" />
    <glyph glyph-name="Gcaron" unicode="&#x1e6;" horiz-adv-x="728" 
d="M376 373h321v-64q0 -146 -85.5 -235.5t-225.5 -89.5q-149 0 -253 101.5t-104 247.5t103.5 248t252.5 102q76 0 137 -28.5t131 -95.5l-94 -89q-49 50 -87 69t-88 19q-94 0 -157 -65t-63 -160t64 -159.5t158 -64.5q81 0 132 55q29 32 40 86h-182v123zM298 899l88 -83l87 83
l98 -47l-145 -153h-79l-146 153z" />
    <glyph glyph-name="gcaron" unicode="&#x1e7;" horiz-adv-x="543" 
d="M366 -9v34q-57 -41 -115 -41q-95 0 -161.5 69.5t-66.5 168.5q0 98 66.5 167.5t161.5 69.5q58 0 115 -41v25h128v-452q0 -107 -67 -173.5t-174 -66.5q-105 0 -179 68q-23 23 -46 50l86 82q10 -12 11 -13q3 -4 9 -10q51 -61 118 -61q55 0 84.5 32.5t29.5 91.5zM260 344
q-47 0 -77.5 -34t-30.5 -87q0 -55 30 -89.5t78 -34.5t77.5 34t29.5 89t-29.5 88.5t-77.5 33.5zM345 699l97 -46l-145 -153h-78l-145 153l96 46l88 -85z" />
    <glyph glyph-name="uni01F4" unicode="&#x1f4;" horiz-adv-x="728" 
d="M376 373h321v-64q0 -146 -85.5 -235.5t-225.5 -89.5q-149 0 -253 101.5t-104 247.5t103.5 248t252.5 102q76 0 137 -28.5t131 -95.5l-94 -89q-49 50 -87 69t-88 19q-94 0 -157 -65t-63 -160t64 -159.5t158 -64.5q81 0 132 55q29 32 40 86h-182v123zM557 849l-163 -157
l-86 47l129 172z" />
    <glyph glyph-name="uni01F5" unicode="&#x1f5;" horiz-adv-x="543" 
d="M366 -9v34q-57 -41 -115 -41q-95 0 -161.5 69.5t-66.5 168.5q0 98 66.5 167.5t161.5 69.5q58 0 115 -41v25h128v-452q0 -107 -67 -173.5t-174 -66.5q-105 0 -179 68q-23 23 -46 50l86 82q10 -12 11 -13q3 -4 9 -10q51 -61 118 -61q55 0 84.5 32.5t29.5 91.5zM260 344
q-47 0 -77.5 -34t-30.5 -87q0 -55 30 -89.5t78 -34.5t77.5 34t29.5 89t-29.5 88.5t-77.5 33.5zM424 645l-163 -158l-86 48l130 172z" />
    <glyph glyph-name="Aringacute" unicode="&#x1fa;" horiz-adv-x="643" 
d="M447 1022l-121 -114q48 -3 79.5 -34t31.5 -75q0 -45 -33.5 -77t-81.5 -32q-47 0 -81 32t-34 77q0 54 46 87l-55 29l130 166zM322 849q-22 0 -37 -14.5t-15 -36.5q0 -20 15.5 -34.5t36.5 -14.5q22 0 37 14.5t15 35.5t-15 35.5t-37 14.5zM453 155h-263l-56 -155h-140
l249 667h157l249 -667h-141zM409 279l-88 246l-88 -246h176z" />
    <glyph glyph-name="aringacute" unicode="&#x1fb;" horiz-adv-x="543" 
d="M404 849l-154 -149q7 2 16 2q48 0 81.5 -33t33.5 -80t-33.5 -80t-81.5 -33q-47 0 -81 33.5t-34 79.5q0 37 22.5 67t59.5 41l-78 42l130 172zM266 641q-22 0 -37 -15.5t-15 -37.5q0 -21 15.5 -36t36.5 -15q22 0 37 15t15 37t-15 37t-37 15zM494 0h-128v25
q-55 -41 -115 -41q-95 0 -161.5 69.5t-66.5 168.5q0 98 66.5 167.5t161.5 69.5q60 0 115 -41v25h128v-443zM259 344q-48 0 -77.5 -34t-29.5 -90q0 -53 30.5 -87t78.5 -34t77.5 34t29.5 90q0 55 -30 88t-79 33z" />
    <glyph glyph-name="AEacute" unicode="&#x1fc;" horiz-adv-x="845" 
d="M423 155h-200l-80 -155h-149l351 667h460v-123h-249v-145h221v-123h-221v-152h258v-124h-391v155zM423 279v249h-7l-129 -249h136zM690 849l-163 -157l-86 47l130 172z" />
    <glyph glyph-name="aeacute" unicode="&#x1fd;" horiz-adv-x="801" 
d="M98 300l-67 83q55 42 103 59t108 17q108 0 163 -60q65 60 150 60q98 0 161 -70t63 -179q0 -15 -1 -33h-317q25 -80 100 -80q64 0 99 57l112 -44q-76 -126 -212 -126q-86 0 -152 57q-57 -57 -169 -57q-98 0 -157.5 43t-59.5 114q0 68 54 107t149 39h97q-20 60 -91 60
q-63 0 -133 -47zM461 266h191q-25 81 -95 81q-76 0 -96 -81zM327 198h-89q-89 0 -89 -52q0 -51 89 -51t89 57v46zM562 645l-162 -158l-87 48l130 172z" />
    <glyph glyph-name="Oslashacute" unicode="&#x1fe;" horiz-adv-x="770" 
d="M729 600l-61 -60q69 -95 69 -206q0 -144 -103.5 -247t-248.5 -103q-113 0 -211 71l-60 -58l-73 70l61 60q-69 90 -69 206q0 144 104 247t249 103q114 0 211 -71l59 58zM573 447l-306 -301q54 -37 118 -37q89 0 153 65.5t64 157.5q0 59 -29 115zM197 220l307 301
q-55 37 -119 37q-90 0 -153.5 -65.5t-63.5 -158.5q0 -61 29 -114zM555 849l-163 -157l-86 47l129 172z" />
    <glyph glyph-name="oslashacute" unicode="&#x1ff;" horiz-adv-x="534" 
d="M28 58l37 35q-37 59 -37 128q0 101 69 169.5t170 68.5q75 0 140 -45l34 32l64 -61l-37 -35q37 -56 37 -129q0 -100 -69 -168.5t-170 -68.5q-80 0 -141 45l-34 -32zM162 184l156 147q-23 13 -52 13q-49 0 -79.5 -33.5t-30.5 -87.5q0 -21 6 -39zM371 260l-157 -148
q25 -13 53 -13q49 0 79.5 34.5t30.5 89.5q0 21 -6 37zM433 645l-163 -158l-86 48l129 172z" />
    <glyph glyph-name="uni0200" unicode="&#x200;" horiz-adv-x="643" 
d="M235 854l104 56l129 -171l-78 -46l-128 123l57 -79l-73 -44l-162 157l111 60zM453 155h-263l-56 -155h-140l249 667h157l249 -667h-141zM409 279l-88 246l-88 -246h176z" />
    <glyph glyph-name="uni0201" unicode="&#x201;" horiz-adv-x="543" 
d="M157 648l104 57l129 -171l-78 -47l-127 123l57 -79l-74 -44l-162 157l111 61zM493 0h-128v25q-55 -41 -115 -41q-95 0 -161.5 69.5t-66.5 168.5q0 98 66.5 167.5t161.5 69.5q60 0 115 -41v25h128v-443zM258 344q-48 0 -77.5 -34t-29.5 -90q0 -53 30.5 -87t78.5 -34
t77.5 34t29.5 90q0 55 -30 88t-79 33z" />
    <glyph glyph-name="Scommaaccent" unicode="&#x218;" horiz-adv-x="525" 
d="M483 551l-109 -69q-30 46 -51 61.5t-52 15.5q-35 0 -58.5 -21.5t-23.5 -53.5q0 -41 72 -68l62 -23q166 -63 166 -191q0 -92 -66.5 -155t-164.5 -63q-54 0 -101.5 21.5t-76.5 58.5q-35 46 -53 125l130 35q14 -58 27 -76q28 -40 75 -40q40 0 68 27t28 65q0 26 -20.5 44
t-69.5 37l-58 22q-151 58 -151 182q0 85 62.5 141.5t155.5 56.5q68 0 117 -31t92 -101zM370 -67l-134 -164l-92 45l110 167z" />
    <glyph glyph-name="scommaaccent" unicode="&#x219;" horiz-adv-x="389" 
d="M168 -19l121 -36l-86 -192l-96 29zM17 120l108 40q31 -63 72 -63q19 0 30.5 10t11.5 27q0 12 -8.5 19.5t-36.5 18.5l-59 23q-91 37 -91 121q0 61 46.5 102t114.5 41q103 0 160 -103l-102 -49q-27 40 -59 40q-37 0 -37 -29q0 -10 8.5 -16.5t35.5 -17.5l51 -20
q105 -39 105 -125q0 -65 -49 -110t-122 -45q-77 0 -129 50q-29 30 -50 86z" />
    <glyph glyph-name="uni021A" unicode="&#x21a;" horiz-adv-x="441" 
d="M447 667v-123h-160v-544h-133v544h-160v123h453zM181 -19l121 -36l-86 -192l-96 29z" />
    <glyph glyph-name="uni021B" unicode="&#x21b;" horiz-adv-x="274" 
d="M182 328v-180q0 -38 19 -38q16 0 54 13v-119q-36 -13 -73 -13q-61 0 -94.5 40.5t-33.5 114.5v182h-45v115h45v92l128 50v-142h67v-115h-67zM103 -19l121 -36l-86 -192l-96 29z" />
    <glyph glyph-name="uni0226" unicode="&#x226;" horiz-adv-x="643" 
d="M453 155h-263l-56 -155h-140l249 667h157l249 -667h-141zM409 279l-88 246l-88 -246h176zM322 871q32 0 55 -22.5t23 -53.5t-23 -53.5t-55 -22.5q-33 0 -55.5 22.5t-22.5 54.5q0 31 23 53t55 22z" />
    <glyph glyph-name="uni0227" unicode="&#x227;" horiz-adv-x="543" 
d="M494 0h-128v25q-55 -41 -115 -41q-95 0 -161.5 69.5t-66.5 168.5q0 98 66.5 167.5t161.5 69.5q60 0 115 -41v25h128v-443zM259 344q-48 0 -77.5 -34t-29.5 -90q0 -53 30.5 -87t78.5 -34t77.5 34t29.5 90q0 55 -30 88t-79 33zM258 671q32 0 55 -22.5t23 -53.5
q0 -32 -23 -54t-56 -22q-32 0 -54.5 22.5t-22.5 54.5q0 31 23 53t55 22z" />
    <glyph glyph-name="uni0237" unicode="&#x237;" horiz-adv-x="237" 
d="M186 443v-532q0 -73 -33.5 -114t-93.5 -41q-31 0 -73 13v119q36 -13 53 -13q19 0 19 39v529h128z" />
    <glyph glyph-name="uni02BB" unicode="&#x2bb;" horiz-adv-x="269" 
d="M148 429l-115 40l121 263l94 -36z" />
    <glyph glyph-name="afii57929" unicode="&#x2bc;" horiz-adv-x="306" 
d="M145 734l117 -43l-123 -275l-95 38z" />
    <glyph glyph-name="circumflex" unicode="&#x2c6;" horiz-adv-x="476" 
d="M326 489l-88 85l-87 -85l-97 46l145 153h79l145 -153z" />
    <glyph glyph-name="caron" unicode="&#x2c7;" horiz-adv-x="476" 
d="M326 699l97 -46l-145 -153h-79l-145 153l97 46l87 -85z" />
    <glyph glyph-name="uni02C9" unicode="&#x2c9;" horiz-adv-x="476" 
d="M76 645h324v-110h-324v110z" />
    <glyph glyph-name="breve" unicode="&#x2d8;" horiz-adv-x="476" 
d="M79 667l111 9l1 -26q3 -52 44 -52q27 0 41 27q3 8 9 51l111 -9q-7 -63 -19 -85q-44 -88 -141 -88q-52 0 -92.5 27.5t-56.5 74.5q-7 20 -8 71z" />
    <glyph glyph-name="dotaccent" unicode="&#x2d9;" horiz-adv-x="476" 
d="M238 671q32 0 55 -22.5t23 -53.5q0 -32 -23 -54t-56 -22q-32 0 -54.5 22.5t-22.5 54.5q0 31 23 53t55 22z" />
    <glyph glyph-name="ring" unicode="&#x2da;" horiz-adv-x="476" 
d="M238 704q48 0 81.5 -33t33.5 -80t-33.5 -80t-81.5 -33t-81.5 33.5t-33.5 81.5q0 45 34 78t81 33zM238 643q-22 0 -37 -15.5t-15 -37.5q0 -20 15.5 -35.5t36.5 -15.5q22 0 37 15t15 37t-15 37t-37 15z" />
    <glyph glyph-name="ogonek" unicode="&#x2db;" horiz-adv-x="476" 
d="M323 0h128q-32 -44 -32 -59q0 -8 10 -8q16 0 43 12l38 -93q-65 -23 -95 -23q-52 0 -85 28t-33 72q0 32 26 71z" />
    <glyph glyph-name="tilde" unicode="&#x2dc;" horiz-adv-x="476" 
d="M295 669l106 -24q-4 -55 -20 -81q-26 -44 -84 -44q-40 0 -79 21q-15 9 -26 9q-4 0 -5 -3l-8 -33l-104 23q12 125 107 125q34 0 79 -24q16 -8 24 -8q5 0 6 5t4 34z" />
    <glyph glyph-name="hungarumlaut" unicode="&#x2dd;" horiz-adv-x="476" 
d="M324 646l42 59l105 -61l-163 -157l-69 42l84 116l-164 -158l-72 47l129 171z" />
    <glyph glyph-name="uni0309" unicode="&#x309;" horiz-adv-x="476" 
d="M326 704h-115q1 36 4 48t14 27q13 15 13 21t-10 6q-9 0 -26 -6q-14 -5 -17 -6l-38 93q62 23 97 23q52 0 84 -25t32 -65q0 -31 -19 -59l-16 -24q-3 -3 -3 -23v-3v-7z" />
    <glyph glyph-name="uni0323" unicode="&#x323;" horiz-adv-x="476" 
d="M238 -38q32 0 55 -22.5t23 -53.5q0 -32 -23 -54t-56 -22q-32 0 -54.5 22.5t-22.5 54.5q0 31 23 53t55 22z" />
    <glyph glyph-name="uni037E" unicode="&#x37e;" horiz-adv-x="265" 
d="M112 132l117 -43l-123 -275l-95 38zM151 430q32 0 55 -22.5t23 -53.5q0 -32 -23 -54t-56 -22q-32 0 -54.5 22.5t-22.5 54.5q0 31 23 53t55 22z" />
    <glyph glyph-name="uni0387" unicode="&#x387;" horiz-adv-x="258" 
d="M129 409q32 0 55 -22.5t23 -53.5t-23 -53.5t-55 -22.5q-33 0 -55.5 22.5t-22.5 54.5q0 31 23 53t55 22z" />
    <glyph glyph-name="uni1E1E" unicode="&#x1e1e;" horiz-adv-x="452" 
d="M427 667v-123h-227v-145h207v-124h-207v-275h-133v667h360zM247 871q32 0 55 -22.5t23 -53.5t-23 -53.5t-55 -22.5q-33 0 -55.5 22.5t-22.5 54.5q0 31 23 53t55 22z" />
    <glyph glyph-name="uni1E1F" unicode="&#x1e1f;" horiz-adv-x="269" 
d="M188 328v-328h-128v328h-41v115h41v78q0 74 34 114.5t96 40.5q34 0 70 -9v-115q-27 9 -43 9q-29 0 -29 -42v-76h74v-115h-74zM166 866q32 0 55 -22.5t23 -53.5q0 -32 -23 -54t-56 -22q-32 0 -54.5 22.5t-22.5 54.5q0 31 23 53t55 22z" />
    <glyph glyph-name="Wgrave" unicode="&#x1e80;" horiz-adv-x="877" 
d="M133 667l123 -427l127 427h111l128 -427l123 427h138l-199 -667h-119l-126 417l-126 -417h-119l-200 667h139zM275 849l119 62l130 -172l-87 -47z" />
    <glyph glyph-name="wgrave" unicode="&#x1e81;" horiz-adv-x="658" 
d="M-12 443h136l76 -234l80 234h98l80 -234l77 234h136l-161 -443h-102l-79 230l-79 -230h-102zM162 645l119 62l130 -172l-86 -48z" />
    <glyph glyph-name="Wacute" unicode="&#x1e82;" horiz-adv-x="877" 
d="M133 667l123 -427l127 427h111l128 -427l123 427h138l-199 -667h-119l-126 417l-126 -417h-119l-200 667h139zM608 849l-163 -157l-86 47l130 172z" />
    <glyph glyph-name="wacute" unicode="&#x1e83;" horiz-adv-x="660" 
d="M-12 443h136l76 -234l80 234h98l80 -234l77 234h136l-161 -443h-102l-79 230l-79 -230h-102zM464 645l-163 -158l-86 48l130 172z" />
    <glyph glyph-name="Wdieresis" unicode="&#x1e84;" horiz-adv-x="877" 
d="M133 667l123 -427l127 427h111l128 -427l123 427h138l-199 -667h-119l-126 417l-126 -417h-119l-200 667h139zM532 868q32 0 53.5 -21t21.5 -52q0 -30 -22 -51.5t-53 -21.5q-32 0 -53.5 21.5t-21.5 52.5q0 29 22 50.5t53 21.5zM346 868q31 0 53 -21.5t22 -51.5
q0 -31 -22 -52t-54 -21q-31 0 -52.5 21.5t-21.5 52.5q0 29 22 50.5t53 21.5z" />
    <glyph glyph-name="wdieresis" unicode="&#x1e85;" horiz-adv-x="658" 
d="M-12 443h136l76 -234l80 234h98l80 -234l77 234h136l-161 -443h-102l-79 230l-79 -230h-102zM423 668q31 0 53 -21.5t22 -51.5q0 -31 -22 -52t-54 -21q-31 0 -52.5 21.5t-21.5 52.5q0 29 22 50.5t53 21.5zM236 668q31 0 53 -21.5t22 -51.5q0 -31 -22 -52t-54 -21
q-31 0 -52.5 21.5t-21.5 52.5q0 29 22 50.5t53 21.5z" />
    <glyph glyph-name="uni1EA0" unicode="&#x1ea0;" horiz-adv-x="643" 
d="M453 155h-263l-56 -155h-140l249 667h157l249 -667h-141zM409 279l-88 246l-88 -246h176zM322 -38q32 0 55 -22.5t23 -53.5t-23 -53.5t-55 -22.5q-33 0 -55.5 22.5t-22.5 54.5q0 31 23 53t55 22z" />
    <glyph glyph-name="uni1EA1" unicode="&#x1ea1;" horiz-adv-x="543" 
d="M494 0h-128v25q-55 -41 -115 -41q-95 0 -161.5 69.5t-66.5 168.5q0 98 66.5 167.5t161.5 69.5q60 0 115 -41v25h128v-443zM260 344q-47 0 -77.5 -34t-30.5 -87q0 -55 30 -89.5t79 -34.5q48 0 77.5 34t29.5 90q0 54 -29.5 87.5t-78.5 33.5zM269 -38q32 0 55 -22.5
t23 -53.5t-23 -53.5t-55 -22.5q-33 0 -55.5 22.5t-22.5 54.5q0 31 23 53t55 22z" />
    <glyph glyph-name="uni1EA2" unicode="&#x1ea2;" horiz-adv-x="643" 
d="M386 704h-115q1 36 4 48t14 27q13 15 13 21t-10 6q-9 0 -26 -6q-14 -5 -17 -6l-38 93q62 23 97 23q52 0 84 -25t32 -65q0 -31 -19 -59l-16 -24q-3 -3 -3 -23v-3v-7zM453 155h-263l-56 -155h-140l249 667h157l249 -667h-141zM409 279l-88 246l-88 -246h176z" />
    <glyph glyph-name="uni1EA3" unicode="&#x1ea3;" horiz-adv-x="543" 
d="M494 0h-128v25q-55 -41 -115 -41q-95 0 -161.5 69.5t-66.5 168.5q0 98 66.5 167.5t161.5 69.5q60 0 115 -41v25h128v-443zM260 344q-47 0 -77.5 -34t-30.5 -87q0 -55 30 -89.5t79 -34.5q48 0 77.5 34t29.5 90q0 54 -29.5 87.5t-78.5 33.5zM326 497h-115q2 37 4.5 48
t14.5 27q13 17 13 21q0 6 -10 6q-7 0 -44 -12l-38 93q64 23 98 23q52 0 84 -25t32 -65q0 -30 -20 -59l-16 -24q-3 -4 -3 -21v-5v-7z" />
    <glyph glyph-name="uni1EA4" unicode="&#x1ea4;" horiz-adv-x="643" 
d="M467 782l39 -42l-97 -47l-87 85l-88 -85l-97 47l145 153h79l32 -34l79 106l120 -62zM453 155h-263l-56 -155h-140l249 667h157l249 -667h-141zM409 279l-88 246l-88 -246h176z" />
    <glyph glyph-name="uni1EA5" unicode="&#x1ea5;" horiz-adv-x="543" 
d="M325 648l119 158l120 -62l-163 -157l-38 20l79 -83l-97 -46l-87 85l-88 -85l-96 46l144 153h79zM494 0h-128v25q-55 -41 -115 -41q-95 0 -161.5 69.5t-66.5 168.5q0 98 66.5 167.5t161.5 69.5q60 0 115 -41v25h128v-443zM259 344q-48 0 -77.5 -34t-29.5 -90
q0 -53 30.5 -87t78.5 -34t77.5 34t29.5 90q0 55 -30 88t-79 33z" />
    <glyph glyph-name="uni1EA6" unicode="&#x1ea6;" horiz-adv-x="643" 
d="M453 155h-263l-56 -155h-140l249 667h157l249 -667h-141zM409 279l-88 246l-88 -246h176zM356 915l120 62l129 -172l-86 -48zM398 693l-88 83l-87 -83l-97 47l145 153h79l145 -153z" />
    <glyph glyph-name="uni1EA7" unicode="&#x1ea7;" horiz-adv-x="543" 
d="M286 677l145 -153l-97 -46l-87 85l-88 -85l-97 46l145 153h79zM494 0h-128v25q-55 -41 -115 -41q-95 0 -161.5 69.5t-66.5 168.5q0 98 66.5 167.5t161.5 69.5q60 0 115 -41v25h128v-443zM259 344q-48 0 -77.5 -34t-29.5 -90q0 -53 30.5 -87t78.5 -34t77.5 34t29.5 90
q0 55 -30 88t-79 33zM246 740l119 62l130 -172l-86 -47z" />
    <glyph glyph-name="uni1EA8" unicode="&#x1ea8;" horiz-adv-x="643" 
d="M480 767l26 -27l-97 -47l-87 83l-88 -83l-97 47l145 153h79l74 -78l1 3l5 10l1 3l7 14l5 9h1q5 8 5 10q0 5 -10 5q-9 0 -27 -6l-16 -6l-38 93q64 23 96 23q53 0 85 -25t32 -65q0 -30 -20 -59l-15 -24q-4 -4 -4 -23v-3l1 -7h-64zM453 155h-263l-56 -155h-140l249 667h157
l249 -667h-141zM409 279l-88 246l-88 -246h176z" />
    <glyph glyph-name="uni1EA9" unicode="&#x1ea9;" horiz-adv-x="543" 
d="M297 677l44 -46q4 13 11 28q5 10 12 19t7 12q0 6 -10 6q-9 0 -27 -6q-2 -1 -4.5 -2t-4 -1.5t-3.5 -1t-4 -1.5l-39 93q65 23 98 23q52 0 84 -25t32 -65q0 -30 -20 -59l-16 -24q-3 -5 -3 -21v-12h-78l66 -70l-97 -46l-87 85l-88 -85l-96 46l144 153h79zM494 0h-128v25
q-55 -41 -115 -41q-95 0 -161.5 69.5t-66.5 168.5q0 98 66.5 167.5t161.5 69.5q60 0 115 -41v25h128v-443zM259 344q-48 0 -77.5 -34t-29.5 -90q0 -53 30.5 -87t78.5 -34t77.5 34t29.5 90q0 55 -30 88t-79 33z" />
    <glyph glyph-name="uni1EAA" unicode="&#x1eaa;" horiz-adv-x="643" 
d="M453 155h-263l-56 -155h-140l249 667h157l249 -667h-141zM409 279l-88 246l-88 -246h176zM234 682l-97 45l145 147h79l145 -147l-97 -45l-88 80zM378 1029l107 -23q-4 -50 -20 -77q-26 -43 -85 -43q-41 0 -79 20q-15 9 -25 9q-4 0 -6 -3q-1 -1 -7 -33l-105 23
q13 120 108 120q34 0 78 -22q16 -8 24 -8q4 0 5.5 4.5t4.5 32.5z" />
    <glyph glyph-name="uni1EAB" unicode="&#x1eab;" horiz-adv-x="543" 
d="M494 0h-128v25q-55 -41 -115 -41q-95 0 -161.5 69.5t-66.5 168.5q0 98 66.5 167.5t161.5 69.5q60 0 115 -41v25h128v-443zM259 344q-48 0 -77.5 -34t-29.5 -90q0 -53 30.5 -87t78.5 -34t77.5 34t29.5 90q0 55 -30 88t-79 33zM170 483l-97 45l145 148h79l145 -148l-97 -45
l-87 81zM314 837l107 -23q-4 -50 -20 -77q-26 -43 -85 -43q-41 0 -79 20q-15 9 -25 9q-4 0 -6 -4.5t-7 -31.5l-105 23q13 120 108 120q34 0 78 -22q18 -8 24 -8q4 0 5.5 4.5t4.5 32.5z" />
    <glyph glyph-name="uni1EAC" unicode="&#x1eac;" horiz-adv-x="643" 
d="M453 155h-263l-56 -155h-140l249 667h157l249 -667h-141zM409 279l-88 246l-88 -246h176zM322 -38q32 0 55 -22.5t23 -53.5t-23 -53.5t-55 -22.5q-33 0 -55.5 22.5t-22.5 54.5q0 31 23 53t55 22zM234 693l-97 47l145 153h79l145 -153l-97 -47l-87 83z" />
    <glyph glyph-name="uni1EAD" unicode="&#x1ead;" horiz-adv-x="543" 
d="M494 0h-128v25q-55 -41 -115 -41q-95 0 -161.5 69.5t-66.5 168.5q0 98 66.5 167.5t161.5 69.5q60 0 115 -41v25h128v-443zM260 344q-47 0 -77.5 -34t-30.5 -87q0 -55 30 -89.5t79 -34.5q48 0 77.5 34t29.5 90q0 54 -29.5 87.5t-78.5 33.5zM262 -38q32 0 55 -22.5
t23 -53.5q0 -32 -23 -54t-56 -22q-32 0 -54.5 22.5t-22.5 54.5q0 31 23 53t55 22zM345 489l-87 85l-88 -85l-97 46l145 153h79l145 -153z" />
    <glyph glyph-name="uni1EAE" unicode="&#x1eae;" horiz-adv-x="643" 
d="M265 864l-31 16l130 166l119 -59l-163 -152l-45 24v-6v-5q2 -32 12.5 -45.5t32.5 -13.5q28 0 40 27q4 9 10 48l111 -8q-7 -58 -19 -82q-20 -41 -57.5 -63.5t-84.5 -22.5q-52 0 -92.5 27t-56.5 73q-6 16 -7 68zM453 155h-263l-56 -155h-140l249 667h157l249 -667h-141z
M409 279l-88 246l-88 -246h176z" />
    <glyph glyph-name="uni1EAF" unicode="&#x1eaf;" horiz-adv-x="543" 
d="M494 0h-128v25q-55 -41 -115 -41q-95 0 -161.5 69.5t-66.5 168.5q0 98 66.5 167.5t161.5 69.5q60 0 115 -41v25h128v-443zM260 344q-47 0 -77.5 -34t-30.5 -87q0 -55 30 -89.5t79 -34.5q48 0 77.5 34t29.5 90q0 54 -29.5 87.5t-78.5 33.5zM101 653l110 9q2 -22 2 -25
q2 -50 44 -50q27 0 41 27q3 6 9 47l111 -8q-7 -58 -19 -81q-20 -41 -57.5 -63.5t-84.5 -22.5q-52 0 -92.5 27t-56.5 72q-6 16 -7 68zM424 793l-163 -152l-86 45l129 166z" />
    <glyph glyph-name="uni1EB0" unicode="&#x1eb0;" horiz-adv-x="643" 
d="M370 862l-53 -27l-162 152l119 59l130 -166l-31 -16l108 -8q-7 -58 -19 -82q-20 -41 -57.5 -63.5t-84.5 -22.5q-52 0 -92.5 27t-56.5 73q-6 16 -7 68l110 8q2 -22 2 -24q2 -51 44 -51q40 0 47 57q1 8 2 10zM453 155h-263l-56 -155h-140l249 667h157l249 -667h-141z
M409 279l-88 246l-88 -246h176z" />
    <glyph glyph-name="uni1EB1" unicode="&#x1eb1;" horiz-adv-x="543" 
d="M494 0h-128v25q-55 -41 -115 -41q-95 0 -161.5 69.5t-66.5 168.5q0 98 66.5 167.5t161.5 69.5q60 0 115 -41v25h128v-443zM260 344q-47 0 -77.5 -34t-30.5 -87q0 -55 30 -89.5t79 -34.5q48 0 77.5 34t29.5 90q0 54 -29.5 87.5t-78.5 33.5zM101 653l110 9q2 -22 2 -25
q2 -50 44 -50q27 0 41 27q3 6 9 47l111 -8q-7 -58 -19 -81q-20 -41 -57.5 -63.5t-84.5 -22.5q-52 0 -92.5 27t-56.5 72q-6 16 -7 68zM90 793l119 59l130 -166l-87 -45z" />
    <glyph glyph-name="uni1EB2" unicode="&#x1eb2;" horiz-adv-x="643" 
d="M163 859l102 8q2 39 18 59q13 17 13 21q0 6 -10 6q-9 0 -26 -6q-13 -5 -17 -6l-38 90q65 22 97 22q52 0 84 -24t32 -63q0 -28 -19 -57l-16 -23q-3 -4 -3 -19l101 -8q-7 -57 -19 -81q-44 -86 -142 -86q-52 0 -92.5 27t-56.5 72q-6 16 -8 68zM275 854v-4q2 -31 12 -44
t33 -13q21 0 32 13t15 44l1 4h-93zM453 155h-263l-56 -155h-140l249 667h157l249 -667h-141zM409 279l-88 246l-88 -246h176z" />
    <glyph glyph-name="uni1EB3" unicode="&#x1eb3;" horiz-adv-x="543" 
d="M494 0h-128v25q-55 -41 -115 -41q-95 0 -161.5 69.5t-66.5 168.5q0 98 66.5 167.5t161.5 69.5q60 0 115 -41v25h128v-443zM260 344q-47 0 -77.5 -34t-30.5 -87q0 -55 30 -89.5t79 -34.5q48 0 77.5 34t29.5 90q0 54 -29.5 87.5t-78.5 33.5zM101 653l110 9q2 -22 2 -25
q2 -50 44 -50q27 0 41 27q3 6 9 47l111 -8q-7 -58 -19 -81q-20 -41 -57.5 -63.5t-84.5 -22.5q-52 0 -92.5 27t-56.5 72q-6 16 -7 68zM317 669h-115q1 34 4 45.5t14 26.5q13 17 13 21q0 6 -10 6q-9 0 -43 -12l-38 90q64 22 96 22q52 0 84.5 -24t32.5 -63q0 -29 -19 -57
l-16 -23q-3 -3 -3 -25v-7z" />
    <glyph glyph-name="uni1EB4" unicode="&#x1eb4;" horiz-adv-x="643" 
d="M453 155h-263l-56 -155h-140l249 667h157l249 -667h-141zM409 279l-88 246l-88 -246h176zM163 860l111 8l1 -24q3 -51 44 -51q27 0 41 27q3 6 9 48l111 -9q-7 -60 -18 -81q-44 -86 -142 -86q-52 0 -93 27t-57 72q-6 20 -7 69zM378 1025l107 -23q-4 -50 -20 -77
q-26 -43 -85 -43q-41 0 -79 20q-15 9 -25 9q-4 0 -6 -3q-1 -1 -7 -33l-105 23q14 120 106 120q39 0 78 -21q15 -9 26 -9q4 0 5.5 4.5t4.5 32.5z" />
    <glyph glyph-name="uni1EB5" unicode="&#x1eb5;" horiz-adv-x="543" 
d="M100 659l111 8q1 -11 1 -24q3 -51 44 -51q29 0 41 27q2 4 10 48l110 -8q-7 -61 -18 -82q-44 -86 -142 -86q-53 0 -93.5 27t-55.5 72q-7 20 -8 69zM315 831l107 -23q-4 -50 -20 -77q-25 -43 -84 -43q-42 0 -79 20q-16 9 -26 9q-5 0 -6 -3q-1 -2 -7 -33l-104 23
q12 120 106 120q38 0 77 -21q15 -9 26 -9q5 0 6 4.5t4 32.5zM494 0h-128v25q-55 -41 -115 -41q-95 0 -161.5 69.5t-66.5 168.5q0 98 66.5 167.5t161.5 69.5q60 0 115 -41v25h128v-443zM259 344q-48 0 -77.5 -34t-29.5 -90q0 -53 30.5 -87t78.5 -34t77.5 34t29.5 90
q0 55 -30 88t-79 33z" />
    <glyph glyph-name="uni1EB6" unicode="&#x1eb6;" horiz-adv-x="643" 
d="M453 155h-263l-56 -155h-140l249 667h157l249 -667h-141zM409 279l-88 246l-88 -246h176zM163 871l111 9l1 -25q3 -51 44 -51q27 0 41 27q3 6 9 49l111 -9q-7 -63 -19 -85q-44 -88 -141 -88q-52 0 -92.5 28t-56.5 74q-7 20 -8 71zM322 -38q32 0 55 -22.5t23 -53.5
t-23 -53.5t-55 -22.5q-33 0 -55.5 22.5t-22.5 54.5q0 31 23 53t55 22z" />
    <glyph glyph-name="uni1EB7" unicode="&#x1eb7;" horiz-adv-x="543" 
d="M494 0h-128v25q-55 -41 -115 -41q-95 0 -161.5 69.5t-66.5 168.5q0 98 66.5 167.5t161.5 69.5q60 0 115 -41v25h128v-443zM259 344q-48 0 -77.5 -34t-29.5 -90q0 -53 30.5 -87t78.5 -34t77.5 34t29.5 90q0 55 -30 88t-79 33zM262 -38q32 0 55 -22.5t23 -53.5
q0 -32 -23 -54t-56 -22q-32 0 -54.5 22.5t-22.5 54.5q0 31 23 53t55 22zM99 667l111 9q1 -12 1 -26q3 -52 44 -52q29 0 41 27q3 6 10 51l110 -9q-4 -44 -7 -55.5t-12 -29.5q-44 -88 -141 -88q-52 0 -92.5 28t-56.5 74q-7 20 -8 71z" />
    <glyph glyph-name="uni1EB8" unicode="&#x1eb8;" horiz-adv-x="487" 
d="M449 667v-123h-249v-145h221v-123h-221v-152h258v-124h-391v667h382zM272 -38q32 0 55 -22.5t23 -53.5t-23 -53.5t-55 -22.5q-33 0 -55.5 22.5t-22.5 54.5q0 31 23 53t55 22z" />
    <glyph glyph-name="uni1EB9" unicode="&#x1eb9;" horiz-adv-x="493" 
d="M353 154l112 -44q-77 -126 -210 -126q-100 0 -166.5 68t-66.5 169q0 100 66 169t161 69q97 0 160 -70t63 -177q0 -16 -1 -35h-318q25 -80 101 -80q63 0 99 57zM153 266h192q-26 81 -96 81q-73 0 -96 -81zM251 -38q32 0 55 -22.5t23 -53.5q0 -32 -23 -54t-56 -22
q-32 0 -54.5 22.5t-22.5 54.5q0 31 23 53t55 22z" />
    <glyph glyph-name="uni1EBA" unicode="&#x1eba;" horiz-adv-x="487" 
d="M449 667v-123h-249v-145h221v-123h-221v-152h258v-124h-391v667h382zM331 704h-115q1 35 4 47t14 28q13 17 13 21q0 6 -10 6q-7 0 -43 -12l-38 93q62 23 97 23q52 0 84 -25t32 -65q0 -31 -19 -59l-16 -24q-3 -3 -3 -23v-3v-7z" />
    <glyph glyph-name="uni1EBB" unicode="&#x1ebb;" horiz-adv-x="493" 
d="M353 154l112 -44q-77 -126 -210 -126q-100 0 -166.5 68t-66.5 169q0 100 66 169t161 69q97 0 160 -70t63 -177q0 -16 -1 -35h-318q25 -80 101 -80q63 0 99 57zM153 266h192q-26 81 -96 81q-73 0 -96 -81zM315 497h-115q2 37 4.5 48.5t14.5 26.5q13 15 13 21t-10 6
q-9 0 -27 -6l-16 -6l-39 93q64 23 98 23q52 0 84 -25t32 -65q0 -28 -20 -59l-16 -24q-3 -3 -3 -23v-3v-7z" />
    <glyph glyph-name="uni1EBC" unicode="&#x1ebc;" horiz-adv-x="487" 
d="M449 667v-123h-249v-145h221v-123h-221v-152h258v-124h-391v667h382zM300 873l107 -24q-4 -53 -20 -81q-26 -44 -85 -44q-39 0 -78 21q-17 9 -26 9q-4 0 -6 -3l-1 -4q-1 -4 -2.5 -12t-3.5 -17l-104 23q12 125 107 125q33 0 79 -24q14 -8 23 -8q4 0 5.5 5t4.5 34z" />
    <glyph glyph-name="uni1EBD" unicode="&#x1ebd;" horiz-adv-x="493" 
d="M353 154l112 -44q-77 -126 -210 -126q-100 0 -166.5 68t-66.5 169q0 100 66 169t161 69q97 0 160 -70t63 -177q0 -16 -1 -35h-318q25 -80 101 -80q63 0 99 57zM153 266h192q-26 81 -96 81q-73 0 -96 -81zM303 669l107 -24q-4 -53 -20 -81q-26 -44 -84 -44q-40 0 -79 21
q-17 9 -26 9q-5 0 -6 -3l-1 -4q-1 -4 -2.5 -12t-3.5 -17l-104 23q12 125 107 125q33 0 79 -24q16 -8 23 -8q5 0 6 5t4 34z" />
    <glyph glyph-name="uni1EBE" unicode="&#x1ebe;" horiz-adv-x="502" 
d="M450 667v-123h-249v-145h221v-123h-221v-152h258v-124h-391v667h382zM397 782l39 -42l-97 -47l-87 85l-88 -85l-97 47l145 153h79l32 -34l79 106l120 -62z" />
    <glyph glyph-name="uni1EBF" unicode="&#x1ebf;" horiz-adv-x="493" 
d="M316 648l119 158l120 -62l-162 -156l-62 44l102 -108l-96 -46l-88 85l-87 -85l-97 46l145 153h79zM353 154l112 -44q-77 -126 -210 -126q-100 0 -166.5 68t-66.5 169q0 100 66 169t161 69q97 0 160 -70t63 -177q0 -16 -1 -35h-318q25 -80 101 -80q63 0 99 57zM153 266
h192q-26 81 -96 81q-73 0 -96 -81z" />
    <glyph glyph-name="uni1EC0" unicode="&#x1ec0;" horiz-adv-x="520" 
d="M453 667v-123h-249v-145h222v-123h-222v-152h259v-124h-392v667h382zM298 915l119 62l130 -172l-87 -48zM339 693l-87 83l-88 -83l-97 47l145 153h79l145 -153z" />
    <glyph glyph-name="uni1EC1" unicode="&#x1ec1;" horiz-adv-x="493" 
d="M353 154l112 -44q-77 -126 -210 -126q-100 0 -166.5 68t-66.5 169q0 100 66 169t161 69q97 0 160 -70t63 -177q0 -16 -1 -35h-318q25 -80 101 -80q63 0 99 57zM153 266h192q-26 81 -96 81q-73 0 -96 -81zM279 677l145 -153l-97 -46l-87 85l-88 -85l-97 46l145 153h79z
M239 740l119 62l130 -172l-87 -47z" />
    <glyph glyph-name="uni1EC2" unicode="&#x1ec2;" horiz-adv-x="500" 
d="M365 815l1 3l5 10l1 3q5 13 16 28l2 4q0 6 -10 6q-9 0 -27 -6q-11 -5 -16 -6l-38 93q63 23 96 23q53 0 85 -25t32 -65q0 -30 -20 -59l-15 -24q-2 -2 -4 -23v-3l1 -7h-63l25 -27l-97 -47l-87 83l-88 -83l-97 47l145 153h79zM456 667v-123h-249v-145h221v-123h-221v-152
h258v-124h-391v667h382z" />
    <glyph glyph-name="uni1EC3" unicode="&#x1ec3;" horiz-adv-x="493" 
d="M285 677l44 -46q2 11 11 28q3 9 12 19q6 10 6 12q0 6 -10 6q-9 0 -26 -6q-14 -5 -17 -6l-38 93q64 23 97 23q52 0 84 -25t32 -65q0 -30 -19 -59l-16 -24q-3 -5 -3 -33h-78l66 -70l-97 -46l-88 85l-87 -85l-97 46l145 153h79zM353 154l112 -44q-77 -126 -210 -126
q-100 0 -166.5 68t-66.5 169q0 100 66 169t161 69q97 0 160 -70t63 -177q0 -16 -1 -35h-318q25 -80 101 -80q63 0 99 57zM153 266h192q-26 81 -96 81q-73 0 -96 -81z" />
    <glyph glyph-name="uni1EC4" unicode="&#x1ec4;" horiz-adv-x="487" 
d="M449 667v-123h-249v-145h221v-123h-221v-152h258v-124h-391v667h382zM312 1025l106 -23q-4 -52 -19 -77q-26 -43 -85 -43q-41 0 -79 20q-15 9 -26 9q-3 0 -5 -3q-2 -2 -8 -33l-104 23q12 120 106 120q40 0 77 -21q17 -9 26 -9q5 0 6.5 4.5t4.5 32.5zM167 676l-98 45
l146 148h79l145 -148l-97 -45l-88 81z" />
    <glyph glyph-name="uni1EC5" unicode="&#x1ec5;" horiz-adv-x="493" 
d="M353 154l112 -44q-77 -126 -210 -126q-100 0 -166.5 68t-66.5 169q0 100 66 169t161 69q97 0 160 -70t63 -177q0 -16 -1 -35h-318q25 -80 101 -80q63 0 99 57zM153 266h192q-26 81 -96 81q-73 0 -96 -81zM305 831l107 -23q-4 -50 -20 -77q-25 -43 -84 -43q-41 0 -79 20
q-17 9 -26 9q-5 0 -6 -3q-1 -2 -7 -33l-104 23q12 120 106 120q38 0 77 -21q15 -9 26 -9q5 0 6.5 4.5t3.5 32.5zM155 483l-97 45l145 148h79l145 -148l-97 -45l-87 81z" />
    <glyph glyph-name="uni1EC6" unicode="&#x1ec6;" horiz-adv-x="487" 
d="M276 -38q32 0 55 -22.5t23 -53.5t-23 -53.5t-55 -22.5q-33 0 -55.5 22.5t-22.5 54.5q0 31 23 53t55 22zM176 693l-98 47l146 153h79l145 -153l-98 -47l-87 83zM449 667v-123h-249v-145h221v-123h-221v-152h258v-124h-391v667h382z" />
    <glyph glyph-name="uni1EC7" unicode="&#x1ec7;" horiz-adv-x="493" 
d="M353 154l112 -44q-77 -126 -210 -126q-100 0 -166.5 68t-66.5 169q0 100 66 169t161 69q97 0 160 -70t63 -177q0 -16 -1 -35h-318q25 -80 101 -80q63 0 99 57zM153 266h192q-26 81 -96 81q-73 0 -96 -81zM253 -38q32 0 55 -22.5t23 -53.5q0 -32 -23 -54t-56 -22
q-32 0 -54.5 22.5t-22.5 54.5q0 31 23 53t55 22zM339 489l-88 85l-87 -85l-97 46l145 153h79l145 -153z" />
    <glyph glyph-name="uni1EC8" unicode="&#x1ec8;" horiz-adv-x="267" 
d="M199 667v-667h-133v667h133zM201 704h-115q2 37 4.5 48t13.5 27q13 17 13 21q0 6 -10 6q-7 0 -43 -12l-38 93q62 23 97 23q52 0 84 -25t32 -65q0 -31 -19 -59l-16 -24q-3 -3 -3 -23v-3v-7z" />
    <glyph glyph-name="uni1EC9" unicode="&#x1ec9;" horiz-adv-x="229" 
d="M179 443v-443h-128v443h128zM182 497h-115q2 37 4.5 48t13.5 27q13 17 13 21q0 6 -10 6q-7 0 -43 -12l-38 93q63 23 97 23q52 0 84 -25t32 -65q0 -31 -19 -59l-16 -24q-3 -6 -3 -33z" />
    <glyph glyph-name="uni1ECA" unicode="&#x1eca;" horiz-adv-x="266" 
d="M199 667v-667h-133v667h133zM133 -38q32 0 55 -22.5t23 -53.5q0 -32 -23 -54t-56 -22q-32 0 -54.5 22.5t-22.5 54.5q0 31 23 53t55 22z" />
    <glyph glyph-name="uni1ECB" unicode="&#x1ecb;" horiz-adv-x="229" 
d="M115 671q32 0 55 -22.5t23 -53.5q0 -32 -23 -54t-56 -22q-32 0 -54.5 22.5t-22.5 54.5q0 31 23 53t55 22zM179 443v-443h-128v443h128zM115 -38q32 0 55 -22.5t23 -53.5t-23 -53.5t-55 -22.5q-33 0 -55.5 22.5t-22.5 54.5q0 31 23 53t55 22z" />
    <glyph glyph-name="uni1ECC" unicode="&#x1ecc;" horiz-adv-x="762" 
d="M381 683q145 0 248.5 -103t103.5 -247q0 -143 -103.5 -246t-247.5 -103q-147 0 -250 103t-103 251q0 140 105 242.5t247 102.5zM380 558q-91 0 -153.5 -66.5t-62.5 -161.5q0 -90 64.5 -155.5t152.5 -65.5q89 0 153 66t64 158q0 94 -63.5 159.5t-154.5 65.5zM381 -38
q32 0 55 -22.5t23 -53.5q0 -32 -23 -54t-56 -22q-32 0 -54.5 22.5t-22.5 54.5q0 31 23 53t55 22z" />
    <glyph glyph-name="uni1ECD" unicode="&#x1ecd;" horiz-adv-x="520" 
d="M264 459q97 0 166 -69.5t69 -167.5q0 -100 -68.5 -169t-169.5 -69t-170 69t-69 171q0 100 69.5 167.5t172.5 67.5zM259 343q-47 0 -77.5 -33.5t-30.5 -86.5q0 -55 30 -89t80 -34q49 0 79 33.5t30 88.5t-30.5 88t-80.5 33zM260 -38q32 0 55 -22.5t23 -53.5t-23 -53.5
t-55 -22.5q-33 0 -55.5 22.5t-22.5 54.5q0 31 23 53t55 22z" />
    <glyph glyph-name="uni1ECE" unicode="&#x1ece;" horiz-adv-x="762" 
d="M381 683q145 0 248.5 -103t103.5 -247q0 -143 -103.5 -246t-247.5 -103q-147 0 -250 103t-103 251q0 140 105 242.5t247 102.5zM380 558q-91 0 -153.5 -66.5t-62.5 -161.5q0 -90 64.5 -155.5t152.5 -65.5q89 0 153 66t64 158q0 94 -63.5 159.5t-154.5 65.5zM449 704h-115
q2 37 4.5 48t14.5 27q13 17 13 21q0 6 -10 6q-7 0 -43 -12l-39 93q63 23 98 23q52 0 84 -25t32 -65q0 -30 -20 -59l-16 -24q-3 -6 -3 -21v-12z" />
    <glyph glyph-name="uni1ECF" unicode="&#x1ecf;" horiz-adv-x="520" 
d="M264 459q97 0 166 -69.5t69 -167.5q0 -100 -68.5 -169t-169.5 -69t-170 69t-69 171q0 100 69.5 167.5t172.5 67.5zM259 343q-47 0 -77.5 -33.5t-30.5 -86.5q0 -55 30 -89t80 -34q49 0 79 33.5t30 88.5t-30.5 88t-80.5 33zM329 497h-115q1 35 4 47t14 28q13 17 13 21
q0 6 -10 6q-9 0 -27 -6q-3 -1 -5 -2t-3.5 -1.5t-3.5 -1t-4 -1.5l-38 93q63 23 97 23q52 0 84 -25t32 -65q0 -30 -20 -59l-15 -24q-4 -5 -4 -21q0 -7 1 -12z" />
    <glyph glyph-name="uni1ED0" unicode="&#x1ed0;" horiz-adv-x="762" 
d="M381 683q145 0 248.5 -103t103.5 -247q0 -143 -103.5 -246t-247.5 -103q-147 0 -250 103t-103 251q0 140 105 242.5t247 102.5zM380 558q-91 0 -153.5 -66.5t-62.5 -161.5q0 -90 64.5 -155.5t152.5 -65.5q89 0 153 66t64 158q0 94 -63.5 159.5t-154.5 65.5zM526 782
l40 -42l-97 -47l-88 82l-87 -82l-98 47l146 153h79l32 -34l79 106l119 -62z" />
    <glyph glyph-name="uni1ED1" unicode="&#x1ed1;" horiz-adv-x="520" 
d="M328 648l119 158l119 -62l-162 -156l-61 44l102 -108l-97 -46l-88 85l-87 -85l-97 46l145 153h79zM264 459q97 0 166 -69.5t69 -167.5q0 -100 -68.5 -169t-169.5 -69t-170 69t-69 171q0 100 69.5 167.5t172.5 67.5zM259 343q-47 0 -77.5 -33.5t-30.5 -86.5q0 -55 30 -89
t80 -34q49 0 79 33.5t30 88.5t-30.5 88t-80.5 33z" />
    <glyph glyph-name="uni1ED2" unicode="&#x1ed2;" horiz-adv-x="762" 
d="M381 683q145 0 248.5 -103t103.5 -247q0 -143 -103.5 -246t-247.5 -103q-147 0 -250 103t-103 251q0 140 105 242.5t247 102.5zM380 558q-91 0 -153.5 -66.5t-62.5 -161.5q0 -90 64.5 -155.5t152.5 -65.5q89 0 153 66t64 158q0 94 -63.5 159.5t-154.5 65.5zM427 915
l119 62l130 -172l-86 -48zM469 693l-88 83l-87 -83l-98 47l146 153h79l145 -153z" />
    <glyph glyph-name="uni1ED3" unicode="&#x1ed3;" horiz-adv-x="520" 
d="M264 459q97 0 166 -69.5t69 -167.5q0 -100 -68.5 -169t-169.5 -69t-170 69t-69 171q0 100 69.5 167.5t172.5 67.5zM259 343q-47 0 -77.5 -33.5t-30.5 -86.5q0 -55 30 -89t80 -34q49 0 79 33.5t30 88.5t-30.5 88t-80.5 33zM300 677l145 -153l-97 -46l-88 85l-87 -85
l-97 46l145 153h79zM259 740l120 62l129 -172l-86 -47z" />
    <glyph glyph-name="uni1ED4" unicode="&#x1ed4;" horiz-adv-x="762" 
d="M540 767l26 -27l-97 -47l-88 83l-87 -83l-98 47l146 153h79l73 -78l2 3q2 5 5 10l1 3q4 10 16 28l2 4q0 6 -10 6q-9 0 -27 -6q-14 -5 -17 -6l-38 93q64 23 97 23q53 0 85 -25t32 -65q0 -30 -20 -59l-16 -24q-3 -4 -3 -21v-5v-7h-63zM381 683q145 0 248.5 -103t103.5 -247
q0 -143 -103.5 -246t-247.5 -103q-147 0 -250 103t-103 251q0 140 105 242.5t247 102.5zM380 558q-91 0 -153.5 -66.5t-62.5 -161.5q0 -90 64.5 -155.5t152.5 -65.5q89 0 153 66t64 158q0 94 -63.5 159.5t-154.5 65.5z" />
    <glyph glyph-name="uni1ED5" unicode="&#x1ed5;" horiz-adv-x="520" 
d="M295 677l44 -46q4 12 10 23l8 14q0 1 1 2q2 6 9 16l2 4q0 6 -10 6q-9 0 -27 -6l-16 -6l-39 93q65 23 98 23q52 0 84 -25t32 -65q0 -30 -20 -59l-16 -24q-3 -5 -3 -21v-12h-78l66 -70l-97 -46l-87 85l-88 -85l-97 46l145 153h79zM264 459q97 0 166 -69.5t69 -167.5
q0 -100 -68.5 -169t-169.5 -69t-170 69t-69 171q0 100 69.5 167.5t172.5 67.5zM259 343q-47 0 -77.5 -33.5t-30.5 -86.5q0 -55 30 -89t80 -34q49 0 79 33.5t30 88.5t-30.5 88t-80.5 33z" />
    <glyph glyph-name="uni1ED6" unicode="&#x1ed6;" horiz-adv-x="762" 
d="M381 683q145 0 248.5 -103t103.5 -247q0 -143 -103.5 -246t-247.5 -103q-147 0 -250 103t-103 251q0 140 105 242.5t247 102.5zM380 558q-91 0 -153.5 -66.5t-62.5 -161.5q0 -90 64.5 -155.5t152.5 -65.5q89 0 153 66t64 158q0 94 -63.5 159.5t-154.5 65.5zM294 682
l-98 45l146 147h79l145 -147l-98 -45l-87 80zM438 1029l106 -23q-4 -52 -19 -77q-26 -43 -85 -43q-42 0 -79 20q-15 9 -26 9q-5 0 -6.5 -4.5t-6.5 -31.5l-104 23q12 120 107 120q35 0 79 -22q16 -8 24 -8q4 0 5.5 4.5t4.5 32.5z" />
    <glyph glyph-name="uni1ED7" unicode="&#x1ed7;" horiz-adv-x="520" 
d="M264 459q97 0 166 -69.5t69 -167.5q0 -100 -68.5 -169t-169.5 -69t-170 69t-69 171q0 100 69.5 167.5t172.5 67.5zM259 343q-47 0 -77.5 -33.5t-30.5 -86.5q0 -55 30 -89t80 -34q49 0 79 33.5t30 88.5t-30.5 88t-80.5 33zM173 483l-97 45l145 148h79l145 -148l-97 -45
l-88 81zM317 837l107 -23q-5 -53 -20 -77q-26 -43 -85 -43q-41 0 -79 20q-15 9 -26 9q-4 0 -6 -4.5t-7 -31.5l-104 23q13 120 107 120q35 0 79 -22q16 -8 24 -8q5 0 6 4.5t4 32.5z" />
    <glyph glyph-name="uni1ED8" unicode="&#x1ed8;" horiz-adv-x="762" 
d="M381 683q145 0 248.5 -103t103.5 -247q0 -143 -103.5 -246t-247.5 -103q-147 0 -250 103t-103 251q0 140 105 242.5t247 102.5zM380 558q-91 0 -153.5 -66.5t-62.5 -161.5q0 -90 64.5 -155.5t152.5 -65.5q89 0 153 66t64 158q0 94 -63.5 159.5t-154.5 65.5zM381 -38
q32 0 55 -22.5t23 -53.5q0 -32 -23 -54t-56 -22q-32 0 -54.5 22.5t-22.5 54.5q0 31 23 53t55 22zM294 693l-98 47l146 153h79l145 -153l-97 -47l-88 83z" />
    <glyph glyph-name="uni1ED9" unicode="&#x1ed9;" horiz-adv-x="520" 
d="M264 459q97 0 166 -69.5t69 -167.5q0 -100 -68.5 -169t-169.5 -69t-170 69t-69 171q0 100 69.5 167.5t172.5 67.5zM259 343q-47 0 -77.5 -33.5t-30.5 -86.5q0 -55 30 -89t80 -34q49 0 79 33.5t30 88.5t-30.5 88t-80.5 33zM348 489l-88 85l-87 -85l-97 46l145 153h79
l145 -153zM260 -38q32 0 55 -22.5t23 -53.5t-23 -53.5t-55 -22.5q-33 0 -55.5 22.5t-22.5 54.5q0 31 23 53t55 22z" />
    <glyph glyph-name="uni1EDA" unicode="&#x1eda;" horiz-adv-x="776" 
d="M589 724l99 49q24 -18 36 -29q42 -40 42 -104q0 -79 -79 -135q46 -82 46 -173q0 -142 -104 -245t-248 -103q-145 0 -248.5 103t-103.5 246q0 144 104 247t249 103q134 0 233 -90q37 19 37 47q0 21 -11.5 36.5t-51.5 47.5zM380 558q-91 0 -153.5 -66.5t-62.5 -161.5
q0 -90 64.5 -155.5t152.5 -65.5q89 0 153 66t64 158q0 94 -63.5 159.5t-154.5 65.5zM553 849l-163 -157l-86 47l129 172z" />
    <glyph glyph-name="uni1EDB" unicode="&#x1edb;" horiz-adv-x="569" 
d="M389 500l98 50q28 -20 37 -29q42 -44 42 -104q0 -79 -76 -133q9 -32 9 -62q0 -100 -68.5 -169t-169.5 -69t-170 68.5t-69 169.5q0 100 69 168.5t170 68.5q105 0 175 -76q16 13 16 34q0 20 -11.5 35.5t-51.5 47.5zM259 343q-47 0 -77.5 -33.5t-30.5 -86.5q0 -55 30 -89
t80 -34q49 0 79 33.5t30 88.5t-30.5 88t-80.5 33zM416 645l-163 -158l-86 48l129 172z" />
    <glyph glyph-name="uni1EDC" unicode="&#x1edc;" horiz-adv-x="776" 
d="M589 724l99 49q24 -18 36 -29q42 -40 42 -104q0 -79 -79 -135q46 -82 46 -173q0 -142 -104 -245t-248 -103q-145 0 -248.5 103t-103.5 246q0 144 104 247t249 103q134 0 233 -90q37 19 37 47q0 21 -11.5 36.5t-51.5 47.5zM380 558q-91 0 -153.5 -66.5t-62.5 -161.5
q0 -90 64.5 -155.5t152.5 -65.5q89 0 153 66t64 158q0 94 -63.5 159.5t-154.5 65.5zM209 849l120 62l129 -172l-86 -47z" />
    <glyph glyph-name="uni1EDD" unicode="&#x1edd;" horiz-adv-x="569" 
d="M389 500l98 50q28 -20 37 -29q42 -44 42 -104q0 -79 -76 -133q9 -32 9 -62q0 -100 -68.5 -169t-169.5 -69t-170 68.5t-69 169.5q0 100 69 168.5t170 68.5q105 0 175 -76q16 13 16 34q0 20 -11.5 35.5t-51.5 47.5zM259 343q-47 0 -77.5 -33.5t-30.5 -86.5q0 -55 30 -89
t80 -34q49 0 79 33.5t30 88.5t-30.5 88t-80.5 33zM95 645l119 62l130 -172l-87 -48z" />
    <glyph glyph-name="uni1EDE" unicode="&#x1ede;" horiz-adv-x="776" 
d="M589 724l99 49q24 -18 36 -29q42 -40 42 -104q0 -79 -79 -135q46 -82 46 -173q0 -142 -104 -245t-248 -103q-145 0 -248.5 103t-103.5 246q0 144 104 247t249 103q134 0 233 -90q37 19 37 47q0 21 -11.5 36.5t-51.5 47.5zM380 558q-91 0 -153.5 -66.5t-62.5 -161.5
q0 -90 64.5 -155.5t152.5 -65.5q89 0 153 66t64 158q0 94 -63.5 159.5t-154.5 65.5zM458 704h-115q1 36 3.5 47.5t14.5 27.5q13 17 13 21q0 6 -10 6q-7 0 -43 -12l-38 93q62 23 97 23q52 0 84 -25t32 -65q0 -31 -19 -59l-16 -24q-3 -3 -3 -26v-7z" />
    <glyph glyph-name="uni1EDF" unicode="&#x1edf;" horiz-adv-x="569" 
d="M389 500l98 50q28 -20 37 -29q42 -44 42 -104q0 -79 -76 -133q9 -32 9 -62q0 -100 -68.5 -169t-169.5 -69t-170 68.5t-69 169.5q0 100 69 168.5t170 68.5q105 0 175 -76q16 13 16 34q0 20 -11.5 35.5t-51.5 47.5zM259 343q-47 0 -77.5 -33.5t-30.5 -86.5q0 -55 30 -89
t80 -34q49 0 79 33.5t30 88.5t-30.5 88t-80.5 33zM332 497h-115q2 37 4.5 48t14.5 27q13 17 13 21q0 6 -10 6q-7 0 -43 -12l-39 93q64 23 98 23q52 0 84 -25t32 -65q0 -30 -20 -59l-16 -24q-3 -4 -3 -21v-12z" />
    <glyph glyph-name="uni1EE0" unicode="&#x1ee0;" horiz-adv-x="776" 
d="M589 724l99 49q24 -18 36 -29q42 -40 42 -104q0 -79 -79 -135q46 -82 46 -173q0 -142 -104 -245t-248 -103q-145 0 -248.5 103t-103.5 246q0 144 104 247t249 103q134 0 233 -90q37 19 37 47q0 21 -11.5 36.5t-51.5 47.5zM380 558q-91 0 -153.5 -66.5t-62.5 -161.5
q0 -90 64.5 -155.5t152.5 -65.5q89 0 153 66t64 158q0 94 -63.5 159.5t-154.5 65.5zM436 873l107 -24q-4 -53 -21 -81q-11 -20 -34 -32t-50 -12q-40 0 -79 21q-15 9 -25 9q-4 0 -6 -3q0 -1 -7 -33l-105 23q13 125 108 125q33 0 78 -24q16 -8 24 -8q4 0 5.5 5t4.5 34z" />
    <glyph glyph-name="uni1EE1" unicode="&#x1ee1;" horiz-adv-x="569" 
d="M389 500l98 50q28 -20 37 -29q42 -44 42 -104q0 -79 -76 -133q9 -32 9 -62q0 -100 -68.5 -169t-169.5 -69t-170 68.5t-69 169.5q0 100 69 168.5t170 68.5q105 0 175 -76q16 13 16 34q0 20 -11.5 35.5t-51.5 47.5zM259 343q-47 0 -77.5 -33.5t-30.5 -86.5q0 -55 30 -89
t80 -34q49 0 79 33.5t30 88.5t-30.5 88t-80.5 33zM316 669l107 -24q-4 -53 -21 -81q-11 -20 -34 -32t-50 -12q-40 0 -79 21q-15 9 -25 9q-4 0 -6 -3q-1 -1 -7 -33l-105 23q13 125 108 125q33 0 78 -24q16 -8 24 -8q4 0 5.5 5t4.5 34z" />
    <glyph glyph-name="uni1EE2" unicode="&#x1ee2;" horiz-adv-x="776" 
d="M589 724l99 49q24 -18 36 -29q42 -40 42 -104q0 -79 -79 -135q46 -82 46 -173q0 -142 -104 -245t-248 -103q-145 0 -248.5 103t-103.5 246q0 144 104 247t249 103q134 0 233 -90q37 19 37 47q0 21 -11.5 36.5t-51.5 47.5zM380 558q-91 0 -153.5 -66.5t-62.5 -161.5
q0 -90 64.5 -155.5t152.5 -65.5q89 0 153 66t64 158q0 94 -63.5 159.5t-154.5 65.5zM381 -38q32 0 55 -22.5t23 -53.5q0 -32 -23 -54t-56 -22q-32 0 -54.5 22.5t-22.5 54.5q0 31 23 53t55 22z" />
    <glyph glyph-name="uni1EE3" unicode="&#x1ee3;" horiz-adv-x="569" 
d="M389 500l98 50q28 -20 37 -29q42 -44 42 -104q0 -79 -76 -133q9 -32 9 -62q0 -100 -68.5 -169t-169.5 -69t-170 68.5t-69 169.5q0 100 69 168.5t170 68.5q105 0 175 -76q16 13 16 34q0 20 -11.5 35.5t-51.5 47.5zM259 343q-47 0 -77.5 -33.5t-30.5 -86.5q0 -55 30 -89
t80 -34q49 0 79 33.5t30 88.5t-30.5 88t-80.5 33zM260 -38q32 0 55 -22.5t23 -53.5t-23 -53.5t-55 -22.5q-33 0 -55.5 22.5t-22.5 54.5q0 31 23 53t55 22z" />
    <glyph glyph-name="uni1EE4" unicode="&#x1ee4;" horiz-adv-x="642" 
d="M200 667v-409q0 -72 14 -96q13 -23 43.5 -38t63.5 -15t63.5 15t43.5 38q14 24 14 96v409h133v-427q0 -84 -30 -135q-32 -56 -93 -88.5t-131 -32.5t-131 32.5t-94 88.5q-29 51 -29 135v427h133zM321 -38q32 0 55 -22.5t23 -53.5q0 -32 -23 -54t-56 -22q-32 0 -54.5 22.5
t-22.5 54.5q0 31 23 53t55 22z" />
    <glyph glyph-name="uni1EE5" unicode="&#x1ee5;" horiz-adv-x="510" 
d="M332 0v21q-45 -37 -101 -37q-47 0 -89 23.5t-64 63.5q-28 49 -28 133v239h128v-232q0 -62 16 -86.5t56 -24.5q50 0 68 33q14 25 14 87v223h128v-443h-128zM255 -38q32 0 55 -22.5t23 -53.5t-23 -53.5t-55 -22.5q-33 0 -55.5 22.5t-22.5 54.5q0 31 23 53t55 22z" />
    <glyph glyph-name="uni1EE6" unicode="&#x1ee6;" horiz-adv-x="642" 
d="M200 667v-409q0 -72 14 -96q13 -23 43.5 -38t63.5 -15t63.5 15t43.5 38q14 24 14 96v409h133v-427q0 -84 -30 -135q-32 -56 -93 -88.5t-131 -32.5t-131 32.5t-94 88.5q-29 51 -29 135v427h133zM387 704h-115q2 35 5 47.5t14 27.5q13 15 13 21t-10 6q-7 0 -43 -12l-39 93
q62 23 98 23q52 0 84 -25t32 -65q0 -30 -20 -59l-16 -24q-3 -6 -3 -23v-3v-7z" />
    <glyph glyph-name="uni1EE7" unicode="&#x1ee7;" horiz-adv-x="510" 
d="M332 0v21q-45 -37 -101 -37q-47 0 -89 23.5t-64 63.5q-28 49 -28 133v239h128v-232q0 -62 16 -86.5t56 -24.5q50 0 68 33q14 25 14 87v223h128v-443h-128zM321 497h-115q2 37 4.5 48t14.5 27q13 17 13 21q0 6 -10 6q-7 0 -43 -12l-39 93q64 23 98 23q52 0 84 -25t32 -65
q0 -30 -20 -59l-16 -24q-3 -4 -3 -21v-12z" />
    <glyph glyph-name="uni1EE8" unicode="&#x1ee8;" horiz-adv-x="704" 
d="M575 667v-67q25 18 25 41q0 20 -11.5 35.5t-51.5 47.5l98 49q22 -16 37 -29q42 -42 42 -105q0 -106 -128 -158l-6 -3l-5 -2v-236q0 -84 -30 -135q-32 -56 -93 -88.5t-131 -32.5t-131 32.5t-94 88.5q-29 51 -29 135v427h133v-409q0 -72 14 -96q13 -23 43.5 -38t63.5 -15
t63.5 15t43.5 38q14 24 14 96v409h133zM488 849l-163 -157l-86 47l129 172z" />
    <glyph glyph-name="uni1EE9" unicode="&#x1ee9;" horiz-adv-x="605" 
d="M460 443v-69q28 17 28 43q0 20 -11.5 35.5t-51.5 47.5l98 49q28 -20 37 -29q42 -42 42 -104q0 -56 -33.5 -95t-108.5 -70v-251h-128v21q-45 -37 -101 -37q-47 0 -89 23.5t-64 63.5q-28 49 -28 133v239h128v-232q0 -62 16 -86.5t56 -24.5q50 0 68 33q14 25 14 87v223h128z
M417 645l-163 -158l-86 48l130 172z" />
    <glyph glyph-name="uni1EEA" unicode="&#x1eea;" horiz-adv-x="704" 
d="M575 667v-67q25 18 25 41q0 20 -11.5 35.5t-51.5 47.5l98 49q22 -16 37 -29q42 -42 42 -105q0 -106 -128 -158l-6 -3l-5 -2v-236q0 -84 -30 -135q-32 -56 -93 -88.5t-131 -32.5t-131 32.5t-94 88.5q-29 51 -29 135v427h133v-409q0 -72 14 -96q13 -23 43.5 -38t63.5 -15
t63.5 15t43.5 38q14 24 14 96v409h133zM150 849l119 62l130 -172l-87 -47z" />
    <glyph glyph-name="uni1EEB" unicode="&#x1eeb;" horiz-adv-x="605" 
d="M460 443v-69q28 17 28 43q0 20 -11.5 35.5t-51.5 47.5l98 49q28 -20 37 -29q42 -42 42 -104q0 -56 -33.5 -95t-108.5 -70v-251h-128v21q-45 -37 -101 -37q-47 0 -89 23.5t-64 63.5q-28 49 -28 133v239h128v-232q0 -62 16 -86.5t56 -24.5q50 0 68 33q14 25 14 87v223h128z
M84 645l120 62l129 -172l-86 -48z" />
    <glyph glyph-name="uni1EEC" unicode="&#x1eec;" horiz-adv-x="704" 
d="M575 667v-67q25 18 25 41q0 20 -11.5 35.5t-51.5 47.5l98 49q22 -16 37 -29q42 -42 42 -105q0 -106 -128 -158l-6 -3l-5 -2v-236q0 -84 -30 -135q-32 -56 -93 -88.5t-131 -32.5t-131 32.5t-94 88.5q-29 51 -29 135v427h133v-409q0 -72 14 -96q13 -23 43.5 -38t63.5 -15
t63.5 15t43.5 38q14 24 14 96v409h133zM395 704h-115q1 36 4 48t14 27q13 15 13 21t-10 6q-7 0 -43 -12l-38 93q62 23 97 23q52 0 84 -25t32 -65q0 -29 -19 -59l-16 -24q-3 -3 -3 -23v-3v-7z" />
    <glyph glyph-name="uni1EED" unicode="&#x1eed;" horiz-adv-x="605" 
d="M460 443v-69q28 17 28 43q0 20 -11.5 35.5t-51.5 47.5l98 49q28 -20 37 -29q42 -42 42 -104q0 -56 -33.5 -95t-108.5 -70v-251h-128v21q-45 -37 -101 -37q-47 0 -89 23.5t-64 63.5q-28 49 -28 133v239h128v-232q0 -62 16 -86.5t56 -24.5q50 0 68 33q14 25 14 87v223h128z
M325 497h-115q1 35 4 47.5t15 27.5q13 17 13 21q0 6 -10 6q-9 0 -27 -6q-3 -1 -5 -2t-3.5 -1.5t-3.5 -1t-4 -1.5l-39 93q64 23 98 23q52 0 84 -25t32 -65q0 -28 -20 -59l-16 -24q-3 -3 -3 -23v-3v-7z" />
    <glyph glyph-name="uni1EEE" unicode="&#x1eee;" horiz-adv-x="704" 
d="M575 667v-67q25 18 25 41q0 20 -11.5 35.5t-51.5 47.5l98 49q22 -16 37 -29q42 -42 42 -105q0 -106 -128 -158l-6 -3l-5 -2v-236q0 -84 -30 -135q-32 -56 -93 -88.5t-131 -32.5t-131 32.5t-94 88.5q-29 51 -29 135v427h133v-409q0 -72 14 -96q13 -23 43.5 -38t63.5 -15
t63.5 15t43.5 38q14 24 14 96v409h133zM377 873l107 -24q-4 -53 -20 -81q-26 -44 -84 -44q-40 0 -79 21q-15 9 -26 9q-5 0 -6 -3l-1 -4q-1 -4 -2.5 -12t-3.5 -17l-104 23q12 125 107 125q33 0 79 -24q14 -8 23 -8q5 0 6 5t4 34z" />
    <glyph glyph-name="uni1EEF" unicode="&#x1eef;" horiz-adv-x="605" 
d="M460 443v-69q28 17 28 43q0 20 -11.5 35.5t-51.5 47.5l98 49q28 -20 37 -29q42 -42 42 -104q0 -56 -33.5 -95t-108.5 -70v-251h-128v21q-45 -37 -101 -37q-47 0 -89 23.5t-64 63.5q-28 49 -28 133v239h128v-232q0 -62 16 -86.5t56 -24.5q50 0 68 33q14 25 14 87v223h128z
M309 669l106 -24q-4 -53 -20 -81q-26 -44 -84 -44q-40 0 -79 21q-15 9 -26 9q-3 0 -6 -3l-1 -4q-1 -4 -2.5 -12t-3.5 -17l-104 23q12 125 107 125q34 0 79 -24q16 -8 23 -8q5 0 6.5 5t4.5 34z" />
    <glyph glyph-name="uni1EF0" unicode="&#x1ef0;" horiz-adv-x="704" 
d="M575 667v-67q25 18 25 41q0 20 -11.5 35.5t-51.5 47.5l98 49q22 -16 37 -29q42 -42 42 -105q0 -106 -128 -158l-6 -3l-5 -2v-236q0 -84 -30 -135q-32 -56 -93 -88.5t-131 -32.5t-131 32.5t-94 88.5q-29 51 -29 135v427h133v-409q0 -72 14 -96q13 -23 43.5 -38t63.5 -15
t63.5 15t43.5 38q14 24 14 96v409h133zM321 -38q32 0 55 -22.5t23 -53.5t-23 -53.5t-55 -22.5q-33 0 -55.5 22.5t-22.5 54.5q0 31 23 53t55 22z" />
    <glyph glyph-name="uni1EF1" unicode="&#x1ef1;" horiz-adv-x="605" 
d="M460 443v-69q28 17 28 43q0 20 -11.5 35.5t-51.5 47.5l98 49q28 -20 37 -29q42 -42 42 -104q0 -56 -33.5 -95t-108.5 -70v-251h-128v21q-45 -37 -101 -37q-47 0 -89 23.5t-64 63.5q-28 49 -28 133v239h128v-232q0 -62 16 -86.5t56 -24.5q50 0 68 33q14 25 14 87v223h128z
M255 -38q32 0 55 -22.5t23 -53.5q0 -32 -23 -54t-56 -22q-32 0 -54.5 22.5t-22.5 54.5q0 31 23 53t55 22z" />
    <glyph glyph-name="Ygrave" unicode="&#x1ef2;" horiz-adv-x="552" 
d="M209 276l-222 391h149l140 -254l140 254h149l-223 -391v-276h-133v276zM113 849l120 62l129 -172l-86 -47z" />
    <glyph glyph-name="ygrave" unicode="&#x1ef3;" horiz-adv-x="474" 
d="M163 22l-175 421h137l108 -265l117 265h137l-302 -677h-135zM78 645l119 62l130 -172l-87 -48z" />
    <glyph glyph-name="uni1EF4" unicode="&#x1ef4;" horiz-adv-x="552" 
d="M209 276l-222 391h149l140 -254l140 254h149l-223 -391v-276h-133v276zM276 -38q32 0 55 -22.5t23 -53.5q0 -32 -23 -54t-56 -22q-32 0 -54.5 22.5t-22.5 54.5q0 31 23 53t55 22z" />
    <glyph glyph-name="uni1EF5" unicode="&#x1ef5;" horiz-adv-x="474" 
d="M163 22l-175 421h137l108 -265l117 265h137l-302 -677h-135zM358 -38q32 0 55 -22.5t23 -53.5q0 -32 -23 -54t-56 -22q-32 0 -54.5 22.5t-22.5 54.5q0 31 23 53t55 22z" />
    <glyph glyph-name="uni1EF6" unicode="&#x1ef6;" horiz-adv-x="552" 
d="M209 276l-222 391h149l140 -254l140 254h149l-223 -391v-276h-133v276zM344 704h-115q2 35 5 47.5t14 27.5q13 15 13 21t-10 6q-9 0 -27 -6q-2 -1 -4.5 -2t-4 -1.5t-3.5 -1t-4 -1.5l-39 93q63 23 98 23q52 0 84 -25t32 -65q0 -30 -20 -59l-16 -24q-3 -6 -3 -23v-3v-7z
" />
    <glyph glyph-name="uni1EF7" unicode="&#x1ef7;" horiz-adv-x="474" 
d="M163 22l-175 421h137l108 -265l117 265h137l-302 -677h-135zM306 497h-115q1 35 4 47t14 28q13 17 13 21q0 6 -10 6q-7 0 -43 -12l-38 93q63 23 97 23q52 0 84 -25t32 -65q0 -31 -19 -59l-16 -24q-3 -2 -3 -21v-12z" />
    <glyph glyph-name="uni1EF8" unicode="&#x1ef8;" horiz-adv-x="552" 
d="M209 276l-222 391h149l140 -254l140 254h149l-223 -391v-276h-133v276zM333 873l106 -24q-4 -55 -20 -81q-26 -44 -84 -44q-40 0 -79 21q-15 9 -26 9q-4 0 -5 -3q-2 -2 -8 -33l-104 23q12 125 107 125q34 0 79 -24q16 -8 24 -8q5 0 6 5t4 34z" />
    <glyph glyph-name="uni1EF9" unicode="&#x1ef9;" horiz-adv-x="474" 
d="M163 22l-175 421h137l108 -265l117 265h137l-302 -677h-135zM294 669l107 -24q-4 -53 -21 -81q-26 -44 -84 -44q-40 0 -79 21q-15 9 -26 9q-3 0 -5 -3l-8 -33l-104 23q12 125 107 125q34 0 79 -24q16 -8 24 -8q4 0 5.5 5t4.5 34z" />
    <glyph glyph-name="uni2002" unicode="&#x2002;" horiz-adv-x="480" 
 />
    <glyph glyph-name="uni2003" unicode="&#x2003;" horiz-adv-x="980" 
 />
    <glyph glyph-name="uni2004" unicode="&#x2004;" horiz-adv-x="313" 
 />
    <glyph glyph-name="uni2005" unicode="&#x2005;" horiz-adv-x="230" 
 />
    <glyph glyph-name="uni2006" unicode="&#x2006;" horiz-adv-x="47" 
 />
    <glyph glyph-name="uni2007" unicode="&#x2007;" horiz-adv-x="536" 
 />
    <glyph glyph-name="uni2009" unicode="&#x2009;" horiz-adv-x="105" 
 />
    <glyph glyph-name="uni200A" unicode="&#x200a;" horiz-adv-x="13" 
 />
    <glyph glyph-name="uni2011" unicode="&#x2011;" horiz-adv-x="283" 
d="M24 289h235v-117h-235v117z" />
    <glyph glyph-name="figuredash" unicode="&#x2012;" horiz-adv-x="594" 
d="M104 289h386v-117h-386v117z" />
    <glyph glyph-name="endash" unicode="&#x2013;" horiz-adv-x="594" 
d="M104 289h386v-117h-386v117z" />
    <glyph glyph-name="emdash" unicode="&#x2014;" horiz-adv-x="645" 
d="M24 289h597v-117h-597v117z" />
    <glyph glyph-name="afii00208" unicode="&#x2015;" horiz-adv-x="645" 
d="M24 289h597v-117h-597v117z" />
    <glyph glyph-name="underscoredbl" unicode="&#x2017;" horiz-adv-x="528" 
d="M-13 -36h553v-105h-553v105zM-13 -181h553v-105h-553v105z" />
    <glyph glyph-name="quoteleft" unicode="&#x2018;" horiz-adv-x="305" 
d="M161 416l-117 43l123 275l95 -38z" />
    <glyph glyph-name="quoteright" unicode="&#x2019;" horiz-adv-x="272" 
d="M122 734l117 -43l-123 -275l-95 38z" />
    <glyph glyph-name="quotesinglbase" unicode="&#x201a;" horiz-adv-x="272" 
d="M122 132l117 -43l-123 -275l-95 38z" />
    <glyph glyph-name="quotereversed" unicode="&#x201b;" horiz-adv-x="272" 
d="M150 734l101 -280l-95 -38l-123 275z" />
    <glyph glyph-name="quotedblleft" unicode="&#x201c;" horiz-adv-x="462" 
d="M318 416l-117 43l122 275l96 -38zM262 696l-101 -280l-117 43l123 275z" />
    <glyph glyph-name="quotedblright" unicode="&#x201d;" horiz-adv-x="462" 
d="M145 734l117 -43l-123 -275l-95 38zM201 454l100 280l118 -43l-123 -275z" />
    <glyph glyph-name="quotedblbase" unicode="&#x201e;" horiz-adv-x="462" 
d="M145 132l117 -43l-123 -275l-95 38zM301 132l118 -43l-123 -275l-95 38z" />
    <glyph glyph-name="dagger" unicode="&#x2020;" horiz-adv-x="558" 
d="M214 665h130v-211h138v-122h-138v-516h-130v516h-139v122h139v211z" />
    <glyph glyph-name="daggerdbl" unicode="&#x2021;" horiz-adv-x="558" 
d="M214 27h-139v122h139v183h-139v122h139v211h130v-211h138v-122h-138v-183h138v-122h-138v-211h-130v211z" />
    <glyph glyph-name="bullet" unicode="&#x2022;" horiz-adv-x="508" 
d="M256 500q67 0 115.5 -49t48.5 -117q0 -69 -48.5 -118t-117.5 -49q-70 0 -118.5 48.5t-48.5 117.5q0 70 49 118.5t120 48.5z" />
    <glyph glyph-name="ellipsis" unicode="&#x2026;" horiz-adv-x="777" 
d="M140 138q32 0 55 -22.5t23 -53.5t-23 -53.5t-55 -22.5q-33 0 -55.5 22.5t-22.5 54.5q0 31 23 53t55 22zM637 138q32 0 55 -22.5t23 -53.5t-23 -53.5t-55 -22.5q-33 0 -55.5 22.5t-22.5 54.5q0 31 23 53t55 22zM389 138q32 0 55 -22.5t23 -53.5t-23 -53.5t-55 -22.5
q-33 0 -55.5 22.5t-22.5 54.5q0 31 23 53t55 22z" />
    <glyph glyph-name="perthousand" unicode="&#x2030;" horiz-adv-x="1267" 
d="M602 683l72 -42l-380 -657l-72 41zM199 676q166 0 166 -207q0 -101 -41.5 -153.5t-121.5 -52.5q-165 0 -165 209q0 99 41.5 151.5t120.5 52.5zM201 593q-71 0 -71 -119q0 -128 71 -128t71 123q0 124 -71 124zM693 404q166 0 166 -207q0 -206 -165 -206q-163 0 -163 209
q0 99 41.5 151.5t120.5 52.5zM695 321q-71 0 -71 -119q0 -128 71 -128t71 122q0 125 -71 125zM1064 404q166 0 166 -207q0 -206 -165 -206q-164 0 -164 209q0 99 42 151.5t121 52.5zM1065 321q-71 0 -71 -119q0 -128 72 -128q71 0 71 122q0 125 -72 125z" />
    <glyph glyph-name="minute" unicode="&#x2032;" horiz-adv-x="214" 
d="M54 733l117 -42l-122 -274l-95 37z" />
    <glyph glyph-name="second" unicode="&#x2033;" horiz-adv-x="371" 
d="M54 733l117 -42l-122 -274l-95 37zM211 733l116 -42l-122 -274l-94 37z" />
    <glyph glyph-name="guilsinglleft" unicode="&#x2039;" horiz-adv-x="329" 
d="M169 222l122 -151l-88 -70l-179 220l179 225l88 -69z" />
    <glyph glyph-name="guilsinglright" unicode="&#x203a;" horiz-adv-x="329" 
d="M160 222l-122 155l88 69l179 -225l-179 -220l-88 70z" />
    <glyph glyph-name="uni203E" unicode="&#x203e;" horiz-adv-x="528" 
d="M-13 857h553v-118h-553v118z" />
    <glyph glyph-name="fraction" unicode="&#x2044;" horiz-adv-x="180" 
d="M244 683l72 -42l-380 -657l-72 41z" />
    <glyph glyph-name="zerosuperior" unicode="&#x2070;" 
d="M191 810q166 0 166 -207t-165 -207q-163 0 -163 210q0 99 41.5 151.5t120.5 52.5zM193 727q-71 0 -71 -126q0 -122 71 -122t71 123q0 125 -71 125z" />
    <glyph glyph-name="foursuperior" unicode="&#x2074;" 
d="M289 772l-136 -207h55v76h91v-76h42v-82h-42v-77h-91v77h-169v70l174 264z" />
    <glyph glyph-name="fivesuperior" unicode="&#x2075;" 
d="M183 719l-8 -38q7 1 16 1q60 0 103 -41.5t43 -99.5q0 -61 -45 -103t-111 -42q-47 0 -81 21t-66 70l75 49q21 -36 34.5 -46.5t38.5 -10.5q27 0 45 17t18 43t-17.5 43.5t-44.5 17.5q-26 0 -45 -20l-5 -5l-71 14l46 212h210v-82h-135z" />
    <glyph glyph-name="sixsuperior" unicode="&#x2076;" 
d="M213 816l72 -51l-70 -92q58 -8 93 -45t35 -89q0 -59 -44 -101t-107 -42t-107 42t-44 101q0 47 33 93zM192 593q-26 0 -43 -16t-17 -41t17 -41.5t43 -16.5t43 17t17 43q0 24 -17 39.5t-43 15.5z" />
    <glyph glyph-name="sevensuperior" unicode="&#x2077;" 
d="M70 431l164 288h-173v82h286v-61l-197 -349z" />
    <glyph glyph-name="eightsuperior" unicode="&#x2078;" 
d="M92 617q-33 32 -33 74q0 50 39 84.5t95 34.5t95 -34.5t39 -84.5q0 -43 -34 -74q46 -42 46 -91q0 -56 -41.5 -93t-104.5 -37q-62 0 -104 37.5t-42 92.5q0 49 45 91zM192 574q-24 0 -39 -13t-15 -35t15 -35.5t40 -13.5t40 13.5t15 35.5t-15.5 35t-40.5 13zM192 731
q-20 0 -33 -11.5t-13 -29.5t13 -29t34 -11t34 11t13 29t-13 29.5t-35 11.5z" />
    <glyph glyph-name="ninesuperior" unicode="&#x2079;" 
d="M174 391l-72 50l70 93q-58 7 -93 43.5t-35 89.5q0 59 44 101t107 42t107 -41.5t44 -101.5q0 -47 -33 -93zM195 728q-25 0 -42.5 -17t-17.5 -43q0 -24 16.5 -39.5t42.5 -15.5t43.5 16t17.5 40q0 25 -17 42t-43 17z" />
    <glyph glyph-name="zeroinferior" unicode="&#x2080;" 
d="M191 275q166 0 166 -207t-165 -207q-163 0 -163 210q0 99 41.5 151.5t120.5 52.5zM193 192q-71 0 -71 -126q0 -122 71 -122t71 123q0 125 -71 125z" />
    <glyph glyph-name="oneinferior" unicode="&#x2081;" 
d="M256 -130h-92v286l-42 -23l-45 73l109 59h70v-395z" />
    <glyph glyph-name="twoinferior" unicode="&#x2082;" 
d="M57 -130v68l143 151q37 38 37 67q0 35 -43 35q-25 0 -36 -11.5t-22 -48.5l-85 22q27 121 143 121q60 0 97 -33t37 -86q0 -59 -45 -105l-92 -97h145v-83h-279z" />
    <glyph glyph-name="threeinferior" unicode="&#x2083;" 
d="M147 116h39q48 0 48 38q0 17 -11.5 27.5t-31.5 10.5q-19 0 -30.5 -8t-31.5 -35l-76 40q29 47 59.5 66t77.5 19q58 0 96.5 -34t38.5 -85q0 -43 -32 -75q40 -40 40 -88q0 -57 -41.5 -94t-104.5 -37q-87 0 -125 67q-13 24 -19 57l88 22q10 -38 21.5 -50.5t35.5 -12.5
t38.5 13t14.5 35q0 44 -55 44h-39v80z" />
    <glyph glyph-name="fourinferior" unicode="&#x2084;" 
d="M289 236l-136 -206h55v75h91v-75h42v-82h-42v-78h-91v78h-169v70l174 263z" />
    <glyph glyph-name="fiveinferior" unicode="&#x2085;" 
d="M183 183l-8 -38q7 1 16 1q60 0 103 -41.5t43 -98.5q0 -61 -45 -103t-111 -42q-47 0 -81.5 21t-65.5 69l75 50q21 -36 34.5 -46.5t38.5 -10.5q27 0 45 17t18 43t-17.5 43.5t-44.5 17.5q-26 0 -45 -20l-5 -5l-71 14l46 211h210v-82h-135z" />
    <glyph glyph-name="sixinferior" unicode="&#x2086;" 
d="M213 281l72 -51l-70 -93q58 -7 93 -43.5t35 -89.5q0 -59 -44 -101t-107 -42t-107 41.5t-44 101.5q0 47 33 93zM192 58q-26 0 -43 -16t-17 -41t17 -41.5t43 -16.5t43 17.5t17 42.5q0 24 -17 39.5t-43 15.5z" />
    <glyph glyph-name="seveninferior" unicode="&#x2087;" 
d="M70 -105l164 288h-173v82h286v-61l-197 -349z" />
    <glyph glyph-name="eightinferior" unicode="&#x2088;" 
d="M92 81q-33 33 -33 75q0 50 39 84.5t95 34.5t95 -34.5t39 -84.5q0 -42 -34 -75q46 -41 46 -91q0 -55 -42 -92t-104 -37t-104 37t-42 92q0 50 45 91zM192 38q-24 0 -39 -13t-15 -35t15 -35t40 -13t40 13t15 35t-15.5 35t-40.5 13zM192 196q-20 0 -33 -11.5t-13 -30.5
q0 -17 13 -28.5t34 -11.5t34 11t13 29q0 19 -13 30.5t-35 11.5z" />
    <glyph glyph-name="nineinferior" unicode="&#x2089;" 
d="M174 -145l-72 51l70 92q-58 8 -93 45t-35 89q0 59 44 101t107 42t107 -42t44 -101q0 -47 -33 -93zM195 193q-25 0 -42.5 -17.5t-17.5 -42.5q0 -24 16.5 -39.5t42.5 -15.5t43.5 16t17.5 40q0 25 -17 42t-43 17z" />
    <glyph glyph-name="franc" unicode="&#x20a3;" horiz-adv-x="758" 
d="M467 667v-123h-227v-145h172v-124h-172v-275h-133v667h360zM573 399v-24q38 27 81 27q14 0 44 -3v-114q-24 2 -44 2q-46 0 -63.5 -25t-17.5 -92v-170h-128v399h128z" />
    <glyph glyph-name="lira" unicode="&#x20a4;" horiz-adv-x="569" 
d="M259 318h182v-99h-166q1 -5 1 -14q0 -42 -23 -83h279v-122h-470v108l6 5q8 6 11 9q43 40 51.5 52.5t10.5 44.5h-79v99h63l-6 29h-57v99h42v2v16q0 98 60 158.5t157 60.5q67 0 115 -31.5t88 -100.5l-107 -67q-28 44 -48.5 60t-51.5 16q-81 0 -81 -106v-8h205v-99h-188z
" />
    <glyph glyph-name="peseta" unicode="&#x20a7;" horiz-adv-x="606" 
d="M122 0v407h-52v94h52v166h159q201 5 240 -166h57v-94h-57q-42 -168 -240 -165h-26v-242h-133zM255 407v-46h34q43 1 64 10.5t33 35.5h-131zM255 501h131q-12 26 -32.5 35.5t-64.5 10.5h-34v-46z" />
    <glyph glyph-name="uni20AB" unicode="&#x20ab;" horiz-adv-x="553" 
d="M366 497h-112v112h112v58h128v-58h55v-112h-55v-497h-128v25q-56 -41 -116 -41q-95 0 -161.5 69.5t-66.5 168.5q0 98 66.5 167.5t161.5 69.5q59 0 116 -40v78zM258 343q-47 0 -77 -34t-30 -89q0 -53 30.5 -86.5t78.5 -33.5t77.5 34t29.5 89q0 54 -30 87t-79 33zM29 -40
h516v-118h-516v118z" />
    <glyph glyph-name="Euro" unicode="&#x20ac;" horiz-adv-x="804" 
d="M278 347v-3v-12v-11v-3h358l-42 -99h-286q67 -110 190 -110q55 0 106 28t113 91v-166q-1 -1 -3 -2q-2 -2 -3 -2l-18 -14q-35 -27 -88.5 -43.5t-105.5 -16.5q-115 0 -205.5 63t-131.5 172h-108l42 99h47v2v10v3v14h-89l42 99h66q44 113 132.5 175t205.5 62q70 0 124 -22
t123 -78l-51 -121q-61 54 -104.5 75t-95.5 21q-120 0 -189 -112h383l-43 -99h-369z" />
    <glyph glyph-name="uni20B4" unicode="&#x20b4;" horiz-adv-x="624" 
d="M206 483l-109 69q43 70 92 101t117 31q94 0 156 -56.5t62 -140.5q0 -19 -5 -42h31v-91h-90q-14 -11 -45 -28h135v-91h-306q-20 -17 -20 -35q0 -37 28 -63.5t68 -26.5q52 0 78 43q10 15 25 71l130 -34q-18 -79 -53 -124q-29 -37 -77 -58.5t-101 -21.5q-96 0 -164 62
t-68 150q0 18 4 37h-24v91h72q22 21 34 28h-106v91h300q21 18 21 41q0 32 -23.5 53t-58.5 21q-32 0 -52.5 -15.5t-50.5 -61.5z" />
    <glyph glyph-name="uni2101" unicode="&#x2101;" horiz-adv-x="939" 
d="M339 359h-150l-34 -90h-98l156 400h103l116 -298l-59 -102zM308 443l-44 119l-44 -119h88zM579 117l91 23q10 -40 22 -54t37 -14q22 0 37 13.5t15 33.5q0 13 -11.5 22t-40.5 20l-35 13q-96 34 -96 112q0 52 39.5 86.5t98.5 34.5q84 0 130 -74l3 -5l4 -6l-77 -46
q-20 29 -31.5 37.5t-31.5 8.5q-17 0 -29.5 -10.5t-12.5 -26.5q0 -19 40 -34l38 -13q106 -38 106 -118q0 -56 -43 -94.5t-105 -38.5q-43 0 -77.5 20t-52.5 55q-8 15 -18 55zM664 683l72 -42l-380 -657l-72 41z" />
    <glyph glyph-name="afii61248" unicode="&#x2105;" horiz-adv-x="1049" 
d="M674 683l72 -42l-380 -657l-72 41zM773 405q90 0 154.5 -61.5t64.5 -146.5q0 -86 -64.5 -147t-156.5 -61q-90 0 -153.5 62t-63.5 149q0 83 65 144t154 61zM772 321q-52 0 -88 -36.5t-36 -89.5q0 -50 37 -86t88 -36q52 0 88.5 36.5t36.5 87.5q0 52 -36.5 88t-89.5 36z
M448 598l-66 -60q-30 32 -52.5 43.5t-53.5 11.5q-53 0 -89 -36t-36 -88t36.5 -88t89.5 -36q50 0 94 44l13 13l66 -60l-5 -5l-9 -8q-68 -68 -159 -68t-155.5 61t-64.5 147q0 87 64.5 148t155.5 61t171 -80z" />
    <glyph glyph-name="uni2117" unicode="&#x2117;" horiz-adv-x="835" 
d="M296 558h119q64 0 98 -20q33 -19 51.5 -52.5t18.5 -73.5q0 -86 -69 -126q-35 -21 -101 -21h-14v-157h-103v450zM399 361h22q32 0 46.5 11.5t14.5 39.5q0 27 -14.5 38.5t-46.5 11.5h-22v-101zM424 714q153 0 263.5 -112.5t110.5 -267.5q0 -158 -111 -269.5t-269 -111.5
q-159 0 -270 111.5t-111 271.5q0 158 113 268t274 110zM413 628q-118 0 -204 -87t-86 -207q0 -122 86 -208.5t208 -86.5q123 0 209 86.5t86 210.5q0 122 -87.5 207t-211.5 85z" />
    <glyph glyph-name="trademark" unicode="&#x2122;" horiz-adv-x="668" 
d="M269 673v-58h-76v-254h-63v254h-76v58h215zM298 361v312h59l100 -173l100 173h58v-312h-63v189l-72 -126h-47l-72 126v-189h-63z" />
    <glyph glyph-name="uni2126" unicode="&#x2126;" horiz-adv-x="793" 
d="M433 0v163q68 21 98 43q81 59 81 154q0 83 -63 141t-152 58q-90 0 -153 -58t-63 -141q0 -105 98 -165q20 -13 81 -32v-163h-297v124h98q-53 49 -77 92q-37 69 -37 144q0 133 103 228t247 95q143 0 246 -95t103 -228q0 -87 -48 -161q-18 -30 -66 -75h98v-124h-297z" />
    <glyph glyph-name="estimated" unicode="&#x212e;" horiz-adv-x="743" 
d="M687 294h-470v-91q20 -51 42 -71q39 -36 117 -36q104 0 157 74q10 14 29 56h117q-27 -90 -57 -130q-40 -54 -103.5 -83t-141.5 -29q-149 0 -234.5 92t-85.5 253q0 162 87 258t233 96q102 0 179.5 -51t108.5 -139q19 -58 22 -199zM536 396v75q-42 100 -158 100
q-62 0 -96 -21.5t-65 -80.5v-73h319z" />
    <glyph glyph-name="onethird" unicode="&#x2153;" horiz-adv-x="833" 
d="M540 683l72 -41l-380 -658l-72 42zM582 246h39q48 0 48 38q0 17 -11.5 27.5t-31.5 10.5q-19 0 -30.5 -8t-31.5 -35l-76 40q29 47 59.5 66t77.5 19q59 0 97 -33.5t38 -85.5q0 -42 -32 -75q40 -40 40 -88q0 -57 -41.5 -94t-104.5 -37q-87 0 -125 67q-10 19 -20 57l89 22
q10 -38 21.5 -50.5t35.5 -12.5t38.5 13t14.5 35q0 44 -55 44h-39v80zM223 272h-92v286l-42 -23l-45 72l109 59h70v-394z" />
    <glyph glyph-name="twothirds" unicode="&#x2154;" horiz-adv-x="833" 
d="M575 683l72 -42l-380 -657l-72 41zM45 272v68l143 151q37 38 37 67q0 35 -43 35q-25 0 -36 -11.5t-22 -48.5l-85 22q27 121 143 121q60 0 97 -33t37 -86q0 -59 -45 -105l-92 -97h145v-83h-279zM580 246h39q48 0 48 38q0 17 -11.5 27.5t-31.5 10.5q-19 0 -30.5 -8
t-31.5 -35l-76 40q16 25 31 43q39 42 106 42q58 0 96.5 -34t38.5 -85q0 -42 -32 -75q40 -39 40 -88q0 -57 -41.5 -94t-104.5 -37q-41 0 -74 18t-51 49q-10 18 -19 57l88 22q10 -37 21.5 -50t35.5 -13t38.5 13t14.5 35q0 44 -55 44h-39v80z" />
    <glyph glyph-name="oneeighth" unicode="&#x215b;" horiz-adv-x="833" 
d="M531 683l72 -42l-380 -657l-72 41zM224 272h-92v286l-42 -23l-45 72l109 59h70v-394zM521 210q-33 33 -33 75q0 50 38.5 84.5t94.5 34.5q57 0 95.5 -34.5t38.5 -84.5q0 -42 -33 -75q45 -41 45 -90q0 -56 -41.5 -92.5t-104.5 -36.5q-62 0 -103.5 37t-41.5 92q0 49 45 90z
M620 168q-24 0 -38.5 -13t-14.5 -35t15 -35t39 -13q25 0 40 13t15 35t-15.5 35t-40.5 13zM621 325q-20 0 -33 -11.5t-13 -30.5q0 -17 13 -28t34 -11q20 0 33 11t13 29t-13 29.5t-34 11.5z" />
    <glyph glyph-name="threeeighths" unicode="&#x215c;" horiz-adv-x="833" 
d="M555 683l72 -42l-380 -657l-72 41zM510 210q-33 33 -33 75q0 50 38.5 84.5t95.5 34.5q56 0 94.5 -34.5t38.5 -84.5q0 -42 -33 -75q45 -41 45 -90q0 -56 -41.5 -92.5t-104.5 -36.5q-62 0 -104 37t-42 92q0 49 46 90zM609 168q-24 0 -39 -13t-15 -35t15 -35t40 -13t40 13
t15 35t-15.5 35t-40.5 13zM610 325q-20 0 -33 -11.5t-13 -29.5t13 -29t33 -11q21 0 34 11t13 29t-13 29.5t-34 11.5zM142 517h39q48 0 48 38q0 17 -11.5 27.5t-31.5 10.5t-31.5 -8t-30.5 -35l-76 40q30 48 60.5 67t76.5 19q58 0 96.5 -34t38.5 -85q0 -44 -32 -76
q40 -39 40 -88q0 -57 -41.5 -94t-104.5 -37q-87 0 -125 67q-13 24 -19 57l88 22q10 -38 21.5 -50.5t35.5 -12.5t38.5 13t14.5 35q0 44 -55 44h-39v80z" />
    <glyph glyph-name="fiveeighths" unicode="&#x215d;" horiz-adv-x="833" 
d="M559 683l72 -42l-380 -657l-72 41zM187 583l-8 -38q7 1 16 1q60 0 103 -41.5t43 -98.5q0 -61 -45 -103t-111 -42q-47 0 -81.5 21t-65.5 69l75 50q21 -36 34.5 -46.5t38.5 -10.5q27 0 45 17t18 43t-17.5 43t-44.5 17t-45 -19l-5 -5l-71 14l46 212h210v-83h-135zM512 210
q-34 33 -34 75q0 50 39 84.5t95 34.5t95 -34.5t39 -84.5q0 -41 -34 -75q46 -41 46 -90q0 -55 -42 -92t-104 -37t-104 37t-42 92q0 51 46 90zM611 168q-24 0 -39 -13t-15 -35t15 -35t40 -13t40 13t15 35t-15.5 35t-40.5 13zM611 325q-20 0 -33 -11.5t-13 -29.5t13 -29t34 -11
t34 11t13 29t-13 29.5t-35 11.5z" />
    <glyph glyph-name="seveneighths" unicode="&#x215e;" horiz-adv-x="833" 
d="M520 683l72 -42l-380 -657l-72 41zM508 210q-33 33 -33 75q0 50 38.5 84.5t94.5 34.5q57 0 95.5 -34.5t38.5 -84.5q0 -42 -33 -75q45 -41 45 -90q0 -55 -41.5 -92t-103.5 -37q-63 0 -104.5 36.5t-41.5 92.5q0 49 45 90zM609 168q-25 0 -40 -13t-15 -35t15 -35t40 -13
q24 0 39 13t15 35t-15 35t-39 13zM608 325q-20 0 -33 -11.5t-13 -30.5q0 -17 13 -28t34 -11q20 0 33 11t13 29t-13 29.5t-34 11.5zM75 295l164 288h-173v83h286v-62l-197 -349z" />
    <glyph glyph-name="partialdiff" unicode="&#x2202;" horiz-adv-x="584" 
d="M105 552l17 115q159 -19 245 -81q163 -115 163 -339q0 -135 -79 -205q-69 -58 -159 -58q-100 0 -169 68.5t-69 168.5q0 97 67 167t159 70q14 0 36 -5l-8 8q-40 40 -86 60t-117 31zM291 343q-47 0 -77.5 -33.5t-30.5 -86.5q0 -55 30 -89t79 -34t79 33.5t30 88.5t-30 88
t-80 33z" />
    <glyph glyph-name="emptyset" unicode="&#x2205;" horiz-adv-x="645" 
d="M251 73l-54 -105l-95 48l54 107q-56 51 -79 98.5t-23 109.5q0 114 78.5 192.5t192.5 78.5q28 0 69 -9l53 104l96 -49l-54 -105q50 -46 69 -82q33 -59 33 -127q0 -113 -80 -191t-196 -78q-27 0 -64 8zM439 444l-136 -268q11 -2 25 -2q62 0 108.5 47.5t46.5 111.5
q0 60 -44 111zM207 224l136 267q-22 2 -25 2q-62 0 -109 -48t-47 -112q0 -57 45 -109z" />
    <glyph glyph-name="Delta" unicode="&#x2206;" horiz-adv-x="689" 
d="M672 0h-655l257 667h141zM203 124h282l-141 380z" />
    <glyph glyph-name="product" unicode="&#x220f;" horiz-adv-x="661" 
d="M230 0h-133v544h-77v123h620v-123h-77v-544h-133v544h-200v-544z" />
    <glyph glyph-name="summation" unicode="&#x2211;" horiz-adv-x="671" 
d="M270 345l-155 221v101h453v-123h-285l142 -199l-155 -221h317v-124h-491v101z" />
    <glyph glyph-name="minus" unicode="&#x2212;" horiz-adv-x="556" 
d="M504 370v-116h-453v116h453z" />
    <glyph glyph-name="uni2215" unicode="&#x2215;" horiz-adv-x="180" 
d="M244 683l72 -42l-380 -657l-72 41z" />
    <glyph glyph-name="uni2218" unicode="&#x2218;" horiz-adv-x="508" 
d="M256 500q67 0 115.5 -49.5t48.5 -117.5q0 -69 -48.5 -118t-117.5 -49t-118 49t-49 118q0 70 49 118.5t120 48.5zM252 426q-37 0 -64 -27.5t-27 -65.5q0 -39 27 -66t66 -27q38 0 65 27t27 67q0 38 -27.5 65t-66.5 27z" />
    <glyph glyph-name="radical" unicode="&#x221a;" horiz-adv-x="629" 
d="M100 307h-80v122h178l78 -232l212 631h320v-124h-221l-240 -704h-142z" />
    <glyph glyph-name="infinity" unicode="&#x221e;" horiz-adv-x="724" 
d="M363 243q-43 -48 -80 -67t-85 -19q-78 0 -128 51t-50 130q0 77 51 128t128 51q47 0 83.5 -19.5t77.5 -65.5q73 86 166 86q77 0 127 -51.5t50 -130.5q0 -78 -50 -129t-127 -51q-90 0 -163 87zM431 337q25 -36 44.5 -50t43.5 -14q27 0 45 18t18 46t-18.5 46t-46.5 18
q-42 0 -86 -64zM292 337q-24 35 -43.5 49t-44.5 14q-27 0 -45 -18t-18 -45t18.5 -45t46.5 -18q44 0 86 63z" />
    <glyph glyph-name="integral" unicode="&#x222b;" horiz-adv-x="314" 
d="M20 -178v115q27 -9 43 -9q29 0 29 42v614q0 74 34 114.5t96 40.5q34 0 71 -9v-115q-29 9 -43 9q-30 0 -30 -42v-614q0 -74 -34 -114.5t-96 -40.5q-28 0 -70 9z" />
    <glyph glyph-name="similar" unicode="&#x223c;" horiz-adv-x="599" 
d="M113 205l-88 57q36 79 70 113q38 40 100 40q49 0 124 -37q61 -29 86 -29q22 0 35 12.5t45 64.5l90 -52q-37 -74 -61 -98q-50 -52 -114 -52q-48 0 -156 51q-35 15 -55 15q-19 0 -33.5 -16.5t-42.5 -68.5z" />
    <glyph glyph-name="uni2243" unicode="&#x2243;" horiz-adv-x="599" 
d="M113 294l-88 57q38 84 76.5 118t94.5 34q48 0 123 -37q61 -29 86 -29q22 0 35 12.5t45 65.5l90 -53q-35 -72 -60 -98q-54 -52 -114 -52q-30 0 -60.5 10t-96.5 41q-35 15 -55 15q-19 0 -33.5 -16t-42.5 -68zM567 272v-115h-535v115h535z" />
    <glyph glyph-name="approxequal" unicode="&#x2248;" horiz-adv-x="599" 
d="M113 310l-88 57q38 85 76.5 119t94.5 34q48 0 123 -37q61 -29 86 -29q22 0 35 12.5t45 65.5l90 -53q-37 -73 -60 -98q-52 -52 -114 -52q-30 0 -60.5 10t-96.5 41q-35 15 -55 15q-19 0 -33.5 -16.5t-42.5 -68.5zM113 109l-88 57q36 80 70 112q40 40 101 40q48 0 123 -37
q61 -29 86 -29q23 0 36 13t44 65l90 -53q-37 -74 -61 -98q-50 -52 -114 -52q-47 0 -156 51q-35 15 -55 15q-19 0 -34 -16.5t-42 -67.5z" />
    <glyph glyph-name="notequal" unicode="&#x2260;" horiz-adv-x="584" 
d="M366 339l-26 -53h219v-116h-277l-61 -123l-101 42l40 81h-135v116h193l26 53h-219v116h277l61 123l101 -42l-40 -81h135v-116h-193z" />
    <glyph glyph-name="lessequal" unicode="&#x2264;" horiz-adv-x="584" 
d="M535 116l-487 218v100l487 221v-131l-314 -139l314 -139v-246h-487v116h487z" />
    <glyph glyph-name="greaterequal" unicode="&#x2265;" horiz-adv-x="584" 
d="M48 116h487v-116h-487v246l314 139l-314 139v131l487 -221v-100z" />
    <glyph glyph-name="dotmath" unicode="&#x22c5;" horiz-adv-x="258" 
d="M129 409q32 0 55 -22.5t23 -53.5t-23 -53.5t-55 -22.5q-33 0 -55.5 22.5t-22.5 54.5q0 31 23 53t55 22z" />
    <glyph glyph-name="lozenge" unicode="&#x25ca;" horiz-adv-x="669" 
d="M334 -40l-279 373l279 373l280 -373zM462 333l-128 170l-127 -170l127 -169z" />
    <glyph glyph-name="openbullet" unicode="&#x25e6;" horiz-adv-x="508" 
d="M256 500q67 0 115.5 -49.5t48.5 -117.5q0 -69 -48.5 -118t-117.5 -49t-118 49t-49 118q0 70 49 118.5t120 48.5zM252 426q-37 0 -64 -27.5t-27 -65.5q0 -39 27 -66t66 -27q38 0 65 27t27 67q0 38 -27.5 65t-66.5 27z" />
    <glyph glyph-name="commaaccent" unicode="&#xf6c3;" horiz-adv-x="476" 
d="M191 -19l121 -36l-86 -192l-96 29z" />
    <glyph glyph-name="Acute" unicode="&#xf6c9;" horiz-adv-x="476" 
d="M404 849l-163 -157l-86 47l130 172z" />
    <glyph glyph-name="Caron" unicode="&#xf6ca;" horiz-adv-x="476" 
d="M150 899l88 -83l87 83l97 -47l-145 -153h-79l-145 153z" />
    <glyph glyph-name="Dieresis" unicode="&#xf6cb;" horiz-adv-x="476" 
d="M331 868q32 0 53.5 -21t21.5 -52q0 -30 -22 -51.5t-53 -21.5t-53 21.5t-22 52.5q0 29 22 50.5t53 21.5zM145 868q32 0 53.5 -21t21.5 -52t-22 -52t-54 -21q-31 0 -52.5 21.5t-21.5 52.5q0 29 22 50.5t53 21.5z" />
    <glyph glyph-name="Grave" unicode="&#xf6ce;" horiz-adv-x="476" 
d="M72 849l119 62l130 -172l-86 -47z" />
    <glyph glyph-name="Hungarumlaut" unicode="&#xf6cf;" horiz-adv-x="476" 
d="M324 852l42 58l105 -60l-163 -157l-69 41l84 117l-164 -158l-72 46l129 171z" />
    <glyph glyph-name="Macron" unicode="&#xf6d0;" horiz-adv-x="476" 
d="M76 850h324v-110h-324v110z" />
    <glyph glyph-name="one.fitted" horiz-adv-x="560" 
d="M241 506l-77 -43l-64 108l170 96h104v-545h107v-122h-359v122h119v384z" />
    <glyph glyph-name="two.fitted" horiz-adv-x="560" 
d="M70 0v103l236 260q63 71 63 126q0 33 -21.5 52t-59.5 19q-44 0 -65 -21t-38 -82l-123 33q15 72 50 115q28 37 74.5 57.5t101.5 20.5q95 0 154 -54.5t59 -143.5q0 -95 -72 -175l-169 -187h255v-123h-445z" />
    <glyph glyph-name="three.fitted" horiz-adv-x="560" 
d="M212 289v118h56q89 0 89 76q0 35 -23 56t-61 21q-32 0 -53 -14.5t-51 -57.5l-110 60q43 72 92.5 103.5t120.5 31.5q94 0 155 -55.5t61 -141.5q0 -75 -57 -131q72 -62 72 -154q0 -94 -66 -155.5t-167 -61.5q-114 0 -177 77q-32 40 -53 121l128 34q17 -62 38.5 -85.5
t64.5 -23.5q44 0 71.5 26t27.5 69q0 87 -102 87h-56z" />
    <glyph glyph-name="four.fitted" horiz-adv-x="560" 
d="M319 689l109 -67l-232 -365h121v130h132v-130h69v-122h-69v-135h-132v135h-282v109z" />
    <glyph glyph-name="five.fitted" horiz-adv-x="560" 
d="M254 544l-18 -88q18 3 31 3q101 0 171 -68t70 -166q0 -102 -72 -171.5t-178 -69.5q-74 0 -128 33.5t-102 110.5l107 73q21 -34 26 -42q37 -52 99 -52q50 0 82.5 32.5t32.5 82.5t-32 83t-81 33q-47 0 -87 -43l-102 22l72 350h332v-123h-223z" />
    <glyph glyph-name="six.fitted" horiz-adv-x="560" 
d="M316 689l104 -76l-121 -167q82 -8 134 -48q87 -65 87 -175q0 -100 -70 -169.5t-171 -69.5t-171.5 69.5t-70.5 168.5q0 82 53 156zM279 326q-47 0 -78.5 -31t-31.5 -77q0 -47 31.5 -79t78.5 -32t78 32.5t31 81.5q0 45 -31 75t-78 30z" />
    <glyph glyph-name="seven.fitted" horiz-adv-x="560" 
d="M88 38l276 506h-295v123h456v-94l-322 -595z" />
    <glyph glyph-name="eight.fitted" horiz-adv-x="560" 
d="M128 355q-61 60 -61 131q0 83 61.5 140t151.5 57t151.5 -57t61.5 -140q0 -39 -14 -69t-47 -62q43 -36 62 -72.5t19 -84.5q0 -92 -66.5 -153t-166.5 -61t-166.5 61t-66.5 153q0 48 19 84.5t62 72.5zM278 292q-44 0 -71.5 -26t-27.5 -68t28 -68t73 -26t73 26t28 69
q0 42 -28 67.5t-75 25.5zM280 567q-38 0 -62.5 -23.5t-24.5 -60.5q0 -35 25 -57.5t63 -22.5t62.5 22.5t24.5 58.5q0 37 -25 60t-63 23z" />
    <glyph glyph-name="nine.fitted" horiz-adv-x="560" 
d="M245 -22l-104 76l120 167q-82 8 -134 48q-87 65 -87 175q0 100 70 169.5t171 69.5t171.5 -69.5t70.5 -168.5q0 -81 -53 -156zM281 560q-47 0 -78 -32.5t-31 -81.5q0 -45 31 -75t78 -30t78.5 31t31.5 77q0 47 -31.5 79t-78.5 32z" />
    <glyph glyph-name="zero.fitted" horiz-adv-x="560" 
d="M280 683q263 0 263 -350q0 -349 -263 -349q-264 0 -264 354q0 170 67 257.5t197 87.5zM279 560q-50 0 -82 -34q-20 -23 -33 -75t-13 -110q0 -119 31.5 -176.5t97.5 -57.5q128 0 128 229q0 149 -54 197q-28 27 -75 27z" />
    <glyph glyph-name="sterling.fitted" horiz-adv-x="560" 
d="M438 395v-118h-173q7 -48 7 -74q0 -42 -23 -81h279v-122h-470v108l11 9q41 33 54.5 53t13.5 47q0 23 -7 60h-72v118h47q-5 34 -5 62q0 114 67 172q64 54 151 54q67 0 114.5 -31t87.5 -101l-106 -67q-28 44 -49 60t-51 16q-82 0 -82 -102q0 -24 8 -63h198z" />
    <glyph glyph-name="dollar.fitted" horiz-adv-x="560" 
d="M40 190l130 34q15 -58 27 -76q27 -39 76 -39q40 0 67.5 26.5t27.5 65.5q0 26 -20 43.5t-70 36.5l-58 23q-151 56 -151 182q0 67 41 117.5t110 70.5v93h131v-93q46 -13 79 -41t66 -82l-109 -69q-30 46 -50.5 61.5t-52.5 15.5q-35 0 -58.5 -21t-23.5 -53q0 -41 72 -69
l61 -23q167 -63 167 -191q0 -70 -41.5 -126.5t-109.5 -78.5v-100h-131v93q-146 32 -180 200z" />
    <glyph glyph-name="cent.fitted" horiz-adv-x="560" 
d="M359 0h-131v106q-76 22 -122.5 84.5t-46.5 142.5q0 81 46.5 143t122.5 84v107h131v-104q69 -18 128 -80l-82 -85q-33 33 -54.5 45t-51.5 12q-50 0 -80.5 -33.5t-30.5 -89.5q0 -55 30.5 -88t80.5 -33q32 0 56 13.5t52 47.5l82 -85q-58 -65 -130 -84v-103z" />
    <glyph glyph-name="florin.fitted" horiz-adv-x="560" 
d="M32 -186l25 118q6 -1 26 -8q18 -4 24 -4q23 0 32 46l76 362h-43l24 115h43l16 80q15 73 56 114t99 41q32 0 82 -15l-24 -118q-41 11 -50 11q-23 0 -33 -45l-14 -68h77l-24 -115h-77l-78 -375q-15 -73 -56 -113.5t-99 -40.5q-32 0 -82 15z" />
    <glyph glyph-name="Euro.fitted" horiz-adv-x="560" 
d="M166 347v-3v-12v-11v-3h358l-42 -99h-286q67 -110 190 -110q55 0 106 28t113 91v-166q-1 -1 -3 -2q-2 -2 -3 -2l-18 -14q-35 -27 -88.5 -43.5t-105.5 -16.5q-116 0 -205 62t-132 173h-108l42 99h47v2v10v3v4v10h-89l42 99h66q41 111 131 174t207 63q70 0 124 -22t123 -78
l-51 -122q-100 97 -200 97q-120 0 -189 -112h383l-42 -99h-370z" />
    <glyph glyph-name="yen.fitted" horiz-adv-x="560" 
d="M188 318l-15 29h-110v99h53l-125 221h149l139 -253h1l140 253h149l-126 -221h55v-99h-112l-16 -29h128v-99h-152v-219h-133v219h-150v99h125z" />
    <glyph glyph-name="one.numerator" 
d="M256 272h-92v286l-42 -23l-45 72l109 59h70v-394z" />
    <glyph glyph-name="two.numerator" 
d="M57 272v68l143 151q37 38 37 67q0 35 -43 35q-25 0 -36 -11.5t-22 -48.5l-85 22q27 121 143 121q60 0 97 -33t37 -86q0 -59 -45 -105l-92 -97h145v-83h-279z" />
    <glyph glyph-name="three.numerator" 
d="M147 517h39q48 0 48 38q0 17 -11.5 27.5t-31.5 10.5t-31.5 -8t-30.5 -35l-76 40q30 48 60.5 67t76.5 19q58 0 96.5 -34t38.5 -85q0 -44 -32 -76q40 -39 40 -88q0 -57 -41.5 -94t-104.5 -37q-87 0 -125 67q-13 24 -19 57l88 22q10 -38 21.5 -50.5t35.5 -12.5t38.5 13
t14.5 35q0 44 -55 44h-39v80z" />
    <glyph glyph-name="four.numerator" 
d="M289 637l-136 -206h55v75h91v-75h42v-82h-42v-77h-91v77h-169v70l174 263z" />
    <glyph glyph-name="five.numerator" 
d="M183 583l-8 -38q7 1 16 1q60 0 103 -41.5t43 -98.5q0 -61 -45 -103t-111 -42q-47 0 -81.5 21t-65.5 69l75 50q21 -36 34.5 -46.5t38.5 -10.5q27 0 45 17t18 43t-17.5 43t-44.5 17t-45 -19l-5 -5l-71 14l46 212h210v-83h-135z" />
    <glyph glyph-name="six.numerator" 
d="M213 682l72 -51l-70 -92q57 -8 92.5 -44.5t35.5 -88.5q0 -59 -44 -101t-107 -42t-107 41.5t-44 101.5q0 48 33 92zM193 459q-26 0 -43.5 -16t-17.5 -40q0 -25 17 -41.5t43 -16.5t43 17.5t17 42.5q0 23 -17 38.5t-42 15.5z" />
    <glyph glyph-name="seven.numerator" 
d="M70 295l164 288h-173v83h286v-62l-197 -349z" />
    <glyph glyph-name="eight.numerator" 
d="M92 482q-33 33 -33 75q0 50 39 84.5t95 34.5t95 -34.5t39 -84.5q0 -42 -34 -75q46 -41 46 -90q0 -55 -42 -92t-104 -37t-104 37t-42 92q0 49 45 90zM192 440q-24 0 -39 -13t-15 -35t15 -35t40 -13t40 13t15 35t-15.5 35t-40.5 13zM193 597q-21 0 -34 -11.5t-13 -30.5
q0 -17 13 -28t34 -11t34 11t13 29t-13 29.5t-34 11.5z" />
    <glyph glyph-name="nine.numerator" 
d="M174 257l-72 50l70 93q-57 7 -92.5 44t-35.5 89q0 59 44 101t107 42t107 -41.5t44 -101.5q0 -47 -33 -93zM195 594q-25 0 -42.5 -17t-17.5 -43q0 -24 17 -39.5t43 -15.5t43 16t17 40q0 25 -17 42t-43 17z" />
    <glyph glyph-name="zero.numerator" 
d="M191 676q166 0 166 -207q0 -206 -164 -206t-164 209q0 99 41.5 151.5t120.5 52.5zM193 593q-71 0 -71 -126q0 -121 71 -121t71 122q0 125 -71 125z" />
    <glyph glyph-name="one.denominator" 
d="M256 0h-92v286l-42 -23l-45 73l109 59h70v-395z" />
    <glyph glyph-name="two.denominator" 
d="M57 0v68l143 151q37 38 37 67q0 35 -43 35q-25 0 -36 -11.5t-22 -48.5l-85 22q27 121 143 121q60 0 97 -33t37 -86q0 -59 -45 -105l-92 -97h145v-83h-279z" />
    <glyph glyph-name="three.denominator" 
d="M147 246h39q48 0 48 38q0 17 -11.5 27.5t-31.5 10.5q-19 0 -30.5 -8t-31.5 -35l-76 40q29 47 59.5 66t77.5 19q58 0 96.5 -34t38.5 -85q0 -43 -32 -75q40 -40 40 -88q0 -57 -41.5 -94t-104.5 -37q-87 0 -125 67q-13 24 -19 57l88 22q10 -38 21.5 -50.5t35.5 -12.5
t38.5 13t14.5 35q0 44 -55 44h-39v80z" />
    <glyph glyph-name="four.denominator" 
d="M289 365l-136 -205h55v75h91v-75h42v-82h-42v-78h-91v78h-169v70l174 262z" />
    <glyph glyph-name="five.denominator" 
d="M183 313l-8 -38q7 1 16 1q60 0 103 -41.5t43 -98.5q0 -61 -45 -103t-111 -42q-46 0 -80.5 21t-66.5 69l75 49q21 -35 34.5 -45.5t38.5 -10.5q27 0 45 17t18 43t-17.5 43t-44.5 17q-26 0 -45 -19l-2 -2l-3 -4l-71 15l46 211h210v-82h-135z" />
    <glyph glyph-name="six.denominator" 
d="M213 410l72 -51l-70 -92q58 -8 93 -44.5t35 -88.5q0 -59 -44 -101t-107 -42t-107 41.5t-44 101.5q0 48 33 92zM192 187q-26 0 -43 -16t-17 -40q0 -25 17 -41.5t43 -16.5q25 0 42.5 17t17.5 42q0 24 -17 39.5t-43 15.5z" />
    <glyph glyph-name="seven.denominator" 
d="M70 25l164 288h-173v82h286v-61l-197 -349z" />
    <glyph glyph-name="eight.denominator" 
d="M92 210q-33 33 -33 75q0 50 39 84.5t95 34.5t95 -34.5t39 -84.5q0 -42 -34 -75q46 -41 46 -90q0 -55 -42 -92t-104 -37t-104 37t-42 92q0 49 45 90zM192 168q-24 0 -39 -13t-15 -35t15 -35t40 -13t40 13t15 35t-15.5 35t-40.5 13zM192 325q-20 0 -33 -11.5t-13 -30.5
q0 -17 13 -28t34 -11t34 11t13 29t-13 29.5t-35 11.5z" />
    <glyph glyph-name="nine.denominator" 
d="M174 -15l-72 50l70 93q-58 7 -93 43.5t-35 89.5q0 59 44 101t107 42t107 -41.5t44 -101.5q0 -47 -33 -93zM195 322q-25 0 -42.5 -17t-17.5 -43q0 -24 17 -39.5t43 -15.5t43 16t17 41t-17 41.5t-43 16.5z" />
    <glyph glyph-name="zero.denominator" 
d="M191 404q166 0 166 -207q0 -206 -164 -206t-164 209q0 99 41.5 151.5t120.5 52.5zM193 321q-71 0 -71 -119q0 -128 71 -128t71 122q0 125 -71 125z" />
    <glyph glyph-name="onefifth" horiz-adv-x="833" 
d="M531 683l72 -42l-380 -657l-72 41zM604 313l-8 -38q7 1 16 1q60 0 103 -41.5t43 -98.5q0 -61 -45 -103t-111 -42q-47 0 -81.5 21t-65.5 69l75 49q21 -35 34.5 -45.5t38.5 -10.5q27 0 45 17t18 43q0 25 -18 42.5t-44 17.5q-27 0 -45 -19q0 -1 -5 -6l-71 15l46 211h210v-82
h-135zM224 272h-92v286l-42 -23l-45 72l109 59h70v-394z" />
    <glyph glyph-name="twofifth" horiz-adv-x="833" 
d="M580 683l72 -42l-380 -657l-72 41zM46 272v68l143 151q37 38 37 67q0 35 -43 35q-25 0 -36 -11.5t-22 -48.5l-85 22q27 121 143 121q60 0 97 -33t37 -86q0 -59 -45 -105l-92 -97h145v-83h-279zM602 313l-8 -38q7 1 16 1q60 0 103 -41.5t43 -98.5q0 -61 -45 -103t-111 -42
q-47 0 -81 20.5t-66 69.5l75 49q21 -35 34.5 -45.5t38.5 -10.5q27 0 45 17t18 43t-17.5 43t-44.5 17q-26 0 -45 -19q-1 -2 -5 -6l-71 15l46 211h210v-82h-135z" />
    <glyph glyph-name="threefifth" horiz-adv-x="833" 
d="M560 683l72 -42l-380 -657l-72 41zM603 313l-8 -38q7 1 16 1q60 0 103 -41.5t43 -98.5q0 -61 -45 -103t-111 -42q-46 0 -80.5 21t-66.5 69l75 49q20 -34 34.5 -45t38.5 -11q27 0 45 17t18 43t-17.5 43t-44.5 17q-26 0 -45 -19q0 -1 -5 -6l-71 15l46 211h210v-82h-135z
M143 517h39q48 0 48 38q0 17 -11.5 27.5t-31.5 10.5t-31.5 -8t-30.5 -35l-76 40q30 48 60.5 67t76.5 19q58 0 96.5 -34t38.5 -85q0 -44 -32 -76q40 -39 40 -88q0 -57 -41.5 -94t-104.5 -37q-87 0 -125 67q-13 24 -19 57l88 22q10 -38 21.5 -50.5t35.5 -12.5t38.5 13t14.5 35
q0 44 -55 44h-39v80z" />
    <glyph glyph-name="fourfifth" horiz-adv-x="833" 
d="M294 637l-136 -206h55v75h91v-75h42v-82h-42v-77h-91v77h-169v70l174 263zM573 683l72 -42l-380 -657l-72 41zM601 313l-8 -38q7 1 16 1q60 0 103 -41.5t43 -98.5q0 -61 -45 -103t-111 -42q-46 0 -80.5 21t-66.5 69l75 49q20 -34 34.5 -45t38.5 -11q27 0 45 17t18 43
t-17.5 43t-44.5 17q-26 0 -45 -19q0 -1 -5 -6l-71 15l46 211h210v-82h-135z" />
    <glyph glyph-name="onesixth" horiz-adv-x="833" 
d="M545 683l72 -42l-380 -657l-72 41zM626 410l73 -51l-70 -92q57 -8 92 -44.5t35 -88.5q0 -60 -44 -101.5t-106 -41.5q-63 0 -107 41.5t-44 101.5q0 48 33 92zM606 187q-26 0 -43 -16t-17 -40q0 -25 17 -41.5t43 -16.5q25 0 42 17.5t17 42.5q0 23 -17 38.5t-42 15.5z
M225 272h-92v286l-42 -23l-45 72l109 59h70v-394z" />
    <glyph glyph-name="fivesixth" horiz-adv-x="833" 
d="M584 683l72 -42l-380 -657l-72 41zM626 410l72 -51l-70 -92q58 -8 93 -44.5t35 -88.5q0 -59 -44 -101t-107 -42t-107 41.5t-44 101.5q0 50 33 92zM605 187q-26 0 -43 -16t-17 -40q0 -25 17 -41.5t43 -16.5q25 0 42.5 17t17.5 42q0 24 -17 39.5t-43 15.5zM188 583l-8 -38
q7 1 16 1q60 0 103 -41.5t43 -98.5q0 -61 -45 -103t-111 -42q-47 0 -81.5 21t-65.5 69l75 50q21 -36 34.5 -46.5t38.5 -10.5q27 0 45 17t18 43t-17.5 43t-44.5 17t-45 -19l-5 -5l-71 14l46 212h210v-83h-135z" />
    <glyph glyph-name="Dotaccent" horiz-adv-x="476" 
d="M238 871q32 0 55 -22.5t23 -53.5q0 -32 -23 -54t-56 -22q-32 0 -54.5 22.5t-22.5 54.5q0 31 23 53t55 22z" />
    <glyph glyph-name="Ring" horiz-adv-x="476" 
d="M238 909q48 0 81.5 -33t33.5 -80t-33.5 -80t-81.5 -33t-81.5 33.5t-33.5 81.5q0 45 34 78t81 33zM238 848q-22 0 -37 -15.5t-15 -37.5q0 -20 15.5 -35.5t36.5 -15.5q22 0 37 15t15 37t-15 37t-37 15z" />
    <glyph glyph-name="Circumflex" horiz-adv-x="476" 
d="M150 693l-97 47l145 153h79l145 -153l-97 -47l-87 83z" />
    <glyph glyph-name="Breve" horiz-adv-x="476" 
d="M79 871l111 9q1 -11 1 -25q3 -51 44 -51q27 0 41 27q2 5 10 49l110 -9q-7 -63 -19 -85q-44 -88 -141 -88q-52 0 -92.5 28t-56.5 74q-7 20 -8 71z" />
    <glyph glyph-name="Tilde" horiz-adv-x="476" 
d="M295 873l106 -24q-4 -55 -20 -81q-26 -44 -84 -44q-40 0 -79 21q-15 9 -26 9q-4 0 -5 -3l-8 -33l-104 23q12 125 107 125q34 0 79 -24q16 -8 24 -8q5 0 6 5t4 34z" />
    <glyph glyph-name="Cedilla" horiz-adv-x="476" 
d="M358 -67l-134 -164l-93 45l111 167z" />
    <glyph glyph-name="Ogonek" horiz-adv-x="476" 
d="M323 0h128q-32 -42 -32 -59q0 -8 10 -8q16 0 43 12l38 -93q-65 -23 -95 -23q-52 0 -85 28t-33 72q0 32 26 71z" />
    <glyph glyph-name="Commaaccent" horiz-adv-x="476" 
d="M191 -19l121 -36l-86 -192l-96 29z" />
    <glyph glyph-name="Comma.high" horiz-adv-x="476" 
d="M312 910l121 -35l-86 -192l-96 29z" />
    <glyph glyph-name="Dieresis.alt" horiz-adv-x="476" 
d="M154 868q32 0 53.5 -21t21.5 -52q0 -30 -22 -51.5t-53 -21.5q-32 0 -53.5 21.5t-21.5 52.5q0 29 22 50.5t53 21.5zM316 868q31 0 53 -21.5t22 -51.5q0 -31 -22 -52t-54 -21q-31 0 -52.5 21.5t-21.5 52.5q0 29 22 50.5t53 21.5z" />
    <glyph glyph-name="comma.high" horiz-adv-x="476" 
d="M312 706l121 -36l-86 -192l-96 29z" />
    <glyph glyph-name="dieresis.alt" horiz-adv-x="476" 
d="M316 668q31 0 53 -21.5t22 -51.5t-22 -51.5t-53 -21.5q-32 0 -53.5 21.5t-21.5 52.5q0 29 22 50.5t53 21.5zM154 668q32 0 53.5 -21t21.5 -52t-22 -52t-54 -21q-31 0 -52.5 21.5t-21.5 52.5q0 29 22 50.5t53 21.5z" />
    <glyph glyph-name="commareversed" horiz-adv-x="476" 
d="M372 478l-121 35l86 192l96 -29z" />
    <glyph glyph-name="G.salt" horiz-adv-x="731" 
d="M653 559l-94 -89q-49 50 -87 69t-88 19q-94 0 -157 -65t-63 -160q0 -94 63.5 -159t153.5 -65q91 0 160 70v71h-165v123h298v-240q-17 -21 -30 -35q-47 -53 -117.5 -83.5t-145.5 -30.5q-145 0 -248.5 102.5t-103.5 246.5q0 146 103.5 248t251.5 102q120 0 215 -75
q25 -20 54 -49z" />
    <glyph glyph-name="M.salt" horiz-adv-x="833" 
d="M54 0l68 667h119l176 -361l176 361h118l68 -667h-134l-41 414l-136 -278h-102l-136 277l-42 -413h-134z" />
    <glyph glyph-name="y.salt" horiz-adv-x="474" 
d="M163 22l-175 421h137l108 -264l117 264h137l-263 -588q-48 -104 -123 -104q-30 0 -76 15l20 122q5 -3 7 -3q22 -11 33 -11q12 0 26 30z" />
    <glyph glyph-name="parenleft.salt" horiz-adv-x="329" 
d="M164 808l115 -55q-43 -110 -61 -205t-18 -215q0 -119 18 -214t61 -206l-115 -54q-22 47 -27 60q-29 72 -48 188.5t-19 226.5q0 109 19 225t48 189q0 1 27 60z" />
    <glyph glyph-name="parenright.salt" horiz-adv-x="329" 
d="M50 753l115 54q10 -21 27 -60q29 -73 48 -188.5t19 -225.5t-19 -226t-48 -188q0 -1 -27 -60l-115 54q43 110 61 205.5t18 214.5q0 120 -18 215t-61 205z" />
    <glyph glyph-name="bracketleft.salt" horiz-adv-x="314" 
d="M283 670h-86v-673h86v-121h-216v915h216v-121z" />
    <glyph glyph-name="bracketright.salt" horiz-adv-x="314" 
d="M30 670v121h216v-915h-216v121h86v673h-86z" />
    <glyph glyph-name="afii61248.salt" horiz-adv-x="747" 
d="M543 270q61 0 103.5 -41.5t42.5 -100.5q0 -60 -43 -101.5t-106 -41.5t-106 41.5t-43 102.5q0 59 44 100t108 41zM539 192q-26 0 -42.5 -18t-16.5 -46q0 -29 16.5 -47t43.5 -18t43.5 18t16.5 47t-16.5 46.5t-44.5 17.5zM328 590l-58 -58q-22 22 -34 29t-30 7
q-27 0 -43.5 -18t-16.5 -47t16.5 -46.5t43.5 -17.5q33 0 66 38l58 -57q-56 -59 -123 -59q-64 0 -107 41t-43 102q0 60 43 101t107 41t121 -56zM522 683l72 -42l-380 -657l-72 41z" />
    <glyph glyph-name="braceleft.salt" horiz-adv-x="313" 
d="M295 -6v-118q-46 -1 -56 -1q-148 0 -148 159v190q-1 34 -9 43.5t-44 17.5v102l12 3q26 8 33 17t8 37v187q0 82 36.5 121t111.5 39q9 0 56 -1v-119l-31 1h-9q-25 -2 -29 -6t-5 -26v-201q-1 -71 -34 -106q33 -35 34 -109v-198q0 -22 4.5 -26.5t27.5 -5.5h42z" />
    <glyph glyph-name="braceright.salt" horiz-adv-x="313" 
d="M18 -5h19q11 0 23 -1q22 0 27 5.5t5 27.5v198q1 74 34 109q-33 35 -34 106v201q-1 23 -5 26.5t-29 4.5h-9h-31v118q47 2 56 2q75 0 111.5 -39t36.5 -121v-187q1 -29 8 -38.5t33 -16.5l12 -3v-101q-36 -8 -44 -17.5t-9 -43.5v-190q0 -160 -148 -160q-10 0 -56 2v118z" />
    <glyph glyph-name="copyright.salt" horiz-adv-x="453" 
d="M344 629l-43 -40q-18 20 -29.5 27t-27.5 7q-26 0 -44.5 -19.5t-18.5 -47.5t18.5 -47t45.5 -19q26 0 48 25l10 10l42 -41l-3 -4l-4 -4q-43 -43 -93 -43q-52 0 -88 36t-36 87q0 52 36 88t88 36t99 -51zM242 764q86 0 146.5 -62t60.5 -150q0 -83 -61.5 -144t-146.5 -61
q-86 0 -147.5 61t-61.5 147q0 87 61 148t149 61zM239 709q-64 0 -108 -45.5t-44 -110.5q0 -61 45.5 -106t107.5 -45q64 0 109 45t45 108q0 64 -45 109t-110 45z" />
    <glyph glyph-name="registered.salt" horiz-adv-x="453" 
d="M243 764q86 0 146.5 -62t60.5 -150q0 -83 -62 -144t-147 -61q-86 0 -147.5 61t-61.5 148q0 86 61.5 147t149.5 61zM293 537l53 -94q49 46 49 113q0 63 -45 108t-109 45t-109 -45t-45 -108q0 -64 45 -109t109 -45q58 0 102 38h-62l-44 79h-6h-1h-7v-79h-60v233h64
q44 0 69 -20.5t25 -57.5q0 -34 -28 -58zM223 573h7q34 0 34 22q0 24 -34 24h-7v-46z" />
    </font>
</defs>
</svg>
