<?xml version="1.0" standalone="no"?>
<!DOCTYPE svg PUBLIC "-//W3C//DTD SVG 1.1//EN" "http://www.w3.org/Graphics/SVG/1.1/DTD/svg11.dtd" >
<svg xmlns="http://www.w3.org/2000/svg" xmlns:xlink="http://www.w3.org/1999/xlink" version="1.1">
<metadata>
Created by FontForge 20170731 at Thu Sep 10 14:38:21 2015
 By ,,,
Copyright 2014 by (URW)++ Design &#38; Development GmbH
</metadata>
<defs>
<font id="URWGeometric-BlackOblique" horiz-adv-x="476" >
  <font-face 
    font-family="URW Geometric Black"
    font-weight="900"
    font-style="oblique"
    font-stretch="normal"
    units-per-em="1000"
    panose-1="0 0 10 0 0 0 0 0 0 0"
    ascent="667"
    descent="-333"
    x-height="443"
    cap-height="667"
    bbox="-137 -293 1274 1082"
    underline-thickness="146"
    underline-position="-395"
    unicode-range="U+0020-FB04"
  />
<missing-glyph horiz-adv-x="213" 
 />
    <glyph glyph-name="afii61352" unicode="Nr&#x2e;" horiz-adv-x="1046" 
d="M764 256l17 107h263l-17 -107h-263zM61 0l106 667h134l230 -375l59 375h163l-106 -667h-134l-230 375l-59 -375h-163zM965 685q54 0 89.5 -34.5t35.5 -87.5q0 -68 -52 -118.5t-121 -50.5q-56 0 -91.5 34.5t-35.5 88.5q0 68 52 118t123 50zM948 595q-25 0 -43 -19.5
t-18 -46.5q0 -21 12 -33t32 -12q26 0 44 19.5t18 47.5q0 20 -12 32t-33 12z" />
    <glyph glyph-name="ff" unicode="ff" horiz-adv-x="553" 
d="M257 304l-49 -304h-156l48 304h-38l22 139h38l10 62q12 78 56 120t114 42q35 0 79 -10l-22 -139q-24 10 -41 10q-26 0 -30 -28l-9 -57h70l-22 -139h-70zM530 304l-49 -304h-156l48 304h-38l22 139h38l12 72q12 78 55.5 120t113.5 42q36 0 79 -10l-22 -139q-24 10 -41 10
q-26 0 -30 -28l-10 -67h70l-22 -139h-70z" />
    <glyph glyph-name="fi" unicode="fi" horiz-adv-x="519" 
d="M257 304l-49 -304h-156l48 304h-38l22 139h38l12 72q12 78 55.5 120t113.5 42q36 0 79 -10l-22 -139q-24 10 -41 10q-26 0 -30 -28l-10 -67h70l-22 -139h-70zM505 685q34 0 56 -21t22 -53q0 -40 -32 -71t-74 -31q-34 0 -56 21.5t-22 53.5q0 40 32 70.5t74 30.5zM545 443
l-70 -443h-157l71 443h156z" />
    <glyph glyph-name="fl" unicode="fl" horiz-adv-x="520" 
d="M257 304l-49 -304h-156l48 304h-38l22 139h38l12 72q12 78 55.5 120t113.5 42q36 0 79 -10l-22 -139q-24 10 -41 10q-26 0 -30 -28l-10 -67h70l-22 -139h-70zM475 0h-156l105 667h157z" />
    <glyph glyph-name="ffi" unicode="ffi" horiz-adv-x="791" 
d="M257 304l-49 -304h-156l48 304h-38l22 139h38l10 62q12 78 56 120t114 42q35 0 79 -10l-22 -139q-24 10 -41 10q-26 0 -30 -28l-9 -57h70l-22 -139h-70zM530 304l-49 -304h-156l48 304h-38l22 139h38l12 72q12 78 55.5 120t113.5 42q36 0 79 -10l-22 -139q-24 10 -41 10
q-26 0 -30 -28l-10 -67h70l-22 -139h-70zM777 685q34 0 56 -21t22 -53q0 -40 -32 -71t-74 -31q-35 0 -57 21t-22 54q0 40 32 70.5t75 30.5zM816 443l-70 -443h-156l70 443h156z" />
    <glyph glyph-name="ffl" unicode="ffl" horiz-adv-x="791" 
d="M257 304l-49 -304h-156l48 304h-38l22 139h38l10 62q12 78 56 120t114 42q35 0 79 -10l-22 -139q-24 10 -41 10q-26 0 -30 -28l-9 -57h70l-22 -139h-70zM530 304l-49 -304h-156l48 304h-38l22 139h38l12 72q12 78 55.5 120t113.5 42q36 0 79 -10l-22 -139q-24 10 -41 10
q-26 0 -30 -28l-10 -67h70l-22 -139h-70zM746 0h-156l106 667h156z" />
    <glyph glyph-name=".notdef" horiz-adv-x="213" 
 />
    <glyph glyph-name=".null" horiz-adv-x="0" 
 />
    <glyph glyph-name="nonmarkingreturn" horiz-adv-x="333" 
 />
    <glyph glyph-name="space" unicode=" " horiz-adv-x="213" 
 />
    <glyph glyph-name="exclam" unicode="!" horiz-adv-x="325" 
d="M121 191l62 476h171l-88 -476h-145zM189 160q34 0 56 -21t22 -53q0 -40 -32 -71t-74 -31q-34 0 -56.5 21.5t-22.5 53.5q0 40 32.5 70.5t74.5 30.5z" />
    <glyph glyph-name="quotedbl" unicode="&#x22;" horiz-adv-x="397" 
d="M227 370h-128l38 337h159zM416 370h-128l38 337h159z" />
    <glyph glyph-name="numbersign" unicode="#" horiz-adv-x="599" 
d="M128 173h-69l44 119h69l29 79h-69l43 119h69l71 193l122 -29l-60 -164h67l71 193l122 -27l-60 -166h69l-44 -119h-69l-29 -79h69l-44 -119h-69l-70 -192l-122 29l60 163h-68l-70 -192l-122 29zM372 292l29 79h-68l-29 -79h68z" />
    <glyph glyph-name="dollar" unicode="$" horiz-adv-x="597" 
d="M332 672l15 95h160l-15 -94q42 -15 70.5 -44t51.5 -81l-149 -86q-22 45 -36 58.5t-40 13.5q-30 0 -52 -18t-22 -42q0 -26 52 -47l56 -22q75 -30 110 -70.5t35 -96.5q0 -75 -50.5 -141t-132.5 -97l-16 -103h-160l15 94q-139 38 -145 203l167 43q3 -47 9 -64q13 -39 59 -39
q35 0 62 24t27 55q0 16 -15.5 28.5t-53.5 27.5l-54 22q-129 52 -129 158q0 74 50.5 136.5t130.5 86.5z" />
    <glyph glyph-name="percent" unicode="%" horiz-adv-x="896" 
d="M701 685l79 -51l-480 -652l-80 50zM307 677q69 0 106 -37.5t37 -107.5q0 -123 -56 -197t-150 -74q-70 0 -107 37t-37 106q0 125 56.5 199t150.5 74zM292 580q-38 0 -59 -45q-22 -51 -22 -113q0 -34 11 -49t36 -15q38 0 58 43q22 46 22 114q0 65 -46 65zM758 405
q70 0 106.5 -37t36.5 -107q0 -123 -56 -197t-150 -74q-70 0 -107 37t-37 106q0 124 56 198t151 74zM743 308q-38 0 -59 -45q-22 -51 -22 -113q0 -63 47 -63q38 0 58 43q22 49 22 113q0 65 -46 65z" />
    <glyph glyph-name="ampersand" unicode="&#x26;" horiz-adv-x="700" 
d="M436 364l63 -87q20 33 38 69l144 -41q-40 -92 -89 -159l105 -146h-207l-21 30q-85 -48 -172 -48q-96 0 -157 50.5t-61 130.5q0 62 39 117q18 26 41.5 46t71.5 52q-37 62 -37 109q0 80 63 139t148 59q68 0 111 -39.5t43 -102.5q0 -97 -123 -179zM363 466q35 23 45.5 35
t10.5 28q0 14 -9 22t-25 8q-20 0 -34 -12.5t-14 -29.5q0 -9 3.5 -15.5t22.5 -35.5zM386 151l-84 123q-60 -49 -60 -86q0 -26 21 -42t54 -16q35 0 69 21z" />
    <glyph glyph-name="quotesingle" unicode="'" horiz-adv-x="208" 
d="M227 370h-128l38 337h159z" />
    <glyph glyph-name="parenleft" unicode="(" horiz-adv-x="349" 
d="M284 759l130 -67q-49 -94 -67 -135.5t-40 -113.5q-53 -181 -53 -354q0 -66 4 -100t24 -129l-151 -67q-19 66 -21 75q-18 76 -18 193q0 216 68 430q40 126 86 205q5 9 38 63z" />
    <glyph glyph-name="parenright" unicode=")" horiz-adv-x="349" 
d="M154 692l151 67q19 -67 21 -75q18 -76 18 -193q0 -216 -68 -430q-43 -133 -86 -205q-5 -9 -38 -63l-130 67q51 95 69 136t39 113q53 176 53 355q0 64 -4.5 100.5t-24.5 127.5z" />
    <glyph glyph-name="asterisk" unicode="*" horiz-adv-x="529" 
d="M298 664l13 106h150l-21 -106l105 37l24 -143l-107 -28l53 -83l-136 -88l-44 88l-73 -88l-107 88l79 83l-98 28l69 143z" />
    <glyph glyph-name="plus" unicode="+" horiz-adv-x="556" 
d="M266 383l32 200h145l-32 -200h199l-23 -142h-198l-32 -200h-145l32 200h-199l23 142h198z" />
    <glyph glyph-name="comma" unicode="," horiz-adv-x="294" 
d="M138 149l135 -52l-181 -300l-112 47z" />
    <glyph glyph-name="hyphen" unicode="-" horiz-adv-x="298" 
d="M66 302h261l-22 -144h-262z" />
    <glyph glyph-name="period" unicode="." horiz-adv-x="273" 
d="M163 160q34 0 56 -21t22 -53q0 -40 -32 -71t-74 -31q-34 0 -56.5 21.5t-22.5 53.5q0 40 32.5 70.5t74.5 30.5z" />
    <glyph glyph-name="slash" unicode="/" horiz-adv-x="582" 
d="M522 686l119 -76l-476 -629l-120 76z" />
    <glyph glyph-name="zero" unicode="0" horiz-adv-x="589" 
d="M401 685q112 0 170.5 -61.5t58.5 -177.5q0 -81 -19 -163.5t-50 -139.5q-89 -161 -266 -161q-111 0 -170.5 61t-59.5 174q0 83 18.5 166.5t50.5 140.5q43 78 111.5 119.5t155.5 41.5zM379 538q-70 0 -109 -86q-39 -92 -39 -206q0 -117 86 -117q71 0 108 83q39 85 39 207
q0 119 -85 119z" />
    <glyph glyph-name="one" unicode="1" horiz-adv-x="353" 
d="M292 0h-163l74 468l-68 -35l-58 132l199 102h121z" />
    <glyph glyph-name="two" unicode="2" horiz-adv-x="509" 
d="M37 0l19 122l272 253q76 69 76 119q0 44 -54 44q-37 0 -57 -19t-45 -77l-146 41q23 59 51 97q77 105 223 105q86 0 138.5 -46.5t52.5 -122.5q0 -117 -106 -215l-163 -151h227l-23 -150h-465z" />
    <glyph glyph-name="three" unicode="3" horiz-adv-x="506" 
d="M241 417h64q80 0 80 71q0 50 -58 50q-28 0 -48.5 -12.5t-59.5 -53.5l-120 72q59 76 116.5 108.5t134.5 32.5q88 0 143 -48t55 -125q0 -91 -74 -157q45 -51 45 -114q0 -106 -83 -182.5t-198 -76.5q-69 0 -120 31t-73 86q-13 33 -18 91l160 41q7 -60 22.5 -80.5t53.5 -20.5
q40 0 66 26.5t26 65.5q0 30 -17 43t-55 13h-64z" />
    <glyph glyph-name="four" unicode="4" horiz-adv-x="527" 
d="M527 611l-269 -335h82l14 92h162l-15 -92h54l-24 -149h-53l-21 -127h-161l20 127h-284l20 125l353 441z" />
    <glyph glyph-name="five" unicode="5" horiz-adv-x="554" 
d="M358 516l-18 -50q54 -2 88 -12t65 -34q72 -57 72 -155q0 -113 -90 -198t-210 -85q-78 0 -131 35t-92 113l147 92q18 -50 41 -71.5t59 -21.5q46 0 79 33.5t33 79.5q0 35 -22 57t-57 22q-24 0 -41 -8.5t-43 -33.5l-121 26l132 362h353l-24 -151h-220z" />
    <glyph glyph-name="six" unicode="6" horiz-adv-x="552" 
d="M418 693l113 -92l-134 -151q78 -16 121.5 -65.5t43.5 -123.5q0 -110 -87.5 -194.5t-202.5 -84.5q-92 0 -153 58.5t-61 146.5q0 101 82 194zM323 309q-43 0 -73 -30.5t-30 -74.5q0 -33 20.5 -54t53.5 -21q42 0 73.5 32.5t31.5 76.5q0 32 -20.5 51.5t-55.5 19.5z" />
    <glyph glyph-name="seven" unicode="7" horiz-adv-x="462" 
d="M351 516h-271l24 151h473l-18 -110l-411 -584l-131 73z" />
    <glyph glyph-name="eight" unicode="8" horiz-adv-x="529" 
d="M152 355q-37 48 -37 99q0 71 53 134q78 97 205 97q85 0 139.5 -49.5t54.5 -126.5q0 -84 -77 -154q53 -53 53 -120q0 -103 -83.5 -178t-198.5 -75q-92 0 -151 52.5t-59 134.5q0 110 101 186zM308 281q-40 0 -67.5 -26t-27.5 -63q0 -30 19 -47t53 -17q41 0 68.5 25t27.5 63
q0 65 -73 65zM350 543q-33 0 -56 -22.5t-23 -54.5q0 -25 16 -39t44 -14q34 0 56.5 22t22.5 54q0 25 -16 39.5t-44 14.5z" />
    <glyph glyph-name="nine" unicode="9" horiz-adv-x="554" 
d="M239 -26l-113 92l135 151q-78 16 -121.5 65.5t-43.5 123.5q0 110 87.5 194.5t202.5 84.5q92 0 152.5 -58t60.5 -147q0 -103 -82 -194zM363 538q-41 0 -72.5 -32.5t-31.5 -75.5q0 -33 20.5 -52.5t55.5 -19.5q42 0 72 31t30 74q0 33 -20.5 54t-53.5 21z" />
    <glyph glyph-name="colon" unicode=":" horiz-adv-x="273" 
d="M163 160q34 0 56 -21t22 -53q0 -40 -32 -71t-74 -31q-34 0 -56.5 21.5t-22.5 53.5q0 40 32.5 70.5t74.5 30.5zM206 432q34 0 56 -21t22 -53q0 -40 -32 -71t-74 -31q-34 0 -56.5 21.5t-22.5 53.5q0 40 32.5 70.5t74.5 30.5z" />
    <glyph glyph-name="semicolon" unicode=";" horiz-adv-x="288" 
d="M138 149l135 -52l-181 -300l-112 47zM230 432q34 0 56 -21t22 -53q0 -40 -32 -71t-74 -31q-34 0 -56.5 21.5t-22.5 53.5q0 40 32.5 70.5t74.5 30.5z" />
    <glyph glyph-name="less" unicode="&#x3c;" horiz-adv-x="599" 
d="M657 636l-26 -164l-318 -135l275 -136l-26 -163l-475 241l18 116z" />
    <glyph glyph-name="equal" unicode="=" horiz-adv-x="556" 
d="M596 477l-23 -143h-484l22 143h485zM566 290l-23 -143h-484l23 143h484z" />
    <glyph glyph-name="greater" unicode="&#x3e;" horiz-adv-x="599" 
d="M49 38l26 163l318 136l-275 136l26 163l475 -242l-18 -115z" />
    <glyph glyph-name="question" unicode="?" horiz-adv-x="453" 
d="M177 191l9 57q8 50 27 80t63 61l44 33q52 38 52 75t-50 37q-29 0 -53 -15.5t-61 -58.5l-105 96q58 71 112.5 100t128.5 29q90 0 140.5 -44t50.5 -122q0 -58 -27.5 -105.5t-90.5 -97.5l-50 -40q-17 -13 -21 -35l-8 -50h-161zM252 160q34 0 56 -21t22 -53q0 -40 -32 -71
t-74 -31q-34 0 -56.5 21.5t-22.5 53.5q0 40 32.5 70.5t74.5 30.5z" />
    <glyph glyph-name="at" unicode="@" horiz-adv-x="891" 
d="M729 538l-89 -314q61 7 92 48q45 58 45 148q0 89 -53 137t-152 48q-187 0 -285 -135q-63 -86 -63 -193q0 -105 67 -160t195 -55q59 0 103.5 7t134.5 29l22 -107q-86 -25 -145 -33.5t-138 -8.5q-172 0 -265.5 81t-93.5 229q0 147 88 266q68 93 170 143t226 50
q143 0 226 -75t83 -205q0 -138 -79 -230q-85 -98 -237 -98h-126q-76 0 -121 42.5t-45 113.5q0 63 30.5 122.5t82.5 96.5q71 53 181 53h146zM519 223l57 201h-19q-67 0 -102 -34q-44 -42 -44 -106q0 -29 18 -45t51 -16h39z" />
    <glyph glyph-name="A" unicode="A" horiz-adv-x="656" 
d="M470 138h-241l-69 -138h-172l354 667h182l144 -667h-173zM442 289l-36 203l-102 -203h138z" />
    <glyph glyph-name="B" unicode="B" horiz-adv-x="538" 
d="M61 0l106 667h171q113 0 166 -43q57 -46 57 -125q0 -42 -17 -74t-58 -67q62 -52 62 -127q0 -88 -75 -157q-81 -74 -211 -74h-201zM282 404h25q39 0 55.5 5.5t29.5 22.5q16 21 16 47q0 28 -17.5 38t-64.5 10h-25zM240 144h40q39 0 60 6.5t35 23.5q17 20 17 48
q0 31 -21.5 43.5t-77.5 12.5h-31z" />
    <glyph glyph-name="C" unicode="C" horiz-adv-x="674" 
d="M744 552l-134 -107q-62 89 -143 89q-93 0 -162 -70t-69 -164q0 -72 47 -119.5t119 -47.5q84 0 176 91l100 -107q-145 -135 -297 -135q-134 0 -222 84.5t-88 213.5q0 104 58.5 198t156.5 150.5t207 56.5q77 0 136.5 -31.5t114.5 -101.5z" />
    <glyph glyph-name="D" unicode="D" horiz-adv-x="623" 
d="M167 667h169q150 0 235.5 -72.5t85.5 -200.5q0 -171 -120.5 -282.5t-305.5 -111.5h-170zM305 516l-57 -365h10q105 0 169.5 60.5t64.5 158.5q0 70 -46 108t-131 38h-10z" />
    <glyph glyph-name="E" unicode="E" horiz-adv-x="501" 
d="M545 518h-241l-16 -106h213l-23 -150h-214l-18 -111h250l-24 -151h-411l106 667h401z" />
    <glyph glyph-name="F" unicode="F" horiz-adv-x="464" 
d="M524 517h-219l-16 -104h199l-24 -151h-199l-41 -262h-163l106 667h381z" />
    <glyph glyph-name="G" unicode="G" horiz-adv-x="730" 
d="M423 386h344l-12 -76q-15 -93 -59 -162q-49 -77 -133 -121.5t-179 -44.5q-136 0 -224 84t-88 213q0 161 127.5 283.5t295.5 122.5q78 0 138 -29t121 -96l-134 -108q-38 45 -71.5 63.5t-78.5 18.5q-94 0 -163.5 -70t-69.5 -165q0 -73 48 -119.5t122 -46.5q113 0 166 105
h-173z" />
    <glyph glyph-name="H" unicode="H" horiz-adv-x="655" 
d="M289 413h207l41 254h162l-105 -667h-163l41 262h-207l-41 -262h-163l106 667h162z" />
    <glyph glyph-name="I" unicode="I" horiz-adv-x="285" 
d="M329 667l-105 -667h-163l106 667h162z" />
    <glyph glyph-name="J" unicode="J" horiz-adv-x="436" 
d="M480 667l-72 -456q-18 -119 -88 -179q-59 -50 -144 -50q-56 0 -97.5 22t-81.5 73l114 117q41 -61 78 -61q44 0 56 78l72 456h163z" />
    <glyph glyph-name="K" unicode="K" horiz-adv-x="628" 
d="M433 383l194 -383h-193l-131 265l-44 -40l-35 -225h-163l106 667h162l-35 -220l242 220h210z" />
    <glyph glyph-name="L" unicode="L" horiz-adv-x="451" 
d="M329 667l-81 -516h230l-24 -151h-393l106 667h162z" />
    <glyph glyph-name="M" unicode="M" horiz-adv-x="798" 
d="M61 0l106 667h147l138 -328l242 328h148l-106 -667h-163l54 336l-151 -207h-114l-85 207l-53 -336h-163z" />
    <glyph glyph-name="N" unicode="N" horiz-adv-x="709" 
d="M61 0l106 667h134l230 -375l59 375h163l-106 -667h-134l-230 375l-59 -375h-163z" />
    <glyph glyph-name="O" unicode="O" horiz-adv-x="764" 
d="M494 685q129 0 216.5 -86t87.5 -213q0 -104 -59 -197.5t-157 -150t-207 -56.5q-131 0 -216.5 86t-85.5 216q0 103 58.5 196t156.5 149t206 56zM468 534q-92 0 -161.5 -70.5t-69.5 -163.5q0 -70 48 -118.5t116 -48.5q92 0 162 70.5t70 162.5q0 72 -47 120t-118 48z" />
    <glyph glyph-name="P" unicode="P" horiz-adv-x="486" 
d="M259 222l-35 -222h-163l106 667h169q121 0 174 -56q47 -50 47 -128q0 -96 -67 -173q-76 -88 -224 -88h-7zM281 371h17q62 0 82 31q18 26 18 59q0 32 -17 44.5t-60 12.5h-16z" />
    <glyph glyph-name="Q" unicode="Q" horiz-adv-x="762" 
d="M674 109l50 -57l-132 -111l-63 72q-75 -31 -152 -31q-130 0 -218 85.5t-88 212.5q0 159 128.5 282t294.5 123q128 0 216 -86t88 -212q0 -73 -33.5 -147.5t-90.5 -130.5zM529 275l49 -56q55 66 55 147q0 72 -47 120t-118 48q-92 0 -162 -70.5t-70 -163.5q0 -71 48 -119
t118 -48q12 0 20 1l-26 30z" />
    <glyph glyph-name="R" unicode="R" horiz-adv-x="575" 
d="M297 223h-2h-4l-25 -1h-7l-35 -222h-163l106 667h169q127 0 184 -56q51 -51 51 -133q0 -60 -31 -116.5t-81 -90.5l110 -271h-183zM281 371h17q73 0 97 31q17 23 17 55q0 34 -20.5 47.5t-70.5 13.5h-16z" />
    <glyph glyph-name="S" unicode="S" horiz-adv-x="535" 
d="M587 547l-149 -85q-21 44 -35.5 58t-40.5 14q-32 0 -53 -19q-21 -21 -21 -41q0 -27 52 -47l56 -23q75 -29 110 -69.5t35 -97.5q0 -101 -84.5 -178t-196.5 -77q-68 0 -118.5 31t-72.5 86q-13 32 -17 94l167 43q3 -47 9 -64q14 -39 59 -39q34 0 61.5 24.5t27.5 54.5
q0 16 -16 29t-53 28l-54 21q-129 53 -129 159q0 96 78.5 166t185.5 70q72 0 119 -32.5t80 -105.5z" />
    <glyph glyph-name="T" unicode="T" horiz-adv-x="446" 
d="M386 516l-81 -516h-163l82 516h-154l24 151h470l-24 -151h-154z" />
    <glyph glyph-name="U" unicode="U" horiz-adv-x="648" 
d="M330 667l-65 -407q-6 -46 -6 -57q0 -31 23.5 -50.5t61.5 -19.5q27 0 54 11.5t41 28.5q16 21 26 87l65 407h163l-68 -424q-16 -102 -75 -164q-43 -45 -104 -71t-124 -26q-98 0 -162.5 56t-64.5 142q0 26 5 63l67 424h163z" />
    <glyph glyph-name="V" unicode="V" horiz-adv-x="610" 
d="M266 667l76 -440l214 440h172l-330 -667h-185l-119 667h172z" />
    <glyph glyph-name="W" unicode="W" horiz-adv-x="878" 
d="M264 667l52 -361l163 361h132l48 -362l167 362h170l-308 -667h-140l-50 372l-167 -372h-140l-97 667h170z" />
    <glyph glyph-name="X" unicode="X" horiz-adv-x="609" 
d="M453 347l168 -347h-187l-98 203l-162 -203h-186l279 346l-155 321h186l85 -177l142 177h184z" />
    <glyph glyph-name="Y" unicode="Y" horiz-adv-x="577" 
d="M251 274l-164 393h183l89 -223l160 223h183l-289 -393l-43 -274h-163z" />
    <glyph glyph-name="Z" unicode="Z" horiz-adv-x="518" 
d="M246 152h290l-24 -152h-507l19 118l349 398h-260l24 151h474l-19 -118z" />
    <glyph glyph-name="bracketleft" unicode="[" horiz-adv-x="334" 
d="M317 589l-98 -626h82l-23 -148h-243l146 922h243l-24 -148h-83z" />
    <glyph glyph-name="backslash" unicode="\" horiz-adv-x="537" 
d="M232 685l274 -653l-95 -50l-274 652z" />
    <glyph glyph-name="bracketright" unicode="]" horiz-adv-x="334" 
d="M202 589h-83l24 148h243l-146 -922h-243l24 148h82z" />
    <glyph glyph-name="asciicircum" unicode="^" horiz-adv-x="601" 
d="M179 324h-173l223 385h144l223 -385h-174l-122 206z" />
    <glyph glyph-name="underscore" unicode="_" horiz-adv-x="543" 
d="M-24 -30h580l-23 -146h-580z" />
    <glyph glyph-name="grave" unicode="`" 
d="M155 644l154 69l115 -178l-114 -54z" />
    <glyph glyph-name="a" unicode="a" horiz-adv-x="543" 
d="M499 0h-157l3 18q-58 -36 -113 -36q-80 0 -132 56.5t-52 142.5q0 111 79.5 195.5t183.5 84.5q52 0 99 -36l2 18h157zM309 321q-43 0 -72.5 -35t-29.5 -87q0 -36 19.5 -56.5t53.5 -20.5q43 0 72 35t29 87q0 37 -19 57t-53 20z" />
    <glyph glyph-name="b" unicode="b" horiz-adv-x="543" 
d="M44 0l106 667h156l-38 -242q56 36 112 36q80 0 132.5 -56.5t52.5 -142.5q0 -111 -79.5 -195.5t-183.5 -84.5q-52 0 -99 36l-3 -18h-156zM332 321q-42 0 -71 -35t-29 -87q0 -36 18.5 -56.5t52.5 -20.5q44 0 73.5 35t29.5 87q0 36 -19.5 56.5t-54.5 20.5z" />
    <glyph glyph-name="c" unicode="c" horiz-adv-x="452" 
d="M507 381l-110 -108q-22 27 -40.5 37.5t-44.5 10.5q-46 0 -76 -34.5t-30 -87.5q0 -37 19.5 -57t56.5 -20q49 0 101 51l77 -108q-55 -45 -100.5 -64t-99.5 -19q-94 0 -153 56.5t-59 145.5q0 112 86 194.5t202 82.5q53 0 92 -18.5t79 -61.5z" />
    <glyph glyph-name="d" unicode="d" horiz-adv-x="543" 
d="M499 0h-157l3 18q-58 -36 -113 -36q-80 0 -132 56.5t-52 142.5q0 111 79.5 195.5t183.5 84.5q51 0 99 -36l38 242h156zM309 321q-43 0 -72.5 -35t-29.5 -87q0 -36 19.5 -56.5t53.5 -20.5q43 0 72 35t29 87q0 37 -19 57t-53 20z" />
    <glyph glyph-name="e" unicode="e" horiz-adv-x="494" 
d="M342 150l135 -53q-96 -115 -228 -115q-89 0 -145 56t-56 145q0 110 83 193.5t193 83.5q84 0 138 -55.5t54 -141.5q0 -35 -13 -90h-300q8 -31 22.5 -44t42.5 -13q43 0 74 34zM219 270h147q-5 31 -20 43.5t-47 12.5q-30 0 -48.5 -12.5t-31.5 -43.5z" />
    <glyph glyph-name="f" unicode="f" horiz-adv-x="281" 
d="M257 304l-49 -304h-156l48 304h-38l22 139h38l12 72q12 78 55.5 120t113.5 42q36 0 79 -10l-22 -139q-24 10 -41 10q-26 0 -30 -28l-10 -67h70l-22 -139h-70z" />
    <glyph glyph-name="g" unicode="g" horiz-adv-x="543" 
d="M341 -9l5 27q-60 -36 -113 -36q-80 0 -132.5 56.5t-52.5 142.5q0 111 79.5 195.5t183.5 84.5q52 0 99 -36l3 18h156l-71 -452q-17 -108 -96.5 -175t-189.5 -67q-69 0 -119.5 29.5t-94.5 95.5l123 99q28 -47 52.5 -65.5t58.5 -18.5q92 0 109 102zM309 321q-43 0 -72.5 -35
t-29.5 -87q0 -36 19.5 -56.5t53.5 -20.5q43 0 72 35t29 87q0 37 -19 57t-53 20z" />
    <glyph glyph-name="h" unicode="h" horiz-adv-x="511" 
d="M306 667l-38 -238q48 32 101 32q64 0 102.5 -42.5t38.5 -111.5q0 -29 -5 -66l-38 -241h-157l37 234q5 27 5 46q0 41 -40 41q-35 0 -51 -20t-25 -75l-36 -226h-156l106 667h156z" />
    <glyph glyph-name="i" unicode="i" horiz-adv-x="246" 
d="M232 685q34 0 56 -21t22 -53q0 -40 -32 -71t-74 -31q-35 0 -57 21t-22 54q0 40 32 70.5t75 30.5zM272 443l-71 -443h-156l70 443h157z" />
    <glyph glyph-name="j" unicode="j" horiz-adv-x="251" 
d="M277 443l-84 -527q-12 -77 -55.5 -119.5t-111.5 -42.5q-37 0 -81 16l23 142q33 -15 50 -15q10 0 14 5.5t6 21.5l82 519h157zM237 685q34 0 56 -21t22 -53q0 -40 -32 -71t-74 -31q-34 0 -56 21.5t-22 53.5q0 40 32 70.5t74 30.5z" />
    <glyph glyph-name="k" unicode="k" horiz-adv-x="509" 
d="M365 254l161 -254h-196l-91 149l-17 -14l-22 -135h-156l106 667h156l-52 -331l127 107h211z" />
    <glyph glyph-name="l" unicode="l" horiz-adv-x="247" 
d="M201 0h-156l106 667h156z" />
    <glyph glyph-name="m" unicode="m" horiz-adv-x="751" 
d="M269 443l-3 -15q52 33 97 33q57 0 101 -40q61 40 129 40q70 0 113.5 -43t43.5 -113q0 -31 -6 -68l-38 -237h-156l36 230q6 37 6 51q0 40 -34 40q-31 0 -45.5 -20.5t-23.5 -78.5l-35 -222h-156l36 230q5 32 5 51q0 40 -34 40q-31 0 -45.5 -20.5t-24.5 -78.5l-35 -222h-156
l70 443h155z" />
    <glyph glyph-name="n" unicode="n" horiz-adv-x="511" 
d="M271 443l-3 -15q47 33 101 33q64 0 102.5 -42.5t38.5 -112.5q0 -28 -5 -66l-38 -240h-157l37 234q5 27 5 46q0 41 -40 41q-35 0 -51 -20t-25 -75l-36 -226h-156l70 443h157z" />
    <glyph glyph-name="o" unicode="o" horiz-adv-x="519" 
d="M336 461q89 0 147 -57t58 -144q0 -112 -85.5 -195t-199.5 -83q-91 0 -149.5 57t-58.5 146q0 112 86 194t202 82zM308 321q-43 0 -72.5 -35t-29.5 -87q0 -36 19.5 -56.5t53.5 -20.5q44 0 74 35t30 87q0 37 -20 57t-55 20z" />
    <glyph glyph-name="p" unicode="p" horiz-adv-x="543" 
d="M114 443h156l-2 -18q58 36 112 36q80 0 132.5 -56.5t52.5 -142.5q0 -111 -79.5 -195.5t-183.5 -84.5q-52 0 -99 36l-40 -252h-156zM333 321q-43 0 -72 -35t-29 -87q0 -37 19 -57t53 -20q43 0 72.5 35t29.5 87q0 36 -19.5 56.5t-53.5 20.5z" />
    <glyph glyph-name="q" unicode="q" horiz-adv-x="543" 
d="M569 443l-107 -677h-157l40 252q-58 -36 -113 -36q-80 0 -132 56.5t-52 142.5q0 111 79.5 195.5t183.5 84.5q52 0 99 -36l2 18h157zM310 321q-44 0 -73.5 -35t-29.5 -87q0 -36 19.5 -56.5t54.5 -20.5q42 0 71 35t29 87q0 36 -19 56.5t-52 20.5z" />
    <glyph glyph-name="r" unicode="r" horiz-adv-x="319" 
d="M271 443l-3 -15q40 18 75 18q20 0 44 -4l-21 -138q-28 4 -43 4q-44 0 -62 -18.5t-27 -74.5l-34 -215h-156l70 443h157z" />
    <glyph glyph-name="s" unicode="s" horiz-adv-x="399" 
d="M29 113l144 47q18 -43 51 -43q10 0 17.5 6.5t7.5 15.5q0 11 -20 20l-83 37q-57 26 -57 94q0 70 59 120.5t139 50.5q110 0 153 -100l-136 -57q-14 24 -39 24q-24 0 -24 -16q0 -9 16 -16l69 -28q82 -33 82 -104q0 -73 -63 -127.5t-146 -54.5q-103 0 -147 72q-13 22 -23 59z
" />
    <glyph glyph-name="t" unicode="t" horiz-adv-x="289" 
d="M250 304l-23 -144l-1 -16q0 -12 13 -12q17 0 55 16l-22 -142q-48 -16 -87 -16q-56 0 -87.5 31.5t-31.5 87.5q0 20 4 43l24 152h-43l22 139h43l14 86l165 60l-23 -146h63l-22 -139h-63z" />
    <glyph glyph-name="u" unicode="u" horiz-adv-x="511" 
d="M311 0l2 15q-47 -33 -101 -33q-64 0 -102.5 42.5t-38.5 112.5q0 28 5 66l38 240h157l-37 -234q-5 -27 -5 -45q0 -42 40 -42q36 0 51.5 19.5t24.5 75.5l36 226h156l-70 -443h-156z" />
    <glyph glyph-name="v" unicode="v" 
d="M216 443l56 -227l129 227h163l-256 -443h-140l-116 443h164z" />
    <glyph glyph-name="w" unicode="w" horiz-adv-x="650" 
d="M214 443l34 -192l90 192h114l29 -192l95 192h162l-229 -443h-126l-29 187l-88 -187h-126l-88 443h162z" />
    <glyph glyph-name="x" unicode="x" horiz-adv-x="522" 
d="M393 229l143 -229h-191l-67 109l-101 -109h-191l216 228l-134 215h191l58 -95l88 95h189z" />
    <glyph glyph-name="y" unicode="y" 
d="M147 25l-95 418h164l47 -227l138 227h164l-411 -677h-164z" />
    <glyph glyph-name="z" unicode="z" horiz-adv-x="428" 
d="M255 138h184l-22 -138h-401l17 108l208 198h-164l22 137h380l-17 -108z" />
    <glyph glyph-name="braceleft" unicode="{" horiz-adv-x="335" 
d="M329 579l-32 -202q-10 -62 -43 -101q14 -29 14 -63q0 -22 -3 -40l-32 -200v-4q0 -4 11 -4h59l-23 -148q-41 -2 -72 -2q-138 0 -138 122q0 17 5 46l30 190q2 16 2 18q0 15 -12 18l-34 9l19 122l37 9q17 5 21 36l30 184q27 168 186 168q9 0 71 -2l-23 -148h-59
q-9 0 -10.5 -1t-3.5 -7z" />
    <glyph glyph-name="bar" unicode="|" horiz-adv-x="543" 
d="M196 728h152v-904h-152v904z" />
    <glyph glyph-name="braceright" unicode="}" horiz-adv-x="335" 
d="M93 -27l32 200q10 65 44 103q-15 27 -15 64q0 18 3 37l32 202q0 5 -1.5 6.5t-9.5 1.5h-59l24 148q40 2 72 2q137 0 137 -122q0 -22 -5 -46l-29 -184q-1 -6 -1 -18q0 -13 11 -18l34 -9l-19 -122l-37 -9q-17 -5 -21 -36l-30 -190q-27 -168 -187 -168q-8 0 -71 2l23 148h60
q12 0 13 8z" />
    <glyph glyph-name="asciitilde" unicode="~" horiz-adv-x="733" 
d="M183 525l-109 71q28 57 38 74q56 95 151 95q47 0 128 -37q61 -28 81 -28q23 0 41 25q5 7 35 57l111 -65q-37 -73 -56 -97q-54 -71 -141 -71q-26 0 -55 9.5t-101 41.5q-33 14 -48 14q-21 0 -40 -28q-2 -2 -35 -61z" />
    <glyph glyph-name="uni00A0" unicode="&#xa0;" horiz-adv-x="213" 
 />
    <glyph glyph-name="exclamdown" unicode="&#xa1;" horiz-adv-x="325" 
d="M137 291h145l-62 -475h-172zM242 499q34 0 56 -21.5t22 -53.5q0 -40 -32 -70.5t-74 -30.5q-34 0 -56 21t-22 54q0 40 32 70.5t74 30.5z" />
    <glyph glyph-name="cent" unicode="&#xa2;" horiz-adv-x="544" 
d="M204 0l17 110q-58 23 -90 72t-32 114q0 85 53.5 157.5t139.5 103.5l17 110h160l-16 -103q61 -19 105 -71l-111 -108q-38 48 -84 48q-45 0 -75.5 -35t-30.5 -87q0 -37 19.5 -57t55.5 -20q51 0 102 51l76 -108q-64 -56 -130 -74l-16 -103h-160z" />
    <glyph glyph-name="sterling" unicode="&#xa3;" horiz-adv-x="576" 
d="M500 267h-166q-1 -48 -5 -68t-21 -52h260l-24 -147h-488l19 123q5 4 12.5 9t8.5 6l18 12q33 24 44.5 45.5t11.5 60.5v11h-72l22 140h43q8 89 36 141q31 62 95.5 99.5t139.5 37.5q96 0 148 -60q19 -21 48 -77l-144 -83q-23 44 -38.5 58t-39.5 14q-82 0 -81 -130h195z" />
    <glyph glyph-name="currency" unicode="&#xa4;" horiz-adv-x="803" 
d="M276 665l79 -95q74 37 142 37q39 0 66.5 -7.5t64.5 -29.5l109 95l83 -95l-112 -98q18 -53 18 -92q0 -91 -61 -185l80 -96l-112 -98l-79 96q-78 -37 -144 -37q-38 0 -65.5 7.5t-65.5 29.5l-110 -96l-80 98l110 96q-17 54 -17 92q0 93 62 185l-81 98zM472 462
q-57 0 -96.5 -45t-39.5 -111q0 -46 26.5 -73.5t71.5 -27.5q58 0 98 45t40 111q0 47 -26.5 74t-73.5 27z" />
    <glyph glyph-name="yen" unicode="&#xa5;" horiz-adv-x="677" 
d="M281 322l-9 20h-105l16 105h45l-91 220h183l88 -220h4l157 220h183l-161 -220h45l-17 -105h-105l-15 -20h117l-17 -105h-145l-34 -217h-163l35 217h-145l16 105h118z" />
    <glyph glyph-name="brokenbar" unicode="&#xa6;" horiz-adv-x="543" 
d="M196 728h152v-340h-152v340zM196 164h152v-340h-152v340z" />
    <glyph glyph-name="section" unicode="&#xa7;" horiz-adv-x="596" 
d="M372 418l57 -23q77 -32 113 -72.5t36 -98.5q0 -82 -63 -157q16 -33 16 -71q0 -46 -20.5 -91.5t-55.5 -78.5q-77 -74 -199 -74q-86 0 -142 37.5t-94 120.5l154 88q26 -50 41 -68q22 -27 68 -27q37 0 60.5 19.5t23.5 49.5q0 27 -76 58l-56 23q-133 53 -133 161q0 83 65 154
q-18 37 -18 74q0 99 80.5 171t191.5 72q74 0 125 -31.5t86 -98.5l-153 -88q-25 39 -42.5 53t-42.5 14q-44 0 -67 -32q-14 -17 -14 -35q0 -25 59 -49zM288 280l-6 -7q-20 -17 -20 -34q0 -14 14 -25.5t48 -24.5l74 -30l2 2l3 5q14 21 14 35q0 16 -16.5 28t-62.5 30z" />
    <glyph glyph-name="dieresis" unicode="&#xa8;" 
d="M441 676q30 0 50 -19t20 -48q0 -36 -28.5 -63.5t-66.5 -27.5q-31 0 -51 19t-20 48q0 36 29 63.5t67 27.5zM250 676q30 0 50 -19t20 -48q0 -36 -28.5 -63.5t-66.5 -27.5q-31 0 -51 19t-20 48q0 36 29 63.5t67 27.5z" />
    <glyph glyph-name="copyright" unicode="&#xa9;" horiz-adv-x="831" 
d="M617 476l-89 -82q-30 35 -53 48.5t-51 13.5q-50 0 -84.5 -35.5t-34.5 -87.5q0 -50 35 -86t84 -36q29 0 51.5 13.5t54.5 48.5l89 -81q-49 -52 -93 -74.5t-100 -22.5q-102 0 -173.5 69.5t-71.5 168.5q0 100 71.5 169.5t174.5 69.5q55 0 98 -22t92 -74zM422 718
q154 0 266 -113.5t112 -270.5q0 -160 -112.5 -272.5t-271.5 -112.5q-160 0 -272.5 113t-112.5 274q0 159 114 270.5t277 111.5zM411 617q-114 0 -196.5 -83.5t-82.5 -199.5q0 -118 83 -201t200 -83q118 0 201 83.5t83 202.5q0 117 -84 199t-204 82z" />
    <glyph glyph-name="ordfeminine" unicode="&#xaa;" horiz-adv-x="345" 
d="M385 406h-106l1 6q-33 -19 -63 -19q-52 0 -85.5 34t-33.5 87q0 68 50.5 119.5t116.5 51.5q28 0 55 -19l1 6h106zM262 591q-24 0 -40.5 -18.5t-16.5 -46.5q0 -18 11 -28.5t30 -10.5q24 0 40 18t16 46q0 40 -40 40z" />
    <glyph glyph-name="guillemotleft" unicode="&#xab;" horiz-adv-x="559" 
d="M438 223l100 -153l-121 -85l-155 237l231 242l93 -84zM229 222l100 -153l-121 -85l-155 237l231 242l93 -84z" />
    <glyph glyph-name="logicalnot" unicode="&#xac;" horiz-adv-x="709" 
d="M661 41h-151v198h-462v144h613v-342z" />
    <glyph glyph-name="uni00AD" unicode="&#xad;" horiz-adv-x="298" 
d="M66 302h261l-22 -144h-262z" />
    <glyph glyph-name="registered" unicode="&#xae;" horiz-adv-x="831" 
d="M422 717q154 0 266 -113.5t112 -270.5q0 -159 -112.5 -271.5t-271.5 -112.5q-160 0 -272.5 113t-112.5 274q0 159 114 270t277 111zM524 291l90 -161q85 83 85 203q0 117 -83 200t-200 83q-118 0 -201 -83t-83 -200t83 -200t200 -83q95 0 173 58h-100l-80 145h-22v-145
h-123v450h129q86 0 131 -38q52 -44 52 -116q0 -34 -11.5 -59t-39.5 -54zM385 365h12q33 0 46 8.5t13 29.5q0 23 -13.5 32.5t-45.5 9.5h-12v-80z" />
    <glyph glyph-name="macron" unicode="&#xaf;" 
d="M168 653h348l-20 -124h-348z" />
    <glyph glyph-name="degree" unicode="&#xb0;" horiz-adv-x="320" 
d="M313 746q52 0 87.5 -35t35.5 -87q0 -67 -51.5 -118t-118.5 -51q-54 0 -89.5 35t-35.5 88q0 67 52 117.5t120 50.5zM295 648q-21 0 -38 -16.5t-17 -38.5q0 -17 11.5 -28.5t29.5 -11.5q22 0 39 17t17 39q0 17 -12 28t-30 11z" />
    <glyph glyph-name="plusminus" unicode="&#xb1;" horiz-adv-x="556" 
d="M283 486l28 181h145l-28 -181h198l-22 -142h-199l-29 -181h-145l29 181h-199l23 142h199zM572 143l-23 -143h-542l23 143h542z" />
    <glyph glyph-name="twosuperior" unicode="&#xb2;" horiz-adv-x="387" 
d="M117 406l12 78l165 147q42 39 42 64q0 20 -28 20q-20 0 -30 -10t-26 -47l-99 27q12 29 20 43q49 83 152 83q55 0 88 -28t33 -75q0 -68 -65 -127l-86 -77h128l-15 -98h-291z" />
    <glyph glyph-name="threesuperior" unicode="&#xb3;" horiz-adv-x="387" 
d="M248 657h44q41 0 41 34q0 24 -30 24q-15 0 -26.5 -7.5t-36.5 -32.5l-82 47q24 29 42 45q50 44 119 44q55 0 89.5 -29t34.5 -76q0 -49 -41 -90q25 -33 25 -67q0 -63 -51.5 -108.5t-123.5 -45.5q-47 0 -80.5 22t-44.5 61q-5 16 -8 47l108 26q4 -36 12.5 -47.5t28.5 -11.5
q22 0 35.5 13t13.5 33q0 15 -9 21t-30 6h-45z" />
    <glyph glyph-name="acute" unicode="&#xb4;" 
d="M525 644l-207 -163l-97 54l172 178z" />
    <glyph glyph-name="mu" unicode="&#xb5;" horiz-adv-x="511" 
d="M200 -13v-221h-156v677h156v-234q0 -50 10.5 -68.5t39.5 -18.5q35 0 48 20t13 75v226h156v-443h-156v15q-27 -33 -68 -33q-16 0 -43 5z" />
    <glyph glyph-name="paragraph" unicode="&#xb6;" horiz-adv-x="645" 
d="M214 -234l68 426q-50 10 -78 28q-43 27 -67 71.5t-24 98.5q0 111 84.5 194t197.5 83h324l-20 -130h-61l-122 -771h-134l122 771h-34l-122 -771h-134z" />
    <glyph glyph-name="periodcentered" unicode="&#xb7;" horiz-adv-x="273" 
d="M204 421q34 0 56 -21t22 -53q0 -40 -32 -71t-74 -31q-35 0 -57 21t-22 54q0 40 32 70.5t75 30.5z" />
    <glyph glyph-name="cedilla" unicode="&#xb8;" 
d="M366 -66l-177 -172l-105 51l151 175z" />
    <glyph glyph-name="onesuperior" unicode="&#xb9;" horiz-adv-x="387" 
d="M329 406h-109l42 265l-37 -19l-40 86l126 63h81z" />
    <glyph glyph-name="ordmasculine" unicode="&#xba;" horiz-adv-x="338" 
d="M279 685q56 0 93.5 -35t37.5 -88q0 -67 -54 -117.5t-126 -50.5q-58 0 -95 34.5t-37 89.5q0 68 54 117.5t127 49.5zM261 591q-24 0 -40 -18t-16 -45q0 -40 41 -40q25 0 41 18t16 45q0 40 -42 40z" />
    <glyph glyph-name="guillemotright" unicode="&#xbb;" horiz-adv-x="559" 
d="M400 222l-99 157l121 84l154 -242l-230 -237l-94 85zM191 223l-99 157l121 84l154 -242l-230 -237l-94 85z" />
    <glyph glyph-name="onequarter" unicode="&#xbc;" horiz-adv-x="833" 
d="M634 685l79 -51l-480 -652l-80 50zM759 359l-113 -135h105l-8 -53h32l-16 -98h-32l-11 -73h-109l11 73h-170l13 80l215 259zM641 218l-39 -47h32zM279 271h-109l42 265l-37 -18l-40 86l126 62h81z" />
    <glyph glyph-name="onehalf" unicode="&#xbd;" horiz-adv-x="833" 
d="M632 685l79 -51l-480 -652l-80 50zM277 271h-109l42 265l-37 -18l-40 86l126 62h81zM485 0l12 78l164 147q43 39 43 63q0 21 -28 21q-20 0 -30.5 -10.5t-25.5 -46.5l-99 27q7 18 20 43q47 83 152 83q55 0 88 -28t33 -75q0 -69 -66 -127l-85 -77h128l-16 -98h-290z" />
    <glyph glyph-name="threequarters" unicode="&#xbe;" horiz-adv-x="833" 
d="M692 685l80 -51l-481 -652l-79 50zM226 522h44q41 0 41 34q0 24 -30 24q-16 0 -27 -7t-36 -33l-82 47q23 29 42 46q50 44 118 44q56 0 90.5 -29.5t34.5 -76.5q0 -49 -41 -90q25 -33 25 -67q0 -63 -51.5 -108.5t-123.5 -45.5q-47 0 -80 22t-45 61q-5 18 -8 47l108 26
q4 -36 12.5 -47.5t28.5 -11.5q21 0 35 13t14 33q0 15 -9 21t-30 6h-45zM795 359l-113 -135h105l-8 -53h32l-15 -98h-32l-12 -73h-109l12 73h-171l13 80l215 259zM678 218l-40 -47h32z" />
    <glyph glyph-name="questiondown" unicode="&#xbf;" horiz-adv-x="453" 
d="M369 291l-9 -57q-8 -50 -27 -80t-63 -61l-44 -32q-52 -39 -52 -75q0 -37 49 -37q29 0 53.5 15.5t61.5 57.5l105 -95q-58 -71 -112.5 -100t-128.5 -29q-90 0 -140.5 44t-50.5 122q0 58 27.5 105t90.5 98l50 39q16 12 22 36l7 49h161zM323 499q34 0 56 -21.5t22 -53.5
q0 -40 -32 -70.5t-74 -30.5q-34 0 -56 21.5t-22 53.5q0 40 32 70.5t74 30.5z" />
    <glyph glyph-name="Agrave" unicode="&#xc0;" horiz-adv-x="656" 
d="M470 138h-241l-69 -138h-172l354 667h182l144 -667h-173zM442 289l-36 203l-102 -203h138zM276 858l153 69l116 -178l-115 -55z" />
    <glyph glyph-name="Aacute" unicode="&#xc1;" horiz-adv-x="656" 
d="M649 858l-206 -164l-97 55l172 178zM470 138h-241l-69 -138h-172l354 667h182l144 -667h-173zM442 289l-36 203l-102 -203h138z" />
    <glyph glyph-name="Acircumflex" unicode="&#xc2;" horiz-adv-x="656" 
d="M470 138h-241l-69 -138h-172l354 667h182l144 -667h-173zM442 289l-36 203l-102 -203h138zM450 768l-97 -73l-111 54l185 157h89l135 -157l-128 -54z" />
    <glyph glyph-name="Atilde" unicode="&#xc3;" horiz-adv-x="656" 
d="M470 138h-241l-69 -138h-172l354 667h182l144 -667h-173zM442 289l-36 203l-102 -203h138zM515 890l125 -28q-13 -52 -24 -71q-37 -64 -115 -64q-29 0 -79 20q-8 2 -11 2q-8 0 -10 -6l-9 -25l-122 27q16 56 30 76q40 59 111 59q37 0 72 -19q13 -7 15 -7q7 0 11 11z" />
    <glyph glyph-name="Adieresis" unicode="&#xc4;" horiz-adv-x="656" 
d="M470 138h-241l-69 -138h-172l354 667h182l144 -667h-173zM442 289l-36 203l-102 -203h138zM564 883q30 0 50 -19t20 -48q0 -36 -28.5 -63.5t-66.5 -27.5q-31 0 -51 19t-20 48q0 36 29 63.5t67 27.5zM373 883q30 0 50 -19t20 -48q0 -36 -28.5 -63.5t-66.5 -27.5
q-31 0 -51 19t-20 48q0 36 29 63.5t67 27.5z" />
    <glyph glyph-name="Aring" unicode="&#xc5;" horiz-adv-x="656" 
d="M449 667h75l144 -667h-173l-25 138h-241l-69 -138h-172l354 667h76q-42 6 -67.5 34.5t-25.5 71.5q0 56 45 99.5t103 43.5q47 0 78 -30t31 -75q0 -53 -38.5 -95t-94.5 -49zM442 289l-36 203l-102 -203h138zM462 843q-24 0 -42.5 -18t-18.5 -42q0 -19 12.5 -31.5
t31.5 -12.5q24 0 42.5 18t18.5 42q0 19 -12.5 31.5t-31.5 12.5z" />
    <glyph glyph-name="AE" unicode="&#xc6;" horiz-adv-x="857" 
d="M439 138h-174l-94 -138h-183l461 667h475l-23 -149h-241l-16 -106h213l-23 -150h-214l-18 -111h250l-24 -151h-411zM463 289l29 181l-124 -181h95z" />
    <glyph glyph-name="Ccedilla" unicode="&#xc7;" horiz-adv-x="674" 
d="M338 -15l124 -51l-177 -172l-105 51l150 173q-116 17 -187.5 98t-71.5 196q0 104 58.5 198t156.5 150.5t207 56.5q77 0 136.5 -31.5t114.5 -101.5l-134 -107q-62 89 -143 89q-93 0 -162 -70t-69 -164q0 -72 47 -119.5t119 -47.5q84 0 176 91l100 -107
q-147 -135 -296 -135q-20 0 -44 3z" />
    <glyph glyph-name="Egrave" unicode="&#xc8;" horiz-adv-x="501" 
d="M545 518h-241l-16 -106h213l-23 -150h-214l-18 -111h250l-24 -151h-411l106 667h401zM222 858l154 69l115 -178l-114 -55z" />
    <glyph glyph-name="Eacute" unicode="&#xc9;" horiz-adv-x="501" 
d="M545 518h-241l-16 -106h213l-23 -150h-214l-18 -111h250l-24 -151h-411l106 667h401zM582 858l-206 -164l-97 55l171 178z" />
    <glyph glyph-name="Ecircumflex" unicode="&#xca;" horiz-adv-x="501" 
d="M545 518h-241l-16 -106h213l-23 -150h-214l-18 -111h250l-24 -151h-411l106 667h401zM388 768l-97 -73l-110 54l184 157h90l134 -157l-127 -54z" />
    <glyph glyph-name="Edieresis" unicode="&#xcb;" horiz-adv-x="501" 
d="M545 518h-241l-16 -106h213l-23 -150h-214l-18 -111h250l-24 -151h-411l106 667h401zM502 883q30 0 50 -19t20 -48q0 -36 -28.5 -63.5t-66.5 -27.5q-31 0 -51 19t-20 48q0 36 29 63.5t67 27.5zM311 883q30 0 50 -19t20 -48q0 -36 -28.5 -63.5t-66.5 -27.5q-31 0 -51 19
t-20 48q0 36 29 63.5t67 27.5z" />
    <glyph glyph-name="Igrave" unicode="&#xcc;" horiz-adv-x="285" 
d="M329 667l-105 -667h-163l106 667h162zM78 858l153 69l116 -178l-115 -55z" />
    <glyph glyph-name="Iacute" unicode="&#xcd;" horiz-adv-x="285" 
d="M329 667l-105 -667h-163l106 667h162zM468 858l-207 -164l-97 55l172 178z" />
    <glyph glyph-name="Icircumflex" unicode="&#xce;" horiz-adv-x="289" 
d="M330 667l-106 -667h-163l106 667h163zM264 768l-97 -73l-110 54l184 157h90l134 -157l-127 -54z" />
    <glyph glyph-name="Idieresis" unicode="&#xcf;" horiz-adv-x="285" 
d="M329 667l-105 -667h-163l106 667h162zM190 883q31 0 51 -19t20 -48q0 -36 -29 -63.5t-67 -27.5q-31 0 -51 19t-20 48q0 36 29 63.5t67 27.5zM375 883q30 0 50 -19t20 -48q0 -36 -28.5 -63.5t-66.5 -27.5q-31 0 -51 19t-20 48q0 36 29 63.5t67 27.5z" />
    <glyph glyph-name="Eth" unicode="&#xd0;" horiz-adv-x="636" 
d="M142 430l37 237h170q149 0 235 -73.5t86 -200.5q0 -171 -120.5 -282t-305.5 -111h-170l44 280h-59l24 150h59zM305 430h142l-24 -150h-142l-21 -129h10q106 0 170.5 60t64.5 158q0 70 -46 108t-131 38h-10z" />
    <glyph glyph-name="Ntilde" unicode="&#xd1;" horiz-adv-x="709" 
d="M61 0l106 667h134l230 -375l59 375h163l-106 -667h-134l-230 375l-59 -375h-163zM551 890l126 -28q-14 -52 -24 -71q-38 -64 -115 -64q-29 0 -80 20q-8 2 -11 2q-7 0 -9 -6l-9 -25l-122 27q15 56 29 76q40 59 112 59q36 0 71 -19q13 -7 16 -7q8 0 10 11z" />
    <glyph glyph-name="Ograve" unicode="&#xd2;" horiz-adv-x="764" 
d="M331 858l154 69l115 -178l-114 -55zM494 685q129 0 216.5 -86t87.5 -213q0 -104 -59 -197.5t-157 -150t-207 -56.5q-131 0 -216.5 86t-85.5 216q0 103 58.5 196t156.5 149t206 56zM468 534q-92 0 -161.5 -70.5t-69.5 -163.5q0 -70 48 -118.5t116 -48.5q92 0 162 70.5
t70 162.5q0 72 -47 120t-118 48z" />
    <glyph glyph-name="Oacute" unicode="&#xd3;" horiz-adv-x="764" 
d="M494 685q129 0 216.5 -86t87.5 -213q0 -104 -59 -197.5t-157 -150t-207 -56.5q-131 0 -216.5 86t-85.5 216q0 103 58.5 196t156.5 149t206 56zM468 534q-92 0 -161.5 -70.5t-69.5 -163.5q0 -70 48 -118.5t116 -48.5q92 0 162 70.5t70 162.5q0 72 -47 120t-118 48z
M706 858l-207 -164l-97 55l172 178z" />
    <glyph glyph-name="Ocircumflex" unicode="&#xd4;" horiz-adv-x="764" 
d="M494 685q129 0 216.5 -86t87.5 -213q0 -104 -59 -197.5t-157 -150t-207 -56.5q-131 0 -216.5 86t-85.5 216q0 103 58.5 196t156.5 149t206 56zM468 534q-92 0 -161.5 -70.5t-69.5 -163.5q0 -70 48 -118.5t116 -48.5q92 0 162 70.5t70 162.5q0 72 -47 120t-118 48z
M503 768l-96 -73l-111 54l185 157h89l135 -157l-128 -54z" />
    <glyph glyph-name="Otilde" unicode="&#xd5;" horiz-adv-x="764" 
d="M494 685q129 0 216.5 -86t87.5 -213q0 -104 -59 -197.5t-157 -150t-207 -56.5q-131 0 -216.5 86t-85.5 216q0 103 58.5 196t156.5 149t206 56zM468 534q-92 0 -161.5 -70.5t-69.5 -163.5q0 -70 48 -118.5t116 -48.5q92 0 162 70.5t70 162.5q0 72 -47 120t-118 48z
M569 890l125 -28q-13 -52 -24 -71q-37 -64 -115 -64q-29 0 -80 20q-6 2 -11 2q-7 0 -9 -6l-9 -25l-122 27q10 38 14.5 49.5t15.5 26.5q40 59 111 59q38 0 71 -19q13 -7 16 -7q7 0 11 11z" />
    <glyph glyph-name="Odieresis" unicode="&#xd6;" horiz-adv-x="764" 
d="M494 685q129 0 216.5 -86t87.5 -213q0 -104 -59 -197.5t-157 -150t-207 -56.5q-131 0 -216.5 86t-85.5 216q0 103 58.5 196t156.5 149t206 56zM468 534q-92 0 -161.5 -70.5t-69.5 -163.5q0 -70 48 -118.5t116 -48.5q92 0 162 70.5t70 162.5q0 72 -47 120t-118 48z
M618 883q30 0 50 -19t20 -48q0 -36 -28.5 -63.5t-66.5 -27.5q-31 0 -51 19t-20 48q0 36 29 63.5t67 27.5zM427 883q30 0 50 -19t20 -48q0 -36 -28.5 -63.5t-66.5 -27.5q-31 0 -51 19t-20 48q0 36 29 63.5t67 27.5z" />
    <glyph glyph-name="multiply" unicode="&#xd7;" horiz-adv-x="556" 
d="M226 312l-118 141l117 101l119 -141l163 141l85 -101l-163 -141l119 -141l-118 -101l-118 141l-164 -141l-85 101z" />
    <glyph glyph-name="Oslash" unicode="&#xd8;" horiz-adv-x="771" 
d="M828 585l-63 -53q36 -67 36 -146q0 -104 -59 -197.5t-157 -150t-206 -56.5q-110 0 -194 66l-62 -52l-75 86l63 53q-36 64 -36 146q0 104 59 197.5t157 150t206 56.5q106 0 194 -66l62 52zM629 418l-312 -260q41 -25 87 -25q92 0 162 70t70 161q0 29 -7 54zM247 248
l313 261q-41 25 -88 25q-92 0 -162 -70.5t-70 -163.5q0 -27 7 -52z" />
    <glyph glyph-name="Ugrave" unicode="&#xd9;" horiz-adv-x="648" 
d="M330 667l-65 -407q-6 -46 -6 -57q0 -31 23.5 -50.5t61.5 -19.5q27 0 54 11.5t41 28.5q16 21 26 87l65 407h163l-68 -424q-16 -102 -75 -164q-43 -45 -104 -71t-124 -26q-98 0 -162.5 56t-64.5 142q0 26 5 63l67 424h163zM269 858l154 69l115 -178l-114 -55z" />
    <glyph glyph-name="Uacute" unicode="&#xda;" horiz-adv-x="648" 
d="M330 667l-65 -407q-6 -46 -6 -57q0 -31 23.5 -50.5t61.5 -19.5q27 0 54 11.5t41 28.5q16 21 26 87l65 407h163l-68 -424q-16 -102 -75 -164q-43 -45 -104 -71t-124 -26q-98 0 -162.5 56t-64.5 142q0 26 5 63l67 424h163zM651 858l-206 -164l-97 55l171 178z" />
    <glyph glyph-name="Ucircumflex" unicode="&#xdb;" horiz-adv-x="648" 
d="M330 667l-65 -407q-6 -46 -6 -57q0 -31 23.5 -50.5t61.5 -19.5q27 0 54 11.5t41 28.5q16 21 26 87l65 407h163l-68 -424q-16 -102 -75 -164q-43 -45 -104 -71t-124 -26q-98 0 -162.5 56t-64.5 142q0 26 5 63l67 424h163zM446 768l-97 -73l-110 54l184 157h90l134 -157
l-127 -54z" />
    <glyph glyph-name="Udieresis" unicode="&#xdc;" horiz-adv-x="648" 
d="M330 667l-65 -407q-6 -46 -6 -57q0 -31 23.5 -50.5t61.5 -19.5q27 0 54 11.5t41 28.5q16 21 26 87l65 407h163l-68 -424q-16 -102 -75 -164q-43 -45 -104 -71t-124 -26q-98 0 -162.5 56t-64.5 142q0 26 5 63l67 424h163zM560 883q30 0 50 -19t20 -48q0 -36 -28.5 -63.5
t-66.5 -27.5q-31 0 -51 19t-20 48q0 36 29 63.5t67 27.5zM369 883q30 0 50 -19t20 -48q0 -36 -28.5 -63.5t-66.5 -27.5q-31 0 -51 19t-20 48q0 36 29 63.5t67 27.5z" />
    <glyph glyph-name="Yacute" unicode="&#xdd;" horiz-adv-x="577" 
d="M251 274l-164 393h183l89 -223l160 223h183l-289 -393l-43 -274h-163zM616 858l-207 -164l-97 55l172 178z" />
    <glyph glyph-name="Thorn" unicode="&#xde;" horiz-adv-x="486" 
d="M317 591h7q121 0 174 -56q47 -50 47 -128q0 -98 -67 -173q-76 -88 -224 -88h-7l-23 -146h-163l106 667h162zM293 442l-24 -147h17q62 0 82 31q18 26 18 59q0 32 -17 44.5t-60 12.5h-16z" />
    <glyph glyph-name="germandbls" unicode="&#xdf;" horiz-adv-x="538" 
d="M227 0l22 140h44q42 0 70 26t28 65q0 29 -18.5 42.5t-58.5 13.5h-33l22 138h33q26 0 37 16q17 23 17 58q0 48 -49 48q-26 0 -43 -17.5t-22 -48.5l-76 -481h-156l76 481q14 88 82.5 146t157.5 58q83 0 134 -46t51 -120q0 -75 -54 -141q57 -51 57 -130q0 -104 -81.5 -176
t-198.5 -72h-41z" />
    <glyph glyph-name="agrave" unicode="&#xe0;" horiz-adv-x="543" 
d="M499 0h-157l3 18q-58 -36 -113 -36q-80 0 -132 56.5t-52 142.5q0 111 79.5 195.5t183.5 84.5q52 0 99 -36l2 18h157zM309 321q-43 0 -72.5 -35t-29.5 -87q0 -36 19.5 -56.5t53.5 -20.5q43 0 72 35t29 87q0 37 -19 57t-53 20zM174 645l152 68l115 -177l-113 -54z" />
    <glyph glyph-name="aacute" unicode="&#xe1;" horiz-adv-x="543" 
d="M553 645l-207 -164l-97 55l172 178zM499 0h-157l3 18q-58 -36 -113 -36q-80 0 -132 56.5t-52 142.5q0 111 79.5 195.5t183.5 84.5q52 0 99 -36l2 18h157zM309 321q-43 0 -72.5 -35t-29.5 -87q0 -36 19.5 -56.5t53.5 -20.5q43 0 72 35t29 87q0 37 -19 57t-53 20z" />
    <glyph glyph-name="acircumflex" unicode="&#xe2;" horiz-adv-x="543" 
d="M499 0h-157l3 18q-58 -36 -113 -36q-80 0 -132 56.5t-52 142.5q0 111 79.5 195.5t183.5 84.5q52 0 99 -36l2 18h157zM309 321q-43 0 -72.5 -35t-29.5 -87q0 -36 19.5 -56.5t53.5 -20.5q43 0 72 35t29 87q0 37 -19 57t-53 20zM346 561l-98 -78l-109 53l184 156h89
l133 -156l-126 -53z" />
    <glyph glyph-name="atilde" unicode="&#xe3;" horiz-adv-x="543" 
d="M499 0h-157l3 18q-58 -36 -113 -36q-80 0 -132 56.5t-52 142.5q0 111 79.5 195.5t183.5 84.5q52 0 99 -36l2 18h157zM309 321q-43 0 -72.5 -35t-29.5 -87q0 -36 19.5 -56.5t53.5 -20.5q43 0 72 35t29 87q0 37 -19 57t-53 20zM411 677l125 -27q-13 -53 -24 -71
q-17 -30 -48 -47t-67 -17q-29 0 -80 20q-6 2 -11 2q-7 0 -9 -7l-9 -24l-122 27q14 54 29 75q42 60 112 60q38 0 71 -19q13 -7 16 -7q7 0 11 11z" />
    <glyph glyph-name="adieresis" unicode="&#xe4;" horiz-adv-x="543" 
d="M499 0h-157l3 18q-58 -36 -113 -36q-80 0 -132 56.5t-52 142.5q0 111 79.5 195.5t183.5 84.5q52 0 99 -36l2 18h157zM309 321q-43 0 -72.5 -35t-29.5 -87q0 -36 19.5 -56.5t53.5 -20.5q43 0 72 35t29 87q0 37 -19 57t-53 20zM469 676q30 0 50 -19t20 -48
q0 -36 -28.5 -63.5t-66.5 -27.5q-31 0 -51 19t-20 48q0 36 29 63.5t67 27.5zM278 676q30 0 50 -19t20 -48q0 -36 -28.5 -63.5t-66.5 -27.5q-31 0 -51 19t-20 48q0 36 29 63.5t67 27.5z" />
    <glyph glyph-name="aring" unicode="&#xe5;" horiz-adv-x="543" 
d="M382 716q47 0 78 -30t31 -75q0 -57 -45 -101t-103 -44q-47 0 -78 30.5t-31 76.5q0 56 45 99.5t103 43.5zM371 643q-24 0 -42.5 -18t-18.5 -42q0 -19 12.5 -31.5t31.5 -12.5q24 0 42.5 18t18.5 42q0 19 -12.5 31.5t-31.5 12.5zM499 0h-157l3 18q-58 -36 -113 -36
q-80 0 -132 56.5t-52 142.5q0 111 79.5 195.5t183.5 84.5q52 0 99 -36l2 18h157zM309 321q-43 0 -72.5 -35t-29.5 -87q0 -36 19.5 -56.5t53.5 -20.5q43 0 72 35t29 87q0 37 -19 57t-53 20z" />
    <glyph glyph-name="ae" unicode="&#xe6;" horiz-adv-x="772" 
d="M143 285l-65 102q120 74 230 74q95 0 143 -48q69 48 152 48q84 0 137.5 -55.5t53.5 -143.5q0 -34 -12 -89h-301q8 -31 23 -44t43 -13q42 0 73 34l135 -53q-96 -115 -227 -115q-81 0 -136 47q-66 -47 -162 -47q-88 0 -141 37.5t-53 99.5q0 72 62.5 115.5t166.5 43.5h67
q-5 27 -17.5 37.5t-38.5 10.5q-55 0 -133 -41zM497 270h147q-4 31 -19.5 44t-47.5 13q-30 0 -48 -13t-32 -44zM325 180h-63q-70 0 -70 -36q0 -30 57 -30q66 0 72 42z" />
    <glyph glyph-name="ccedilla" unicode="&#xe7;" horiz-adv-x="452" 
d="M340 -66l-177 -172l-105 51l151 175zM507 381l-110 -108q-38 48 -84 48q-47 0 -77 -34.5t-30 -87.5q0 -37 19.5 -57t55.5 -20q50 0 102 51l77 -108q-96 -83 -200 -83q-94 0 -153 56.5t-59 145.5q0 112 86 194.5t202 82.5q100 0 171 -80z" />
    <glyph glyph-name="egrave" unicode="&#xe8;" horiz-adv-x="494" 
d="M167 644l154 69l115 -178l-114 -54zM342 150l135 -53q-96 -115 -228 -115q-89 0 -145 56t-56 145q0 110 83 193.5t193 83.5q84 0 138 -55.5t54 -141.5q0 -35 -13 -90h-300q8 -31 22.5 -44t42.5 -13q43 0 74 34zM219 270h147q-5 31 -20 43.5t-47 12.5q-30 0 -48.5 -12.5
t-31.5 -43.5z" />
    <glyph glyph-name="eacute" unicode="&#xe9;" horiz-adv-x="494" 
d="M531 644l-207 -163l-97 54l172 178zM342 150l135 -53q-96 -115 -228 -115q-89 0 -145 56t-56 145q0 110 83 193.5t193 83.5q84 0 138 -55.5t54 -141.5q0 -35 -13 -90h-300q8 -31 22.5 -44t42.5 -13q43 0 74 34zM219 270h147q-5 31 -20 43.5t-47 12.5q-30 0 -48.5 -12.5
t-31.5 -43.5z" />
    <glyph glyph-name="ecircumflex" unicode="&#xea;" horiz-adv-x="494" 
d="M342 150l135 -53q-96 -115 -228 -115q-89 0 -145 56t-56 145q0 110 83 193.5t193 83.5q84 0 138 -55.5t54 -141.5q0 -35 -13 -90h-300q8 -31 22.5 -44t42.5 -13q43 0 74 34zM219 270h147q-5 31 -20 43.5t-47 12.5q-30 0 -48.5 -12.5t-31.5 -43.5zM335 561l-98 -78
l-109 53l183 156h90l133 -156l-126 -53z" />
    <glyph glyph-name="edieresis" unicode="&#xeb;" horiz-adv-x="494" 
d="M342 150l135 -53q-96 -115 -228 -115q-89 0 -145 56t-56 145q0 110 83 193.5t193 83.5q84 0 138 -55.5t54 -141.5q0 -35 -13 -90h-300q8 -31 22.5 -44t42.5 -13q43 0 74 34zM219 270h147q-5 31 -20 43.5t-47 12.5q-30 0 -48.5 -12.5t-31.5 -43.5zM450 676q30 0 50 -19
t20 -48q0 -36 -28.5 -63.5t-66.5 -27.5q-31 0 -51 19t-20 48q0 36 29 63.5t67 27.5zM259 676q30 0 50 -19t20 -48q0 -36 -28.5 -63.5t-66.5 -27.5q-31 0 -51 19t-20 48q0 36 29 63.5t67 27.5z" />
    <glyph glyph-name="igrave" unicode="&#xec;" horiz-adv-x="246" 
d="M32 644l154 69l115 -178l-114 -54zM271 443l-70 -443h-156l70 443h156z" />
    <glyph glyph-name="iacute" unicode="&#xed;" horiz-adv-x="246" 
d="M418 644l-207 -163l-97 54l172 178zM272 443l-71 -443h-156l70 443h157z" />
    <glyph glyph-name="icircumflex" unicode="&#xee;" horiz-adv-x="246" 
d="M272 443l-70 -443h-157l70 443h157zM212 561l-98 -78l-109 53l183 156h89l134 -156l-126 -53z" />
    <glyph glyph-name="idieresis" unicode="&#xef;" horiz-adv-x="246" 
d="M271 443l-70 -443h-156l70 443h156zM322 676q30 0 50 -19t20 -48q0 -36 -28.5 -63.5t-66.5 -27.5q-31 0 -51 19t-20 48q0 36 29 63.5t67 27.5zM137 676q30 0 50 -19t20 -48q0 -36 -28.5 -63.5t-66.5 -27.5q-31 0 -51 19t-20 48q0 36 29 63.5t67 27.5z" />
    <glyph glyph-name="eth" unicode="&#xf0;" horiz-adv-x="522" 
d="M385 455l-27 42q-6 11 -25 37l-100 -47l-90 92l66 30l-10 3q-24 8 -63 20l97 115q54 -15 77.5 -24t73.5 -34l108 50l83 -92l-96 -45q43 -67 59.5 -122t16.5 -126q0 -67 -17 -135q-31 -119 -108 -177q-80 -60 -174 -60q-91 0 -149.5 57t-58.5 145q0 111 85.5 194t199.5 83
q25 0 52 -6zM308 321q-43 0 -72.5 -35t-29.5 -87q0 -36 19.5 -56.5t53.5 -20.5q44 0 74 35t30 87q0 37 -20 57t-55 20z" />
    <glyph glyph-name="ntilde" unicode="&#xf1;" horiz-adv-x="511" 
d="M271 443l-3 -15q47 33 101 33q64 0 102.5 -42.5t38.5 -112.5q0 -28 -5 -66l-38 -240h-157l37 234q5 27 5 46q0 41 -40 41q-35 0 -51 -20t-25 -75l-36 -226h-156l70 443h157zM413 677l126 -27q-14 -53 -24 -71q-38 -64 -115 -64q-29 0 -80 20q-8 2 -11 2q-7 0 -9 -7
l-9 -24l-122 27q11 40 15 50.5t14 24.5q40 60 112 60q36 0 71 -19q13 -7 16 -7q8 0 10 11z" />
    <glyph glyph-name="ograve" unicode="&#xf2;" horiz-adv-x="519" 
d="M176 645l152 68l115 -177l-113 -54zM336 461q89 0 147 -57t58 -144q0 -112 -85.5 -195t-199.5 -83q-91 0 -149.5 57t-58.5 146q0 112 86 194t202 82zM308 321q-43 0 -72.5 -35t-29.5 -87q0 -36 19.5 -56.5t53.5 -20.5q44 0 74 35t30 87q0 37 -20 57t-55 20z" />
    <glyph glyph-name="oacute" unicode="&#xf3;" horiz-adv-x="519" 
d="M547 645l-205 -163l-96 54l171 177zM336 461q89 0 147 -57t58 -144q0 -112 -85.5 -195t-199.5 -83q-91 0 -149.5 57t-58.5 146q0 112 86 194t202 82zM308 321q-43 0 -72.5 -35t-29.5 -87q0 -36 19.5 -56.5t53.5 -20.5q44 0 74 35t30 87q0 37 -20 57t-55 20z" />
    <glyph glyph-name="ocircumflex" unicode="&#xf4;" horiz-adv-x="519" 
d="M348 561l-97 -78l-110 53l184 156h89l134 -156l-127 -53zM336 461q89 0 147 -57t58 -144q0 -112 -85.5 -195t-199.5 -83q-91 0 -149.5 57t-58.5 146q0 112 86 194t202 82zM308 321q-43 0 -72.5 -35t-29.5 -87q0 -36 19.5 -56.5t53.5 -20.5q44 0 74 35t30 87q0 37 -20 57
t-55 20z" />
    <glyph glyph-name="otilde" unicode="&#xf5;" horiz-adv-x="519" 
d="M413 677l125 -27q-13 -53 -24 -71q-37 -64 -115 -64q-29 0 -80 20q-6 2 -11 2q-6 0 -9 -7l-9 -24l-122 27q16 56 30 75q40 60 111 60q38 0 71 -19q13 -7 16 -7q7 0 11 11zM336 461q89 0 147 -57t58 -144q0 -112 -85.5 -195t-199.5 -83q-91 0 -149.5 57t-58.5 146
q0 112 86 194t202 82zM308 321q-43 0 -72.5 -35t-29.5 -87q0 -36 19.5 -56.5t53.5 -20.5q44 0 74 35t30 87q0 37 -20 57t-55 20z" />
    <glyph glyph-name="odieresis" unicode="&#xf6;" horiz-adv-x="519" 
d="M336 461q89 0 147 -57t58 -144q0 -112 -85.5 -195t-199.5 -83q-91 0 -149.5 57t-58.5 146q0 112 86 194t202 82zM308 321q-43 0 -72.5 -35t-29.5 -87q0 -36 19.5 -56.5t53.5 -20.5q44 0 74 35t30 87q0 37 -20 57t-55 20zM462 676q31 0 51 -19t20 -48q0 -36 -29 -63.5
t-67 -27.5q-31 0 -51 19t-20 48q0 36 29 63.5t67 27.5zM272 676q30 0 50 -19t20 -48q0 -36 -28.5 -63.5t-66.5 -27.5q-31 0 -51 19t-20 48q0 36 29 63.5t67 27.5z" />
    <glyph glyph-name="divide" unicode="&#xf7;" horiz-adv-x="556" 
d="M593 383l-22 -143h-509l23 143h508zM372 588q34 0 56.5 -22.5t22.5 -56.5q0 -43 -33 -75.5t-77 -32.5q-34 0 -56.5 22.5t-22.5 56.5q0 43 33 75.5t77 32.5zM314 222q34 0 56.5 -22.5t22.5 -55.5q0 -43 -33 -75.5t-77 -32.5q-34 0 -56.5 22.5t-22.5 56.5q0 42 33.5 74.5
t76.5 32.5z" />
    <glyph glyph-name="oslash" unicode="&#xf8;" horiz-adv-x="533" 
d="M34 70l38 30q-17 38 -17 84q0 111 85.5 194t199.5 83q76 0 131 -41l34 27l64 -73l-37 -31q16 -36 16 -83q0 -111 -85.5 -194.5t-199.5 -83.5q-73 0 -131 41l-34 -27zM212 212l133 107q-12 4 -26 4q-43 0 -71.5 -29.5t-35.5 -81.5zM392 231l-134 -107q12 -4 26 -4
q43 0 72 29.5t36 81.5z" />
    <glyph glyph-name="ugrave" unicode="&#xf9;" horiz-adv-x="511" 
d="M173 644l153 69l116 -178l-115 -54zM311 0l2 15q-47 -33 -101 -33q-64 0 -102.5 42.5t-38.5 112.5q0 28 5 66l38 240h157l-37 -234q-5 -27 -5 -45q0 -42 40 -42q36 0 51.5 19.5t24.5 75.5l36 226h156l-70 -443h-156z" />
    <glyph glyph-name="uacute" unicode="&#xfa;" horiz-adv-x="511" 
d="M540 644l-207 -163l-97 54l172 178zM311 0l2 15q-47 -33 -101 -33q-64 0 -102.5 42.5t-38.5 112.5q0 28 5 66l38 240h157l-37 -234q-5 -27 -5 -45q0 -42 40 -42q36 0 51.5 19.5t24.5 75.5l36 226h156l-70 -443h-156z" />
    <glyph glyph-name="ucircumflex" unicode="&#xfb;" horiz-adv-x="511" 
d="M311 0l2 15q-47 -33 -101 -33q-64 0 -102.5 42.5t-38.5 112.5q0 28 5 66l38 240h157l-37 -234q-5 -27 -5 -45q0 -42 40 -42q36 0 51.5 19.5t24.5 75.5l36 226h156l-70 -443h-156zM344 561l-97 -78l-110 53l184 156h89l134 -156l-127 -53z" />
    <glyph glyph-name="udieresis" unicode="&#xfc;" horiz-adv-x="511" 
d="M311 0l2 15q-47 -33 -101 -33q-64 0 -102.5 42.5t-38.5 112.5q0 28 5 66l38 240h157l-37 -234q-5 -27 -5 -45q0 -42 40 -42q36 0 51.5 19.5t24.5 75.5l36 226h156l-70 -443h-156zM458 676q31 0 51 -19t20 -48q0 -36 -29 -63.5t-67 -27.5q-31 0 -51 19t-20 48
q0 36 29 63.5t67 27.5zM268 676q30 0 50 -19t20 -48q0 -36 -28.5 -63.5t-66.5 -27.5q-31 0 -51 19t-20 48q0 36 29 63.5t67 27.5z" />
    <glyph glyph-name="yacute" unicode="&#xfd;" 
d="M147 25l-95 418h164l47 -227l138 227h164l-411 -677h-164zM525 644l-207 -163l-97 54l172 178z" />
    <glyph glyph-name="thorn" unicode="&#xfe;" horiz-adv-x="544" 
d="M151 667h156l-38 -242q56 36 112 36q80 0 132.5 -56.5t52.5 -142.5q0 -111 -79.5 -195.5t-183.5 -84.5q-52 0 -99 36l-40 -252h-156zM334 321q-43 0 -72 -35t-29 -87q0 -37 19 -57t53 -20q43 0 72.5 35t29.5 87q0 36 -19.5 56.5t-53.5 20.5z" />
    <glyph glyph-name="ydieresis" unicode="&#xff;" 
d="M147 25l-95 418h164l47 -227l138 227h164l-411 -677h-164zM441 676q30 0 50 -19t20 -48q0 -36 -28.5 -63.5t-66.5 -27.5q-31 0 -51 19t-20 48q0 36 29 63.5t67 27.5zM251 676q30 0 50 -19t20 -48q0 -36 -28.5 -63.5t-66.5 -27.5q-31 0 -51 19t-20 48q0 36 29 63.5
t67 27.5z" />
    <glyph glyph-name="Amacron" unicode="&#x100;" horiz-adv-x="656" 
d="M470 138h-241l-69 -138h-172l354 667h182l144 -667h-173zM442 289l-36 203l-102 -203h138zM291 866h348l-20 -124h-348z" />
    <glyph glyph-name="amacron" unicode="&#x101;" horiz-adv-x="543" 
d="M499 0h-157l3 18q-58 -36 -113 -36q-80 0 -132 56.5t-52 142.5q0 111 79.5 195.5t183.5 84.5q52 0 99 -36l2 18h157zM309 321q-43 0 -72.5 -35t-29.5 -87q0 -36 19.5 -56.5t53.5 -20.5q43 0 72 35t29 87q0 37 -19 57t-53 20zM199 653h348l-20 -124h-348z" />
    <glyph glyph-name="Abreve" unicode="&#x102;" horiz-adv-x="656" 
d="M470 138h-241l-69 -138h-172l354 667h182l144 -667h-173zM442 289l-36 203l-102 -203h138zM297 885l136 10q-1 -6 -1.5 -14.5t-1.5 -13t-1 -6.5q-1 -5 -1 -12q0 -24 28 -24q18 0 30 15q5 6 21 55l133 -10q-16 -56 -22 -70t-21 -33q-62 -80 -161 -80q-63 0 -104.5 35.5
t-41.5 89.5q0 8 7 58z" />
    <glyph glyph-name="abreve" unicode="&#x103;" horiz-adv-x="543" 
d="M499 0h-157l3 18q-58 -36 -113 -36q-80 0 -132 56.5t-52 142.5q0 111 79.5 195.5t183.5 84.5q52 0 99 -36l2 18h157zM309 321q-43 0 -72.5 -35t-29.5 -87q0 -36 19.5 -56.5t53.5 -20.5q43 0 72 35t29 87q0 37 -19 57t-53 20zM195 672l136 10q-2 -31 -3 -37q-1 -5 -1 -13
q0 -25 28 -25q17 0 30 16q5 6 20 58l133 -10q-14 -52 -20.5 -67t-21.5 -35q-62 -80 -161 -80q-62 0 -104 35.5t-42 88.5q0 10 6 59z" />
    <glyph glyph-name="Aogonek" unicode="&#x104;" horiz-adv-x="680" 
d="M524 667l144 -667q-32 -35 -32 -50q0 -4 5 -4q11 0 31 12l30 -107q-79 -26 -116 -26q-51 0 -82.5 24.5t-31.5 64.5t40 86h-17l-25 138h-241l-69 -138h-172l354 667h182zM442 289l-36 203l-102 -203h138z" />
    <glyph glyph-name="aogonek" unicode="&#x105;" horiz-adv-x="543" 
d="M569 443l-70 -443q-33 -36 -33 -50q0 -4 5 -4q10 0 31 12l30 -107q-80 -26 -116 -26q-50 0 -82 24.5t-32 64.5q0 38 40 86l3 18q-58 -36 -113 -36q-80 0 -132 56.5t-52 142.5q0 111 79.5 195.5t183.5 84.5q52 0 99 -36l2 18h157zM309 321q-43 0 -72.5 -35t-29.5 -87
q0 -36 19.5 -56.5t53.5 -20.5q43 0 72 35t29 87q0 37 -19 57t-53 20z" />
    <glyph glyph-name="Cacute" unicode="&#x106;" horiz-adv-x="674" 
d="M744 552l-134 -107q-62 89 -143 89q-93 0 -162 -70t-69 -164q0 -72 47 -119.5t119 -47.5q84 0 176 91l100 -107q-145 -135 -297 -135q-134 0 -222 84.5t-88 213.5q0 104 58.5 198t156.5 150.5t207 56.5q77 0 136.5 -31.5t114.5 -101.5zM697 858l-206 -164l-98 55l172 178
z" />
    <glyph glyph-name="cacute" unicode="&#x107;" horiz-adv-x="452" 
d="M533 644l-207 -163l-97 54l172 178zM507 381l-110 -108q-38 48 -84 48q-47 0 -77 -34.5t-30 -87.5q0 -37 19.5 -57t55.5 -20q50 0 102 51l77 -108q-96 -83 -200 -83q-94 0 -153 56.5t-59 145.5q0 112 86 194.5t202 82.5q100 0 171 -80z" />
    <glyph glyph-name="Ccircumflex" unicode="&#x108;" horiz-adv-x="674" 
d="M744 552l-134 -107q-62 89 -143 89q-93 0 -162 -70t-69 -164q0 -72 47 -119.5t119 -47.5q84 0 176 91l100 -107q-145 -135 -297 -135q-134 0 -222 84.5t-88 213.5q0 104 58.5 198t156.5 150.5t207 56.5q77 0 136.5 -31.5t114.5 -101.5zM490 768l-97 -73l-110 54l184 157
h90l134 -157l-127 -54z" />
    <glyph glyph-name="ccircumflex" unicode="&#x109;" horiz-adv-x="452" 
d="M507 381l-110 -108q-22 27 -40.5 37.5t-44.5 10.5q-46 0 -76 -34.5t-30 -87.5q0 -37 19.5 -57t56.5 -20q49 0 101 51l77 -108q-55 -45 -100.5 -64t-99.5 -19q-94 0 -153 56.5t-59 145.5q0 112 86 194.5t202 82.5q53 0 92 -18.5t79 -61.5zM335 561l-98 -78l-109 53
l183 156h89l134 -156l-126 -53z" />
    <glyph glyph-name="Cdotaccent" unicode="&#x10a;" horiz-adv-x="674" 
d="M744 552l-134 -107q-62 89 -143 89q-93 0 -162 -70t-69 -164q0 -72 47 -119.5t119 -47.5q84 0 176 91l100 -107q-145 -135 -297 -135q-134 0 -222 84.5t-88 213.5q0 104 58.5 198t156.5 150.5t207 56.5q77 0 136.5 -31.5t114.5 -101.5zM519 892q34 0 56 -21.5t22 -53.5
q0 -40 -32 -70.5t-74 -30.5q-34 0 -56.5 21.5t-22.5 53.5q0 40 32.5 70.5t74.5 30.5z" />
    <glyph glyph-name="cdotaccent" unicode="&#x10b;" horiz-adv-x="452" 
d="M507 381l-110 -108q-38 48 -84 48q-47 0 -77 -34.5t-30 -87.5q0 -37 19.5 -57t55.5 -20q50 0 102 51l77 -108q-96 -83 -200 -83q-94 0 -153 56.5t-59 145.5q0 112 86 194.5t202 82.5q100 0 171 -80zM358 685q34 0 56 -21t22 -53q0 -40 -32 -71t-74 -31q-34 0 -56 21.5
t-22 53.5q0 40 32 70.5t74 30.5z" />
    <glyph glyph-name="Ccaron" unicode="&#x10c;" horiz-adv-x="674" 
d="M744 552l-134 -107q-62 89 -143 89q-93 0 -162 -70t-69 -164q0 -72 47 -119.5t119 -47.5q84 0 176 91l100 -107q-145 -135 -297 -135q-134 0 -222 84.5t-88 213.5q0 104 58.5 198t156.5 150.5t207 56.5q77 0 136.5 -31.5t114.5 -101.5zM501 833l97 73l110 -54l-184 -157
h-90l-135 157l128 54z" />
    <glyph glyph-name="ccaron" unicode="&#x10d;" horiz-adv-x="450" 
d="M507 381l-110 -108q-38 48 -84 48q-47 0 -77 -34.5t-30 -87.5q0 -37 19.5 -57t55.5 -20q50 0 102 51l77 -108q-96 -83 -200 -83q-94 0 -153 56.5t-59 145.5q0 112 86 194.5t202 82.5q100 0 171 -80zM345 627l98 78l109 -53l-183 -156h-89l-134 156l126 53z" />
    <glyph glyph-name="Dcaron" unicode="&#x10e;" horiz-adv-x="623" 
d="M167 667h169q150 0 235.5 -72.5t85.5 -200.5q0 -171 -120.5 -282.5t-305.5 -111.5h-170zM305 516l-57 -365h10q105 0 169.5 60.5t64.5 158.5q0 70 -46 108t-131 38h-10zM424 833l97 73l110 -54l-184 -157h-90l-134 157l127 54z" />
    <glyph glyph-name="dcaron" unicode="&#x10f;" horiz-adv-x="707" 
d="M499 0h-157l3 18q-58 -36 -113 -36q-80 0 -132 56.5t-52 142.5q0 111 79.5 195.5t183.5 84.5q51 0 99 -36l38 242h156zM309 321q-43 0 -72.5 -35t-29.5 -87q0 -36 19.5 -56.5t53.5 -20.5q43 0 72 35t29 87q0 37 -19 57t-53 20zM699 712l139 -40l-127 -199l-112 33z" />
    <glyph glyph-name="Dcroat" unicode="&#x110;" horiz-adv-x="636" 
d="M142 430l37 237h170q149 0 235 -73.5t86 -200.5q0 -171 -120.5 -282t-305.5 -111h-170l44 280h-59l24 150h59zM305 430h142l-24 -150h-142l-21 -129h10q106 0 170.5 60t64.5 158q0 70 -46 108t-131 38h-10z" />
    <glyph glyph-name="dcroat" unicode="&#x111;" horiz-adv-x="549" 
d="M419 487h-104l21 132h104l8 48h156l-7 -48h52l-21 -132h-52l-77 -487h-157l3 18q-58 -36 -113 -36q-80 0 -132 56.5t-52 142.5q0 111 79.5 195.5t183.5 84.5q52 0 99 -36zM309 321q-43 0 -72.5 -35t-29.5 -87q0 -36 19.5 -56.5t53.5 -20.5q43 0 72 35t29 87q0 37 -19 57
t-53 20z" />
    <glyph glyph-name="Emacron" unicode="&#x112;" horiz-adv-x="501" 
d="M545 518h-241l-16 -106h213l-23 -150h-214l-18 -111h250l-24 -151h-411l106 667h401zM230 866h348l-20 -124h-348z" />
    <glyph glyph-name="emacron" unicode="&#x113;" horiz-adv-x="494" 
d="M342 150l135 -53q-96 -115 -228 -115q-89 0 -145 56t-56 145q0 110 83 193.5t193 83.5q84 0 138 -55.5t54 -141.5q0 -35 -13 -90h-300q8 -31 22.5 -44t42.5 -13q43 0 74 34zM219 270h147q-5 31 -20 43.5t-47 12.5q-30 0 -48.5 -12.5t-31.5 -43.5zM176 653h348l-20 -124
h-348z" />
    <glyph glyph-name="Ebreve" unicode="&#x114;" horiz-adv-x="500" 
d="M545 518h-241l-16 -106h213l-23 -150h-214l-18 -111h250l-24 -151h-411l106 667h401zM235 885l136 10q0 -7 -1 -14.5t-1.5 -12.5t-0.5 -7q-1 -5 -1 -12q0 -24 28 -24q17 0 30 15q6 7 20 55l133 -10q-15 -54 -21 -69t-21 -34q-63 -80 -161 -80q-63 0 -104.5 35.5
t-41.5 89.5q0 6 6 58z" />
    <glyph glyph-name="ebreve" unicode="&#x115;" horiz-adv-x="494" 
d="M342 150l135 -53q-96 -115 -228 -115q-89 0 -145 56t-56 145q0 110 83 193.5t193 83.5q84 0 138 -55.5t54 -141.5q0 -35 -13 -90h-300q8 -31 22.5 -44t42.5 -13q43 0 74 34zM219 270h147q-5 31 -20 43.5t-47 12.5q-30 0 -48.5 -12.5t-31.5 -43.5zM182 672l136 10
q-1 -7 -1.5 -15.5t-1.5 -14t-1 -7.5q-1 -5 -1 -13q0 -25 28 -25q17 0 30 16q4 5 21 58l132 -10q-14 -52 -20.5 -67t-21.5 -35q-62 -80 -161 -80q-62 0 -104 35.5t-42 88.5q0 9 7 59z" />
    <glyph glyph-name="Edotaccent" unicode="&#x116;" horiz-adv-x="501" 
d="M545 518h-241l-16 -106h213l-23 -150h-214l-18 -111h250l-24 -151h-411l106 667h401zM408 892q34 0 56 -21.5t22 -53.5q0 -40 -32 -70.5t-74 -30.5q-34 0 -56.5 21.5t-22.5 53.5q0 40 32.5 70.5t74.5 30.5z" />
    <glyph glyph-name="edotaccent" unicode="&#x117;" horiz-adv-x="494" 
d="M342 150l135 -53q-96 -115 -228 -115q-89 0 -145 56t-56 145q0 110 83 193.5t193 83.5q84 0 138 -55.5t54 -141.5q0 -35 -13 -90h-300q8 -31 22.5 -44t42.5 -13q43 0 74 34zM219 270h147q-5 31 -20 43.5t-47 12.5q-30 0 -48.5 -12.5t-31.5 -43.5zM355 685q34 0 56 -21
t22 -53q0 -40 -32 -71t-74 -31q-35 0 -57 21t-22 54q0 40 32 70.5t75 30.5z" />
    <glyph glyph-name="Eogonek" unicode="&#x118;" horiz-adv-x="501" 
d="M496 151l-24 -151q-33 -36 -33 -50q0 -4 6 -4q10 0 30 12l30 -107q-80 -26 -116 -26q-50 0 -82 24.5t-32 64.5q0 39 40 86h-254l106 667h401l-23 -149h-241l-16 -106h213l-23 -150h-214l-18 -111h250z" />
    <glyph glyph-name="eogonek" unicode="&#x119;" horiz-adv-x="494" 
d="M342 150l135 -53q-61 -78 -153 -105q-26 -29 -26 -42q0 -4 5 -4q10 0 31 11l30 -107q-58 -19 -74.5 -22.5t-41.5 -3.5q-51 0 -82.5 24.5t-31.5 64.5q0 38 37 83q-58 22 -90.5 71t-32.5 116q0 110 83 193.5t193 83.5q84 0 138 -55.5t54 -141.5q0 -35 -13 -90h-300
q7 -31 22 -43.5t43 -12.5q42 0 74 33zM219 270h147q-5 31 -20 43.5t-47 12.5q-30 0 -48.5 -12.5t-31.5 -43.5z" />
    <glyph glyph-name="Ecaron" unicode="&#x11a;" horiz-adv-x="501" 
d="M545 518h-241l-16 -106h213l-23 -150h-214l-18 -111h250l-24 -151h-411l106 667h401zM398 833l97 73l111 -54l-185 -157h-89l-135 157l128 54z" />
    <glyph glyph-name="ecaron" unicode="&#x11b;" horiz-adv-x="494" 
d="M342 150l135 -53q-96 -115 -228 -115q-89 0 -145 56t-56 145q0 110 83 193.5t193 83.5q84 0 138 -55.5t54 -141.5q0 -35 -13 -90h-300q8 -31 22.5 -44t42.5 -13q43 0 74 34zM219 270h147q-5 31 -20 43.5t-47 12.5q-30 0 -48.5 -12.5t-31.5 -43.5zM346 627l98 78l109 -53
l-183 -156h-90l-133 156l126 53z" />
    <glyph glyph-name="Gcircumflex" unicode="&#x11c;" horiz-adv-x="730" 
d="M423 386h344l-12 -76q-15 -93 -59 -162q-49 -77 -133 -121.5t-179 -44.5q-136 0 -224 84t-88 213q0 161 127.5 283.5t295.5 122.5q78 0 138 -29t121 -96l-134 -108q-38 45 -71.5 63.5t-78.5 18.5q-94 0 -163.5 -70t-69.5 -165q0 -73 48 -119.5t122 -46.5q113 0 166 105
h-173zM492 768l-97 -73l-110 54l184 157h90l134 -157l-127 -54z" />
    <glyph glyph-name="gcircumflex" unicode="&#x11d;" horiz-adv-x="543" 
d="M341 -9l5 27q-60 -36 -113 -36q-80 0 -132.5 56.5t-52.5 142.5q0 111 79.5 195.5t183.5 84.5q52 0 99 -36l3 18h156l-71 -452q-17 -108 -96.5 -175t-189.5 -67q-69 0 -119.5 29.5t-94.5 95.5l123 99q28 -47 52.5 -65.5t58.5 -18.5q92 0 109 102zM309 321q-43 0 -72.5 -35
t-29.5 -87q0 -36 19.5 -56.5t53.5 -20.5q43 0 72 35t29 87q0 37 -19 57t-53 20zM346 561l-97 -78l-110 53l184 156h89l134 -156l-126 -53z" />
    <glyph glyph-name="Gbreve" unicode="&#x11e;" horiz-adv-x="730" 
d="M423 386h344l-12 -76q-15 -93 -59 -162q-49 -77 -133 -121.5t-179 -44.5q-136 0 -224 84t-88 213q0 161 127.5 283.5t295.5 122.5q78 0 138 -29t121 -96l-134 -108q-38 45 -71.5 63.5t-78.5 18.5q-94 0 -163.5 -70t-69.5 -165q0 -73 48 -119.5t122 -46.5q113 0 166 105
h-173zM359 885l136 10q0 -7 -1 -14.5t-1.5 -12.5t-0.5 -7q-1 -5 -1 -12q0 -24 28 -24q17 0 30 15q6 7 20 55l133 -10q-15 -54 -21 -69t-21 -34q-63 -80 -161 -80q-63 0 -104.5 35.5t-41.5 89.5q0 6 6 58z" />
    <glyph glyph-name="gbreve" unicode="&#x11f;" horiz-adv-x="543" 
d="M341 -9l5 27q-60 -36 -113 -36q-80 0 -132.5 56.5t-52.5 142.5q0 111 79.5 195.5t183.5 84.5q52 0 99 -36l3 18h156l-71 -452q-17 -108 -96.5 -175t-189.5 -67q-69 0 -119.5 29.5t-94.5 95.5l123 99q28 -47 52.5 -65.5t58.5 -18.5q92 0 109 102zM309 321q-43 0 -72.5 -35
t-29.5 -87q0 -36 19.5 -56.5t53.5 -20.5q43 0 72 35t29 87q0 37 -19 57t-53 20zM196 672l136 10q-1 -7 -1.5 -15.5t-1.5 -14t-1 -7.5q-1 -5 -1 -13q0 -25 28 -25q18 0 30 16q5 6 21 58l133 -10q-15 -53 -21.5 -68t-21.5 -34q-62 -80 -161 -80q-62 0 -104 35.5t-42 88.5
q0 8 7 59z" />
    <glyph glyph-name="Gdotaccent" unicode="&#x120;" horiz-adv-x="730" 
d="M423 386h344l-12 -76q-15 -93 -59 -162q-49 -77 -133 -121.5t-179 -44.5q-136 0 -224 84t-88 213q0 161 127.5 283.5t295.5 122.5q78 0 138 -29t121 -96l-134 -108q-38 45 -71.5 63.5t-78.5 18.5q-94 0 -163.5 -70t-69.5 -165q0 -73 48 -119.5t122 -46.5q113 0 166 105
h-173zM529 892q34 0 56 -21.5t22 -53.5q0 -40 -32 -70.5t-74 -30.5q-34 0 -56 21.5t-22 53.5q0 40 32 70.5t74 30.5z" />
    <glyph glyph-name="gdotaccent" unicode="&#x121;" horiz-adv-x="543" 
d="M341 -9l5 27q-60 -36 -113 -36q-80 0 -132.5 56.5t-52.5 142.5q0 111 79.5 195.5t183.5 84.5q52 0 99 -36l3 18h156l-71 -452q-17 -108 -96.5 -175t-189.5 -67q-69 0 -119.5 29.5t-94.5 95.5l123 99q28 -47 52.5 -65.5t58.5 -18.5q92 0 109 102zM309 321q-43 0 -72.5 -35
t-29.5 -87q0 -36 19.5 -56.5t53.5 -20.5q43 0 72 35t29 87q0 37 -19 57t-53 20zM367 685q34 0 56 -21t22 -53q0 -40 -32 -71t-74 -31q-35 0 -57 21t-22 54q0 40 32 70.5t75 30.5z" />
    <glyph glyph-name="Gcommaaccent" unicode="&#x122;" horiz-adv-x="730" 
d="M423 386h344l-12 -76q-15 -93 -59 -162q-49 -77 -133 -121.5t-179 -44.5q-136 0 -224 84t-88 213q0 161 127.5 283.5t295.5 122.5q78 0 138 -29t121 -96l-134 -108q-38 45 -71.5 63.5t-78.5 18.5q-94 0 -163.5 -70t-69.5 -165q0 -73 48 -119.5t122 -46.5q113 0 166 105
h-173zM324 -13l138 -40l-127 -199l-112 33z" />
    <glyph glyph-name="gcommaaccent" unicode="&#x123;" horiz-adv-x="543" 
d="M341 -9l5 27q-60 -36 -113 -36q-80 0 -132.5 56.5t-52.5 142.5q0 111 79.5 195.5t183.5 84.5q52 0 99 -36l3 18h156l-71 -452q-17 -108 -96.5 -175t-189.5 -67q-69 0 -119.5 29.5t-94.5 95.5l123 99q28 -47 52.5 -65.5t58.5 -18.5q92 0 109 102zM309 321q-43 0 -72.5 -35
t-29.5 -87q0 -36 19.5 -56.5t53.5 -20.5q43 0 72 35t29 87q0 37 -19 57t-53 20zM397 472l-139 39l127 200l112 -33z" />
    <glyph glyph-name="Hcircumflex" unicode="&#x124;" horiz-adv-x="655" 
d="M289 413h207l41 254h162l-105 -667h-163l41 262h-207l-41 -262h-163l106 667h162zM449 768l-97 -73l-110 54l184 157h90l134 -157l-127 -54z" />
    <glyph glyph-name="hcircumflex" unicode="&#x125;" horiz-adv-x="511" 
d="M306 667l-38 -238q48 32 101 32q64 0 102.5 -42.5t38.5 -111.5q0 -29 -5 -66l-38 -241h-157l37 234q5 27 5 46q0 41 -40 41q-35 0 -51 -20t-25 -75l-36 -226h-156l106 667h156zM377 768l-97 -73l-110 54l184 157h90l134 -157l-127 -54z" />
    <glyph glyph-name="Hbar" unicode="&#x126;" horiz-adv-x="649" 
d="M526 619l8 48h162l-7 -48h53l-21 -132h-53l-77 -487h-163l41 262h-207l-41 -262h-163l77 487h-53l21 132h53l8 48h162l-7 -48h207zM505 487h-207l-12 -74h207z" />
    <glyph glyph-name="hbar" unicode="&#x127;" horiz-adv-x="503" 
d="M113 487h-52l21 132h52l8 48h156l-8 -48h105l-21 -132h-105l-9 -58q48 32 101 32q64 0 102.5 -42.5t38.5 -111.5q0 -29 -5 -66l-38 -241h-157l37 234q5 27 5 46q0 41 -40 41q-35 0 -51 -20t-25 -75l-36 -226h-156z" />
    <glyph glyph-name="Itilde" unicode="&#x128;" horiz-adv-x="285" 
d="M329 667l-105 -667h-163l106 667h162zM329 890l126 -28q-14 -52 -24 -71q-38 -64 -115 -64q-29 0 -80 20q-8 2 -11 2q-6 0 -10 -6l-8 -25l-122 27q15 56 29 76q40 59 111 59q37 0 72 -19q13 -7 15 -7q9 0 11 11z" />
    <glyph glyph-name="itilde" unicode="&#x129;" horiz-adv-x="246" 
d="M272 443l-70 -443h-157l70 443h157zM277 677l125 -27q-13 -53 -24 -71q-17 -30 -48 -47t-67 -17q-29 0 -80 20q-8 2 -11 2q-7 0 -9 -7l-9 -24l-122 27q14 54 29 75q42 60 112 60q38 0 71 -19q13 -7 16 -7q7 0 11 11z" />
    <glyph glyph-name="Imacron" unicode="&#x12a;" horiz-adv-x="285" 
d="M329 667l-105 -667h-163l106 667h162zM106 866h348l-20 -124h-348z" />
    <glyph glyph-name="imacron" unicode="&#x12b;" horiz-adv-x="246" 
d="M272 443l-70 -443h-157l70 443h157zM53 653h348l-20 -124h-348z" />
    <glyph glyph-name="Ibreve" unicode="&#x12c;" horiz-adv-x="285" 
d="M329 667l-105 -667h-163l106 667h162zM111 885l136 10q0 -7 -1 -14.5t-1.5 -12.5t-0.5 -7q-1 -5 -1 -12q0 -24 28 -24q17 0 30 15q6 7 20 55l133 -10q-15 -54 -21 -69t-21 -34q-63 -80 -161 -80q-63 0 -104.5 35.5t-41.5 89.5q0 6 6 58z" />
    <glyph glyph-name="ibreve" unicode="&#x12d;" horiz-adv-x="246" 
d="M272 443l-71 -443h-156l70 443h157zM58 672l136 10q0 -7 -1 -15.5t-1.5 -14t-0.5 -7.5q-1 -5 -1 -13q0 -11 7.5 -18t19.5 -7q18 0 30 16q5 6 21 58l133 -10q-15 -53 -21 -68t-21 -34q-63 -80 -161 -80q-62 0 -104 35.5t-42 88.5q0 10 6 59z" />
    <glyph glyph-name="Iogonek" unicode="&#x12e;" horiz-adv-x="285" 
d="M330 667l-106 -667q-32 -35 -32 -50q0 -4 5 -4q10 0 31 12l30 -107q-58 -19 -74.5 -22.5t-41.5 -3.5q-51 0 -82.5 24.5t-31.5 64.5t40 86h-7l106 667h163z" />
    <glyph glyph-name="iogonek" unicode="&#x12f;" horiz-adv-x="246" 
d="M271 443l-70 -443q-32 -35 -32 -50q0 -4 5 -4q10 0 31 11l30 -107q-60 -19 -75.5 -22.5t-40.5 -3.5q-51 0 -82.5 24.5t-31.5 64.5t40 87l70 443h156zM232 685q34 0 56 -21t22 -53q0 -40 -32 -71t-74 -31q-35 0 -57 21t-22 54q0 40 32 70.5t75 30.5z" />
    <glyph glyph-name="Idotaccent" unicode="&#x130;" horiz-adv-x="285" 
d="M329 667l-105 -667h-163l106 667h162zM284 892q34 0 56 -21.5t22 -53.5q0 -40 -32 -70.5t-74 -30.5q-34 0 -56.5 21.5t-22.5 53.5q0 40 32.5 70.5t74.5 30.5z" />
    <glyph glyph-name="dotlessi" unicode="&#x131;" horiz-adv-x="246" 
d="M272 443l-71 -443h-156l70 443h157z" />
    <glyph glyph-name="IJ" unicode="&#x132;" horiz-adv-x="721" 
d="M329 667l-105 -667h-163l106 667h162zM765 667l-72 -456q-20 -119 -88 -179q-61 -50 -144 -50q-56 0 -97.5 22t-81.5 73l113 117q43 -61 79 -61q44 0 56 78l72 456h163z" />
    <glyph glyph-name="ij" unicode="&#x133;" horiz-adv-x="494" 
d="M232 685q34 0 56 -21t22 -53q0 -40 -32 -71t-74 -31q-35 0 -57 21t-22 54q0 40 32 70.5t75 30.5zM272 443l-71 -443h-156l70 443h157zM519 443l-83 -527q-13 -77 -56.5 -119.5t-110.5 -42.5q-39 0 -81 16l22 142q34 -15 50 -15q10 0 14 5.5t7 21.5l82 519h156zM480 685
q34 0 56 -21t22 -53q0 -40 -32 -71t-74 -31q-35 0 -57 21t-22 54q0 40 32 70.5t75 30.5z" />
    <glyph glyph-name="Jcircumflex" unicode="&#x134;" horiz-adv-x="436" 
d="M480 667l-72 -456q-18 -119 -88 -179q-59 -50 -144 -50q-56 0 -97.5 22t-81.5 73l114 117q41 -61 78 -61q44 0 56 78l72 456h163zM381 768l-96 -73l-111 54l185 157h89l135 -157l-128 -54z" />
    <glyph glyph-name="jcircumflex" unicode="&#x135;" horiz-adv-x="251" 
d="M277 443l-84 -527q-12 -77 -55.5 -119.5t-111.5 -42.5q-37 0 -81 16l23 142q33 -15 50 -15q10 0 14 5.5t6 21.5l82 519h157zM203 561l-98 -78l-109 53l183 156h89l134 -156l-126 -53z" />
    <glyph glyph-name="Kcommaaccent" unicode="&#x136;" horiz-adv-x="628" 
d="M433 383l194 -383h-193l-131 265l-44 -40l-35 -225h-163l106 667h162l-35 -220l242 220h210zM281 -13l139 -40l-128 -199l-111 33z" />
    <glyph glyph-name="kcommaaccent" unicode="&#x137;" horiz-adv-x="509" 
d="M365 254l161 -254h-196l-91 149l-17 -14l-22 -135h-156l106 667h156l-52 -331l127 107h211zM212 -13l139 -40l-127 -199l-112 33z" />
    <glyph glyph-name="kgreenlandic" unicode="&#x138;" horiz-adv-x="509" 
d="M365 254l161 -254h-196l-91 149l-17 -14l-22 -135h-156l70 443h157l-17 -107l127 107h211z" />
    <glyph glyph-name="Lacute" unicode="&#x139;" horiz-adv-x="451" 
d="M329 667l-81 -516h230l-24 -151h-393l106 667h162zM476 858l-207 -164l-97 55l172 178z" />
    <glyph glyph-name="lacute" unicode="&#x13a;" horiz-adv-x="247" 
d="M451 855l-206 -163l-97 55l172 178zM201 0h-156l106 667h156z" />
    <glyph glyph-name="Lcommaaccent" unicode="&#x13b;" horiz-adv-x="451" 
d="M329 667l-81 -516h230l-24 -151h-393l106 667h162zM217 -13l138 -40l-127 -199l-112 33z" />
    <glyph glyph-name="lcommaaccent" unicode="&#x13c;" horiz-adv-x="247" 
d="M202 0h-156l105 667h157zM70 -13l139 -40l-127 -199l-112 33z" />
    <glyph glyph-name="Lcaron" unicode="&#x13d;" horiz-adv-x="451" 
d="M329 667l-81 -516h230l-24 -151h-393l106 667h162zM432 712l139 -40l-127 -199l-112 33z" />
    <glyph glyph-name="lcaron" unicode="&#x13e;" horiz-adv-x="410" 
d="M201 0h-156l106 667h156zM402 712l138 -40l-127 -199l-112 33z" />
    <glyph glyph-name="Ldot" unicode="&#x13f;" horiz-adv-x="451" 
d="M329 667l-81 -516h230l-24 -151h-393l106 667h162zM426 421q34 0 56 -21t22 -53q0 -40 -32 -71t-74 -31q-34 0 -56 21t-22 54q0 40 32 70.5t74 30.5z" />
    <glyph glyph-name="ldot" unicode="&#x140;" horiz-adv-x="420" 
d="M400 421q34 0 56 -21t22 -53q0 -40 -32 -71t-74 -31q-35 0 -57 21t-22 54q0 40 32 70.5t75 30.5zM201 0h-156l106 667h156z" />
    <glyph glyph-name="Lslash" unicode="&#x141;" horiz-adv-x="466" 
d="M313 471l111 59l-24 -149l-110 -60l-27 -170h230l-24 -151h-393l36 226l-73 -39l24 150l72 39l47 291h162z" />
    <glyph glyph-name="lslash" unicode="&#x142;" horiz-adv-x="287" 
d="M102 229l-65 -36l24 152l65 35l45 287h157l-31 -193l65 36l-24 -151l-65 -36l-51 -323h-156z" />
    <glyph glyph-name="Nacute" unicode="&#x143;" horiz-adv-x="709" 
d="M61 0l106 667h134l230 -375l59 375h163l-106 -667h-134l-230 375l-59 -375h-163zM709 858l-207 -164l-97 55l172 178z" />
    <glyph glyph-name="nacute" unicode="&#x144;" horiz-adv-x="511" 
d="M556 644l-207 -163l-97 54l172 178zM271 443l-3 -15q47 33 101 33q64 0 102.5 -42.5t38.5 -112.5q0 -28 -5 -66l-38 -240h-157l37 234q5 27 5 46q0 41 -40 41q-35 0 -51 -20t-25 -75l-36 -226h-156l70 443h157z" />
    <glyph glyph-name="Ncommaaccent" unicode="&#x145;" horiz-adv-x="709" 
d="M61 0l106 667h134l230 -375l59 375h163l-106 -667h-134l-230 375l-59 -375h-163zM313 -13l139 -40l-127 -199l-112 33z" />
    <glyph glyph-name="ncommaaccent" unicode="&#x146;" horiz-adv-x="511" 
d="M271 443l-3 -15q47 33 101 33q64 0 102.5 -42.5t38.5 -112.5q0 -28 -5 -66l-38 -240h-157l37 234q5 27 5 46q0 41 -40 41q-35 0 -51 -20t-25 -75l-36 -226h-156l70 443h157zM215 -13l138 -40l-127 -199l-112 33z" />
    <glyph glyph-name="Ncaron" unicode="&#x147;" horiz-adv-x="709" 
d="M61 0l106 667h134l230 -375l59 375h163l-106 -667h-134l-230 375l-59 -375h-163zM503 833l96 73l111 -54l-184 -157h-90l-135 157l128 54z" />
    <glyph glyph-name="ncaron" unicode="&#x148;" horiz-adv-x="511" 
d="M271 443l-3 -15q47 33 101 33q64 0 102.5 -42.5t38.5 -112.5q0 -28 -5 -66l-38 -240h-157l37 234q5 27 5 46q0 41 -40 41q-35 0 -51 -20t-25 -75l-36 -226h-156l70 443h157zM359 627l98 78l110 -53l-184 -156h-89l-134 156l126 53z" />
    <glyph glyph-name="napostrophe" unicode="&#x149;" horiz-adv-x="619" 
d="M200 700l131 -45l-173 -266l-108 41zM379 443l-2 -15q47 33 100 33q64 0 103 -42.5t39 -112.5q0 -32 -6 -66l-38 -240h-156l37 234q5 27 5 46q0 41 -40 41q-36 0 -51.5 -19.5t-24.5 -75.5l-36 -226h-156l70 443h156z" />
    <glyph glyph-name="Eng" unicode="&#x14a;" horiz-adv-x="709" 
d="M647 0q-14 -74 -57 -114.5t-109 -40.5q-39 0 -81 16l22 142q33 -15 51 -15q16 0 20 27l2 14l-212 346l-59 -375h-163l106 667h134l230 -375l59 375h163z" />
    <glyph glyph-name="eng" unicode="&#x14b;" horiz-adv-x="511" 
d="M467 0q-14 -74 -57 -114.5t-109 -40.5q-39 0 -81 16l22 142q33 -15 50 -15q10 0 14 5.5t7 21.5l22 141l12 78q5 27 5 46q0 41 -40 41q-35 0 -51 -20t-25 -75l-36 -226h-156l70 443h157l-3 -15q47 33 101 33q64 0 102.5 -42.5t38.5 -112.5q0 -28 -5 -66z" />
    <glyph glyph-name="Omacron" unicode="&#x14c;" horiz-adv-x="764" 
d="M494 685q129 0 216.5 -86t87.5 -213q0 -104 -59 -197.5t-157 -150t-207 -56.5q-131 0 -216.5 86t-85.5 216q0 103 58.5 196t156.5 149t206 56zM468 534q-92 0 -161.5 -70.5t-69.5 -163.5q0 -70 48 -118.5t116 -48.5q92 0 162 70.5t70 162.5q0 72 -47 120t-118 48z
M345 866h348l-20 -124h-348z" />
    <glyph glyph-name="omacron" unicode="&#x14d;" horiz-adv-x="519" 
d="M336 461q89 0 147 -57t58 -144q0 -112 -85.5 -195t-199.5 -83q-91 0 -149.5 57t-58.5 146q0 112 86 194t202 82zM308 321q-43 0 -72.5 -35t-29.5 -87q0 -36 19.5 -56.5t53.5 -20.5q44 0 74 35t30 87q0 37 -20 57t-55 20zM189 653h348l-20 -124h-348z" />
    <glyph glyph-name="Obreve" unicode="&#x14e;" horiz-adv-x="764" 
d="M494 685q129 0 216.5 -86t87.5 -213q0 -104 -59 -197.5t-157 -150t-207 -56.5q-131 0 -216.5 86t-85.5 216q0 103 58.5 196t156.5 149t206 56zM468 534q-92 0 -161.5 -70.5t-69.5 -163.5q0 -70 48 -118.5t116 -48.5q92 0 162 70.5t70 162.5q0 72 -47 120t-118 48z
M351 885l136 10q-1 -6 -1.5 -14t-1.5 -13t-1 -7q-1 -5 -1 -12q0 -24 28 -24q18 0 30 15q5 6 21 55l133 -10q-16 -56 -22 -70t-21 -33q-62 -80 -161 -80q-63 0 -104.5 35.5t-41.5 89.5q0 10 7 58z" />
    <glyph glyph-name="obreve" unicode="&#x14f;" horiz-adv-x="519" 
d="M336 461q89 0 147 -57t58 -144q0 -112 -85.5 -195t-199.5 -83q-91 0 -149.5 57t-58.5 146q0 112 86 194t202 82zM308 321q-43 0 -72.5 -35t-29.5 -87q0 -36 19.5 -56.5t53.5 -20.5q44 0 74 35t30 87q0 37 -20 57t-55 20zM194 672l136 10q-2 -31 -3 -37q-1 -5 -1 -13
q0 -25 28 -25q17 0 30 16q6 7 20 58l133 -10q-14 -52 -20.5 -67t-21.5 -35q-62 -80 -161 -80q-62 0 -104 35.5t-42 88.5q0 10 6 59z" />
    <glyph glyph-name="Ohungarumlaut" unicode="&#x150;" horiz-adv-x="764" 
d="M494 685q129 0 216.5 -86t87.5 -213q0 -104 -59 -197.5t-157 -150t-207 -56.5q-131 0 -216.5 86t-85.5 216q0 103 58.5 196t156.5 149t206 56zM468 534q-92 0 -161.5 -70.5t-69.5 -163.5q0 -70 48 -118.5t116 -48.5q92 0 162 70.5t70 162.5q0 72 -47 120t-118 48z
M624 866l49 57l114 -63l-205 -162l-68 41l62 72l-144 -114l-82 50l170 176z" />
    <glyph glyph-name="ohungarumlaut" unicode="&#x151;" horiz-adv-x="542" 
d="M464 650l49 57l115 -64l-205 -162l-68 42l62 72l-145 -114l-81 49l170 177zM336 461q89 0 147 -57t58 -144q0 -112 -85.5 -195t-199.5 -83q-91 0 -149.5 57t-58.5 146q0 112 86 194t202 82zM308 321q-43 0 -72.5 -35t-29.5 -87q0 -36 19.5 -56.5t53.5 -20.5q44 0 74 35
t30 87q0 37 -20 57t-55 20z" />
    <glyph glyph-name="OE" unicode="&#x152;" horiz-adv-x="1017" 
d="M578 0l6 40q-101 -58 -210 -58q-128 0 -215.5 86t-87.5 211q0 104 59 198.5t157 151t206 56.5q102 0 184 -58l6 40h402l-24 -149h-240l-17 -106h214l-24 -150h-214l-17 -111h249l-24 -151h-410zM467 534q-91 0 -161 -71t-70 -164q0 -69 48 -117.5t116 -48.5q93 0 163 70
t70 162q0 73 -47.5 121t-118.5 48z" />
    <glyph glyph-name="oe" unicode="&#x153;" horiz-adv-x="824" 
d="M673 150l134 -53q-96 -115 -227 -115q-92 0 -150 61q-81 -61 -173 -61q-91 0 -150 56.5t-59 144.5q0 111 85.5 194t200.5 83q93 0 153 -60q75 60 167 60q85 0 138.5 -55.5t53.5 -142.5q0 -36 -12 -89h-301q8 -31 23 -44t43 -13q41 0 74 34zM549 270h148q-5 31 -20 43.5
t-47 12.5q-30 0 -48.5 -12.5t-32.5 -43.5zM308 320q-43 0 -72.5 -35t-29.5 -86q0 -36 19.5 -56.5t53.5 -20.5q44 0 74 34.5t30 86.5q0 37 -20 57t-55 20z" />
    <glyph glyph-name="Racute" unicode="&#x154;" horiz-adv-x="575" 
d="M297 223h-2h-4l-25 -1h-7l-35 -222h-163l106 667h169q127 0 184 -56q51 -51 51 -133q0 -60 -31 -116.5t-81 -90.5l110 -271h-183zM281 371h17q73 0 97 31q17 23 17 55q0 34 -20.5 47.5t-70.5 13.5h-16zM594 858l-207 -164l-97 55l172 178z" />
    <glyph glyph-name="racute" unicode="&#x155;" horiz-adv-x="319" 
d="M444 644l-207 -163l-97 54l172 178zM271 443l-3 -15q40 18 75 18q20 0 44 -4l-21 -138q-28 4 -43 4q-44 0 -62 -18.5t-27 -74.5l-34 -215h-156l70 443h157z" />
    <glyph glyph-name="Rcommaaccent" unicode="&#x156;" horiz-adv-x="575" 
d="M297 223h-2h-4l-25 -1h-7l-35 -222h-163l106 667h169q127 0 184 -56q51 -51 51 -133q0 -60 -31 -116.5t-81 -90.5l110 -271h-183zM281 371h17q73 0 97 31q17 23 17 55q0 34 -20.5 47.5t-70.5 13.5h-16zM252 -13l138 -40l-127 -199l-112 33z" />
    <glyph glyph-name="rcommaaccent" unicode="&#x157;" horiz-adv-x="319" 
d="M271 443l-2 -15q40 18 74 18q21 0 45 -4l-22 -138q-27 4 -43 4q-44 0 -61.5 -18.5t-26.5 -74.5l-34 -215h-156l70 443h156zM60 -13l139 -40l-127 -199l-112 33z" />
    <glyph glyph-name="Rcaron" unicode="&#x158;" horiz-adv-x="576" 
d="M298 223h-2h-4l-25 -1h-7l-35 -222h-163l106 667h169q127 0 184 -56q51 -51 51 -133q0 -60 -31 -116.5t-81 -90.5l110 -271h-183zM282 371h17q73 0 97 31q17 23 17 55q0 34 -20.5 47.5t-70.5 13.5h-16zM398 833l97 73l110 -54l-184 -157h-90l-134 157l127 54z" />
    <glyph glyph-name="rcaron" unicode="&#x159;" horiz-adv-x="319" 
d="M271 443l-3 -15q40 18 75 18q20 0 44 -4l-21 -138q-28 4 -43 4q-44 0 -62 -18.5t-27 -74.5l-34 -215h-156l70 443h157zM281 627l98 78l109 -53l-183 -156h-89l-134 156l126 53z" />
    <glyph glyph-name="Sacute" unicode="&#x15a;" horiz-adv-x="535" 
d="M587 547l-149 -85q-21 44 -35.5 58t-40.5 14q-32 0 -53 -19q-21 -21 -21 -41q0 -27 52 -47l56 -23q75 -29 110 -69.5t35 -97.5q0 -101 -84.5 -178t-196.5 -77q-68 0 -118.5 31t-72.5 86q-13 32 -17 94l167 43q3 -47 9 -64q14 -39 59 -39q34 0 61.5 24.5t27.5 54.5
q0 16 -16 29t-53 28l-54 21q-129 53 -129 159q0 96 78.5 166t185.5 70q72 0 119 -32.5t80 -105.5zM614 858l-207 -164l-97 55l172 178z" />
    <glyph glyph-name="sacute" unicode="&#x15b;" horiz-adv-x="399" 
d="M494 644l-207 -163l-97 54l172 178zM29 113l144 47q18 -43 51 -43q10 0 17.5 6.5t7.5 15.5q0 11 -20 20l-83 37q-57 26 -57 94q0 70 59 120.5t139 50.5q110 0 153 -100l-136 -57q-14 24 -39 24q-24 0 -24 -16q0 -9 16 -16l69 -28q82 -33 82 -104q0 -73 -63 -127.5
t-146 -54.5q-103 0 -147 72q-13 22 -23 59z" />
    <glyph glyph-name="Scircumflex" unicode="&#x15c;" horiz-adv-x="535" 
d="M587 547l-149 -85q-21 44 -35.5 58t-40.5 14q-32 0 -53 -19q-21 -21 -21 -41q0 -27 52 -47l56 -23q75 -29 110 -69.5t35 -97.5q0 -101 -84.5 -178t-196.5 -77q-68 0 -118.5 31t-72.5 86q-13 32 -17 94l167 43q3 -47 9 -64q14 -39 59 -39q34 0 61.5 24.5t27.5 54.5
q0 16 -16 29t-53 28l-54 21q-129 53 -129 159q0 96 78.5 166t185.5 70q72 0 119 -32.5t80 -105.5zM385 768l-97 -73l-110 54l184 157h90l134 -157l-127 -54z" />
    <glyph glyph-name="scircumflex" unicode="&#x15d;" horiz-adv-x="399" 
d="M29 113l144 47q18 -43 51 -43q10 0 17.5 6.5t7.5 15.5q0 11 -20 20l-83 37q-57 26 -57 94q0 70 59 120.5t139 50.5q110 0 153 -100l-136 -57q-14 24 -39 24q-24 0 -24 -16q0 -9 16 -16l69 -28q82 -33 82 -104q0 -73 -63 -127.5t-146 -54.5q-103 0 -147 72q-13 22 -23 59z
M294 561l-98 -78l-109 53l183 156h89l134 -156l-126 -53z" />
    <glyph glyph-name="Scedilla" unicode="&#x15e;" horiz-adv-x="535" 
d="M266 -18l118 -48l-177 -172l-105 51l147 170q-93 5 -143.5 59t-53.5 151l167 43q3 -47 9 -64q14 -39 59 -39q34 0 61.5 24.5t27.5 54.5q0 16 -16 29t-53 28l-54 22q-129 52 -129 158q0 96 78.5 166t185.5 70q72 0 119 -32.5t80 -105.5l-149 -85q-22 45 -36.5 58.5
t-39.5 13.5q-32 0 -53 -19q-21 -21 -21 -41q0 -26 52 -47l56 -22q75 -30 110 -70.5t35 -96.5q0 -100 -82.5 -177t-192.5 -79z" />
    <glyph glyph-name="scedilla" unicode="&#x15f;" horiz-adv-x="399" 
d="M29 113l144 47q18 -43 51 -43q10 0 17.5 6.5t7.5 15.5q0 11 -20 20l-83 37q-57 26 -57 94q0 70 59 120.5t139 50.5q110 0 153 -100l-136 -57q-14 24 -39 24q-24 0 -24 -16q0 -9 16 -16l69 -28q82 -33 82 -104q0 -73 -63 -127.5t-146 -54.5q-103 0 -147 72q-13 22 -23 59z
M318 -66l-177 -172l-105 51l151 175z" />
    <glyph glyph-name="Scaron" unicode="&#x160;" horiz-adv-x="535" 
d="M587 547l-149 -85q-21 44 -35.5 58t-40.5 14q-32 0 -53 -19q-21 -21 -21 -41q0 -27 52 -47l56 -23q75 -29 110 -69.5t35 -97.5q0 -101 -84.5 -178t-196.5 -77q-68 0 -118.5 31t-72.5 86q-13 32 -17 94l167 43q3 -47 9 -64q14 -39 59 -39q34 0 61.5 24.5t27.5 54.5
q0 16 -16 29t-53 28l-54 21q-129 53 -129 159q0 96 78.5 166t185.5 70q72 0 119 -32.5t80 -105.5zM395 833l97 73l111 -54l-185 -157h-89l-135 157l128 54z" />
    <glyph glyph-name="scaron" unicode="&#x161;" horiz-adv-x="399" 
d="M29 113l144 47q18 -43 51 -43q10 0 17.5 6.5t7.5 15.5q0 11 -20 20l-83 37q-57 26 -57 94q0 70 59 120.5t139 50.5q110 0 153 -100l-136 -57q-14 24 -39 24q-24 0 -24 -16q0 -9 16 -16l69 -28q82 -33 82 -104q0 -73 -63 -127.5t-146 -54.5q-103 0 -147 72q-13 22 -23 59z
M304 627l98 78l109 -53l-183 -156h-89l-134 156l126 53z" />
    <glyph glyph-name="Tcommaaccent" unicode="&#x162;" horiz-adv-x="446" 
d="M386 516l-81 -516h-163l82 516h-154l24 151h470l-24 -151h-154zM183 -13l138 -40l-127 -199l-112 33z" />
    <glyph glyph-name="tcommaaccent" unicode="&#x163;" horiz-adv-x="289" 
d="M251 304l-23 -144q-2 -14 -2 -16q0 -12 13 -12q17 0 56 16l-23 -142q-48 -16 -87 -16q-56 0 -87.5 31.5t-31.5 87.5q0 16 4 43l24 152h-43l22 139h43l14 86l166 60l-23 -146h63l-22 -139h-63zM96 -13l139 -40l-127 -199l-112 33z" />
    <glyph glyph-name="Tcaron" unicode="&#x164;" horiz-adv-x="446" 
d="M386 516l-81 -516h-163l82 516h-154l24 151h470l-24 -151h-154zM355 833l97 73l111 -54l-185 -157h-89l-135 157l128 54z" />
    <glyph glyph-name="tcaron" unicode="&#x165;" horiz-adv-x="411" 
d="M250 304l-23 -144l-1 -16q0 -12 13 -12q17 0 55 16l-22 -142q-48 -16 -87 -16q-56 0 -87.5 31.5t-31.5 87.5q0 20 4 43l24 152h-43l22 139h43l14 86l165 60l-23 -146h63l-22 -139h-63zM403 712l138 -40l-127 -199l-112 33z" />
    <glyph glyph-name="Tbar" unicode="&#x166;" horiz-adv-x="446" 
d="M190 304h-95l22 139h95l12 73h-154l24 151h470l-24 -151h-154l-11 -73h95l-22 -139h-95l-48 -304h-163z" />
    <glyph glyph-name="tbar" unicode="&#x167;" horiz-adv-x="289" 
d="M117 443l13 86l166 60l-23 -146h63l-17 -105h-63l-5 -34h63l-17 -105h-63l-6 -39q-2 -13 -2 -15q0 -12 14 -12q16 0 55 15l-23 -142q-48 -16 -86 -16q-56 0 -87.5 31.5t-31.5 87.5q0 22 3 43l8 47h-43l17 105h43l5 34h-43l17 105h43z" />
    <glyph glyph-name="Utilde" unicode="&#x168;" horiz-adv-x="648" 
d="M330 667l-65 -407q-6 -46 -6 -57q0 -31 23.5 -50.5t61.5 -19.5q27 0 54 11.5t41 28.5q16 21 26 87l65 407h163l-68 -424q-16 -102 -75 -164q-43 -45 -104 -71t-124 -26q-98 0 -162.5 56t-64.5 142q0 26 5 63l67 424h163zM511 890l126 -28q-14 -52 -24 -71
q-38 -64 -115 -64q-30 0 -80 20q-8 2 -11 2q-6 0 -10 -6l-8 -25l-122 27q15 56 29 76q40 59 111 59q37 0 72 -19q13 -7 15 -7q9 0 11 11z" />
    <glyph glyph-name="utilde" unicode="&#x169;" horiz-adv-x="511" 
d="M311 0l2 15q-47 -33 -101 -33q-64 0 -102.5 42.5t-38.5 112.5q0 28 5 66l38 240h157l-37 -234q-5 -27 -5 -45q0 -42 40 -42q36 0 51.5 19.5t24.5 75.5l36 226h156l-70 -443h-156zM409 677l125 -27q-13 -53 -24 -71q-37 -64 -115 -64q-29 0 -80 20q-6 2 -11 2q-7 0 -9 -7
l-9 -24l-122 27q10 38 14.5 49t15.5 26q40 60 111 60q38 0 71 -19q13 -7 16 -7q7 0 11 11z" />
    <glyph glyph-name="Umacron" unicode="&#x16a;" horiz-adv-x="648" 
d="M330 667l-65 -407q-6 -46 -6 -57q0 -31 23.5 -50.5t61.5 -19.5q27 0 54 11.5t41 28.5q16 21 26 87l65 407h163l-68 -424q-16 -102 -75 -164q-43 -45 -104 -71t-124 -26q-98 0 -162.5 56t-64.5 142q0 26 5 63l67 424h163zM287 866h348l-19 -124h-348z" />
    <glyph glyph-name="umacron" unicode="&#x16b;" horiz-adv-x="511" 
d="M311 0l2 15q-47 -33 -101 -33q-64 0 -102.5 42.5t-38.5 112.5q0 28 5 66l38 240h157l-37 -234q-5 -27 -5 -45q0 -42 40 -42q36 0 51.5 19.5t24.5 75.5l36 226h156l-70 -443h-156zM185 653h348l-20 -124h-348z" />
    <glyph glyph-name="Ubreve" unicode="&#x16c;" horiz-adv-x="648" 
d="M330 667l-65 -407q-6 -46 -6 -57q0 -31 23.5 -50.5t61.5 -19.5q27 0 54 11.5t41 28.5q16 21 26 87l65 407h163l-68 -424q-16 -102 -75 -164q-43 -45 -104 -71t-124 -26q-98 0 -162.5 56t-64.5 142q0 26 5 63l67 424h163zM293 885l136 10q0 -6 -1 -14t-1.5 -13t-0.5 -7
q-1 -5 -1 -12q0 -11 7.5 -17.5t19.5 -6.5q18 0 31 15q6 7 20 55l133 -10q-15 -54 -21 -69t-22 -34q-62 -80 -160 -80q-63 0 -104.5 35.5t-41.5 89.5q0 10 6 58z" />
    <glyph glyph-name="ubreve" unicode="&#x16d;" horiz-adv-x="511" 
d="M311 0l2 15q-47 -33 -101 -33q-64 0 -102.5 42.5t-38.5 112.5q0 28 5 66l38 240h157l-37 -234q-5 -27 -5 -45q0 -42 40 -42q36 0 51.5 19.5t24.5 75.5l36 226h156l-70 -443h-156zM192 672l136 10q0 -7 -1 -15.5t-1.5 -14t-0.5 -7.5q-1 -5 -1 -13q0 -25 28 -25q17 0 30 16
q3 4 20 58l133 -10q-14 -52 -20.5 -67t-21.5 -35q-62 -80 -161 -80q-62 0 -104 35.5t-42 88.5q0 9 6 59z" />
    <glyph glyph-name="Uring" unicode="&#x16e;" horiz-adv-x="648" 
d="M471 929q47 0 78 -30t31 -75q0 -57 -45 -101t-103 -44q-47 0 -78 30.5t-31 76.5q0 56 45 99.5t103 43.5zM460 856q-24 0 -42.5 -18t-18.5 -42q0 -19 12.5 -31.5t31.5 -12.5q24 0 42.5 18t18.5 42q0 19 -12.5 31.5t-31.5 12.5zM330 667l-65 -407q-6 -46 -6 -57
q0 -31 23.5 -50.5t61.5 -19.5q27 0 54 11.5t41 28.5q16 21 26 87l65 407h163l-68 -424q-16 -102 -75 -164q-43 -45 -104 -71t-124 -26q-98 0 -162.5 56t-64.5 142q0 26 5 63l67 424h163z" />
    <glyph glyph-name="uring" unicode="&#x16f;" horiz-adv-x="511" 
d="M311 0l2 15q-47 -33 -101 -33q-64 0 -102.5 42.5t-38.5 112.5q0 28 5 66l38 240h157l-37 -234q-5 -27 -5 -45q0 -42 40 -42q36 0 51.5 19.5t24.5 75.5l36 226h156l-70 -443h-156zM369 716q47 0 78 -30t31 -75q0 -57 -45 -101t-103 -44q-47 0 -78 30.5t-31 76.5
q0 56 45 99.5t103 43.5zM358 643q-24 0 -42.5 -18t-18.5 -42q0 -19 12.5 -31.5t31.5 -12.5q24 0 42.5 18t18.5 42q0 19 -12.5 31.5t-31.5 12.5z" />
    <glyph glyph-name="Uhungarumlaut" unicode="&#x170;" horiz-adv-x="654" 
d="M330 667l-65 -407q-6 -46 -6 -57q0 -31 23.5 -50.5t61.5 -19.5q27 0 54 11.5t41 28.5q16 21 26 87l65 407h163l-68 -424q-16 -102 -75 -164q-43 -45 -104 -71t-124 -26q-98 0 -162.5 56t-64.5 142q0 26 5 63l67 424h163zM566 866l49 57l114 -63l-205 -162l-68 41l62 72
l-144 -114l-82 50l170 176z" />
    <glyph glyph-name="uhungarumlaut" unicode="&#x171;" horiz-adv-x="511" 
d="M311 0l2 15q-47 -33 -101 -33q-64 0 -102.5 42.5t-38.5 112.5q0 28 5 66l38 240h157l-37 -234q-5 -27 -5 -45q0 -42 40 -42q36 0 51.5 19.5t24.5 75.5l36 226h156l-70 -443h-156zM442 650l49 57l115 -64l-206 -162l-68 42l62 72l-144 -114l-82 49l171 177z" />
    <glyph glyph-name="Uogonek" unicode="&#x172;" horiz-adv-x="648" 
d="M693 667l-68 -424q-12 -95 -72 -160.5t-157 -90.5q-25 -29 -25 -42q0 -4 5 -4q10 0 31 12l30 -107q-58 -19 -74.5 -22.5t-41.5 -3.5q-51 0 -82.5 24.5t-31.5 64.5q0 39 35 80q-68 21 -107.5 71t-39.5 116q0 25 5 62l67 424h163l-65 -407q-6 -46 -6 -57q0 -31 23.5 -50
t61.5 -19q27 0 54 11.5t41 28.5q16 21 26 86l65 407h163z" />
    <glyph glyph-name="uogonek" unicode="&#x173;" horiz-adv-x="511" 
d="M537 443l-70 -443q-32 -35 -32 -50q0 -4 5 -4q11 0 31 12l30 -107q-79 -26 -116 -26q-51 0 -82.5 24.5t-31.5 64.5t40 86l2 15q-47 -33 -101 -33q-64 0 -102.5 42.5t-38.5 112.5q0 28 5 66l38 240h157l-37 -234q-5 -27 -5 -45q0 -42 40 -42q36 0 51.5 19.5t24.5 75.5
l36 226h156z" />
    <glyph glyph-name="Wcircumflex" unicode="&#x174;" horiz-adv-x="878" 
d="M264 667l52 -361l163 361h132l48 -362l167 362h170l-308 -667h-140l-50 372l-167 -372h-140l-97 667h170zM561 768l-97 -73l-110 54l184 157h90l134 -157l-127 -54z" />
    <glyph glyph-name="wcircumflex" unicode="&#x175;" horiz-adv-x="650" 
d="M214 443l34 -192l90 192h114l29 -192l95 192h162l-229 -443h-126l-29 187l-88 -187h-126l-88 443h162zM413 561l-97 -78l-110 53l184 156h89l134 -156l-126 -53z" />
    <glyph glyph-name="Ycircumflex" unicode="&#x176;" horiz-adv-x="577" 
d="M251 274l-164 393h183l89 -223l160 223h183l-289 -393l-43 -274h-163zM410 768l-97 -73l-110 54l184 157h90l134 -157l-127 -54z" />
    <glyph glyph-name="ycircumflex" unicode="&#x177;" 
d="M147 25l-95 418h164l47 -227l138 227h164l-411 -677h-164zM327 561l-98 -78l-109 53l183 156h89l134 -156l-126 -53z" />
    <glyph glyph-name="Ydieresis" unicode="&#x178;" horiz-adv-x="577" 
d="M251 274l-164 393h183l89 -223l160 223h183l-289 -393l-43 -274h-163zM524 883q31 0 51 -19t20 -48q0 -36 -29 -63.5t-67 -27.5q-31 0 -51 19t-20 48q0 36 29 63.5t67 27.5zM334 883q30 0 50 -19t20 -48q0 -36 -28.5 -63.5t-66.5 -27.5q-31 0 -51 19t-20 48q0 36 29 63.5
t67 27.5z" />
    <glyph glyph-name="Zacute" unicode="&#x179;" horiz-adv-x="518" 
d="M246 152h290l-24 -152h-507l19 118l349 398h-260l24 151h474l-19 -118zM585 858l-206 -164l-97 55l171 178z" />
    <glyph glyph-name="zacute" unicode="&#x17a;" horiz-adv-x="428" 
d="M499 644l-207 -163l-97 54l172 178zM255 138h184l-22 -138h-401l17 108l208 198h-164l22 137h380l-17 -108z" />
    <glyph glyph-name="Zdotaccent" unicode="&#x17b;" horiz-adv-x="518" 
d="M246 152h290l-24 -152h-507l19 118l349 398h-260l24 151h474l-19 -118zM416 892q34 0 56 -21.5t22 -53.5q0 -40 -32 -70.5t-74 -30.5q-34 0 -56 21.5t-22 53.5q0 40 32 70.5t74 30.5z" />
    <glyph glyph-name="zdotaccent" unicode="&#x17c;" horiz-adv-x="428" 
d="M255 138h184l-22 -138h-401l17 108l208 198h-164l22 137h380l-17 -108zM326 685q34 0 56 -21t22 -53q0 -40 -32 -71t-74 -31q-35 0 -57 21t-22 54q0 40 32 70.5t75 30.5z" />
    <glyph glyph-name="Zcaron" unicode="&#x17d;" horiz-adv-x="518" 
d="M246 152h290l-24 -152h-507l19 118l349 398h-260l24 151h474l-19 -118zM407 833l97 73l110 -54l-184 -157h-90l-134 157l127 54z" />
    <glyph glyph-name="zcaron" unicode="&#x17e;" horiz-adv-x="428" 
d="M255 138h184l-22 -138h-401l17 108l208 198h-164l22 137h380l-17 -108zM316 627l98 78l109 -53l-183 -156h-89l-134 156l126 53z" />
    <glyph glyph-name="longs" unicode="&#x17f;" horiz-adv-x="268" 
d="M208 0h-156l48 304h-38l22 139h38l12 72q12 78 55.5 120t113.5 42q36 0 79 -10l-22 -139q-24 10 -40 10q-15 0 -22 -6t-9 -22z" />
    <glyph glyph-name="florin" unicode="&#x192;" horiz-adv-x="503" 
d="M-39 -184l51 137q35 -15 48 -15q18 0 31 35l123 331h-41l51 139h41l29 80q28 76 77.5 117t113.5 41q38 0 92 -19l-51 -137q-32 14 -48 14q-18 0 -31 -35l-23 -61h72l-51 -139h-72l-129 -350q-28 -76 -77.5 -116.5t-113.5 -40.5q-38 0 -92 19z" />
    <glyph glyph-name="Ohorn" unicode="&#x1a0;" horiz-adv-x="783" 
d="M705 604l5 2q33 15 33 42q0 16 -7.5 25.5t-52.5 53.5l131 60q38 -31 48 -47q20 -32 20 -75q0 -100 -105 -167q21 -55 21 -112q0 -104 -59 -197.5t-157 -150t-207 -56.5q-128 0 -216 86t-88 212q0 159 128.5 282t294.5 123q120 0 211 -81zM467 534q-92 0 -161.5 -70.5
t-69.5 -163.5q0 -70 48 -118.5t116 -48.5q92 0 162.5 70.5t70.5 162.5q0 72 -47.5 120t-118.5 48z" />
    <glyph glyph-name="ohorn" unicode="&#x1a1;" horiz-adv-x="575" 
d="M541 275v-15q0 -112 -85.5 -195t-199.5 -83q-91 0 -149.5 57t-58.5 145q0 111 85.5 194t200.5 83q97 0 158 -67q14 13 14 31q0 15 -7.5 25t-52.5 53l131 61q27 -23 33.5 -29t14.5 -19q20 -32 20 -74q0 -100 -104 -167zM308 321q-43 0 -72.5 -35t-29.5 -87
q0 -36 19.5 -56.5t53.5 -20.5q44 0 74 35t30 87q0 37 -20 57t-55 20z" />
    <glyph glyph-name="Uhorn" unicode="&#x1af;" horiz-adv-x="727" 
d="M693 667l-9 -56q23 15 23 37q0 16 -7.5 25.5t-52.5 53.5l131 60q25 -20 32 -27.5t15 -19.5q21 -32 21 -75q0 -61 -42 -112.5t-116 -80.5l-14 -5q-10 -4 -14 -6l-35 -218q-16 -102 -75 -164q-43 -45 -104 -71t-124 -26q-98 0 -162.5 56t-64.5 142q0 26 5 63l67 424h163
l-65 -407q-6 -46 -6 -57q0 -31 23.5 -50.5t61.5 -19.5q27 0 54 11.5t41 28.5q16 21 26 87l65 407h163z" />
    <glyph glyph-name="uhorn" unicode="&#x1b0;" horiz-adv-x="626" 
d="M537 443l-9 -59q28 15 28 40q0 16 -7.5 26t-52.5 53l131 60q38 -31 48 -47q20 -31 20 -75q0 -90 -83 -151q-32 -26 -88 -47q-4 -1 -7.5 -2.5t-7.5 -3t-5 -2.5l-37 -235h-156l2 15q-47 -33 -101 -33q-64 0 -102.5 42.5t-38.5 112.5q0 28 5 66l38 240h157l-37 -234
q-5 -27 -5 -45q0 -42 40 -42q36 0 51.5 19.5t24.5 75.5l36 226h156z" />
    <glyph glyph-name="uni01C4" unicode="&#x1c4;" horiz-adv-x="1140" 
d="M167 667h169q150 0 235.5 -72.5t85.5 -200.5q0 -171 -120.5 -282.5t-305.5 -111.5h-170zM305 516l-57 -365h10q105 0 169.5 60.5t64.5 158.5q0 70 -46 108t-131 38h-10zM868 152h290l-24 -152h-507l19 118l349 398h-260l24 151h474l-19 -118zM1029 833l97 73l110 -54
l-184 -157h-90l-134 157l127 54z" />
    <glyph glyph-name="uni01C5" unicode="&#x1c5;" horiz-adv-x="1051" 
d="M167 667h169q150 0 235.5 -72.5t85.5 -200.5q0 -171 -120.5 -282.5t-305.5 -111.5h-170zM305 516l-57 -365h10q105 0 169.5 60.5t64.5 158.5q0 70 -46 108t-131 38h-10zM877 138h184l-22 -138h-401l17 108l208 198h-164l22 137h380l-17 -108zM938 627l98 78l109 -53
l-183 -156h-89l-134 156l126 53z" />
    <glyph glyph-name="uni01C6" unicode="&#x1c6;" horiz-adv-x="971" 
d="M499 0h-157l3 18q-58 -36 -113 -36q-80 0 -132 56.5t-52 142.5q0 111 79.5 195.5t183.5 84.5q51 0 99 -36l38 242h156zM309 321q-43 0 -72.5 -35t-29.5 -87q0 -36 19.5 -56.5t53.5 -20.5q43 0 72 35t29 87q0 37 -19 57t-53 20zM798 138h184l-22 -138h-401l17 108l207 198
h-163l21 137h381l-17 -108zM858 627l98 78l110 -53l-184 -156h-89l-134 156l126 53z" />
    <glyph glyph-name="uni01C7" unicode="&#x1c7;" horiz-adv-x="912" 
d="M329 667l-81 -516h230l-24 -151h-393l106 667h162zM956 667l-72 -456q-20 -119 -88 -179q-61 -50 -144 -50q-56 0 -97.5 22t-81.5 73l113 117q43 -61 79 -61q44 0 56 78l72 456h163z" />
    <glyph glyph-name="uni01C8" unicode="&#x1c8;" horiz-adv-x="702" 
d="M329 667l-81 -516h230l-24 -151h-393l106 667h162zM727 443l-84 -527q-12 -77 -55.5 -119.5t-111.5 -42.5q-37 0 -81 16l23 142q33 -15 50 -15q10 0 14 5.5t6 21.5l83 519h156zM687 685q34 0 56 -21t22 -53q0 -40 -32 -71t-74 -31q-34 0 -56 21.5t-22 53.5q0 40 32 70.5
t74 30.5z" />
    <glyph glyph-name="uni01C9" unicode="&#x1c9;" horiz-adv-x="498" 
d="M201 0h-156l106 667h156zM523 443l-84 -527q-12 -77 -55.5 -119.5t-111.5 -42.5q-37 0 -81 16l23 142q33 -15 50 -15q10 0 14 5.5t6 21.5l83 519h156zM483 685q34 0 56 -21t22 -53q0 -40 -32 -71t-74 -31q-34 0 -56 21.5t-22 53.5q0 40 32 70.5t74 30.5z" />
    <glyph glyph-name="uni01CA" unicode="&#x1ca;" horiz-adv-x="1144" 
d="M61 0l106 667h134l230 -375l59 375h163l-106 -667h-134l-230 375l-59 -375h-163zM1188 667l-72 -456q-18 -119 -88 -179q-59 -50 -144 -50q-56 0 -97.5 22t-81.5 73l114 117q41 -61 78 -61q44 0 56 78l73 456h162z" />
    <glyph glyph-name="uni01CB" unicode="&#x1cb;" horiz-adv-x="960" 
d="M61 0l106 667h134l230 -375l59 375h163l-106 -667h-134l-230 375l-59 -375h-163zM985 443l-84 -527q-12 -77 -55.5 -119.5t-111.5 -42.5q-37 0 -81 16l22 142q35 -15 51 -15q9 0 13.5 5.5t6.5 21.5l82 519h157zM945 685q34 0 56 -21t22 -53q0 -40 -32 -71t-74 -31
q-35 0 -57 21t-22 54q0 40 32 70.5t75 30.5z" />
    <glyph glyph-name="uni01CC" unicode="&#x1cc;" horiz-adv-x="763" 
d="M271 443l-3 -15q47 33 101 33q64 0 102.5 -42.5t38.5 -112.5q0 -28 -5 -66l-38 -240h-157l37 234q5 27 5 46q0 41 -40 41q-35 0 -51 -20t-25 -75l-36 -226h-156l70 443h157zM787 443l-83 -527q-13 -77 -56.5 -119.5t-110.5 -42.5q-39 0 -81 16l22 142q34 -15 50 -15
q10 0 14 5.5t7 21.5l82 519h156zM748 685q34 0 56 -21t22 -53q0 -40 -32 -71t-74 -31q-35 0 -57 21t-22 54q0 40 32 70.5t75 30.5z" />
    <glyph glyph-name="uni01CD" unicode="&#x1cd;" horiz-adv-x="656" 
d="M470 138h-241l-69 -138h-172l354 667h182l144 -667h-173zM442 289l-36 203l-102 -203h138zM460 833l97 73l110 -54l-184 -157h-90l-134 157l127 54z" />
    <glyph glyph-name="uni01CE" unicode="&#x1ce;" horiz-adv-x="543" 
d="M499 0h-157l3 18q-58 -36 -113 -36q-80 0 -132 56.5t-52 142.5q0 111 79.5 195.5t183.5 84.5q52 0 99 -36l2 18h157zM309 321q-43 0 -72.5 -35t-29.5 -87q0 -36 19.5 -56.5t53.5 -20.5q43 0 72 35t29 87q0 37 -19 57t-53 20zM357 627l98 78l109 -53l-183 -156h-89
l-134 156l126 53z" />
    <glyph glyph-name="uni01CF" unicode="&#x1cf;" horiz-adv-x="285" 
d="M329 667l-105 -667h-163l106 667h162zM274 833l97 73l111 -54l-185 -157h-89l-135 157l127 54z" />
    <glyph glyph-name="uni01D0" unicode="&#x1d0;" horiz-adv-x="246" 
d="M271 443l-70 -443h-156l70 443h156zM222 627l98 78l109 -53l-183 -156h-89l-134 156l126 53z" />
    <glyph glyph-name="uni01D1" unicode="&#x1d1;" horiz-adv-x="764" 
d="M494 685q129 0 216.5 -86t87.5 -213q0 -104 -59 -197.5t-157 -150t-207 -56.5q-131 0 -216.5 86t-85.5 216q0 103 58.5 196t156.5 149t206 56zM468 534q-92 0 -161.5 -70.5t-69.5 -163.5q0 -70 48 -118.5t116 -48.5q92 0 162 70.5t70 162.5q0 72 -47 120t-118 48z
M514 833l97 73l110 -54l-184 -157h-90l-134 157l127 54z" />
    <glyph glyph-name="uni01D2" unicode="&#x1d2;" horiz-adv-x="519" 
d="M336 461q89 0 147 -57t58 -144q0 -112 -85.5 -195t-199.5 -83q-91 0 -149.5 57t-58.5 146q0 112 86 194t202 82zM308 321q-43 0 -72.5 -35t-29.5 -87q0 -36 19.5 -56.5t53.5 -20.5q44 0 74 35t30 87q0 37 -20 57t-55 20zM359 627l98 78l109 -53l-183 -156h-89l-134 156
l126 53z" />
    <glyph glyph-name="uni01D3" unicode="&#x1d3;" horiz-adv-x="648" 
d="M330 667l-65 -407q-6 -46 -6 -57q0 -31 23.5 -50.5t61.5 -19.5q27 0 54 11.5t41 28.5q16 21 26 87l65 407h163l-68 -424q-16 -102 -75 -164q-43 -45 -104 -71t-124 -26q-98 0 -162.5 56t-64.5 142q0 26 5 63l67 424h163zM456 833l97 73l111 -54l-185 -157h-89l-135 157
l127 54z" />
    <glyph glyph-name="uni01D4" unicode="&#x1d4;" horiz-adv-x="511" 
d="M311 0l2 15q-47 -33 -101 -33q-64 0 -102.5 42.5t-38.5 112.5q0 28 5 66l38 240h157l-37 -234q-5 -27 -5 -45q0 -42 40 -42q36 0 51.5 19.5t24.5 75.5l36 226h156l-70 -443h-156zM355 627l98 78l109 -53l-183 -156h-89l-134 156l126 53z" />
    <glyph glyph-name="Gcaron" unicode="&#x1e6;" horiz-adv-x="730" 
d="M423 386h344l-12 -76q-15 -93 -59 -162q-49 -77 -133 -121.5t-179 -44.5q-136 0 -224 84t-88 213q0 161 127.5 283.5t295.5 122.5q78 0 138 -29t121 -96l-134 -108q-38 45 -71.5 63.5t-78.5 18.5q-94 0 -163.5 -70t-69.5 -165q0 -73 48 -119.5t122 -46.5q113 0 166 105
h-173zM519 833l97 73l111 -54l-185 -157h-89l-135 157l128 54z" />
    <glyph glyph-name="gcaron" unicode="&#x1e7;" horiz-adv-x="543" 
d="M341 -9l5 27q-60 -36 -113 -36q-80 0 -132.5 56.5t-52.5 142.5q0 111 79.5 195.5t183.5 84.5q52 0 99 -36l3 18h156l-71 -452q-17 -108 -96.5 -175t-189.5 -67q-69 0 -119.5 29.5t-94.5 95.5l123 99q28 -47 52.5 -65.5t58.5 -18.5q92 0 109 102zM309 321q-43 0 -72.5 -35
t-29.5 -87q0 -36 19.5 -56.5t53.5 -20.5q43 0 72 35t29 87q0 37 -19 57t-53 20zM357 627l98 78l109 -53l-183 -156h-89l-134 156l126 53z" />
    <glyph glyph-name="uni01F4" unicode="&#x1f4;" horiz-adv-x="730" 
d="M423 386h344l-12 -76q-15 -93 -59 -162q-49 -77 -133 -121.5t-179 -44.5q-136 0 -224 84t-88 213q0 161 127.5 283.5t295.5 122.5q78 0 138 -29t121 -96l-134 -108q-38 45 -71.5 63.5t-78.5 18.5q-94 0 -163.5 -70t-69.5 -165q0 -73 48 -119.5t122 -46.5q113 0 166 105
h-173zM721 858l-206 -164l-97 55l171 178z" />
    <glyph glyph-name="uni01F5" unicode="&#x1f5;" horiz-adv-x="543" 
d="M341 -9l5 27q-60 -36 -113 -36q-80 0 -132.5 56.5t-52.5 142.5q0 111 79.5 195.5t183.5 84.5q52 0 99 -36l3 18h156l-71 -452q-17 -108 -96.5 -175t-189.5 -67q-69 0 -119.5 29.5t-94.5 95.5l123 99q28 -47 52.5 -65.5t58.5 -18.5q92 0 109 102zM309 321q-43 0 -72.5 -35
t-29.5 -87q0 -36 19.5 -56.5t53.5 -20.5q43 0 72 35t29 87q0 37 -19 57t-53 20zM548 644l-207 -163l-97 54l172 178z" />
    <glyph glyph-name="Aringacute" unicode="&#x1fa;" horiz-adv-x="656" 
d="M374 891l-45 22l169 160l133 -62l-121 -87q76 -23 76 -92q0 -51 -44 -90t-102 -39q-48 0 -79.5 28t-31.5 70q0 50 45 90zM465 862q-23 0 -41.5 -16t-18.5 -37q0 -17 13 -28.5t32 -11.5q24 0 42 16t18 37q0 17 -13 28.5t-32 11.5zM470 138h-241l-69 -138h-172l354 667h182
l144 -667h-173zM442 289l-36 203l-102 -203h138z" />
    <glyph glyph-name="aringacute" unicode="&#x1fb;" horiz-adv-x="543" 
d="M572 858l-182 -144q40 -7 64.5 -35t24.5 -69q0 -57 -44.5 -100.5t-103.5 -43.5q-47 0 -78 30t-31 76t32 85.5t81 53.5l-67 38l172 178zM359 642q-24 0 -42.5 -18t-18.5 -41q0 -19 12.5 -31.5t31.5 -12.5q24 0 42.5 18t18.5 42q0 19 -12.5 31t-31.5 12zM499 0h-157l3 18
q-58 -36 -113 -36q-80 0 -132 56.5t-52 142.5q0 111 79.5 195.5t183.5 84.5q52 0 99 -36l2 18h157zM309 321q-43 0 -72.5 -35t-29.5 -87q0 -36 19.5 -56.5t53.5 -20.5q43 0 72 35t29 87q0 37 -19 57t-53 20z" />
    <glyph glyph-name="AEacute" unicode="&#x1fc;" horiz-adv-x="856" 
d="M439 138h-174l-94 -138h-183l461 667h475l-23 -149h-241l-16 -106h213l-23 -150h-214l-18 -111h250l-24 -151h-411zM463 289l29 181l-124 -181h95zM854 858l-207 -164l-97 55l172 178z" />
    <glyph glyph-name="aeacute" unicode="&#x1fd;" horiz-adv-x="772" 
d="M143 285l-65 102q120 74 230 74q95 0 143 -48q69 48 152 48q84 0 137.5 -55.5t53.5 -143.5q0 -34 -12 -89h-301q8 -31 23 -44t43 -13q42 0 73 34l135 -53q-96 -115 -227 -115q-81 0 -136 47q-66 -47 -162 -47q-88 0 -141 37.5t-53 99.5q0 72 62.5 115.5t166.5 43.5h67
q-5 27 -17.5 37.5t-38.5 10.5q-55 0 -133 -41zM497 270h147q-4 31 -19.5 44t-47.5 13q-30 0 -48 -13t-32 -44zM325 180h-63q-70 0 -70 -36q0 -30 57 -30q66 0 72 42zM670 644l-207 -163l-97 54l172 178z" />
    <glyph glyph-name="Oslashacute" unicode="&#x1fe;" horiz-adv-x="771" 
d="M828 585l-63 -53q36 -67 36 -146q0 -104 -59 -197.5t-157 -150t-206 -56.5q-110 0 -194 66l-62 -52l-75 86l63 53q-36 64 -36 146q0 104 59 197.5t157 150t206 56.5q106 0 194 -66l62 52zM629 418l-312 -260q41 -25 87 -25q92 0 162 70t70 161q0 29 -7 54zM247 248
l313 261q-41 25 -88 25q-92 0 -162 -70.5t-70 -163.5q0 -27 7 -52zM716 858l-207 -164l-97 55l172 178z" />
    <glyph glyph-name="oslashacute" unicode="&#x1ff;" horiz-adv-x="533" 
d="M34 70l38 30q-17 38 -17 84q0 111 85.5 194t199.5 83q76 0 131 -41l34 27l64 -73l-37 -31q16 -36 16 -83q0 -111 -85.5 -194.5t-199.5 -83.5q-73 0 -131 41l-34 -27zM212 212l133 107q-12 4 -26 4q-43 0 -71.5 -29.5t-35.5 -81.5zM392 231l-134 -107q12 -4 26 -4
q43 0 72 29.5t36 81.5zM554 644l-207 -163l-97 54l172 178z" />
    <glyph glyph-name="uni0200" unicode="&#x200;" horiz-adv-x="656" 
d="M470 138h-241l-69 -138h-172l354 667h182l144 -667h-173zM442 289l-36 203l-102 -203h138zM369 866l121 57l115 -176l-98 -50l-108 114l39 -72l-81 -41l-154 162l135 63z" />
    <glyph glyph-name="uni0201" unicode="&#x201;" horiz-adv-x="543" 
d="M499 0h-157l3 18q-58 -36 -113 -36q-80 0 -132 56.5t-52 142.5q0 111 79.5 195.5t183.5 84.5q52 0 99 -36l2 18h157zM309 321q-43 0 -72.5 -35t-29.5 -87q0 -36 19.5 -56.5t53.5 -20.5q43 0 72 35t29 87q0 37 -19 57t-53 20zM267 650l121 57l115 -177l-98 -49l-108 114
l39 -72l-81 -42l-154 162l135 64z" />
    <glyph glyph-name="Scommaaccent" unicode="&#x218;" horiz-adv-x="535" 
d="M266 -18l118 -48l-177 -172l-105 51l147 170q-93 5 -143.5 59t-53.5 151l167 43q3 -47 9 -64q14 -39 59 -39q34 0 61.5 24.5t27.5 54.5q0 16 -16 29t-53 28l-54 22q-129 52 -129 158q0 96 78.5 166t185.5 70q72 0 119 -32.5t80 -105.5l-149 -85q-22 45 -36.5 58.5
t-39.5 13.5q-32 0 -53 -19q-21 -21 -21 -41q0 -26 52 -47l56 -22q75 -30 110 -70.5t35 -96.5q0 -100 -82.5 -177t-192.5 -79z" />
    <glyph glyph-name="scommaaccent" unicode="&#x219;" horiz-adv-x="399" 
d="M177 -17l127 -36l-127 -199l-112 33l100 204q-57 10 -89.5 40.5t-46.5 87.5l144 47q18 -43 51 -43q10 0 17.5 6.5t7.5 15.5q0 11 -20 20l-83 37q-57 26 -57 94q0 70 59 120.5t139 50.5q110 0 153 -100l-136 -57q-14 24 -39 24q-24 0 -24 -16q0 -9 16 -16l69 -28
q82 -33 82 -104q0 -72 -63 -127t-145 -55q-14 0 -23 1z" />
    <glyph glyph-name="uni021A" unicode="&#x21a;" horiz-adv-x="446" 
d="M386 516l-81 -516h-163l82 516h-154l24 151h470l-24 -151h-154zM183 -13l138 -40l-127 -199l-112 33z" />
    <glyph glyph-name="uni021B" unicode="&#x21b;" horiz-adv-x="289" 
d="M251 304l-23 -144q-2 -14 -2 -16q0 -12 13 -12q17 0 56 16l-23 -142q-48 -16 -87 -16q-56 0 -87.5 31.5t-31.5 87.5q0 16 4 43l24 152h-43l22 139h43l14 86l166 60l-23 -146h63l-22 -139h-63zM96 -13l139 -40l-127 -199l-112 33z" />
    <glyph glyph-name="uni0226" unicode="&#x226;" horiz-adv-x="656" 
d="M470 138h-241l-69 -138h-172l354 667h182l144 -667h-173zM442 289l-36 203l-102 -203h138zM470 892q34 0 56 -21.5t22 -53.5q0 -40 -32 -70.5t-74 -30.5q-34 0 -56.5 21.5t-22.5 53.5q0 40 32.5 70.5t74.5 30.5z" />
    <glyph glyph-name="uni0227" unicode="&#x227;" horiz-adv-x="543" 
d="M499 0h-157l3 18q-58 -36 -113 -36q-80 0 -132 56.5t-52 142.5q0 111 79.5 195.5t183.5 84.5q52 0 99 -36l2 18h157zM309 321q-43 0 -72.5 -35t-29.5 -87q0 -36 19.5 -56.5t53.5 -20.5q43 0 72 35t29 87q0 37 -19 57t-53 20zM366 685q34 0 56 -21t22 -53q0 -40 -32 -71
t-74 -31q-35 0 -57 21t-22 54q0 40 32 70.5t75 30.5z" />
    <glyph glyph-name="uni0237" unicode="&#x237;" horiz-adv-x="251" 
d="M277 443l-84 -527q-12 -77 -55.5 -119.5t-111.5 -42.5q-37 0 -81 16l23 142q33 -15 50 -15q10 0 14 5.5t6 21.5l82 519h157z" />
    <glyph glyph-name="uni02BB" unicode="&#x2bb;" horiz-adv-x="289" 
d="M235 437l-131 45l173 265l108 -41z" />
    <glyph glyph-name="afii57929" unicode="&#x2bc;" horiz-adv-x="329" 
d="M267 751l135 -52l-181 -300l-112 48z" />
    <glyph glyph-name="circumflex" unicode="&#x2c6;" 
d="M327 561l-98 -78l-109 53l183 156h89l134 -156l-126 -53z" />
    <glyph glyph-name="caron" unicode="&#x2c7;" 
d="M337 627l98 78l109 -53l-183 -156h-89l-134 156l126 53z" />
    <glyph glyph-name="uni02C9" unicode="&#x2c9;" 
d="M168 653h348l-20 -124h-348z" />
    <glyph glyph-name="breve" unicode="&#x2d8;" 
d="M172 672l136 10q-2 -31 -3 -37q-1 -5 -1 -13q0 -25 28 -25q17 0 30 16q6 7 20 58l133 -10q-14 -52 -20.5 -67t-21.5 -35q-62 -80 -161 -80q-62 0 -104 35.5t-42 88.5q0 10 6 59z" />
    <glyph glyph-name="dotaccent" unicode="&#x2d9;" 
d="M347 685q34 0 56 -21t22 -53q0 -40 -32 -71t-74 -31q-35 0 -57 21t-22 54q0 40 32 70.5t75 30.5z" />
    <glyph glyph-name="ring" unicode="&#x2da;" 
d="M352 716q47 0 78 -30t31 -75q0 -57 -45 -101t-103 -44q-47 0 -78 30.5t-31 76.5q0 56 45 99.5t103 43.5zM341 643q-24 0 -42.5 -18t-18.5 -42q0 -19 12.5 -31.5t31.5 -12.5q24 0 42.5 18t18.5 42q0 19 -12.5 31.5t-31.5 12.5z" />
    <glyph glyph-name="ogonek" unicode="&#x2db;" 
d="M310 0h156q-32 -35 -32 -50q0 -4 5 -4q11 0 31 12l30 -107q-79 -26 -116 -26q-51 0 -82.5 24.5t-31.5 64.5t40 86z" />
    <glyph glyph-name="tilde" unicode="&#x2dc;" 
d="M392 677l125 -27q-13 -53 -24 -71q-17 -30 -48 -47t-67 -17q-29 0 -80 20q-8 2 -11 2q-7 0 -9 -7l-9 -24l-122 27q14 54 29 75q42 60 112 60q38 0 71 -19q13 -7 16 -7q7 0 11 11z" />
    <glyph glyph-name="hungarumlaut" unicode="&#x2dd;" 
d="M428 650l49 57l114 -64l-205 -162l-68 42l62 72l-144 -114l-82 49l170 177z" />
    <glyph glyph-name="uni0309" unicode="&#x309;" 
d="M452 709h-140q9 46 14 58t21 28l1 2q0 4 -9 4t-30 -11l-30 107q58 18 75 22t43 4q52 0 82.5 -22t30.5 -59t-32 -75l-20 -23q-1 -3 -6 -35z" />
    <glyph glyph-name="uni0323" unicode="&#x323;" 
d="M234 -29q34 0 56 -21.5t22 -53.5q0 -40 -32 -71t-74 -31q-34 0 -56.5 21.5t-22.5 54.5q0 40 32 70.5t75 30.5z" />
    <glyph glyph-name="uni037E" unicode="&#x37e;" horiz-adv-x="288" 
d="M138 149l135 -52l-181 -300l-112 47zM230 432q34 0 56 -21t22 -53q0 -40 -32 -71t-74 -31q-34 0 -56.5 21.5t-22.5 53.5q0 40 32.5 70.5t74.5 30.5z" />
    <glyph glyph-name="uni0387" unicode="&#x387;" horiz-adv-x="273" 
d="M204 421q34 0 56 -21t22 -53q0 -40 -32 -71t-74 -31q-35 0 -57 21t-22 54q0 40 32 70.5t75 30.5z" />
    <glyph glyph-name="uni1E1E" unicode="&#x1e1e;" horiz-adv-x="463" 
d="M524 517h-219l-16 -104h199l-24 -151h-199l-41 -262h-163l106 667h381zM393 892q34 0 56 -21.5t22 -53.5q0 -40 -32 -70.5t-74 -30.5q-34 0 -56 21.5t-22 53.5q0 40 32 70.5t74 30.5z" />
    <glyph glyph-name="uni1E1F" unicode="&#x1e1f;" horiz-adv-x="281" 
d="M257 304l-49 -304h-156l48 304h-38l22 139h38l12 72q12 78 55.5 120t113.5 42q36 0 79 -10l-22 -139q-24 10 -41 10q-26 0 -30 -28l-10 -67h70l-22 -139h-70zM312 885q34 0 56 -21t22 -53q0 -40 -32 -71t-74 -31q-35 0 -57 21t-22 54q0 40 32 70.5t75 30.5z" />
    <glyph glyph-name="Wgrave" unicode="&#x1e80;" horiz-adv-x="878" 
d="M264 667l52 -361l163 361h132l48 -362l167 362h170l-308 -667h-140l-50 372l-167 -372h-140l-97 667h170zM384 858l154 69l115 -178l-114 -55z" />
    <glyph glyph-name="wgrave" unicode="&#x1e81;" horiz-adv-x="650" 
d="M214 443l34 -192l90 192h114l29 -192l95 192h162l-229 -443h-126l-29 187l-88 -187h-126l-88 443h162zM239 644l153 69l116 -178l-115 -54z" />
    <glyph glyph-name="Wacute" unicode="&#x1e82;" horiz-adv-x="878" 
d="M264 667l52 -361l163 361h132l48 -362l167 362h170l-308 -667h-140l-50 372l-167 -372h-140l-97 667h170zM770 858l-207 -164l-97 55l172 178z" />
    <glyph glyph-name="wacute" unicode="&#x1e83;" horiz-adv-x="650" 
d="M214 443l34 -192l90 192h114l29 -192l95 192h162l-229 -443h-126l-29 187l-88 -187h-126l-88 443h162zM576 644l-206 -163l-97 54l171 178z" />
    <glyph glyph-name="Wdieresis" unicode="&#x1e84;" horiz-adv-x="878" 
d="M264 667l52 -361l163 361h132l48 -362l167 362h170l-308 -667h-140l-50 372l-167 -372h-140l-97 667h170zM675 883q30 0 50 -19t20 -48q0 -36 -28.5 -63.5t-66.5 -27.5q-31 0 -51 19t-20 48q0 36 29 63.5t67 27.5zM484 883q30 0 50 -19t20 -48q0 -36 -28.5 -63.5
t-66.5 -27.5q-31 0 -51 19t-20 48q0 36 29 63.5t67 27.5z" />
    <glyph glyph-name="wdieresis" unicode="&#x1e85;" horiz-adv-x="650" 
d="M214 443l34 -192l90 192h114l29 -192l95 192h162l-229 -443h-126l-29 187l-88 -187h-126l-88 443h162zM528 676q30 0 50 -19t20 -48q0 -36 -28.5 -63.5t-66.5 -27.5q-31 0 -51 19t-20 48q0 36 29 63.5t67 27.5zM337 676q30 0 50 -19t20 -48q0 -36 -28.5 -63.5
t-66.5 -27.5q-31 0 -51 19t-20 48q0 36 29 63.5t67 27.5z" />
    <glyph glyph-name="uni1EA0" unicode="&#x1ea0;" horiz-adv-x="656" 
d="M470 138h-241l-69 -138h-172l354 667h182l144 -667h-173zM442 289l-36 203l-102 -203h138zM324 -29q34 0 56 -21.5t22 -53.5q0 -40 -32 -71t-74 -31q-34 0 -56.5 21.5t-22.5 54.5q0 40 32 70.5t75 30.5z" />
    <glyph glyph-name="uni1EA1" unicode="&#x1ea1;" horiz-adv-x="543" 
d="M499 0h-157l3 18q-58 -36 -113 -36q-80 0 -132 56.5t-52 142.5q0 111 79.5 195.5t183.5 84.5q52 0 99 -36l2 18h157zM309 321q-43 0 -72.5 -35t-29.5 -87q0 -36 19.5 -56.5t53.5 -20.5q43 0 72 35t29 87q0 37 -19 57t-53 20zM265 -29q34 0 56 -21.5t22 -53.5
q0 -40 -32 -71t-74 -31q-34 0 -56.5 21.5t-22.5 54.5q0 40 32 70.5t75 30.5z" />
    <glyph glyph-name="uni1EA2" unicode="&#x1ea2;" horiz-adv-x="656" 
d="M517 709h-140q9 46 14 58.5t21 27.5l1 2q0 4 -9 4t-30 -11l-30 107q57 19 74 22.5t44 3.5q52 0 82.5 -22t30.5 -59q0 -38 -32 -75l-20 -23q-4 -18 -6 -35zM470 138h-241l-69 -138h-172l354 667h182l144 -667h-173zM442 289l-36 203l-102 -203h138z" />
    <glyph glyph-name="uni1EA3" unicode="&#x1ea3;" horiz-adv-x="543" 
d="M499 0h-157l3 18q-58 -36 -113 -36q-80 0 -132 56.5t-52 142.5q0 111 79.5 195.5t183.5 84.5q52 0 99 -36l2 18h157zM309 321q-43 0 -72.5 -35t-29.5 -87q0 -36 19.5 -56.5t53.5 -20.5q43 0 72 35t29 87q0 37 -19 57t-53 20zM419 501h-140q9 46 14 58.5t21 26.5l1 3
q0 4 -9 4q-8 0 -30 -11l-30 107q61 19 76.5 22.5t41.5 3.5q52 0 82.5 -22t30.5 -59q0 -38 -32 -75l-20 -23q-4 -18 -6 -35z" />
    <glyph glyph-name="uni1EA4" unicode="&#x1ea4;" horiz-adv-x="656" 
d="M615 791l36 -42l-128 -54l-73 77l-97 -77l-111 54l185 157h89l22 -25l92 95l132 -69zM470 138h-241l-69 -138h-172l354 667h182l144 -667h-173zM442 289l-36 203l-102 -203h138z" />
    <glyph glyph-name="uni1EA5" unicode="&#x1ea5;" horiz-adv-x="543" 
d="M437 663l138 143l132 -69l-199 -158l37 -43l-126 -53l-73 78l-98 -78l-109 53l183 156h90zM499 0h-157l3 18q-58 -36 -113 -36q-80 0 -132 56.5t-52 142.5q0 111 79.5 195.5t183.5 84.5q52 0 99 -36l2 18h157zM309 321q-43 0 -72.5 -35t-29.5 -87q0 -36 19.5 -56.5
t53.5 -20.5q43 0 72 35t29 87q0 37 -19 57t-53 20z" />
    <glyph glyph-name="uni1EA6" unicode="&#x1ea6;" horiz-adv-x="656" 
d="M470 138h-241l-69 -138h-172l354 667h182l144 -667h-173zM442 289l-36 203l-102 -203h138zM489 944l154 69l115 -178l-114 -54zM416 768l-97 -73l-110 54l184 157h90l134 -157l-127 -54z" />
    <glyph glyph-name="uni1EA7" unicode="&#x1ea7;" horiz-adv-x="543" 
d="M378 692l134 -156l-126 -53l-73 78l-98 -78l-109 53l183 156h89zM499 0h-157l3 18q-58 -36 -113 -36q-80 0 -132 56.5t-52 142.5q0 111 79.5 195.5t183.5 84.5q52 0 99 -36l2 18h157zM309 321q-43 0 -72.5 -35t-29.5 -87q0 -36 19.5 -56.5t53.5 -20.5q43 0 72 35t29 87
q0 37 -19 57t-53 20zM380 725l154 69l115 -178l-114 -54z" />
    <glyph glyph-name="uni1EA8" unicode="&#x1ea8;" horiz-adv-x="656" 
d="M608 799l43 -50l-128 -53l-73 72l-97 -72l-111 53l185 157h89l55 -64l2 4l1 4q5 17 23 35l1 2q0 4 -9 4q-8 0 -30 -11l-30 107q58 18 75.5 22t42.5 4q52 0 82.5 -22t30.5 -59q0 -38 -32 -75l-20 -23q-1 -3 -6 -35h-94zM470 138h-241l-69 -138h-172l354 667h182l144 -667
h-173zM442 289l-36 203l-102 -203h138z" />
    <glyph glyph-name="uni1EA9" unicode="&#x1ea9;" horiz-adv-x="543" 
d="M412 692l42 -50q7 15 22 29l1 2v1q0 3 -9 3q-8 0 -30 -10l-30 107q57 19 74 22.5t44 3.5q52 0 82.5 -22t30.5 -60q0 -39 -32 -74l-20 -23q-1 -4 -6 -35h-78l42 -50l-126 -53l-73 79l-98 -79l-109 53l183 156h90zM499 0h-157l3 18q-58 -36 -113 -36q-80 0 -132 56.5
t-52 142.5q0 111 79.5 195.5t183.5 84.5q52 0 99 -36l2 18h157zM309 321q-43 0 -72.5 -35t-29.5 -87q0 -36 19.5 -56.5t53.5 -20.5q43 0 72 35t29 87q0 37 -19 57t-53 20z" />
    <glyph glyph-name="uni1EAA" unicode="&#x1eaa;" horiz-adv-x="656" 
d="M470 138h-241l-69 -138h-172l354 667h182l144 -667h-173zM442 289l-36 203l-102 -203h138zM448 761l-96 -66l-111 48l182 142h90l136 -142l-126 -48zM540 1046l126 -24q-13 -49 -23 -64q-37 -58 -114 -58q-28 0 -80 18q-8 2 -11 2q-7 0 -10 -6l-8 -22l-123 24
q11 37 15 46t14 22q40 54 110 54q39 0 79 -22q8 -2 9 -2q8 0 10 10z" />
    <glyph glyph-name="uni1EAB" unicode="&#x1eab;" horiz-adv-x="543" 
d="M499 0h-157l3 18q-58 -36 -113 -36q-80 0 -132 56.5t-52 142.5q0 111 79.5 195.5t183.5 84.5q52 0 99 -36l2 18h157zM309 321q-43 0 -72.5 -35t-29.5 -87q0 -36 19.5 -56.5t53.5 -20.5q43 0 72 35t29 87q0 37 -19 57t-53 20zM346 564l-95 -66l-111 48l181 142h90
l137 -142l-126 -48zM438 850l126 -25q-12 -48 -23 -64q-36 -57 -114 -57q-28 0 -80 17q-8 2 -11 2q-7 0 -9 -5l-9 -22l-122 24q14 51 28 68q41 53 110 53q39 0 80 -21q6 -2 8 -2q8 0 11 10z" />
    <glyph glyph-name="uni1EAC" unicode="&#x1eac;" horiz-adv-x="656" 
d="M470 138h-241l-69 -138h-172l354 667h182l144 -667h-173zM442 289l-36 203l-102 -203h138zM324 -29q34 0 56 -21.5t22 -53.5q0 -40 -32 -71t-74 -31q-34 0 -56.5 21.5t-22.5 54.5q0 40 32 70.5t75 30.5zM450 768l-97 -73l-111 54l185 157h89l135 -157l-128 -54z" />
    <glyph glyph-name="uni1EAD" unicode="&#x1ead;" horiz-adv-x="543" 
d="M499 0h-157l3 18q-58 -36 -113 -36q-80 0 -132 56.5t-52 142.5q0 111 79.5 195.5t183.5 84.5q52 0 99 -36l2 18h157zM309 321q-43 0 -72.5 -35t-29.5 -87q0 -36 19.5 -56.5t53.5 -20.5q43 0 72 35t29 87q0 37 -19 57t-53 20zM265 -29q34 0 56 -21.5t22 -53.5
q0 -40 -32 -71t-74 -31q-34 0 -56.5 21.5t-22.5 54.5q0 40 32 70.5t75 30.5zM346 561l-98 -78l-109 53l183 156h89l134 -156l-126 -53z" />
    <glyph glyph-name="uni1EAE" unicode="&#x1eae;" horiz-adv-x="656" 
d="M470 138h-241l-69 -138h-172l354 667h182l144 -667h-173zM442 289l-36 203l-102 -203h138zM294 867l136 9q-3 -21 -3 -32q-1 -4 -1 -10q0 -22 28 -22q19 0 30 14q5 5 20 49l133 -8q-14 -48 -20 -61.5t-21 -31.5q-61 -72 -160 -72q-63 0 -105.5 32.5t-42.5 80.5q0 9 6 52z
M667 1020l-204 -147l-98 49l169 160z" />
    <glyph glyph-name="uni1EAF" unicode="&#x1eaf;" horiz-adv-x="543" 
d="M499 0h-157l3 18q-58 -36 -113 -36q-80 0 -132 56.5t-52 142.5q0 111 79.5 195.5t183.5 84.5q52 0 99 -36l2 18h157zM309 321q-43 0 -72.5 -35t-29.5 -87q0 -36 19.5 -56.5t53.5 -20.5q43 0 72 35t29 87q0 37 -19 57t-53 20zM191 663l136 9q-3 -21 -3 -31q-1 -4 -1 -10
q0 -22 28 -22q19 0 30 14q5 5 20 49l133 -9q-14 -48 -20 -61t-21 -31q-61 -72 -160 -72q-63 0 -105.5 32.5t-42.5 80.5q0 9 6 51zM564 817l-204 -147l-98 49l169 160z" />
    <glyph glyph-name="uni1EB0" unicode="&#x1eb0;" horiz-adv-x="656" 
d="M470 138h-241l-69 -138h-172l354 667h182l144 -667h-173zM442 289l-36 203l-102 -203h138zM294 867l136 9q-3 -21 -3 -32q-1 -4 -1 -10q0 -22 28 -22q19 0 30 14q5 5 20 49l133 -8q-14 -48 -20 -61.5t-21 -31.5q-61 -72 -160 -72q-63 0 -105.5 32.5t-42.5 80.5q0 9 6 52z
M306 1020l152 62l119 -160l-114 -49z" />
    <glyph glyph-name="uni1EB1" unicode="&#x1eb1;" horiz-adv-x="543" 
d="M499 0h-157l3 18q-58 -36 -113 -36q-80 0 -132 56.5t-52 142.5q0 111 79.5 195.5t183.5 84.5q52 0 99 -36l2 18h157zM309 321q-43 0 -72.5 -35t-29.5 -87q0 -36 19.5 -56.5t53.5 -20.5q43 0 72 35t29 87q0 37 -19 57t-53 20zM191 663l136 9q-3 -21 -3 -31q-1 -4 -1 -10
q0 -22 28 -22q19 0 30 14q5 5 20 49l133 -9q-14 -48 -20 -61t-21 -31q-61 -72 -160 -72q-63 0 -105.5 32.5t-42.5 80.5q0 9 6 51zM203 817l152 62l119 -160l-114 -49z" />
    <glyph glyph-name="uni1EB2" unicode="&#x1eb2;" horiz-adv-x="656" 
d="M470 138h-241l-69 -138h-172l354 667h182l144 -667h-173zM442 289l-36 203l-102 -203h138zM294 867l136 9q-3 -21 -3 -32q-1 -4 -1 -10q0 -22 28 -22q19 0 30 14q5 5 20 49l133 -8q-14 -48 -20 -61.5t-21 -31.5q-61 -72 -160 -72q-63 0 -105.5 32.5t-42.5 80.5q0 9 6 52z
M550 882h-140q8 41 13 52t21 25q1 1 1 3q0 3 -9 3q-8 0 -30 -10l-32 96q62 18 76.5 21t40.5 3q53 0 84 -20.5t31 -54.5q0 -32 -31 -66l-20 -21q-5 -27 -5 -31z" />
    <glyph glyph-name="uni1EB3" unicode="&#x1eb3;" horiz-adv-x="543" 
d="M499 0h-157l3 18q-58 -36 -113 -36q-80 0 -132 56.5t-52 142.5q0 111 79.5 195.5t183.5 84.5q52 0 99 -36l2 18h157zM309 321q-43 0 -72.5 -35t-29.5 -87q0 -36 19.5 -56.5t53.5 -20.5q43 0 72 35t29 87q0 37 -19 57t-53 20zM191 663l136 9q-3 -21 -3 -31q-1 -4 -1 -10
q0 -22 28 -22q19 0 30 14q5 5 20 49l133 -9q-14 -48 -20 -61t-21 -31q-61 -72 -160 -72q-63 0 -105.5 32.5t-42.5 80.5q0 8 6 51zM447 678h-140q8 41 13 52t21 25q1 1 1 3q0 3 -9 3q-8 0 -30 -10l-32 96q60 18 75.5 21t41.5 3q53 0 84 -20.5t31 -54.5q0 -33 -31 -66l-20 -21
q-4 -27 -5 -31z" />
    <glyph glyph-name="uni1EB4" unicode="&#x1eb4;" horiz-adv-x="656" 
d="M470 138h-241l-69 -138h-172l354 667h182l144 -667h-173zM442 289l-36 203l-102 -203h138zM294 867l136 8q-3 -21 -3 -31q-1 -4 -1 -10q0 -22 27 -22q18 0 31 14q6 6 20 49l133 -9q-13 -46 -19.5 -60t-21.5 -32q-61 -72 -160 -72q-63 0 -105.5 32.5t-42.5 80.5q0 9 6 52z
M538 1035l126 -24q-13 -49 -23 -64q-37 -58 -114 -58q-28 0 -80 18q-8 2 -11 2q-8 0 -9 -6l-9 -22l-122 25q15 52 28 68q41 53 111 53q39 0 71 -18q13 -6 16 -6q8 0 10 11z" />
    <glyph glyph-name="uni1EB5" unicode="&#x1eb5;" horiz-adv-x="543" 
d="M194 663l136 9q-3 -21 -3 -31q-1 -4 -1 -10q0 -22 28 -22q19 0 30 14q6 5 20 49l133 -9q-14 -48 -20 -61t-21 -31q-61 -72 -160 -72q-63 0 -105.5 32.5t-42.5 80.5q0 8 6 51zM438 832l126 -24q-12 -47 -23 -64q-16 -27 -47 -42.5t-67 -15.5q-28 0 -80 18q-8 2 -11 2
q-8 0 -9 -6l-9 -22l-122 24q14 50 28 68q40 54 111 54q37 0 71 -18q13 -6 16 -6q8 0 11 10zM499 0h-157l3 18q-58 -36 -113 -36q-80 0 -132 56.5t-52 142.5q0 111 79.5 195.5t183.5 84.5q52 0 99 -36l2 18h157zM309 321q-43 0 -72.5 -35t-29.5 -87q0 -36 19.5 -56.5
t53.5 -20.5q43 0 72 35t29 87q0 37 -19 57t-53 20z" />
    <glyph glyph-name="uni1EB6" unicode="&#x1eb6;" horiz-adv-x="656" 
d="M470 138h-241l-69 -138h-172l354 667h182l144 -667h-173zM442 289l-36 203l-102 -203h138zM297 885l136 10q-1 -6 -1.5 -14.5t-1.5 -13t-1 -6.5q-1 -5 -1 -12q0 -24 28 -24q18 0 30 15q5 6 21 55l133 -10q-16 -56 -22 -70t-21 -33q-62 -80 -161 -80q-63 0 -104.5 35.5
t-41.5 89.5q0 8 7 58zM324 -29q34 0 56 -21.5t22 -53.5q0 -40 -32 -71t-74 -31q-34 0 -56.5 21.5t-22.5 54.5q0 40 32 70.5t75 30.5z" />
    <glyph glyph-name="uni1EB7" unicode="&#x1eb7;" horiz-adv-x="543" 
d="M499 0h-157l3 18q-58 -36 -113 -36q-80 0 -132 56.5t-52 142.5q0 111 79.5 195.5t183.5 84.5q52 0 99 -36l2 18h157zM309 321q-43 0 -72.5 -35t-29.5 -87q0 -36 19.5 -56.5t53.5 -20.5q43 0 72 35t29 87q0 37 -19 57t-53 20zM265 -29q34 0 56 -21.5t22 -53.5
q0 -40 -32 -71t-74 -31q-34 0 -56.5 21.5t-22.5 54.5q0 40 32 70.5t75 30.5zM192 672l136 10q0 -7 -1 -15.5t-1.5 -14t-0.5 -7.5q-1 -5 -1 -13q0 -25 28 -25q17 0 29 16q5 6 21 58l133 -10q-15 -53 -21 -68t-21 -34q-62 -80 -161 -80q-62 0 -104 35.5t-42 88.5q0 9 6 59z
" />
    <glyph glyph-name="uni1EB8" unicode="&#x1eb8;" horiz-adv-x="495" 
d="M545 518h-241l-16 -106h213l-23 -150h-214l-18 -111h250l-24 -151h-411l106 667h401zM262 -29q34 0 56 -21.5t22 -53.5q0 -40 -32 -71t-74 -31q-34 0 -56 21.5t-22 54.5q0 40 32 70.5t74 30.5z" />
    <glyph glyph-name="uni1EB9" unicode="&#x1eb9;" horiz-adv-x="494" 
d="M342 150l135 -53q-96 -115 -228 -115q-89 0 -145 56t-56 145q0 110 83 193.5t193 83.5q84 0 138 -55.5t54 -141.5q0 -35 -13 -90h-300q8 -31 22.5 -44t42.5 -13q43 0 74 34zM219 270h147q-5 31 -20 43.5t-47 12.5q-30 0 -48.5 -12.5t-31.5 -43.5zM243 -29q34 0 56 -21.5
t22 -53.5q0 -40 -32 -71t-74 -31q-34 0 -56.5 21.5t-22.5 54.5q0 40 32 70.5t75 30.5z" />
    <glyph glyph-name="uni1EBA" unicode="&#x1eba;" horiz-adv-x="495" 
d="M545 518h-241l-16 -106h213l-23 -150h-214l-18 -111h250l-24 -151h-411l106 667h401zM461 709h-140q9 46 14 58.5t21 27.5l1 2q0 4 -9 4t-30 -11l-30 107q58 18 75 22t43 4q52 0 82.5 -22t30.5 -59q0 -38 -32 -75l-20 -23q-4 -18 -6 -35z" />
    <glyph glyph-name="uni1EBB" unicode="&#x1ebb;" horiz-adv-x="494" 
d="M342 150l135 -53q-96 -115 -228 -115q-89 0 -145 56t-56 145q0 110 83 193.5t193 83.5q84 0 138 -55.5t54 -141.5q0 -35 -13 -90h-300q8 -31 22.5 -44t42.5 -13q43 0 74 34zM219 270h147q-5 31 -20 43.5t-47 12.5q-30 0 -48.5 -12.5t-31.5 -43.5zM408 501h-139
q8 45 13 58t21 27q1 1 1 3q0 4 -8 4q-9 0 -31 -11l-30 107q57 18 74.5 22t44.5 4q52 0 82.5 -22t30.5 -59q0 -38 -33 -75l-20 -23q-1 -3 -6 -35z" />
    <glyph glyph-name="uni1EBC" unicode="&#x1ebc;" horiz-adv-x="495" 
d="M545 518h-241l-16 -106h213l-23 -150h-214l-18 -111h250l-24 -151h-411l106 667h401zM436 890l125 -28q-13 -52 -24 -71q-17 -30 -48 -47t-67 -17q-29 0 -80 20q-6 2 -11 2q-7 0 -9 -6l-9 -25l-122 27q14 54 29 76q42 59 112 59q38 0 71 -19q13 -7 16 -7q7 0 11 11z" />
    <glyph glyph-name="uni1EBD" unicode="&#x1ebd;" horiz-adv-x="494" 
d="M342 150l135 -53q-96 -115 -228 -115q-89 0 -145 56t-56 145q0 110 83 193.5t193 83.5q84 0 138 -55.5t54 -141.5q0 -35 -13 -90h-300q8 -31 22.5 -44t42.5 -13q43 0 74 34zM219 270h147q-5 31 -20 43.5t-47 12.5q-30 0 -48.5 -12.5t-31.5 -43.5zM400 677l125 -27
q-13 -53 -24 -71q-37 -64 -115 -64q-29 0 -80 20q-6 2 -11 2t-9 -7l-9 -24l-122 27q16 56 30 75q40 60 111 60q38 0 71 -19q13 -7 16 -7q7 0 11 11z" />
    <glyph glyph-name="uni1EBE" unicode="&#x1ebe;" horiz-adv-x="539" 
d="M557 518h-241l-16 -106h213l-23 -150h-214l-18 -111h250l-24 -151h-411l106 667h401zM552 791l36 -42l-127 -54l-73 77l-98 -77l-110 54l184 157h90l21 -25l92 95l132 -69z" />
    <glyph glyph-name="uni1EBF" unicode="&#x1ebf;" horiz-adv-x="494" 
d="M429 663l139 143l132 -69l-200 -158l38 -43l-126 -53l-73 78l-98 -78l-109 53l183 156h89zM342 150l135 -53q-96 -115 -228 -115q-89 0 -145 56t-56 145q0 110 83 193.5t193 83.5q84 0 138 -55.5t54 -141.5q0 -35 -13 -90h-300q8 -31 22.5 -44t42.5 -13q43 0 74 34z
M219 270h147q-5 31 -20 43.5t-47 12.5q-30 0 -48.5 -12.5t-31.5 -43.5z" />
    <glyph glyph-name="uni1EC0" unicode="&#x1ec0;" horiz-adv-x="593" 
d="M568 518h-241l-16 -106h213l-23 -150h-214l-18 -111h250l-24 -151h-411l106 667h401zM460 944l154 69l115 -178l-114 -54zM387 768l-97 -73l-110 54l184 157h90l134 -157l-127 -54z" />
    <glyph glyph-name="uni1EC1" unicode="&#x1ec1;" horiz-adv-x="494" 
d="M342 150l135 -53q-96 -115 -228 -115q-89 0 -145 56t-56 145q0 110 83 193.5t193 83.5q84 0 138 -55.5t54 -141.5q0 -35 -13 -90h-300q8 -31 22.5 -44t42.5 -13q43 0 74 34zM219 270h147q-5 31 -20 43.5t-47 12.5q-30 0 -48.5 -12.5t-31.5 -43.5zM375 692l134 -156
l-126 -53l-73 78l-98 -78l-109 53l183 156h89zM377 725l154 69l115 -178l-114 -54z" />
    <glyph glyph-name="uni1EC2" unicode="&#x1ec2;" horiz-adv-x="535" 
d="M576 518h-241l-16 -106h213l-23 -150h-214l-18 -111h250l-24 -151h-411l106 667h401zM545 799l43 -50l-127 -53l-74 72l-97 -72l-110 53l184 157h90l55 -64q7 25 26 43l1 2q0 4 -9 4t-31 -11l-30 107q59 18 76 22t43 4q52 0 82.5 -22t30.5 -59q0 -39 -33 -75l-20 -23
q-1 -7 -3 -17t-3 -18h-94z" />
    <glyph glyph-name="uni1EC3" unicode="&#x1ec3;" horiz-adv-x="494" 
d="M342 150l135 -53q-96 -115 -228 -115q-89 0 -145 56t-56 145q0 110 83 193.5t193 83.5q84 0 138 -55.5t54 -141.5q0 -35 -13 -90h-300q8 -31 22.5 -44t42.5 -13q43 0 74 34zM219 270h147q-5 31 -20 43.5t-47 12.5q-30 0 -48.5 -12.5t-31.5 -43.5zM393 692l43 -50
q8 17 22 29l1 2v1q0 3 -9 3q-8 0 -30 -10l-30 107q61 19 76.5 22.5t41.5 3.5q52 0 82.5 -22t30.5 -60q0 -37 -32 -74l-20 -23l-7 -35h-78l43 -50l-126 -53l-73 79l-98 -79l-109 53l183 156h89z" />
    <glyph glyph-name="uni1EC4" unicode="&#x1ec4;" horiz-adv-x="495" 
d="M545 518h-241l-16 -106h213l-23 -150h-214l-18 -111h250l-24 -151h-411l106 667h401zM383 761l-96 -66l-111 48l182 142h89l137 -142l-126 -48zM475 1046l125 -24q-12 -49 -23 -64q-35 -58 -114 -58q-28 0 -80 18q-6 2 -11 2q-8 0 -9 -6l-8 -22l-123 24q15 50 28 68
q40 54 111 54q39 0 79 -22q6 -2 8 -2q8 0 11 10z" />
    <glyph glyph-name="uni1EC5" unicode="&#x1ec5;" horiz-adv-x="494" 
d="M342 150l135 -53q-96 -115 -228 -115q-89 0 -145 56t-56 145q0 110 83 193.5t193 83.5q84 0 138 -55.5t54 -141.5q0 -35 -13 -90h-300q8 -31 22.5 -44t42.5 -13q43 0 74 34zM219 270h147q-5 31 -20 43.5t-47 12.5q-30 0 -48.5 -12.5t-31.5 -43.5zM334 564l-95 -66
l-112 48l182 142h90l137 -142l-127 -48zM426 850l126 -25q-12 -48 -23 -64q-17 -26 -47.5 -41.5t-66.5 -15.5q-28 0 -80 17q-8 2 -11 2q-7 0 -9 -5l-9 -22l-122 24q14 51 28 68q41 53 110 53q39 0 80 -21q6 -2 8 -2q8 0 11 10z" />
    <glyph glyph-name="uni1EC6" unicode="&#x1ec6;" horiz-adv-x="495" 
d="M275 -29q34 0 56 -21.5t22 -53.5q0 -40 -32 -71t-74 -31q-34 0 -56.5 21.5t-22.5 54.5q0 40 32 70.5t75 30.5zM388 768l-97 -73l-110 54l184 157h90l134 -157l-127 -54zM545 518h-241l-16 -106h213l-23 -150h-214l-18 -111h250l-24 -151h-411l106 667h401z" />
    <glyph glyph-name="uni1EC7" unicode="&#x1ec7;" horiz-adv-x="494" 
d="M342 150l135 -53q-96 -115 -228 -115q-89 0 -145 56t-56 145q0 110 83 193.5t193 83.5q84 0 138 -55.5t54 -141.5q0 -35 -13 -90h-300q8 -31 22.5 -44t42.5 -13q43 0 74 34zM219 270h147q-5 31 -20 43.5t-47 12.5q-30 0 -48.5 -12.5t-31.5 -43.5zM249 -29q34 0 56 -21.5
t22 -53.5q0 -40 -32 -71t-74 -31q-34 0 -56.5 21.5t-22.5 54.5q0 40 32 70.5t75 30.5zM335 561l-97 -78l-110 53l184 156h89l134 -156l-126 -53z" />
    <glyph glyph-name="uni1EC8" unicode="&#x1ec8;" horiz-adv-x="283" 
d="M327 667l-105 -667h-163l106 667h162zM334 709h-139q8 46 13 58.5t21 27.5l1 2q0 4 -9 4t-30 -11l-30 107q60 19 76 22.5t42 3.5q52 0 82.5 -22t30.5 -59q0 -38 -32 -75l-20 -23q-1 -3 -6 -35z" />
    <glyph glyph-name="uni1EC9" unicode="&#x1ec9;" horiz-adv-x="246" 
d="M272 443l-71 -443h-156l70 443h157zM281 501h-140q9 46 14 58.5t21 26.5l1 3q0 4 -9 4q-8 0 -30 -11l-30 107q61 19 76.5 22.5t41.5 3.5q52 0 82.5 -22t30.5 -59q0 -38 -32 -75l-20 -23q-4 -18 -6 -35z" />
    <glyph glyph-name="uni1ECA" unicode="&#x1eca;" horiz-adv-x="280" 
d="M327 667l-106 -667h-162l105 667h163zM136 -29q34 0 56 -21.5t22 -53.5q0 -40 -32 -71t-74 -31q-34 0 -56.5 21.5t-22.5 54.5q0 40 32.5 70.5t74.5 30.5z" />
    <glyph glyph-name="uni1ECB" unicode="&#x1ecb;" horiz-adv-x="246" 
d="M232 685q34 0 56 -21t22 -53q0 -40 -32 -71t-74 -31q-35 0 -57 21t-22 54q0 40 32 70.5t75 30.5zM271 443l-70 -443h-156l70 443h156zM119 -29q34 0 56 -21.5t22 -53.5q0 -40 -32 -71t-74 -31q-34 0 -56.5 21.5t-22.5 54.5q0 40 32.5 70.5t74.5 30.5z" />
    <glyph glyph-name="uni1ECC" unicode="&#x1ecc;" horiz-adv-x="764" 
d="M494 685q129 0 216.5 -86t87.5 -213q0 -104 -59 -197.5t-157 -150t-207 -56.5q-131 0 -216.5 86t-85.5 216q0 103 58.5 196t156.5 149t206 56zM468 534q-92 0 -161.5 -70.5t-69.5 -163.5q0 -70 48 -118.5t116 -48.5q92 0 162 70.5t70 162.5q0 72 -47 120t-118 48z
M378 -29q34 0 56 -21.5t22 -53.5q0 -40 -32 -71t-74 -31q-34 0 -56.5 21.5t-22.5 54.5q0 40 32 70.5t75 30.5z" />
    <glyph glyph-name="uni1ECD" unicode="&#x1ecd;" horiz-adv-x="519" 
d="M336 461q89 0 147 -57t58 -144q0 -112 -85.5 -195t-199.5 -83q-91 0 -149.5 57t-58.5 146q0 112 86 194t202 82zM308 321q-43 0 -72.5 -35t-29.5 -87q0 -36 19.5 -56.5t53.5 -20.5q44 0 74 35t30 87q0 37 -20 57t-55 20zM255 -29q34 0 56 -21.5t22 -53.5q0 -40 -32 -71
t-74 -31q-34 0 -56 21.5t-22 54.5q0 40 32 70.5t74 30.5z" />
    <glyph glyph-name="uni1ECE" unicode="&#x1ece;" horiz-adv-x="764" 
d="M494 685q129 0 216.5 -86t87.5 -213q0 -104 -59 -197.5t-157 -150t-207 -56.5q-131 0 -216.5 86t-85.5 216q0 103 58.5 196t156.5 149t206 56zM468 534q-92 0 -161.5 -70.5t-69.5 -163.5q0 -70 48 -118.5t116 -48.5q92 0 162 70.5t70 162.5q0 72 -47 120t-118 48z
M576 709h-139q9 46 14 58.5t21 27.5l1 2q0 4 -9 4t-31 -11l-30 107q59 18 76 22t43 4q52 0 82.5 -22t30.5 -59q0 -39 -33 -75l-20 -23q-1 -7 -3 -17t-3 -18z" />
    <glyph glyph-name="uni1ECF" unicode="&#x1ecf;" horiz-adv-x="519" 
d="M336 461q89 0 147 -57t58 -144q0 -112 -85.5 -195t-199.5 -83q-91 0 -149.5 57t-58.5 146q0 112 86 194t202 82zM308 321q-43 0 -72.5 -35t-29.5 -87q0 -36 19.5 -56.5t53.5 -20.5q44 0 74 35t30 87q0 37 -20 57t-55 20zM421 501h-139q8 45 13 58t21 27l1 3q0 4 -8 4
q-9 0 -31 -11l-30 107q57 19 74 22.5t44 3.5q52 0 82.5 -22t30.5 -59t-32 -75l-20 -23q-1 -3 -6 -35z" />
    <glyph glyph-name="uni1ED0" unicode="&#x1ed0;" horiz-adv-x="764" 
d="M494 685q129 0 216.5 -86t87.5 -213q0 -104 -59 -197.5t-157 -150t-207 -56.5q-131 0 -216.5 86t-85.5 216q0 103 58.5 196t156.5 149t206 56zM468 534q-92 0 -161.5 -70.5t-69.5 -163.5q0 -70 48 -118.5t116 -48.5q92 0 162 70.5t70 162.5q0 72 -47 120t-118 48z
M669 791l36 -42l-128 -54l-73 77l-97 -77l-111 54l185 157h89l22 -25l92 95l132 -69z" />
    <glyph glyph-name="uni1ED1" unicode="&#x1ed1;" horiz-adv-x="519" 
d="M439 663l138 143l132 -69l-199 -158l37 -43l-126 -53l-73 78l-98 -78l-109 53l184 156h89zM336 461q89 0 147 -57t58 -144q0 -112 -85.5 -195t-199.5 -83q-91 0 -149.5 57t-58.5 146q0 112 86 194t202 82zM308 321q-43 0 -72.5 -35t-29.5 -87q0 -36 19.5 -56.5
t53.5 -20.5q44 0 74 35t30 87q0 37 -20 57t-55 20z" />
    <glyph glyph-name="uni1ED2" unicode="&#x1ed2;" horiz-adv-x="764" 
d="M494 685q129 0 216.5 -86t87.5 -213q0 -104 -59 -197.5t-157 -150t-207 -56.5q-131 0 -216.5 86t-85.5 216q0 103 58.5 196t156.5 149t206 56zM468 534q-92 0 -161.5 -70.5t-69.5 -163.5q0 -70 48 -118.5t116 -48.5q92 0 162 70.5t70 162.5q0 72 -47 120t-118 48z
M576 944l154 69l116 -178l-115 -54zM504 768l-97 -73l-111 54l185 157h89l135 -157l-128 -54z" />
    <glyph glyph-name="uni1ED3" unicode="&#x1ed3;" horiz-adv-x="519" 
d="M336 461q89 0 147 -57t58 -144q0 -112 -85.5 -195t-199.5 -83q-91 0 -149.5 57t-58.5 146q0 112 86 194t202 82zM308 321q-43 0 -72.5 -35t-29.5 -87q0 -36 19.5 -56.5t53.5 -20.5q44 0 74 35t30 87q0 37 -20 57t-55 20zM414 692l133 -156l-126 -53l-73 78l-98 -78
l-109 53l184 156h89zM415 725l154 69l116 -178l-115 -54z" />
    <glyph glyph-name="uni1ED4" unicode="&#x1ed4;" horiz-adv-x="764" 
d="M494 685q129 0 216.5 -86t87.5 -213q0 -104 -59 -197.5t-157 -150t-207 -56.5q-131 0 -216.5 86t-85.5 216q0 103 58.5 196t156.5 149t206 56zM468 534q-92 0 -161.5 -70.5t-69.5 -163.5q0 -70 48 -118.5t116 -48.5q92 0 162 70.5t70 162.5q0 72 -47 120t-118 48z
M662 799l43 -50l-128 -53l-74 72l-96 -72l-111 53l185 157h89l55 -64l1 4l2 4q5 17 23 35l1 2q0 4 -9 4q-8 0 -30 -11l-30 107q58 18 75.5 22t42.5 4q52 0 82.5 -22t30.5 -59q0 -38 -32 -75l-20 -23q-1 -3 -6 -35h-94z" />
    <glyph glyph-name="uni1ED5" unicode="&#x1ed5;" horiz-adv-x="519" 
d="M336 461q89 0 147 -57t58 -144q0 -112 -85.5 -195t-199.5 -83q-91 0 -149.5 57t-58.5 146q0 112 86 194t202 82zM308 321q-43 0 -72.5 -35t-29.5 -87q0 -36 19.5 -56.5t53.5 -20.5q44 0 74 35t30 87q0 37 -20 57t-55 20zM400 692l43 -50q6 15 21 29q2 2 1 2v1q0 3 -8 3
t-31 -10l-30 107q61 19 76.5 22.5t42.5 3.5q52 0 82.5 -22t30.5 -60t-33 -74l-20 -23q-1 -8 -3 -18t-3 -17h-78l43 -50l-126 -53l-73 79l-98 -79l-110 53l184 156h89z" />
    <glyph glyph-name="uni1ED6" unicode="&#x1ed6;" horiz-adv-x="764" 
d="M494 685q129 0 216.5 -86t87.5 -213q0 -104 -59 -197.5t-157 -150t-207 -56.5q-131 0 -216.5 86t-85.5 216q0 103 58.5 196t156.5 149t206 56zM468 534q-92 0 -161.5 -70.5t-69.5 -163.5q0 -70 48 -118.5t116 -48.5q92 0 162 70.5t70 162.5q0 72 -47 120t-118 48z
M502 761l-96 -66l-111 48l182 142h90l136 -142l-126 -48zM594 1046l126 -24q-13 -49 -23 -64q-37 -58 -114 -58q-28 0 -80 18q-8 2 -11 2q-7 0 -10 -6l-8 -22l-123 24q11 37 15 46t14 22q40 54 110 54q39 0 79 -22q8 -2 9 -2q8 0 10 10z" />
    <glyph glyph-name="uni1ED7" unicode="&#x1ed7;" horiz-adv-x="519" 
d="M336 461q89 0 147 -57t58 -144q0 -112 -85.5 -195t-199.5 -83q-91 0 -149.5 57t-58.5 146q0 112 86 194t202 82zM308 321q-43 0 -72.5 -35t-29.5 -87q0 -36 19.5 -56.5t53.5 -20.5q44 0 74 35t30 87q0 37 -20 57t-55 20zM349 564l-96 -66l-111 48l182 142h89l137 -142
l-126 -48zM441 850l125 -25q-12 -48 -23 -64q-36 -57 -114 -57q-28 0 -80 17q-6 2 -11 2q-7 0 -9 -5l-8 -22l-123 24q12 38 15 46.5t13 21.5q41 53 111 53q38 0 79 -21q6 -2 8 -2q9 0 11 10z" />
    <glyph glyph-name="uni1ED8" unicode="&#x1ed8;" horiz-adv-x="764" 
d="M494 685q129 0 216.5 -86t87.5 -213q0 -104 -59 -197.5t-157 -150t-207 -56.5q-131 0 -216.5 86t-85.5 216q0 103 58.5 196t156.5 149t206 56zM468 534q-92 0 -161.5 -70.5t-69.5 -163.5q0 -70 48 -118.5t116 -48.5q92 0 162 70.5t70 162.5q0 72 -47 120t-118 48z
M378 -29q34 0 56 -21.5t22 -53.5q0 -40 -32 -71t-74 -31q-34 0 -56.5 21.5t-22.5 54.5q0 40 32 70.5t75 30.5zM503 768l-96 -73l-111 54l185 157h89l135 -157l-128 -54z" />
    <glyph glyph-name="uni1ED9" unicode="&#x1ed9;" horiz-adv-x="519" 
d="M336 461q89 0 147 -57t58 -144q0 -112 -85.5 -195t-199.5 -83q-91 0 -149.5 57t-58.5 146q0 112 86 194t202 82zM308 321q-43 0 -72.5 -35t-29.5 -87q0 -36 19.5 -56.5t53.5 -20.5q44 0 74 35t30 87q0 37 -20 57t-55 20zM348 561l-98 -78l-109 53l184 156h89l133 -156
l-126 -53zM255 -29q34 0 56 -21.5t22 -53.5q0 -40 -32 -71t-74 -31q-34 0 -56 21.5t-22 54.5q0 40 32 70.5t74 30.5z" />
    <glyph glyph-name="uni1EDA" unicode="&#x1eda;" horiz-adv-x="783" 
d="M705 604l5 2q33 15 33 42q0 16 -7.5 25.5t-52.5 53.5l131 60q38 -31 48 -47q20 -32 20 -75q0 -100 -105 -167q21 -55 21 -112q0 -104 -59 -197.5t-157 -150t-207 -56.5q-128 0 -216 86t-88 212q0 159 128.5 282t294.5 123q120 0 211 -81zM467 534q-92 0 -161.5 -70.5
t-69.5 -163.5q0 -70 48 -118.5t116 -48.5q92 0 162.5 70.5t70.5 162.5q0 72 -47.5 120t-118.5 48zM719 858l-207 -164l-97 55l172 178z" />
    <glyph glyph-name="uni1EDB" unicode="&#x1edb;" horiz-adv-x="575" 
d="M541 275v-15q0 -112 -85.5 -195t-199.5 -83q-91 0 -149.5 57t-58.5 145q0 111 85.5 194t200.5 83q97 0 158 -67q14 13 14 31q0 15 -7.5 25t-52.5 53l131 61q27 -23 33.5 -29t14.5 -19q20 -32 20 -74q0 -100 -104 -167zM308 321q-43 0 -72.5 -35t-29.5 -87
q0 -36 19.5 -56.5t53.5 -20.5q44 0 74 35t30 87q0 37 -20 57t-55 20zM542 644l-207 -163l-97 54l172 178z" />
    <glyph glyph-name="uni1EDC" unicode="&#x1edc;" horiz-adv-x="783" 
d="M705 604l5 2q33 15 33 42q0 16 -7.5 25.5t-52.5 53.5l131 60q38 -31 48 -47q20 -32 20 -75q0 -100 -105 -167q21 -55 21 -112q0 -104 -59 -197.5t-157 -150t-207 -56.5q-128 0 -216 86t-88 212q0 159 128.5 282t294.5 123q120 0 211 -81zM467 534q-92 0 -161.5 -70.5
t-69.5 -163.5q0 -70 48 -118.5t116 -48.5q92 0 162.5 70.5t70.5 162.5q0 72 -47.5 120t-118.5 48zM317 858l154 69l115 -178l-114 -55z" />
    <glyph glyph-name="uni1EDD" unicode="&#x1edd;" horiz-adv-x="575" 
d="M541 275v-15q0 -112 -85.5 -195t-199.5 -83q-91 0 -149.5 57t-58.5 145q0 111 85.5 194t200.5 83q97 0 158 -67q14 13 14 31q0 15 -7.5 25t-52.5 53l131 61q27 -23 33.5 -29t14.5 -19q20 -32 20 -74q0 -100 -104 -167zM308 321q-43 0 -72.5 -35t-29.5 -87
q0 -36 19.5 -56.5t53.5 -20.5q44 0 74 35t30 87q0 37 -20 57t-55 20zM178 644l154 69l115 -178l-114 -54z" />
    <glyph glyph-name="uni1EDE" unicode="&#x1ede;" horiz-adv-x="783" 
d="M705 604l5 2q33 15 33 42q0 16 -7.5 25.5t-52.5 53.5l131 60q38 -31 48 -47q20 -32 20 -75q0 -100 -105 -167q21 -55 21 -112q0 -104 -59 -197.5t-157 -150t-207 -56.5q-128 0 -216 86t-88 212q0 159 128.5 282t294.5 123q120 0 211 -81zM467 534q-92 0 -161.5 -70.5
t-69.5 -163.5q0 -70 48 -118.5t116 -48.5q92 0 162.5 70.5t70.5 162.5q0 72 -47.5 120t-118.5 48zM589 709h-139q9 47 14 59t21 27l1 2q0 4 -9 4t-31 -11l-30 107q59 18 76 22t43 4q52 0 82.5 -22t30.5 -59q0 -39 -33 -75l-20 -23q-1 -7 -3 -17t-3 -18z" />
    <glyph glyph-name="uni1EDF" unicode="&#x1edf;" horiz-adv-x="575" 
d="M541 275v-15q0 -112 -85.5 -195t-199.5 -83q-91 0 -149.5 57t-58.5 145q0 111 85.5 194t200.5 83q97 0 158 -67q14 13 14 31q0 15 -7.5 25t-52.5 53l131 61q27 -23 33.5 -29t14.5 -19q20 -32 20 -74q0 -100 -104 -167zM308 321q-43 0 -72.5 -35t-29.5 -87
q0 -36 19.5 -56.5t53.5 -20.5q44 0 74 35t30 87q0 37 -20 57t-55 20zM422 501h-139q9 45 14 58t20 27q2 2 2 3q0 4 -9 4t-30 -11l-30 107q60 19 76 22.5t42 3.5q52 0 82.5 -22t30.5 -59q0 -38 -32 -75l-20 -23q-4 -18 -7 -35z" />
    <glyph glyph-name="uni1EE0" unicode="&#x1ee0;" horiz-adv-x="783" 
d="M705 604l5 2q33 15 33 42q0 16 -7.5 25.5t-52.5 53.5l131 60q38 -31 48 -47q20 -32 20 -75q0 -100 -105 -167q21 -55 21 -112q0 -104 -59 -197.5t-157 -150t-207 -56.5q-128 0 -216 86t-88 212q0 159 128.5 282t294.5 123q120 0 211 -81zM467 534q-92 0 -161.5 -70.5
t-69.5 -163.5q0 -70 48 -118.5t116 -48.5q92 0 162.5 70.5t70.5 162.5q0 72 -47.5 120t-118.5 48zM566 890l125 -28q-13 -52 -24 -71q-17 -30 -48 -47t-67 -17q-29 0 -80 20q-6 2 -11 2q-7 0 -9 -6l-9 -25l-122 27q14 54 29 76q42 59 112 59q38 0 71 -19q13 -7 16 -7
q7 0 11 11z" />
    <glyph glyph-name="uni1EE1" unicode="&#x1ee1;" horiz-adv-x="575" 
d="M541 275v-15q0 -112 -85.5 -195t-199.5 -83q-91 0 -149.5 57t-58.5 145q0 111 85.5 194t200.5 83q97 0 158 -67q14 13 14 31q0 15 -7.5 25t-52.5 53l131 61q27 -23 33.5 -29t14.5 -19q20 -32 20 -74q0 -100 -104 -167zM308 321q-43 0 -72.5 -35t-29.5 -87
q0 -36 19.5 -56.5t53.5 -20.5q44 0 74 35t30 87q0 37 -20 57t-55 20zM411 677l125 -27q-13 -53 -24 -71q-37 -64 -115 -64q-29 0 -79 20q-8 2 -11 2q-7 0 -10 -7l-8 -24l-122 27q11 40 15 50.5t14 24.5q40 60 111 60q37 0 72 -19q13 -7 15 -7q9 0 11 11z" />
    <glyph glyph-name="uni1EE2" unicode="&#x1ee2;" horiz-adv-x="783" 
d="M705 604l5 2q33 15 33 42q0 16 -7.5 25.5t-52.5 53.5l131 60q38 -31 48 -47q20 -32 20 -75q0 -100 -105 -167q21 -55 21 -112q0 -104 -59 -197.5t-157 -150t-207 -56.5q-128 0 -216 86t-88 212q0 159 128.5 282t294.5 123q120 0 211 -81zM467 534q-92 0 -161.5 -70.5
t-69.5 -163.5q0 -70 48 -118.5t116 -48.5q92 0 162.5 70.5t70.5 162.5q0 72 -47.5 120t-118.5 48zM378 -29q34 0 56 -21.5t22 -53.5q0 -40 -32 -71t-74 -31q-34 0 -56.5 21.5t-22.5 54.5q0 40 32 70.5t75 30.5z" />
    <glyph glyph-name="uni1EE3" unicode="&#x1ee3;" horiz-adv-x="575" 
d="M541 275v-15q0 -112 -85.5 -195t-199.5 -83q-91 0 -149.5 57t-58.5 145q0 111 85.5 194t200.5 83q97 0 158 -67q14 13 14 31q0 15 -7.5 25t-52.5 53l131 61q27 -23 33.5 -29t14.5 -19q20 -32 20 -74q0 -100 -104 -167zM308 321q-43 0 -72.5 -35t-29.5 -87
q0 -36 19.5 -56.5t53.5 -20.5q44 0 74 35t30 87q0 37 -20 57t-55 20zM255 -29q34 0 56 -21.5t22 -53.5q0 -40 -32 -71t-74 -31q-34 0 -56 21.5t-22 54.5q0 40 32 70.5t74 30.5z" />
    <glyph glyph-name="uni1EE4" unicode="&#x1ee4;" horiz-adv-x="648" 
d="M330 667l-65 -407q-6 -46 -6 -57q0 -31 23.5 -50.5t61.5 -19.5q27 0 54 11.5t41 28.5q16 21 26 87l65 407h163l-68 -424q-16 -102 -75 -164q-43 -45 -104 -71t-124 -26q-98 0 -162.5 56t-64.5 142q0 26 5 63l67 424h163zM320 -29q34 0 56 -21.5t22 -53.5q0 -40 -32 -71
t-74 -31q-34 0 -56.5 21.5t-22.5 54.5q0 40 32 70.5t75 30.5z" />
    <glyph glyph-name="uni1EE5" unicode="&#x1ee5;" horiz-adv-x="511" 
d="M311 0l2 15q-47 -33 -101 -33q-64 0 -102.5 42.5t-38.5 112.5q0 28 5 66l38 240h157l-37 -234q-5 -27 -5 -45q0 -42 40 -42q36 0 51.5 19.5t24.5 75.5l36 226h156l-70 -443h-156zM251 -29q34 0 56 -21.5t22 -53.5q0 -40 -32 -71t-74 -31q-34 0 -56 21.5t-22 54.5
q0 40 32 70.5t74 30.5z" />
    <glyph glyph-name="uni1EE6" unicode="&#x1ee6;" horiz-adv-x="648" 
d="M330 667l-65 -407q-6 -46 -6 -57q0 -31 23.5 -50.5t61.5 -19.5q27 0 54 11.5t41 28.5q16 21 26 87l65 407h163l-68 -424q-16 -102 -75 -164q-43 -45 -104 -71t-124 -26q-98 0 -162.5 56t-64.5 142q0 26 5 63l67 424h163zM519 709h-140q9 46 14 58.5t21 27.5l1 2q0 4 -9 4
t-30 -11l-30 107q58 18 75 22t43 4q52 0 82.5 -22t30.5 -59q0 -38 -32 -75l-20 -23q-4 -18 -6 -35z" />
    <glyph glyph-name="uni1EE7" unicode="&#x1ee7;" horiz-adv-x="511" 
d="M311 0l2 15q-47 -33 -101 -33q-64 0 -102.5 42.5t-38.5 112.5q0 28 5 66l38 240h157l-37 -234q-5 -27 -5 -45q0 -42 40 -42q36 0 51.5 19.5t24.5 75.5l36 226h156l-70 -443h-156zM417 501h-139q8 45 13 58t21 27q1 1 1 3q0 4 -8 4q-9 0 -31 -11l-30 107q61 19 76.5 22.5
t41.5 3.5q52 0 82.5 -22t30.5 -59q0 -38 -32 -75l-20 -23q-1 -3 -6 -35z" />
    <glyph glyph-name="uni1EE8" unicode="&#x1ee8;" horiz-adv-x="727" 
d="M693 667l-9 -56q23 15 23 37q0 16 -7.5 25.5t-52.5 53.5l131 60q25 -20 32 -27.5t15 -19.5q21 -32 21 -75q0 -61 -42 -112.5t-116 -80.5l-14 -5q-10 -4 -14 -6l-35 -218q-16 -102 -75 -164q-43 -45 -104 -71t-124 -26q-98 0 -162.5 56t-64.5 142q0 26 5 63l67 424h163
l-65 -407q-6 -46 -6 -57q0 -31 23.5 -50.5t61.5 -19.5q27 0 54 11.5t41 28.5q16 21 26 87l65 407h163zM646 858l-207 -164l-97 55l172 178z" />
    <glyph glyph-name="uni1EE9" unicode="&#x1ee9;" horiz-adv-x="626" 
d="M537 443l-9 -59q28 15 28 40q0 16 -7.5 26t-52.5 53l131 60q38 -31 48 -47q20 -31 20 -75q0 -90 -83 -151q-32 -26 -88 -47q-4 -1 -7.5 -2.5t-7.5 -3t-5 -2.5l-37 -235h-156l2 15q-47 -33 -101 -33q-64 0 -102.5 42.5t-38.5 112.5q0 28 5 66l38 240h157l-37 -234
q-5 -27 -5 -45q0 -42 40 -42q36 0 51.5 19.5t24.5 75.5l36 226h156zM540 644l-207 -163l-97 54l172 178z" />
    <glyph glyph-name="uni1EEA" unicode="&#x1eea;" horiz-adv-x="727" 
d="M693 667l-9 -56q23 15 23 37q0 16 -7.5 25.5t-52.5 53.5l131 60q25 -20 32 -27.5t15 -19.5q21 -32 21 -75q0 -61 -42 -112.5t-116 -80.5l-14 -5q-10 -4 -14 -6l-35 -218q-16 -102 -75 -164q-43 -45 -104 -71t-124 -26q-98 0 -162.5 56t-64.5 142q0 26 5 63l67 424h163
l-65 -407q-6 -46 -6 -57q0 -31 23.5 -50.5t61.5 -19.5q27 0 54 11.5t41 28.5q16 21 26 87l65 407h163zM260 858l154 69l115 -178l-114 -55z" />
    <glyph glyph-name="uni1EEB" unicode="&#x1eeb;" horiz-adv-x="626" 
d="M537 443l-9 -59q28 15 28 40q0 16 -7.5 26t-52.5 53l131 60q38 -31 48 -47q20 -31 20 -75q0 -90 -83 -151q-32 -26 -88 -47q-4 -1 -7.5 -2.5t-7.5 -3t-5 -2.5l-37 -235h-156l2 15q-47 -33 -101 -33q-64 0 -102.5 42.5t-38.5 112.5q0 28 5 66l38 240h157l-37 -234
q-5 -27 -5 -45q0 -42 40 -42q36 0 51.5 19.5t24.5 75.5l36 226h156zM170 644l154 69l115 -178l-114 -54z" />
    <glyph glyph-name="uni1EEC" unicode="&#x1eec;" horiz-adv-x="727" 
d="M693 667l-9 -56q23 15 23 37q0 16 -7.5 25.5t-52.5 53.5l131 60q25 -20 32 -27.5t15 -19.5q21 -32 21 -75q0 -61 -42 -112.5t-116 -80.5l-14 -5q-10 -4 -14 -6l-35 -218q-16 -102 -75 -164q-43 -45 -104 -71t-124 -26q-98 0 -162.5 56t-64.5 142q0 26 5 63l67 424h163
l-65 -407q-6 -46 -6 -57q0 -31 23.5 -50.5t61.5 -19.5q27 0 54 11.5t41 28.5q16 21 26 87l65 407h163zM526 709h-139q8 46 13 58.5t21 27.5l1 2q0 4 -9 4q-8 0 -30 -11l-30 107q58 18 75.5 22t42.5 4q52 0 82.5 -22t30.5 -59q0 -38 -32 -75l-20 -23q-1 -3 -6 -35z" />
    <glyph glyph-name="uni1EED" unicode="&#x1eed;" horiz-adv-x="626" 
d="M537 443l-9 -59q28 15 28 40q0 16 -7.5 26t-52.5 53l131 60q38 -31 48 -47q20 -31 20 -75q0 -90 -83 -151q-32 -26 -88 -47q-4 -1 -7.5 -2.5t-7.5 -3t-5 -2.5l-37 -235h-156l2 15q-47 -33 -101 -33q-64 0 -102.5 42.5t-38.5 112.5q0 28 5 66l38 240h157l-37 -234
q-5 -27 -5 -45q0 -42 40 -42q36 0 51.5 19.5t24.5 75.5l36 226h156zM424 501h-140q9 46 14 58.5t21 26.5l1 3q0 4 -9 4q-8 0 -30 -11l-30 107q61 19 76.5 22.5t41.5 3.5q52 0 82.5 -22t30.5 -59q0 -38 -32 -75l-20 -23q-4 -18 -6 -35z" />
    <glyph glyph-name="uni1EEE" unicode="&#x1eee;" horiz-adv-x="727" 
d="M693 667l-9 -56q23 15 23 37q0 16 -7.5 25.5t-52.5 53.5l131 60q25 -20 32 -27.5t15 -19.5q21 -32 21 -75q0 -61 -42 -112.5t-116 -80.5l-14 -5q-10 -4 -14 -6l-35 -218q-16 -102 -75 -164q-43 -45 -104 -71t-124 -26q-98 0 -162.5 56t-64.5 142q0 26 5 63l67 424h163
l-65 -407q-6 -46 -6 -57q0 -31 23.5 -50.5t61.5 -19.5q27 0 54 11.5t41 28.5q16 21 26 87l65 407h163zM509 890l125 -28q-13 -52 -24 -71q-37 -64 -115 -64q-29 0 -80 20q-6 2 -11 2q-7 0 -9 -6l-9 -25l-122 27q14 54 30 76q40 59 111 59q38 0 71 -19q13 -7 16 -7q7 0 11 11
z" />
    <glyph glyph-name="uni1EEF" unicode="&#x1eef;" horiz-adv-x="626" 
d="M537 443l-9 -59q28 15 28 40q0 16 -7.5 26t-52.5 53l131 60q38 -31 48 -47q20 -31 20 -75q0 -90 -83 -151q-32 -26 -88 -47q-4 -1 -7.5 -2.5t-7.5 -3t-5 -2.5l-37 -235h-156l2 15q-47 -33 -101 -33q-64 0 -102.5 42.5t-38.5 112.5q0 28 5 66l38 240h157l-37 -234
q-5 -27 -5 -45q0 -42 40 -42q36 0 51.5 19.5t24.5 75.5l36 226h156zM399 677l126 -27q-14 -53 -24 -71q-38 -64 -115 -64q-29 0 -80 20q-8 2 -11 2q-7 0 -9 -7l-9 -24l-122 27q11 40 15 50.5t14 24.5q42 60 112 60q36 0 71 -19q13 -7 16 -7q8 0 10 11z" />
    <glyph glyph-name="uni1EF0" unicode="&#x1ef0;" horiz-adv-x="727" 
d="M693 667l-9 -56q23 15 23 37q0 16 -7.5 25.5t-52.5 53.5l131 60q25 -20 32 -27.5t15 -19.5q21 -32 21 -75q0 -61 -42 -112.5t-116 -80.5l-14 -5q-10 -4 -14 -6l-35 -218q-16 -102 -75 -164q-43 -45 -104 -71t-124 -26q-98 0 -162.5 56t-64.5 142q0 26 5 63l67 424h163
l-65 -407q-6 -46 -6 -57q0 -31 23.5 -50.5t61.5 -19.5q27 0 54 11.5t41 28.5q16 21 26 87l65 407h163zM320 -29q34 0 56 -21.5t22 -53.5q0 -40 -32 -71t-74 -31q-34 0 -56.5 21.5t-22.5 54.5q0 40 32 70.5t75 30.5z" />
    <glyph glyph-name="uni1EF1" unicode="&#x1ef1;" horiz-adv-x="626" 
d="M537 443l-9 -59q28 15 28 40q0 16 -7.5 26t-52.5 53l131 60q38 -31 48 -47q20 -31 20 -75q0 -90 -83 -151q-32 -26 -88 -47q-4 -1 -7.5 -2.5t-7.5 -3t-5 -2.5l-37 -235h-156l2 15q-47 -33 -101 -33q-64 0 -102.5 42.5t-38.5 112.5q0 28 5 66l38 240h157l-37 -234
q-5 -27 -5 -45q0 -42 40 -42q36 0 51.5 19.5t24.5 75.5l36 226h156zM251 -29q34 0 56 -21.5t22 -53.5q0 -40 -32 -71t-74 -31q-34 0 -56 21.5t-22 54.5q0 40 32 70.5t74 30.5z" />
    <glyph glyph-name="Ygrave" unicode="&#x1ef2;" horiz-adv-x="577" 
d="M251 274l-164 393h183l89 -223l160 223h183l-289 -393l-43 -274h-163zM236 858l154 69l116 -178l-115 -55z" />
    <glyph glyph-name="ygrave" unicode="&#x1ef3;" 
d="M147 25l-95 418h164l47 -227l138 227h164l-411 -677h-164zM162 644l154 69l115 -178l-114 -54z" />
    <glyph glyph-name="uni1EF4" unicode="&#x1ef4;" horiz-adv-x="577" 
d="M251 274l-164 393h183l89 -223l160 223h183l-289 -393l-43 -274h-163zM285 -29q34 0 56 -21.5t22 -53.5q0 -40 -32 -71t-74 -31q-34 0 -56.5 21.5t-22.5 54.5q0 40 32 70.5t75 30.5z" />
    <glyph glyph-name="uni1EF5" unicode="&#x1ef5;" 
d="M147 25l-95 418h164l47 -227l138 227h164l-411 -677h-164zM365 -29q34 0 56 -21.5t22 -53.5q0 -40 -32 -71t-74 -31q-34 0 -56 21.5t-22 54.5q0 40 32 70.5t74 30.5z" />
    <glyph glyph-name="uni1EF6" unicode="&#x1ef6;" horiz-adv-x="577" 
d="M251 274l-164 393h183l89 -223l160 223h183l-289 -393l-43 -274h-163zM483 709h-139q8 46 13 58.5t21 27.5l1 2q0 4 -9 4t-30 -11l-30 107q58 18 75.5 22t43.5 4q52 0 82.5 -22t30.5 -59q0 -38 -33 -75l-20 -23q-1 -3 -6 -35z" />
    <glyph glyph-name="uni1EF7" unicode="&#x1ef7;" 
d="M147 25l-95 418h164l47 -227l138 227h164l-411 -677h-164zM400 501h-140q9 46 14 58.5t21 26.5l1 3q0 4 -9 4q-8 0 -30 -11l-30 107q61 19 76.5 22.5t41.5 3.5q52 0 82.5 -22t30.5 -59q0 -38 -32 -75l-20 -23q-4 -18 -6 -35z" />
    <glyph glyph-name="uni1EF8" unicode="&#x1ef8;" horiz-adv-x="577" 
d="M251 274l-164 393h183l89 -223l160 223h183l-289 -393l-43 -274h-163zM476 890l125 -28q-13 -52 -24 -71q-17 -30 -48 -47t-67 -17q-29 0 -80 20q-6 2 -11 2q-7 0 -9 -6l-9 -25l-122 27q14 54 29 76q42 59 112 59q38 0 71 -19q13 -7 16 -7q7 0 11 11z" />
    <glyph glyph-name="uni1EF9" unicode="&#x1ef9;" 
d="M147 25l-95 418h164l47 -227l138 227h164l-411 -677h-164zM392 677l125 -27q-12 -50 -24 -71q-17 -30 -48 -47t-67 -17q-29 0 -80 20q-8 2 -11 2q-7 0 -9 -7l-9 -24l-122 27q14 54 29 75q42 60 112 60q36 0 71 -19q13 -7 16 -7q8 0 10 11z" />
    <glyph glyph-name="uni2002" unicode="&#x2002;" horiz-adv-x="463" 
 />
    <glyph glyph-name="uni2003" unicode="&#x2003;" horiz-adv-x="963" 
 />
    <glyph glyph-name="uni2004" unicode="&#x2004;" horiz-adv-x="296" 
 />
    <glyph glyph-name="uni2005" unicode="&#x2005;" horiz-adv-x="213" 
 />
    <glyph glyph-name="uni2006" unicode="&#x2006;" horiz-adv-x="29" 
 />
    <glyph glyph-name="uni2007" unicode="&#x2007;" horiz-adv-x="519" 
 />
    <glyph glyph-name="uni2009" unicode="&#x2009;" horiz-adv-x="88" 
 />
    <glyph glyph-name="uni200A" unicode="&#x200a;" horiz-adv-x="0" 
 />
    <glyph glyph-name="uni2011" unicode="&#x2011;" horiz-adv-x="298" 
d="M66 302h261l-22 -144h-262z" />
    <glyph glyph-name="figuredash" unicode="&#x2012;" horiz-adv-x="609" 
d="M146 302h412l-22 -144h-413z" />
    <glyph glyph-name="endash" unicode="&#x2013;" horiz-adv-x="609" 
d="M146 302h412l-22 -144h-413z" />
    <glyph glyph-name="emdash" unicode="&#x2014;" horiz-adv-x="660" 
d="M66 302h624l-23 -144h-624z" />
    <glyph glyph-name="afii00208" unicode="&#x2015;" horiz-adv-x="660" 
d="M66 302h624l-23 -144h-624z" />
    <glyph glyph-name="underscoredbl" unicode="&#x2017;" horiz-adv-x="543" 
d="M-19 0h580l-20 -132h-580zM-44 -161h580l-21 -132h-580z" />
    <glyph glyph-name="quoteleft" unicode="&#x2018;" horiz-adv-x="329" 
d="M245 399l-135 52l181 300l112 -47z" />
    <glyph glyph-name="quoteright" unicode="&#x2019;" horiz-adv-x="296" 
d="M244 751l135 -52l-181 -300l-112 48z" />
    <glyph glyph-name="quotesinglbase" unicode="&#x201a;" horiz-adv-x="296" 
d="M148 149l135 -52l-181 -300l-112 47z" />
    <glyph glyph-name="quotereversed" unicode="&#x201b;" horiz-adv-x="296" 
d="M290 751l61 -304l-127 -48l-86 300z" />
    <glyph glyph-name="quotedblleft" unicode="&#x201c;" horiz-adv-x="506" 
d="M423 399l-135 52l181 300l111 -48zM403 703l-158 -304l-135 52l181 300z" />
    <glyph glyph-name="quotedblright" unicode="&#x201d;" horiz-adv-x="506" 
d="M267 751l135 -52l-181 -300l-112 48zM287 447l157 304l135 -52l-181 -300z" />
    <glyph glyph-name="quotedblbase" unicode="&#x201e;" horiz-adv-x="506" 
d="M171 149l135 -52l-181 -300l-112 47zM348 149l135 -52l-181 -300l-111 47z" />
    <glyph glyph-name="dagger" unicode="&#x2020;" horiz-adv-x="566" 
d="M308 665h160l-30 -191h133l-24 -154h-133l-80 -504h-160l80 504h-134l24 154h134z" />
    <glyph glyph-name="daggerdbl" unicode="&#x2021;" horiz-adv-x="566" 
d="M205 6h-134l24 154h134l25 160h-133l24 154h134l30 191h160l-30 -191h133l-24 -154h-134l-25 -160h133l-24 -154h-133l-31 -190h-160z" />
    <glyph glyph-name="bullet" unicode="&#x2022;" horiz-adv-x="523" 
d="M344 513q64 0 108 -43.5t44 -108.5q0 -82 -64 -145t-148 -63q-66 0 -109 43.5t-43 108.5q0 83 64 145.5t148 62.5z" />
    <glyph glyph-name="ellipsis" unicode="&#x2026;" horiz-adv-x="793" 
d="M174 160q34 0 56 -21t22 -53q0 -40 -32 -71t-74 -31q-34 0 -56.5 21.5t-22.5 53.5q0 40 32.5 70.5t74.5 30.5zM671 160q34 0 56 -21t22 -53q0 -40 -32 -71t-74 -31q-34 0 -56.5 21.5t-22.5 53.5q0 40 32.5 70.5t74.5 30.5zM422 160q34 0 56 -21t22 -53q0 -40 -32 -71
t-74 -31q-34 0 -56 21.5t-22 53.5q0 40 32 70.5t74 30.5z" />
    <glyph glyph-name="perthousand" unicode="&#x2030;" horiz-adv-x="1269" 
d="M701 685l79 -51l-480 -652l-80 50zM307 677q69 0 106 -37.5t37 -107.5q0 -123 -56 -197t-150 -74q-70 0 -107 37t-37 106q0 125 56.5 199t150.5 74zM292 580q-38 0 -59 -45q-22 -51 -22 -113q0 -34 11 -49t36 -15q38 0 58 43q22 46 22 114q0 65 -46 65zM758 405
q70 0 106.5 -37t36.5 -107q0 -123 -56 -197t-150 -74q-70 0 -107 37t-37 106q0 124 56 198t151 74zM743 308q-38 0 -59 -45q-22 -51 -22 -113q0 -63 47 -63q38 0 58 43q22 49 22 113q0 65 -46 65zM1131 405q70 0 106.5 -37t36.5 -107q0 -123 -56 -197t-150 -74
q-70 0 -107 37t-37 106q0 124 56 198t151 74zM1116 308q-38 0 -59 -45q-22 -51 -22 -113q0 -63 47 -63q38 0 58 43q22 49 22 113q0 65 -46 65z" />
    <glyph glyph-name="minute" unicode="&#x2032;" horiz-adv-x="239" 
d="M177 751l135 -52l-181 -300l-112 48z" />
    <glyph glyph-name="second" unicode="&#x2033;" horiz-adv-x="416" 
d="M177 751l135 -52l-181 -300l-112 48zM353 751l136 -52l-182 -300l-111 48z" />
    <glyph glyph-name="guilsinglleft" unicode="&#x2039;" horiz-adv-x="353" 
d="M232 222l100 -153l-123 -87l-156 239l233 244l95 -86z" />
    <glyph glyph-name="guilsinglright" unicode="&#x203a;" horiz-adv-x="353" 
d="M191 222l-98 157l122 86l155 -244l-232 -239l-95 87z" />
    <glyph glyph-name="uni203E" unicode="&#x203e;" horiz-adv-x="543" 
d="M119 871h580l-23 -146h-580z" />
    <glyph glyph-name="fraction" unicode="&#x2044;" horiz-adv-x="181" 
d="M344 685l79 -51l-481 -652l-79 50z" />
    <glyph glyph-name="zerosuperior" unicode="&#x2070;" horiz-adv-x="387" 
d="M321 811q69 0 106 -37.5t37 -107.5q0 -123 -56 -197t-150 -74q-70 0 -107 37t-37 106q0 125 56.5 199t150.5 74zM305 714q-37 0 -58 -45q-22 -49 -22 -113t47 -64q38 0 58 43q22 49 22 114t-47 65z" />
    <glyph glyph-name="foursuperior" unicode="&#x2074;" horiz-adv-x="387" 
d="M421 766l-113 -136h105l-8 -53h32l-16 -98h-32l-11 -73h-109l11 73h-170l13 80l215 260zM303 624l-39 -47h32z" />
    <glyph glyph-name="fivesuperior" unicode="&#x2075;" horiz-adv-x="387" 
d="M304 702l-6 -17q62 -2 98 -35t36 -87q0 -67 -56 -117.5t-130 -50.5q-82 0 -126 65q-10 16 -16 28l100 59q12 -32 24 -44t33 -12q25 0 42.5 17t17.5 41q0 19 -11.5 30t-30.5 11q-14 0 -22.5 -4.5t-26.5 -20.5l-82 17l82 219h223l-16 -99h-133z" />
    <glyph glyph-name="sixsuperior" unicode="&#x2076;" horiz-adv-x="387" 
d="M341 818l76 -60l-77 -84q94 -24 94 -113q0 -65 -54.5 -115.5t-125.5 -50.5q-58 0 -96 35t-38 89q0 61 51 115zM283 583q-23 0 -38.5 -15.5t-15.5 -37.5q0 -17 11 -27.5t29 -10.5q22 0 38.5 16.5t16.5 38.5q0 16 -11 26t-30 10z" />
    <glyph glyph-name="sevensuperior" unicode="&#x2077;" horiz-adv-x="387" 
d="M326 702h-158l15 99h296l-11 -71l-249 -342l-89 47z" />
    <glyph glyph-name="eightsuperior" unicode="&#x2078;" horiz-adv-x="387" 
d="M180 617q-20 26 -20 56q0 55 48.5 97t112.5 42q54 0 88 -30t34 -77q0 -51 -42 -88q29 -34 29 -70q0 -62 -52 -107t-123 -45q-58 0 -95 32t-37 82q0 60 57 108zM282 568q-21 0 -35.5 -13t-14.5 -32q0 -32 38 -32q22 0 36.5 12.5t14.5 31.5q0 33 -39 33zM306 719
q-17 0 -28.5 -11t-11.5 -27q0 -25 31 -25q17 0 28.5 10t11.5 26q0 27 -31 27z" />
    <glyph glyph-name="ninesuperior" unicode="&#x2079;" horiz-adv-x="387" 
d="M237 388l-76 60l77 84q-95 25 -95 113q0 65 54.5 115.5t125.5 50.5q58 0 96.5 -35t38.5 -88q0 -60 -51 -116zM309 715q-23 0 -39.5 -16.5t-16.5 -38.5q0 -16 11 -26t30 -10q23 0 39 15.5t16 37.5q0 16 -11.5 27t-28.5 11z" />
    <glyph glyph-name="zeroinferior" unicode="&#x2080;" horiz-adv-x="387" 
d="M236 276q70 0 106.5 -37t36.5 -108q0 -103 -41 -175q-54 -96 -165 -96q-69 0 -106.5 37t-37.5 106q0 125 56.5 199t150.5 74zM220 179q-37 0 -58 -45q-22 -49 -22 -113t47 -64q38 0 58 43q22 49 22 114t-47 65z" />
    <glyph glyph-name="oneinferior" unicode="&#x2081;" horiz-adv-x="387" 
d="M244 -130h-109l42 265l-37 -18l-40 86l126 62h81z" />
    <glyph glyph-name="twoinferior" unicode="&#x2082;" horiz-adv-x="387" 
d="M32 -130l12 78l165 147q42 39 42 63q0 21 -28 21q-20 0 -30 -10t-26 -47l-98 27q8 22 19 43q48 83 152 83q55 0 88 -28t33 -75q0 -68 -65 -127l-86 -77h128l-15 -98h-291z" />
    <glyph glyph-name="threeinferior" unicode="&#x2083;" horiz-adv-x="387" 
d="M163 122h44q41 0 41 34q0 24 -30 24q-16 0 -27 -7t-36 -33l-82 47q27 32 42 45q49 44 119 44q55 0 89.5 -29t34.5 -76q0 -49 -41 -90q25 -33 25 -67q0 -63 -51.5 -108.5t-123.5 -45.5q-47 0 -80.5 22t-44.5 61q-5 16 -8 47l108 26q5 -38 12.5 -48.5t28.5 -10.5t34.5 13
t13.5 33q0 15 -8.5 21t-29.5 6h-45z" />
    <glyph glyph-name="fourinferior" unicode="&#x2084;" horiz-adv-x="387" 
d="M337 230l-113 -136h105l-8 -53h32l-16 -97h-32l-11 -74h-109l11 74h-170l13 79l215 260zM219 88l-39 -47h32z" />
    <glyph glyph-name="fiveinferior" unicode="&#x2085;" horiz-adv-x="387" 
d="M220 167l-6 -17q61 -2 97.5 -35t36.5 -86q0 -68 -55.5 -118.5t-130.5 -50.5q-50 0 -83 21.5t-59 71.5l100 59q11 -32 23.5 -44t34.5 -12q25 0 42.5 17t17.5 41q0 19 -11.5 30t-31.5 11q-22 0 -49 -25l-82 17l82 219h223l-16 -99h-133z" />
    <glyph glyph-name="sixinferior" unicode="&#x2086;" horiz-adv-x="387" 
d="M256 283l76 -60l-77 -84q95 -25 95 -113q0 -65 -54.5 -115.5t-125.5 -50.5q-59 0 -97 35t-38 89q0 59 51 115zM199 48q-23 0 -39 -15.5t-16 -37.5q0 -17 11 -27.5t29 -10.5q23 0 39.5 16.5t16.5 38.5q0 16 -11 26t-30 10z" />
    <glyph glyph-name="seveninferior" unicode="&#x2087;" horiz-adv-x="387" 
d="M241 167h-158l15 99h296l-11 -71l-249 -342l-89 47z" />
    <glyph glyph-name="eightinferior" unicode="&#x2088;" horiz-adv-x="387" 
d="M96 81q-20 26 -20 56q0 55 48.5 97t112.5 42q54 0 88 -30t34 -77q0 -49 -42 -88q29 -33 29 -70q0 -61 -52 -106t-123 -45q-58 0 -95 32t-37 82q0 60 57 107zM198 32q-21 0 -35.5 -12.5t-14.5 -31.5q0 -32 38 -32q22 0 36.5 12t14.5 31q0 33 -39 33zM222 183
q-17 0 -28.5 -11t-11.5 -27q0 -25 31 -25q17 0 28.5 10t11.5 26q0 27 -31 27z" />
    <glyph glyph-name="nineinferior" unicode="&#x2089;" horiz-adv-x="387" 
d="M152 -147l-76 60l77 84q-46 11 -70.5 40.5t-24.5 72.5q0 65 54.5 115.5t125.5 50.5q59 0 97 -35t38 -89q0 -59 -51 -115zM224 180q-22 0 -39 -16.5t-17 -38.5q0 -17 11 -27t30 -10q23 0 39 15.5t16 37.5q0 17 -11.5 28t-28.5 11z" />
    <glyph glyph-name="franc" unicode="&#x20a3;" horiz-adv-x="784" 
d="M564 517h-219l-16 -104h158l-24 -151h-158l-41 -262h-163l106 667h381zM677 413l-2 -15q37 18 74 18q19 0 45 -4l-22 -138q-22 5 -43 5q-44 0 -61.5 -18.5t-26.5 -75.5l-29 -185h-157l66 413h156z" />
    <glyph glyph-name="lira" unicode="&#x20a4;" horiz-adv-x="576" 
d="M330 342l1 -20h177l-16 -105h-161q-1 -29 -23 -70h260l-24 -147h-488l19 123q20 14 21 15l18 12q48 37 53 67h-77l17 105h60l-1 20h-56l17 105h40q15 107 88 172.5t179 65.5q96 0 148 -60q20 -23 48 -77l-144 -83q-23 44 -38.5 58t-39.5 14q-35 0 -53.5 -21t-25.5 -69
h199l-17 -105h-181z" />
    <glyph glyph-name="peseta" unicode="&#x20a7;" horiz-adv-x="609" 
d="M178 397h-50l15 95h50l28 175h169q210 5 221 -175h55l-16 -95h-54q-70 -179 -276 -174h-7l-35 -223h-163zM339 397l-4 -31h16q61 1 82 31h-94zM355 492h93q-6 17 -22 24t-50 7h-17z" />
    <glyph glyph-name="uni20AB" unicode="&#x20ab;" horiz-adv-x="549" 
d="M420 487h-105l21 132h105l7 48h156l-7 -48h52l-21 -132h-52l-77 -487h-157l3 18q-58 -36 -112 -36q-80 0 -132.5 56.5t-52.5 142.5q0 111 79.5 195.5t183.5 84.5q52 0 99 -36zM309 321q-43 0 -72.5 -35t-29.5 -87q0 -36 19.5 -56.5t53.5 -20.5q43 0 72 35t29 87
q0 37 -19 57t-53 20zM22 -30h523l-23 -146h-523z" />
    <glyph glyph-name="Euro" unicode="&#x20ac;" horiz-adv-x="798" 
d="M689 342h-335q-1 -6 -3 -20h326l-60 -105h-248q51 -84 152 -84q47 0 99 25t135 88l-30 -192q-2 -1 -8.5 -5t-10.5 -6q-96 -61 -208 -61q-106 0 -184.5 52t-112.5 144q-8 23 -11 39h-108l60 105h46q0 6 3 20h-89l60 105h65q60 113 161.5 175.5t223.5 62.5q100 0 178 -39
q14 -7 53 -33l-77 -136q-3 1 -15 7l-38 20q-58 30 -127 30q-109 0 -182 -87h345z" />
    <glyph glyph-name="uni20B4" unicode="&#x20b4;" horiz-adv-x="629" 
d="M136 451h289q25 16 25 38t-15.5 35t-41.5 13t-45 -14t-54 -58l-122 86q56 73 113 105t130 32q88 0 143.5 -48.5t55.5 -125.5q0 -34 -11 -63h33l-14 -86h-73q-15 -13 -23 -19h93l-14 -86h-273q-32 -13 -45 -27t-13 -34q0 -27 19 -44.5t48 -17.5q48 0 74 44q10 16 27 59
l153 -43q-27 -68 -55 -104q-39 -50 -97.5 -78.5t-123.5 -28.5q-91 0 -150 54t-59 138q0 41 17 82h-21l14 86h76q15 12 27 19h-100z" />
    <glyph glyph-name="uni2101" unicode="&#x2101;" horiz-adv-x="951" 
d="M395 347h-140l-42 -82h-120l223 408h121l66 -284l-92 -124zM375 449l-19 96l-49 -96h68zM943 323l-104 -57q-15 29 -23 36.5t-23 7.5q-16 0 -27.5 -8.5t-11.5 -19.5q0 -12 30 -23l35 -13q95 -37 95 -106q0 -63 -54.5 -111t-127.5 -48q-49 0 -83.5 23t-46.5 63
q-3 13 -7 51l117 29l1 -9v-7q1 -25 10 -36t27 -11t33 12t15 28q0 13 -40 29l-34 13q-85 33 -85 100q0 60 51 103.5t121 43.5q49 0 79 -20.5t53 -69.5zM770 685l79 -51l-480 -652l-80 50z" />
    <glyph glyph-name="afii61248" unicode="&#x2105;" horiz-adv-x="1052" 
d="M773 685l79 -51l-481 -652l-79 50zM842 407q82 0 137.5 -51.5t55.5 -128.5q0 -95 -79.5 -167.5t-183.5 -72.5q-82 0 -136 51.5t-54 130.5q0 93 79 165.5t181 72.5zM826 307q-53 0 -92.5 -38.5t-39.5 -89.5q0 -38 27.5 -65t67.5 -27q53 0 93.5 38.5t40.5 88.5
q0 40 -27.5 66.5t-69.5 26.5zM546 596l-92 -70q-39 54 -88 54q-53 0 -92 -38.5t-39 -90.5q0 -39 27.5 -65.5t69.5 -26.5q27 0 49.5 11.5t57.5 43.5l69 -70q-4 -3 -10 -9q-88 -76 -181 -76q-84 0 -139 51t-55 129q0 95 79 168t183 73q51 0 86 -18.5t75 -65.5z" />
    <glyph glyph-name="uni2117" unicode="&#x2117;" horiz-adv-x="831" 
d="M407 253v-145h-122v450h128q82 0 124 -38q49 -44 49 -114q0 -46 -23 -83.5t-63 -55.5q-31 -14 -93 -14zM407 366h12q27 0 37.5 8.5t10.5 30.5t-10.5 30.5t-37.5 8.5h-12v-78zM422 718q154 0 266 -113.5t112 -270.5q0 -160 -112.5 -272.5t-271.5 -112.5q-160 0 -272.5 113
t-112.5 274q0 159 114 270.5t277 111.5zM411 617q-114 0 -196.5 -83.5t-82.5 -199.5q0 -118 83 -201t200 -83q118 0 201 83.5t83 202.5q0 117 -84 199t-204 82z" />
    <glyph glyph-name="trademark" unicode="&#x2122;" horiz-adv-x="676" 
d="M202 602v-241h-79v241h-75v71h230v-71h-76zM298 361v312h72l93 -153l93 153h72v-312h-79v159l-59 -99h-54l-59 97v-157h-79z" />
    <glyph glyph-name="uni2126" unicode="&#x2126;" horiz-adv-x="792" 
d="M416 0v184q53 15 67 22q49 23 77 64t28 90q0 73 -56 123.5t-136 50.5t-136 -50.5t-56 -123.5q0 -51 30 -93.5t82 -63.5q6 -4 60 -19v-184h-320v151h69q-47 56 -65.5 102t-18.5 106q0 134 104.5 230t250.5 96t250.5 -96t104.5 -230q0 -60 -18.5 -106t-65.5 -102h69v-151
h-320z" />
    <glyph glyph-name="estimated" unicode="&#x212e;" horiz-adv-x="748" 
d="M696 280h-458v-68q18 -45 36 -59q33 -30 102 -30q90 0 137 57q13 15 37 68h145q-28 -91 -43 -117q-81 -149 -277 -149q-149 0 -236.5 93.5t-87.5 253.5q0 161 89 258.5t237 97.5q118 0 201 -62.5t106 -167.5q7 -35 8.5 -58.5t3.5 -116.5zM518 408v54q-34 81 -143 81
q-51 0 -80 -18t-57 -66v-51h280z" />
    <glyph glyph-name="onethird" unicode="&#x2153;" horiz-adv-x="833" 
d="M661 687l80 -51l-481 -652l-80 50zM620 251h45q41 0 41 34q0 23 -30 23q-16 0 -27.5 -7t-35.5 -32l-82 47q23 30 41 45q52 44 119 44q55 0 90 -29t35 -76q0 -49 -42 -90q25 -31 25 -66q0 -63 -51.5 -108.5t-122.5 -45.5q-48 0 -81 22t-45 61q-5 15 -7 46l107 26l1 -8
q5 -31 13 -41t27 -10q21 0 34.5 13t13.5 33q0 15 -8.5 21t-29.5 6h-44zM275 271h-109l42 265l-37 -18l-40 86l126 62h81z" />
    <glyph glyph-name="twothirds" unicode="&#x2154;" horiz-adv-x="833" 
d="M674 685l79 -51l-480 -652l-80 50zM82 271l12 78l165 148q42 37 42 64q0 20 -28 20q-20 0 -30 -10.5t-26 -47.5l-99 27q10 26 20 43q48 84 152 84q55 0 88 -28t33 -75q0 -69 -65 -128l-86 -77h128l-15 -98h-291zM618 251h44q41 0 41 34q0 23 -30 23q-16 0 -26.5 -6.5
t-36.5 -32.5l-82 47q30 35 42 45q50 44 119 44q55 0 89.5 -29.5t34.5 -75.5q0 -49 -41 -90q25 -33 25 -66q0 -63 -51.5 -108.5t-123.5 -45.5q-47 0 -80.5 22t-44.5 61q-4 14 -8 46l107 26l2 -8q4 -31 12 -41t28 -10q21 0 34.5 13t13.5 33q0 15 -8.5 21t-29.5 6h-45z" />
    <glyph glyph-name="oneeighth" unicode="&#x215b;" horiz-adv-x="833" 
d="M632 685l79 -51l-480 -652l-80 50zM277 271h-109l42 265l-37 -18l-40 86l126 62h81zM547 211q-21 24 -21 55q0 55 49 97t113 42q53 0 87.5 -30t34.5 -77q0 -50 -43 -87q29 -34 29 -71q0 -61 -52 -105.5t-123 -44.5q-58 0 -95 32t-37 81q0 61 58 108zM648 161
q-21 0 -35.5 -12.5t-14.5 -30.5q0 -32 38 -32q22 0 36.5 12t14.5 31q0 32 -39 32zM673 312q-17 0 -29 -11t-12 -27q0 -25 31 -25q18 0 29.5 10t11.5 26q0 27 -31 27z" />
    <glyph glyph-name="threeeighths" unicode="&#x215c;" horiz-adv-x="833" 
d="M654 685l79 -51l-481 -652l-79 50zM533 211q-20 26 -20 55q0 55 48.5 97t112.5 42q54 0 88 -30t34 -77q0 -50 -43 -87q30 -34 30 -71q0 -61 -52 -105.5t-123 -44.5q-58 0 -95 32t-37 81q0 59 57 108zM635 161q-21 0 -35.5 -12.5t-14.5 -30.5q0 -32 38 -32q22 0 36.5 12
t14.5 31q0 32 -39 32zM659 312q-17 0 -28.5 -11t-11.5 -27q0 -25 31 -25q17 0 28.5 10t11.5 26q0 27 -31 27zM223 522h44q41 0 41 34q0 24 -30 24q-16 0 -27 -7t-36 -33l-82 47q23 29 42 46q50 44 118 44q56 0 90.5 -29.5t34.5 -76.5q0 -49 -41 -90q25 -33 25 -67
q0 -63 -51.5 -108.5t-123.5 -45.5q-47 0 -80 22t-45 61q-5 18 -8 47l108 26q4 -36 12.5 -47.5t28.5 -11.5q21 0 35 13t14 33q0 15 -9 21t-30 6h-45z" />
    <glyph glyph-name="fiveeighths" unicode="&#x215d;" horiz-adv-x="833" 
d="M661 685l79 -51l-481 -652l-79 50zM285 567l-6 -17q62 -2 98 -35t36 -87q0 -67 -56 -117.5t-130 -50.5q-50 0 -83 21.5t-59 71.5l100 59q12 -32 24 -44t33 -12q25 0 42.5 17t17.5 41q0 19 -11.5 30t-30.5 11q-14 0 -22.5 -4.5t-26.5 -20.5l-82 17l82 219h223l-16 -99
h-133zM537 211q-20 26 -20 55q0 55 48.5 97t112.5 42q54 0 88 -30t34 -77q0 -48 -42 -87q29 -34 29 -71q0 -61 -52 -105.5t-123 -44.5q-58 0 -95 32t-37 81q0 61 57 108zM639 161q-21 0 -35.5 -12.5t-14.5 -30.5q0 -32 38 -32q22 0 36.5 12t14.5 31q0 32 -39 32zM663 312
q-17 0 -28.5 -11t-11.5 -27q0 -25 31 -25q17 0 28.5 10t11.5 26q0 27 -31 27z" />
    <glyph glyph-name="seveneighths" unicode="&#x215e;" horiz-adv-x="833" 
d="M618 685l80 -51l-481 -652l-79 50zM531 211q-21 25 -21 55q0 55 49 97t113 42q53 0 87.5 -30t34.5 -77q0 -48 -43 -87q29 -34 29 -71q0 -61 -52 -105.5t-123 -44.5q-58 0 -95 32t-37 81q0 61 58 108zM632 161q-21 0 -35.5 -12.5t-14.5 -30.5q0 -32 38 -32q22 0 36.5 12
t14.5 31q0 32 -39 32zM657 312q-17 0 -29 -11t-12 -27q0 -25 31 -25q18 0 29.5 10t11.5 26q0 27 -31 27zM308 567h-158l15 99h296l-11 -71l-249 -342l-89 47z" />
    <glyph glyph-name="partialdiff" unicode="&#x2202;" horiz-adv-x="583" 
d="M257 459h-1q-52 47 -157 66l21 142q85 -10 132 -24t92 -40q92 -55 141.5 -148t49.5 -212q0 -116 -67 -188.5t-176 -72.5q-103 0 -173.5 69.5t-70.5 170.5q0 91 59 157.5t150 79.5zM290 321q-38 0 -61.5 -27.5t-23.5 -72.5q0 -44 24 -71.5t63 -27.5q40 0 63.5 27.5
t23.5 73.5q0 44 -24.5 71t-64.5 27z" />
    <glyph glyph-name="emptyset" unicode="&#x2205;" horiz-adv-x="661" 
d="M266 57l-63 -123l-120 61l63 125q-39 38 -54 62q-44 68 -44 151q0 118 82.5 200.5t201.5 82.5q22 0 63 -7l63 124l120 -62l-64 -125q37 -35 52 -57q47 -70 47 -155q0 -119 -84 -201t-205 -82q-26 0 -58 6zM450 419l-118 -232q47 5 74 21q71 44 71 125q0 45 -27 86z
M212 249l117 230q-46 -4 -71 -19q-34 -20 -54 -54.5t-20 -72.5q0 -43 28 -84z" />
    <glyph glyph-name="Delta" unicode="&#x2206;" horiz-adv-x="703" 
d="M691 0h-680l249 667h182zM234 151h233l-116 341z" />
    <glyph glyph-name="product" unicode="&#x220f;" horiz-adv-x="660" 
d="M252 516v-516h-163v516h-74v151h631v-151h-75v-516h-163v516h-156z" />
    <glyph glyph-name="summation" unicode="&#x2211;" horiz-adv-x="675" 
d="M254 345l-145 204v118h471v-151h-258l124 -171l-137 -193h288v-152h-506v118z" />
    <glyph glyph-name="minus" unicode="&#x2212;" horiz-adv-x="556" 
d="M579 383l-23 -143h-480l23 143h480z" />
    <glyph glyph-name="uni2215" unicode="&#x2215;" horiz-adv-x="181" 
d="M344 685l79 -51l-481 -652l-79 50z" />
    <glyph glyph-name="uni2218" unicode="&#x2218;" horiz-adv-x="523" 
d="M264 513q72 0 124.5 -53.5t52.5 -126.5q0 -75 -52.5 -127.5t-127.5 -52.5t-127.5 53t-52.5 128t53 127t130 52zM260 425q-37 0 -64 -27t-27 -65t27 -65t65 -27t65 27t27 66q0 38 -27 64.5t-66 26.5z" />
    <glyph glyph-name="radical" unicode="&#x221a;" horiz-adv-x="634" 
d="M95 295h-80v151h200l72 -218l200 600h333v-151h-212l-229 -677h-184z" />
    <glyph glyph-name="infinity" unicode="&#x221e;" horiz-adv-x="739" 
d="M371 222q-43 -43 -80 -60.5t-84 -17.5q-84 0 -138 55t-54 140q0 83 54.5 137.5t137.5 54.5q85 0 162 -78q72 78 165 78q83 0 137 -55t54 -140q0 -83 -54 -138t-137 -55q-90 0 -163 79zM456 337q22 -29 37 -39.5t34 -10.5q22 0 36 14t14 36t-14.5 36t-36.5 14
q-34 0 -70 -50zM284 337q-22 29 -36.5 39.5t-34.5 10.5q-22 0 -36 -14t-14 -36q0 -21 15 -35t37 -14q32 0 69 49z" />
    <glyph glyph-name="integral" unicode="&#x222b;" horiz-adv-x="322" 
d="M15 -179v139q26 -10 42 -10q14 0 20 6t6 22v601q0 78 37 120t107 42q34 0 81 -10v-139q-26 10 -43 10q-14 0 -20 -6t-6 -22v-601q0 -78 -37 -120t-107 -42q-34 0 -80 10z" />
    <glyph glyph-name="similar" unicode="&#x223c;" horiz-adv-x="622" 
d="M128 186l-109 71q24 54 37 75q60 96 151 96q46 0 129 -38q58 -28 80 -28t40 25q5 7 35 58l112 -66q-27 -56 -34.5 -69t-21.5 -29q-57 -71 -141 -71q-27 0 -55.5 9.5t-100.5 42.5q-31 14 -49 14q-19 0 -38 -28q-5 -7 -35 -62z" />
    <glyph glyph-name="uni2243" unicode="&#x2243;" horiz-adv-x="622" 
d="M129 291l-110 72q25 55 37 74q58 96 151 96q48 0 129 -38q61 -28 80 -28t29.5 11.5t45.5 71.5l112 -66q-39 -77 -50 -91q-2 -3 -6 -8q-56 -70 -141 -70q-27 0 -55 9.5t-101 42.5q-33 14 -49 14q-19 0 -38 -28q-5 -7 -34 -62zM591 269v-142h-561v142h561z" />
    <glyph glyph-name="approxequal" unicode="&#x2248;" horiz-adv-x="622" 
d="M129 308l-110 71q25 55 37 75q60 95 151 95q48 0 129 -37q60 -28 80 -28q19 0 30 12.5t45 69.5l112 -65q-27 -56 -34.5 -69t-21.5 -30q-56 -70 -141 -70q-27 0 -55.5 9.5t-100.5 41.5q-33 14 -49 14q-19 0 -38 -28q-5 -7 -34 -61zM129 73l-110 71q25 56 37 75
q60 96 151 96q46 0 129 -38q61 -28 80 -28q22 0 41 25q4 7 34 58l112 -66q-38 -76 -56 -99q-57 -70 -141 -70q-27 0 -55.5 9.5t-100.5 42.5q-33 14 -49 14q-19 0 -38 -28q-5 -7 -34 -62z" />
    <glyph glyph-name="notequal" unicode="&#x2260;" horiz-adv-x="599" 
d="M386 334l-22 -44h216v-143h-287l-58 -117l-126 51l33 66h-123v143h194l22 44h-216v143h287l58 117l126 -52l-33 -65h123v-143h-194z" />
    <glyph glyph-name="lessequal" unicode="&#x2264;" horiz-adv-x="599" 
d="M556 0h-513l23 143h427l-397 192l18 116l551 234l-26 -160l-315 -131l274 -130z" />
    <glyph glyph-name="greaterequal" unicode="&#x2265;" horiz-adv-x="599" 
d="M43 0l42 264l315 130l-274 131l25 160l477 -234l-19 -116l-457 -192h427l-23 -143h-513z" />
    <glyph glyph-name="dotmath" unicode="&#x22c5;" horiz-adv-x="273" 
d="M204 421q34 0 56 -21t22 -53q0 -40 -32 -71t-74 -31q-35 0 -57 21t-22 54q0 40 32 70.5t75 30.5z" />
    <glyph glyph-name="lozenge" unicode="&#x25ca;" horiz-adv-x="696" 
d="M347 -40l-298 373l298 373l300 -373zM462 333l-114 136l-115 -136l115 -135z" />
    <glyph glyph-name="openbullet" unicode="&#x25e6;" horiz-adv-x="523" 
d="M264 513q72 0 124.5 -53.5t52.5 -126.5q0 -75 -52.5 -127.5t-127.5 -52.5t-127.5 53t-52.5 128t53 127t130 52zM260 425q-37 0 -64 -27t-27 -65t27 -65t65 -27t65 27t27 66q0 38 -27 64.5t-66 26.5z" />
    <glyph glyph-name="commaaccent" unicode="&#xf6c3;" 
d="M180 -13l139 -40l-127 -199l-112 33z" />
    <glyph glyph-name="Acute" unicode="&#xf6c9;" 
d="M559 858l-207 -164l-97 55l172 178z" />
    <glyph glyph-name="Caron" unicode="&#xf6ca;" 
d="M370 833l97 73l110 -54l-184 -157h-89l-135 157l127 54z" />
    <glyph glyph-name="Dieresis" unicode="&#xf6cb;" 
d="M474 883q30 0 50 -19t20 -48q0 -36 -28.5 -63.5t-66.5 -27.5q-31 0 -51 19t-20 48q0 36 29 63.5t67 27.5zM283 883q30 0 50 -19t20 -48q0 -36 -28.5 -63.5t-66.5 -27.5q-31 0 -51 19t-20 48q0 36 29 63.5t67 27.5z" />
    <glyph glyph-name="Grave" unicode="&#xf6ce;" 
d="M189 858l154 69l115 -178l-114 -55z" />
    <glyph glyph-name="Hungarumlaut" unicode="&#xf6cf;" 
d="M461 866l50 57l114 -63l-205 -162l-68 41l62 72l-144 -114l-82 50l170 176z" />
    <glyph glyph-name="Macron" unicode="&#xf6d0;" 
d="M201 866h348l-20 -124h-348z" />
    <glyph glyph-name="one.fitted" horiz-adv-x="556" 
d="M249 149l51 319l-69 -35l-57 132l198 102h122l-82 -518h104l-24 -149h-381l24 149h114z" />
    <glyph glyph-name="two.fitted" horiz-adv-x="556" 
d="M60 0l19 122l272 253q76 69 76 119q0 44 -54 44q-37 0 -57 -19t-45 -77l-146 41q23 59 51 97q77 105 223 105q86 0 138.5 -46.5t52.5 -122.5q0 -117 -106 -215l-163 -151h227l-23 -150h-465z" />
    <glyph glyph-name="three.fitted" horiz-adv-x="556" 
d="M269 417h64q80 0 80 71q0 50 -58 50q-28 0 -48.5 -12.5t-59.5 -53.5l-120 72q59 76 116.5 108.5t134.5 32.5q88 0 143 -48t55 -125q0 -91 -74 -157q45 -51 45 -114q0 -106 -83 -182.5t-198 -76.5q-69 0 -120 31t-73 86q-13 33 -18 91l160 41q7 -60 22.5 -80.5t53.5 -20.5
q40 0 66 26.5t26 65.5q0 30 -17 43t-55 13h-64z" />
    <glyph glyph-name="four.fitted" horiz-adv-x="556" 
d="M540 611l-269 -335h82l14 92h162l-15 -92h54l-24 -149h-53l-20 -127h-162l20 127h-284l20 125l353 441z" />
    <glyph glyph-name="five.fitted" horiz-adv-x="556" 
d="M350 516l-18 -50q54 -2 88 -12t65 -34q72 -57 72 -155q0 -113 -90 -198t-210 -85q-78 0 -131 35t-92 113l147 92q18 -51 41 -72t59 -21q46 0 79 33.5t33 79.5q0 35 -22 57t-57 22q-24 0 -41 -8.5t-43 -33.5l-121 26l132 362h353l-24 -151h-220z" />
    <glyph glyph-name="six.fitted" horiz-adv-x="556" 
d="M420 693l113 -92l-134 -151q78 -16 121.5 -65.5t43.5 -123.5q0 -110 -87.5 -194.5t-202.5 -84.5q-92 0 -153 58.5t-61 146.5q0 101 82 194zM325 309q-43 0 -73 -30.5t-30 -74.5q0 -33 20.5 -54t53.5 -21q42 0 73.5 32.5t31.5 76.5q0 32 -20.5 51.5t-55.5 19.5z" />
    <glyph glyph-name="seven.fitted" horiz-adv-x="556" 
d="M411 516h-271l24 151h473l-18 -110l-411 -584l-131 73z" />
    <glyph glyph-name="eight.fitted" horiz-adv-x="556" 
d="M165 355q-37 48 -37 99q0 70 53 134q78 97 205 97q85 0 139.5 -49.5t54.5 -126.5q0 -84 -77 -154q53 -53 53 -120q0 -103 -83.5 -178t-198.5 -75q-92 0 -151 52.5t-59 134.5q0 110 101 186zM321 281q-40 0 -67.5 -26t-27.5 -63q0 -30 19 -47t53 -17q41 0 68.5 25t27.5 63
q0 65 -73 65zM363 543q-33 0 -56 -22.5t-23 -54.5q0 -25 16 -39t44 -14q34 0 56.5 22t22.5 54q0 25 -16 39.5t-44 14.5z" />
    <glyph glyph-name="nine.fitted" horiz-adv-x="556" 
d="M241 -26l-112 92l134 151q-78 16 -121.5 65.5t-43.5 123.5q0 110 87.5 194.5t202.5 84.5q92 0 153 -58.5t61 -146.5q0 -102 -83 -194zM366 538q-42 0 -73.5 -32.5t-31.5 -75.5q0 -33 20.5 -52.5t55.5 -19.5q43 0 73 30.5t30 74.5q0 33 -21 54t-53 21z" />
    <glyph glyph-name="zero.fitted" horiz-adv-x="556" 
d="M384 685q112 0 170.5 -61.5t58.5 -177.5q0 -81 -19 -163.5t-50 -139.5q-89 -161 -266 -161q-111 0 -170.5 61t-59.5 174q0 83 18.5 166.5t50.5 140.5q43 78 111.5 119.5t155.5 41.5zM362 538q-70 0 -109 -86q-39 -92 -39 -206q0 -117 86 -117q71 0 108 83q39 85 39 207
q0 119 -85 119z" />
    <glyph glyph-name="sterling.fitted" horiz-adv-x="556" 
d="M490 267h-166q-1 -48 -5 -68t-21 -52h260l-24 -147h-488l19 123q5 4 12.5 9t8.5 6l18 12q37 29 47 49.5t9 67.5h-72l22 140h44q7 88 35 141q31 62 95.5 99.5t139.5 37.5q96 0 148 -60q19 -21 48 -77l-144 -83q-23 44 -38.5 58t-39.5 14q-51 0 -68 -46q-13 -34 -13 -72
v-12h195z" />
    <glyph glyph-name="dollar.fitted" horiz-adv-x="556" 
d="M311 672l15 95h160l-15 -94q42 -15 70.5 -44t51.5 -81l-149 -86q-22 45 -36 58.5t-40 13.5q-30 0 -52 -18t-22 -42q0 -26 52 -47l56 -22q75 -30 110 -70.5t35 -96.5q0 -75 -50.5 -141t-132.5 -97l-16 -103h-160l15 94q-139 38 -145 203l167 43q3 -47 9 -64q14 -39 59 -39
q35 0 62 24t27 55q0 16 -15.5 28.5t-53.5 27.5l-54 22q-129 52 -129 158q0 74 50.5 136.5t130.5 86.5z" />
    <glyph glyph-name="cent.fitted" horiz-adv-x="556" 
d="M210 0l17 110q-58 23 -90 72t-32 114q0 85 54 157.5t139 103.5l17 110h160l-16 -103q61 -19 105 -71l-111 -108q-38 48 -83 48q-46 0 -76.5 -34.5t-30.5 -87.5q0 -37 19.5 -57t55.5 -20q51 0 102 51l76 -108q-64 -56 -130 -74l-16 -103h-160z" />
    <glyph glyph-name="florin.fitted" horiz-adv-x="556" 
d="M-10 -184l51 137q34 -15 48 -15q18 0 31 35l123 331h-41l51 139h41l29 80q28 76 77.5 117t113.5 41q38 0 92 -19l-51 -137q-32 14 -48 14q-18 0 -31 -35l-23 -61h72l-51 -139h-72l-129 -350q-28 -76 -77.5 -116.5t-113.5 -40.5q-38 0 -92 19z" />
    <glyph glyph-name="Euro.fitted" horiz-adv-x="556" 
d="M578 342h-335q-1 -6 -3 -20h326l-60 -105h-248q51 -84 152 -84q47 0 99 25t135 88l-30 -192q-2 -1 -9 -5t-10 -6q-96 -61 -208 -61q-106 0 -184.5 52t-112.5 144q-8 23 -11 39h-108l60 105h46q0 6 3 20h-89l60 105h65q60 113 161.5 175.5t224.5 62.5q99 0 177 -39
q14 -7 53 -33l-77 -136q-3 1 -15 7l-38 20q-58 30 -127 30q-109 0 -182 -87h345z" />
    <glyph glyph-name="yen.fitted" horiz-adv-x="556" 
d="M220 322l-9 20h-105l16 105h45l-91 220h183l88 -220h4l157 220h183l-161 -220h45l-17 -105h-105l-15 -20h117l-17 -105h-145l-34 -217h-163l35 217h-145l16 105h118z" />
    <glyph glyph-name="one.numerator" horiz-adv-x="387" 
d="M307 271h-109l42 265l-37 -18l-40 86l126 62h81z" />
    <glyph glyph-name="two.numerator" horiz-adv-x="387" 
d="M95 271l12 78l165 148q42 37 42 64q0 20 -28 20q-20 0 -30 -10.5t-26 -47.5l-99 27q10 26 20 43q48 84 152 84q55 0 88 -28t33 -75q0 -69 -65 -128l-86 -77h128l-15 -98h-291z" />
    <glyph glyph-name="three.numerator" horiz-adv-x="387" 
d="M227 522h44q41 0 41 34q0 24 -30 24q-16 0 -27 -7t-36 -33l-82 47q23 29 42 46q50 44 118 44q56 0 90.5 -29.5t34.5 -76.5q0 -49 -41 -90q25 -33 25 -67q0 -63 -51.5 -108.5t-123.5 -45.5q-47 0 -80 22t-45 61q-5 18 -8 47l108 26q4 -36 12.5 -47.5t28.5 -11.5
q21 0 35 13t14 33q0 15 -9 21t-30 6h-45z" />
    <glyph glyph-name="four.numerator" horiz-adv-x="387" 
d="M400 631l-113 -136h105l-8 -53h32l-16 -98h-32l-11 -73h-109l11 73h-170l13 80l215 260zM282 489l-39 -47h32z" />
    <glyph glyph-name="five.numerator" horiz-adv-x="387" 
d="M283 567l-6 -17q62 -2 98 -35t36 -87q0 -67 -56 -117.5t-130 -50.5q-50 0 -83 21.5t-59 71.5l100 59q12 -32 24 -44t33 -12q25 0 42.5 17t17.5 41q0 19 -11.5 30t-30.5 11q-14 0 -22.5 -4.5t-26.5 -20.5l-82 17l82 219h223l-16 -99h-133z" />
    <glyph glyph-name="six.numerator" horiz-adv-x="387" 
d="M320 684l76 -60l-77 -84q95 -25 95 -113q0 -65 -54.5 -115.5t-125.5 -50.5q-59 0 -97 35t-38 89q0 59 51 115zM263 449q-23 0 -39 -15.5t-16 -37.5q0 -17 11 -27.5t29 -10.5q23 0 39.5 16.5t16.5 38.5q0 16 -11 26t-30 10z" />
    <glyph glyph-name="seven.numerator" horiz-adv-x="387" 
d="M304 567h-158l15 99h296l-11 -71l-249 -342l-89 47z" />
    <glyph glyph-name="eight.numerator" horiz-adv-x="387" 
d="M159 482q-20 26 -20 55q0 55 48.5 97.5t112.5 42.5q54 0 88 -30t34 -77q0 -50 -42 -88q29 -34 29 -71q0 -61 -52 -106t-123 -45q-58 0 -95 32t-37 82q0 60 57 108zM261 432q-21 0 -35.5 -12.5t-14.5 -31.5q0 -32 38 -32q22 0 36.5 12t14.5 31q0 33 -39 33zM285 584
q-17 0 -28.5 -11t-11.5 -27q0 -26 31 -26q17 0 28.5 10.5t11.5 26.5q0 27 -31 27z" />
    <glyph glyph-name="nine.numerator" horiz-adv-x="387" 
d="M215 254l-76 60l77 84q-46 11 -70.5 40.5t-24.5 72.5q0 65 54.5 115.5t125.5 50.5q59 0 97 -35t38 -89q0 -61 -51 -115zM287 581q-22 0 -39 -16.5t-17 -38.5q0 -17 11 -27t30 -10q23 0 39 15.5t16 37.5q0 17 -11.5 28t-28.5 11z" />
    <glyph glyph-name="zero.numerator" horiz-adv-x="387" 
d="M300 677q69 0 106 -37.5t37 -107.5q0 -123 -56 -197t-150 -74q-70 0 -107 37t-37 106q0 125 56.5 199t150.5 74zM285 580q-38 0 -59 -45q-22 -51 -22 -113q0 -34 11 -49t36 -15q38 0 58 43q22 46 22 114q0 65 -46 65z" />
    <glyph glyph-name="one.denominator" horiz-adv-x="387" 
d="M264 0h-109l42 265l-37 -18l-40 86l126 62h81z" />
    <glyph glyph-name="two.denominator" horiz-adv-x="387" 
d="M52 0l12 78l165 147q42 39 42 63q0 21 -28 21q-21 0 -31 -10.5t-25 -46.5l-99 27q10 24 20 43q49 83 152 83q55 0 88 -28t33 -75q0 -70 -65 -127l-86 -77h128l-15 -98h-291z" />
    <glyph glyph-name="three.denominator" horiz-adv-x="387" 
d="M184 251h44q41 0 41 34q0 23 -30 23q-16 0 -26.5 -6.5t-36.5 -32.5l-82 47q30 35 42 45q50 44 119 44q55 0 89.5 -29t34.5 -76q0 -49 -41 -90q25 -33 25 -66q0 -63 -51.5 -108.5t-123.5 -45.5q-47 0 -80.5 22t-44.5 61q-4 14 -8 46l108 26l1 -8q4 -31 12 -41t28 -10
q21 0 34.5 13t13.5 33q0 15 -8.5 21t-29.5 6h-45z" />
    <glyph glyph-name="four.denominator" horiz-adv-x="387" 
d="M357 359l-113 -135h105l-8 -53h32l-16 -98h-32l-11 -73h-109l11 73h-170l13 80l215 259zM239 218l-39 -47h32z" />
    <glyph glyph-name="five.denominator" horiz-adv-x="387" 
d="M240 296l-6 -17q61 -2 97.5 -35t36.5 -86q0 -67 -56 -117.5t-130 -50.5q-50 0 -83.5 21.5t-58.5 70.5l99 59q13 -32 25 -43.5t34 -11.5q25 0 42.5 17t17.5 40q0 19 -11.5 30t-31.5 11q-23 0 -49 -25l-82 17l82 219h223l-16 -99h-133z" />
    <glyph glyph-name="six.denominator" horiz-adv-x="387" 
d="M277 412l76 -60l-77 -84q45 -11 69.5 -40.5t24.5 -71.5q0 -66 -54.5 -116t-125.5 -50q-58 0 -96 35t-38 88q0 61 51 115zM219 177q-23 0 -38.5 -15.5t-15.5 -37.5q0 -17 11 -27.5t29 -10.5q22 0 38.5 16.5t16.5 38.5q0 16 -11 26t-30 10z" />
    <glyph glyph-name="seven.denominator" horiz-adv-x="387" 
d="M261 296h-158l15 99h296l-11 -71l-249 -342l-89 48z" />
    <glyph glyph-name="eight.denominator" horiz-adv-x="387" 
d="M116 211q-20 24 -20 55q0 55 48.5 97t112.5 42q54 0 88 -30t34 -77q0 -50 -42 -87q29 -34 29 -71q0 -61 -52 -105.5t-123 -44.5q-58 0 -95 32t-37 81q0 59 57 108zM218 161q-21 0 -35.5 -12.5t-14.5 -30.5q0 -32 38 -32q22 0 36.5 12t14.5 31q0 32 -39 32zM242 312
q-17 0 -28.5 -11t-11.5 -27q0 -25 31 -25q17 0 28.5 10t11.5 26q0 27 -31 27z" />
    <glyph glyph-name="nine.denominator" horiz-adv-x="387" 
d="M172 -18l-76 60l77 84q-46 12 -70.5 41.5t-24.5 71.5q0 65 54.5 115.5t125.5 50.5q59 0 97 -35t38 -89q0 -59 -51 -115zM244 309q-22 0 -39 -16.5t-17 -38.5q0 -17 11 -27t30 -10q23 0 39 15.5t16 37.5q0 17 -11.5 28t-28.5 11z" />
    <glyph glyph-name="zero.denominator" horiz-adv-x="387" 
d="M257 405q70 0 106.5 -37t36.5 -107q0 -123 -56 -197t-150 -74q-70 0 -107 37t-37 106q0 124 56 198t151 74zM242 308q-38 0 -59 -45q-22 -51 -22 -113q0 -63 47 -63q38 0 58 43q22 49 22 113q0 65 -46 65z" />
    <glyph glyph-name="onefifth" horiz-adv-x="833" 
d="M632 685l79 -51l-480 -652l-80 50zM661 296l-7 -17q62 -2 98.5 -35t36.5 -86q0 -67 -56 -117.5t-130 -50.5q-50 0 -83.5 21.5t-58.5 70.5l99 59q13 -32 25 -43.5t34 -11.5q25 0 42.5 17t17.5 40q0 19 -11.5 30t-31.5 11q-23 0 -49 -25l-82 17l82 219h223l-16 -99h-133z
M277 271h-109l42 265l-37 -18l-40 86l126 62h81z" />
    <glyph glyph-name="twofifth" horiz-adv-x="833" 
d="M680 685l79 -51l-480 -652l-80 50zM84 271l12 78l165 148q42 37 42 64q0 20 -28 20q-20 0 -30 -10.5t-26 -47.5l-99 27q10 26 20 43q48 84 152 84q55 0 88 -28t33 -75q0 -69 -65 -128l-86 -77h128l-15 -98h-291zM658 296l-6 -17q61 -2 97.5 -35t36.5 -86
q0 -67 -56 -117.5t-130 -50.5q-50 0 -83.5 21.5t-58.5 70.5l100 59q12 -32 24 -43.5t34 -11.5q25 0 42.5 17t17.5 40q0 19 -11.5 30t-31.5 11q-22 0 -49 -25l-82 17l83 219h222l-16 -99h-133z" />
    <glyph glyph-name="threefifth" horiz-adv-x="833" 
d="M659 685l80 -51l-481 -652l-80 50zM658 296l-7 -17q61 -2 97.5 -35t36.5 -86q0 -67 -56 -117.5t-130 -50.5q-50 0 -83 21.5t-58 70.5l99 59q13 -32 25 -43.5t33 -11.5q25 0 42.5 17t17.5 40q0 19 -11.5 30t-31.5 11q-23 0 -48 -25l-82 17l82 219h222l-15 -99h-133z
M224 522h44q41 0 41 34q0 24 -30 24q-16 0 -27 -7t-36 -33l-82 47q23 29 42 46q50 44 118 44q56 0 90.5 -29.5t34.5 -76.5q0 -49 -41 -90q25 -33 25 -67q0 -63 -51.5 -108.5t-123.5 -45.5q-47 0 -80 22t-45 61q-5 18 -8 47l108 26q4 -36 12.5 -47.5t28.5 -11.5q21 0 35 13
t14 33q0 15 -9 21t-30 6h-45z" />
    <glyph glyph-name="fourfifth" horiz-adv-x="833" 
d="M674 685l80 -51l-481 -652l-79 50zM402 631l-113 -136h105l-8 -53h32l-16 -98h-32l-11 -73h-109l11 73h-170l13 80l215 260zM284 489l-39 -47h32zM659 296l-7 -17q61 -2 97.5 -35t36.5 -86q0 -67 -56 -117.5t-130 -50.5q-50 0 -83.5 21.5t-58.5 70.5l100 59
q13 -32 25 -43.5t33 -11.5q25 0 42.5 17t17.5 40q0 19 -11.5 30t-31.5 11q-22 0 -48 -25l-82 17l82 219h222l-15 -99h-133z" />
    <glyph glyph-name="onesixth" horiz-adv-x="833" 
d="M647 685l80 -51l-481 -652l-79 50zM693 412l77 -60l-78 -84q46 -11 70.5 -40.5t24.5 -71.5q0 -66 -54.5 -116t-125.5 -50q-58 0 -96 35t-38 88q0 62 50 115zM636 177q-23 0 -38.5 -15.5t-15.5 -37.5q0 -17 11 -27.5t29 -10.5q22 0 38.5 16.5t16.5 38.5q0 16 -11 26
t-30 10zM279 271h-109l42 265l-37 -18l-40 86l126 62h81z" />
    <glyph glyph-name="fivesixth" horiz-adv-x="833" 
d="M687 685l79 -51l-481 -652l-79 50zM693 412l76 -60l-77 -84q45 -11 69.5 -40.5t24.5 -71.5q0 -66 -54.5 -116t-125.5 -50q-58 0 -96 35t-38 88q0 61 51 115zM635 177q-23 0 -38.5 -15.5t-15.5 -37.5q0 -17 11 -27.5t29 -10.5q22 0 38.5 16.5t16.5 38.5q0 16 -11 26
t-30 10zM288 567l-6 -17q62 -2 98 -35t36 -87q0 -67 -56 -117.5t-130 -50.5q-50 0 -83 21.5t-59 71.5l100 59q12 -32 24 -44t33 -12q25 0 42.5 17t17.5 41q0 19 -11.5 30t-30.5 11q-14 0 -22.5 -4.5t-26.5 -20.5l-82 17l82 219h223l-16 -99h-133z" />
    <glyph glyph-name="Dotaccent" 
d="M380 892q34 0 56 -21.5t22 -53.5q0 -40 -32 -70.5t-74 -30.5q-34 0 -56.5 21.5t-22.5 53.5q0 40 32.5 70.5t74.5 30.5z" />
    <glyph glyph-name="Ring" 
d="M385 929q47 0 78 -30t31 -75q0 -57 -45 -101t-103 -44q-47 0 -78 30.5t-31 76.5q0 56 45 99.5t103 43.5zM374 856q-24 0 -42.5 -18t-18.5 -42q0 -19 12.5 -31.5t31.5 -12.5q24 0 42.5 18t18.5 42q0 19 -12.5 31.5t-31.5 12.5z" />
    <glyph glyph-name="Circumflex" 
d="M359 768l-97 -73l-110 54l184 157h90l134 -157l-127 -54z" />
    <glyph glyph-name="Breve" 
d="M206 885l136 10q0 -7 -1 -14.5t-1.5 -12.5t-0.5 -7q-1 -5 -1 -12q0 -24 28 -24q16 0 30 15q6 7 20 55l133 -10q-15 -54 -21 -69t-21 -34q-62 -80 -161 -80q-63 0 -104.5 35.5t-41.5 89.5q0 6 6 58z" />
    <glyph glyph-name="Tilde" 
d="M425 890l125 -28q-13 -52 -24 -71q-17 -30 -48 -47t-67 -17q-29 0 -80 20q-6 2 -11 2q-7 0 -9 -6l-9 -25l-122 27q14 54 29 76q42 59 112 59q38 0 71 -19q13 -7 16 -7q7 0 11 11z" />
    <glyph glyph-name="Cedilla" 
d="M366 -66l-177 -172l-105 51l151 175z" />
    <glyph glyph-name="Ogonek" 
d="M310 0h156q-32 -35 -32 -50q0 -4 5 -4q11 0 31 12l30 -107q-79 -26 -116 -26q-51 0 -82.5 24.5t-31.5 64.5t40 86z" />
    <glyph glyph-name="Commaaccent" 
d="M180 -13l139 -40l-127 -199l-112 33z" />
    <glyph glyph-name="Comma.high" 
d="M449 925l139 -39l-127 -200l-112 33z" />
    <glyph glyph-name="Dieresis.alt" 
d="M283 883q30 0 50 -19t20 -48q0 -36 -28.5 -63.5t-66.5 -27.5q-31 0 -51 19t-20 48q0 36 29 63.5t67 27.5zM468 883q30 0 50 -19t20 -48q0 -36 -28.5 -63.5t-66.5 -27.5q-31 0 -51 19t-20 48q0 36 29 63.5t67 27.5z" />
    <glyph glyph-name="comma.high" 
d="M415 712l139 -40l-127 -199l-112 33z" />
    <glyph glyph-name="dieresis.alt" 
d="M435 676q30 0 50 -19t20 -48q0 -36 -28.5 -63.5t-66.5 -27.5q-31 0 -51 19t-20 48q0 36 29 63.5t67 27.5zM250 676q30 0 50 -19t20 -48q0 -36 -28.5 -63.5t-66.5 -27.5q-31 0 -51 19t-20 48q0 36 29 63.5t67 27.5z" />
    <glyph glyph-name="commareversed" 
d="M455 472l-139 39l127 200l112 -33z" />
    <glyph glyph-name="G.salt" horiz-adv-x="735" 
d="M561 238h-163l23 148h323l-39 -250q-35 -38 -53 -52q-55 -47 -129.5 -74.5t-145.5 -27.5q-130 0 -217.5 85t-87.5 212q0 161 127.5 283.5t295.5 122.5q78 0 138 -29t121 -96l-134 -108q-38 45 -71.5 63.5t-78.5 18.5q-94 0 -163.5 -70t-69.5 -165q0 -71 47 -118.5
t117 -47.5q80 0 153 59z" />
    <glyph glyph-name="M.salt" horiz-adv-x="831" 
d="M48 0l175 667h140l108 -316l209 316h140l-37 -667h-164l20 347l-143 -218h-120l-74 217l-90 -346h-164z" />
    <glyph glyph-name="y.salt" 
d="M147 25l-95 418h164l47 -227l138 227h163l-355 -587q-65 -107 -149 -107q-31 0 -85 19l47 148q31 -14 41 -14q9 0 18 14z" />
    <glyph glyph-name="parenleft.salt" horiz-adv-x="349" 
d="M293 816l130 -67q-50 -94 -67.5 -135t-39.5 -114q-53 -176 -53 -353q0 -66 4.5 -103t23.5 -127l-151 -66q-20 67 -21 74q-18 75 -18 194q0 214 68 430q40 126 86 205q5 9 38 62z" />
    <glyph glyph-name="parenright.salt" horiz-adv-x="349" 
d="M164 749l151 67q19 -67 21 -75q18 -76 18 -193q0 -216 -68 -430q-43 -133 -86 -205q-5 -9 -38 -63l-130 67q51 96 69 136.5t39 112.5q53 176 53 355q0 64 -4.5 101.5t-24.5 126.5z" />
    <glyph glyph-name="bracketleft.salt" horiz-adv-x="329" 
d="M323 646l-98 -625h82l-23 -148h-243l146 921h243l-24 -148h-83z" />
    <glyph glyph-name="bracketright.salt" horiz-adv-x="329" 
d="M209 646h-83l24 148h243l-146 -921h-243l24 148h82z" />
    <glyph glyph-name="afii61248.salt" horiz-adv-x="742" 
d="M584 271q56 0 92.5 -35t36.5 -87q0 -66 -53 -115.5t-124 -49.5q-58 0 -94.5 34.5t-36.5 87.5q0 67 53 116t126 49zM566 179q-23 0 -38.5 -18t-15.5 -45q0 -19 10.5 -29.5t28.5 -10.5q23 0 39 18t16 45q0 40 -40 40zM418 596l-75 -71q-25 30 -51 30q-25 0 -40.5 -17.5
t-15.5 -44.5q0 -40 40 -40q17 0 29 6t33 26l53 -71q-64 -53 -129 -53q-59 0 -96 34t-37 88q0 67 53 116t125 49q63 0 111 -52zM620 685l79 -51l-481 -652l-79 50z" />
    <glyph glyph-name="braceleft.salt" horiz-adv-x="327" 
d="M344 637l-32 -202q-11 -66 -43 -101q15 -29 15 -64q0 -14 -4 -39l-32 -201v-4q0 -4 11 -4h59l-23 -148q-16 0 -33 -0.5t-26 -1t-13 -0.5q-138 0 -138 122q0 17 5 46l30 191q2 14 2 18q0 14 -12 17l-34 10l19 122l37 9q17 5 22 36l29 184q25 168 186 168q9 0 71 -2
l-23 -148h-59q-9 0 -10.5 -1t-3.5 -7z" />
    <glyph glyph-name="braceright.salt" horiz-adv-x="327" 
d="M88 30l32 200q10 65 44 103q-15 27 -15 64q0 17 3 37l32 202q0 6 -1.5 7t-9.5 1h-59l24 148q40 2 72 2q137 0 137 -122q0 -21 -5 -46l-29 -184q-1 -6 -1 -18q0 -15 11 -18l34 -9l-19 -122l-37 -9q-17 -5 -21 -36l-30 -190q-27 -168 -187 -168q-8 0 -71 2l24 148h59
q12 0 13 8z" />
    <glyph glyph-name="copyright.salt" horiz-adv-x="445" 
d="M341 627l-50 -46q-17 20 -27 26.5t-24 6.5q-23 0 -39 -16.5t-16 -41.5q0 -23 16.5 -40t38.5 -17q24 0 52 33l50 -46q-48 -52 -101 -52q-52 0 -88.5 36t-36.5 87t36.5 86.5t89.5 35.5q29 0 50.5 -11.5t48.5 -40.5zM236 766q88 0 149.5 -62t61.5 -151q0 -85 -62 -146.5
t-148 -61.5q-88 0 -149.5 61.5t-61.5 148.5q0 88 61.5 149.5t148.5 61.5zM236 701q-61 0 -103 -42.5t-42 -104.5q0 -59 43 -101.5t102 -42.5q61 0 103.5 42.5t42.5 103.5q0 60 -42.5 102.5t-103.5 42.5z" />
    <glyph glyph-name="registered.salt" horiz-adv-x="445" 
d="M236 766q88 0 149.5 -62t61.5 -151q0 -85 -62 -146.5t-148 -61.5q-88 0 -149.5 61.5t-61.5 148.5q0 88 61.5 149.5t148.5 61.5zM294 536l47 -82q41 46 41 101q0 61 -42.5 103.5t-103.5 42.5q-60 0 -102.5 -42.5t-42.5 -102.5q0 -61 42.5 -103.5t102.5 -42.5q50 0 89 30
h-54l-41 74l-6 -2v-72h-69v233h67q45 0 71.5 -21.5t26.5 -58.5q0 -34 -26 -57zM224 609v-32q17 0 23 3t6 12q0 17 -29 17z" />
    </font>
</defs>
</svg>
