<?xml version="1.0" standalone="no"?>
<!DOCTYPE svg PUBLIC "-//W3C//DTD SVG 1.1//EN" "http://www.w3.org/Graphics/SVG/1.1/DTD/svg11.dtd" >
<svg xmlns="http://www.w3.org/2000/svg" xmlns:xlink="http://www.w3.org/1999/xlink" version="1.1">
<metadata>
Created by FontForge 20170731 at Thu Sep 10 14:38:11 2015
 By ,,,
Copyright 2014 by (URW)++ Design &#38; Development GmbH
</metadata>
<defs>
<font id="URWGeometric-Heavy" horiz-adv-x="387" >
  <font-face 
    font-family="URW Geometric Heavy"
    font-weight="850"
    font-stretch="normal"
    units-per-em="1000"
    panose-1="0 0 9 0 0 0 0 0 0 0"
    ascent="667"
    descent="-333"
    x-height="443"
    cap-height="667"
    bbox="-139 -289 1234 1077"
    underline-thickness="132"
    underline-position="-365"
    unicode-range="U+0020-FB04"
  />
<missing-glyph horiz-adv-x="218" 
 />
    <glyph glyph-name="afii61352" unicode="Nr&#x2e;" horiz-adv-x="1051" 
d="M727 261v98h261v-98h-261zM64 0v667h124l308 -405v405h148v-667h-124l-308 405v-405h-148zM860 684q61 0 103 -42t42 -102q0 -61 -42.5 -103t-104.5 -42t-105 42t-43 103t43 102.5t107 41.5zM857 599q-25 0 -40.5 -16.5t-15.5 -42.5t15.5 -43t40.5 -17q26 0 41.5 16.5
t15.5 43.5q0 26 -16 42.5t-41 16.5z" />
    <glyph glyph-name="ff" unicode="ff" horiz-adv-x="542" 
d="M198 316v-316h-142v316h-40v127h40v75q0 76 35.5 117t101.5 41q35 0 75 -9v-127q-27 9 -43 9q-27 0 -27 -34v-72h72v-127h-72zM465 316v-316h-142v316h-40v127h40v75q0 76 35.5 117t101.5 41q35 0 75 -9v-127q-27 9 -43 9q-27 0 -27 -34v-72h72v-127h-72z" />
    <glyph glyph-name="fi" unicode="fi" horiz-adv-x="505" 
d="M198 316v-316h-142v316h-40v127h40v75q0 76 35.5 117t101.5 41q35 0 75 -9v-127q-27 9 -43 9q-27 0 -27 -34v-72h72v-127h-72zM385 678q35 0 60 -24t25 -58t-24.5 -58t-59.5 -24q-36 0 -60.5 24t-24.5 59q0 33 25 57t59 24zM457 443v-443h-142v443h142z" />
    <glyph glyph-name="fl" unicode="fl" horiz-adv-x="506" 
d="M198 316v-316h-142v316h-40v127h40v75q0 76 35.5 117t101.5 41q35 0 75 -9v-127q-27 9 -43 9q-27 0 -27 -34v-72h72v-127h-72zM458 0h-142v667h142v-667z" />
    <glyph glyph-name="ffi" unicode="ffi" horiz-adv-x="772" 
d="M198 316v-316h-142v316h-40v127h40v75q0 76 35.5 117t101.5 41q35 0 75 -9v-127q-27 9 -43 9q-27 0 -27 -34v-72h72v-127h-72zM465 316v-316h-142v316h-40v127h40v75q0 76 35.5 117t101.5 41q35 0 75 -9v-127q-27 9 -43 9q-27 0 -27 -34v-72h72v-127h-72zM652 678
q35 0 60 -24t25 -58t-24.5 -58t-59.5 -24q-36 0 -60.5 24t-24.5 59q0 33 25 57t59 24zM724 443v-443h-142v443h142z" />
    <glyph glyph-name="ffl" unicode="ffl" horiz-adv-x="773" 
d="M198 316v-316h-142v316h-40v127h40v75q0 76 35.5 117t101.5 41q35 0 75 -9v-127q-27 9 -43 9q-27 0 -27 -34v-72h72v-127h-72zM465 316v-316h-142v316h-40v127h40v75q0 76 35.5 117t101.5 41q35 0 75 -9v-127q-27 9 -43 9q-27 0 -27 -34v-72h72v-127h-72zM725 0h-142v667
h142v-667z" />
    <glyph glyph-name=".notdef" horiz-adv-x="218" 
 />
    <glyph glyph-name=".null" horiz-adv-x="0" 
 />
    <glyph glyph-name="nonmarkingreturn" horiz-adv-x="333" 
 />
    <glyph glyph-name="space" unicode=" " horiz-adv-x="218" 
 />
    <glyph glyph-name="exclam" unicode="!" horiz-adv-x="318" 
d="M92 184l-12 483h157l-12 -483h-133zM159 149q35 0 59.5 -24t24.5 -58t-24.5 -58t-59.5 -24q-36 0 -60.5 24t-24.5 59q0 33 25 57t60 24z" />
    <glyph glyph-name="quotedbl" unicode="&#x22;" horiz-adv-x="375" 
d="M158 377h-115l-15 323h145zM334 377h-116l-15 323h145z" />
    <glyph glyph-name="numbersign" unicode="#" horiz-adv-x="596" 
d="M104 177h-70l23 109h69l19 92h-69l22 109h70l40 195l116 -26l-35 -169h82l40 195l116 -25l-35 -170h70l-23 -109h-70l-19 -92h70l-23 -109h-70l-40 -195l-115 26l34 169h-81l-41 -195l-115 26zM329 286l19 92h-81l-20 -92h82z" />
    <glyph glyph-name="dollar" unicode="$" horiz-adv-x="592" 
d="M196 230l2 -8l4 -16q21 -85 87 -85q36 0 61 24t25 58q0 22 -19 38t-65 34l-58 22q-153 59 -153 185q0 67 40.5 119t108.5 72v94h146v-94q84 -23 143 -124l-122 -77q-30 46 -48.5 60t-49.5 14q-30 0 -50.5 -18.5t-20.5 -46.5q0 -35 67 -60l60 -22q170 -64 170 -195
q0 -69 -40 -124t-109 -82v-101h-146v93q-73 17 -118.5 68.5t-59.5 132.5z" />
    <glyph glyph-name="percent" unicode="%" horiz-adv-x="896" 
d="M597 684l80 -46l-379 -655l-79 46zM199 676q169 0 169 -207t-168 -207q-166 0 -166 210q0 98 43 151t122 53zM201 586q-66 0 -66 -113q0 -121 66 -121q28 0 42 17q10 11 17 39.5t7 58.5q0 119 -66 119zM693 404q169 0 169 -207q0 -101 -42.5 -154t-123.5 -53
q-168 0 -168 210q0 98 43 151t122 53zM695 314q-66 0 -66 -119q0 -33 8 -62.5t20 -39.5q13 -13 38 -13q28 0 42 17q10 11 17 40t7 59q0 118 -66 118z" />
    <glyph glyph-name="ampersand" unicode="&#x26;" horiz-adv-x="688" 
d="M365 366l91 -106q14 30 30 76l136 -37l-4 -13q-1 -1 -4 -13l-4 -14q-18 -59 -51 -117l122 -142h-185l-31 37q-78 -54 -168 -54q-104 0 -173.5 59t-69.5 147q0 78 59 137q21 21 65 53q-34 45 -47 74.5t-13 62.5q0 72 50 120t124 48q73 0 122.5 -46.5t49.5 -114.5
q0 -84 -99 -157zM285 458q32 25 42 38.5t10 30.5q0 18 -13 30t-32 12q-20 0 -33.5 -12.5t-13.5 -31.5q0 -13 7 -24.5t33 -42.5zM373 146l-116 138q-58 -51 -58 -89q0 -34 27 -56t68 -22q42 0 79 29z" />
    <glyph glyph-name="quotesingle" unicode="'" horiz-adv-x="200" 
d="M158 377h-115l-15 323h145z" />
    <glyph glyph-name="parenleft" unicode="(" horiz-adv-x="339" 
d="M164 754l128 -60q-44 -113 -61.5 -206.5t-17.5 -211.5t17.5 -211t61.5 -207l-128 -61q-27 60 -30 68q-29 71 -47.5 186t-18.5 225q0 109 18.5 225t47.5 186q5 11 30 67z" />
    <glyph glyph-name="parenright" unicode=")" horiz-adv-x="339" 
d="M48 694l128 60q26 -56 30 -67q28 -69 47 -186t19 -225q0 -110 -18.5 -225t-47.5 -186q-3 -8 -30 -68l-128 61q44 114 61.5 206.5t17.5 211.5q0 118 -17.5 210.5t-61.5 207.5z" />
    <glyph glyph-name="asterisk" unicode="*" horiz-adv-x="517" 
d="M195 654l-4 109h135l-4 -109l102 38l42 -129l-105 -29l68 -86l-110 -80l-60 91l-61 -91l-110 80l68 85l-105 30l42 129z" />
    <glyph glyph-name="plus" unicode="+" horiz-adv-x="556" 
d="M212 377v200h132v-200h198v-129h-198v-200h-132v200h-199v129h199z" />
    <glyph glyph-name="comma" unicode="," horiz-adv-x="283" 
d="M113 140l130 -47l-128 -287l-107 42z" />
    <glyph glyph-name="hyphen" unicode="-" horiz-adv-x="290" 
d="M21 296h248v-131h-248v131z" />
    <glyph glyph-name="period" unicode="." horiz-adv-x="266" 
d="M133 149q35 0 59.5 -24t24.5 -58t-24.5 -58t-59.5 -24q-36 0 -60.5 24t-24.5 59q0 33 25 57t60 24z" />
    <glyph glyph-name="slash" unicode="/" horiz-adv-x="572" 
d="M39 51l376 634l118 -69l-376 -634z" />
    <glyph glyph-name="zero" unicode="0" horiz-adv-x="585" 
d="M293 684q268 0 268 -351q0 -172 -68 -261t-200 -89q-269 0 -269 355q0 170 68.5 258t200.5 88zM292 549q-47 0 -75 -31q-19 -22 -31.5 -71.5t-12.5 -105.5q0 -114 29 -168.5t90 -54.5q62 0 91 52.5t29 163.5q0 145 -51 191q-27 24 -69 24z" />
    <glyph glyph-name="one" unicode="1" horiz-adv-x="344" 
d="M280 0h-148v487l-70 -39l-71 120l176 99h113v-667z" />
    <glyph glyph-name="two" unicode="2" horiz-adv-x="504" 
d="M39 0v113l234 256q60 68 60 117q0 30 -19 46.5t-53 16.5q-40 0 -59 -20t-35 -80l-138 38q16 74 51 118q28 37 76.5 58t104.5 21q98 0 158.5 -55.5t60.5 -146.5q0 -96 -74 -176l-154 -169h242v-137h-455z" />
    <glyph glyph-name="three" unicode="3" horiz-adv-x="499" 
d="M175 283v129h60q80 0 80 68q0 32 -20.5 50.5t-55.5 18.5q-30 0 -49.5 -13.5t-51.5 -55.5l-121 66q45 74 96.5 106t124.5 32q97 0 160 -57t63 -144q0 -73 -55 -128q69 -63 69 -152q0 -95 -67.5 -157.5t-170.5 -62.5q-55 0 -103 20.5t-78 57.5q-36 42 -56 125l141 37
q17 -61 37 -83t60 -22t64.5 23.5t24.5 62.5q0 79 -92 79h-60z" />
    <glyph glyph-name="four" unicode="4" horiz-adv-x="525" 
d="M298 691l122 -74l-225 -351h102v112h147v-112h61v-135h-61v-131h-147v131h-283v117z" />
    <glyph glyph-name="five" unicode="5" horiz-adv-x="548" 
d="M265 530l-15 -69q7 1 18 1q106 0 177.5 -67.5t71.5 -167.5q0 -103 -73.5 -173.5t-180.5 -70.5q-77 0 -133.5 34.5t-105.5 111.5l120 82q30 -53 56 -73t64 -20q46 0 76 30t30 76q0 45 -29.5 75t-74.5 30q-26 0 -41.5 -8t-40.5 -34l-114 24l73 356h343v-137h-221z" />
    <glyph glyph-name="six" unicode="6" horiz-adv-x="550" 
d="M309 691l115 -84l-115 -159q79 -13 128 -52q81 -67 81 -172q0 -100 -71.5 -170.5t-172.5 -70.5q-103 0 -174.5 70t-71.5 170q0 82 54 156zM273 318q-42 0 -70 -28t-28 -70q0 -44 28 -73t70 -29t70 30t28 74q0 42 -27.5 69t-70.5 27z" />
    <glyph glyph-name="seven" unicode="7" horiz-adv-x="460" 
d="M16 42l268 488h-283v137h465v-102l-321 -589z" />
    <glyph glyph-name="eight" unicode="8" horiz-adv-x="525" 
d="M102 355q-58 59 -58 128q0 85 63 143t155 58t155 -58t63 -143q0 -68 -57 -128q77 -64 77 -155q0 -93 -68 -155t-170 -62q-101 0 -169.5 62.5t-68.5 154.5q0 90 78 155zM260 286q-40 0 -65 -23.5t-25 -61.5t25.5 -61.5t66.5 -23.5t66.5 23.5t25.5 62.5q0 38 -25.5 61
t-68.5 23zM262 555q-34 0 -55.5 -21t-21.5 -54q0 -32 22 -52t56 -20t55.5 20.5t21.5 52.5q0 33 -21.5 53.5t-56.5 20.5z" />
    <glyph glyph-name="nine" unicode="9" horiz-adv-x="553" 
d="M242 -24l-116 84l116 159q-79 12 -128 52q-82 67 -82 172q0 100 71.5 170.5t172.5 70.5q103 0 174.5 -70t71.5 -170q0 -83 -53 -156zM277 549q-42 0 -70 -30t-28 -74q0 -42 27.5 -69t70.5 -27q42 0 70 28t28 70q0 44 -28 73t-70 29z" />
    <glyph glyph-name="colon" unicode=":" horiz-adv-x="266" 
d="M133 149q35 0 59.5 -24t24.5 -58t-24.5 -58t-59.5 -24q-36 0 -60.5 24t-24.5 59q0 33 25 57t60 24zM132 431q35 0 60 -24t25 -58t-24.5 -58t-59.5 -24q-36 0 -60.5 24t-24.5 59q0 33 25 57t59 24z" />
    <glyph glyph-name="semicolon" unicode=";" horiz-adv-x="277" 
d="M113 140l130 -47l-128 -287l-107 42zM155 431q35 0 60 -24t25 -58t-24.5 -58t-59.5 -24q-36 0 -60.5 24t-24.5 59q0 33 25 57t59 24z" />
    <glyph glyph-name="less" unicode="&#x3c;" horiz-adv-x="591" 
d="M546 625v-148l-306 -140l306 -140v-149l-500 235v108z" />
    <glyph glyph-name="equal" unicode="=" horiz-adv-x="556" 
d="M514 466v-129h-471v129h471zM514 288v-129h-471v129h471z" />
    <glyph glyph-name="greater" unicode="&#x3e;" horiz-adv-x="591" 
d="M46 48v149l306 140l-306 140v148l500 -235v-107z" />
    <glyph glyph-name="question" unicode="?" horiz-adv-x="447" 
d="M150 184v60q-1 49 13 78t53 61l39 33q45 36 45 74q0 26 -17 41t-47 15q-34 0 -55.5 -15t-53.5 -62l-109 87q41 68 92 98t124 30q95 0 154 -53.5t59 -139.5q0 -49 -20 -88t-68 -83l-44 -41q-13 -12 -16 -19t-3 -24v-52h-146zM221 149q35 0 60 -24t25 -58t-25 -58t-61 -24
q-34 0 -58.5 24.5t-24.5 58.5q0 33 25 57t59 24z" />
    <glyph glyph-name="at" unicode="@" horiz-adv-x="893" 
d="M642 535l-40 -319h1q55 0 87.5 42.5t32.5 115.5q0 69 -28 124t-78 83q-56 32 -137 32q-141 0 -225.5 -78.5t-84.5 -209.5q0 -120 74 -192q78 -79 237 -79q55 0 98.5 7t127.5 30l37 -99q-81 -24 -137.5 -33t-130.5 -9q-106 0 -190.5 31.5t-135.5 90.5q-89 101 -89 252
q0 85 32 161.5t91 130.5q53 48 129.5 74.5t164.5 26.5q159 0 256.5 -93.5t97.5 -247.5q0 -80 -31.5 -141t-89.5 -93q-55 -30 -144 -30h-129q-86 0 -138.5 53t-52.5 139q0 106 73 173q63 58 181 58h141zM491 216l28 215h-27q-64 0 -99 -32.5t-35 -92.5q0 -43 23 -66.5
t65 -23.5h45z" />
    <glyph glyph-name="A" unicode="A" horiz-adv-x="649" 
d="M451 147h-253l-51 -147h-156l249 667h170l249 -667h-157zM403 284l-79 225l-78 -225h157z" />
    <glyph glyph-name="B" unicode="B" horiz-adv-x="535" 
d="M64 0v667h165q100 0 154 -32q42 -24 68 -67.5t26 -90.5q0 -67 -55 -119q86 -61 86 -157q0 -52 -27.5 -97t-77.5 -73q-55 -31 -143 -31h-196zM207 400h33q48 0 65 10q33 17 33 60q0 37 -22.5 52.5t-75.5 15.5h-33v-138zM207 132h48q51 0 74 12q36 20 36 63q0 41 -33 61
q-25 14 -86 14h-39v-150z" />
    <glyph glyph-name="C" unicode="C" horiz-adv-x="674" 
d="M653 554l-105 -99q-44 50 -82 70.5t-86 20.5q-86 0 -145.5 -62t-59.5 -151q0 -88 60.5 -150t145.5 -62q48 0 86.5 21t83.5 71l105 -98q-65 -70 -129.5 -101t-143.5 -31q-148 0 -252.5 102.5t-104.5 247.5q0 146 104.5 248.5t252.5 102.5q78 0 142 -30.5t128 -99.5z" />
    <glyph glyph-name="D" unicode="D" horiz-adv-x="621" 
d="M64 667h164q167 0 267 -90.5t100 -242.5t-100 -243t-267 -91h-164v667zM212 530v-393h19q101 0 158.5 52.5t57.5 143.5q0 92 -57.5 144.5t-158.5 52.5h-19z" />
    <glyph glyph-name="E" unicode="E" horiz-adv-x="495" 
d="M456 667v-136h-245v-125h218v-136h-218v-133h254v-137h-401v667h392z" />
    <glyph glyph-name="F" unicode="F" horiz-adv-x="458" 
d="M435 667v-136h-223v-125h203v-137h-203v-269h-148v667h371z" />
    <glyph glyph-name="G" unicode="G" horiz-adv-x="729" 
d="M369 380h332v-69q0 -106 -43 -181q-41 -70 -112 -108.5t-160 -38.5q-150 0 -255 102t-105 248t105 248.5t254 102.5q77 0 140 -28.5t134 -95.5l-105 -98q-48 47 -85 65.5t-85 18.5q-89 0 -149 -61t-60 -152q0 -89 61 -150.5t149 -61.5q129 0 162 124h-178v135z" />
    <glyph glyph-name="H" unicode="H" horiz-adv-x="654" 
d="M212 667v-261h229v261h148v-667h-148v269h-229v-269h-148v667h148z" />
    <glyph glyph-name="I" unicode="I" horiz-adv-x="276" 
d="M212 667v-667h-148v667h148z" />
    <glyph glyph-name="J" unicode="J" horiz-adv-x="431" 
d="M368 667v-457q0 -88 -31 -141q-48 -86 -160 -86q-53 0 -97 21.5t-92 71.5l88 106q54 -61 94 -61q50 0 50 89v457h148z" />
    <glyph glyph-name="K" unicode="K" horiz-adv-x="616" 
d="M360 384l255 -384h-175l-181 276l-47 -50v-226h-148v667h148v-240l224 240h189z" />
    <glyph glyph-name="L" unicode="L" horiz-adv-x="446" 
d="M64 667h148v-530h235v-137h-383v667z" />
    <glyph glyph-name="M" unicode="M" horiz-adv-x="799" 
d="M64 0v667h136l200 -348l199 348h136v-667h-148v370l-134 -237h-106l-135 237v-370h-148z" />
    <glyph glyph-name="N" unicode="N" horiz-adv-x="708" 
d="M64 0v667h124l308 -405v405h148v-667h-124l-308 405v-405h-148z" />
    <glyph glyph-name="O" unicode="O" horiz-adv-x="763" 
d="M381 684q147 0 251.5 -103t104.5 -248t-105 -247.5t-253 -102.5q-146 0 -249.5 104.5t-103.5 251.5q0 139 106 242t249 103zM380 546q-86 0 -145.5 -62.5t-59.5 -153.5q0 -85 61.5 -147t144.5 -62q85 0 146 62.5t61 149.5q0 89 -60.5 151t-147.5 62z" />
    <glyph glyph-name="P" unicode="P" horiz-adv-x="482" 
d="M212 232v-232h-148v667h164q93 0 146 -30q48 -27 75.5 -77t27.5 -110q0 -59 -28 -109.5t-75 -78.5q-53 -30 -146 -30h-16zM211 367h26q51 0 74 19.5t23 63.5q0 43 -23 62.5t-74 19.5h-26v-165z" />
    <glyph glyph-name="Q" unicode="Q" horiz-adv-x="761" 
d="M604 -55l-74 71q-72 -33 -149 -33q-146 0 -250.5 103t-104.5 247t105 247.5t251 103.5t250.5 -103.5t104.5 -247.5q0 -63 -23.5 -123.5t-65.5 -105.5l59 -58zM382 160l104 101l59 -57q43 60 43 127q0 90 -60 152.5t-146 62.5t-146.5 -62t-60.5 -151q0 -96 70 -158
q61 -54 128 -54q17 0 45 5z" />
    <glyph glyph-name="R" unicode="R" horiz-adv-x="568" 
d="M392 0l-129 233h-3h-4h-12q-4 -1 -16 -1h-16v-232h-148v667h164q101 0 159 -32q49 -29 77 -79t28 -108q0 -113 -88 -173l155 -275h-167zM211 367h25q60 0 86.5 19t26.5 62t-27 63.5t-86 20.5h-25v-165z" />
    <glyph glyph-name="S" unicode="S" horiz-adv-x="530" 
d="M491 549l-122 -77q-30 46 -48.5 60.5t-49.5 14.5q-30 0 -50.5 -19t-20.5 -47q0 -35 67 -59l60 -23q88 -33 129 -80t41 -115q0 -93 -68.5 -157t-168.5 -64q-55 0 -103.5 22t-78.5 60q-37 48 -54 126l145 39l2 -8l4 -16q21 -85 87 -85q36 0 61 24t25 58q0 22 -18 38t-65 34
l-58 22q-154 58 -154 185q0 86 64 144t159 58q71 0 121.5 -32t93.5 -103z" />
    <glyph glyph-name="T" unicode="T" horiz-adv-x="443" 
d="M452 667v-137h-156v-530h-148v530h-157v137h461z" />
    <glyph glyph-name="U" unicode="U" horiz-adv-x="645" 
d="M212 667v-408q0 -68 13 -90q12 -21 39.5 -34.5t57.5 -13.5t58 14t40 34q13 22 13 90v408h148v-426q0 -84 -30 -135q-33 -56 -94.5 -89.5t-133.5 -33.5t-134 33.5t-95 89.5q-30 51 -30 135v426h148z" />
    <glyph glyph-name="V" unicode="V" horiz-adv-x="597" 
d="M147 667l152 -459l151 459h156l-223 -667h-169l-223 667h156z" />
    <glyph glyph-name="W" unicode="W" horiz-adv-x="877" 
d="M145 667l116 -394l117 394h121l117 -395l116 395h154l-200 -667h-130l-117 395l-118 -395h-129l-201 667h154z" />
    <glyph glyph-name="X" unicode="X" horiz-adv-x="595" 
d="M382 348l223 -348h-170l-138 217l-137 -217h-169l223 347l-205 320h169l120 -190l121 190h167z" />
    <glyph glyph-name="Y" unicode="Y" horiz-adv-x="565" 
d="M208 275l-224 392h166l132 -239l133 239h165l-224 -392v-275h-148v275z" />
    <glyph glyph-name="Z" unicode="Z" horiz-adv-x="516" 
d="M500 558l-297 -420h304v-138h-499v109l301 421h-274v137h465v-109z" />
    <glyph glyph-name="bracketleft" unicode="[" horiz-adv-x="326" 
d="M297 601h-84v-650h84v-134h-229v918h229v-134z" />
    <glyph glyph-name="backslash" unicode="\" horiz-adv-x="543" 
d="M127 684l377 -650l-89 -52l-376 651z" />
    <glyph glyph-name="bracketright" unicode="]" horiz-adv-x="326" 
d="M29 601v134h229v-918h-229v134h84v650h-84z" />
    <glyph glyph-name="asciicircum" unicode="^" horiz-adv-x="590" 
d="M171 329h-162l217 375h139l217 -375h-163l-124 211z" />
    <glyph glyph-name="underscore" unicode="_" horiz-adv-x="535" 
d="M-16 -35h567v-132h-567v132z" />
    <glyph glyph-name="grave" unicode="`" horiz-adv-x="476" 
d="M62 644l131 66l137 -175l-96 -51z" />
    <glyph glyph-name="a" unicode="a" horiz-adv-x="543" 
d="M496 0h-143v22q-53 -39 -111 -39q-93 0 -158.5 70t-65.5 169t65.5 168.5t158.5 69.5q58 0 111 -39v22h143v-443zM257 332q-43 0 -69.5 -31t-26.5 -81q0 -48 27.5 -78.5t70.5 -30.5q44 0 70 30.5t26 81.5q0 49 -27 79t-71 30z" />
    <glyph glyph-name="b" unicode="b" horiz-adv-x="543" 
d="M47 0v667h142v-245q53 38 111 38q93 0 158.5 -69.5t65.5 -168.5t-65.5 -169t-158.5 -70q-59 0 -111 39v-22h-142zM282 332q-42 0 -68 -30.5t-26 -79.5q0 -50 26.5 -80.5t69.5 -30.5t70 30.5t27 80.5t-27 80t-72 30z" />
    <glyph glyph-name="c" unicode="c" horiz-adv-x="457" 
d="M448 376l-87 -96q-30 30 -50.5 41t-48.5 11q-46 0 -73 -30t-27 -80q0 -51 27 -81t73 -30q29 0 51.5 12.5t49.5 43.5l88 -97q-47 -47 -90.5 -67t-98.5 -20q-103 0 -173 69t-70 170q0 100 70 169t172 69q54 0 96 -19t91 -65z" />
    <glyph glyph-name="d" unicode="d" horiz-adv-x="543" 
d="M496 0h-142v22q-52 -39 -111 -39q-93 0 -158.5 70t-65.5 169t65.5 168.5t158.5 69.5q58 0 111 -38v245h142v-667zM258 332q-43 0 -69.5 -31t-26.5 -81q0 -48 27 -78.5t70 -30.5q44 0 70 30.5t26 81.5q0 50 -26.5 79.5t-70.5 29.5z" />
    <glyph glyph-name="e" unicode="e" horiz-adv-x="494" 
d="M336 152l127 -49q-78 -120 -209 -120q-100 0 -167.5 68.5t-67.5 169.5q0 100 66.5 169t163.5 69q98 0 162 -70t64 -177q0 -19 -1 -37h-309q12 -36 32.5 -52t54.5 -16q56 0 84 45zM165 268h169q-12 36 -31.5 52t-52.5 16q-66 0 -85 -68z" />
    <glyph glyph-name="f" unicode="f" horiz-adv-x="275" 
d="M198 316v-316h-142v316h-40v127h40v75q0 76 35.5 117t101.5 41q35 0 75 -9v-127q-27 9 -43 9q-27 0 -27 -34v-72h72v-127h-72z" />
    <glyph glyph-name="g" unicode="g" horiz-adv-x="543" 
d="M354 -9v31q-55 -39 -111 -39q-93 0 -158.5 69.5t-65.5 169.5q0 99 65.5 168.5t158.5 69.5q56 0 111 -39v22h142v-452q0 -107 -68 -174t-176 -67q-68 0 -122 28.5t-108 92.5l97 91l6 -7q4 -4 8 -10q54 -67 119 -67q49 0 75.5 29.5t26.5 83.5zM258 332q-43 0 -69.5 -31
t-26.5 -81q0 -48 27 -78.5t70 -30.5q44 0 70 30.5t26 81.5q0 50 -26.5 79.5t-70.5 29.5z" />
    <glyph glyph-name="h" unicode="h" horiz-adv-x="511" 
d="M189 667v-241q44 34 98 34q45 0 85.5 -23t62.5 -62q28 -49 28 -135v-240h-142v233q0 57 -13 78t-48 21q-44 0 -59 -28q-12 -20 -12 -79v-225h-142v667h142z" />
    <glyph glyph-name="i" unicode="i" horiz-adv-x="238" 
d="M118 678q35 0 60 -24t25 -58t-24.5 -58t-59.5 -24q-36 0 -60.5 24t-24.5 59q0 33 25 57t59 24zM190 443v-443h-142v443h142z" />
    <glyph glyph-name="j" unicode="j" horiz-adv-x="244" 
d="M196 443v-530q0 -75 -35.5 -116.5t-99.5 -41.5q-36 0 -78 14v131q37 -14 54 -14t17 33v524h142zM124 678q35 0 60 -24t25 -58t-24.5 -58t-59.5 -24q-36 0 -60.5 24t-24.5 59q0 33 25 57t59 24z" />
    <glyph glyph-name="k" unicode="k" horiz-adv-x="500" 
d="M312 255l202 -255h-177l-124 160l-24 -24v-136h-142v667h142v-348l127 124h191z" />
    <glyph glyph-name="l" unicode="l" horiz-adv-x="239" 
d="M190 0h-142v667h142v-667z" />
    <glyph glyph-name="m" unicode="m" horiz-adv-x="756" 
d="M188 443v-18q47 35 94 35q58 0 111 -45q58 45 125 45q112 0 164 -91q27 -50 27 -132v-237h-142v230q0 58 -11.5 80t-42.5 22q-37 0 -52 -26q-12 -21 -12 -85v-221h-142v230q0 58 -11.5 80t-42.5 22q-37 0 -52 -26q-12 -21 -12 -85v-221h-142v443h141z" />
    <glyph glyph-name="n" unicode="n" horiz-adv-x="511" 
d="M189 443v-18q43 35 98 35q46 0 85.5 -23t62.5 -62q28 -49 28 -135v-240h-142v233q0 57 -13 78t-48 21q-44 0 -59 -28q-12 -20 -12 -80v-224h-142v443h142z" />
    <glyph glyph-name="o" unicode="o" horiz-adv-x="520" 
d="M263 460q99 0 168.5 -69.5t69.5 -168.5q0 -100 -70 -169.5t-171 -69.5t-171 69.5t-70 169.5q0 101 70 169.5t174 68.5zM259 332q-43 0 -70 -30.5t-27 -79.5q0 -50 27 -80.5t71 -30.5t71 30.5t27 80.5t-27 80t-72 30z" />
    <glyph glyph-name="p" unicode="p" horiz-adv-x="543" 
d="M47 443h142v-22q52 39 111 39q93 0 158.5 -70t65.5 -169t-65.5 -168.5t-158.5 -69.5q-57 0 -111 39v-256h-142v677zM284 332q-43 0 -69.5 -30.5t-26.5 -80.5t26.5 -80t69.5 -30t70 30.5t27 79.5q0 50 -27 80.5t-70 30.5z" />
    <glyph glyph-name="q" unicode="q" horiz-adv-x="543" 
d="M496 443v-677h-142v256q-52 -39 -111 -39q-93 0 -158.5 69.5t-65.5 168.5t65.5 169t158.5 70q57 0 111 -39v22h142zM259 332q-44 0 -70.5 -31t-26.5 -81q0 -49 27.5 -79t71.5 -30q42 0 68 30.5t26 79.5q0 50 -26.5 80.5t-69.5 30.5z" />
    <glyph glyph-name="r" unicode="r" horiz-adv-x="315" 
d="M189 443v-20q38 23 76 23q18 0 45 -4v-125q-28 3 -45 3q-44 0 -60 -22t-16 -83v-215h-142v443h142z" />
    <glyph glyph-name="s" unicode="s" horiz-adv-x="394" 
d="M14 117l122 43q29 -53 65 -53q14 0 23 7.5t9 20.5q0 10 -7 16t-27 14l-74 30q-38 16 -60 47.5t-22 70.5q0 63 48 105t119 42q106 0 164 -102l-114 -52q-23 32 -51 32q-30 0 -30 -22q0 -8 6.5 -13t24.5 -13l62 -24q103 -39 103 -124q0 -68 -50.5 -113.5t-125.5 -45.5
q-131 0 -185 134z" />
    <glyph glyph-name="t" unicode="t" horiz-adv-x="282" 
d="M192 316v-162q0 -32 17 -32q18 0 54 14v-131q-45 -14 -79 -14q-63 0 -98.5 41.5t-35.5 116.5v167h-44v127h44v89l142 55v-144h65v-127h-65z" />
    <glyph glyph-name="u" unicode="u" horiz-adv-x="511" 
d="M321 0v18q-43 -35 -98 -35q-46 0 -85.5 23t-62.5 62q-28 49 -28 135v240h142v-233q0 -56 13.5 -77.5t48.5 -21.5q43 0 58 28q12 20 12 80v224h142v-443h-142z" />
    <glyph glyph-name="v" unicode="v" horiz-adv-x="472" 
d="M135 443l101 -244l101 244h151l-188 -443h-127l-188 443h150z" />
    <glyph glyph-name="w" unicode="w" horiz-adv-x="654" 
d="M-15 443h149l71 -213l69 213h106l70 -213l71 213h148l-159 -443h-114l-69 209l-69 -209h-114z" />
    <glyph glyph-name="x" unicode="x" horiz-adv-x="508" 
d="M340 229l178 -229h-172l-92 120l-93 -120h-172l179 229l-167 214h172l81 -106l82 106h170z" />
    <glyph glyph-name="y" unicode="y" horiz-adv-x="475" 
d="M153 23l-168 420h150l96 -246l110 246h150l-303 -677h-150z" />
    <glyph glyph-name="z" unicode="z" horiz-adv-x="423" 
d="M405 443v-101l-192 -216h201v-126h-397v100l193 217h-180v126h375z" />
    <glyph glyph-name="braceleft" unicode="{" horiz-adv-x="328" 
d="M299 -49v-133q-53 -2 -63 -2q-155 0 -155 164v190q-1 30 -8 37.5t-44 15.5v112l24 6q17 5 22 13.5t6 31.5v185q0 165 154 165q9 0 64 -2v-133h-32h-20q-14 0 -17.5 -3t-3.5 -17v-202q-1 -65 -31 -103q30 -35 31 -106v-199q0 -13 3 -16t17 -4h6h20h27z" />
    <glyph glyph-name="bar" unicode="|" horiz-adv-x="536" 
d="M198 728h139v-904h-139v904z" />
    <glyph glyph-name="braceright" unicode="}" horiz-adv-x="328" 
d="M29 -182v133q14 1 30 1q8 0 17 -1h8q11 0 14.5 3.5t3.5 16.5v199q1 70 31 106q-30 36 -31 103v202q0 14 -3.5 17t-17.5 3h-14h-38v133q56 2 64 2q154 0 154 -165v-185q1 -22 6 -31t22 -14l24 -6v-112q-37 -8 -44 -15.5t-8 -37.5v-190q0 -164 -155 -164q-10 0 -63 2z" />
    <glyph glyph-name="asciitilde" unicode="~" horiz-adv-x="721" 
d="M175 535l-98 63q35 73 58 101q48 59 121 59q52 0 126 -37q59 -28 84 -28q26 0 49 31q2 3 30 49l99 -59q-37 -77 -64 -104q-52 -55 -118 -55q-49 0 -159 51q-33 15 -53 15q-18 0 -31.5 -15.5t-43.5 -70.5z" />
    <glyph glyph-name="uni00A0" unicode="&#xa0;" horiz-adv-x="218" 
 />
    <glyph glyph-name="exclamdown" unicode="&#xa1;" horiz-adv-x="318" 
d="M92 298h133l12 -482h-157zM158 498q35 0 60 -24t25 -58t-25 -58t-60 -24t-59.5 24t-24.5 59q0 33 25 57t59 24z" />
    <glyph glyph-name="cent" unicode="&#xa2;" horiz-adv-x="548" 
d="M361 0h-146v108q-73 23 -117.5 85.5t-44.5 140.5t44.5 140t117.5 85v108h146v-104q65 -17 122 -75l-88 -96q-29 29 -50 40.5t-49 11.5q-46 0 -73 -30t-27 -80q0 -51 27 -81t73 -30q30 0 53 12.5t49 43.5l87 -97q-56 -60 -124 -79v-103z" />
    <glyph glyph-name="sterling" unicode="&#xa3;" horiz-adv-x="572" 
d="M449 401v-129h-169q6 -40 6 -68q0 -33 -18 -70h270v-134h-479v115q3 3 6.5 5.5t5 4t4.5 3.5t6 5q55 43 55 86q0 15 -5 53h-72v129h45q-4 35 -4 57q0 111 68 170q64 56 155 56q103 0 166 -72q24 -29 45 -62l-120 -75q-29 44 -48 59t-47 15q-72 0 -72 -93q0 -26 6 -55h196z
" />
    <glyph glyph-name="currency" unicode="&#xa4;" horiz-adv-x="776" 
d="M163 649l91 -92q69 38 134 38q66 0 135 -38l91 92l87 -84l-93 -95q36 -72 36 -136t-36 -137l92 -93l-85 -86l-91 93q-73 -39 -136 -39q-62 0 -135 39l-92 -93l-84 86l92 93q-37 73 -37 137q0 65 37 136l-93 95zM386 466q-53 0 -85.5 -37t-32.5 -97q0 -58 33.5 -94.5
t86.5 -36.5q54 0 87 37t33 97q0 59 -33.5 95t-88.5 36z" />
    <glyph glyph-name="yen" unicode="&#xa5;" horiz-adv-x="665" 
d="M232 320l-14 25h-108v102h50l-126 220h166l131 -236h3l131 236h165l-126 -220h50v-102h-108l-14 -25h122v-102h-148v-218h-148v218h-148v102h122z" />
    <glyph glyph-name="brokenbar" unicode="&#xa6;" horiz-adv-x="536" 
d="M198 728h139v-340h-139v340zM198 164h139v-340h-139v340z" />
    <glyph glyph-name="section" unicode="&#xa7;" horiz-adv-x="587" 
d="M297 414l62 -23q90 -35 132 -82.5t42 -116.5q0 -67 -43 -128q32 -45 32 -105q0 -92 -64.5 -149.5t-167.5 -57.5q-164 0 -252 159l126 79q35 -55 57 -75q28 -25 74 -25q36 0 57.5 19t21.5 50q0 22 -19.5 38t-70.5 36l-60 23q-157 59 -157 188q0 74 46 126q-35 47 -35 108
q0 88 66 147t164 59q71 0 123 -31t98 -100l-125 -79q-28 40 -50.5 56t-51.5 16q-33 0 -55 -19.5t-22 -50.5q0 -35 72 -62zM235 289l-3 -4l-6 -7q-14 -12 -14 -34q0 -19 17 -33.5t57 -29.5l73 -28l11 -5q16 25 16 45q0 22 -19 37.5t-73 36.5z" />
    <glyph glyph-name="dieresis" unicode="&#xa8;" horiz-adv-x="476" 
d="M332 673q32 0 55 -22.5t23 -53.5q0 -32 -23 -54.5t-56 -22.5q-32 0 -55 23t-23 55q0 31 23.5 53t55.5 22zM144 673q32 0 55 -22.5t23 -53.5q0 -32 -23 -54.5t-55 -22.5q-34 0 -56.5 22.5t-22.5 55.5q0 31 23.5 53t55.5 22z" />
    <glyph glyph-name="copyright" unicode="&#xa9;" horiz-adv-x="833" 
d="M619 477l-82 -76q-31 36 -55 49.5t-55 13.5q-53 0 -89.5 -38t-36.5 -93q0 -54 37 -92t90 -38q31 0 54 13t57 50l82 -76q-3 -2 -12 -11q-80 -83 -180 -83t-171 69.5t-71 167.5q0 99 70.5 168.5t171.5 69.5q55 0 97 -20.5t93 -73.5zM421 716q155 0 266.5 -112.5
t111.5 -269.5q0 -159 -112 -271t-271 -112q-158 0 -270 112t-112 269q0 161 112 272.5t275 111.5zM414 622q-117 0 -201.5 -85t-84.5 -203q0 -120 84.5 -204.5t204.5 -84.5q119 0 203.5 84.5t84.5 205.5q0 119 -85 203t-206 84z" />
    <glyph glyph-name="ordfeminine" unicode="&#xaa;" horiz-adv-x="346" 
d="M319 406h-98v8q-29 -20 -63 -20q-58 0 -99.5 42t-41.5 101q0 61 41.5 104t100.5 43q33 0 62 -20v8h98v-266zM170 598q-25 0 -40 -16.5t-15 -43.5t14.5 -42.5t39.5 -15.5q24 0 38.5 16.5t14.5 43.5q0 26 -14.5 42t-37.5 16z" />
    <glyph glyph-name="guillemotleft" unicode="&#xab;" horiz-adv-x="534" 
d="M376 222l123 -152l-97 -76l-185 228l185 233l97 -77zM180 222l123 -152l-97 -77l-185 228l185 233l97 -76z" />
    <glyph glyph-name="logicalnot" unicode="&#xac;" horiz-adv-x="702" 
d="M651 48h-137v198h-463v131h600v-329z" />
    <glyph glyph-name="uni00AD" unicode="&#xad;" horiz-adv-x="290" 
d="M21 296h248v-131h-248v131z" />
    <glyph glyph-name="registered" unicode="&#xae;" horiz-adv-x="833" 
d="M423 715q154 0 265 -113t111 -269q0 -158 -112 -270t-270 -112q-160 0 -271.5 112t-111.5 273q0 158 113.5 268.5t275.5 110.5zM598 108h-102l-84 151h-22h-7v-151h-113v450h124q67 0 107 -22q34 -20 53.5 -54.5t19.5 -74.5q0 -65 -55 -114l96 -170q90 85 90 210
q0 119 -84.5 203.5t-203.5 84.5q-120 0 -204.5 -84.5t-84.5 -203.5t84.5 -203.5t204.5 -84.5q101 0 181 63zM382 363h18q34 0 49 10.5t15 33.5q0 25 -15 35.5t-49 10.5h-18v-90z" />
    <glyph glyph-name="macron" unicode="&#xaf;" horiz-adv-x="476" 
d="M70 649h336v-117h-336v117z" />
    <glyph glyph-name="degree" unicode="&#xb0;" horiz-adv-x="324" 
d="M198 745q58 0 100 -42.5t42 -101.5q0 -60 -42 -102.5t-102 -42.5t-102.5 42.5t-42.5 101.5q0 61 42.5 103t104.5 42zM195 652q-21 0 -36 -15t-15 -36q0 -22 15 -37t37 -15q21 0 36 15t15 37q0 21 -15 36t-37 15z" />
    <glyph glyph-name="plusminus" unicode="&#xb1;" horiz-adv-x="556" 
d="M212 468v187h132v-187h198v-129h-198v-187h-132v187h-199v129h199zM542 129v-129h-529v129h529z" />
    <glyph glyph-name="twosuperior" unicode="&#xb2;" 
d="M55 406v73l142 150q35 35 35 62q0 30 -37 30q-22 0 -32 -11t-21 -47l-94 25q11 45 31 74q38 49 116 49q61 0 99 -33.5t38 -88.5q0 -56 -46 -105l-83 -87h137v-91h-285z" />
    <glyph glyph-name="threesuperior" unicode="&#xb3;" 
d="M146 655h42q41 0 41 33q0 34 -37 34q-18 0 -29.5 -7.5t-30.5 -34.5l-83 44q30 47 62.5 67t79.5 20q59 0 98.5 -34.5t39.5 -86.5q0 -40 -30 -73q39 -42 39 -87q0 -58 -42.5 -96t-106.5 -38q-119 0 -149 127l96 24l2 -8q9 -30 20 -41.5t32 -11.5t34 12t13 32q0 39 -49 39
h-42v86z" />
    <glyph glyph-name="acute" unicode="&#xb4;" horiz-adv-x="476" 
d="M414 644l-172 -160l-96 51l137 175z" />
    <glyph glyph-name="mu" unicode="&#xb5;" horiz-adv-x="511" 
d="M189 -234h-142v677h142v-234q0 -56 13.5 -77t48.5 -21q43 0 58 28q12 20 12 80v224h142v-443h-142v18q-35 -35 -73 -35q-29 0 -59 16v-233z" />
    <glyph glyph-name="paragraph" unicode="&#xb6;" horiz-adv-x="645" 
d="M384 -234h-123v429q-45 7 -72 18.5t-55 35.5q-83 72 -83 181q0 100 69 168.5t169 68.5h322v-119h-62v-782h-123v782h-42v-782z" />
    <glyph glyph-name="periodcentered" unicode="&#xb7;" horiz-adv-x="266" 
d="M132 415q35 0 60 -24t25 -58t-25 -58t-60 -24t-59.5 24t-24.5 59q0 33 25 57t59 24z" />
    <glyph glyph-name="cedilla" unicode="&#xb8;" horiz-adv-x="476" 
d="M367 -67l-142 -167l-103 47l117 171z" />
    <glyph glyph-name="onesuperior" unicode="&#xb9;" 
d="M260 406h-101v275l-38 -20l-49 79l113 61h75v-395z" />
    <glyph glyph-name="ordmasculine" unicode="&#xba;" horiz-adv-x="339" 
d="M172 684q62 0 106 -42t44 -102q0 -61 -44 -103t-108 -42q-65 0 -108.5 42t-43.5 104q0 61 44.5 102t109.5 41zM170 597q-25 0 -39.5 -15.5t-14.5 -41.5t15 -42t39 -16q25 0 39.5 16t14.5 43q0 25 -15 40.5t-39 15.5z" />
    <glyph glyph-name="guillemotright" unicode="&#xbb;" horiz-adv-x="534" 
d="M354 222l-123 156l97 76l185 -233l-185 -228l-97 77zM158 222l-123 156l97 77l185 -233l-185 -228l-97 76z" />
    <glyph glyph-name="onequarter" unicode="&#xbc;" horiz-adv-x="833" 
d="M696 362l-132 -197h44v64h100v-64h36v-90h-36v-75h-100v75h-170v75l175 261zM529 684l80 -46l-379 -655l-80 46zM231 271h-101v276l-38 -21l-49 79l113 61h75v-395z" />
    <glyph glyph-name="onehalf" unicode="&#xbd;" horiz-adv-x="833" 
d="M528 684l80 -46l-379 -655l-80 46zM230 271h-101v276l-38 -21l-49 79l113 61h75v-395zM487 0v74l142 148q35 38 35 63q0 30 -37 30q-22 0 -32 -11t-21 -47l-94 24q11 47 31 74q38 49 116 49q61 0 99 -33.5t38 -87.5q0 -57 -46 -105l-83 -87h137v-91h-285z" />
    <glyph glyph-name="threequarters" unicode="&#xbe;" horiz-adv-x="833" 
d="M732 362l-132 -197h44v64h100v-64h37v-90h-37v-75h-100v75h-170v75l175 261zM587 684l80 -46l-379 -655l-79 46zM143 520h42q41 0 41 33q0 15 -10 24t-27 9q-18 0 -29 -7.5t-31 -33.5l-83 44q30 47 62.5 67t79.5 20q59 0 98.5 -34.5t39.5 -86.5q0 -40 -30 -73
q39 -42 39 -87q0 -58 -42 -95.5t-107 -37.5q-119 0 -149 126l96 25l2 -9q9 -30 20 -41t32 -11t34 12t13 31q0 39 -49 39h-42v86z" />
    <glyph glyph-name="questiondown" unicode="&#xbf;" horiz-adv-x="447" 
d="M315 298v-60q0 -50 -13.5 -78.5t-52.5 -59.5l-40 -33q-44 -37 -44 -75q0 -26 17 -41t47 -15q33 0 54.5 15t54.5 62l109 -87q-42 -67 -92.5 -97t-123.5 -30q-95 0 -154 53.5t-59 139.5q0 49 20 87.5t68 82.5l44 41q12 12 15 18.5t4 24.5v52h146zM242 498q36 0 60.5 -24
t24.5 -59q0 -33 -25 -57t-60 -24t-59.5 24t-24.5 58t24.5 58t59.5 24z" />
    <glyph glyph-name="Agrave" unicode="&#xc0;" horiz-adv-x="649" 
d="M451 147h-253l-51 -147h-156l249 667h170l249 -667h-157zM403 284l-79 225l-78 -225h157zM146 854l132 65l136 -175l-96 -51z" />
    <glyph glyph-name="Aacute" unicode="&#xc1;" horiz-adv-x="649" 
d="M500 854l-171 -161l-96 51l136 175zM451 147h-253l-51 -147h-156l249 667h170l249 -667h-157zM403 284l-79 225l-78 -225h157z" />
    <glyph glyph-name="Acircumflex" unicode="&#xc2;" horiz-adv-x="649" 
d="M451 147h-253l-51 -147h-156l249 667h170l249 -667h-157zM403 284l-79 225l-78 -225h157zM238 694l-108 50l153 155h84l152 -155l-108 -50l-86 78z" />
    <glyph glyph-name="Atilde" unicode="&#xc3;" horiz-adv-x="649" 
d="M451 147h-253l-51 -147h-156l249 667h170l249 -667h-157zM403 284l-79 225l-78 -225h157zM376 881l118 -25q-4 -56 -21 -84q-12 -21 -36.5 -33.5t-53.5 -12.5q-39 0 -81 20q-10 6 -18 6q-5 0 -7 -5.5t-6 -28.5l-116 25q7 57 24 84q30 46 85 46q42 0 85 -24q12 -5 17 -5
q8 0 10 37z" />
    <glyph glyph-name="Adieresis" unicode="&#xc4;" horiz-adv-x="649" 
d="M451 147h-253l-51 -147h-156l249 667h170l249 -667h-157zM403 284l-79 225l-78 -225h157zM419 876q32 0 55 -22.5t23 -54.5q0 -31 -23 -53.5t-55 -22.5q-34 0 -56.5 22.5t-22.5 55.5q0 31 23.5 53t55.5 22zM231 876q32 0 55 -22.5t23 -54.5q0 -31 -23 -53.5t-55 -22.5
q-34 0 -56.5 22.5t-22.5 55.5q0 31 23.5 53t55.5 22z" />
    <glyph glyph-name="Aring" unicode="&#xc5;" horiz-adv-x="649" 
d="M325 910q50 0 85.5 -35t35.5 -84t-35.5 -84t-85.5 -35t-85.5 35t-35.5 86q0 47 36 82t85 35zM325 843q-22 0 -37 -15.5t-15 -37.5q0 -20 15.5 -35.5t36.5 -15.5q22 0 37 15t15 37t-15 37t-37 15zM451 147h-253l-51 -147h-156l249 667h170l249 -667h-157zM403 284l-79 225
l-78 -225h157z" />
    <glyph glyph-name="AE" unicode="&#xc6;" horiz-adv-x="851" 
d="M420 147h-187l-76 -147h-166l353 667h468v-136h-245v-125h218v-136h-218v-133h254v-137h-401v147zM420 284v215h-3l-112 -215h115z" />
    <glyph glyph-name="Ccedilla" unicode="&#xc7;" horiz-adv-x="674" 
d="M653 554l-105 -99q-44 50 -82 70.5t-86 20.5q-86 0 -145.5 -62t-59.5 -151q0 -88 60.5 -150t145.5 -62q48 0 86.5 21t83.5 71l105 -98q-65 -70 -129.5 -101t-143.5 -31q-148 0 -252.5 102.5t-104.5 247.5q0 146 104.5 248.5t252.5 102.5q78 0 142 -30.5t128 -99.5z
M465 -67l-142 -167l-103 47l117 171z" />
    <glyph glyph-name="Egrave" unicode="&#xc8;" horiz-adv-x="495" 
d="M456 667v-136h-245v-125h218v-136h-218v-133h254v-137h-401v667h392zM94 854l132 65l136 -175l-96 -51z" />
    <glyph glyph-name="Eacute" unicode="&#xc9;" horiz-adv-x="495" 
d="M456 667v-136h-245v-125h218v-136h-218v-133h254v-137h-401v667h392zM435 854l-172 -161l-96 51l137 175z" />
    <glyph glyph-name="Ecircumflex" unicode="&#xca;" horiz-adv-x="495" 
d="M456 667v-136h-245v-125h218v-136h-218v-133h254v-137h-401v667h392zM178 694l-108 50l153 155h84l152 -155l-108 -50l-86 78z" />
    <glyph glyph-name="Edieresis" unicode="&#xcb;" horiz-adv-x="495" 
d="M456 667v-136h-245v-125h218v-136h-218v-133h254v-137h-401v667h392zM359 876q32 0 55 -22.5t23 -54.5t-23 -54t-56 -22t-55.5 22.5t-22.5 55.5q0 31 23.5 53t55.5 22zM171 876q32 0 55 -22.5t23 -54.5q0 -31 -23 -53.5t-55 -22.5q-34 0 -56.5 22.5t-22.5 55.5
q0 31 23.5 53t55.5 22z" />
    <glyph glyph-name="Igrave" unicode="&#xcc;" horiz-adv-x="276" 
d="M212 667v-667h-148v667h148zM-49 854l131 65l137 -175l-96 -51z" />
    <glyph glyph-name="Iacute" unicode="&#xcd;" horiz-adv-x="276" 
d="M212 667v-667h-148v667h148zM318 854l-172 -161l-96 51l137 175z" />
    <glyph glyph-name="Icircumflex" unicode="&#xce;" horiz-adv-x="276" 
d="M212 667v-667h-148v667h148zM52 694l-108 50l152 155h85l152 -155l-108 -50l-87 78z" />
    <glyph glyph-name="Idieresis" unicode="&#xcf;" horiz-adv-x="276" 
d="M212 667v-667h-148v667h148zM52 876q32 0 55 -22.5t23 -53.5q0 -32 -23 -54.5t-55 -22.5q-34 0 -56.5 22.5t-22.5 55.5q0 31 23.5 53t55.5 22zM225 876q32 0 55 -22.5t23 -53.5q0 -32 -23 -54.5t-56 -22.5q-32 0 -55 23t-23 55q0 31 23.5 53t55.5 22z" />
    <glyph glyph-name="Eth" unicode="&#xd0;" horiz-adv-x="634" 
d="M77 424v243h164q167 0 267 -91t100 -243t-100 -242.5t-267 -90.5h-164v289h-61v135h61zM225 424h142v-135h-142v-152h19q101 0 158.5 52t57.5 143q0 92 -57.5 144.5t-158.5 52.5h-19v-105z" />
    <glyph glyph-name="Ntilde" unicode="&#xd1;" horiz-adv-x="708" 
d="M64 0v667h124l308 -405v405h148v-667h-124l-308 405v-405h-148zM412 881l118 -25q-4 -56 -21 -84q-26 -46 -90 -46q-39 0 -81 20q-11 6 -18 6q-5 0 -7 -5.5t-6 -28.5l-116 25q7 57 24 84q30 46 85 46q42 0 85 -24q12 -5 17 -5q8 0 10 37z" />
    <glyph glyph-name="Ograve" unicode="&#xd2;" horiz-adv-x="763" 
d="M204 854l132 65l136 -175l-96 -51zM381 684q147 0 251.5 -103t104.5 -248t-105 -247.5t-253 -102.5q-146 0 -249.5 104.5t-103.5 251.5q0 139 106 242t249 103zM380 546q-86 0 -145.5 -62.5t-59.5 -153.5q0 -85 61.5 -147t144.5 -62q85 0 146 62.5t61 149.5
q0 89 -60.5 151t-147.5 62z" />
    <glyph glyph-name="Oacute" unicode="&#xd3;" horiz-adv-x="763" 
d="M381 684q147 0 251.5 -103t104.5 -248t-105 -247.5t-253 -102.5q-146 0 -249.5 104.5t-103.5 251.5q0 139 106 242t249 103zM380 546q-86 0 -145.5 -62.5t-59.5 -153.5q0 -85 61.5 -147t144.5 -62q85 0 146 62.5t61 149.5q0 89 -60.5 151t-147.5 62zM559 854l-172 -161
l-96 51l137 175z" />
    <glyph glyph-name="Ocircumflex" unicode="&#xd4;" horiz-adv-x="763" 
d="M381 684q147 0 251.5 -103t104.5 -248t-105 -247.5t-253 -102.5q-146 0 -249.5 104.5t-103.5 251.5q0 139 106 242t249 103zM380 546q-86 0 -145.5 -62.5t-59.5 -153.5q0 -85 61.5 -147t144.5 -62q85 0 146 62.5t61 149.5q0 89 -60.5 151t-147.5 62zM295 694l-108 50
l152 155h85l152 -155l-108 -50l-87 78z" />
    <glyph glyph-name="Otilde" unicode="&#xd5;" horiz-adv-x="763" 
d="M381 684q147 0 251.5 -103t104.5 -248t-105 -247.5t-253 -102.5q-146 0 -249.5 104.5t-103.5 251.5q0 139 106 242t249 103zM380 546q-86 0 -145.5 -62.5t-59.5 -153.5q0 -85 61.5 -147t144.5 -62q85 0 146 62.5t61 149.5q0 89 -60.5 151t-147.5 62zM433 881l118 -25
q-4 -56 -21 -84q-28 -46 -90 -46q-39 0 -81 20q-11 6 -19 6q-4 0 -6 -5.5t-7 -28.5l-115 25q5 54 24 84q28 46 85 46q40 0 85 -24q10 -5 16 -5q8 0 11 37z" />
    <glyph glyph-name="Odieresis" unicode="&#xd6;" horiz-adv-x="763" 
d="M381 684q147 0 251.5 -103t104.5 -248t-105 -247.5t-253 -102.5q-146 0 -249.5 104.5t-103.5 251.5q0 139 106 242t249 103zM380 546q-86 0 -145.5 -62.5t-59.5 -153.5q0 -85 61.5 -147t144.5 -62q85 0 146 62.5t61 149.5q0 89 -60.5 151t-147.5 62zM476 876
q32 0 55 -22.5t23 -54.5t-23 -54t-56 -22t-55.5 22.5t-22.5 55.5q0 31 23.5 53t55.5 22zM288 876q32 0 55 -22.5t23 -54.5q0 -31 -23 -53.5t-55 -22.5q-34 0 -56.5 22.5t-22.5 55.5q0 31 23.5 53t55.5 22z" />
    <glyph glyph-name="multiply" unicode="&#xd7;" horiz-adv-x="556" 
d="M186 312l-141 141l92 92l141 -141l141 141l92 -92l-141 -141l141 -141l-92 -92l-141 141l-141 -141l-92 92z" />
    <glyph glyph-name="Oslash" unicode="&#xd8;" horiz-adv-x="771" 
d="M732 592l-58 -56q67 -91 67 -203q0 -144 -104.5 -247t-250.5 -103q-119 0 -210 69l-57 -55l-81 78l58 56q-66 94 -66 202q0 145 104.5 248t252.5 103q108 0 208 -69l57 55zM568 433l-288 -281q51 -31 106 -31q85 0 145.5 62.5t60.5 149.5q0 52 -24 100zM203 234l289 281
q-49 31 -106 31q-86 0 -146.5 -62t-60.5 -151q0 -54 24 -99z" />
    <glyph glyph-name="Ugrave" unicode="&#xd9;" horiz-adv-x="645" 
d="M212 667v-408q0 -68 13 -90q12 -21 39.5 -34.5t57.5 -13.5t58 14t40 34q13 22 13 90v408h148v-426q0 -84 -30 -135q-33 -56 -94.5 -89.5t-133.5 -33.5t-134 33.5t-95 89.5q-30 51 -30 135v426h148zM145 854l131 65l137 -175l-97 -51z" />
    <glyph glyph-name="Uacute" unicode="&#xda;" horiz-adv-x="645" 
d="M212 667v-408q0 -68 13 -90q12 -21 39.5 -34.5t57.5 -13.5t58 14t40 34q13 22 13 90v408h148v-426q0 -84 -30 -135q-33 -56 -94.5 -89.5t-133.5 -33.5t-134 33.5t-95 89.5q-30 51 -30 135v426h148zM500 854l-172 -161l-96 51l137 175z" />
    <glyph glyph-name="Ucircumflex" unicode="&#xdb;" horiz-adv-x="645" 
d="M212 667v-408q0 -68 13 -90q12 -21 39.5 -34.5t57.5 -13.5t58 14t40 34q13 22 13 90v408h148v-426q0 -84 -30 -135q-33 -56 -94.5 -89.5t-133.5 -33.5t-134 33.5t-95 89.5q-30 51 -30 135v426h148zM236 694l-108 50l152 155h85l152 -155l-108 -50l-87 78z" />
    <glyph glyph-name="Udieresis" unicode="&#xdc;" horiz-adv-x="645" 
d="M212 667v-408q0 -68 13 -90q12 -21 39.5 -34.5t57.5 -13.5t58 14t40 34q13 22 13 90v408h148v-426q0 -84 -30 -135q-33 -56 -94.5 -89.5t-133.5 -33.5t-134 33.5t-95 89.5q-30 51 -30 135v426h148zM417 876q32 0 55 -22.5t23 -54.5q0 -31 -23 -53.5t-55 -22.5
q-34 0 -56.5 22.5t-22.5 55.5q0 31 23.5 53t55.5 22zM229 876q32 0 55 -22.5t23 -54.5t-23 -54t-56 -22t-55.5 22.5t-22.5 55.5q0 31 23.5 53t55.5 22z" />
    <glyph glyph-name="Yacute" unicode="&#xdd;" horiz-adv-x="565" 
d="M208 275l-224 392h166l132 -239l133 239h165l-224 -392v-275h-148v275zM460 854l-172 -161l-96 51l137 175z" />
    <glyph glyph-name="Thorn" unicode="&#xde;" horiz-adv-x="482" 
d="M212 586h16q95 0 146 -30q48 -27 75.5 -77t27.5 -110q0 -59 -28 -109.5t-75 -78.5q-53 -30 -146 -30h-16v-151h-148v667h148v-81zM211 451v-165h26q51 0 74 19.5t23 63.5q0 43 -23 62.5t-74 19.5h-26z" />
    <glyph glyph-name="germandbls" unicode="&#xdf;" horiz-adv-x="534" 
d="M218 0v129h51q43 0 68.5 23.5t25.5 62.5q0 77 -96 77h-29v127h29q52 0 52 65q0 35 -17 54.5t-48 19.5t-48 -19.5t-17 -54.5v-484h-142v484q0 86 57.5 143t144.5 57q92 0 150.5 -55.5t58.5 -142.5q0 -57 -38 -110q85 -61 85 -165q0 -93 -66.5 -152t-172.5 -59h-48z" />
    <glyph glyph-name="agrave" unicode="&#xe0;" horiz-adv-x="543" 
d="M496 0h-143v22q-53 -39 -111 -39q-93 0 -158.5 70t-65.5 169t65.5 168.5t158.5 69.5q58 0 111 -39v22h143v-443zM257 332q-43 0 -69.5 -31t-26.5 -81q0 -48 27.5 -78.5t70.5 -30.5q44 0 70 30.5t26 81.5q0 49 -27 79t-71 30zM81 645l131 65l136 -174l-96 -51z" />
    <glyph glyph-name="aacute" unicode="&#xe1;" horiz-adv-x="543" 
d="M441 645l-172 -160l-96 50l137 175zM496 0h-143v22q-53 -39 -111 -39q-93 0 -158.5 70t-65.5 169t65.5 168.5t158.5 69.5q58 0 111 -39v22h143v-443zM257 332q-43 0 -69.5 -31t-26.5 -81q0 -48 27.5 -78.5t70.5 -30.5q44 0 70 30.5t26 81.5q0 49 -27 79t-71 30z" />
    <glyph glyph-name="acircumflex" unicode="&#xe2;" horiz-adv-x="543" 
d="M496 0h-143v22q-53 -39 -111 -39q-93 0 -158.5 70t-65.5 169t65.5 168.5t158.5 69.5q58 0 111 -39v22h143v-443zM257 332q-43 0 -69.5 -31t-26.5 -81q0 -48 27.5 -78.5t70.5 -30.5q44 0 70 30.5t26 81.5q0 49 -27 79t-71 30zM344 486l-86 81l-87 -81l-107 49l152 155h84
l151 -155z" />
    <glyph glyph-name="atilde" unicode="&#xe3;" horiz-adv-x="543" 
d="M496 0h-143v22q-53 -39 -111 -39q-93 0 -158.5 70t-65.5 169t65.5 168.5t158.5 69.5q58 0 111 -39v22h143v-443zM257 332q-43 0 -69.5 -31t-26.5 -81q0 -48 27.5 -78.5t70.5 -30.5q44 0 70 30.5t26 81.5q0 49 -27 79t-71 30zM309 673l118 -26q-4 -55 -21 -83
q-28 -46 -90 -46q-39 0 -81 20q-11 6 -19 6q-7 0 -12 -34l-116 25q5 54 24 84q30 46 85 46q42 0 85 -24q12 -5 16 -5q9 0 11 37z" />
    <glyph glyph-name="adieresis" unicode="&#xe4;" horiz-adv-x="543" 
d="M496 0h-143v22q-53 -39 -111 -39q-93 0 -158.5 70t-65.5 169t65.5 168.5t158.5 69.5q58 0 111 -39v22h143v-443zM257 332q-43 0 -69.5 -31t-26.5 -81q0 -48 27.5 -78.5t70.5 -30.5q44 0 70 30.5t26 81.5q0 49 -27 79t-71 30zM361 673q32 0 55 -22.5t23 -53.5
q0 -32 -23 -54.5t-55 -22.5q-34 0 -56.5 22.5t-22.5 55.5q0 31 23.5 53t55.5 22zM172 673q32 0 55 -22.5t23 -53.5q0 -32 -23 -54.5t-55 -22.5q-33 0 -56 22.5t-23 55.5q0 31 23.5 53t55.5 22z" />
    <glyph glyph-name="aring" unicode="&#xe5;" horiz-adv-x="543" 
d="M269 710q50 0 85.5 -35t35.5 -84q0 -50 -35.5 -84.5t-86.5 -34.5q-50 0 -85 35.5t-35 85.5q0 47 36 82t85 35zM269 643q-22 0 -37 -15.5t-15 -37.5q0 -20 15.5 -35.5t36.5 -15.5q22 0 37 15t15 37t-15 37t-37 15zM496 0h-143v22q-53 -39 -111 -39q-93 0 -158.5 70
t-65.5 169t65.5 168.5t158.5 69.5q58 0 111 -39v22h143v-443zM257 332q-43 0 -69.5 -31t-26.5 -81q0 -48 27.5 -78.5t70.5 -30.5q44 0 70 30.5t26 81.5q0 49 -27 79t-71 30z" />
    <glyph glyph-name="ae" unicode="&#xe6;" horiz-adv-x="786" 
d="M98 293l-74 92q57 41 105.5 58.5t107.5 17.5q103 0 158 -55q64 55 145 55q100 0 164 -70t64 -178q0 -19 -2 -38h-309q24 -68 88 -68q55 0 84 45l127 -49q-77 -120 -211 -120q-83 0 -147 52q-56 -52 -161 -52q-98 0 -158 43.5t-60 113.5q0 66 55 104.5t149 38.5h82
q-19 55 -74 55q-63 0 -133 -45zM458 268h169q-21 70 -85 70q-67 0 -84 -70zM312 189h-76q-77 0 -77 -42q0 -43 76 -43q77 0 77 50v35z" />
    <glyph glyph-name="ccedilla" unicode="&#xe7;" horiz-adv-x="457" 
d="M343 -67l-142 -167l-103 47l117 171zM448 376l-87 -96q-30 30 -51 41t-48 11q-46 0 -73 -30t-27 -80q0 -51 27 -81t73 -30q55 0 101 56l88 -97q-84 -87 -189 -87q-103 0 -173 69t-70 170q0 100 70 169t172 69q103 0 187 -84z" />
    <glyph glyph-name="egrave" unicode="&#xe8;" horiz-adv-x="494" 
d="M75 644l131 66l137 -175l-96 -51zM336 152l127 -49q-78 -120 -209 -120q-100 0 -167.5 68.5t-67.5 169.5q0 100 66.5 169t163.5 69q98 0 162 -70t64 -177q0 -19 -1 -37h-309q12 -36 32.5 -52t54.5 -16q56 0 84 45zM165 268h169q-12 36 -31.5 52t-52.5 16q-66 0 -85 -68z
" />
    <glyph glyph-name="eacute" unicode="&#xe9;" horiz-adv-x="494" 
d="M419 644l-172 -160l-96 51l137 175zM336 152l127 -49q-78 -120 -209 -120q-100 0 -167.5 68.5t-67.5 169.5q0 100 66.5 169t163.5 69q98 0 162 -70t64 -177q0 -19 -1 -37h-309q12 -36 32.5 -52t54.5 -16q56 0 84 45zM165 268h169q-12 36 -31.5 52t-52.5 16q-66 0 -85 -68
z" />
    <glyph glyph-name="ecircumflex" unicode="&#xea;" horiz-adv-x="494" 
d="M336 152l127 -49q-78 -120 -209 -120q-100 0 -167.5 68.5t-67.5 169.5q0 100 66.5 169t163.5 69q98 0 162 -70t64 -177q0 -19 -1 -37h-309q12 -36 32.5 -52t54.5 -16q56 0 84 45zM165 268h169q-12 36 -31.5 52t-52.5 16q-66 0 -85 -68zM333 486l-86 81l-87 -81l-107 49
l152 155h84l151 -155z" />
    <glyph glyph-name="edieresis" unicode="&#xeb;" horiz-adv-x="494" 
d="M336 152l127 -49q-78 -120 -209 -120q-100 0 -167.5 68.5t-67.5 169.5q0 100 66.5 169t163.5 69q98 0 162 -70t64 -177q0 -19 -1 -37h-309q12 -36 32.5 -52t54.5 -16q56 0 84 45zM165 268h169q-12 36 -31.5 52t-52.5 16q-66 0 -85 -68zM342 673q32 0 55 -22.5t23 -53.5
q0 -32 -23 -54.5t-55 -22.5q-33 0 -56 22.5t-23 55.5q0 31 23.5 53t55.5 22zM153 673q32 0 55 -22.5t23 -53.5q0 -32 -23 -54.5t-55 -22.5q-33 0 -56 22.5t-23 55.5q0 31 23.5 53t55.5 22z" />
    <glyph glyph-name="igrave" unicode="&#xec;" horiz-adv-x="238" 
d="M-64 644l131 66l137 -175l-96 -51zM190 443v-443h-142v443h142z" />
    <glyph glyph-name="iacute" unicode="&#xed;" horiz-adv-x="238" 
d="M302 644l-172 -160l-96 51l137 175zM190 443v-443h-142v443h142z" />
    <glyph glyph-name="icircumflex" unicode="&#xee;" horiz-adv-x="238" 
d="M190 443v-443h-142v443h142zM205 486l-86 81l-87 -81l-107 49l152 155h84l151 -155z" />
    <glyph glyph-name="idieresis" unicode="&#xef;" horiz-adv-x="238" 
d="M190 443v-443h-142v443h142zM205 673q32 0 55 -22.5t23 -53.5q0 -32 -23 -54.5t-55 -22.5q-33 0 -56 22.5t-23 55.5q0 31 23.5 53t55.5 22zM32 673q32 0 55 -22.5t23 -53.5q0 -32 -23 -54.5t-55 -22.5q-34 0 -56.5 22.5t-22.5 55.5q0 31 23.5 53t55.5 22z" />
    <glyph glyph-name="eth" unicode="&#xf0;" horiz-adv-x="521" 
d="M463 656l-92 -47q52 -63 81 -126q51 -114 51 -232q0 -140 -81 -209q-70 -59 -162 -59q-101 0 -171 69.5t-70 169.5q0 99 69.5 168.5t168.5 69.5q34 0 70 -10l-1 2l-1 1q-46 66 -74 95l-97 -49l-93 83l70 35q-34 13 -88 29l69 101q89 -23 160 -60l104 52zM259 332
q-43 0 -70 -30.5t-27 -79.5q0 -50 27 -80.5t71 -30.5t71 30.5t27 80.5t-27 80t-72 30z" />
    <glyph glyph-name="ntilde" unicode="&#xf1;" horiz-adv-x="511" 
d="M189 443v-18q43 35 98 35q46 0 85.5 -23t62.5 -62q28 -49 28 -135v-240h-142v233q0 57 -13 78t-48 21q-44 0 -59 -28q-12 -20 -12 -80v-224h-142v443h142zM310 673l118 -26q-5 -58 -21 -83q-28 -46 -90 -46q-41 0 -81 20q-10 6 -19 6q-7 0 -13 -34l-115 25q5 54 24 84
q28 46 85 46q42 0 85 -24q10 -5 16 -5q8 0 11 37z" />
    <glyph glyph-name="ograve" unicode="&#xf2;" horiz-adv-x="520" 
d="M84 645l130 65l136 -174l-95 -51zM264 460q98 0 167.5 -69.5t69.5 -168.5q0 -100 -70 -169.5t-171 -69.5q-102 0 -171.5 69.5t-69.5 171.5q0 100 70.5 168t174.5 68zM258 332q-43 0 -69.5 -31t-26.5 -81q0 -49 27 -79t71 -30t71 30.5t27 81.5q0 50 -27 79.5t-73 29.5z
" />
    <glyph glyph-name="oacute" unicode="&#xf3;" horiz-adv-x="520" 
d="M436 645l-171 -160l-95 51l136 174zM264 460q98 0 167.5 -69.5t69.5 -168.5q0 -100 -70 -169.5t-171 -69.5q-102 0 -171.5 69.5t-69.5 171.5q0 100 70.5 168t174.5 68zM258 332q-43 0 -69.5 -31t-26.5 -81q0 -49 27 -79t71 -30t71 30.5t27 81.5q0 50 -27 79.5t-73 29.5z
" />
    <glyph glyph-name="ocircumflex" unicode="&#xf4;" horiz-adv-x="520" 
d="M346 486l-86 81l-86 -81l-108 49l152 155h84l152 -155zM264 460q98 0 167.5 -69.5t69.5 -168.5q0 -100 -70 -169.5t-171 -69.5q-102 0 -171.5 69.5t-69.5 171.5q0 100 70.5 168t174.5 68zM258 332q-43 0 -69.5 -31t-26.5 -81q0 -49 27 -79t71 -30t71 30.5t27 81.5
q0 50 -27 79.5t-73 29.5z" />
    <glyph glyph-name="otilde" unicode="&#xf5;" horiz-adv-x="520" 
d="M311 673l118 -26q-4 -55 -20 -83q-28 -46 -91 -46q-39 0 -81 20q-10 6 -18 6q-5 0 -7 -5.5t-6 -28.5l-115 25q5 57 24 84q13 21 36 33.5t48 12.5q41 0 86 -24q10 -5 16 -5q5 0 6.5 6.5t3.5 30.5zM264 460q98 0 167.5 -69.5t69.5 -168.5q0 -100 -70 -169.5t-171 -69.5
q-102 0 -171.5 69.5t-69.5 171.5q0 100 70.5 168t174.5 68zM258 332q-43 0 -69.5 -31t-26.5 -81q0 -49 27 -79t71 -30t71 30.5t27 81.5q0 50 -27 79.5t-73 29.5z" />
    <glyph glyph-name="odieresis" unicode="&#xf6;" horiz-adv-x="520" 
d="M264 460q98 0 167.5 -69.5t69.5 -168.5q0 -100 -70 -169.5t-171 -69.5q-102 0 -171.5 69.5t-69.5 171.5q0 100 70.5 168t174.5 68zM258 332q-43 0 -69.5 -31t-26.5 -81q0 -49 27 -79t71 -30t71 30.5t27 81.5q0 50 -27 79.5t-73 29.5zM353 673q33 0 56 -22t23 -54
t-23 -54.5t-55 -22.5q-33 0 -56 22.5t-23 55.5q0 31 23 53t55 22zM165 673q33 0 56 -22t23 -54t-23 -54.5t-55 -22.5q-33 0 -56 22.5t-23 55.5q0 31 23 53t55 22z" />
    <glyph glyph-name="divide" unicode="&#xf7;" horiz-adv-x="556" 
d="M525 377v-129h-495v129h495zM278 578q35 0 60.5 -25.5t25.5 -60.5q0 -36 -25.5 -61.5t-61.5 -25.5q-35 0 -60.5 25.5t-25.5 60.5q0 37 25.5 62t61.5 25zM279 218q34 0 59.5 -25.5t25.5 -60.5q0 -36 -25.5 -61.5t-61.5 -25.5q-35 0 -60.5 25.5t-25.5 61.5q0 35 25.5 60.5
t62.5 25.5z" />
    <glyph glyph-name="oslash" unicode="&#xf8;" horiz-adv-x="533" 
d="M26 64l35 32q-35 59 -35 125q0 101 69.5 170t171.5 69q80 0 140 -43l31 30l70 -68l-35 -32q35 -61 35 -125q0 -101 -70 -170t-172 -69q-74 0 -139 43l-31 -29zM171 198l136 127q-19 8 -41 8q-44 0 -71 -31t-27 -80q0 -14 3 -24zM363 245l-136 -127q21 -8 40 -8
q44 0 71.5 31.5t27.5 83.5q0 13 -3 20z" />
    <glyph glyph-name="ugrave" unicode="&#xf9;" horiz-adv-x="511" 
d="M80 644l131 66l137 -175l-96 -51zM321 0v18q-43 -35 -98 -35q-46 0 -85.5 23t-62.5 62q-28 49 -28 135v240h142v-233q0 -56 13.5 -77.5t48.5 -21.5q43 0 58 28q12 20 12 80v224h142v-443h-142z" />
    <glyph glyph-name="uacute" unicode="&#xfa;" horiz-adv-x="511" 
d="M427 644l-171 -160l-96 51l136 175zM321 0v18q-43 -35 -98 -35q-46 0 -85.5 23t-62.5 62q-28 49 -28 135v240h142v-233q0 -56 13.5 -77.5t48.5 -21.5q43 0 58 28q12 20 12 80v224h142v-443h-142z" />
    <glyph glyph-name="ucircumflex" unicode="&#xfb;" horiz-adv-x="511" 
d="M321 0v18q-43 -35 -98 -35q-46 0 -85.5 23t-62.5 62q-28 49 -28 135v240h142v-233q0 -56 13.5 -77.5t48.5 -21.5q43 0 58 28q12 20 12 80v224h142v-443h-142zM342 486l-87 81l-86 -81l-108 49l152 155h84l152 -155z" />
    <glyph glyph-name="udieresis" unicode="&#xfc;" horiz-adv-x="511" 
d="M321 0v18q-43 -35 -98 -35q-46 0 -85.5 23t-62.5 62q-28 49 -28 135v240h142v-233q0 -56 13.5 -77.5t48.5 -21.5q43 0 58 28q12 20 12 80v224h142v-443h-142zM350 673q32 0 55 -22.5t23 -53.5q0 -32 -23 -54.5t-55 -22.5q-33 0 -56 22.5t-23 55.5q0 31 23.5 53t55.5 22z
M161 673q32 0 55 -22.5t23 -53.5q0 -32 -23 -54.5t-55 -22.5q-34 0 -56.5 22.5t-22.5 55.5q0 31 23.5 53t55.5 22z" />
    <glyph glyph-name="yacute" unicode="&#xfd;" horiz-adv-x="475" 
d="M153 23l-168 420h150l96 -246l110 246h150l-303 -677h-150zM412 644l-171 -160l-96 51l136 175z" />
    <glyph glyph-name="thorn" unicode="&#xfe;" horiz-adv-x="544" 
d="M48 667h142v-245q53 38 111 38q93 0 158.5 -70t65.5 -169t-65.5 -168.5t-158.5 -69.5q-57 0 -111 39v-256h-142v901zM285 332q-43 0 -69.5 -30.5t-26.5 -80.5t26.5 -80t69.5 -30t70 30.5t27 79.5q0 50 -27 80.5t-70 30.5z" />
    <glyph glyph-name="ydieresis" unicode="&#xff;" horiz-adv-x="475" 
d="M153 23l-168 420h150l96 -246l110 246h150l-303 -677h-150zM332 673q32 0 55 -22.5t23 -53.5q0 -32 -23 -54.5t-55 -22.5q-34 0 -56.5 22.5t-22.5 55.5q0 31 23.5 53t55.5 22zM144 673q32 0 55 -22.5t23 -53.5q0 -32 -23 -54.5t-55 -22.5q-33 0 -56 22.5t-23 55.5
q0 31 23.5 53t55.5 22z" />
    <glyph glyph-name="Amacron" unicode="&#x100;" horiz-adv-x="649" 
d="M451 147h-253l-51 -147h-156l249 667h170l249 -667h-157zM403 284l-79 225l-78 -225h157zM157 858h336v-117h-336v117z" />
    <glyph glyph-name="amacron" unicode="&#x101;" horiz-adv-x="543" 
d="M496 0h-143v22q-53 -39 -111 -39q-93 0 -158.5 70t-65.5 169t65.5 168.5t158.5 69.5q58 0 111 -39v22h143v-443zM257 332q-43 0 -69.5 -31t-26.5 -81q0 -48 27.5 -78.5t70.5 -30.5q44 0 70 30.5t26 81.5q0 49 -27 79t-71 30zM102 649h336v-117h-336v117z" />
    <glyph glyph-name="Abreve" unicode="&#x102;" horiz-adv-x="649" 
d="M451 147h-253l-51 -147h-156l249 667h170l249 -667h-157zM403 284l-79 225l-78 -225h157zM160 878l122 9q2 -49 10 -60q11 -13 30 -13q23 0 32 17q6 11 13 56l123 -9q-6 -49 -8.5 -60.5t-11.5 -28.5q-22 -43 -60.5 -66t-86.5 -23q-54 0 -96.5 28t-59.5 75q-6 17 -7 75z
" />
    <glyph glyph-name="abreve" unicode="&#x103;" horiz-adv-x="543" 
d="M496 0h-143v22q-53 -39 -111 -39q-93 0 -158.5 70t-65.5 169t65.5 168.5t158.5 69.5q58 0 111 -39v22h143v-443zM257 332q-43 0 -69.5 -31t-26.5 -81q0 -48 27.5 -78.5t70.5 -30.5q44 0 70 30.5t26 81.5q0 49 -27 79t-71 30zM95 669l123 10q2 -48 9.5 -62.5t30.5 -14.5
q24 0 35 23q2 4 10 53l123 -9q-6 -47 -8.5 -59t-11.5 -30q-22 -42 -60.5 -65.5t-87.5 -23.5q-54 0 -96 28t-59 75q-6 16 -8 75z" />
    <glyph glyph-name="Aogonek" unicode="&#x104;" horiz-adv-x="649" 
d="M410 667l249 -667q-28 -35 -28 -53q0 -7 7 -7q13 0 36 12l43 -101q-71 -24 -104 -24q-53 0 -88 29t-35 73q0 33 26 71h-14l-51 147h-253l-51 -147h-156l249 667h170zM403 284l-79 225l-78 -225h157z" />
    <glyph glyph-name="aogonek" unicode="&#x105;" horiz-adv-x="543" 
d="M496 443v-443q-28 -36 -28 -53q0 -7 8 -7q12 0 36 12l42 -101q-71 -24 -103 -24q-54 0 -89 29t-35 73q0 33 26 71v22q-53 -39 -111 -39q-93 0 -158.5 70t-65.5 169t65.5 168.5t158.5 69.5q58 0 111 -39v22h143zM258 332q-43 0 -70 -30.5t-27 -79.5q0 -50 27 -80.5
t71 -30.5q43 0 69.5 30.5t26.5 80.5t-26.5 80t-70.5 30z" />
    <glyph glyph-name="Cacute" unicode="&#x106;" horiz-adv-x="674" 
d="M653 554l-105 -99q-44 50 -82 70.5t-86 20.5q-86 0 -145.5 -62t-59.5 -151q0 -88 60.5 -150t145.5 -62q48 0 86.5 21t83.5 71l105 -98q-65 -70 -129.5 -101t-143.5 -31q-148 0 -252.5 102.5t-104.5 247.5q0 146 104.5 248.5t252.5 102.5q78 0 142 -30.5t128 -99.5z
M557 854l-172 -161l-96 51l137 175z" />
    <glyph glyph-name="cacute" unicode="&#x107;" horiz-adv-x="457" 
d="M423 644l-171 -160l-96 51l136 175zM448 376l-87 -96q-30 30 -51 41t-48 11q-46 0 -73 -30t-27 -80q0 -51 27 -81t73 -30q55 0 101 56l88 -97q-84 -87 -189 -87q-103 0 -173 69t-70 170q0 100 70 169t172 69q103 0 187 -84z" />
    <glyph glyph-name="Ccircumflex" unicode="&#x108;" horiz-adv-x="674" 
d="M653 554l-105 -99q-44 50 -82 70.5t-86 20.5q-86 0 -145.5 -62t-59.5 -151q0 -88 60.5 -150t145.5 -62q48 0 86.5 21t83.5 71l105 -98q-65 -70 -129.5 -101t-143.5 -31q-148 0 -252.5 102.5t-104.5 247.5q0 146 104.5 248.5t252.5 102.5q78 0 142 -30.5t128 -99.5z
M284 694l-108 50l153 155h84l152 -155l-108 -50l-86 78z" />
    <glyph glyph-name="ccircumflex" unicode="&#x109;" horiz-adv-x="457" 
d="M448 376l-87 -96q-30 30 -50.5 41t-48.5 11q-46 0 -73 -30t-27 -80q0 -51 27 -81t73 -30q29 0 51.5 12.5t49.5 43.5l88 -97q-47 -47 -90.5 -67t-98.5 -20q-103 0 -173 69t-70 170q0 100 70 169t172 69q54 0 96 -19t91 -65zM335 486l-87 81l-86 -81l-107 49l151 155h84
l152 -155z" />
    <glyph glyph-name="Cdotaccent" unicode="&#x10a;" horiz-adv-x="674" 
d="M653 554l-105 -99q-44 50 -82 70.5t-86 20.5q-86 0 -145.5 -62t-59.5 -151q0 -88 60.5 -150t145.5 -62q48 0 86.5 21t83.5 71l105 -98q-65 -70 -129.5 -101t-143.5 -31q-148 0 -252.5 102.5t-104.5 247.5q0 146 104.5 248.5t252.5 102.5q78 0 142 -30.5t128 -99.5z
M378 881q35 0 60 -24t25 -58t-25 -58t-60 -24t-59.5 24t-24.5 59q0 33 25 57t59 24z" />
    <glyph glyph-name="cdotaccent" unicode="&#x10b;" horiz-adv-x="457" 
d="M448 376l-87 -96q-30 30 -51 41t-48 11q-46 0 -73 -30t-27 -80q0 -51 27 -81t73 -30q55 0 101 56l88 -97q-84 -87 -189 -87q-103 0 -173 69t-70 170q0 100 70 169t172 69q103 0 187 -84zM251 678q35 0 60 -24t25 -58t-25 -58t-60 -24t-59.5 24t-24.5 59q0 33 25 57t59 24
z" />
    <glyph glyph-name="Ccaron" unicode="&#x10c;" horiz-adv-x="674" 
d="M653 554l-105 -99q-44 50 -82 70.5t-86 20.5q-86 0 -145.5 -62t-59.5 -151q0 -88 60.5 -150t145.5 -62q48 0 86.5 21t83.5 71l105 -98q-65 -70 -129.5 -101t-143.5 -31q-148 0 -252.5 102.5t-104.5 247.5q0 146 104.5 248.5t252.5 102.5q78 0 142 -30.5t128 -99.5z
M284 902l87 -78l86 78l108 -50l-152 -155h-84l-153 155z" />
    <glyph glyph-name="ccaron" unicode="&#x10d;" horiz-adv-x="455" 
d="M448 376l-87 -96q-30 30 -51 41t-48 11q-46 0 -73 -30t-27 -80q0 -51 27 -81t73 -30q55 0 101 56l88 -97q-84 -87 -189 -87q-103 0 -173 69t-70 170q0 100 70 169t172 69q103 0 187 -84zM335 702l107 -49l-152 -155h-84l-151 155l107 49l86 -82z" />
    <glyph glyph-name="Dcaron" unicode="&#x10e;" horiz-adv-x="621" 
d="M64 667h164q167 0 267 -90.5t100 -242.5t-100 -243t-267 -91h-164v667zM212 530v-393h19q101 0 158.5 52.5t57.5 143.5q0 92 -57.5 144.5t-158.5 52.5h-19zM205 902l87 -78l86 78l108 -50l-152 -155h-84l-153 155z" />
    <glyph glyph-name="dcaron" unicode="&#x10f;" horiz-adv-x="696" 
d="M496 0h-142v22q-52 -39 -111 -39q-93 0 -158.5 70t-65.5 169t65.5 168.5t158.5 69.5q58 0 111 -38v245h142v-667zM258 332q-43 0 -69.5 -31t-26.5 -81q0 -48 27 -78.5t70 -30.5q44 0 70 30.5t26 81.5q0 50 -26.5 79.5t-70.5 29.5zM585 709l133 -38l-91 -195l-106 30z" />
    <glyph glyph-name="Dcroat" unicode="&#x110;" horiz-adv-x="634" 
d="M77 424v243h164q167 0 267 -91t100 -243t-100 -242.5t-267 -90.5h-164v289h-61v135h61zM225 424h142v-135h-142v-152h19q101 0 158.5 52t57.5 143q0 92 -57.5 144.5t-158.5 52.5h-19v-105z" />
    <glyph glyph-name="dcroat" unicode="&#x111;" horiz-adv-x="547" 
d="M354 492h-107v122h107v53h142v-53h54v-122h-54v-492h-142v22q-52 -39 -111 -39q-93 0 -158.5 70t-65.5 169t65.5 168.5t158.5 69.5q58 0 111 -38v70zM258 332q-43 0 -69.5 -31t-26.5 -81q0 -48 27 -78.5t70 -30.5q44 0 70 30.5t26 81.5q0 50 -26.5 79.5t-70.5 29.5z" />
    <glyph glyph-name="Emacron" unicode="&#x112;" horiz-adv-x="495" 
d="M456 667v-136h-245v-125h218v-136h-218v-133h254v-137h-401v667h392zM97 858h336v-117h-336v117z" />
    <glyph glyph-name="emacron" unicode="&#x113;" horiz-adv-x="494" 
d="M336 152l127 -49q-78 -120 -209 -120q-100 0 -167.5 68.5t-67.5 169.5q0 100 66.5 169t163.5 69q98 0 162 -70t64 -177q0 -19 -1 -37h-309q12 -36 32.5 -52t54.5 -16q56 0 84 45zM165 268h169q-12 36 -31.5 52t-52.5 16q-66 0 -85 -68zM79 649h336v-117h-336v117z" />
    <glyph glyph-name="Ebreve" unicode="&#x114;" horiz-adv-x="495" 
d="M456 667v-136h-245v-125h218v-136h-218v-133h254v-137h-401v667h392zM99 878l123 9q2 -49 10 -60q10 -13 30 -13q23 0 32 17q6 11 13 56l123 -9q-6 -47 -8.5 -59t-11.5 -30q-22 -43 -60.5 -66t-87.5 -23q-54 0 -96 28t-59 75q-6 16 -8 75z" />
    <glyph glyph-name="ebreve" unicode="&#x115;" horiz-adv-x="494" 
d="M336 152l127 -49q-78 -120 -209 -120q-100 0 -167.5 68.5t-67.5 169.5q0 100 66.5 169t163.5 69q98 0 162 -70t64 -177q0 -19 -1 -37h-309q12 -36 32.5 -52t54.5 -16q56 0 84 45zM165 268h169q-12 36 -31.5 52t-52.5 16q-66 0 -85 -68zM82 669l123 10q1 -48 8.5 -62.5
t30.5 -14.5q24 0 35 23q4 9 10 53l123 -9q-6 -49 -8.5 -60.5t-11.5 -28.5q-46 -89 -147 -89q-54 0 -96.5 28.5t-58.5 74.5q-7 20 -8 75z" />
    <glyph glyph-name="Edotaccent" unicode="&#x116;" horiz-adv-x="495" 
d="M456 667v-136h-245v-125h218v-136h-218v-133h254v-137h-401v667h392zM264 881q35 0 60 -24t25 -58t-24.5 -58t-59.5 -24q-36 0 -60.5 24t-24.5 59q0 33 25 57t59 24z" />
    <glyph glyph-name="edotaccent" unicode="&#x117;" horiz-adv-x="494" 
d="M336 152l127 -49q-78 -120 -209 -120q-100 0 -167.5 68.5t-67.5 169.5q0 100 66.5 169t163.5 69q98 0 162 -70t64 -177q0 -19 -1 -37h-309q12 -36 32.5 -52t54.5 -16q56 0 84 45zM165 268h169q-12 36 -31.5 52t-52.5 16q-66 0 -85 -68zM246 678q35 0 60 -24t25 -58
t-25 -58t-60 -24t-59.5 24t-24.5 59q0 33 25 57t59 24z" />
    <glyph glyph-name="Eogonek" unicode="&#x118;" horiz-adv-x="495" 
d="M465 137v-137q-28 -36 -28 -53q0 -7 8 -7q12 0 36 12l42 -101q-71 -24 -103 -24q-54 0 -89 29t-35 73q0 33 27 71h-259v667h392v-136h-245v-125h218v-136h-218v-133h254z" />
    <glyph glyph-name="eogonek" unicode="&#x119;" horiz-adv-x="494" 
d="M336 152l127 -49q-56 -91 -147 -112q-21 -30 -21 -44q0 -7 7 -7q13 0 36 11l43 -100q-70 -24 -104 -24q-53 0 -88 29t-35 73q0 31 23 66q-71 24 -114.5 85.5t-43.5 140.5q0 100 66.5 169t163.5 69q98 0 162 -70t64 -177q0 -18 -1 -37h-309q12 -36 32.5 -52t54.5 -16
q55 0 84 45zM165 268h169q-12 36 -31.5 52t-52.5 16q-66 0 -85 -68z" />
    <glyph glyph-name="Ecaron" unicode="&#x11a;" horiz-adv-x="495" 
d="M456 667v-136h-245v-125h218v-136h-218v-133h254v-137h-401v667h392zM178 902l87 -78l86 78l108 -50l-152 -155h-84l-153 155z" />
    <glyph glyph-name="ecaron" unicode="&#x11b;" horiz-adv-x="494" 
d="M336 152l127 -49q-78 -120 -209 -120q-100 0 -167.5 68.5t-67.5 169.5q0 100 66.5 169t163.5 69q98 0 162 -70t64 -177q0 -19 -1 -37h-309q12 -36 32.5 -52t54.5 -16q56 0 84 45zM165 268h169q-12 36 -31.5 52t-52.5 16q-66 0 -85 -68zM333 702l107 -49l-151 -155h-84
l-152 155l107 49l87 -82z" />
    <glyph glyph-name="Gcircumflex" unicode="&#x11c;" horiz-adv-x="729" 
d="M369 380h332v-69q0 -106 -43 -181q-41 -70 -112 -108.5t-160 -38.5q-150 0 -255 102t-105 248t105 248.5t254 102.5q77 0 140 -28.5t134 -95.5l-105 -98q-48 47 -85 65.5t-85 18.5q-89 0 -149 -61t-60 -152q0 -89 61 -150.5t149 -61.5q129 0 162 124h-178v135zM283 694
l-108 50l153 155h84l152 -155l-108 -50l-86 78z" />
    <glyph glyph-name="gcircumflex" unicode="&#x11d;" horiz-adv-x="543" 
d="M354 -9v31q-55 -39 -111 -39q-93 0 -158.5 69.5t-65.5 169.5q0 99 65.5 168.5t158.5 69.5q56 0 111 -39v22h142v-452q0 -107 -68 -174t-176 -67q-68 0 -122 28.5t-108 92.5l97 91l6 -7q4 -4 8 -10q54 -67 119 -67q49 0 75.5 29.5t26.5 83.5zM258 332q-43 0 -69.5 -31
t-26.5 -81q0 -48 27 -78.5t70 -30.5q44 0 70 30.5t26 81.5q0 50 -26.5 79.5t-70.5 29.5zM344 486l-86 81l-87 -81l-107 49l152 155h84l151 -155z" />
    <glyph glyph-name="Gbreve" unicode="&#x11e;" horiz-adv-x="729" 
d="M369 380h332v-69q0 -106 -43 -181q-41 -70 -112 -108.5t-160 -38.5q-150 0 -255 102t-105 248t105 248.5t254 102.5q77 0 140 -28.5t134 -95.5l-105 -98q-48 47 -85 65.5t-85 18.5q-89 0 -149 -61t-60 -152q0 -89 61 -150.5t149 -61.5q129 0 162 124h-178v135zM224 878
l123 9q2 -50 10 -60q10 -13 30 -13q23 0 32 17q7 12 13 56l122 -9q-5 -47 -7.5 -59t-11.5 -30q-22 -42 -60.5 -65.5t-87.5 -23.5q-54 0 -96 28t-59 75q-6 16 -8 75z" />
    <glyph glyph-name="gbreve" unicode="&#x11f;" horiz-adv-x="543" 
d="M354 -9v31q-55 -39 -111 -39q-93 0 -158.5 69.5t-65.5 169.5q0 99 65.5 168.5t158.5 69.5q56 0 111 -39v22h142v-452q0 -107 -68 -174t-176 -67q-68 0 -122 28.5t-108 92.5l97 91l6 -7q4 -4 8 -10q54 -67 119 -67q49 0 75.5 29.5t26.5 83.5zM258 332q-43 0 -69.5 -31
t-26.5 -81q0 -48 27 -78.5t70 -30.5q44 0 70 30.5t26 81.5q0 50 -26.5 79.5t-70.5 29.5zM96 669l122 10q2 -48 9.5 -62.5t30.5 -14.5q24 0 35 23q2 4 10 53l123 -9q-6 -49 -8.5 -60.5t-11.5 -28.5q-22 -42 -60.5 -65.5t-87.5 -23.5q-54 0 -96 28t-59 75q-6 17 -7 75z" />
    <glyph glyph-name="Gdotaccent" unicode="&#x120;" horiz-adv-x="729" 
d="M369 380h332v-69q0 -106 -43 -181q-41 -70 -112 -108.5t-160 -38.5q-150 0 -255 102t-105 248t105 248.5t254 102.5q77 0 140 -28.5t134 -95.5l-105 -98q-48 47 -85 65.5t-85 18.5q-89 0 -149 -61t-60 -152q0 -89 61 -150.5t149 -61.5q129 0 162 124h-178v135zM386 881
q35 0 60 -24t25 -58t-24.5 -58t-59.5 -24q-36 0 -60.5 24t-24.5 59q0 33 25 57t59 24z" />
    <glyph glyph-name="gdotaccent" unicode="&#x121;" horiz-adv-x="543" 
d="M354 -9v31q-55 -39 -111 -39q-93 0 -158.5 69.5t-65.5 169.5q0 99 65.5 168.5t158.5 69.5q56 0 111 -39v22h142v-452q0 -107 -68 -174t-176 -67q-68 0 -122 28.5t-108 92.5l97 91l6 -7q4 -4 8 -10q54 -67 119 -67q49 0 75.5 29.5t26.5 83.5zM258 332q-43 0 -69.5 -31
t-26.5 -81q0 -48 27 -78.5t70 -30.5q44 0 70 30.5t26 81.5q0 50 -26.5 79.5t-70.5 29.5zM257 678q35 0 60 -24t25 -58t-25 -58t-60 -24t-59.5 24t-24.5 59q0 33 25 57t59 24z" />
    <glyph glyph-name="Gcommaaccent" unicode="&#x122;" horiz-adv-x="729" 
d="M369 380h332v-69q0 -106 -43 -181q-41 -70 -112 -108.5t-160 -38.5q-150 0 -255 102t-105 248t105 248.5t254 102.5q77 0 140 -28.5t134 -95.5l-105 -98q-48 47 -85 65.5t-85 18.5q-89 0 -149 -61t-60 -152q0 -89 61 -150.5t149 -61.5q129 0 162 124h-178v135zM330 -16
l132 -38l-90 -195l-107 30z" />
    <glyph glyph-name="gcommaaccent" unicode="&#x123;" horiz-adv-x="543" 
d="M354 -9v31q-55 -39 -111 -39q-93 0 -158.5 69.5t-65.5 169.5q0 99 65.5 168.5t158.5 69.5q56 0 111 -39v22h142v-452q0 -107 -68 -174t-176 -67q-68 0 -122 28.5t-108 92.5l97 91l6 -7q4 -4 8 -10q54 -67 119 -67q49 0 75.5 29.5t26.5 83.5zM258 332q-43 0 -69.5 -31
t-26.5 -81q0 -48 27 -78.5t70 -30.5q44 0 70 30.5t26 81.5q0 50 -26.5 79.5t-70.5 29.5zM317 475l-132 37l90 196l107 -31z" />
    <glyph glyph-name="Hcircumflex" unicode="&#x124;" horiz-adv-x="654" 
d="M212 667v-261h229v261h148v-667h-148v269h-229v-269h-148v667h148zM240 694l-108 50l153 155h84l152 -155l-108 -50l-86 78z" />
    <glyph glyph-name="hcircumflex" unicode="&#x125;" horiz-adv-x="511" 
d="M189 667v-241q44 34 98 34q45 0 85.5 -23t62.5 -62q28 -49 28 -135v-240h-142v233q0 57 -13 78t-48 21q-44 0 -59 -28q-12 -20 -12 -79v-225h-142v667h142zM170 694l-108 50l152 155h84l153 -155l-108 -50l-87 78z" />
    <glyph glyph-name="Hbar" unicode="&#x126;" horiz-adv-x="649" 
d="M439 614v53h148v-53h54v-123h-54v-491h-148v269h-230v-269h-148v491h-54v123h54v53h148v-53h230zM439 491h-230v-85h230v85z" />
    <glyph glyph-name="hbar" unicode="&#x127;" horiz-adv-x="504" 
d="M41 492h-54v122h54v53h142v-53h108v-122h-108v-66q44 34 98 34q45 0 85.5 -23t62.5 -62q28 -49 28 -135v-240h-142v233q0 56 -13 77.5t-48 21.5q-44 0 -59 -28q-12 -20 -12 -79v-225h-142v492z" />
    <glyph glyph-name="Itilde" unicode="&#x128;" horiz-adv-x="276" 
d="M213 667v-667h-148v667h148zM190 881l118 -25q-4 -56 -21 -84q-28 -46 -90 -46q-39 0 -81 20q-11 6 -19 6q-7 0 -13 -34l-115 25q5 54 24 84q13 21 36.5 33.5t48.5 12.5q40 0 85 -24q10 -5 16 -5q8 0 11 37z" />
    <glyph glyph-name="itilde" unicode="&#x129;" horiz-adv-x="238" 
d="M189 443v-443h-142v443h142zM170 673l118 -26q-4 -55 -21 -83q-28 -46 -90 -46q-39 0 -81 20q-10 6 -19 6q-7 0 -13 -34l-115 25q5 54 24 84q28 46 85 46q42 0 85 -24q10 -5 16 -5q9 0 11 37z" />
    <glyph glyph-name="Imacron" unicode="&#x12a;" horiz-adv-x="276" 
d="M212 667v-667h-148v667h148zM-30 858h336v-117h-336v117z" />
    <glyph glyph-name="imacron" unicode="&#x12b;" horiz-adv-x="238" 
d="M190 443v-443h-142v443h142zM-49 649h336v-117h-336v117z" />
    <glyph glyph-name="Ibreve" unicode="&#x12c;" horiz-adv-x="276" 
d="M212 667v-667h-148v667h148zM-27 878l123 9q2 -50 9 -60q11 -13 31 -13q23 0 31 17q8 14 13 56l123 -9q-6 -49 -8.5 -60.5t-11.5 -28.5q-44 -89 -147 -89q-54 0 -96.5 28.5t-58.5 74.5q-7 20 -8 75z" />
    <glyph glyph-name="ibreve" unicode="&#x12d;" horiz-adv-x="238" 
d="M190 443v-443h-142v443h142zM-46 669l123 10q1 -48 8.5 -62.5t30.5 -14.5q24 0 36 23q3 6 9 53l123 -9q-6 -49 -8.5 -60.5t-11.5 -28.5q-21 -42 -59.5 -65.5t-87.5 -23.5q-54 0 -96.5 28.5t-58.5 74.5q-7 20 -8 75z" />
    <glyph glyph-name="Iogonek" unicode="&#x12e;" horiz-adv-x="276" 
d="M212 667v-667q-28 -35 -28 -53q0 -7 8 -7q12 0 36 12l42 -100q-71 -25 -103 -25q-54 0 -89 29t-35 74q0 32 27 70h-6v667h148z" />
    <glyph glyph-name="iogonek" unicode="&#x12f;" horiz-adv-x="238" 
d="M190 443v-443q-1 -1 -2 -3q-27 -33 -27 -50q0 -7 8 -7q12 0 37 11l42 -100q-70 -24 -103 -24q-54 0 -89 29t-35 73q0 33 27 71v443h142zM118 678q35 0 60 -24t25 -58t-24.5 -58t-59.5 -24q-36 0 -60.5 24t-24.5 59q0 33 25 57t59 24z" />
    <glyph glyph-name="Idotaccent" unicode="&#x130;" horiz-adv-x="276" 
d="M213 667v-667h-148v667h148zM138 881q35 0 60 -24t25 -58t-24.5 -58t-59.5 -24q-36 0 -60.5 24t-24.5 59q0 33 25 57t59 24z" />
    <glyph glyph-name="dotlessi" unicode="&#x131;" horiz-adv-x="238" 
d="M190 443v-443h-142v443h142z" />
    <glyph glyph-name="IJ" unicode="&#x132;" horiz-adv-x="697" 
d="M212 667v-667h-148v667h148zM633 667v-459q0 -87 -29 -140q-22 -40 -63.5 -62t-92.5 -22t-94 21t-90 70l81 96q55 -62 99 -62q56 0 56 99v459h133z" />
    <glyph glyph-name="ij" unicode="&#x133;" horiz-adv-x="479" 
d="M118 678q35 0 60 -24t25 -58t-24.5 -58t-59.5 -24q-36 0 -60.5 24t-24.5 59q0 33 25 57t59 24zM190 443v-443h-142v443h142zM431 443v-530q0 -75 -35.5 -116.5t-99.5 -41.5q-36 0 -78 14v131q37 -14 54 -14t17 33v524h142zM359 678q35 0 60 -24t25 -58t-24.5 -58
t-59.5 -24q-36 0 -60.5 24t-24.5 59q0 33 25 57t59 24z" />
    <glyph glyph-name="Jcircumflex" unicode="&#x134;" horiz-adv-x="431" 
d="M368 667v-457q0 -88 -31 -141q-48 -86 -160 -86q-53 0 -97 21.5t-92 71.5l88 106q54 -61 94 -61q50 0 50 89v457h148zM173 694l-108 50l152 155h84l153 -155l-108 -50l-87 78z" />
    <glyph glyph-name="jcircumflex" unicode="&#x135;" horiz-adv-x="244" 
d="M196 443v-530q0 -75 -35.5 -116.5t-99.5 -41.5q-36 0 -78 14v131q37 -14 54 -14t17 33v524h142zM198 486l-86 81l-87 -81l-107 49l152 155h84l151 -155z" />
    <glyph glyph-name="Kcommaaccent" unicode="&#x136;" horiz-adv-x="616" 
d="M360 384l255 -384h-175l-181 276l-47 -50v-226h-148v667h148v-240l224 240h189zM284 -16l132 -38l-90 -195l-107 30z" />
    <glyph glyph-name="kcommaaccent" unicode="&#x137;" horiz-adv-x="500" 
d="M312 255l202 -255h-177l-124 160l-24 -24v-136h-142v667h142v-348l127 124h191zM214 -16l133 -38l-91 -195l-106 30z" />
    <glyph glyph-name="kgreenlandic" unicode="&#x138;" horiz-adv-x="500" 
d="M312 255l202 -255h-177l-124 160l-24 -24v-136h-142v443h142v-124l127 124h191z" />
    <glyph glyph-name="Lacute" unicode="&#x139;" horiz-adv-x="444" 
d="M64 667h148v-530h235v-137h-383v667zM324 854l-172 -161l-96 51l137 175z" />
    <glyph glyph-name="lacute" unicode="&#x13a;" horiz-adv-x="239" 
d="M302 856l-172 -160l-96 50l137 175zM190 0h-142v667h142v-667z" />
    <glyph glyph-name="Lcommaaccent" unicode="&#x13b;" horiz-adv-x="446" 
d="M64 667h148v-530h235v-137h-383v667zM225 -16l133 -38l-91 -195l-107 30z" />
    <glyph glyph-name="lcommaaccent" unicode="&#x13c;" horiz-adv-x="239" 
d="M190 0h-142v667h142v-667zM71 -16l133 -38l-91 -195l-106 30z" />
    <glyph glyph-name="Lcaron" unicode="&#x13d;" horiz-adv-x="446" 
d="M64 667h148v-530h235v-137h-383v667zM315 705l133 -38l-91 -195l-106 30z" />
    <glyph glyph-name="lcaron" unicode="&#x13e;" horiz-adv-x="391" 
d="M190 0h-142v667h142v-667zM279 709l133 -38l-91 -195l-106 30z" />
    <glyph glyph-name="Ldot" unicode="&#x13f;" horiz-adv-x="446" 
d="M64 667h148v-530h235v-137h-383v667zM351 415q35 0 60 -24t25 -58t-25 -58t-60 -24t-59.5 24t-24.5 59q0 33 25 57t59 24z" />
    <glyph glyph-name="ldot" unicode="&#x140;" horiz-adv-x="401" 
d="M319 415q35 0 60 -24t25 -58t-25 -58t-60 -24t-59.5 24t-24.5 59q0 33 25 57t59 24zM190 0h-142v667h142v-667z" />
    <glyph glyph-name="Lslash" unicode="&#x141;" horiz-adv-x="459" 
d="M226 461l104 63v-141l-104 -63v-183h235v-137h-383v231l-65 -39v141l65 39v295h148v-206z" />
    <glyph glyph-name="lslash" unicode="&#x142;" horiz-adv-x="280" 
d="M69 237l-60 -37v142l60 37v288h142v-200l60 38v-142l-60 -38v-325h-142v237z" />
    <glyph glyph-name="Nacute" unicode="&#x143;" horiz-adv-x="708" 
d="M64 0v667h124l308 -405v405h148v-667h-124l-308 405v-405h-148zM556 854l-172 -161l-96 51l136 175z" />
    <glyph glyph-name="nacute" unicode="&#x144;" horiz-adv-x="511" 
d="M444 644l-172 -160l-96 51l137 175zM189 443v-18q43 35 98 35q46 0 85.5 -23t62.5 -62q28 -49 28 -135v-240h-142v233q0 57 -13 78t-48 21q-44 0 -59 -28q-12 -20 -12 -80v-224h-142v443h142z" />
    <glyph glyph-name="Ncommaaccent" unicode="&#x145;" horiz-adv-x="708" 
d="M64 0v667h124l308 -405v405h148v-667h-124l-308 405v-405h-148zM320 -16l133 -38l-91 -195l-106 30z" />
    <glyph glyph-name="ncommaaccent" unicode="&#x146;" horiz-adv-x="511" 
d="M189 443v-18q43 35 98 35q46 0 85.5 -23t62.5 -62q28 -49 28 -135v-240h-142v233q0 57 -13 78t-48 21q-44 0 -59 -28q-12 -20 -12 -80v-224h-142v443h142zM221 -16l133 -38l-91 -195l-106 30z" />
    <glyph glyph-name="Ncaron" unicode="&#x147;" horiz-adv-x="708" 
d="M64 0v667h124l308 -405v405h148v-667h-124l-308 405v-405h-148zM284 902l87 -78l86 78l108 -50l-152 -155h-85l-152 155z" />
    <glyph glyph-name="ncaron" unicode="&#x148;" horiz-adv-x="511" 
d="M189 443v-18q43 35 98 35q46 0 85.5 -23t62.5 -62q28 -49 28 -135v-240h-142v233q0 57 -13 78t-48 21q-44 0 -59 -28q-12 -20 -12 -80v-224h-142v443h142zM347 702l107 -49l-152 -155h-84l-152 155l108 49l86 -82z" />
    <glyph glyph-name="napostrophe" unicode="&#x149;" horiz-adv-x="614" 
d="M88 693l126 -42l-126 -264l-104 38zM293 443v-18q43 35 98 35q46 0 85.5 -23t62.5 -62q28 -49 28 -135v-240h-142v233q0 57 -13 78t-48 21q-44 0 -59 -28q-12 -20 -12 -80v-224h-142v443h142z" />
    <glyph glyph-name="Eng" unicode="&#x14a;" horiz-adv-x="708" 
d="M644 667v-667q-2 -74 -37 -114t-98 -40q-35 0 -78 14v131q36 -14 53 -14q18 0 18 33v14l-290 381v-405h-148v667h124l308 -405v405h148z" />
    <glyph glyph-name="eng" unicode="&#x14b;" horiz-adv-x="511" 
d="M189 443v-18q43 35 98 35q64 0 112.5 -42t57.5 -106q10 -76 10 -223q0 -131 -25 -182q-15 -28 -45.5 -44.5t-68.5 -16.5q-35 0 -78 14v131q37 -14 54 -14t17 32v172v52q0 57 -13.5 78t-48.5 21q-43 0 -58 -28q-12 -20 -12 -80v-224h-142v443h142z" />
    <glyph glyph-name="Omacron" unicode="&#x14c;" horiz-adv-x="763" 
d="M381 684q147 0 251.5 -103t104.5 -248t-105 -247.5t-253 -102.5q-146 0 -249.5 104.5t-103.5 251.5q0 139 106 242t249 103zM380 546q-86 0 -145.5 -62.5t-59.5 -153.5q0 -85 61.5 -147t144.5 -62q85 0 146 62.5t61 149.5q0 89 -60.5 151t-147.5 62zM213 858h336v-117
h-336v117z" />
    <glyph glyph-name="omacron" unicode="&#x14d;" horiz-adv-x="520" 
d="M263 460q99 0 168.5 -69.5t69.5 -168.5q0 -100 -70 -169.5t-171 -69.5t-171 69.5t-70 169.5q0 101 70 169.5t174 68.5zM259 332q-43 0 -70 -30.5t-27 -79.5q0 -50 27 -80.5t71 -30.5t71 30.5t27 80.5t-27 80t-72 30zM92 649h336v-117h-336v117z" />
    <glyph glyph-name="Obreve" unicode="&#x14e;" horiz-adv-x="763" 
d="M381 684q147 0 251.5 -103t104.5 -248t-105 -247.5t-253 -102.5q-146 0 -249.5 104.5t-103.5 251.5q0 139 106 242t249 103zM380 546q-86 0 -145.5 -62.5t-59.5 -153.5q0 -85 61.5 -147t144.5 -62q85 0 146 62.5t61 149.5q0 89 -60.5 151t-147.5 62zM216 878l123 9
q2 -50 10 -60q10 -13 30 -13q23 0 32 17q6 12 13 56l122 -9q-5 -47 -7.5 -59t-11.5 -30q-22 -43 -60.5 -66t-87.5 -23q-54 0 -96 28t-59 75q-6 16 -8 75z" />
    <glyph glyph-name="obreve" unicode="&#x14f;" horiz-adv-x="520" 
d="M263 460q99 0 168.5 -69.5t69.5 -168.5q0 -100 -70 -169.5t-171 -69.5t-171 69.5t-70 169.5q0 101 70 169.5t174 68.5zM259 332q-43 0 -70 -30.5t-27 -79.5q0 -50 27 -80.5t71 -30.5t71 30.5t27 80.5t-27 80t-72 30zM95 669l123 10q1 -48 8.5 -62.5t30.5 -14.5
q24 0 36 23q3 6 9 53l123 -9q-6 -49 -8.5 -60.5t-11.5 -28.5q-46 -89 -147 -89q-54 0 -96.5 28.5t-58.5 74.5q-7 20 -8 75z" />
    <glyph glyph-name="Ohungarumlaut" unicode="&#x150;" horiz-adv-x="763" 
d="M481 859l41 58l115 -62l-171 -160l-72 42l65 91l-143 -133l-81 48l136 174zM381 684q147 0 251.5 -103t104.5 -248t-105 -247.5t-253 -102.5q-146 0 -249.5 104.5t-103.5 251.5q0 139 106 242t249 103zM380 546q-86 0 -145.5 -62.5t-59.5 -153.5q0 -85 61.5 -147
t144.5 -62q85 0 146 62.5t61 149.5q0 89 -60.5 151t-147.5 62z" />
    <glyph glyph-name="ohungarumlaut" unicode="&#x151;" horiz-adv-x="536" 
d="M361 648l41 58l115 -62l-171 -160l-72 42l65 91l-143 -133l-81 48l136 174zM264 460q98 0 167.5 -69.5t69.5 -168.5q0 -100 -70 -169.5t-171 -69.5q-102 0 -171.5 69.5t-69.5 171.5q0 100 70.5 168t174.5 68zM258 332q-43 0 -69.5 -31t-26.5 -81q0 -49 27 -79t71 -30
t71 30.5t27 81.5q0 50 -27 79.5t-73 29.5z" />
    <glyph glyph-name="OE" unicode="&#x152;" horiz-adv-x="1019" 
d="M989 0h-401v51q-95 -68 -202 -68q-150 0 -255 102.5t-105 248.5q0 145 105.5 247.5t253.5 102.5q108 0 203 -68v51h392v-136h-245v-125h218v-136h-218v-133h254v-137zM380 546q-86 0 -145.5 -62.5t-59.5 -153.5q0 -85 61.5 -147t145.5 -62q85 0 145.5 62.5t60.5 150.5
q0 89 -60.5 150.5t-147.5 61.5z" />
    <glyph glyph-name="oe" unicode="&#x153;" horiz-adv-x="833" 
d="M675 152l127 -49q-76 -120 -210 -120q-96 0 -164 67q-70 -67 -167 -67q-102 0 -172 69t-70 170q0 100 70 169t172 69q97 0 167 -67q66 66 159 66q98 0 162.5 -70t64.5 -176q0 -19 -1 -38h-309q12 -36 32.5 -52t54.5 -16q55 0 84 45zM504 268h169q-12 36 -31.5 52
t-53.5 16q-65 0 -84 -68zM258 332q-43 0 -69.5 -31t-26.5 -81q0 -49 27 -79t71 -30t71 30.5t27 81.5q0 50 -27 79.5t-73 29.5z" />
    <glyph glyph-name="Racute" unicode="&#x154;" horiz-adv-x="568" 
d="M392 0l-129 233h-3h-4h-12q-4 -1 -16 -1h-16v-232h-148v667h164q101 0 159 -32q49 -29 77 -79t28 -108q0 -113 -88 -173l155 -275h-167zM211 367h25q60 0 86.5 19t26.5 62t-27 63.5t-86 20.5h-25v-165zM443 854l-172 -161l-96 51l137 175z" />
    <glyph glyph-name="racute" unicode="&#x155;" horiz-adv-x="315" 
d="M330 644l-172 -160l-96 51l136 175zM189 443v-20q38 23 76 23q18 0 45 -4v-125q-28 3 -45 3q-44 0 -60 -22t-16 -83v-215h-142v443h142z" />
    <glyph glyph-name="Rcommaaccent" unicode="&#x156;" horiz-adv-x="568" 
d="M392 0l-129 233h-3h-4h-12q-4 -1 -16 -1h-16v-232h-148v667h164q101 0 159 -32q49 -29 77 -79t28 -108q0 -113 -88 -173l155 -275h-167zM211 367h25q60 0 86.5 19t26.5 62t-27 63.5t-86 20.5h-25v-165zM254 -16l133 -38l-91 -195l-106 30z" />
    <glyph glyph-name="rcommaaccent" unicode="&#x157;" horiz-adv-x="315" 
d="M189 443v-20q38 23 76 23q18 0 45 -4v-125q-28 3 -45 3q-44 0 -60 -22t-16 -83v-215h-142v443h142zM62 -16l133 -38l-91 -195l-106 30z" />
    <glyph glyph-name="Rcaron" unicode="&#x158;" horiz-adv-x="568" 
d="M392 0l-129 233h-3h-4h-12q-4 -1 -16 -1h-16v-232h-148v667h164q101 0 159 -32q49 -29 77 -79t28 -108q0 -113 -88 -173l155 -275h-167zM211 367h25q60 0 86.5 19t26.5 62t-27 63.5t-86 20.5h-25v-165zM177 902l86 -78l87 78l108 -50l-153 -155h-84l-152 155z" />
    <glyph glyph-name="rcaron" unicode="&#x159;" horiz-adv-x="314" 
d="M189 443v-20q38 23 77 23q18 0 45 -4v-125q-28 3 -45 3q-45 0 -61 -22t-16 -83v-215h-142v443h142zM266 702l107 -49l-151 -155h-84l-152 155l107 49l87 -82z" />
    <glyph glyph-name="Sacute" unicode="&#x15a;" horiz-adv-x="530" 
d="M491 549l-122 -77q-30 46 -48.5 60.5t-49.5 14.5q-30 0 -50.5 -19t-20.5 -47q0 -35 67 -59l60 -23q88 -33 129 -80t41 -115q0 -93 -68.5 -157t-168.5 -64q-55 0 -103.5 22t-78.5 60q-37 48 -54 126l145 39l2 -8l4 -16q21 -85 87 -85q36 0 61 24t25 58q0 22 -18 38t-65 34
l-58 22q-154 58 -154 185q0 86 64 144t159 58q71 0 121.5 -32t93.5 -103zM461 854l-172 -161l-96 51l137 175z" />
    <glyph glyph-name="sacute" unicode="&#x15b;" horiz-adv-x="394" 
d="M378 644l-172 -160l-96 51l137 175zM14 117l122 43q29 -53 65 -53q14 0 23 7.5t9 20.5q0 10 -7 16t-27 14l-74 30q-38 16 -60 47.5t-22 70.5q0 63 48 105t119 42q106 0 164 -102l-114 -52q-23 32 -51 32q-30 0 -30 -22q0 -8 6.5 -13t24.5 -13l62 -24q103 -39 103 -124
q0 -68 -50.5 -113.5t-125.5 -45.5q-131 0 -185 134z" />
    <glyph glyph-name="Scircumflex" unicode="&#x15c;" horiz-adv-x="530" 
d="M491 549l-122 -77q-30 46 -48.5 60.5t-49.5 14.5q-30 0 -50.5 -19t-20.5 -47q0 -35 67 -59l60 -23q88 -33 129 -80t41 -115q0 -93 -68.5 -157t-168.5 -64q-55 0 -103.5 22t-78.5 60q-37 48 -54 126l145 39l2 -8l4 -16q21 -85 87 -85q36 0 61 24t25 58q0 22 -18 38t-65 34
l-58 22q-154 58 -154 185q0 86 64 144t159 58q71 0 121.5 -32t93.5 -103zM175 694l-108 50l152 155h84l153 -155l-108 -50l-87 78z" />
    <glyph glyph-name="scircumflex" unicode="&#x15d;" horiz-adv-x="398" 
d="M15 117l122 43q27 -53 65 -53q14 0 23 7.5t9 20.5q0 10 -7 16t-27 14l-74 30q-39 17 -61 47.5t-22 70.5q0 63 48 105t119 42q107 0 165 -102l-115 -52q-22 32 -51 32q-30 0 -30 -22q0 -8 6.5 -13.5t25.5 -12.5l62 -24q103 -39 103 -124q0 -68 -50.5 -113.5t-125.5 -45.5
q-133 0 -185 134zM288 486l-86 81l-87 -81l-107 49l152 155h84l151 -155z" />
    <glyph glyph-name="Scedilla" unicode="&#x15e;" horiz-adv-x="530" 
d="M259 -17l125 -50l-142 -167l-103 47l117 170q-192 8 -232 208l145 39l2 -8l4 -16q21 -85 87 -85q36 0 61 24t25 58q0 22 -18 38t-65 34l-58 22q-154 58 -154 185q0 86 64 144t159 58q71 0 121.5 -32t93.5 -103l-122 -77q-30 46 -48.5 60.5t-49.5 14.5q-30 0 -50.5 -19
t-20.5 -46q0 -35 67 -60l60 -23q88 -33 129 -80t41 -115q0 -93 -69 -157t-169 -64z" />
    <glyph glyph-name="scedilla" unicode="&#x15f;" horiz-adv-x="394" 
d="M14 117l122 43q29 -53 65 -53q14 0 23 7.5t9 20.5q0 10 -7 16t-27 14l-74 30q-38 16 -60 47.5t-22 70.5q0 63 48 105t119 42q106 0 164 -102l-114 -52q-23 32 -51 32q-30 0 -30 -22q0 -8 6.5 -13t24.5 -13l62 -24q103 -39 103 -124q0 -68 -50.5 -113.5t-125.5 -45.5
q-131 0 -185 134zM316 -67l-142 -167l-103 47l117 171z" />
    <glyph glyph-name="Scaron" unicode="&#x160;" horiz-adv-x="530" 
d="M491 549l-122 -77q-30 46 -48.5 60.5t-49.5 14.5q-30 0 -50.5 -19t-20.5 -47q0 -35 67 -59l60 -23q88 -33 129 -80t41 -115q0 -93 -68.5 -157t-168.5 -64q-55 0 -103.5 22t-78.5 60q-37 48 -54 126l145 39l2 -8l4 -16q21 -85 87 -85q36 0 61 24t25 58q0 22 -18 38t-65 34
l-58 22q-154 58 -154 185q0 86 64 144t159 58q71 0 121.5 -32t93.5 -103zM175 902l86 -78l87 78l108 -50l-153 -155h-84l-152 155z" />
    <glyph glyph-name="scaron" unicode="&#x161;" horiz-adv-x="398" 
d="M15 117l122 43q27 -53 65 -53q14 0 23 7.5t9 20.5q0 10 -7 16t-27 14l-74 30q-39 17 -61 47.5t-22 70.5q0 63 48 105t119 42q107 0 165 -102l-115 -52q-22 32 -51 32q-30 0 -30 -22q0 -8 6.5 -13.5t25.5 -12.5l62 -24q103 -39 103 -124q0 -68 -50.5 -113.5t-125.5 -45.5
q-133 0 -185 134zM288 702l107 -49l-151 -155h-84l-152 155l107 49l87 -82z" />
    <glyph glyph-name="Tcommaaccent" unicode="&#x162;" horiz-adv-x="443" 
d="M452 667v-137h-156v-530h-148v530h-157v137h461zM183 -16l133 -38l-91 -195l-107 30z" />
    <glyph glyph-name="tcommaaccent" unicode="&#x163;" horiz-adv-x="282" 
d="M192 316v-162q0 -32 17 -32q18 0 54 14v-131q-45 -14 -79 -14q-63 0 -98.5 41.5t-35.5 116.5v167h-44v127h44v89l142 55v-144h65v-127h-65zM101 -16l132 -38l-90 -195l-107 30z" />
    <glyph glyph-name="Tcaron" unicode="&#x164;" horiz-adv-x="443" 
d="M452 667v-137h-156v-530h-148v530h-157v137h461zM135 902l87 -78l86 78l108 -50l-152 -155h-84l-153 155z" />
    <glyph glyph-name="tcaron" unicode="&#x165;" horiz-adv-x="393" 
d="M192 316v-162q0 -32 17 -32q18 0 54 14v-131q-45 -14 -79 -14q-63 0 -98.5 41.5t-35.5 116.5v167h-44v127h44v89l142 55v-144h65v-127h-65zM281 709l133 -38l-91 -195l-106 30z" />
    <glyph glyph-name="Tbar" unicode="&#x166;" horiz-adv-x="443" 
d="M148 315h-97v128h97v87h-157v137h461v-137h-156v-87h97v-128h-97v-315h-148v315z" />
    <glyph glyph-name="tbar" unicode="&#x167;" horiz-adv-x="282" 
d="M50 443v89l142 55v-144h65v-104h-65v-32h65v-104h-65v-49q0 -32 17 -32q20 0 54 14v-131q-45 -14 -79 -14q-63 0 -98.5 41.5t-35.5 116.5v54h-44v104h44v32h-44v104h44z" />
    <glyph glyph-name="Utilde" unicode="&#x168;" horiz-adv-x="645" 
d="M212 667v-408q0 -68 13 -90q12 -21 39.5 -34.5t57.5 -13.5t58 14t40 34q13 22 13 90v408h148v-426q0 -84 -30 -135q-33 -56 -94.5 -89.5t-133.5 -33.5t-134 33.5t-95 89.5q-30 51 -30 135v426h148zM374 881l118 -25q-4 -56 -21 -84q-28 -46 -90 -46q-39 0 -81 20
q-10 6 -19 6q-4 0 -6 -5.5t-7 -28.5l-115 25q5 54 24 84q28 46 85 46q40 0 85 -24q10 -5 16 -5q8 0 11 37z" />
    <glyph glyph-name="utilde" unicode="&#x169;" horiz-adv-x="511" 
d="M321 0v18q-43 -35 -98 -35q-46 0 -85.5 23t-62.5 62q-28 49 -28 135v240h142v-233q0 -56 13.5 -77.5t48.5 -21.5q43 0 58 28q12 20 12 80v224h142v-443h-142zM306 673l119 -26q-5 -55 -21 -83q-28 -46 -90 -46q-41 0 -81 20q-12 6 -19 6t-13 -34l-115 25q5 57 24 84
q13 21 36 33.5t48 12.5q41 0 86 -24q10 -5 16 -5q5 0 6.5 6.5t3.5 30.5z" />
    <glyph glyph-name="Umacron" unicode="&#x16a;" horiz-adv-x="645" 
d="M212 667v-408q0 -68 13 -90q12 -21 39.5 -34.5t57.5 -13.5t58 14t40 34q13 22 13 90v408h148v-426q0 -84 -30 -135q-33 -56 -94.5 -89.5t-133.5 -33.5t-134 33.5t-95 89.5q-30 51 -30 135v426h148zM154 858h336v-117h-336v117z" />
    <glyph glyph-name="umacron" unicode="&#x16b;" horiz-adv-x="511" 
d="M321 0v18q-43 -35 -98 -35q-46 0 -85.5 23t-62.5 62q-28 49 -28 135v240h142v-233q0 -56 13.5 -77.5t48.5 -21.5q43 0 58 28q12 20 12 80v224h142v-443h-142zM87 649h336v-117h-336v117z" />
    <glyph glyph-name="Ubreve" unicode="&#x16c;" horiz-adv-x="645" 
d="M212 667v-408q0 -68 13 -90q12 -21 39.5 -34.5t57.5 -13.5t58 14t40 34q13 22 13 90v408h148v-426q0 -84 -30 -135q-33 -56 -94.5 -89.5t-133.5 -33.5t-134 33.5t-95 89.5q-30 51 -30 135v426h148zM157 878l123 9q2 -50 10 -60q10 -13 30 -13q23 0 32 17q6 12 13 56
l122 -9q-6 -49 -8.5 -60.5t-10.5 -28.5q-22 -43 -60.5 -66t-87.5 -23q-54 0 -96 28t-59 75q-6 16 -8 75z" />
    <glyph glyph-name="ubreve" unicode="&#x16d;" horiz-adv-x="511" 
d="M321 0v18q-43 -35 -98 -35q-46 0 -85.5 23t-62.5 62q-28 49 -28 135v240h142v-233q0 -56 13.5 -77.5t48.5 -21.5q43 0 58 28q12 20 12 80v224h142v-443h-142zM91 669l123 10q2 -53 10 -64q10 -13 30 -13q23 0 35 23q2 4 10 53l122 -9q-5 -47 -7.5 -59t-11.5 -30
q-22 -42 -60.5 -65.5t-87.5 -23.5q-54 0 -96 28t-59 75q-6 17 -8 75z" />
    <glyph glyph-name="Uring" unicode="&#x16e;" horiz-adv-x="645" 
d="M322 919q50 0 85.5 -35t35.5 -84t-35.5 -84t-85.5 -35t-85.5 35t-35.5 86q0 47 36 82t85 35zM322 852q-22 0 -37 -15.5t-15 -37.5q0 -20 15.5 -35.5t36.5 -15.5q22 0 37 15t15 37t-15 37t-37 15zM212 667v-408q0 -68 13 -90q12 -21 39.5 -34.5t57.5 -13.5t58 14t40 34
q13 22 13 90v408h148v-426q0 -84 -30 -135q-33 -56 -94.5 -89.5t-133.5 -33.5t-134 33.5t-95 89.5q-30 51 -30 135v426h148z" />
    <glyph glyph-name="uring" unicode="&#x16f;" horiz-adv-x="511" 
d="M321 0v18q-43 -35 -98 -35q-46 0 -85.5 23t-62.5 62q-28 49 -28 135v240h142v-233q0 -56 13.5 -77.5t48.5 -21.5q43 0 58 28q12 20 12 80v224h142v-443h-142zM255 710q50 0 85.5 -35t35.5 -84q0 -50 -35.5 -84.5t-86.5 -34.5q-50 0 -85 35.5t-35 85.5q0 47 36 82t85 35z
M255 643q-22 0 -37 -15.5t-15 -37.5q0 -20 15.5 -35.5t36.5 -15.5q22 0 37 15t15 37t-15 37t-37 15z" />
    <glyph glyph-name="Uhungarumlaut" unicode="&#x170;" horiz-adv-x="649" 
d="M418 859l41 58l115 -62l-171 -160l-72 42l65 91l-142 -133l-81 48l135 174zM212 667v-408q0 -68 13 -90q12 -21 39.5 -34.5t57.5 -13.5t58 14t40 34q13 22 13 90v408h148v-426q0 -84 -30 -135q-33 -56 -94.5 -89.5t-133.5 -33.5t-134 33.5t-95 89.5q-30 51 -30 135v426
h148z" />
    <glyph glyph-name="uhungarumlaut" unicode="&#x171;" horiz-adv-x="511" 
d="M339 648l41 58l115 -62l-171 -160l-72 42l65 91l-143 -133l-81 48l136 174zM321 0v18q-43 -35 -98 -35q-46 0 -85.5 23t-62.5 62q-28 49 -28 135v240h142v-233q0 -56 13.5 -77.5t48.5 -21.5q43 0 58 28q12 20 12 80v224h142v-443h-142z" />
    <glyph glyph-name="Uogonek" unicode="&#x172;" horiz-adv-x="645" 
d="M583 667v-425q5 -194 -189 -250q-21 -30 -21 -45q0 -7 8 -7q12 0 35 12l43 -100q-71 -25 -104 -25q-53 0 -88 29t-35 74q0 28 21 63q-190 52 -187 249v425h148v-408q0 -67 13 -89q12 -21 39.5 -34.5t57.5 -13.5q31 0 58.5 13.5t39.5 34.5q13 22 13 89v408h148z" />
    <glyph glyph-name="uogonek" unicode="&#x173;" horiz-adv-x="511" 
d="M463 443v-443q-1 -1 -2 -3q-27 -33 -27 -50q0 -7 8 -7q13 0 37 12l42 -101q-71 -24 -103 -24q-54 0 -89 29t-35 73q0 32 27 71v18q-43 -35 -98 -35q-46 0 -85.5 23t-62.5 62q-28 49 -28 135v240h142v-233q0 -56 13.5 -77.5t48.5 -21.5q43 0 58 28q12 20 12 80v224h142z
" />
    <glyph glyph-name="Wcircumflex" unicode="&#x174;" horiz-adv-x="877" 
d="M145 667l116 -394l117 394h121l117 -395l116 395h154l-200 -667h-130l-117 395l-118 -395h-129l-201 667h154zM352 694l-108 50l153 155h84l152 -155l-108 -50l-86 78z" />
    <glyph glyph-name="wcircumflex" unicode="&#x175;" horiz-adv-x="654" 
d="M-15 443h149l71 -213l69 213h106l70 -213l71 213h148l-159 -443h-114l-69 209l-69 -209h-114zM414 486l-87 81l-86 -81l-108 49l152 155h84l152 -155z" />
    <glyph glyph-name="Ycircumflex" unicode="&#x176;" horiz-adv-x="565" 
d="M208 275l-224 392h166l132 -239l133 239h165l-224 -392v-275h-148v275zM196 694l-108 50l152 155h85l152 -155l-108 -50l-87 78z" />
    <glyph glyph-name="ycircumflex" unicode="&#x177;" horiz-adv-x="475" 
d="M153 23l-168 420h150l96 -246l110 246h150l-303 -677h-150zM325 486l-87 81l-86 -81l-108 49l152 155h84l152 -155z" />
    <glyph glyph-name="Ydieresis" unicode="&#x178;" horiz-adv-x="565" 
d="M208 275l-224 392h166l132 -239l133 239h165l-224 -392v-275h-148v275zM377 876q32 0 55 -22.5t23 -54.5t-23 -54t-56 -22t-55.5 22.5t-22.5 55.5q0 31 23.5 53t55.5 22zM188 876q32 0 55 -22.5t23 -54.5q0 -31 -23 -53.5t-55 -22.5q-34 0 -56.5 22.5t-22.5 55.5
q0 31 23.5 53t55.5 22z" />
    <glyph glyph-name="Zacute" unicode="&#x179;" horiz-adv-x="516" 
d="M500 558l-297 -420h304v-138h-499v109l301 421h-274v137h465v-109zM435 854l-172 -161l-96 51l137 175z" />
    <glyph glyph-name="zacute" unicode="&#x17a;" horiz-adv-x="423" 
d="M385 644l-171 -160l-96 51l136 175zM405 443v-101l-192 -216h201v-126h-397v100l193 217h-180v126h375z" />
    <glyph glyph-name="Zdotaccent" unicode="&#x17b;" horiz-adv-x="516" 
d="M500 558l-297 -420h304v-138h-499v109l301 421h-274v137h465v-109zM273 881q35 0 60 -24t25 -58t-25 -58t-60 -24t-59.5 24t-24.5 59q0 33 25 57t59 24z" />
    <glyph glyph-name="zdotaccent" unicode="&#x17c;" horiz-adv-x="423" 
d="M405 443v-101l-192 -216h201v-126h-397v100l193 217h-180v126h375zM214 678q35 0 60 -24t25 -58t-25 -58t-60 -24t-59.5 24t-24.5 59q0 33 25 57t59 24z" />
    <glyph glyph-name="Zcaron" unicode="&#x17d;" horiz-adv-x="516" 
d="M500 558l-297 -420h304v-138h-499v109l301 421h-274v137h465v-109zM188 902l86 -78l86 78l108 -50l-152 -155h-84l-153 155z" />
    <glyph glyph-name="zcaron" unicode="&#x17e;" horiz-adv-x="423" 
d="M403 443v-101l-192 -216h201v-126h-397v100l193 217h-180v126h375zM300 702l107 -49l-152 -155h-84l-151 155l107 49l86 -82z" />
    <glyph glyph-name="longs" unicode="&#x17f;" horiz-adv-x="258" 
d="M197 0h-142v316h-40v127h40v75q0 76 35.5 117t101.5 41q35 0 75 -9v-127q-27 9 -43 9q-27 0 -27 -34v-515z" />
    <glyph glyph-name="florin" unicode="&#x192;" horiz-adv-x="498" 
d="M-7 -185l27 127q11 -3 19 -6q21 -7 32 -7q21 0 28 40l73 347h-42l27 127h41l17 80q16 74 58 115.5t101 41.5q35 0 90 -17l-27 -129q-36 14 -50 14q-20 0 -29 -40l-14 -65h75l-27 -127h-74l-76 -362q-15 -74 -57 -115t-102 -41q-35 0 -90 17z" />
    <glyph glyph-name="Ohorn" unicode="&#x1a0;" horiz-adv-x="779" 
d="M579 725l110 55q26 -18 40 -32q44 -42 44 -108q0 -82 -81 -139q45 -80 45 -169q0 -143 -104.5 -246t-250.5 -103t-251 103t-105 247q0 145 105 248t251 103q133 0 230 -86q35 18 35 42q0 20 -12 35t-56 50zM380 546q-86 0 -145.5 -62.5t-59.5 -153.5q0 -85 61.5 -147
t144.5 -62q85 0 146 62.5t61 149.5q0 89 -60.5 151t-147.5 62z" />
    <glyph glyph-name="ohorn" unicode="&#x1a1;" horiz-adv-x="572" 
d="M377 502l110 55q27 -19 40 -32q44 -44 44 -108q0 -84 -77 -137q7 -28 7 -57q0 -101 -69.5 -170.5t-171.5 -69.5q-101 0 -171 69.5t-70 169.5t70 169t172 69q101 0 172 -71q12 12 12 28q0 19 -12 34t-56 51zM259 332q-43 0 -70 -30.5t-27 -79.5q0 -50 27 -80.5t71 -30.5
t71 30.5t27 80.5t-27 80t-72 30z" />
    <glyph glyph-name="Uhorn" unicode="&#x1af;" horiz-adv-x="715" 
d="M581 667v-61q21 15 21 35q0 19 -12 34t-56 50l110 55q34 -25 40 -32q44 -42 44 -109q0 -111 -147 -170v-228q0 -84 -30 -135q-33 -56 -94.5 -89.5t-133.5 -33.5t-134 33.5t-95 89.5q-30 51 -30 135v426h148v-408q0 -68 13 -90q12 -21 39.5 -34.5t57.5 -13.5t58 14t40 34
q13 22 13 90v408h148z" />
    <glyph glyph-name="uhorn" unicode="&#x1b0;" horiz-adv-x="616" 
d="M463 443v-64q25 15 25 38q0 19 -12 34t-56 50l110 55q31 -22 40 -32q44 -42 44 -109q0 -56 -37.5 -100t-107.5 -69q-1 -2 -6 -3v-243h-142v18q-43 -35 -98 -35q-46 0 -85.5 23t-62.5 62q-28 49 -28 135v240h142v-233q0 -56 13.5 -77.5t48.5 -21.5q43 0 58 28q12 20 12 80
v224h142z" />
    <glyph glyph-name="uni01C4" unicode="&#x1c4;" horiz-adv-x="1137" 
d="M64 667h164q167 0 267 -90.5t100 -242.5t-100 -243t-267 -91h-164v667zM212 530v-393h19q101 0 158.5 52.5t57.5 143.5q0 92 -57.5 144.5t-158.5 52.5h-19zM1121 558l-297 -420h304v-138h-499v109l301 421h-274v137h465v-109zM808 902l87 -78l86 78l108 -50l-152 -155
h-84l-153 155z" />
    <glyph glyph-name="uni01C5" unicode="&#x1c5;" horiz-adv-x="1044" 
d="M64 667h164q167 0 267 -90.5t100 -242.5t-100 -243t-267 -91h-164v667zM212 530v-393h19q101 0 158.5 52.5t57.5 143.5q0 92 -57.5 144.5t-158.5 52.5h-19zM1024 443v-101l-192 -216h201v-126h-397v100l193 217h-180v126h375zM921 702l107 -49l-151 -155h-84l-152 155
l107 49l87 -82z" />
    <glyph glyph-name="uni01C6" unicode="&#x1c6;" horiz-adv-x="966" 
d="M496 0h-142v22q-52 -39 -111 -39q-93 0 -158.5 70t-65.5 169t65.5 168.5t158.5 69.5q58 0 111 -38v245h142v-667zM258 332q-43 0 -69.5 -31t-26.5 -81q0 -48 27 -78.5t70 -30.5q44 0 70 30.5t26 81.5q0 50 -26.5 79.5t-70.5 29.5zM946 443v-101l-192 -216h201v-126h-397
v100l193 217h-180v126h375zM843 702l107 -49l-151 -155h-84l-152 155l107 49l87 -82z" />
    <glyph glyph-name="uni01C7" unicode="&#x1c7;" horiz-adv-x="894" 
d="M64 667h148v-530h235v-137h-383v667zM829 667v-457q0 -88 -30 -141q-48 -86 -161 -86q-53 0 -97 22t-92 71l88 106q55 -61 95 -61q49 0 49 89v457h148z" />
    <glyph glyph-name="uni01C8" unicode="&#x1c8;" horiz-adv-x="690" 
d="M64 667h148v-530h235v-137h-383v667zM642 443v-530q0 -75 -35.5 -116.5t-99.5 -41.5q-36 0 -78 14v131q37 -14 54 -14t17 33v524h142zM570 678q35 0 60 -24t25 -58t-24.5 -58t-59.5 -24q-36 0 -60.5 24t-24.5 59q0 33 25 57t59 24z" />
    <glyph glyph-name="uni01C9" unicode="&#x1c9;" horiz-adv-x="483" 
d="M190 0h-142v667h142v-667zM435 443v-530q0 -75 -35.5 -116.5t-99.5 -41.5q-36 0 -78 14v131q37 -14 54 -14t17 33v524h142zM363 678q35 0 60 -24t25 -58t-24.5 -58t-59.5 -24q-36 0 -60.5 24t-24.5 59q0 33 25 57t59 24z" />
    <glyph glyph-name="uni01CA" unicode="&#x1ca;" horiz-adv-x="1139" 
d="M64 0v667h124l308 -405v405h148v-667h-124l-308 405v-405h-148zM1075 667v-457q0 -88 -30 -141q-48 -86 -161 -86q-53 0 -97 22t-92 71l88 106q55 -61 95 -61q49 0 49 89v457h148z" />
    <glyph glyph-name="uni01CB" unicode="&#x1cb;" horiz-adv-x="952" 
d="M64 0v667h124l308 -405v405h148v-667h-124l-308 405v-405h-148zM904 443v-530q0 -75 -35.5 -116.5t-99.5 -41.5q-36 0 -78 14v131q37 -14 54 -14t17 33v524h142zM833 678q35 0 60 -24t25 -58t-24.5 -58t-59.5 -24q-36 0 -60.5 24t-24.5 59q0 33 25 57t59 24z" />
    <glyph glyph-name="uni01CC" unicode="&#x1cc;" horiz-adv-x="755" 
d="M189 443v-18q43 35 98 35q46 0 85.5 -23t62.5 -62q28 -49 28 -135v-240h-142v233q0 57 -13 78t-48 21q-44 0 -59 -28q-12 -20 -12 -80v-224h-142v443h142zM707 443v-530q0 -75 -35.5 -116.5t-99.5 -41.5q-36 0 -78 14v131q37 -14 54 -14t17 33v524h142zM635 678
q35 0 60 -24t25 -58t-24.5 -58t-59.5 -24q-36 0 -60.5 24t-24.5 59q0 33 25 57t59 24z" />
    <glyph glyph-name="uni01CD" unicode="&#x1cd;" horiz-adv-x="649" 
d="M451 147h-253l-51 -147h-156l249 667h170l249 -667h-157zM403 284l-79 225l-78 -225h157zM238 902l87 -78l86 78l108 -50l-152 -155h-84l-153 155z" />
    <glyph glyph-name="uni01CE" unicode="&#x1ce;" horiz-adv-x="543" 
d="M496 0h-143v22q-53 -39 -111 -39q-93 0 -158.5 70t-65.5 169t65.5 168.5t158.5 69.5q58 0 111 -39v22h143v-443zM257 332q-43 0 -69.5 -31t-26.5 -81q0 -48 27.5 -78.5t70.5 -30.5q44 0 70 30.5t26 81.5q0 49 -27 79t-71 30zM344 702l107 -49l-151 -155h-84l-152 155
l107 49l87 -82z" />
    <glyph glyph-name="uni01CF" unicode="&#x1cf;" horiz-adv-x="276" 
d="M213 667v-667h-148v667h148zM52 902l87 -78l86 78l108 -50l-152 -155h-85l-152 155z" />
    <glyph glyph-name="uni01D0" unicode="&#x1d0;" horiz-adv-x="238" 
d="M190 443v-443h-142v443h142zM205 702l107 -49l-151 -155h-84l-152 155l107 49l87 -82z" />
    <glyph glyph-name="uni01D1" unicode="&#x1d1;" horiz-adv-x="763" 
d="M381 684q147 0 251.5 -103t104.5 -248t-105 -247.5t-253 -102.5q-146 0 -249.5 104.5t-103.5 251.5q0 139 106 242t249 103zM380 546q-86 0 -145.5 -62.5t-59.5 -153.5q0 -85 61.5 -147t144.5 -62q85 0 146 62.5t61 149.5q0 89 -60.5 151t-147.5 62zM295 902l86 -78
l87 78l108 -50l-152 -155h-85l-152 155z" />
    <glyph glyph-name="uni01D2" unicode="&#x1d2;" horiz-adv-x="520" 
d="M263 460q99 0 168.5 -69.5t69.5 -168.5q0 -100 -70 -169.5t-171 -69.5t-171 69.5t-70 169.5q0 101 70 169.5t174 68.5zM259 332q-43 0 -70 -30.5t-27 -79.5q0 -50 27 -80.5t71 -30.5t71 30.5t27 80.5t-27 80t-72 30zM346 702l108 -49l-152 -155h-84l-152 155l108 49
l86 -82z" />
    <glyph glyph-name="uni01D3" unicode="&#x1d3;" horiz-adv-x="645" 
d="M212 667v-408q0 -68 13 -90q12 -21 39.5 -34.5t57.5 -13.5t58 14t40 34q13 22 13 90v408h148v-426q0 -84 -30 -135q-33 -56 -94.5 -89.5t-133.5 -33.5t-134 33.5t-95 89.5q-30 51 -30 135v426h148zM236 902l86 -78l87 78l108 -50l-152 -155h-85l-152 155z" />
    <glyph glyph-name="uni01D4" unicode="&#x1d4;" horiz-adv-x="511" 
d="M321 0v18q-43 -35 -98 -35q-46 0 -85.5 23t-62.5 62q-28 49 -28 135v240h142v-233q0 -56 13.5 -77.5t48.5 -21.5q43 0 58 28q12 20 12 80v224h142v-443h-142zM342 702l107 -49l-152 -155h-84l-152 155l108 49l86 -82z" />
    <glyph glyph-name="Gcaron" unicode="&#x1e6;" horiz-adv-x="729" 
d="M369 380h332v-69q0 -106 -43 -181q-41 -70 -112 -108.5t-160 -38.5q-150 0 -255 102t-105 248t105 248.5t254 102.5q77 0 140 -28.5t134 -95.5l-105 -98q-48 47 -85 65.5t-85 18.5q-89 0 -149 -61t-60 -152q0 -89 61 -150.5t149 -61.5q129 0 162 124h-178v135zM300 902
l87 -78l86 78l108 -50l-152 -155h-85l-152 155z" />
    <glyph glyph-name="gcaron" unicode="&#x1e7;" horiz-adv-x="543" 
d="M354 -9v31q-55 -39 -111 -39q-93 0 -158.5 69.5t-65.5 169.5q0 99 65.5 168.5t158.5 69.5q56 0 111 -39v22h142v-452q0 -107 -68 -174t-176 -67q-68 0 -122 28.5t-108 92.5l97 91l6 -7q4 -4 8 -10q54 -67 119 -67q49 0 75.5 29.5t26.5 83.5zM258 332q-43 0 -69.5 -31
t-26.5 -81q0 -48 27 -78.5t70 -30.5q44 0 70 30.5t26 81.5q0 50 -26.5 79.5t-70.5 29.5zM344 702l107 -49l-151 -155h-84l-152 155l107 49l87 -82z" />
    <glyph glyph-name="uni01F4" unicode="&#x1f4;" horiz-adv-x="729" 
d="M369 380h332v-69q0 -106 -43 -181q-41 -70 -112 -108.5t-160 -38.5q-150 0 -255 102t-105 248t105 248.5t254 102.5q77 0 140 -28.5t134 -95.5l-105 -98q-48 47 -85 65.5t-85 18.5q-89 0 -149 -61t-60 -152q0 -89 61 -150.5t149 -61.5q129 0 162 124h-178v135zM571 854
l-172 -161l-96 51l137 175z" />
    <glyph glyph-name="uni01F5" unicode="&#x1f5;" horiz-adv-x="543" 
d="M354 -9v31q-55 -39 -111 -39q-93 0 -158.5 69.5t-65.5 169.5q0 99 65.5 168.5t158.5 69.5q56 0 111 -39v22h142v-452q0 -107 -68 -174t-176 -67q-68 0 -122 28.5t-108 92.5l97 91l6 -7q4 -4 8 -10q54 -67 119 -67q49 0 75.5 29.5t26.5 83.5zM258 332q-43 0 -69.5 -31
t-26.5 -81q0 -48 27 -78.5t70 -30.5q44 0 70 30.5t26 81.5q0 50 -26.5 79.5t-70.5 29.5zM435 644l-172 -160l-96 51l137 175z" />
    <glyph glyph-name="Aringacute" unicode="&#x1fa;" horiz-adv-x="649" 
d="M459 1016l-114 -99q44 -8 72.5 -38.5t28.5 -70.5q0 -46 -35.5 -78.5t-85.5 -32.5q-49 0 -85 32.5t-36 77.5q0 48 39 82l-51 25l136 163zM325 856q-22 0 -37 -14.5t-15 -34.5q0 -19 15.5 -33.5t36.5 -14.5q22 0 37 14.5t15 34.5t-15 34t-37 14zM451 147h-253l-51 -147
h-156l249 667h170l249 -667h-157zM403 284l-79 225l-78 -225h157z" />
    <glyph glyph-name="aringacute" unicode="&#x1fb;" horiz-adv-x="543" 
d="M420 854l-155 -145q50 -2 84 -36.5t34 -82.5q0 -49 -35.5 -84t-85.5 -35t-85.5 35t-35.5 84q0 39 24.5 71.5t62.5 42.5l-76 40l137 175zM262 641q-22 0 -37 -15t-15 -37q0 -21 15.5 -36t36.5 -15q22 0 37 15t15 37q0 21 -15 36t-37 15zM496 0h-143v22q-53 -39 -111 -39
q-93 0 -158.5 70t-65.5 169t65.5 168.5t158.5 69.5q58 0 111 -39v22h143v-443zM257 332q-43 0 -69.5 -31t-26.5 -81q0 -48 27.5 -78.5t70.5 -30.5q44 0 70 30.5t26 81.5q0 49 -27 79t-71 30z" />
    <glyph glyph-name="AEacute" unicode="&#x1fc;" horiz-adv-x="850" 
d="M420 147h-187l-76 -147h-166l353 667h468v-136h-245v-125h218v-136h-218v-133h254v-137h-401v147zM420 284v215h-3l-112 -215h115zM704 854l-172 -161l-96 51l137 175z" />
    <glyph glyph-name="aeacute" unicode="&#x1fd;" horiz-adv-x="786" 
d="M98 293l-74 92q57 41 105.5 58.5t107.5 17.5q103 0 158 -55q64 55 145 55q100 0 164 -70t64 -178q0 -19 -2 -38h-309q24 -68 88 -68q55 0 84 45l127 -49q-77 -120 -211 -120q-83 0 -147 52q-56 -52 -161 -52q-98 0 -158 43.5t-60 113.5q0 66 55 104.5t149 38.5h82
q-19 55 -74 55q-63 0 -133 -45zM458 268h169q-21 70 -85 70q-67 0 -84 -70zM312 189h-76q-77 0 -77 -42q0 -43 76 -43q77 0 77 50v35zM565 644l-172 -160l-96 51l137 175z" />
    <glyph glyph-name="Oslashacute" unicode="&#x1fe;" horiz-adv-x="771" 
d="M732 592l-58 -56q67 -91 67 -203q0 -144 -104.5 -247t-250.5 -103q-119 0 -210 69l-57 -55l-81 78l58 56q-66 94 -66 202q0 145 104.5 248t252.5 103q108 0 208 -69l57 55zM568 433l-288 -281q51 -31 106 -31q85 0 145.5 62.5t60.5 149.5q0 52 -24 100zM203 234l289 281
q-49 31 -106 31q-86 0 -146.5 -62t-60.5 -151q0 -54 24 -99zM567 854l-171 -161l-96 51l136 175z" />
    <glyph glyph-name="oslashacute" unicode="&#x1ff;" horiz-adv-x="533" 
d="M26 64l35 32q-35 59 -35 125q0 101 69.5 170t171.5 69q80 0 140 -43l31 30l70 -68l-35 -32q35 -61 35 -125q0 -101 -70 -170t-172 -69q-74 0 -139 43l-31 -29zM171 198l136 127q-19 8 -41 8q-44 0 -71 -31t-27 -80q0 -14 3 -24zM363 245l-136 -127q21 -8 40 -8
q44 0 71.5 31.5t27.5 83.5q0 13 -3 20zM443 644l-172 -160l-96 51l137 175z" />
    <glyph glyph-name="uni0200" unicode="&#x200;" horiz-adv-x="649" 
d="M233 860l108 57l136 -174l-84 -48l-126 118l53 -75l-74 -43l-171 160l118 62zM451 147h-253l-51 -147h-156l249 667h170l249 -667h-157zM403 284l-79 225l-78 -225h157z" />
    <glyph glyph-name="uni0201" unicode="&#x201;" horiz-adv-x="543" 
d="M161 649l108 57l136 -174l-84 -48l-126 118l53 -75l-74 -43l-171 160l118 62zM496 0h-143v22q-53 -39 -111 -39q-93 0 -158.5 70t-65.5 169t65.5 168.5t158.5 69.5q58 0 111 -39v22h143v-443zM257 332q-43 0 -69.5 -31t-26.5 -81q0 -48 27.5 -78.5t70.5 -30.5
q44 0 70 30.5t26 81.5q0 49 -27 79t-71 30z" />
    <glyph glyph-name="Scommaaccent" unicode="&#x218;" horiz-adv-x="530" 
d="M491 549l-122 -77q-30 46 -48.5 60.5t-49.5 14.5q-30 0 -50.5 -19t-20.5 -47q0 -35 67 -59l60 -23q88 -33 129 -80t41 -115q0 -93 -68.5 -157t-168.5 -64q-55 0 -103.5 22t-78.5 60q-37 48 -54 126l145 39l2 -8l4 -16q21 -85 87 -85q36 0 61 24t25 58q0 22 -18 38t-65 34
l-58 22q-154 58 -154 185q0 86 64 144t159 58q71 0 121.5 -32t93.5 -103zM382 -67l-142 -167l-103 47l117 171z" />
    <glyph glyph-name="scommaaccent" unicode="&#x219;" horiz-adv-x="394" 
d="M168 -16l133 -38l-91 -195l-106 30zM14 117l122 43q29 -53 65 -53q14 0 23 7.5t9 20.5q0 10 -7 16t-27 14l-74 30q-38 16 -60 47.5t-22 70.5q0 63 48 105t119 42q106 0 164 -102l-114 -52q-23 32 -51 32q-30 0 -30 -22q0 -8 6.5 -13t24.5 -13l62 -24q103 -39 103 -124
q0 -68 -50.5 -113.5t-125.5 -45.5q-131 0 -185 134z" />
    <glyph glyph-name="uni021A" unicode="&#x21a;" horiz-adv-x="443" 
d="M452 667v-137h-156v-530h-148v530h-157v137h461zM183 -16l133 -38l-91 -195l-107 30z" />
    <glyph glyph-name="uni021B" unicode="&#x21b;" horiz-adv-x="282" 
d="M192 316v-162q0 -32 17 -32q18 0 54 14v-131q-45 -14 -79 -14q-63 0 -98.5 41.5t-35.5 116.5v167h-44v127h44v89l142 55v-144h65v-127h-65zM101 -16l132 -38l-90 -195l-107 30z" />
    <glyph glyph-name="uni0226" unicode="&#x226;" horiz-adv-x="649" 
d="M451 147h-253l-51 -147h-156l249 667h170l249 -667h-157zM403 284l-79 225l-78 -225h157zM324 881q35 0 60 -24t25 -58t-25 -58t-60 -24t-59.5 24t-24.5 59q0 33 25 57t59 24z" />
    <glyph glyph-name="uni0227" unicode="&#x227;" horiz-adv-x="543" 
d="M496 0h-143v22q-53 -39 -111 -39q-93 0 -158.5 70t-65.5 169t65.5 168.5t158.5 69.5q58 0 111 -39v22h143v-443zM257 332q-43 0 -69.5 -31t-26.5 -81q0 -48 27.5 -78.5t70.5 -30.5q44 0 70 30.5t26 81.5q0 49 -27 79t-71 30zM257 678q35 0 60 -24t25 -58t-25 -58t-60 -24
t-59.5 24t-24.5 59q0 33 25 57t59 24z" />
    <glyph glyph-name="uni0237" unicode="&#x237;" horiz-adv-x="244" 
d="M196 443v-530q0 -75 -35.5 -116.5t-99.5 -41.5q-36 0 -78 14v131q37 -14 54 -14t17 33v524h142z" />
    <glyph glyph-name="uni02BB" unicode="&#x2bb;" horiz-adv-x="279" 
d="M158 433l-127 42l126 264l104 -38z" />
    <glyph glyph-name="afii57929" unicode="&#x2bc;" horiz-adv-x="317" 
d="M146 742l130 -47l-128 -287l-107 42z" />
    <glyph glyph-name="circumflex" unicode="&#x2c6;" horiz-adv-x="476" 
d="M324 486l-86 81l-87 -81l-107 49l152 155h84l151 -155z" />
    <glyph glyph-name="caron" unicode="&#x2c7;" horiz-adv-x="476" 
d="M324 702l107 -49l-151 -155h-84l-152 155l107 49l87 -82z" />
    <glyph glyph-name="uni02C9" unicode="&#x2c9;" horiz-adv-x="476" 
d="M70 649h336v-117h-336v117z" />
    <glyph glyph-name="breve" unicode="&#x2d8;" horiz-adv-x="476" 
d="M73 669l123 10q1 -53 10 -64q10 -13 29 -13q24 0 36 23q3 6 9 53l123 -9q-6 -49 -8.5 -60.5t-11.5 -28.5q-45 -89 -147 -89q-54 0 -96.5 28.5t-58.5 74.5q-7 20 -8 75z" />
    <glyph glyph-name="dotaccent" unicode="&#x2d9;" horiz-adv-x="476" 
d="M237 678q35 0 60 -24t25 -58t-24.5 -58t-59.5 -24q-36 0 -60.5 24t-24.5 59q0 33 25 57t59 24z" />
    <glyph glyph-name="ring" unicode="&#x2da;" horiz-adv-x="476" 
d="M238 710q50 0 85.5 -35t35.5 -84q0 -50 -35.5 -84.5t-86.5 -34.5q-50 0 -85 35.5t-35 85.5q0 47 36 82t85 35zM238 643q-22 0 -37 -15.5t-15 -37.5q0 -20 15.5 -35.5t36.5 -15.5q22 0 37 15t15 37t-15 37t-37 15z" />
    <glyph glyph-name="ogonek" unicode="&#x2db;" horiz-adv-x="476" 
d="M317 0h142q-28 -37 -28 -54q0 -6 8 -6q12 0 35 12l43 -101q-71 -24 -103 -24q-54 0 -89 29t-35 73q0 32 27 71z" />
    <glyph glyph-name="tilde" unicode="&#x2dc;" horiz-adv-x="476" 
d="M290 673l118 -26q-4 -55 -21 -83q-28 -46 -90 -46q-39 0 -81 20q-10 6 -19 6q-7 0 -13 -34l-115 25q5 54 24 84q28 46 85 46q42 0 85 -24q10 -5 16 -5q9 0 11 37z" />
    <glyph glyph-name="hungarumlaut" unicode="&#x2dd;" horiz-adv-x="476" 
d="M324 648l41 58l115 -62l-171 -160l-72 42l65 91l-143 -133l-81 48l136 174z" />
    <glyph glyph-name="uni0309" unicode="&#x309;" horiz-adv-x="476" 
d="M333 706h-127q1 40 4 52.5t15 28.5q7 7 7 11q0 5 -9 5q-10 0 -26 -7l-10 -5l-43 101q70 24 104 24q55 0 89 -25.5t34 -66.5q0 -32 -20 -61l-16 -23q-2 0 -2 -24v-10z" />
    <glyph glyph-name="uni0323" unicode="&#x323;" horiz-adv-x="476" 
d="M238 -34q35 0 59.5 -24t24.5 -58t-24.5 -58t-59.5 -24q-36 0 -60.5 24t-24.5 59q0 33 25 57t60 24z" />
    <glyph glyph-name="uni037E" unicode="&#x37e;" horiz-adv-x="277" 
d="M113 140l130 -47l-128 -287l-107 42zM155 431q35 0 60 -24t25 -58t-24.5 -58t-59.5 -24q-36 0 -60.5 24t-24.5 59q0 33 25 57t59 24z" />
    <glyph glyph-name="uni0387" unicode="&#x387;" horiz-adv-x="266" 
d="M132 415q35 0 60 -24t25 -58t-25 -58t-60 -24t-59.5 24t-24.5 59q0 33 25 57t59 24z" />
    <glyph glyph-name="uni1E1E" unicode="&#x1e1e;" horiz-adv-x="457" 
d="M435 667v-136h-223v-125h203v-137h-203v-269h-148v667h371zM249 881q35 0 60 -24t25 -58t-24.5 -58t-59.5 -24q-36 0 -60.5 24t-24.5 59q0 33 25 57t59 24z" />
    <glyph glyph-name="uni1E1F" unicode="&#x1e1f;" horiz-adv-x="275" 
d="M198 316v-316h-142v316h-40v127h40v75q0 76 35.5 117t101.5 41q35 0 75 -9v-127q-27 9 -43 9q-27 0 -27 -34v-72h72v-127h-72zM167 875q35 0 60 -24t25 -58t-24.5 -58t-59.5 -24q-36 0 -60.5 24t-24.5 59q0 33 25 57t59 24z" />
    <glyph glyph-name="Wgrave" unicode="&#x1e80;" horiz-adv-x="877" 
d="M145 667l116 -394l117 394h121l117 -395l116 395h154l-200 -667h-130l-117 395l-118 -395h-129l-201 667h154zM261 854l131 65l137 -175l-96 -51z" />
    <glyph glyph-name="wgrave" unicode="&#x1e81;" horiz-adv-x="654" 
d="M-15 443h149l71 -213l69 213h106l70 -213l71 213h148l-159 -443h-114l-69 209l-69 -209h-114zM149 644l131 66l137 -175l-96 -51z" />
    <glyph glyph-name="Wacute" unicode="&#x1e82;" horiz-adv-x="877" 
d="M145 667l116 -394l117 394h121l117 -395l116 395h154l-200 -667h-130l-117 395l-118 -395h-129l-201 667h154zM621 854l-172 -161l-96 51l137 175z" />
    <glyph glyph-name="wacute" unicode="&#x1e83;" horiz-adv-x="655" 
d="M-15 443h149l71 -213l69 213h106l70 -213l71 213h148l-159 -443h-114l-69 209l-69 -209h-114zM469 644l-171 -160l-97 51l137 175z" />
    <glyph glyph-name="Wdieresis" unicode="&#x1e84;" horiz-adv-x="877" 
d="M145 667l116 -394l117 394h121l117 -395l116 395h154l-200 -667h-130l-117 395l-118 -395h-129l-201 667h154zM533 876q32 0 55 -22.5t23 -54.5q0 -31 -23 -53.5t-55 -22.5q-34 0 -56.5 22.5t-22.5 55.5q0 31 23.5 53t55.5 22zM345 876q32 0 55 -22.5t23 -54.5t-23 -54
t-56 -22t-55.5 22.5t-22.5 55.5q0 31 23.5 53t55.5 22z" />
    <glyph glyph-name="wdieresis" unicode="&#x1e85;" horiz-adv-x="654" 
d="M-15 443h149l71 -213l69 213h106l70 -213l71 213h148l-159 -443h-114l-69 209l-69 -209h-114zM422 673q32 0 55 -22.5t23 -53.5q0 -32 -23 -54.5t-56 -22.5q-32 0 -55 23t-23 55q0 31 23.5 53t55.5 22zM233 673q32 0 55 -22.5t23 -53.5q0 -32 -23 -54.5t-55 -22.5
q-33 0 -56 22.5t-23 55.5q0 31 23.5 53t55.5 22z" />
    <glyph glyph-name="uni1EA0" unicode="&#x1ea0;" horiz-adv-x="649" 
d="M451 147h-253l-51 -147h-156l249 667h170l249 -667h-157zM403 284l-79 225l-78 -225h157zM325 -34q35 0 59.5 -24t24.5 -58t-24.5 -58t-59.5 -24q-36 0 -60.5 24t-24.5 59q0 33 25 57t60 24z" />
    <glyph glyph-name="uni1EA1" unicode="&#x1ea1;" horiz-adv-x="543" 
d="M496 0h-143v22q-53 -39 -111 -39q-93 0 -158.5 70t-65.5 169t65.5 168.5t158.5 69.5q58 0 111 -39v22h143v-443zM257 332q-43 0 -69.5 -31t-26.5 -81q0 -48 27.5 -78.5t70.5 -30.5q44 0 70 30.5t26 81.5q0 49 -27 79t-71 30zM269 -34q35 0 60 -24t25 -58t-24.5 -58
t-59.5 -24q-36 0 -60.5 24t-24.5 59q0 33 25 57t59 24z" />
    <glyph glyph-name="uni1EA2" unicode="&#x1ea2;" horiz-adv-x="649" 
d="M395 706h-127q2 42 4.5 53.5t15.5 27.5q7 7 7 11q0 5 -9 5q-10 0 -26 -7q-6 -3 -11 -5l-43 101q72 24 105 24q55 0 89 -25.5t34 -66.5q0 -31 -21 -61l-16 -23q-1 -1 -1 -10l-1 -6v-8v-7v-3zM451 147h-253l-51 -147h-156l249 667h170l249 -667h-157zM403 284l-79 225
l-78 -225h157z" />
    <glyph glyph-name="uni1EA3" unicode="&#x1ea3;" horiz-adv-x="543" 
d="M496 0h-143v22q-53 -39 -111 -39q-93 0 -158.5 70t-65.5 169t65.5 168.5t158.5 69.5q58 0 111 -39v22h143v-443zM257 332q-43 0 -69.5 -31t-26.5 -81q0 -48 27.5 -78.5t70.5 -30.5q44 0 70 30.5t26 81.5q0 49 -27 79t-71 30zM333 499h-127q1 40 4 52.5t15 27.5q7 9 7 12
q0 5 -9 5q-10 0 -26 -7l-10 -5l-43 101q70 24 104 24q55 0 89 -25.5t34 -66.5q0 -30 -20 -61l-16 -23q-2 -4 -2 -25v-9z" />
    <glyph glyph-name="uni1EA4" unicode="&#x1ea4;" horiz-adv-x="649" 
d="M478 786l41 -42l-108 -50l-86 81l-87 -81l-108 50l153 155h84l29 -30l78 101l131 -66zM451 147h-253l-51 -147h-156l249 667h170l249 -667h-157zM403 284l-79 225l-78 -225h157z" />
    <glyph glyph-name="uni1EA5" unicode="&#x1ea5;" horiz-adv-x="543" 
d="M328 655l118 150l131 -65l-172 -160l-7 3l53 -54l-107 -49l-86 82l-87 -82l-107 49l152 155h84zM496 0h-143v22q-53 -39 -111 -39q-93 0 -158.5 70t-65.5 169t65.5 168.5t158.5 69.5q58 0 111 -39v22h143v-443zM257 332q-43 0 -69.5 -31t-26.5 -81q0 -48 27.5 -78.5
t70.5 -30.5q44 0 70 30.5t26 81.5q0 49 -27 79t-71 30z" />
    <glyph glyph-name="uni1EA6" unicode="&#x1ea6;" horiz-adv-x="649" 
d="M451 147h-253l-51 -147h-156l249 667h170l249 -667h-157zM403 284l-79 225l-78 -225h157zM348 929l131 66l137 -175l-96 -51zM389 694l-86 78l-87 -78l-108 50l152 155h85l152 -155z" />
    <glyph glyph-name="uni1EA7" unicode="&#x1ea7;" horiz-adv-x="543" 
d="M277 684l152 -154l-107 -50l-87 82l-86 -82l-107 50l152 154h83zM496 0h-143v22q-53 -39 -111 -39q-93 0 -158.5 70t-65.5 169t65.5 168.5t158.5 69.5q58 0 111 -39v22h143v-443zM257 332q-43 0 -69.5 -31t-26.5 -81q0 -48 27.5 -78.5t70.5 -30.5q44 0 70 30.5t26 81.5
q0 49 -27 79t-71 30zM255 732l132 66l136 -175l-96 -51z" />
    <glyph glyph-name="uni1EA8" unicode="&#x1ea8;" horiz-adv-x="649" 
d="M481 783l38 -39l-108 -50l-86 78l-87 -78l-108 50l153 155h84l70 -71l3 7v3q4 12 6 16l6 11h1q6 8 6 11q0 4 -9 4q-10 0 -26 -8q-6 -2 -11 -4l-42 100q70 25 105 25q55 0 88.5 -25.5t33.5 -67.5q0 -30 -21 -60l-16 -23q-1 -2 -1 -10l-1 -6v-9v-9h-78zM451 147h-253
l-51 -147h-156l249 667h170l249 -667h-157zM403 284l-79 225l-78 -225h157z" />
    <glyph glyph-name="uni1EA9" unicode="&#x1ea9;" horiz-adv-x="543" 
d="M300 684l47 -48l2 4l4 10q3 12 14 24q4 6 4 7q0 5 -9 5q-10 0 -26 -7q-6 -3 -11 -4l-43 100q73 24 105 24q55 0 89 -25.5t34 -66.5q0 -29 -21 -60l-16 -24q-1 -1 -1 -9l-1 -7v-9v-9h-78l58 -60l-107 -50l-86 82l-87 -82l-107 50l152 155h84zM496 0h-143v22
q-53 -39 -111 -39q-93 0 -158.5 70t-65.5 169t65.5 168.5t158.5 69.5q58 0 111 -39v22h143v-443zM257 332q-43 0 -69.5 -31t-26.5 -81q0 -48 27.5 -78.5t70.5 -30.5q44 0 70 30.5t26 81.5q0 49 -27 79t-71 30z" />
    <glyph glyph-name="uni1EAA" unicode="&#x1eaa;" horiz-adv-x="649" 
d="M451 147h-253l-51 -147h-156l249 667h170l249 -667h-157zM403 284l-79 225l-78 -225h157zM238 689l-108 46l152 145h85l152 -145l-108 -46l-86 73zM376 1038l118 -24q-4 -50 -19 -76q-13 -20 -38 -32.5t-54 -12.5q-42 0 -81 19q-12 5 -18 5q-8 0 -13 -31l-116 23
q5 48 23 76q13 20 36.5 32.5t49.5 12.5q41 0 85 -22q12 -5 17 -5q8 0 10 35z" />
    <glyph glyph-name="uni1EAB" unicode="&#x1eab;" horiz-adv-x="543" 
d="M496 0h-143v22q-53 -39 -111 -39q-93 0 -158.5 70t-65.5 169t65.5 168.5t158.5 69.5q58 0 111 -39v22h143v-443zM257 332q-43 0 -69.5 -31t-26.5 -81q0 -48 27.5 -78.5t70.5 -30.5q44 0 70 30.5t26 81.5q0 49 -27 79t-71 30zM171 491l-108 46l152 145h85l152 -145
l-108 -46l-87 73zM309 843l118 -24q-4 -50 -19 -76q-13 -20 -38 -32.5t-54 -12.5q-40 0 -81 19q-12 5 -18 5q-5 0 -7 -5t-6 -26l-116 24q5 49 22 75q13 20 37 32.5t50 12.5q41 0 85 -22q12 -5 17 -5q8 0 10 35z" />
    <glyph glyph-name="uni1EAC" unicode="&#x1eac;" horiz-adv-x="649" 
d="M451 147h-253l-51 -147h-156l249 667h170l249 -667h-157zM403 284l-79 225l-78 -225h157zM325 -34q35 0 59.5 -24t24.5 -58t-24.5 -58t-59.5 -24q-36 0 -60.5 24t-24.5 59q0 33 25 57t60 24zM238 694l-108 50l153 155h84l152 -155l-108 -50l-86 78z" />
    <glyph glyph-name="uni1EAD" unicode="&#x1ead;" horiz-adv-x="543" 
d="M496 0h-143v22q-53 -39 -111 -39q-93 0 -158.5 70t-65.5 169t65.5 168.5t158.5 69.5q58 0 111 -39v22h143v-443zM257 332q-43 0 -69.5 -31t-26.5 -81q0 -48 27.5 -78.5t70.5 -30.5q44 0 70 30.5t26 81.5q0 49 -27 79t-71 30zM265 -34q35 0 60 -24t25 -58t-24.5 -58
t-59.5 -24q-36 0 -60.5 24t-24.5 59q0 33 25 57t59 24zM344 486l-86 81l-87 -81l-107 49l152 155h84l151 -155z" />
    <glyph glyph-name="uni1EAE" unicode="&#x1eae;" horiz-adv-x="649" 
d="M160 861l123 9l1 -19v-9q3 -41 39 -41q23 0 32 17q7 14 12 52l123 -9q-6 -45 -8.5 -55t-10.5 -26q-44 -85 -148 -85q-55 0 -97.5 27t-58.5 71q-6 18 -7 68zM494 1003l-171 -149l-96 47l136 163zM451 147h-253l-51 -147h-156l249 667h170l249 -667h-157zM403 284l-79 225
l-78 -225h157z" />
    <glyph glyph-name="uni1EAF" unicode="&#x1eaf;" horiz-adv-x="543" 
d="M496 0h-143v22q-53 -39 -111 -39q-93 0 -158.5 70t-65.5 169t65.5 168.5t158.5 69.5q58 0 111 -39v22h143v-443zM257 332q-43 0 -69.5 -31t-26.5 -81q0 -48 27.5 -78.5t70.5 -30.5q44 0 70 30.5t26 81.5q0 49 -27 79t-71 30zM93 658l123 9q2 -47 9 -56q10 -13 31 -13
q23 0 32 17q6 10 13 52l122 -9q-5 -43 -7.5 -53.5t-10.5 -27.5q-46 -85 -149 -85q-55 0 -97.5 27t-58.5 71q-5 14 -7 68zM429 805l-171 -150l-96 48l136 163z" />
    <glyph glyph-name="uni1EB0" unicode="&#x1eb0;" horiz-adv-x="649" 
d="M160 861l123 9q2 -47 9 -56q10 -13 30 -13q30 0 39 32l3 16l3 21l123 -9q-6 -45 -8.5 -55t-10.5 -26q-44 -85 -148 -85q-55 0 -97.5 27t-58.5 71q-6 18 -7 68zM149 1003l132 61l136 -163l-96 -47zM451 147h-253l-51 -147h-156l249 667h170l249 -667h-157zM403 284
l-79 225l-78 -225h157z" />
    <glyph glyph-name="uni1EB1" unicode="&#x1eb1;" horiz-adv-x="543" 
d="M93 658l123 9q2 -47 9 -56q10 -13 31 -13q23 0 32 17q6 10 13 52l122 -9q-5 -43 -7.5 -53.5t-10.5 -27.5q-46 -85 -149 -85q-55 0 -97.5 27t-58.5 71q-5 14 -7 68zM82 805l131 61l136 -163l-96 -48zM496 0h-143v22q-53 -39 -111 -39q-93 0 -158.5 70t-65.5 169
t65.5 168.5t158.5 69.5q58 0 111 -39v22h143v-443zM257 332q-43 0 -69.5 -31t-26.5 -81q0 -48 27.5 -78.5t70.5 -30.5q44 0 70 30.5t26 81.5q0 49 -27 79t-71 30z" />
    <glyph glyph-name="uni1EB2" unicode="&#x1eb2;" horiz-adv-x="649" 
d="M160 863l108 8q1 37 4 47.5t15 24.5q7 7 7 11q0 5 -9 5q-10 0 -26 -7q-6 -2 -10 -4l-43 93q72 23 104 23q55 0 89 -24t34 -62q0 -30 -20 -56l-16 -22l-2 -9v-6v-9v-7l95 -6q-8 -60 -18 -81q-22 -40 -61 -62.5t-88 -22.5q-55 0 -97.5 27t-58.5 71q-6 18 -7 68zM283 868v-3
l1 -22q3 -40 39 -40q23 0 32 17q6 9 11 45l1 3h-84zM451 147h-253l-51 -147h-156l249 667h170l249 -667h-157zM403 284l-79 225l-78 -225h157z" />
    <glyph glyph-name="uni1EB3" unicode="&#x1eb3;" horiz-adv-x="543" 
d="M93 658l123 9q2 -47 9 -56q10 -13 31 -13q23 0 32 17q6 10 13 52l122 -9q-8 -60 -18 -81q-21 -40 -60 -62.5t-89 -22.5q-55 0 -97.5 27t-58.5 71q-5 14 -7 68zM328 674h-127q2 38 4.5 49.5t15.5 25.5q7 7 7 12q0 4 -9 4q-10 0 -26 -7q-6 -2 -11 -4l-43 93q70 23 105 23
q55 0 89 -24t34 -62q0 -27 -21 -56l-16 -22q-1 -1 -1 -9l-1 -6v-9v-8zM496 0h-143v22q-53 -39 -111 -39q-93 0 -158.5 70t-65.5 169t65.5 168.5t158.5 69.5q58 0 111 -39v22h143v-443zM257 332q-43 0 -69.5 -31t-26.5 -81q0 -48 27.5 -78.5t70.5 -30.5q44 0 70 30.5t26 81.5
q0 49 -27 79t-71 30z" />
    <glyph glyph-name="uni1EB4" unicode="&#x1eb4;" horiz-adv-x="649" 
d="M160 863l122 9q2 -46 10 -56q10 -13 30 -13q24 0 33 17q7 14 12 51l123 -8q-6 -45 -8.5 -55t-10.5 -26q-21 -40 -60 -62.5t-89 -22.5q-54 0 -97 27t-58 71q-6 15 -7 68zM376 1030l118 -23q-4 -50 -19 -76q-27 -45 -91 -45q-41 0 -82 19q-11 6 -18 6q-5 0 -7.5 -6
t-5.5 -27l-116 24q5 48 23 76q29 45 90 45q41 0 76 -19q13 -8 21 -8q9 0 11 34zM451 147h-253l-51 -147h-156l249 667h170l249 -667h-157zM403 284l-79 225l-78 -225h157z" />
    <glyph glyph-name="uni1EB5" unicode="&#x1eb5;" horiz-adv-x="543" 
d="M95 661l122 9q2 -46 10 -56q10 -13 30 -13q24 0 32 17q6 10 13 51l123 -8q-6 -45 -8.5 -55t-10.5 -26q-21 -40 -60 -62.5t-89 -22.5q-54 0 -97 27t-58 71q-6 15 -7 68zM311 831l118 -23q-4 -50 -19 -76q-13 -20 -38 -32.5t-54 -12.5q-40 0 -81 19q-10 6 -19 6
q-7 0 -12 -32l-116 23q5 50 22 76q29 45 90 45q44 0 77 -19q13 -8 21 -8t11 34zM496 0h-143v22q-53 -39 -111 -39q-93 0 -158.5 70t-65.5 169t65.5 168.5t158.5 69.5q58 0 111 -39v22h143v-443zM257 332q-43 0 -69.5 -31t-26.5 -81q0 -48 27.5 -78.5t70.5 -30.5
q44 0 70 30.5t26 81.5q0 49 -27 79t-71 30z" />
    <glyph glyph-name="uni1EB6" unicode="&#x1eb6;" horiz-adv-x="649" 
d="M451 147h-253l-51 -147h-156l249 667h170l249 -667h-157zM403 284l-79 225l-78 -225h157zM160 878l122 9q2 -49 10 -60q11 -13 30 -13q23 0 32 17q6 11 13 56l123 -9q-6 -49 -8.5 -60.5t-11.5 -28.5q-22 -43 -60.5 -66t-86.5 -23q-54 0 -96.5 28t-59.5 75q-6 17 -7 75z
M325 -34q35 0 59.5 -24t24.5 -58t-24.5 -58t-59.5 -24q-36 0 -60.5 24t-24.5 59q0 33 25 57t60 24z" />
    <glyph glyph-name="uni1EB7" unicode="&#x1eb7;" horiz-adv-x="543" 
d="M496 0h-143v22q-53 -39 -111 -39q-93 0 -158.5 70t-65.5 169t65.5 168.5t158.5 69.5q58 0 111 -39v22h143v-443zM257 332q-43 0 -69.5 -31t-26.5 -81q0 -48 27.5 -78.5t70.5 -30.5q44 0 70 30.5t26 81.5q0 49 -27 79t-71 30zM265 -34q35 0 60 -24t25 -58t-24.5 -58
t-59.5 -24q-36 0 -60.5 24t-24.5 59q0 33 25 57t59 24zM93 669l122 10q2 -48 9.5 -62.5t30.5 -14.5q24 0 35 23q2 4 10 53l123 -9q-6 -49 -8.5 -60.5t-11.5 -28.5q-22 -42 -60.5 -65.5t-87.5 -23.5q-54 0 -96 28t-59 75q-6 17 -7 75z" />
    <glyph glyph-name="uni1EB8" unicode="&#x1eb8;" horiz-adv-x="491" 
d="M456 667v-136h-245v-125h218v-136h-218v-133h254v-137h-401v667h392zM268 -34q35 0 60 -24t25 -58t-24.5 -58t-59.5 -24q-36 0 -60.5 24t-24.5 59q0 33 25 57t59 24z" />
    <glyph glyph-name="uni1EB9" unicode="&#x1eb9;" horiz-adv-x="494" 
d="M336 152l127 -49q-78 -120 -209 -120q-100 0 -167.5 68.5t-67.5 169.5q0 100 66.5 169t163.5 69q98 0 162 -70t64 -177q0 -19 -1 -37h-309q12 -36 32.5 -52t54.5 -16q56 0 84 45zM165 268h169q-12 36 -31.5 52t-52.5 16q-66 0 -85 -68zM249 -34q35 0 59.5 -24t24.5 -58
t-24.5 -58t-59.5 -24q-36 0 -60.5 24t-24.5 59q0 33 25 57t60 24z" />
    <glyph glyph-name="uni1EBA" unicode="&#x1eba;" horiz-adv-x="491" 
d="M456 667v-136h-245v-125h218v-136h-218v-133h254v-137h-401v667h392zM340 706h-128q2 42 4.5 53.5t15.5 27.5q7 7 7 11q0 5 -9 5q-10 0 -26 -7l-10 -5l-43 101q70 24 104 24q55 0 89 -25.5t34 -66.5q0 -30 -20 -61l-17 -23q-1 -2 -1 -10q0 -3 -1 -6v-8q0 -3 1 -10z" />
    <glyph glyph-name="uni1EBB" unicode="&#x1ebb;" horiz-adv-x="494" 
d="M336 152l127 -49q-78 -120 -209 -120q-100 0 -167.5 68.5t-67.5 169.5q0 100 66.5 169t163.5 69q98 0 162 -70t64 -177q0 -19 -1 -37h-309q12 -36 32.5 -52t54.5 -16q56 0 84 45zM165 268h169q-12 36 -31.5 52t-52.5 16q-66 0 -85 -68zM322 499h-127q2 42 4.5 53.5
t15.5 26.5q7 9 7 12q0 5 -9 5q-10 0 -26 -7q-6 -3 -11 -5l-43 101q70 24 105 24q55 0 89 -25.5t34 -66.5q0 -31 -21 -61l-16 -23q-1 -1 -1 -10l-1 -6v-9v-9z" />
    <glyph glyph-name="uni1EBC" unicode="&#x1ebc;" horiz-adv-x="491" 
d="M456 667v-136h-245v-125h218v-136h-218v-133h254v-137h-401v667h392zM298 881l118 -25q-5 -59 -21 -84q-28 -46 -90 -46q-41 0 -81 20q-12 6 -19 6t-13 -34l-115 25q5 54 24 84q28 46 85 46q42 0 85 -24q10 -5 16 -5q8 0 11 37z" />
    <glyph glyph-name="uni1EBD" unicode="&#x1ebd;" horiz-adv-x="494" 
d="M336 152l127 -49q-78 -120 -209 -120q-100 0 -167.5 68.5t-67.5 169.5q0 100 66.5 169t163.5 69q98 0 162 -70t64 -177q0 -19 -1 -37h-309q12 -36 32.5 -52t54.5 -16q56 0 84 45zM165 268h169q-12 36 -31.5 52t-52.5 16q-66 0 -85 -68zM298 673l118 -26q-4 -55 -21 -83
q-26 -46 -90 -46q-39 0 -81 20q-10 6 -18 6q-5 0 -7 -5.5t-6 -28.5l-115 25q5 57 24 84q28 46 85 46q40 0 85 -24q10 -5 16 -5q5 0 6.5 6.5t3.5 30.5z" />
    <glyph glyph-name="uni1EBE" unicode="&#x1ebe;" horiz-adv-x="520" 
d="M462 667v-136h-245v-125h218v-136h-218v-133h254v-137h-401v667h392zM412 786l41 -42l-108 -50l-87 81l-86 -81l-108 50l152 155h85l28 -30l78 101l132 -66z" />
    <glyph glyph-name="uni1EBF" unicode="&#x1ebf;" horiz-adv-x="494" 
d="M321 655l117 150l131 -65l-170 -159l-42 36l86 -88l-107 -49l-86 82l-87 -82l-107 49l152 155h84zM336 152l127 -49q-78 -120 -209 -120q-100 0 -167.5 68.5t-67.5 169.5q0 100 66.5 169t163.5 69q98 0 162 -70t64 -177q0 -19 -1 -37h-309q12 -36 32.5 -52t54.5 -16
q56 0 84 45zM165 268h169q-12 36 -31.5 52t-52.5 16q-66 0 -85 -68z" />
    <glyph glyph-name="uni1EC0" unicode="&#x1ec0;" horiz-adv-x="557" 
d="M469 667v-136h-244v-125h217v-136h-217v-133h254v-137h-401v667h391zM304 929l131 66l137 -175l-96 -51zM345 694l-87 78l-86 -78l-108 50l152 155h85l152 -155z" />
    <glyph glyph-name="uni1EC1" unicode="&#x1ec1;" horiz-adv-x="494" 
d="M336 152l127 -49q-78 -120 -209 -120q-100 0 -167.5 68.5t-67.5 169.5q0 100 66.5 169t163.5 69q98 0 162 -70t64 -177q0 -19 -1 -37h-309q12 -36 32.5 -52t54.5 -16q56 0 84 45zM165 268h169q-12 36 -31.5 52t-52.5 16q-66 0 -85 -68zM273 684l151 -154l-107 -50l-86 82
l-87 -82l-107 50l152 154h84zM251 732l131 66l136 -175l-96 -51z" />
    <glyph glyph-name="uni1EC2" unicode="&#x1ec2;" horiz-adv-x="518" 
d="M415 783l38 -39l-108 -50l-87 78l-86 -78l-108 50l152 155h85l70 -71l2 7q1 1 1 3q4 14 6 16l6 11q7 8 7 11q0 4 -9 4q-10 0 -26 -8q-6 -2 -11 -4l-43 100q71 25 105 25q55 0 89 -25.5t34 -66.5q0 -31 -21 -61l-16 -23q-1 -1 -1 -10l-1 -6v-9v-9h-78zM475 667v-136h-245
v-125h218v-136h-218v-133h254v-137h-401v667h392z" />
    <glyph glyph-name="uni1EC3" unicode="&#x1ec3;" horiz-adv-x="494" 
d="M332 636l2 4l3 10q4 12 14 24q4 6 4 7q0 5 -9 5q-10 0 -26 -7q-5 -3 -10 -4l-43 100q72 24 105 24q55 0 88.5 -25.5t33.5 -66.5q0 -31 -20 -60l-16 -24l-2 -9v-7v-18h-79l59 -60l-107 -50l-87 82l-86 -82l-107 50l152 155h84zM336 152l127 -49q-78 -120 -209 -120
q-100 0 -167.5 68.5t-67.5 169.5q0 100 66.5 169t163.5 69q98 0 162 -70t64 -177q0 -19 -1 -37h-309q12 -36 32.5 -52t54.5 -16q56 0 84 45zM165 268h169q-12 36 -31.5 52t-52.5 16q-66 0 -85 -68z" />
    <glyph glyph-name="uni1EC4" unicode="&#x1ec4;" horiz-adv-x="491" 
d="M456 667v-136h-245v-125h217v-136h-217v-133h254v-137h-401v667h392zM165 689l-108 46l152 145h85l152 -145l-108 -46l-87 73zM303 1038l118 -24q-4 -50 -19 -76q-13 -20 -38 -32.5t-54 -12.5q-42 0 -81 19q-12 5 -18 5q-8 0 -13 -31l-116 23q5 48 23 76q13 20 36.5 32.5
t49.5 12.5q41 0 85 -22q12 -5 17 -5q8 0 10 35z" />
    <glyph glyph-name="uni1EC5" unicode="&#x1ec5;" horiz-adv-x="494" 
d="M336 152l127 -49q-78 -120 -209 -120q-100 0 -167.5 68.5t-67.5 169.5q0 100 66.5 169t163.5 69q98 0 162 -70t64 -177q0 -19 -1 -37h-309q12 -36 32.5 -52t54.5 -16q56 0 84 45zM165 268h169q-12 36 -31.5 52t-52.5 16q-66 0 -85 -68zM163 491l-108 46l152 145h85
l152 -145l-108 -46l-87 73zM301 843l118 -24q-4 -50 -19 -76q-13 -20 -38 -32.5t-54 -12.5q-40 0 -81 19q-12 5 -18 5q-5 0 -7 -5t-7 -26l-115 24q5 49 22 75q30 45 87 45q41 0 85 -22q12 -5 16 -5q9 0 11 35z" />
    <glyph glyph-name="uni1EC6" unicode="&#x1ec6;" horiz-adv-x="491" 
d="M278 -34q35 0 59.5 -24t24.5 -58t-25 -58t-60 -24t-59.5 24t-24.5 59q0 33 25 57t60 24zM178 694l-108 50l153 155h84l152 -155l-108 -50l-86 78zM456 667v-136h-245v-125h218v-136h-218v-133h254v-137h-401v667h392z" />
    <glyph glyph-name="uni1EC7" unicode="&#x1ec7;" horiz-adv-x="494" 
d="M336 152l127 -49q-78 -120 -209 -120q-100 0 -167.5 68.5t-67.5 169.5q0 100 66.5 169t163.5 69q98 0 162 -70t64 -177q0 -19 -1 -37h-309q12 -36 32.5 -52t54.5 -16q56 0 84 45zM165 268h169q-12 36 -31.5 52t-52.5 16q-66 0 -85 -68zM254 -34q35 0 59.5 -24t24.5 -58
t-24.5 -58t-59.5 -24q-36 0 -60.5 24t-24.5 59q0 33 25 57t60 24zM336 486l-87 81l-86 -81l-108 49l152 155h84l152 -155z" />
    <glyph glyph-name="uni1EC8" unicode="&#x1ec8;" horiz-adv-x="275" 
d="M210 667v-667h-148v667h148zM211 706h-127q1 40 4 52.5t15 28.5q7 7 7 11q0 5 -9 5q-10 0 -26 -7q-5 -3 -10 -5l-43 101q70 24 104 24q55 0 89 -25.5t34 -66.5q0 -32 -20 -61l-16 -23q-2 0 -2 -24v-10z" />
    <glyph glyph-name="uni1EC9" unicode="&#x1ec9;" horiz-adv-x="238" 
d="M190 443v-443h-142v443h142zM192 499h-127q1 40 4 52.5t15 27.5q7 9 7 12q0 5 -9 5q-10 0 -26 -7q-5 -3 -10 -5l-43 101q70 24 104 24q55 0 89 -25.5t34 -66.5q0 -30 -20 -61l-16 -23l-2 -10v-6v-15v-3z" />
    <glyph glyph-name="uni1ECA" unicode="&#x1eca;" horiz-adv-x="273" 
d="M211 667v-667h-148v667h148zM137 -34q35 0 59.5 -24t24.5 -58t-24.5 -58t-59.5 -24q-36 0 -60.5 24t-24.5 59q0 33 25 57t60 24z" />
    <glyph glyph-name="uni1ECB" unicode="&#x1ecb;" horiz-adv-x="238" 
d="M118 678q35 0 60 -24t25 -58t-24.5 -58t-59.5 -24q-36 0 -60.5 24t-24.5 59q0 33 25 57t59 24zM190 443v-443h-142v443h142zM119 -34q35 0 59.5 -24t24.5 -58t-24.5 -58t-59.5 -24q-36 0 -60.5 24t-24.5 59q0 33 25 57t60 24z" />
    <glyph glyph-name="uni1ECC" unicode="&#x1ecc;" horiz-adv-x="763" 
d="M381 684q147 0 251.5 -103t104.5 -248t-105 -247.5t-253 -102.5q-146 0 -249.5 104.5t-103.5 251.5q0 139 106 242t249 103zM380 546q-86 0 -145.5 -62.5t-59.5 -153.5q0 -85 61.5 -147t144.5 -62q85 0 146 62.5t61 149.5q0 89 -60.5 151t-147.5 62zM382 -34
q35 0 59.5 -24t24.5 -58t-24.5 -58t-59.5 -24q-36 0 -60.5 24t-24.5 59q0 33 25 57t60 24z" />
    <glyph glyph-name="uni1ECD" unicode="&#x1ecd;" horiz-adv-x="520" 
d="M263 460q99 0 168.5 -69.5t69.5 -168.5q0 -100 -70 -169.5t-171 -69.5t-171 69.5t-70 169.5q0 101 70 169.5t174 68.5zM259 332q-43 0 -70 -30.5t-27 -79.5q0 -50 27 -80.5t71 -30.5t71 30.5t27 80.5t-27 80t-72 30zM259 -34q35 0 60 -24t25 -58t-24.5 -58t-59.5 -24
q-36 0 -60.5 24t-24.5 59q0 33 25 57t59 24z" />
    <glyph glyph-name="uni1ECE" unicode="&#x1ece;" horiz-adv-x="763" 
d="M381 684q147 0 251.5 -103t104.5 -248t-105 -247.5t-253 -102.5q-146 0 -249.5 104.5t-103.5 251.5q0 139 106 242t249 103zM380 546q-86 0 -145.5 -62.5t-59.5 -153.5q0 -85 61.5 -147t144.5 -62q85 0 146 62.5t61 149.5q0 89 -60.5 151t-147.5 62zM457 706h-128
q2 41 4.5 53t15.5 28q7 7 7 11q0 5 -9 5q-10 0 -26 -7q-6 -3 -11 -5l-42 101q71 24 104 24q55 0 89 -25.5t34 -66.5q0 -31 -21 -61l-16 -23q-1 -2 -1 -10q0 -3 -1 -6v-9q0 -5 1 -9z" />
    <glyph glyph-name="uni1ECF" unicode="&#x1ecf;" horiz-adv-x="520" 
d="M263 460q99 0 168.5 -69.5t69.5 -168.5q0 -100 -70 -169.5t-171 -69.5t-171 69.5t-70 169.5q0 101 70 169.5t174 68.5zM259 332q-43 0 -70 -30.5t-27 -79.5q0 -50 27 -80.5t71 -30.5t71 30.5t27 80.5t-27 80t-72 30zM335 499h-127q2 41 4.5 53t15.5 27q7 9 7 12q0 5 -9 5
q-10 0 -26 -7q-6 -3 -11 -5l-43 101q71 24 105 24q55 0 89 -25.5t34 -66.5q0 -29 -21 -61l-16 -23q-1 -1 -1 -10l-1 -6v-9v-9z" />
    <glyph glyph-name="uni1ED0" unicode="&#x1ed0;" horiz-adv-x="763" 
d="M381 684q147 0 251.5 -103t104.5 -248t-105 -247.5t-253 -102.5q-146 0 -249.5 104.5t-103.5 251.5q0 139 106 242t249 103zM380 546q-86 0 -145.5 -62.5t-59.5 -153.5q0 -85 61.5 -147t144.5 -62q85 0 146 62.5t61 149.5q0 89 -60.5 151t-147.5 62zM535 786l41 -42
l-108 -50l-87 79l-86 -79l-108 50l152 155h85l28 -30l78 101l132 -66z" />
    <glyph glyph-name="uni1ED1" unicode="&#x1ed1;" horiz-adv-x="520" 
d="M331 655l117 150l131 -65l-170 -159l-41 36l86 -88l-108 -49l-86 82l-86 -82l-108 49l152 155h84zM263 460q99 0 168.5 -69.5t69.5 -168.5q0 -100 -70 -169.5t-171 -69.5t-171 69.5t-70 169.5q0 101 70 169.5t174 68.5zM259 332q-43 0 -70 -30.5t-27 -79.5
q0 -50 27 -80.5t71 -30.5t71 30.5t27 80.5t-27 80t-72 30z" />
    <glyph glyph-name="uni1ED2" unicode="&#x1ed2;" horiz-adv-x="763" 
d="M381 684q147 0 251.5 -103t104.5 -248t-105 -247.5t-253 -102.5q-146 0 -249.5 104.5t-103.5 251.5q0 139 106 242t249 103zM380 546q-86 0 -145.5 -62.5t-59.5 -153.5q0 -85 61.5 -147t144.5 -62q85 0 146 62.5t61 149.5q0 89 -60.5 151t-147.5 62zM427 929l131 66
l137 -175l-96 -51zM468 694l-87 78l-86 -78l-108 50l152 155h85l152 -155z" />
    <glyph glyph-name="uni1ED3" unicode="&#x1ed3;" horiz-adv-x="520" 
d="M263 460q99 0 168.5 -69.5t69.5 -168.5q0 -100 -70 -169.5t-171 -69.5t-171 69.5t-70 169.5q0 101 70 169.5t174 68.5zM259 332q-43 0 -70 -30.5t-27 -79.5q0 -50 27 -80.5t71 -30.5t71 30.5t27 80.5t-27 80t-72 30zM302 684l152 -154l-108 -50l-86 82l-86 -82l-108 50
l152 154h84zM280 732l131 66l137 -175l-96 -51z" />
    <glyph glyph-name="uni1ED4" unicode="&#x1ed4;" horiz-adv-x="763" 
d="M538 783l38 -39l-108 -50l-87 78l-86 -78l-108 50l152 155h85l70 -71l2 7q1 1 1 3q4 14 6 16l6 11q7 8 7 11q0 4 -9 4q-10 0 -26 -8q-6 -2 -11 -4l-43 100q71 25 105 25q56 0 89.5 -25.5t33.5 -67.5q0 -30 -21 -60l-16 -23q-1 -2 -1 -10l-1 -6v-9v-9h-78zM381 684
q147 0 251.5 -103t104.5 -248t-105 -247.5t-253 -102.5q-146 0 -249.5 104.5t-103.5 251.5q0 139 106 242t249 103zM380 546q-86 0 -145.5 -62.5t-59.5 -153.5q0 -85 61.5 -147t144.5 -62q85 0 146 62.5t61 149.5q0 89 -60.5 151t-147.5 62z" />
    <glyph glyph-name="uni1ED5" unicode="&#x1ed5;" horiz-adv-x="520" 
d="M341 635l3 5l5 15q2 7 12 21q3 4 3 6q0 4 -9 4q-10 0 -26 -7q-6 -3 -11 -4l-42 100q71 24 104 24q55 0 89 -25.5t34 -66.5q0 -30 -21 -60l-16 -24q-1 -1 -1 -9l-1 -7v-9v-9h-78l59 -60l-108 -50l-86 82l-87 -82l-107 50l152 155h84zM263 460q99 0 168.5 -69.5
t69.5 -168.5q0 -100 -70 -169.5t-171 -69.5t-171 69.5t-70 169.5q0 101 70 169.5t174 68.5zM259 332q-43 0 -70 -30.5t-27 -79.5q0 -50 27 -80.5t71 -30.5t71 30.5t27 80.5t-27 80t-72 30z" />
    <glyph glyph-name="uni1ED6" unicode="&#x1ed6;" horiz-adv-x="763" 
d="M381 684q147 0 251.5 -103t104.5 -248t-105 -247.5t-253 -102.5q-146 0 -249.5 104.5t-103.5 251.5q0 139 106 242t249 103zM380 546q-86 0 -145.5 -62.5t-59.5 -153.5q0 -85 61.5 -147t144.5 -62q85 0 146 62.5t61 149.5q0 89 -60.5 151t-147.5 62zM295 689l-108 46
l152 145h84l153 -145l-108 -46l-87 73zM433 1038l118 -24q-4 -50 -20 -76q-26 -45 -91 -45q-42 0 -81 19q-12 5 -19 5t-13 -31l-115 23q5 50 22 76q30 45 86 45q42 0 86 -22q10 -5 16 -5q9 0 11 35z" />
    <glyph glyph-name="uni1ED7" unicode="&#x1ed7;" horiz-adv-x="520" 
d="M263 460q99 0 168.5 -69.5t69.5 -168.5q0 -100 -70 -169.5t-171 -69.5t-171 69.5t-70 169.5q0 101 70 169.5t174 68.5zM259 332q-43 0 -70 -30.5t-27 -79.5q0 -50 27 -80.5t71 -30.5t71 30.5t27 80.5t-27 80t-72 30zM174 491l-108 46l152 145h84l152 -145l-108 -46
l-86 73zM311 843l119 -24q-5 -53 -20 -76q-27 -45 -91 -45q-40 0 -81 19q-13 5 -19 5q-7 0 -13 -31l-115 24q5 49 22 75q30 45 86 45q42 0 86 -22q10 -5 16 -5q8 0 10 35z" />
    <glyph glyph-name="uni1ED8" unicode="&#x1ed8;" horiz-adv-x="763" 
d="M381 684q147 0 251.5 -103t104.5 -248t-105 -247.5t-253 -102.5q-146 0 -249.5 104.5t-103.5 251.5q0 139 106 242t249 103zM380 546q-86 0 -145.5 -62.5t-59.5 -153.5q0 -85 61.5 -147t144.5 -62q85 0 146 62.5t61 149.5q0 89 -60.5 151t-147.5 62zM382 -34
q35 0 59.5 -24t24.5 -58t-24.5 -58t-59.5 -24q-36 0 -60.5 24t-24.5 59q0 33 25 57t60 24zM295 694l-108 50l152 155h85l152 -155l-108 -50l-87 78z" />
    <glyph glyph-name="uni1ED9" unicode="&#x1ed9;" horiz-adv-x="520" 
d="M263 460q99 0 168.5 -69.5t69.5 -168.5q0 -100 -70 -169.5t-171 -69.5t-171 69.5t-70 169.5q0 101 70 169.5t174 68.5zM259 332q-43 0 -70 -30.5t-27 -79.5q0 -50 27 -80.5t71 -30.5t71 30.5t27 80.5t-27 80t-72 30zM346 486l-86 81l-86 -81l-108 49l152 155h84l152 -155
zM259 -34q35 0 60 -24t25 -58t-24.5 -58t-59.5 -24q-36 0 -60.5 24t-24.5 59q0 33 25 57t59 24z" />
    <glyph glyph-name="uni1EDA" unicode="&#x1eda;" horiz-adv-x="779" 
d="M579 725l110 55q26 -18 40 -32q44 -42 44 -108q0 -82 -81 -139q45 -80 45 -169q0 -143 -104.5 -246t-250.5 -103t-251 103t-105 247q0 145 105 248t251 103q133 0 230 -86q35 18 35 42q0 20 -12 35t-56 50zM380 546q-86 0 -145.5 -62.5t-59.5 -153.5q0 -85 61.5 -147
t144.5 -62q85 0 146 62.5t61 149.5q0 89 -60.5 151t-147.5 62zM568 854l-172 -161l-96 51l137 175z" />
    <glyph glyph-name="uni1EDB" unicode="&#x1edb;" horiz-adv-x="572" 
d="M377 502l110 55q27 -19 40 -32q44 -44 44 -108q0 -84 -77 -137q7 -28 7 -57q0 -101 -69.5 -170.5t-171.5 -69.5q-101 0 -171 69.5t-70 169.5t70 169t172 69q101 0 172 -71q12 12 12 28q0 19 -12 34t-56 51zM259 332q-43 0 -70 -30.5t-27 -79.5q0 -50 27 -80.5t71 -30.5
t71 30.5t27 80.5t-27 80t-72 30zM428 644l-172 -160l-96 51l137 175z" />
    <glyph glyph-name="uni1EDC" unicode="&#x1edc;" horiz-adv-x="779" 
d="M579 725l110 55q26 -18 40 -32q44 -42 44 -108q0 -82 -81 -139q45 -80 45 -169q0 -143 -104.5 -246t-250.5 -103t-251 103t-105 247q0 145 105 248t251 103q133 0 230 -86q35 18 35 42q0 20 -12 35t-56 50zM380 546q-86 0 -145.5 -62.5t-59.5 -153.5q0 -85 61.5 -147
t144.5 -62q85 0 146 62.5t61 149.5q0 89 -60.5 151t-147.5 62zM195 854l131 65l137 -175l-96 -51z" />
    <glyph glyph-name="uni1EDD" unicode="&#x1edd;" horiz-adv-x="572" 
d="M377 502l110 55q27 -19 40 -32q44 -44 44 -108q0 -84 -77 -137q7 -28 7 -57q0 -101 -69.5 -170.5t-171.5 -69.5q-101 0 -171 69.5t-70 169.5t70 169t172 69q101 0 172 -71q12 12 12 28q0 19 -12 34t-56 51zM259 332q-43 0 -70 -30.5t-27 -79.5q0 -50 27 -80.5t71 -30.5
t71 30.5t27 80.5t-27 80t-72 30zM85 644l132 66l136 -175l-96 -51z" />
    <glyph glyph-name="uni1EDE" unicode="&#x1ede;" horiz-adv-x="779" 
d="M579 725l110 55q26 -18 40 -32q44 -42 44 -108q0 -82 -81 -139q45 -80 45 -169q0 -143 -104.5 -246t-250.5 -103t-251 103t-105 247q0 145 105 248t251 103q133 0 230 -86q35 18 35 42q0 20 -12 35t-56 50zM380 546q-86 0 -145.5 -62.5t-59.5 -153.5q0 -85 61.5 -147
t144.5 -62q85 0 146 62.5t61 149.5q0 89 -60.5 151t-147.5 62zM467 706h-127q2 41 4.5 53t15.5 28q7 7 7 11q0 5 -9 5q-10 0 -26 -7q-6 -3 -11 -5l-43 101q71 24 105 24q55 0 89 -25.5t34 -66.5q0 -31 -21 -61l-16 -23q-1 -1 -1 -10l-1 -6v-9v-9z" />
    <glyph glyph-name="uni1EDF" unicode="&#x1edf;" horiz-adv-x="572" 
d="M377 502l110 55q27 -19 40 -32q44 -44 44 -108q0 -84 -77 -137q7 -28 7 -57q0 -101 -69.5 -170.5t-171.5 -69.5q-101 0 -171 69.5t-70 169.5t70 169t172 69q101 0 172 -71q12 12 12 28q0 19 -12 34t-56 51zM259 332q-43 0 -70 -30.5t-27 -79.5q0 -50 27 -80.5t71 -30.5
t71 30.5t27 80.5t-27 80t-72 30zM338 499h-127q1 40 4 52.5t15 27.5q7 9 7 12q0 5 -9 5q-10 0 -26 -7l-10 -5l-43 101q70 24 104 24q55 0 89 -25.5t34 -66.5q0 -30 -20 -61l-16 -23q-2 -4 -2 -25v-9z" />
    <glyph glyph-name="uni1EE0" unicode="&#x1ee0;" horiz-adv-x="779" 
d="M579 725l110 55q26 -18 40 -32q44 -42 44 -108q0 -82 -81 -139q45 -80 45 -169q0 -143 -104.5 -246t-250.5 -103t-251 103t-105 247q0 145 105 248t251 103q133 0 230 -86q35 18 35 42q0 20 -12 35t-56 50zM380 546q-86 0 -145.5 -62.5t-59.5 -153.5q0 -85 61.5 -147
t144.5 -62q85 0 146 62.5t61 149.5q0 89 -60.5 151t-147.5 62zM430 881l118 -25q-4 -56 -20 -84q-28 -46 -91 -46q-39 0 -81 20q-10 6 -18 6q-5 0 -7 -5.5t-6 -28.5l-115 25q5 57 24 84q13 21 36 33.5t48 12.5q41 0 86 -24q10 -5 16 -5q5 0 6.5 6.5t3.5 30.5z" />
    <glyph glyph-name="uni1EE1" unicode="&#x1ee1;" horiz-adv-x="572" 
d="M377 502l110 55q27 -19 40 -32q44 -44 44 -108q0 -84 -77 -137q7 -28 7 -57q0 -101 -69.5 -170.5t-171.5 -69.5q-101 0 -171 69.5t-70 169.5t70 169t172 69q101 0 172 -71q12 12 12 28q0 19 -12 34t-56 51zM259 332q-43 0 -70 -30.5t-27 -79.5q0 -50 27 -80.5t71 -30.5
t71 30.5t27 80.5t-27 80t-72 30zM310 673l118 -26q-4 -55 -21 -83q-26 -46 -90 -46q-39 0 -81 20q-10 6 -18 6q-5 0 -7.5 -6t-5.5 -28l-116 25q7 57 24 84q30 46 85 46q42 0 85 -24q12 -5 17 -5q8 0 10 37z" />
    <glyph glyph-name="uni1EE2" unicode="&#x1ee2;" horiz-adv-x="779" 
d="M579 725l110 55q26 -18 40 -32q44 -42 44 -108q0 -82 -81 -139q45 -80 45 -169q0 -143 -104.5 -246t-250.5 -103t-251 103t-105 247q0 145 105 248t251 103q133 0 230 -86q35 18 35 42q0 20 -12 35t-56 50zM380 546q-86 0 -145.5 -62.5t-59.5 -153.5q0 -85 61.5 -147
t144.5 -62q85 0 146 62.5t61 149.5q0 89 -60.5 151t-147.5 62zM382 -34q35 0 59.5 -24t24.5 -58t-25 -58t-60 -24t-59.5 24t-24.5 59q0 33 25 57t60 24z" />
    <glyph glyph-name="uni1EE3" unicode="&#x1ee3;" horiz-adv-x="572" 
d="M377 502l110 55q27 -19 40 -32q44 -44 44 -108q0 -84 -77 -137q7 -28 7 -57q0 -101 -69.5 -170.5t-171.5 -69.5q-101 0 -171 69.5t-70 169.5t70 169t172 69q101 0 172 -71q12 12 12 28q0 19 -12 34t-56 51zM259 332q-43 0 -70 -30.5t-27 -79.5q0 -50 27 -80.5t71 -30.5
t71 30.5t27 80.5t-27 80t-72 30zM260 -34q35 0 59.5 -24t24.5 -58t-24.5 -58t-59.5 -24q-36 0 -60.5 24t-24.5 59q0 33 25 57t60 24z" />
    <glyph glyph-name="uni1EE4" unicode="&#x1ee4;" horiz-adv-x="645" 
d="M212 667v-408q0 -68 13 -90q12 -21 39.5 -34.5t57.5 -13.5t58 14t40 34q13 22 13 90v408h148v-426q0 -84 -30 -135q-33 -56 -94.5 -89.5t-133.5 -33.5t-134 33.5t-95 89.5q-30 51 -30 135v426h148zM322 -34q35 0 60 -24t25 -58t-24.5 -58t-59.5 -24q-36 0 -60.5 24
t-24.5 59q0 33 25 57t59 24z" />
    <glyph glyph-name="uni1EE5" unicode="&#x1ee5;" horiz-adv-x="511" 
d="M321 0v18q-43 -35 -98 -35q-46 0 -85.5 23t-62.5 62q-28 49 -28 135v240h142v-233q0 -56 13.5 -77.5t48.5 -21.5q43 0 58 28q12 20 12 80v224h142v-443h-142zM255 -34q35 0 59.5 -24t24.5 -58t-24.5 -58t-59.5 -24q-36 0 -60.5 24t-24.5 59q0 33 25 57t60 24z" />
    <glyph glyph-name="uni1EE6" unicode="&#x1ee6;" horiz-adv-x="645" 
d="M212 667v-408q0 -68 13 -90q12 -21 39.5 -34.5t57.5 -13.5t58 14t40 34q13 22 13 90v408h148v-426q0 -84 -30 -135q-33 -56 -94.5 -89.5t-133.5 -33.5t-134 33.5t-95 89.5q-30 51 -30 135v426h148zM397 706h-128q2 42 4.5 53.5t15.5 27.5q7 7 7 11q0 5 -9 5q-10 0 -26 -7
q-6 -3 -11 -5l-42 101q70 24 104 24q55 0 89 -25.5t34 -66.5q0 -31 -21 -61l-16 -23q-1 -2 -1 -10q0 -3 -1 -6v-8q0 -5 1 -10z" />
    <glyph glyph-name="uni1EE7" unicode="&#x1ee7;" horiz-adv-x="511" 
d="M321 0v18q-43 -35 -98 -35q-46 0 -85.5 23t-62.5 62q-28 49 -28 135v240h142v-233q0 -56 13.5 -77.5t48.5 -21.5q43 0 58 28q12 20 12 80v224h142v-443h-142zM329 499h-127q2 41 4.5 53t15.5 27q7 9 7 12q0 5 -9 5q-10 0 -26 -7q-6 -3 -11 -5l-42 101q70 24 104 24
q55 0 89 -25.5t34 -66.5q0 -31 -21 -61l-16 -23q-1 -2 -1 -10l-1 -6v-9v-9z" />
    <glyph glyph-name="uni1EE8" unicode="&#x1ee8;" horiz-adv-x="715" 
d="M581 667v-61q21 15 21 35q0 19 -12 34t-56 50l110 55q34 -25 40 -32q44 -42 44 -109q0 -111 -147 -170v-228q0 -84 -30 -135q-33 -56 -94.5 -89.5t-133.5 -33.5t-134 33.5t-95 89.5q-30 51 -30 135v426h148v-408q0 -68 13 -90q12 -21 39.5 -34.5t57.5 -13.5t58 14t40 34
q13 22 13 90v408h148zM498 854l-171 -161l-96 51l136 175z" />
    <glyph glyph-name="uni1EE9" unicode="&#x1ee9;" horiz-adv-x="616" 
d="M463 443v-64q25 15 25 38q0 19 -12 34t-56 50l110 55q31 -22 40 -32q44 -42 44 -109q0 -56 -37.5 -100t-107.5 -69q-1 -2 -6 -3v-243h-142v18q-43 -35 -98 -35q-46 0 -85.5 23t-62.5 62q-28 49 -28 135v240h142v-233q0 -56 13.5 -77.5t48.5 -21.5q43 0 58 28q12 20 12 80
v224h142zM427 644l-172 -160l-96 51l137 175z" />
    <glyph glyph-name="uni1EEA" unicode="&#x1eea;" horiz-adv-x="715" 
d="M581 667v-61q21 15 21 35q0 19 -12 34t-56 50l110 55q34 -25 40 -32q44 -42 44 -109q0 -111 -147 -170v-228q0 -84 -30 -135q-33 -56 -94.5 -89.5t-133.5 -33.5t-134 33.5t-95 89.5q-30 51 -30 135v426h148v-408q0 -68 13 -90q12 -21 39.5 -34.5t57.5 -13.5t58 14t40 34
q13 22 13 90v408h148zM137 854l131 65l136 -175l-96 -51z" />
    <glyph glyph-name="uni1EEB" unicode="&#x1eeb;" horiz-adv-x="616" 
d="M463 443v-64q25 15 25 38q0 19 -12 34t-56 50l110 55q31 -22 40 -32q44 -42 44 -109q0 -56 -37.5 -100t-107.5 -69q-1 -2 -6 -3v-243h-142v18q-43 -35 -98 -35q-46 0 -85.5 23t-62.5 62q-28 49 -28 135v240h142v-233q0 -56 13.5 -77.5t48.5 -21.5q43 0 58 28q12 20 12 80
v224h142zM76 644l131 66l137 -175l-96 -51z" />
    <glyph glyph-name="uni1EEC" unicode="&#x1eec;" horiz-adv-x="715" 
d="M581 667v-61q21 15 21 35q0 19 -12 34t-56 50l110 55q34 -25 40 -32q44 -42 44 -109q0 -111 -147 -170v-228q0 -84 -30 -135q-33 -56 -94.5 -89.5t-133.5 -33.5t-134 33.5t-95 89.5q-30 51 -30 135v426h148v-408q0 -68 13 -90q12 -21 39.5 -34.5t57.5 -13.5t58 14t40 34
q13 22 13 90v408h148zM404 706h-127q2 43 4 54t15 27q7 7 7 11q0 5 -9 5q-10 0 -26 -7q-5 -3 -10 -5l-43 101q71 24 104 24q55 0 89 -25.5t34 -66.5q0 -32 -20 -61l-16 -23l-2 -10v-6v-18z" />
    <glyph glyph-name="uni1EED" unicode="&#x1eed;" horiz-adv-x="616" 
d="M463 443v-64q25 15 25 38q0 19 -12 34t-56 50l110 55q31 -22 40 -32q44 -42 44 -109q0 -56 -37.5 -100t-107.5 -69q-1 -2 -6 -3v-243h-142v18q-43 -35 -98 -35q-46 0 -85.5 23t-62.5 62q-28 49 -28 135v240h142v-233q0 -56 13.5 -77.5t48.5 -21.5q43 0 58 28q12 20 12 80
v224h142zM335 499h-128q2 42 4.5 53.5t15.5 26.5q7 9 7 12q0 5 -9 5q-10 0 -26 -7q-6 -3 -11 -5l-42 101q70 24 104 24q55 0 89 -25.5t34 -66.5q0 -32 -20 -61l-17 -23q-1 -2 -1 -10q0 -3 -1 -6v-9q0 -2 1 -9z" />
    <glyph glyph-name="uni1EEE" unicode="&#x1eee;" horiz-adv-x="715" 
d="M581 667v-61q21 15 21 35q0 19 -12 34t-56 50l110 55q34 -25 40 -32q44 -42 44 -109q0 -111 -147 -170v-228q0 -84 -30 -135q-33 -56 -94.5 -89.5t-133.5 -33.5t-134 33.5t-95 89.5q-30 51 -30 135v426h148v-408q0 -68 13 -90q12 -21 39.5 -34.5t57.5 -13.5t58 14t40 34
q13 22 13 90v408h148zM372 881l119 -25q-5 -56 -21 -84q-28 -46 -90 -46q-41 0 -81 20q-12 6 -19 6t-13 -34l-115 25q5 57 24 84q13 21 36 33.5t48 12.5q41 0 86 -24q10 -5 16 -5q5 0 6.5 6.5t3.5 30.5z" />
    <glyph glyph-name="uni1EEF" unicode="&#x1eef;" horiz-adv-x="616" 
d="M463 443v-64q25 15 25 38q0 19 -12 34t-56 50l110 55q31 -22 40 -32q44 -42 44 -109q0 -56 -37.5 -100t-107.5 -69q-1 -2 -6 -3v-243h-142v18q-43 -35 -98 -35q-46 0 -85.5 23t-62.5 62q-28 49 -28 135v240h142v-233q0 -56 13.5 -77.5t48.5 -21.5q43 0 58 28q12 20 12 80
v224h142zM300 673l118 -26q-4 -57 -20 -83q-28 -46 -91 -46q-39 0 -81 20q-11 6 -18 6q-5 0 -7 -5.5t-6 -28.5l-115 25q5 57 24 84q13 21 36 33.5t48 12.5q41 0 86 -24q10 -5 16 -5q8 0 10 37z" />
    <glyph glyph-name="uni1EF0" unicode="&#x1ef0;" horiz-adv-x="715" 
d="M581 667v-61q21 15 21 35q0 19 -12 34t-56 50l110 55q34 -25 40 -32q44 -42 44 -109q0 -111 -147 -170v-228q0 -84 -30 -135q-33 -56 -94.5 -89.5t-133.5 -33.5t-134 33.5t-95 89.5q-30 51 -30 135v426h148v-408q0 -68 13 -90q12 -21 39.5 -34.5t57.5 -13.5t58 14t40 34
q13 22 13 90v408h148zM323 -34q35 0 59.5 -24t24.5 -58t-24.5 -58t-59.5 -24q-36 0 -60.5 24t-24.5 59q0 33 25 57t60 24z" />
    <glyph glyph-name="uni1EF1" unicode="&#x1ef1;" horiz-adv-x="616" 
d="M463 443v-64q25 15 25 38q0 19 -12 34t-56 50l110 55q31 -22 40 -32q44 -42 44 -109q0 -56 -37.5 -100t-107.5 -69q-1 -2 -6 -3v-243h-142v18q-43 -35 -98 -35q-46 0 -85.5 23t-62.5 62q-28 49 -28 135v240h142v-233q0 -56 13.5 -77.5t48.5 -21.5q43 0 58 28q12 20 12 80
v224h142zM255 -34q35 0 59.5 -24t24.5 -58t-25 -58t-60 -24t-59.5 24t-24.5 59q0 33 25 57t60 24z" />
    <glyph glyph-name="Ygrave" unicode="&#x1ef2;" horiz-adv-x="565" 
d="M208 275l-224 392h166l132 -239l133 239h165l-224 -392v-275h-148v275zM107 854l131 65l136 -175l-96 -51z" />
    <glyph glyph-name="ygrave" unicode="&#x1ef3;" horiz-adv-x="475" 
d="M153 23l-168 420h150l96 -246l110 246h150l-303 -677h-150zM69 644l131 66l136 -175l-96 -51z" />
    <glyph glyph-name="uni1EF4" unicode="&#x1ef4;" horiz-adv-x="565" 
d="M208 275l-224 392h166l132 -239l133 239h165l-224 -392v-275h-148v275zM283 -34q35 0 59.5 -24t24.5 -58t-25 -58t-60 -24t-59.5 24t-24.5 59q0 33 25 57t60 24z" />
    <glyph glyph-name="uni1EF5" unicode="&#x1ef5;" horiz-adv-x="475" 
d="M153 23l-168 420h150l96 -246l110 246h150l-303 -677h-150zM364 -34q35 0 59.5 -24t24.5 -58t-25 -58t-60 -24t-59.5 24t-24.5 59q0 33 25 57t60 24z" />
    <glyph glyph-name="uni1EF6" unicode="&#x1ef6;" horiz-adv-x="565" 
d="M208 275l-224 392h166l132 -239l133 239h165l-224 -392v-275h-148v275zM357 706h-127q2 42 4.5 53.5t15.5 27.5q7 7 7 11q0 5 -9 5q-10 0 -26 -7q-6 -3 -11 -5l-42 101q70 24 104 24q55 0 89 -25.5t34 -66.5q0 -31 -21 -61l-16 -23q-1 -1 -1 -10l-1 -6v-8v-10z" />
    <glyph glyph-name="uni1EF7" unicode="&#x1ef7;" horiz-adv-x="475" 
d="M153 23l-168 420h150l96 -246l110 246h150l-303 -677h-150zM313 499h-127q1 40 4 52.5t15 27.5q7 9 7 12q0 5 -9 5q-10 0 -26 -7q-5 -3 -10 -5l-43 101q70 24 104 24q55 0 89 -25.5t34 -66.5q0 -32 -20 -61l-16 -23l-2 -10v-6v-15v-3z" />
    <glyph glyph-name="uni1EF8" unicode="&#x1ef8;" horiz-adv-x="565" 
d="M208 275l-224 392h166l132 -239l133 239h165l-224 -392v-275h-148v275zM334 881l118 -25q-5 -59 -21 -84q-28 -46 -90 -46q-41 0 -81 20q-12 6 -19 6t-13 -34l-115 25q5 57 24 84q28 46 85 46q40 0 85 -24q10 -5 16 -5q8 0 11 37z" />
    <glyph glyph-name="uni1EF9" unicode="&#x1ef9;" horiz-adv-x="475" 
d="M153 23l-168 420h150l96 -246l110 246h150l-303 -677h-150zM289 673l118 -26q-4 -55 -21 -83q-28 -46 -90 -46q-39 0 -81 20q-10 6 -18 6q-5 0 -7.5 -6t-5.5 -28l-116 25q7 57 24 84q30 46 85 46q42 0 85 -24q12 -5 16 -5q9 0 11 37z" />
    <glyph glyph-name="uni2002" unicode="&#x2002;" horiz-adv-x="480" 
 />
    <glyph glyph-name="uni2003" unicode="&#x2003;" horiz-adv-x="980" 
 />
    <glyph glyph-name="uni2004" unicode="&#x2004;" horiz-adv-x="313" 
 />
    <glyph glyph-name="uni2005" unicode="&#x2005;" horiz-adv-x="230" 
 />
    <glyph glyph-name="uni2006" unicode="&#x2006;" horiz-adv-x="47" 
 />
    <glyph glyph-name="uni2007" unicode="&#x2007;" horiz-adv-x="536" 
 />
    <glyph glyph-name="uni2009" unicode="&#x2009;" horiz-adv-x="105" 
 />
    <glyph glyph-name="uni200A" unicode="&#x200a;" horiz-adv-x="13" 
 />
    <glyph glyph-name="uni2011" unicode="&#x2011;" horiz-adv-x="290" 
d="M21 296h248v-131h-248v131z" />
    <glyph glyph-name="figuredash" unicode="&#x2012;" horiz-adv-x="601" 
d="M101 296h399v-131h-399v131z" />
    <glyph glyph-name="endash" unicode="&#x2013;" horiz-adv-x="601" 
d="M101 296h399v-131h-399v131z" />
    <glyph glyph-name="emdash" unicode="&#x2014;" horiz-adv-x="652" 
d="M21 296h611v-131h-611v131z" />
    <glyph glyph-name="afii00208" unicode="&#x2015;" horiz-adv-x="652" 
d="M21 296h611v-131h-611v131z" />
    <glyph glyph-name="underscoredbl" unicode="&#x2017;" horiz-adv-x="535" 
d="M-16 -18h567v-118h-567v118zM-16 -171h567v-118h-567v118z" />
    <glyph glyph-name="quoteleft" unicode="&#x2018;" horiz-adv-x="317" 
d="M171 408l-130 47l128 287l107 -42z" />
    <glyph glyph-name="quoteright" unicode="&#x2019;" horiz-adv-x="284" 
d="M123 742l130 -47l-128 -287l-107 42z" />
    <glyph glyph-name="quotesinglbase" unicode="&#x201a;" horiz-adv-x="284" 
d="M123 140l130 -47l-128 -287l-107 42z" />
    <glyph glyph-name="quotereversed" unicode="&#x201b;" horiz-adv-x="284" 
d="M161 742l105 -292l-107 -42l-128 287z" />
    <glyph glyph-name="quotedblleft" unicode="&#x201c;" horiz-adv-x="484" 
d="M339 408l-131 47l128 287l108 -42zM276 700l-105 -292l-130 47l128 287z" />
    <glyph glyph-name="quotedblright" unicode="&#x201d;" horiz-adv-x="484" 
d="M146 742l130 -47l-128 -287l-107 42zM208 450l105 292l131 -47l-128 -287z" />
    <glyph glyph-name="quotedblbase" unicode="&#x201e;" horiz-adv-x="484" 
d="M146 140l130 -47l-128 -287l-107 42zM313 140l131 -47l-128 -287l-108 42z" />
    <glyph glyph-name="dagger" unicode="&#x2020;" horiz-adv-x="562" 
d="M209 665h145v-201h136v-138h-136v-510h-145v510h-136v138h136v201z" />
    <glyph glyph-name="daggerdbl" unicode="&#x2021;" horiz-adv-x="562" 
d="M209 17h-136v138h136v171h-136v138h136v201h145v-201h136v-138h-136v-171h136v-138h-136v-201h-145v201z" />
    <glyph glyph-name="bullet" unicode="&#x2022;" horiz-adv-x="515" 
d="M260 507q70 0 120.5 -51t50.5 -122q0 -72 -50.5 -123t-122.5 -51q-73 0 -123.5 51t-50.5 124q0 72 51 122t125 50z" />
    <glyph glyph-name="ellipsis" unicode="&#x2026;" horiz-adv-x="785" 
d="M144 149q35 0 59.5 -24t24.5 -58t-24.5 -58t-59.5 -24q-36 0 -60.5 24t-24.5 59q0 33 25 57t60 24zM641 149q35 0 59.5 -24t24.5 -58t-25 -58t-60 -24t-59.5 24t-24.5 59q0 33 25 57t60 24zM393 149q35 0 59.5 -24t24.5 -58t-25 -58t-60 -24t-59.5 24t-24.5 59
q0 33 25 57t60 24z" />
    <glyph glyph-name="perthousand" unicode="&#x2030;" horiz-adv-x="1268" 
d="M597 684l80 -46l-379 -655l-79 46zM199 676q169 0 169 -207t-168 -207q-166 0 -166 210q0 98 43 151t122 53zM201 586q-66 0 -66 -113q0 -121 66 -121q28 0 42 17q10 11 17 39.5t7 58.5q0 119 -66 119zM693 404q169 0 169 -207q0 -101 -42.5 -154t-123.5 -53
q-168 0 -168 210q0 98 43 151t122 53zM695 314q-66 0 -66 -119q0 -33 8 -62.5t20 -39.5q13 -13 38 -13q28 0 42 17q10 11 17 40t7 59q0 118 -66 118zM1067 404q167 0 167 -207q0 -101 -42.5 -154t-124.5 -53q-167 0 -167 210q0 99 43 151.5t124 52.5zM1066 314
q-65 0 -65 -119q0 -33 8 -62.5t20 -39.5q13 -13 38 -13q28 0 42 17q10 11 17 40t7 59q0 118 -67 118z" />
    <glyph glyph-name="minute" unicode="&#x2032;" horiz-adv-x="227" 
d="M56 742l130 -47l-128 -287l-107 42z" />
    <glyph glyph-name="second" unicode="&#x2033;" horiz-adv-x="393" 
d="M56 742l130 -47l-128 -287l-107 42zM223 742l129 -47l-127 -287l-107 42z" />
    <glyph glyph-name="guilsinglleft" unicode="&#x2039;" horiz-adv-x="341" 
d="M183 222l123 -152l-98 -78l-187 229l186 235l99 -78z" />
    <glyph glyph-name="guilsinglright" unicode="&#x203a;" horiz-adv-x="341" 
d="M158 222l-123 156l99 78l186 -235l-186 -229l-99 78z" />
    <glyph glyph-name="uni203E" unicode="&#x203e;" horiz-adv-x="535" 
d="M-16 864h567v-132h-567v132z" />
    <glyph glyph-name="fraction" unicode="&#x2044;" horiz-adv-x="180" 
d="M240 684l79 -46l-378 -655l-80 46z" />
    <glyph glyph-name="zerosuperior" unicode="&#x2070;" 
d="M193 810q167 0 167 -207q0 -102 -42.5 -154.5t-125.5 -52.5q-166 0 -166 210q0 99 43 151.5t124 52.5zM193 720q-66 0 -66 -119q0 -33 8 -62.5t20 -39.5q13 -13 38 -13q28 0 42 17q10 11 17 40t7 59q0 118 -66 118z" />
    <glyph glyph-name="foursuperior" unicode="&#x2074;" 
d="M295 768l-132 -197h44v64h100v-64h37v-90h-37v-75h-100v75h-170v75l175 261z" />
    <glyph glyph-name="fivesuperior" unicode="&#x2075;" 
d="M189 710l-6 -27q68 0 113 -40t45 -101q0 -62 -46 -104t-113 -42q-47 0 -82.5 21t-68.5 70l82 55q19 -33 33.5 -44.5t37.5 -11.5q24 0 40.5 15.5t16.5 39.5q0 23 -16 38.5t-40 15.5q-26 0 -45 -22l-3 -3l-77 16l46 215h217v-91h-134z" />
    <glyph glyph-name="sixsuperior" unicode="&#x2076;" 
d="M212 817l79 -55l-67 -89q55 -10 88 -46t33 -87q0 -60 -44.5 -102t-107.5 -42q-64 0 -109 42t-45 102q0 50 34 93zM192 588q-23 0 -38 -14t-15 -36t15 -37t38 -15q22 0 37.5 15t15.5 38q0 21 -15 35t-38 14z" />
    <glyph glyph-name="sevensuperior" unicode="&#x2077;" 
d="M65 433l159 277h-166v91h291v-66l-196 -346z" />
    <glyph glyph-name="eightsuperior" unicode="&#x2078;" 
d="M88 617q-32 32 -32 73q0 51 39.5 86t97.5 35t97.5 -35t39.5 -86q0 -41 -32 -73q25 -24 34.5 -43.5t9.5 -45.5q0 -57 -42.5 -94.5t-106.5 -37.5t-106.5 37.5t-42.5 94.5q0 48 44 89zM192 571q-22 0 -35.5 -11.5t-13.5 -31.5q0 -19 13.5 -31t35.5 -12q23 0 36.5 12t13.5 31
q0 20 -13.5 31.5t-36.5 11.5zM193 725q-19 0 -30 -10t-11 -27q0 -16 11.5 -25.5t29.5 -9.5t29.5 10t11.5 26t-11.5 26t-29.5 10z" />
    <glyph glyph-name="ninesuperior" unicode="&#x2079;" 
d="M175 390l-79 55l67 88q-55 10 -88 46.5t-33 86.5q0 61 44.5 103t107.5 42q64 0 109 -42t45 -102q0 -48 -33 -94zM195 722q-23 0 -38 -15.5t-15 -38.5q0 -21 15 -35t38 -14t38 14t15 36q0 23 -15 38t-38 15z" />
    <glyph glyph-name="zeroinferior" unicode="&#x2080;" 
d="M193 275q167 0 167 -207q0 -101 -42.5 -154t-123.5 -53q-168 0 -168 210q0 99 43 151.5t124 52.5zM193 185q-66 0 -66 -119q0 -33 8 -62.5t20 -39.5q13 -13 38 -13q28 0 42 17q10 11 17 40t7 59q0 118 -66 118z" />
    <glyph glyph-name="oneinferior" unicode="&#x2081;" 
d="M260 -130h-101v276l-38 -21l-49 79l113 61h75v-395z" />
    <glyph glyph-name="twoinferior" unicode="&#x2082;" 
d="M55 -130v74l142 149q35 35 35 62q0 30 -37 30q-22 0 -32 -11t-21 -47l-94 25q11 45 31 74q38 49 116 49q61 0 99 -33.5t38 -88.5q0 -56 -46 -105l-83 -87h137v-91h-285z" />
    <glyph glyph-name="threeinferior" unicode="&#x2083;" 
d="M146 119h42q41 0 41 33q0 34 -37 34q-18 0 -29.5 -7.5t-30.5 -34.5l-83 44q30 47 62.5 67t79.5 20q59 0 98.5 -34.5t39.5 -86.5q0 -40 -30 -73q39 -42 39 -87q0 -58 -42 -95.5t-107 -37.5q-119 0 -149 126l96 25l2 -9q8 -29 19.5 -40.5t32.5 -11.5t34 12t13 31
q0 39 -49 39h-42v86z" />
    <glyph glyph-name="fourinferior" unicode="&#x2084;" 
d="M295 233l-132 -197h44v64h100v-64h37v-90h-37v-76h-100v76h-170v75l175 261z" />
    <glyph glyph-name="fiveinferior" unicode="&#x2085;" 
d="M183 148h10q60 0 104 -42t44 -99q0 -61 -46 -103.5t-113 -42.5q-47 0 -82.5 21t-68.5 70l82 54q19 -32 34 -44t37 -12q24 0 40.5 16t16.5 39q0 24 -16 39.5t-40 15.5q-26 0 -45 -22l-1 -1l-2 -2l-77 15l46 216h217v-91h-134z" />
    <glyph glyph-name="sixinferior" unicode="&#x2086;" 
d="M212 282l79 -56l-67 -88q55 -10 88 -46.5t33 -86.5q0 -60 -44.5 -102t-107.5 -42q-64 0 -109 42t-45 102q0 48 34 93zM192 53q-23 0 -38 -14t-15 -36t15 -37t38 -15t38 15.5t15 38.5q0 20 -15 34t-38 14z" />
    <glyph glyph-name="seveninferior" unicode="&#x2087;" 
d="M65 -102l159 277h-166v91h291v-66l-196 -346z" />
    <glyph glyph-name="eightinferior" unicode="&#x2088;" 
d="M88 81q-32 33 -32 73q0 51 39.5 86t97.5 35t97.5 -35t39.5 -86q0 -40 -32 -73q44 -41 44 -89q0 -56 -42.5 -93.5t-106.5 -37.5t-106.5 37.5t-42.5 93.5q0 48 44 89zM193 35q-23 0 -36.5 -11.5t-13.5 -31.5q0 -19 13.5 -31t35.5 -12q23 0 36.5 12t13.5 31q0 20 -13.5 31.5
t-35.5 11.5zM193 189q-19 0 -30 -10t-11 -27q0 -16 11.5 -25.5t29.5 -9.5t29.5 10t11.5 26t-11.5 26t-29.5 10z" />
    <glyph glyph-name="nineinferior" unicode="&#x2089;" 
d="M175 -146l-79 55l67 89q-55 10 -88 46.5t-33 86.5q0 60 44.5 102t107.5 42q64 0 109 -42t45 -102q0 -49 -33 -93zM195 186q-23 0 -38 -15.5t-15 -38.5q0 -21 15 -35t38 -14t38 14t15 36q0 23 -15 38t-38 15z" />
    <glyph glyph-name="franc" unicode="&#x20a3;" horiz-adv-x="771" 
d="M475 667v-136h-223v-125h165v-137h-165v-269h-148v667h371zM592 406v-20q37 23 76 23q18 0 45 -4v-125q-30 3 -46 3q-43 0 -59 -22t-16 -83v-178h-142v406h142z" />
    <glyph glyph-name="lira" unicode="&#x20a4;" horiz-adv-x="572" 
d="M270 320h179v-102h-163q1 -45 -18 -84h270v-134h-479v115l12 10l14 11q54 48 52 80v1v1h-78v102h62l-5 25h-57v102h41v12q0 111 68 170q64 55 155 55q103 0 166 -72q24 -29 45 -62l-120 -75q-29 44 -48 59t-47 15q-37 0 -54.5 -24.5t-17.5 -77.5h202v-102h-184z" />
    <glyph glyph-name="peseta" unicode="&#x20a7;" horiz-adv-x="607" 
d="M119 0v402h-51v94h51v171h164q203 3 244 -171h56v-94h-56q-42 -173 -244 -170h-16v-232h-148zM266 402v-38h26q38 0 57 8.5t30 29.5h-113zM266 496h113q-11 22 -29 30t-58 9h-26v-39z" />
    <glyph glyph-name="uni20AB" unicode="&#x20ab;" horiz-adv-x="551" 
d="M354 492h-108v122h108v53h142v-53h54v-122h-54v-492h-142v22q-52 -39 -111 -39q-93 0 -158.5 70t-65.5 169t65.5 168.5t158.5 69.5q58 0 111 -38v70zM258 332q-43 0 -69.5 -31t-26.5 -81q0 -48 27 -78.5t70 -30.5q44 0 70 30.5t26 81.5q0 50 -26.5 79.5t-70.5 29.5z
M28 -35h520v-132h-520v132z" />
    <glyph glyph-name="Euro" unicode="&#x20ac;" horiz-adv-x="801" 
d="M289 345v-13v-12h342l-43 -102h-266q63 -97 176 -97q52 0 101.5 26.5t117.5 89.5v-179q-11 -7 -11 -8q-5 -3 -15 -11q-34 -25 -87.5 -40.5t-104.5 -15.5q-116 0 -206 62.5t-133 172.5h-109l42 102h47v1v5v6v13h-89l42 102h67q41 111 132 174t212 63q67 0 119 -18.5
t124 -67.5l-55 -132l-35 24q-82 56 -158 56q-114 0 -178 -99h363l-43 -102h-352z" />
    <glyph glyph-name="uni20B4" unicode="&#x20b4;" horiz-adv-x="626" 
d="M214 474l-123 77q43 71 94 103t122 32q94 0 158.5 -57.5t64.5 -142.5q0 -19 -4 -38h32v-89h-81q-1 0 -5 -3.5t-11.5 -8.5l-16.5 -11h114v-89h-290q-20 -13 -26.5 -22t-6.5 -22q0 -33 25.5 -56.5t60.5 -23.5q56 0 79 60q2 5 14 49l145 -39q-17 -78 -54 -126
q-30 -38 -78.5 -59.5t-103.5 -21.5q-98 0 -167.5 63t-69.5 152q0 19 4 46h-22v89h74q11 11 29 23h-103v89h294q21 15 21 35q0 28 -20.5 46.5t-50.5 18.5q-31 0 -50 -14t-48 -60z" />
    <glyph glyph-name="uni2101" unicode="&#x2101;" horiz-adv-x="945" 
d="M340 353h-145l-32 -86h-109l157 404h113l113 -291l-66 -113zM306 446l-39 107l-39 -107h78zM578 118l101 25q2 -5 3 -10q11 -55 50 -55q20 0 34 12t14 30q0 10 -10.5 18t-38.5 19l-35 13q-99 36 -99 115q0 53 41.5 89t102.5 36q86 0 138 -82l2 -3l1 -2l-86 -52l-5 7
q-15 23 -26 30.5t-27 7.5t-26.5 -9t-10.5 -23q0 -16 36 -29l37 -13q110 -40 110 -121q0 -58 -44.5 -97.5t-108.5 -39.5q-123 0 -153 134zM663 684l80 -46l-379 -655l-80 46z" />
    <glyph glyph-name="afii61248" unicode="&#x2105;" horiz-adv-x="1051" 
d="M669 684l80 -46l-379 -655l-80 46zM774 406q92 0 157 -61.5t65 -147.5t-65 -147.5t-156 -61.5q-92 0 -157 62t-65 150q0 83 66 144.5t155 61.5zM774 314q-50 0 -84.5 -34.5t-34.5 -84.5q0 -47 35.5 -81t84.5 -34t84 34.5t35 82.5q0 49 -35 83t-85 34zM449 597l-73 -65
q-28 31 -50.5 43t-51.5 12q-50 0 -84 -34.5t-34 -83.5t34.5 -83t84.5 -34q51 0 93 45q7 8 10 11l73 -65l-11 -11q-72 -72 -164 -72t-157 61.5t-65 147.5q0 87 65 148.5t157 61.5q94 0 173 -82z" />
    <glyph glyph-name="uni2117" unicode="&#x2117;" horiz-adv-x="833" 
d="M291 558h124q64 0 99 -21q33 -19 52 -53t19 -75t-18.5 -75.5t-51.5 -53.5q-38 -21 -104 -21h-7v-151h-113v450zM403 363h18q29 0 41.5 10t12.5 35t-12.5 35t-41.5 10h-18v-90zM421 716q155 0 266.5 -112.5t111.5 -269.5q0 -159 -112 -271t-271 -112q-158 0 -270 112
t-112 269q0 161 112 272.5t275 111.5zM414 622q-117 0 -201.5 -85t-84.5 -203q0 -120 84.5 -204.5t204.5 -84.5q119 0 203.5 84.5t84.5 205.5q0 119 -85 203t-206 84z" />
    <glyph glyph-name="trademark" unicode="&#x2122;" horiz-adv-x="672" 
d="M273 673v-64h-75v-248h-71v248h-76v64h222zM298 361v312h65l97 -163l96 163h65v-312h-71v174l-66 -112h-49l-66 111v-173h-71z" />
    <glyph glyph-name="uni2126" unicode="&#x2126;" horiz-adv-x="793" 
d="M425 0v173q69 19 99 43q75 55 75 143q0 78 -59 132.5t-144 54.5t-144 -54.5t-59 -132.5q0 -48 25.5 -89.5t71.5 -67.5q22 -13 78 -29v-173h-309v137h84q-54 57 -76.5 107t-22.5 114q0 134 103.5 230t249.5 96q145 0 248 -96t103 -230q0 -64 -22.5 -114.5t-75.5 -106.5h83
v-137h-308z" />
    <glyph glyph-name="estimated" unicode="&#x212e;" horiz-adv-x="745" 
d="M691 287h-464v-80q18 -45 39 -65q37 -32 109 -32q85 0 130 45q26 26 51 82h131q-19 -62 -30.5 -89t-30.5 -52q-84 -113 -248 -113q-151 0 -237.5 92.5t-86.5 253.5q0 162 88 258.5t236 96.5q103 0 181.5 -51.5t109.5 -140.5q21 -56 22 -205zM527 402v64q-38 91 -148 91
q-58 0 -90 -19.5t-62 -73.5v-62h300z" />
    <glyph glyph-name="onethird" unicode="&#x2153;" horiz-adv-x="833" 
d="M547 685l79 -46l-379 -655l-79 46zM581 249h42q41 0 41 33q0 15 -10 24t-27 9q-18 0 -29 -7.5t-31 -33.5l-83 44q30 47 62.5 66.5t79.5 19.5q59 0 98.5 -34.5t39.5 -86.5q0 -41 -30 -72q39 -42 39 -88q0 -57 -42.5 -95t-106.5 -38q-35 0 -67 14t-49 37q-20 27 -33 76
l96 25l2 -9q8 -30 19.5 -41.5t32.5 -11.5t34 12t13 32q0 39 -49 39h-42v86zM228 271h-101v276l-38 -21l-49 79l113 61h75v-395z" />
    <glyph glyph-name="twothirds" unicode="&#x2154;" horiz-adv-x="833" 
d="M570 684l80 -46l-379 -655l-80 46zM42 271v73l142 150q35 36 35 62q0 30 -37 30q-22 0 -32 -11t-21 -47l-94 25q11 45 31 74q38 49 116 49q61 0 99 -33.5t38 -88.5q0 -56 -46 -105l-83 -87h137v-91h-285zM579 249h42q41 0 41 33q0 15 -10.5 24t-27.5 9q-18 0 -28.5 -7.5
t-30.5 -33.5l-83 44q30 47 62.5 66.5t79.5 19.5q59 0 98.5 -34.5t39.5 -86.5q0 -41 -30 -72q39 -42 39 -87q0 -58 -42.5 -96t-106.5 -38q-35 0 -67 14t-50 37q-20 29 -32 76l96 25l2 -9q8 -30 19.5 -41.5t32.5 -11.5t34 12t13 32q0 39 -49 39h-42v86z" />
    <glyph glyph-name="oneeighth" unicode="&#x215b;" horiz-adv-x="833" 
d="M527 684l80 -46l-379 -655l-80 46zM229 271h-101v276l-38 -21l-49 79l113 61h75v-395zM517 210q-32 33 -32 73q0 51 39.5 86t97.5 35t97.5 -35t39.5 -86q0 -39 -31 -73q24 -23 33.5 -42.5t9.5 -46.5q0 -56 -42.5 -93.5t-106.5 -37.5t-106.5 37.5t-42.5 93.5q0 49 44 89z
M622 165q-23 0 -36.5 -12t-13.5 -32q0 -19 13.5 -31t35.5 -12q23 0 36.5 12t13.5 32t-13.5 31.5t-35.5 11.5zM622 318q-19 0 -30 -10t-11 -26t11.5 -25.5t29.5 -9.5t29.5 9.5t11.5 25.5t-11.5 26t-29.5 10z" />
    <glyph glyph-name="threeeighths" unicode="&#x215c;" horiz-adv-x="833" 
d="M551 684l80 -46l-379 -655l-80 46zM506 210q-32 33 -32 73q0 51 39.5 86t97.5 35t97.5 -35t39.5 -86q0 -40 -32 -73q44 -41 44 -89q0 -56 -42.5 -93.5t-106.5 -37.5t-106.5 37.5t-42.5 93.5q0 49 44 89zM611 165q-22 0 -35.5 -11.5t-13.5 -31.5t13.5 -32t36.5 -12
q22 0 35.5 12t13.5 32t-13.5 31.5t-36.5 11.5zM611 318q-19 0 -30 -10t-11 -26t11.5 -25.5t29.5 -9.5t29.5 9.5t11.5 25.5t-11.5 26t-29.5 10zM142 520h42q41 0 41 33q0 15 -10 24t-27 9q-18 0 -29 -7.5t-31 -33.5l-83 44q30 47 62.5 67t79.5 20q59 0 98.5 -34.5t39.5 -86.5
q0 -40 -30 -73q39 -42 39 -87q0 -58 -42 -95.5t-107 -37.5q-119 0 -149 126l96 25l2 -9q9 -30 20 -41t32 -11t34 12t13 31q0 39 -49 39h-42v86z" />
    <glyph glyph-name="fiveeighths" unicode="&#x215d;" horiz-adv-x="833" 
d="M555 684l80 -46l-379 -655l-80 46zM185 548h10q60 0 104 -42t44 -99q0 -61 -46 -103.5t-113 -42.5q-47 0 -82.5 21t-68.5 70l82 54q19 -32 34 -44t37 -12q24 0 40.5 16t16.5 39q0 24 -16 39.5t-40 15.5t-45 -22l-1 -1l-2 -2l-77 15l46 216h217v-91h-134zM507 210
q-31 32 -31 73q0 51 39 86t97 35t97.5 -35t39.5 -86q0 -41 -32 -73q44 -41 44 -89q0 -56 -42.5 -93.5t-106.5 -37.5t-106.5 37.5t-42.5 93.5q0 49 44 89zM611 165q-22 0 -35 -12t-13 -31q0 -20 13 -32t36 -12t36.5 12t13.5 32t-14 31.5t-37 11.5zM612 318q-18 0 -29 -10
t-11 -26t11 -25.5t29 -9.5t29.5 9.5t11.5 25.5t-11.5 26t-29.5 10z" />
    <glyph glyph-name="seveneighths" unicode="&#x215e;" horiz-adv-x="833" 
d="M515 684l80 -46l-379 -655l-79 46zM503 210q-32 33 -32 73q0 51 39.5 86t97.5 35t97.5 -35t39.5 -86q0 -40 -32 -73q44 -41 44 -89q0 -56 -42.5 -93.5t-106.5 -37.5t-106.5 37.5t-42.5 93.5q0 49 44 89zM608 165q-23 0 -36.5 -12t-13.5 -32q0 -19 13.5 -31t35.5 -12
q23 0 36.5 12t13.5 32t-13.5 31.5t-35.5 11.5zM608 318q-19 0 -30 -10t-11 -26t11.5 -25.5t29.5 -9.5t29.5 9.5t11.5 25.5t-11.5 26t-29.5 10zM70 298l159 277h-166v91h291v-66l-196 -346z" />
    <glyph glyph-name="partialdiff" unicode="&#x2202;" horiz-adv-x="583" 
d="M102 538l19 129q123 -16 196 -50t128 -103q87 -108 87 -272q0 -115 -66.5 -187t-173.5 -72q-101 0 -171 69.5t-70 169.5q0 102 73 172q68 65 144 65q9 0 18 -3l-4 4q-37 34 -74 50t-106 28zM291 333q-43 0 -70 -30.5t-27 -80.5t27 -80.5t71 -30.5t71 31t27 81t-27 80
t-72 30z" />
    <glyph glyph-name="emptyset" unicode="&#x2205;" horiz-adv-x="653" 
d="M258 65l-58 -114l-108 55l59 115q-55 52 -77.5 100t-22.5 110q0 117 80.5 197.5t196.5 80.5q26 0 66 -8l58 114l108 -55l-58 -116q47 -43 67 -81q33 -60 33 -129q0 -116 -82 -196t-200 -80q-29 0 -62 7zM444 432l-127 -250q7 -1 15 -1q59 0 103.5 45.5t44.5 106.5
q0 51 -36 99zM210 236l126 249q-7 1 -15 1q-59 0 -103.5 -46t-44.5 -107q0 -50 37 -97z" />
    <glyph glyph-name="Delta" unicode="&#x2206;" horiz-adv-x="696" 
d="M681 0h-667l253 667h161zM219 138h257l-129 360z" />
    <glyph glyph-name="product" unicode="&#x220f;" horiz-adv-x="660" 
d="M242 0h-148v530h-76v137h625v-137h-76v-530h-148v530h-177v-530z" />
    <glyph glyph-name="summation" unicode="&#x2211;" horiz-adv-x="673" 
d="M262 345l-150 213v109h462v-137h-271l132 -185l-146 -207h304v-138h-499v109z" />
    <glyph glyph-name="minus" unicode="&#x2212;" horiz-adv-x="556" 
d="M512 377v-129h-467v129h467z" />
    <glyph glyph-name="uni2215" unicode="&#x2215;" horiz-adv-x="180" 
d="M240 684l79 -46l-378 -655l-80 46z" />
    <glyph glyph-name="uni2218" unicode="&#x2218;" horiz-adv-x="515" 
d="M260 506q70 0 120.5 -51t50.5 -122q0 -72 -51 -122.5t-122 -50.5q-73 0 -123.5 50.5t-50.5 123.5q0 72 51 122t125 50zM256 425q-37 0 -64 -27t-27 -65t27 -65t66 -27q38 0 65 27t27 66q0 38 -27.5 64.5t-66.5 26.5z" />
    <glyph glyph-name="radical" unicode="&#x221a;" horiz-adv-x="632" 
d="M98 301h-80v136h189l75 -225l206 616h327v-137h-217l-234 -691h-164z" />
    <glyph glyph-name="infinity" unicode="&#x221e;" horiz-adv-x="732" 
d="M367 233q-43 -46 -79.5 -64.5t-84.5 -18.5q-81 0 -133 53t-52 135q0 80 52.5 133t132.5 53q47 0 84 -19t78 -62q72 82 166 82q80 0 132 -53t52 -135q0 -81 -52 -134t-132 -53q-91 0 -164 83zM444 337q23 -31 40.5 -43.5t39.5 -12.5q25 0 41 16t16 41q0 24 -17 40t-42 16
q-38 0 -78 -57zM289 337q-24 32 -41 44t-39 12q-25 0 -41 -16t-16 -40t17 -40t42 -16q37 0 78 56z" />
    <glyph glyph-name="integral" unicode="&#x222b;" horiz-adv-x="318" 
d="M18 -178v126q27 -9 43 -9q27 0 27 35v607q0 77 35.5 118t101.5 41q32 0 76 -10v-126q-27 9 -44 9q-27 0 -27 -35v-607q0 -77 -35.5 -118t-101.5 -41q-31 0 -75 10z" />
    <glyph glyph-name="similar" unicode="&#x223c;" horiz-adv-x="610" 
d="M120 196l-98 64q38 85 74 119q40 42 105 42q49 0 126 -37q60 -28 83 -28q26 0 48 31q3 5 30 48l101 -59q-37 -77 -64 -105q-54 -54 -119 -54q-51 0 -159 50q-30 15 -52 15q-17 0 -30.5 -15.5t-44.5 -70.5z" />
    <glyph glyph-name="uni2243" unicode="&#x2243;" horiz-adv-x="610" 
d="M121 293l-99 64q38 83 74 120q41 41 105 41q51 0 126 -37q60 -28 83 -28q26 0 48 31q4 4 30 48l101 -59q-39 -79 -65 -105q-52 -54 -118 -54q-51 0 -159 50q-30 15 -52 15q-18 0 -31 -15t-43 -71zM579 270v-128h-548v128h548z" />
    <glyph glyph-name="approxequal" unicode="&#x2248;" horiz-adv-x="610" 
d="M121 309l-99 64q38 83 74 120q41 41 105 41q51 0 126 -37q60 -28 83 -28q26 0 48 31q3 3 30 49l101 -59q-38 -79 -65 -106q-52 -54 -118 -54q-51 0 -159 50q-30 15 -52 15q-18 0 -31 -15t-43 -71zM121 91l-99 64q38 84 74 120q40 42 105 42q49 0 126 -37q59 -29 83 -29
q26 0 48 31q6 8 30 49l101 -59q-37 -77 -64 -105q-53 -55 -119 -55q-49 0 -159 51q-30 15 -52 15q-17 0 -31 -16t-43 -71z" />
    <glyph glyph-name="notequal" unicode="&#x2260;" horiz-adv-x="591" 
d="M376 337l-24 -49h218v-129h-282l-60 -120l-113 47l36 73h-129v129h194l24 49h-218v129h282l60 120l113 -47l-36 -73h129v-129h-194z" />
    <glyph glyph-name="lessequal" unicode="&#x2264;" horiz-adv-x="591" 
d="M503 129l-457 205v108l500 228v-146l-304 -134l304 -135v-255h-500v129h457z" />
    <glyph glyph-name="greaterequal" unicode="&#x2265;" horiz-adv-x="591" 
d="M89 129h457v-129h-500v255l304 135l-304 134v146l500 -228v-108z" />
    <glyph glyph-name="dotmath" unicode="&#x22c5;" horiz-adv-x="266" 
d="M132 415q35 0 60 -24t25 -58t-25 -58t-60 -24t-59.5 24t-24.5 59q0 33 25 57t59 24z" />
    <glyph glyph-name="lozenge" unicode="&#x25ca;" horiz-adv-x="682" 
d="M341 -40l-289 373l289 373l289 -373zM462 333l-121 153l-121 -153l121 -152z" />
    <glyph glyph-name="openbullet" unicode="&#x25e6;" horiz-adv-x="515" 
d="M260 506q70 0 120.5 -51t50.5 -122q0 -72 -51 -122.5t-122 -50.5q-73 0 -123.5 50.5t-50.5 123.5q0 72 51 122t125 50zM256 425q-37 0 -64 -27t-27 -65t27 -65t66 -27q38 0 65 27t27 66q0 38 -27.5 64.5t-66.5 26.5z" />
    <glyph glyph-name="commaaccent" unicode="&#xf6c3;" horiz-adv-x="476" 
d="M187 -16l133 -38l-91 -195l-106 30z" />
    <glyph glyph-name="Acute" unicode="&#xf6c9;" horiz-adv-x="476" 
d="M414 854l-172 -161l-96 51l137 175z" />
    <glyph glyph-name="Caron" unicode="&#xf6ca;" horiz-adv-x="476" 
d="M152 902l86 -78l87 78l108 -50l-152 -155h-85l-152 155z" />
    <glyph glyph-name="Dieresis" unicode="&#xf6cb;" horiz-adv-x="476" 
d="M332 876q32 0 55 -22.5t23 -54.5t-23 -54t-56 -22t-55.5 22.5t-22.5 55.5q0 31 23.5 53t55.5 22zM144 876q32 0 55 -22.5t23 -54.5q0 -31 -23 -53.5t-55 -22.5q-34 0 -56.5 22.5t-22.5 55.5q0 31 23.5 53t55.5 22z" />
    <glyph glyph-name="Grave" unicode="&#xf6ce;" horiz-adv-x="476" 
d="M62 854l131 65l137 -175l-96 -51z" />
    <glyph glyph-name="Hungarumlaut" unicode="&#xf6cf;" horiz-adv-x="476" 
d="M324 859l41 58l115 -62l-171 -160l-72 42l65 91l-143 -133l-81 48l136 174z" />
    <glyph glyph-name="Macron" unicode="&#xf6d0;" horiz-adv-x="476" 
d="M70 858h336v-117h-336v117z" />
    <glyph glyph-name="one.fitted" horiz-adv-x="558" 
d="M233 487l-70 -39l-71 120l176 99h113v-532h106v-135h-371v135h117v352z" />
    <glyph glyph-name="two.fitted" horiz-adv-x="558" 
d="M66 0v113l234 256q60 68 60 117q0 30 -19 46.5t-53 16.5q-40 0 -59 -20t-35 -80l-138 38q16 74 51 118q28 37 76.5 58t104.5 21q98 0 158.5 -55.5t60.5 -146.5q0 -96 -74 -176l-154 -169h242v-137h-455z" />
    <glyph glyph-name="three.fitted" horiz-adv-x="558" 
d="M207 283v129h60q80 0 80 68q0 32 -20.5 50.5t-55.5 18.5q-30 0 -49.5 -13.5t-51.5 -55.5l-121 66q45 74 96.5 106t124.5 32q97 0 160 -57t63 -144q0 -73 -55 -128q69 -63 69 -152q0 -95 -67.5 -157.5t-170.5 -62.5q-55 0 -103 20.5t-78 57.5q-36 42 -56 125l141 37
q17 -61 37 -83t60 -22t64.5 23.5t24.5 62.5q0 79 -92 79h-60z" />
    <glyph glyph-name="four.fitted" horiz-adv-x="558" 
d="M314 691l122 -74l-224 -351h101v112h147v-112h61v-135h-61v-131h-147v131h-283v117z" />
    <glyph glyph-name="five.fitted" horiz-adv-x="558" 
d="M262 530l-15 -69q7 1 18 1q106 0 177.5 -67.5t71.5 -167.5q0 -103 -73.5 -173.5t-180.5 -70.5q-77 0 -133.5 34.5t-105.5 111.5l120 82q28 -52 54.5 -72.5t64.5 -20.5q46 0 76.5 30t30.5 76q0 45 -29.5 75t-74.5 30q-25 0 -41.5 -8.5t-40.5 -33.5l-114 24l73 356h343
v-137h-221z" />
    <glyph glyph-name="six.fitted" horiz-adv-x="558" 
d="M313 691l115 -84l-115 -159q79 -12 128 -52q81 -67 81 -172q0 -100 -71.5 -170.5t-172.5 -70.5q-103 0 -174.5 70t-71.5 170q0 82 54 156zM277 318q-42 0 -70 -28t-28 -70q0 -44 28 -73t70 -29t70 30t28 75q0 41 -28 68t-70 27z" />
    <glyph glyph-name="seven.fitted" horiz-adv-x="558" 
d="M78 42l268 488h-283v137h465v-102l-321 -589z" />
    <glyph glyph-name="eight.fitted" horiz-adv-x="558" 
d="M119 355q-58 59 -58 128q0 85 63.5 143t155.5 58t155 -58t63 -143q0 -69 -58 -128q78 -65 78 -155q0 -92 -68.5 -154.5t-169.5 -62.5q-102 0 -170.5 62.5t-68.5 154.5q0 90 78 155zM279 286q-42 0 -67 -23.5t-25 -61.5t25.5 -61.5t66.5 -23.5q42 0 67.5 23.5t25.5 62.5
q0 38 -25.5 61t-67.5 23zM279 555q-34 0 -55.5 -21t-21.5 -54q0 -32 22 -52t56 -20t56 20.5t22 52.5q0 33 -22 53.5t-57 20.5z" />
    <glyph glyph-name="nine.fitted" horiz-adv-x="558" 
d="M245 -24l-116 84l116 159q-79 12 -128 52q-82 67 -82 172q0 100 71.5 170.5t172.5 70.5q103 0 174.5 -70t71.5 -170q0 -83 -53 -156zM280 549q-42 0 -70 -30t-28 -74q0 -42 27.5 -69t70.5 -27q42 0 70 28t28 70q0 44 -28 73t-70 29z" />
    <glyph glyph-name="zero.fitted" horiz-adv-x="558" 
d="M280 684q268 0 268 -351q0 -172 -68 -261t-200 -89q-269 0 -269 355q0 170 68.5 258t200.5 88zM279 549q-47 0 -75 -31q-19 -22 -31.5 -71.5t-12.5 -105.5q0 -114 29 -168.5t90 -54.5q62 0 91 52.5t29 163.5q0 145 -51 191q-27 24 -69 24z" />
    <glyph glyph-name="sterling.fitted" horiz-adv-x="558" 
d="M442 401v-129h-169q7 -46 7 -68q0 -33 -18 -70h269v-134h-479v115q14 11 23 18q55 44 55 86q0 18 -6 53h-72v129h45q-4 35 -4 57q0 113 68 170q64 56 155 56q103 0 166 -72q24 -29 45 -62l-120 -75q-28 44 -47.5 59t-47.5 15q-72 0 -72 -93q0 -26 6 -55h196z" />
    <glyph glyph-name="dollar.fitted" horiz-adv-x="558" 
d="M179 230l2 -8l4 -16q21 -85 87 -85q36 0 61 24t25 58q0 22 -19 38t-65 34l-58 22q-153 59 -153 185q0 67 40.5 119t108.5 72v94h146v-94q84 -23 143 -124l-122 -77q-30 46 -48.5 60t-49.5 14q-30 0 -50.5 -18.5t-20.5 -46.5q0 -35 67 -60l60 -22q170 -64 170 -195
q0 -69 -40 -124t-109 -82v-101h-146v93q-73 17 -118.5 68.5t-59.5 132.5z" />
    <glyph glyph-name="cent.fitted" horiz-adv-x="558" 
d="M365 0h-146v108q-73 24 -117.5 86t-44.5 140t44.5 139.5t117.5 85.5v108h146v-104q65 -17 122 -75l-88 -96q-29 29 -50 40.5t-49 11.5q-46 0 -73 -30t-27 -80q0 -51 27 -81t73 -30q30 0 53 12.5t49 43.5l87 -97q-56 -60 -124 -79v-103z" />
    <glyph glyph-name="florin.fitted" horiz-adv-x="558" 
d="M26 -185l27 127q11 -3 19 -6q21 -7 32 -7q21 0 28 40l73 347h-42l27 127h41l17 80q16 74 58 115.5t101 41.5q35 0 90 -17l-27 -129q-36 14 -50 14q-20 0 -29 -40l-14 -65h75l-27 -127h-74l-76 -362q-15 -74 -57 -115t-102 -41q-35 0 -90 17z" />
    <glyph glyph-name="Euro.fitted" horiz-adv-x="558" 
d="M177 345v-11v-14h342l-42 -102h-267q63 -97 176 -97q52 0 101.5 26.5t117.5 89.5v-179q-9 -6 -11 -8q-5 -3 -15 -11q-34 -25 -87 -40.5t-105 -15.5q-116 0 -208 64t-131 171h-109l43 102h46v1v5v3v13v3h-89l43 102h66q43 113 133 175t211 62q67 0 119 -18.5t124 -67.5
l-54 -128q-81 49 -116 62.5t-78 13.5q-114 0 -178 -99h363l-43 -102h-352z" />
    <glyph glyph-name="yen.fitted" horiz-adv-x="558" 
d="M179 320l-14 25h-108v102h50l-126 220h166l131 -236h3l131 236h165l-126 -220h50v-102h-108l-14 -25h122v-102h-148v-218h-148v218h-148v102h122z" />
    <glyph glyph-name="one.numerator" 
d="M260 271h-101v276l-38 -21l-49 79l113 61h75v-395z" />
    <glyph glyph-name="two.numerator" 
d="M55 271v73l142 150q35 36 35 62q0 30 -37 30q-22 0 -32 -11t-21 -47l-94 25q11 45 31 74q38 49 116 49q61 0 99 -33.5t38 -88.5q0 -56 -46 -105l-83 -87h137v-91h-285z" />
    <glyph glyph-name="three.numerator" 
d="M146 520h42q41 0 41 33q0 15 -10 24t-27 9q-18 0 -29 -7.5t-31 -33.5l-83 44q30 47 62.5 67t79.5 20q59 0 98.5 -34.5t39.5 -86.5q0 -40 -30 -73q39 -42 39 -87q0 -58 -42 -95.5t-107 -37.5q-119 0 -149 126l96 25l2 -9q9 -30 20 -41t32 -11t34 12t13 31q0 39 -49 39h-42
v86z" />
    <glyph glyph-name="four.numerator" 
d="M295 634l-132 -198h44v64h100v-64h37v-90h-37v-75h-100v75h-170v75l175 262z" />
    <glyph glyph-name="five.numerator" 
d="M183 548h10q60 0 104 -42t44 -99q0 -61 -46 -103.5t-113 -42.5q-47 0 -82.5 21t-68.5 70l82 54q19 -32 34 -44t37 -12q24 0 40.5 16t16.5 39q0 24 -16 39.5t-40 15.5t-45 -22l-1 -1l-2 -2l-77 15l46 216h217v-91h-134z" />
    <glyph glyph-name="six.numerator" 
d="M212 683l79 -55l-67 -89q55 -10 88 -46.5t33 -86.5q0 -60 -44.5 -102t-107.5 -42q-64 0 -109 42t-45 102q0 48 34 93zM192 454q-23 0 -38 -14t-15 -36t15 -37t38 -15q22 0 37.5 15t15.5 38q0 21 -15 35t-38 14z" />
    <glyph glyph-name="seven.numerator" 
d="M65 298l159 277h-166v91h291v-66l-196 -346z" />
    <glyph glyph-name="eight.numerator" 
d="M88 482q-32 33 -32 73q0 51 39.5 86t97.5 35t97.5 -35t39.5 -86q0 -40 -32 -73q44 -41 44 -89q0 -56 -42.5 -93.5t-106.5 -37.5t-106.5 37.5t-42.5 93.5q0 48 44 89zM192 436q-22 0 -35.5 -11.5t-13.5 -31.5q0 -19 13.5 -31t36.5 -12q22 0 35.5 12t13.5 31
q0 20 -13.5 31.5t-36.5 11.5zM193 590q-19 0 -30 -10t-11 -27q0 -16 11.5 -25.5t29.5 -9.5t29.5 10t11.5 26t-11.5 26t-29.5 10z" />
    <glyph glyph-name="nine.numerator" 
d="M175 255l-79 55l67 89q-55 10 -88 46.5t-33 86.5q0 60 44.5 102t108.5 42t108.5 -42t44.5 -102q0 -49 -33 -93zM195 587q-23 0 -38 -15.5t-15 -38.5q0 -21 15 -35t38 -14t38 14t15 36q0 23 -15 38t-38 15z" />
    <glyph glyph-name="zero.numerator" 
d="M193 676q167 0 167 -207t-166 -207q-168 0 -168 210q0 99 42.5 151.5t124.5 52.5zM193 586q-66 0 -66 -119q0 -33 8 -62.5t20 -39.5q15 -13 38 -13q28 0 42 17q10 11 17 40t7 59q0 118 -66 118z" />
    <glyph glyph-name="one.denominator" 
d="M260 0h-101v276l-38 -21l-49 79l113 61h75v-395z" />
    <glyph glyph-name="two.denominator" 
d="M55 0v74l142 148q35 38 35 63q0 30 -37 30q-22 0 -32 -11t-21 -47l-94 24q11 47 31 74q38 49 116 49q61 0 99 -33.5t38 -87.5q0 -57 -46 -105l-83 -87h137v-91h-285z" />
    <glyph glyph-name="three.denominator" 
d="M146 249h42q41 0 41 33q0 15 -10 24t-27 9q-18 0 -29.5 -7.5t-30.5 -33.5l-83 44q30 47 62.5 66.5t79.5 19.5q59 0 98.5 -34.5t39.5 -86.5q0 -39 -30 -72q39 -42 39 -88q0 -57 -42.5 -95t-106.5 -38q-119 0 -149 127l96 25l2 -9q8 -30 19.5 -41.5t32.5 -11.5t34 12t13 32
q0 39 -49 39h-42v86z" />
    <glyph glyph-name="four.denominator" 
d="M295 362l-132 -197h44v64h100v-64h37v-90h-37v-75h-100v75h-170v75l175 261z" />
    <glyph glyph-name="five.denominator" 
d="M183 277h10q60 0 104 -42t44 -99q0 -61 -46 -103.5t-113 -42.5q-47 0 -82.5 21t-68.5 70l82 55q19 -33 34 -45t37 -12q24 0 40.5 16t16.5 39q0 24 -16 39.5t-40 15.5t-45 -22l-1 -1l-2 -2l-77 16l46 215h217v-91h-134z" />
    <glyph glyph-name="six.denominator" 
d="M212 411l79 -55l-67 -88q55 -10 88 -46.5t33 -87.5q0 -60 -44.5 -102t-107.5 -42q-64 0 -109 42t-45 102q0 50 34 93zM192 182q-23 0 -38 -14t-15 -36q0 -23 15 -38t38 -15t38 15.5t15 38.5q0 21 -15 35t-38 14z" />
    <glyph glyph-name="seven.denominator" 
d="M65 27l159 277h-166v91h291v-66l-196 -345z" />
    <glyph glyph-name="eight.denominator" 
d="M88 210q-32 33 -32 73q0 51 39.5 86t97.5 35t97.5 -35t39.5 -86q0 -40 -32 -73q44 -41 44 -89q0 -56 -42.5 -93.5t-106.5 -37.5t-106.5 37.5t-42.5 93.5q0 49 44 89zM192 165q-22 0 -35.5 -11.5t-13.5 -31.5t13.5 -32t35.5 -12q23 0 36.5 12t13.5 32t-13.5 31.5
t-36.5 11.5zM193 318q-18 0 -29.5 -10t-11.5 -26t11.5 -25.5t29.5 -9.5t29.5 9.5t11.5 25.5t-11.5 26t-29.5 10z" />
    <glyph glyph-name="nine.denominator" 
d="M175 -16l-79 55l67 88q-55 10 -88 46.5t-33 86.5q0 60 44.5 102t107.5 42q64 0 109 -42t45 -102q0 -47 -33 -93zM195 315q-23 0 -38 -15.5t-15 -38.5q0 -21 15 -35t38 -14t38 14t15 36q0 23 -15 38t-38 15z" />
    <glyph glyph-name="zero.denominator" 
d="M193 404q167 0 167 -207q0 -101 -42.5 -154t-123.5 -53q-168 0 -168 210q0 99 43 151.5t124 52.5zM193 314q-66 0 -66 -119q0 -33 8 -62.5t20 -39.5q13 -13 38 -13q28 0 42 17q10 11 17 40t7 59q0 118 -66 118z" />
    <glyph glyph-name="onefifth" horiz-adv-x="833" 
d="M528 684l80 -46l-379 -655l-80 46zM604 277h10q60 0 104 -42t44 -99q0 -62 -45.5 -104t-112.5 -42q-48 0 -83.5 21t-68.5 70l83 55q18 -33 32.5 -45t37.5 -12q25 0 41 16t16 39q0 24 -16 39.5t-40 15.5t-45 -22l-2 -3l-78 16l47 215h216v-91h-134zM230 271h-101v276
l-38 -21l-49 79l113 61h75v-395z" />
    <glyph glyph-name="twofifth" horiz-adv-x="833" 
d="M576 684l80 -46l-379 -655l-80 46zM44 271v73l142 150q35 36 35 62q0 30 -37 30q-22 0 -32 -11t-21 -47l-94 25q11 45 31 74q38 49 116 49q61 0 99 -33.5t38 -88.5q0 -56 -46 -105l-83 -87h137v-91h-285zM601 277h10q60 0 104 -41.5t44 -99.5q0 -62 -45.5 -104
t-112.5 -42q-91 0 -152 91l83 55q18 -33 32.5 -45t37.5 -12q25 0 41 15.5t16 39.5t-16 39.5t-40 15.5q-26 0 -45 -22l-2 -3l-78 16l46 215h217v-91h-134z" />
    <glyph glyph-name="threefifth" horiz-adv-x="833" 
d="M555 684l80 -46l-379 -655l-79 46zM601 277h10q60 0 104 -42t44 -99q0 -62 -45.5 -104t-112.5 -42q-48 0 -83.5 21t-68.5 70l83 55q18 -33 32.5 -45t37.5 -12q25 0 41 15.5t16 39.5t-16 39.5t-40 15.5t-45 -22l-2 -3l-78 16l47 215h216v-91h-134zM142 520h42q41 0 41 33
q0 15 -10 24t-27 9q-18 0 -29 -7.5t-31 -33.5l-83 44q30 47 62.5 67t79.5 20q59 0 98.5 -34.5t39.5 -86.5q0 -40 -30 -73q39 -42 39 -87q0 -58 -42 -95.5t-107 -37.5q-119 0 -149 126l96 25l2 -9q9 -30 20 -41t32 -11t34 12t13 31q0 39 -49 39h-42v86z" />
    <glyph glyph-name="fourfifth" horiz-adv-x="833" 
d="M298 634l-132 -198h44v64h100v-64h37v-90h-37v-75h-100v75h-170v75l175 262zM569 684l80 -46l-379 -655l-80 46zM600 277h10q60 0 104 -42t44 -99q0 -62 -45.5 -104t-112.5 -42q-48 0 -83.5 21t-68.5 70l83 55q18 -33 32.5 -45t37.5 -12q25 0 41 15.5t16 39.5t-16 39.5
t-40 15.5t-45 -22l-2 -3l-78 16l47 215h216v-91h-134z" />
    <glyph glyph-name="onesixth" horiz-adv-x="833" 
d="M542 684l80 -46l-379 -655l-79 46zM627 411l79 -55l-67 -88q55 -10 88 -46.5t33 -87.5q0 -60 -44.5 -102t-107.5 -42q-64 0 -109 42t-45 102q0 50 34 93zM607 182q-23 0 -38 -14t-15 -36q0 -23 15 -38t38 -15t38 15.5t15 38.5q0 21 -15 35t-38 14zM231 271h-101v276
l-38 -21l-49 79l113 61h75v-395z" />
    <glyph glyph-name="fivesixth" horiz-adv-x="833" 
d="M581 684l80 -46l-379 -655l-80 46zM627 411l79 -55l-67 -88q55 -11 88 -47t33 -87q0 -60 -44.5 -102t-108.5 -42t-108.5 42t-44.5 102q0 51 33 93zM607 182q-23 0 -38 -14t-15 -36q0 -23 15 -38t38 -15t38 15.5t15 38.5q0 21 -15 35t-38 14zM188 548h10q60 0 104 -42
t44 -99q0 -61 -46 -103.5t-113 -42.5q-47 0 -82.5 21t-68.5 70l82 54q19 -32 34 -44t37 -12q24 0 40.5 16t16.5 39q0 24 -16 39.5t-40 15.5t-45 -22l-1 -1l-2 -2l-77 15l46 216h217v-91h-134z" />
    <glyph glyph-name="Dotaccent" horiz-adv-x="476" 
d="M237 881q35 0 60 -24t25 -58t-24.5 -58t-59.5 -24q-36 0 -60.5 24t-24.5 59q0 33 25 57t59 24z" />
    <glyph glyph-name="Ring" horiz-adv-x="476" 
d="M238 919q50 0 85.5 -35t35.5 -84t-35.5 -84t-85.5 -35t-85.5 35t-35.5 86q0 47 36 82t85 35zM238 852q-22 0 -37 -15.5t-15 -37.5q0 -20 15.5 -35.5t36.5 -15.5q22 0 37 15t15 37t-15 37t-37 15z" />
    <glyph glyph-name="Circumflex" horiz-adv-x="476" 
d="M152 694l-108 50l152 155h85l152 -155l-108 -50l-87 78z" />
    <glyph glyph-name="Breve" horiz-adv-x="476" 
d="M73 878l123 9q2 -50 9 -60q11 -13 31 -13q23 0 31 17q8 14 13 56l123 -9q-6 -49 -8.5 -60.5t-11.5 -28.5q-44 -89 -147 -89q-54 0 -96.5 28.5t-58.5 74.5q-7 20 -8 75z" />
    <glyph glyph-name="Tilde" horiz-adv-x="476" 
d="M290 881l118 -25q-4 -56 -21 -84q-28 -46 -90 -46q-41 0 -81 20q-10 6 -19 6q-7 0 -13 -34l-115 25q5 54 24 84q28 46 85 46q42 0 85 -24q10 -5 16 -5q8 0 11 37z" />
    <glyph glyph-name="Cedilla" horiz-adv-x="476" 
d="M367 -67l-142 -167l-103 47l117 171z" />
    <glyph glyph-name="Ogonek" horiz-adv-x="476" 
d="M317 0h142q-28 -37 -28 -53q0 -7 8 -7q12 0 35 12l43 -101q-71 -24 -103 -24q-54 0 -89 29t-35 73q0 32 27 71z" />
    <glyph glyph-name="Commaaccent" horiz-adv-x="476" 
d="M187 -16l133 -38l-91 -195l-106 30z" />
    <glyph glyph-name="Comma.high" horiz-adv-x="476" 
d="M307 918l133 -38l-91 -195l-106 31z" />
    <glyph glyph-name="Dieresis.alt" horiz-adv-x="476" 
d="M149 876q32 0 55 -22.5t23 -53.5q0 -32 -23 -54.5t-55 -22.5q-34 0 -56.5 22.5t-22.5 55.5q0 31 23.5 53t55.5 22zM322 876q32 0 55 -22.5t23 -53.5q0 -32 -23 -54.5t-56 -22.5q-32 0 -55 23t-23 55q0 31 23.5 53t55.5 22z" />
    <glyph glyph-name="comma.high" horiz-adv-x="476" 
d="M307 709l133 -38l-91 -195l-106 30z" />
    <glyph glyph-name="dieresis.alt" horiz-adv-x="476" 
d="M322 673q32 0 55 -22.5t23 -53.5q0 -32 -23 -54.5t-55 -22.5q-33 0 -56 22.5t-23 55.5q0 31 23.5 53t55.5 22zM149 673q32 0 55 -22.5t23 -53.5q0 -32 -23 -54.5t-55 -22.5q-34 0 -56.5 22.5t-22.5 55.5q0 31 23.5 53t55.5 22z" />
    <glyph glyph-name="commareversed" horiz-adv-x="476" 
d="M376 475l-133 37l91 196l106 -31z" />
    <glyph glyph-name="G.salt" horiz-adv-x="733" 
d="M659 560l-106 -98q-47 47 -84.5 65.5t-84.5 18.5q-89 0 -149 -61t-60 -152q0 -88 60.5 -150t146.5 -62q83 0 150 66v58h-164v135h310v-245q-2 -2 -2 -3q-112 -149 -294 -149q-147 0 -251.5 102.5t-104.5 247.5q0 146 105 248.5t254 102.5q77 0 140 -28.5t134 -95.5z" />
    <glyph glyph-name="M.salt" horiz-adv-x="832" 
d="M51 0l69 667h129l167 -338l167 338h130l68 -667h-149l-38 381l-122 -248h-111l-123 247l-38 -380h-149z" />
    <glyph glyph-name="y.salt" horiz-adv-x="475" 
d="M153 24l-168 419h150l96 -245l110 245h150l-263 -588q-48 -105 -126 -105q-32 0 -84 17l22 135q2 0 4.5 -1.5t3.5 -1.5q22 -11 34 -11q10 0 21 22z" />
    <glyph glyph-name="parenleft.salt" horiz-adv-x="339" 
d="M164 812l128 -61q-44 -113 -61.5 -206t-17.5 -212q0 -118 17.5 -211t61.5 -207l-128 -60q-27 59 -30 67q-29 72 -47.5 187t-18.5 224t18.5 225.5t47.5 186.5q5 11 30 67z" />
    <glyph glyph-name="parenright.salt" horiz-adv-x="339" 
d="M48 751l128 61q25 -57 30 -68q28 -69 47 -186t19 -225q0 -109 -18.5 -224t-47.5 -187q-3 -8 -30 -67l-128 60q44 114 61.5 206.5t17.5 211.5q0 118 -17.5 211t-61.5 207z" />
    <glyph glyph-name="bracketleft.salt" horiz-adv-x="321" 
d="M293 659h-84v-651h84v-134h-229v919h229v-134z" />
    <glyph glyph-name="bracketright.salt" horiz-adv-x="321" 
d="M28 659v134h229v-919h-229v134h84v651h-84z" />
    <glyph glyph-name="afii61248.salt" horiz-adv-x="744" 
d="M542 270q61 0 104.5 -42t43.5 -101q0 -60 -43.5 -101.5t-106.5 -41.5q-64 0 -107.5 41.5t-43.5 102.5q0 60 44 101t109 41zM539 185q-23 0 -37.5 -16t-14.5 -42t14.5 -42t37.5 -16q24 0 38.5 16t14.5 42t-14.5 42t-38.5 16zM326 593l-61 -64q-32 32 -59 32
q-25 0 -39.5 -15.5t-14.5 -41.5q0 -27 14.5 -42.5t39.5 -15.5q17 0 30 7.5t30 28.5l61 -65q-55 -56 -121 -56q-65 0 -108.5 41t-43.5 102t43.5 102t107.5 41t121 -54zM516 684l80 -46l-379 -655l-79 46z" />
    <glyph glyph-name="braceleft.salt" horiz-adv-x="320" 
d="M305 8v-133q-54 -2 -63 -2q-155 0 -155 164v191q-1 29 -8 36.5t-44 15.5v112l24 6q17 5 22 13.5t6 31.5v186q0 164 154 164q11 0 64 -1v-134h-32h-20q-15 -1 -18 -3.5t-3 -16.5v-201q-1 -66 -31 -104q30 -35 31 -105v-200q0 -13 4 -17t16 -3t26 1q15 0 27 -1z" />
    <glyph glyph-name="braceright.salt" horiz-adv-x="320" 
d="M15 9h30h17q18 0 22 3t4 16v200q1 70 31 106q-30 36 -31 103v202q0 13 -3.5 16t-17.5 4h-52v133q55 2 64 2q154 0 154 -165v-185q1 -22 6 -31t22 -14l24 -6v-112q-37 -8 -44 -15.5t-8 -37.5v-190q0 -164 -155 -164q-11 0 -63 1v134z" />
    <glyph glyph-name="copyright.salt" horiz-adv-x="449" 
d="M343 628l-47 -43q-28 33 -54 33q-25 0 -42 -18t-17 -44t17 -43.5t42 -17.5t48 26l8 8l46 -44l-2 -2l-2 -2q-46 -47 -97 -47q-52 0 -88.5 36t-36.5 87q0 50 36.5 86t88.5 36t100 -51zM238 765q89 0 149.5 -61.5t60.5 -151.5q0 -84 -62 -145t-147 -61q-87 0 -148.5 61.5
t-61.5 147.5q0 87 61.5 148.5t147.5 61.5zM237 705q-62 0 -105 -44t-43 -107q0 -61 44 -104.5t105 -43.5q62 0 106 44t44 106t-44 105.5t-107 43.5z" />
    <glyph glyph-name="registered.salt" horiz-adv-x="449" 
d="M238 765q89 0 149.5 -61.5t60.5 -151.5q0 -84 -62 -145t-147 -61q-87 0 -148.5 61.5t-61.5 148.5q0 86 61.5 147.5t147.5 61.5zM293 537l50 -89q45 45 45 108q0 62 -44 105.5t-106 43.5t-105.5 -43.5t-43.5 -105.5t44 -106t105 -44q54 0 95 34h-58l-42 77h-2h-2l-6 -2
v-75h-64v233h65q44 0 70 -21t26 -58q0 -34 -27 -57zM223 575h3q32 0 32 19q0 20 -32 20h-3v-39z" />
    </font>
</defs>
</svg>
