<?xml version="1.0" standalone="no"?>
<!DOCTYPE svg PUBLIC "-//W3C//DTD SVG 1.1//EN" "http://www.w3.org/Graphics/SVG/1.1/DTD/svg11.dtd" >
<svg xmlns="http://www.w3.org/2000/svg" xmlns:xlink="http://www.w3.org/1999/xlink" version="1.1">
<metadata>
Created by FontForge 20170731 at Thu Sep 10 14:38:19 2015
 By ,,,
Copyright 2014 by (URW)++ Design &#38; Development GmbH
</metadata>
<defs>
<font id="URWGeometric-ExtraBoldOblique" horiz-adv-x="387" >
  <font-face 
    font-family="URW Geometric Extra Bold"
    font-weight="800"
    font-style="oblique"
    font-stretch="normal"
    units-per-em="1000"
    panose-1="0 0 9 0 0 0 0 0 0 0"
    ascent="667"
    descent="-333"
    x-height="443"
    cap-height="667"
    bbox="-132 -286 1266 1081"
    underline-thickness="118"
    underline-position="-336"
    unicode-range="U+0020-FB04"
  />
<missing-glyph horiz-adv-x="224" 
 />
    <glyph glyph-name="afii61352" unicode="Nr&#x2e;" horiz-adv-x="1056" 
d="M773 265l14 89h259l-14 -89h-259zM67 0l106 667h112l259 -434l69 434h133l-105 -667h-113l-259 434l-69 -434h-133zM970 683q54 0 89 -34t35 -87q0 -67 -51 -117t-120 -50q-55 0 -90 34t-35 88q0 67 51 116.5t121 49.5zM955 604q-29 0 -50 -23t-21 -55q0 -24 14 -38
t38 -14q30 0 51 22.5t21 55.5q0 24 -14 38t-39 14z" />
    <glyph glyph-name="ff" unicode="ff" horiz-adv-x="530" 
d="M240 328l-52 -328h-128l52 328h-41l18 115h41l12 78q12 74 52.5 114.5t103.5 40.5q33 0 68 -9l-18 -115q-25 9 -42 9q-29 0 -36 -42l-12 -76h74l-18 -115h-74zM501 328l-52 -328h-128l52 328h-41l18 115h41l12 78q12 74 52.5 114.5t103.5 40.5q33 0 68 -9l-18 -115
q-25 9 -42 9q-29 0 -36 -42l-12 -76h74l-18 -115h-74z" />
    <glyph glyph-name="fi" unicode="fi" horiz-adv-x="490" 
d="M240 328l-52 -328h-128l52 328h-41l18 115h41l12 78q12 74 52.5 114.5t103.5 40.5q33 0 68 -9l-18 -115q-25 9 -42 9q-29 0 -36 -42l-12 -76h74l-18 -115h-74zM482 671q29 0 48 -18t19 -46q0 -35 -27.5 -61.5t-64.5 -26.5q-29 0 -47.5 18.5t-18.5 46.5q0 34 27.5 60.5
t63.5 26.5zM510 443l-70 -443h-128l70 443h128z" />
    <glyph glyph-name="fl" unicode="fl" horiz-adv-x="500" 
d="M240 328l-52 -328h-128l52 328h-41l18 115h41l12 78q12 74 52.5 114.5t103.5 40.5q33 0 68 -9l-18 -115q-25 9 -42 9q-29 0 -36 -42l-12 -76h74l-18 -115h-74zM449 0h-128l105 667h129z" />
    <glyph glyph-name="ffi" unicode="ffi" horiz-adv-x="751" 
d="M240 328l-52 -328h-128l52 328h-41l18 115h41l12 78q12 74 52.5 114.5t103.5 40.5q33 0 68 -9l-18 -115q-25 9 -42 9q-29 0 -36 -42l-12 -76h74l-18 -115h-74zM501 328l-52 -328h-128l52 328h-41l18 115h41l12 78q12 74 52.5 114.5t103.5 40.5q33 0 68 -9l-18 -115
q-25 9 -42 9q-29 0 -36 -42l-12 -76h74l-18 -115h-74zM743 671q29 0 48 -18t19 -46q0 -35 -27.5 -61.5t-64.5 -26.5q-29 0 -47.5 18.5t-18.5 46.5q0 34 27.5 60.5t63.5 26.5zM771 443l-70 -443h-128l70 443h128z" />
    <glyph glyph-name="ffl" unicode="ffl" horiz-adv-x="752" 
d="M240 328l-52 -328h-128l52 328h-41l18 115h41l12 78q12 74 52.5 114.5t103.5 40.5q33 0 68 -9l-18 -115q-25 9 -42 9q-29 0 -36 -42l-12 -76h74l-18 -115h-74zM501 328l-52 -328h-128l52 328h-41l18 115h41l12 78q12 74 52.5 114.5t103.5 40.5q33 0 68 -9l-18 -115
q-25 9 -42 9q-29 0 -36 -42l-12 -76h74l-18 -115h-74zM702 0h-129l106 667h128z" />
    <glyph glyph-name=".notdef" horiz-adv-x="224" 
 />
    <glyph glyph-name=".null" horiz-adv-x="0" 
 />
    <glyph glyph-name="nonmarkingreturn" horiz-adv-x="333" 
 />
    <glyph glyph-name="space" unicode=" " horiz-adv-x="224" 
 />
    <glyph glyph-name="exclam" unicode="!" horiz-adv-x="310" 
d="M123 178l67 489h142l-89 -489h-120zM177 138q29 0 48 -18t19 -46q0 -35 -27.5 -61.5t-63.5 -26.5q-29 0 -48 18t-19 46q0 35 27.5 61.5t63.5 26.5z" />
    <glyph glyph-name="quotedbl" unicode="&#x22;" horiz-adv-x="353" 
d="M208 383h-103l35 310h131zM369 383h-103l35 310h131z" />
    <glyph glyph-name="numbersign" unicode="#" horiz-adv-x="593" 
d="M137 180h-71l36 99h71l38 105h-71l36 99h71l72 198l101 -24l-63 -174h95l72 198l102 -22l-64 -176h71l-37 -99h-70l-38 -105h70l-36 -99h-71l-72 -197l-100 24l63 173h-96l-72 -197l-100 24zM378 279l38 105h-95l-38 -105h95z" />
    <glyph glyph-name="dollar" unicode="$" horiz-adv-x="587" 
d="M84 189l136 35q5 -57 15 -76q19 -39 69 -39q44 0 77.5 31.5t33.5 71.5q0 20 -18 36t-60 33l-55 23q-124 49 -124 152q0 75 51 135.5t132 82.5l14 93h132l-15 -93q44 -13 73 -41.5t52 -81.5l-120 -69q-23 46 -41 61.5t-51 15.5q-36 0 -64.5 -25t-28.5 -57q0 -35 62 -61
l58 -23q139 -56 139 -161q0 -76 -53 -143t-133 -92l-16 -100h-131l14 93q-72 17 -108 65.5t-40 133.5z" />
    <glyph glyph-name="percent" unicode="%" horiz-adv-x="896" 
d="M710 683l65 -42l-484 -657l-65 41zM307 676q68 0 103 -36t35 -105q0 -105 -41 -179q-53 -93 -159 -93q-68 0 -103.5 36t-35.5 104q0 106 41 180q53 93 160 93zM295 593q-38 0 -57 -28q-38 -57 -38 -147q0 -72 56 -72q38 0 57 28q38 58 38 144q0 75 -56 75zM758 404
q68 0 103 -36t35 -105q0 -105 -41 -179q-53 -93 -162 -93q-65 0 -100.5 36.5t-35.5 103.5q0 106 41 180q53 93 160 93zM746 321q-38 0 -57 -28q-38 -55 -38 -147q0 -72 56 -72q38 0 57 28q38 56 38 145q0 74 -56 74z" />
    <glyph glyph-name="ampersand" unicode="&#x26;" horiz-adv-x="675" 
d="M410 367l87 -124q18 29 45 82l116 -33l-7 -15q-42 -86 -81 -140l96 -137h-163l-30 43q-89 -59 -182 -59q-91 0 -148.5 49t-57.5 126t63 145q30 31 97 75q-43 69 -43 115q0 76 58.5 132.5t137.5 56.5q63 0 102.5 -37t39.5 -96q0 -51 -31 -94.5t-99 -88.5zM352 450
q43 31 58 49t15 39q0 19 -12 30t-32 11q-26 0 -44 -18.5t-18 -44.5q0 -20 33 -66zM407 140l-105 155q-47 -35 -66.5 -61t-19.5 -54q0 -34 25.5 -55t66.5 -21q51 0 99 36z" />
    <glyph glyph-name="quotesingle" unicode="'" horiz-adv-x="192" 
d="M208 383h-103l35 310h131z" />
    <glyph glyph-name="parenleft" unicode="(" horiz-adv-x="329" 
d="M283 750l106 -54q-48 -87 -78 -164q-38 -101 -60.5 -221t-22.5 -227q0 -106 28 -228l-123 -54q-12 38 -15 47q-21 75 -21 207q0 305 122 580q15 35 64 114z" />
    <glyph glyph-name="parenright" unicode=")" horiz-adv-x="329" 
d="M161 696l123 54q12 -38 14 -47q22 -75 22 -208q0 -304 -122 -579q-17 -38 -64 -114l-106 54q48 88 78 164q38 100 60.5 220.5t22.5 226.5q0 104 -28 229z" />
    <glyph glyph-name="asterisk" unicode="*" horiz-adv-x="505" 
d="M299 644l13 112h121l-22 -112l111 39l20 -115l-113 -31l55 -88l-109 -71l-47 93l-77 -93l-87 71l83 88l-103 31l56 115z" />
    <glyph glyph-name="plus" unicode="+" horiz-adv-x="556" 
d="M277 370l32 200h118l-32 -200h199l-18 -115h-199l-32 -200h-118l32 200h-199l18 115h199z" />
    <glyph glyph-name="comma" unicode="," horiz-adv-x="271" 
d="M132 132l110 -43l-166 -275l-89 38z" />
    <glyph glyph-name="hyphen" unicode="-" horiz-adv-x="283" 
d="M70 289h235l-19 -117h-235z" />
    <glyph glyph-name="period" unicode="." horiz-adv-x="258" 
d="M151 138q29 0 48 -18t19 -46q0 -35 -27.5 -61.5t-63.5 -26.5q-29 0 -48 18t-19 46q0 35 27.5 61.5t63.5 26.5z" />
    <glyph glyph-name="slash" unicode="/" horiz-adv-x="563" 
d="M49 44l477 640l94 -61l-477 -640z" />
    <glyph glyph-name="zero" unicode="0" horiz-adv-x="582" 
d="M397 683q107 0 163 -59.5t56 -173.5q0 -83 -19 -168t-51 -143q-85 -155 -255 -155q-107 0 -164 59t-57 171q0 86 19 171t51 143q85 155 257 155zM379 560q-68 0 -103 -53q-69 -103 -69 -269q0 -131 102 -131q83 0 128 98q42 94 42 217q0 138 -100 138z" />
    <glyph glyph-name="one" unicode="1" horiz-adv-x="334" 
d="M267 0h-133l81 506l-84 -43l-47 108l186 96h103z" />
    <glyph glyph-name="two" unicode="2" horiz-adv-x="499" 
d="M40 0l16 103l278 260q84 81 84 138q0 59 -72 59q-43 0 -67.5 -21t-50.5 -82l-118 33q27 73 67 115q73 78 191 78q84 0 133.5 -44t49.5 -120q0 -114 -103 -209l-198 -187h255l-20 -123h-445z" />
    <glyph glyph-name="three" unicode="3" horiz-adv-x="493" 
d="M221 289l18 118h56q60 0 84 34q19 25 19 56q0 29 -19.5 46t-53.5 17q-32 0 -55 -14.5t-60 -57.5l-101 60q54 72 108.5 103.5t125.5 31.5q85 0 136.5 -45.5t51.5 -120.5q0 -95 -81 -162q50 -51 50 -120q0 -103 -79.5 -177t-190.5 -74q-53 0 -97.5 20.5t-66.5 56.5
q-27 42 -34 121l133 34q7 -63 25 -86t61 -23q49 0 81.5 32t32.5 80q0 70 -89 70h-55z" />
    <glyph glyph-name="four" unicode="4" horiz-adv-x="522" 
d="M409 689l99 -67l-290 -365h121l21 130h132l-21 -130h69l-19 -122h-69l-21 -135h-133l22 135h-282l17 109z" />
    <glyph glyph-name="five" unicode="5" horiz-adv-x="541" 
d="M339 544l-32 -88q18 3 31 3q91 0 149.5 -55.5t58.5 -141.5q0 -112 -87 -195t-204 -83q-74 0 -122.5 34t-85.5 110l119 73q13 -30 19 -42q30 -52 91 -52q56 0 95.5 39.5t39.5 95.5q0 43 -27 69.5t-70 26.5q-47 0 -93 -43l-99 22l127 350h333l-20 -123h-223z" />
    <glyph glyph-name="six" unicode="6" horiz-adv-x="549" 
d="M419 689l91 -76l-147 -167q80 -8 127 -48q62 -54 62 -139q0 -109 -85.5 -192t-196.5 -83q-89 0 -148 57t-59 144q0 101 81 193zM324 326q-53 0 -90.5 -37.5t-37.5 -89.5q0 -41 26 -66.5t67 -25.5q52 0 90.5 39.5t38.5 91.5q0 39 -26 63.5t-68 24.5z" />
    <glyph glyph-name="seven" unicode="7" horiz-adv-x="457" 
d="M28 38l356 506h-294l19 123h456l-15 -94l-416 -595z" />
    <glyph glyph-name="eight" unicode="8" horiz-adv-x="520" 
d="M164 355q-42 49 -42 105q0 88 74 155.5t172 67.5q81 0 132.5 -47t51.5 -122q0 -88 -84 -159q59 -56 59 -125q0 -100 -80 -173t-190 -73q-89 0 -145.5 50t-56.5 130q0 112 109 191zM304 292q-49 0 -82.5 -31.5t-33.5 -78.5q0 -36 24 -57t65 -21q50 0 83.5 32t33.5 79
q0 36 -24 56.5t-66 20.5zM350 567q-42 0 -71.5 -28t-29.5 -68q0 -32 20.5 -50t55.5 -18q42 0 71 27.5t29 67.5q0 31 -20.5 50t-54.5 19z" />
    <glyph glyph-name="nine" unicode="9" horiz-adv-x="551" 
d="M236 -22l-92 76l147 167q-80 8 -127 48q-62 54 -62 139q0 109 85.5 192t196.5 83q89 0 148 -57t59 -144q0 -101 -81 -193zM365 560q-52 0 -90.5 -39t-38.5 -92q0 -39 26 -63.5t68 -24.5q53 0 90.5 37.5t37.5 89.5q0 41 -26 66.5t-67 25.5z" />
    <glyph glyph-name="colon" unicode=":" horiz-adv-x="258" 
d="M151 138q29 0 48 -18t19 -46q0 -35 -27.5 -61.5t-63.5 -26.5q-29 0 -48 18t-19 46q0 35 27.5 61.5t63.5 26.5zM197 430q29 0 48 -18t19 -46q0 -35 -27.5 -61.5t-63.5 -26.5q-29 0 -48 18.5t-19 46.5q0 34 27.5 60.5t63.5 26.5z" />
    <glyph glyph-name="semicolon" unicode=";" horiz-adv-x="265" 
d="M132 132l111 -43l-167 -275l-89 38zM218 430q29 0 48 -18t19 -46q0 -35 -27.5 -61.5t-64.5 -26.5q-29 0 -47.5 18.5t-18.5 46.5q0 34 27.5 60.5t63.5 26.5z" />
    <glyph glyph-name="less" unicode="&#x3c;" horiz-adv-x="584" 
d="M633 615l-22 -134l-338 -144l293 -145l-22 -133l-450 229l16 98z" />
    <glyph glyph-name="equal" unicode="=" horiz-adv-x="556" 
d="M579 455l-19 -116h-457l18 116h458zM552 286l-18 -116h-458l18 116h458z" />
    <glyph glyph-name="greater" unicode="&#x3e;" horiz-adv-x="584" 
d="M58 59l21 134l338 144l-292 144l21 134l451 -229l-16 -99z" />
    <glyph glyph-name="question" unicode="?" horiz-adv-x="441" 
d="M181 178l10 63q8 49 25.5 76.5t60.5 58.5l45 34q63 45 63 95q0 26 -17 40t-48 14q-36 0 -60 -15.5t-65 -65.5l-86 79q91 126 228 126q85 0 133 -42.5t48 -116.5q0 -56 -27 -102.5t-88 -96.5l-52 -42q-19 -16 -22 -20q-4 -2 -8 -30l-9 -55h-131zM240 138q29 0 48 -18
t19 -46q0 -35 -27.5 -61.5t-63.5 -26.5q-29 0 -48 18t-19 46q0 35 27.5 61.5t63.5 26.5z" />
    <glyph glyph-name="at" unicode="@" horiz-adv-x="895" 
d="M725 533l-93 -324h3q72 0 116.5 59t44.5 155t-55.5 147t-161.5 51q-197 0 -300 -140q-69 -93 -69 -208q0 -90 49 -146q69 -81 229 -81q57 0 102.5 7.5t129.5 30.5l19 -90q-140 -43 -271 -43q-104 0 -183.5 31.5t-120.5 89.5q-54 76 -54 187q0 146 91 270q67 90 168 138.5
t222 48.5q143 0 224 -74t81 -205q0 -80 -30.5 -149.5t-84.5 -113.5q-73 -60 -192 -60h-131q-75 0 -118.5 41t-43.5 112q0 87 55 159q80 107 236 107h138zM531 209l66 230h-34q-87 0 -131 -58q-33 -44 -33 -97q0 -75 82 -75h50z" />
    <glyph glyph-name="A" unicode="A" horiz-adv-x="643" 
d="M478 155h-264l-80 -155h-140l354 667h158l143 -667h-141zM453 279l-49 246l-127 -246h176z" />
    <glyph glyph-name="B" unicode="B" horiz-adv-x="531" 
d="M67 0l106 667h160q97 0 146 -31q32 -20 50.5 -55t18.5 -76q0 -84 -76 -148q63 -48 63 -130q0 -101 -91 -172q-73 -55 -186 -55h-191zM260 396h41q37 0 56 5.5t35 19.5q28 26 28 67q0 34 -21.5 48t-73.5 14h-41zM216 120h56q71 0 103 29q30 27 30 67q0 38 -26.5 54
t-89.5 16h-47z" />
    <glyph glyph-name="C" unicode="C" horiz-adv-x="674" 
d="M739 556l-109 -90q-38 51 -73.5 71.5t-84.5 20.5q-104 0 -181.5 -78.5t-77.5 -183.5q0 -82 52.5 -134.5t134.5 -52.5q49 0 91.5 20.5t99.5 72.5l81 -89q-77 -68 -145 -98.5t-146 -30.5q-131 0 -217.5 84t-86.5 211q0 160 126 282t291 122q75 0 133.5 -30t111.5 -97z" />
    <glyph glyph-name="D" unicode="D" horiz-adv-x="620" 
d="M173 667h158q149 0 233 -72.5t84 -202.5q0 -82 -33 -157t-92 -129q-115 -106 -297 -106h-159zM286 543l-66 -419h28q118 0 191.5 69t73.5 181q0 81 -51.5 125t-146.5 44h-29z" />
    <glyph glyph-name="E" unicode="E" horiz-adv-x="489" 
d="M554 667l-19 -123h-249l-23 -145h221l-19 -123h-222l-24 -152h259l-20 -124h-391l106 667h381z" />
    <glyph glyph-name="F" unicode="F" horiz-adv-x="452" 
d="M533 667l-20 -123h-227l-23 -145h208l-20 -124h-207l-44 -275h-133l106 667h360z" />
    <glyph glyph-name="G" unicode="G" horiz-adv-x="728" 
d="M436 373h320l-10 -64q-23 -146 -122.5 -235.5t-239.5 -89.5q-133 0 -219.5 83.5t-86.5 212.5q0 105 57.5 198t154.5 149t205 56q75 0 131.5 -28.5t115.5 -95.5l-108 -89q-41 50 -76.5 69t-84.5 19q-104 0 -181.5 -78t-77.5 -184q0 -82 53 -134.5t136 -52.5t141 55
q34 32 54 86h-182z" />
    <glyph glyph-name="H" unicode="H" horiz-adv-x="652" 
d="M306 667l-43 -268h252l42 268h134l-106 -667h-133l44 275h-252l-44 -275h-133l106 667h133z" />
    <glyph glyph-name="I" unicode="I" horiz-adv-x="267" 
d="M306 667l-106 -667h-133l106 667h133z" />
    <glyph glyph-name="J" unicode="J" horiz-adv-x="427" 
d="M465 667l-72 -459q-15 -88 -52 -140q-62 -84 -169 -84q-51 0 -90.5 21t-79.5 70l97 96q47 -62 88 -62q57 0 73 99l72 459h133z" />
    <glyph glyph-name="K" unicode="K" horiz-adv-x="604" 
d="M408 384l196 -384h-157l-145 287l-66 -61l-36 -226h-133l106 667h133l-41 -260l282 260h169z" />
    <glyph glyph-name="L" unicode="L" horiz-adv-x="440" 
d="M173 667h133l-86 -543h239l-19 -124h-373z" />
    <glyph glyph-name="M" unicode="M" horiz-adv-x="800" 
d="M67 0l106 667h123l151 -369l268 369h124l-106 -667h-133l64 403l-193 -267h-99l-108 267l-64 -403h-133z" />
    <glyph glyph-name="N" unicode="N" horiz-adv-x="708" 
d="M67 0l106 667h112l259 -434l69 434h133l-105 -667h-113l-259 434l-69 -434h-133z" />
    <glyph glyph-name="O" unicode="O" horiz-adv-x="762" 
d="M493 683q126 0 212 -85.5t86 -210.5q0 -158 -126.5 -280.5t-289.5 -122.5q-126 0 -211.5 85t-85.5 211q0 104 58 197.5t154 149.5t203 56zM471 558q-102 0 -180 -79t-78 -183q0 -79 53 -133t130 -54q103 0 181 78.5t78 182.5q0 81 -52.5 134.5t-131.5 53.5z" />
    <glyph glyph-name="P" unicode="P" horiz-adv-x="478" 
d="M238 242l-38 -242h-133l106 667h158q93 0 140 -30q74 -46 74 -147q0 -55 -25.5 -107t-69.5 -87q-68 -54 -186 -54h-26zM257 363h34q72 0 100 38q23 31 23 72q0 39 -21.5 55.5t-72.5 16.5h-34z" />
    <glyph glyph-name="Q" unicode="Q" horiz-adv-x="760" 
d="M599 -51l-61 71q-82 -36 -164 -36q-125 0 -211 85.5t-86 210.5q0 158 126.5 280.5t289.5 122.5q127 0 212.5 -85.5t85.5 -210.5q0 -78 -35.5 -153.5t-99.5 -135.5l50 -58zM420 156l107 91l50 -58q78 78 78 180q0 82 -52 135.5t-131 53.5q-103 0 -181 -79t-78 -183
q0 -78 52.5 -132.5t128.5 -54.5q19 0 59 8z" />
    <glyph glyph-name="R" unicode="R" horiz-adv-x="561" 
d="M399 0l-97 243h-2h-3l-33 -1h-26l-38 -242h-133l106 667h158q102 0 152 -32q77 -47 77 -149q0 -62 -33 -117.5t-91 -89.5l113 -279h-150zM257 363h34q74 0 106 29q32 30 32 78q0 40 -25.5 57.5t-83.5 17.5h-34z" />
    <glyph glyph-name="S" unicode="S" horiz-adv-x="525" 
d="M570 551l-120 -69q-23 47 -41 62t-52 15q-35 0 -63.5 -25.5t-28.5 -56.5q0 -35 62 -61l58 -23q139 -56 139 -162q0 -98 -81 -172.5t-188 -74.5q-53 0 -97 21.5t-67 58.5q-29 46 -34 125l136 35q5 -59 15 -76q20 -40 69 -40q43 0 77 31.5t34 71.5q0 20 -18 36.5t-60 33.5
l-55 22q-124 50 -124 153q0 92 74.5 159.5t176.5 67.5q68 0 112 -31t76 -101z" />
    <glyph glyph-name="T" unicode="T" horiz-adv-x="441" 
d="M553 667l-20 -123h-160l-86 -544h-133l86 544h-160l20 123h453z" />
    <glyph glyph-name="U" unicode="U" horiz-adv-x="642" 
d="M306 667l-65 -409q-6 -46 -6 -62q0 -38 28.5 -62.5t74.5 -24.5q34 0 66.5 15t49.5 38q17 25 29 96l65 409h133l-68 -427q-13 -84 -51 -135q-41 -56 -107 -88.5t-137 -32.5q-95 0 -156.5 54.5t-61.5 137.5q0 27 5 64l68 427h133z" />
    <glyph glyph-name="V" unicode="V" horiz-adv-x="584" 
d="M239 667l82 -479l234 479h140l-327 -667h-153l-116 667h140z" />
    <glyph glyph-name="W" unicode="W" horiz-adv-x="877" 
d="M238 667l55 -427l195 427h111l60 -427l191 427h138l-305 -667h-119l-60 417l-192 -417h-119l-94 667h139z" />
    <glyph glyph-name="X" unicode="X" horiz-adv-x="581" 
d="M422 348l166 -348h-153l-108 230l-182 -230h-151l276 347l-152 320h151l96 -203l160 203h150z" />
    <glyph glyph-name="Y" unicode="Y" horiz-adv-x="552" 
d="M253 276l-160 391h149l100 -254l181 254h148l-284 -391l-44 -276h-133z" />
    <glyph glyph-name="Z" unicode="Z" horiz-adv-x="513" 
d="M584 566l-381 -442h317l-19 -124h-491l16 101l385 443h-287l19 123h457z" />
    <glyph glyph-name="bracketleft" unicode="[" horiz-adv-x="319" 
d="M384 613h-86l-107 -674h86l-19 -121h-216l145 916h216z" />
    <glyph glyph-name="backslash" unicode="\" horiz-adv-x="549" 
d="M239 684l273 -648l-97 -53l-273 648z" />
    <glyph glyph-name="bracketright" unicode="]" horiz-adv-x="319" 
d="M129 613l19 121h216l-145 -916h-216l19 121h86l107 674h-86z" />
    <glyph glyph-name="asciicircum" unicode="^" horiz-adv-x="579" 
d="M163 334h-151l211 365h134l211 -365h-151l-128 216z" />
    <glyph glyph-name="underscore" unicode="_" horiz-adv-x="528" 
d="M-19 -40h553l-19 -118h-553z" />
    <glyph glyph-name="grave" unicode="`" horiz-adv-x="476" 
d="M174 645l129 62l103 -172l-94 -48z" />
    <glyph glyph-name="a" unicode="a" horiz-adv-x="543" 
d="M493 0h-128l4 25q-60 -41 -121 -41q-85 0 -139.5 56.5t-54.5 142.5q0 110 82 193t190 83q57 0 106 -41l4 25h128zM312 344q-54 0 -91 -43t-37 -106q0 -44 24.5 -70t66.5 -26q55 0 92 43t37 107q0 44 -24.5 69.5t-67.5 25.5z" />
    <glyph glyph-name="b" unicode="b" horiz-adv-x="543" 
d="M50 0l106 667h128l-40 -248q63 40 122 40q85 0 139.5 -56t54.5 -143q0 -110 -82 -193t-190 -83q-58 0 -106 41l-4 -25h-128zM336 343q-53 0 -89.5 -43t-36.5 -104q0 -44 24 -70t65 -26q55 0 93 43t38 106q0 43 -25 68.5t-69 25.5z" />
    <glyph glyph-name="c" unicode="c" horiz-adv-x="461" 
d="M508 371l-95 -85q-27 34 -47 45.5t-50 11.5q-57 0 -94.5 -42t-37.5 -105q0 -45 25 -70.5t69 -25.5q31 0 57 13.5t61 47.5l68 -85q-54 -49 -101.5 -70.5t-103.5 -21.5q-91 0 -148 55.5t-57 144.5q0 111 84 193t197 82q53 0 92.5 -20t80.5 -68z" />
    <glyph glyph-name="d" unicode="d" horiz-adv-x="543" 
d="M493 0h-128l4 25q-61 -41 -121 -41q-85 0 -139.5 56.5t-54.5 142.5q0 110 82 193t190 83q56 0 106 -40l39 248h128zM312 343q-53 0 -90.5 -43t-37.5 -104q0 -44 24.5 -70t66.5 -26q55 0 92 43t37 106q0 44 -24.5 69t-67.5 25z" />
    <glyph glyph-name="e" unicode="e" horiz-adv-x="493" 
d="M377 154l105 -44q-98 -126 -230 -126q-89 0 -143.5 55t-54.5 144q0 110 81 193t187 83q84 0 135.5 -55t51.5 -145q0 -31 -10 -82h-318q12 -80 88 -80q65 0 108 57zM195 266h191q-13 81 -82 81q-73 0 -109 -81z" />
    <glyph glyph-name="f" unicode="f" horiz-adv-x="269" 
d="M240 328l-52 -328h-128l52 328h-41l18 115h41l12 78q12 74 52.5 114.5t103.5 40.5q33 0 68 -9l-18 -115q-25 9 -42 9q-29 0 -36 -42l-12 -76h74l-18 -115h-74z" />
    <glyph glyph-name="g" unicode="g" horiz-adv-x="543" 
d="M364 -9l6 34q-65 -41 -124 -41q-83 0 -137.5 56.5t-54.5 142.5q0 109 82 192.5t189 83.5q57 0 107 -41l4 25h128l-72 -452q-16 -107 -94 -173.5t-185 -66.5q-105 0 -168 68q-12 13 -38 50l99 82l9 -13l7 -10q41 -61 109 -61q54 0 89 32.5t44 91.5zM313 344
q-54 0 -91.5 -43t-37.5 -106q0 -44 25 -70t66 -26q55 0 92 43t37 107q0 44 -24.5 69.5t-66.5 25.5z" />
    <glyph glyph-name="h" unicode="h" horiz-adv-x="510" 
d="M284 667l-39 -244q51 36 106 36q68 0 110 -42.5t42 -110.5q0 -29 -5 -67l-38 -239h-128l36 232q5 28 5 51q0 60 -59 60q-50 0 -73 -33q-17 -24 -28 -87l-35 -223h-128l106 667h128z" />
    <glyph glyph-name="i" unicode="i" horiz-adv-x="229" 
d="M221 671q29 0 48 -18t19 -46q0 -35 -27.5 -61.5t-64.5 -26.5q-29 0 -47.5 18.5t-18.5 46.5q0 34 27.5 60.5t63.5 26.5zM249 443l-70 -443h-128l70 443h128z" />
    <glyph glyph-name="j" unicode="j" horiz-adv-x="237" 
d="M256 443l-84 -532q-12 -74 -52 -114.5t-101 -40.5q-31 0 -70 13l19 119q34 -13 51 -13q20 0 25 39l84 529h128zM229 671q29 0 47.5 -18t18.5 -46q0 -34 -27.5 -61t-62.5 -27q-29 0 -48 18t-19 46q0 35 27.5 61.5t63.5 26.5z" />
    <glyph glyph-name="k" unicode="k" horiz-adv-x="491" 
d="M340 256l162 -256h-159l-105 170l-38 -32l-22 -138h-128l106 667h128l-58 -365l166 141h171z" />
    <glyph glyph-name="l" unicode="l" horiz-adv-x="230" 
d="M179 0h-128l106 667h128z" />
    <glyph glyph-name="m" unicode="m" horiz-adv-x="761" 
d="M248 443l-4 -21q52 37 103 37q61 0 107 -49q66 49 136 49q73 0 118.5 -42.5t45.5 -111.5q0 -32 -6 -68l-37 -237h-128l36 230q5 30 5 54q0 60 -51 60q-44 0 -65 -31q-17 -25 -28 -92l-35 -221h-128l37 230q5 32 5 54q0 60 -52 60q-45 0 -66 -31q-17 -25 -28 -92l-35 -221
h-128l70 443h128z" />
    <glyph glyph-name="n" unicode="n" horiz-adv-x="510" 
d="M248 443l-3 -21q51 37 106 37q68 0 110 -42.5t42 -110.5q0 -29 -5 -67l-38 -239h-128l36 232q5 28 5 51q0 61 -59 61q-50 0 -73 -33q-18 -26 -28 -88l-35 -223h-128l70 443h128z" />
    <glyph glyph-name="o" unicode="o" horiz-adv-x="520" 
d="M336 459q87 0 144 -56.5t57 -142.5q0 -111 -83.5 -193.5t-196.5 -82.5q-89 0 -146 56t-57 145q0 110 84 192t198 82zM314 343q-55 0 -92.5 -42.5t-37.5 -104.5q0 -44 25 -70t67 -26q56 0 93.5 42.5t37.5 106.5q0 43 -25 68.5t-68 25.5z" />
    <glyph glyph-name="p" unicode="p" horiz-adv-x="543" 
d="M120 443h128l-4 -25q62 41 122 41q85 0 139.5 -56.5t54.5 -142.5q0 -110 -82 -193t-190 -83q-58 0 -106 41l-41 -259h-128zM338 344q-54 0 -91 -43t-37 -107q0 -44 24.5 -69t67.5 -25q53 0 90.5 43t37.5 105q0 44 -25 70t-67 26z" />
    <glyph glyph-name="q" unicode="q" horiz-adv-x="543" 
d="M564 443l-107 -677h-129l41 259q-61 -41 -121 -41q-84 0 -139 56.5t-55 142.5q0 110 82 193t190 83q57 0 106 -41l4 25h128zM314 344q-55 0 -92.5 -42.5t-37.5 -105.5q0 -45 24.5 -70.5t68.5 -25.5q53 0 89.5 43t36.5 105q0 44 -24 70t-65 26z" />
    <glyph glyph-name="r" unicode="r" horiz-adv-x="311" 
d="M248 443l-3 -24q42 27 84 27q14 0 44 -3l-18 -114q-24 2 -43 2q-47 0 -68.5 -25t-31.5 -92l-34 -214h-128l70 443h128z" />
    <glyph glyph-name="s" unicode="s" horiz-adv-x="389" 
d="M36 120l114 40q12 -34 26 -48.5t37 -14.5q20 0 34 12t14 30q0 9 -8 16t-32 17l-55 23q-74 32 -74 100q0 67 55 115.5t131 48.5q103 0 143 -103l-109 -49q-21 40 -53 40q-18 0 -30 -9.5t-12 -23.5q0 -8 8 -14t31 -16l47 -20q88 -35 88 -104q0 -70 -59 -123t-138 -53
t-121 50q-25 32 -37 86z" />
    <glyph glyph-name="t" unicode="t" horiz-adv-x="274" 
d="M234 328l-28 -180q-2 -12 -2 -19q0 -19 15 -19q16 0 55 13l-19 -119q-38 -13 -75 -13q-106 0 -106 115q0 20 3 40l29 182h-45l18 115h45l15 92l136 50l-23 -142h67l-18 -115h-67z" />
    <glyph glyph-name="u" unicode="u" horiz-adv-x="510" 
d="M332 0l3 21q-51 -37 -106 -37q-68 0 -110 42.5t-42 110.5q0 29 5 67l38 239h128l-36 -232q-5 -28 -5 -51q0 -60 59 -60q50 0 73 33q17 23 28 87l35 223h128l-70 -443h-128z" />
    <glyph glyph-name="v" unicode="v" horiz-adv-x="469" 
d="M195 443l68 -262l151 262h137l-260 -443h-113l-120 443h137z" />
    <glyph glyph-name="w" unicode="w" horiz-adv-x="658" 
d="M58 443h136l39 -234l117 234h98l43 -234l114 234h136l-231 -443h-102l-42 230l-116 -230h-102z" />
    <glyph glyph-name="x" unicode="x" horiz-adv-x="493" 
d="M360 229l141 -229h-154l-80 132l-121 -132h-154l214 229l-132 214h154l71 -117l108 117h152z" />
    <glyph glyph-name="y" unicode="y" horiz-adv-x="474" 
d="M167 22l-109 421h137l66 -265l159 265h137l-409 -677h-135z" />
    <glyph glyph-name="z" unicode="z" horiz-adv-x="418" 
d="M471 443l-14 -93l-247 -236h218l-18 -114h-392l15 92l247 237h-196l18 114h369z" />
    <glyph glyph-name="braceleft" unicode="{" horiz-adv-x="321" 
d="M279 -63l-19 -118l-30 -1h-26q-126 0 -126 114q0 24 3 45l31 190q2 18 2 25q0 16 -8 22t-38 14l16 102l12 3q28 8 36.5 17t13.5 37l30 187q25 160 173 160q11 0 56 -1l-19 -119l-26 1h-14q-25 -1 -30 -5t-9 -27l-32 -201q-12 -70 -51 -106q21 -28 21 -69q0 -19 -3 -40
l-32 -198q-1 -7 -1 -19q0 -13 30 -13h24h16z" />
    <glyph glyph-name="bar" unicode="|" horiz-adv-x="529" 
d="M201 728h126v-904h-126v904z" />
    <glyph glyph-name="braceright" unicode="}" horiz-adv-x="321" 
d="M3 -181l19 118q8 1 18 1q11 0 23 -1q23 0 28.5 5t9.5 27l31 198q14 73 52 109q-21 30 -21 68q0 18 3 38l32 201q1 4 1 18q0 8 -6 11t-23 3h-12l-29 -1l19 119q45 1 56 1q126 0 126 -114q0 -24 -3 -46l-30 -187q-2 -14 -2 -21q0 -14 7.5 -21t27.5 -12l11 -3l-16 -102
q-37 -8 -46.5 -17t-16.5 -44l-30 -190q-25 -159 -173 -159q-19 0 -56 1z" />
    <glyph glyph-name="asciitilde" unicode="~" horiz-adv-x="709" 
d="M167 545l-87 56q39 80 72 113q36 38 98 38q48 0 124 -36q58 -29 86 -29q23 0 36.5 13t44.5 64l88 -52q-36 -73 -60 -97q-50 -52 -113 -52q-28 0 -58.5 10t-97.5 40q-37 15 -56 15q-20 0 -34.5 -16t-42.5 -67z" />
    <glyph glyph-name="uni00A0" unicode="&#xa0;" horiz-adv-x="224" 
 />
    <glyph glyph-name="exclamdown" unicode="&#xa1;" horiz-adv-x="310" 
d="M144 305h119l-66 -489h-142zM235 497q28 0 47 -18.5t19 -46.5q0 -35 -27.5 -61.5t-64.5 -26.5q-28 0 -47 18.5t-19 46.5q0 35 27.5 61.5t64.5 26.5z" />
    <glyph glyph-name="cent" unicode="&#xa2;" horiz-adv-x="553" 
d="M355 0h-131l17 106q-64 19 -100 69.5t-36 119.5q0 91 58.5 165.5t149.5 99.5l17 107h131l-17 -104q68 -20 115 -80l-95 -85q-27 34 -47 45.5t-50 11.5q-57 0 -94.5 -42t-37.5 -106q0 -45 25 -70.5t69 -25.5q57 0 118 61l68 -85q-70 -66 -144 -84z" />
    <glyph glyph-name="sterling" unicode="&#xa3;" horiz-adv-x="569" 
d="M504 395l-19 -118h-173q0 -62 -8 -92.5t-32 -62.5h279l-19 -122h-470l17 108l13 9q55 40 70.5 64t15.5 70q0 15 -1 26h-71l19 118h47q1 83 27 140q28 67 91.5 107.5t140.5 40.5q65 0 108.5 -31.5t71.5 -100.5l-117 -67q-20 44 -38.5 60t-48.5 16q-47 0 -74 -37.5
t-27 -104.5v-23h198z" />
    <glyph glyph-name="currency" unicode="&#xa4;" horiz-adv-x="750" 
d="M254 632l74 -89q74 39 139 39t126 -39l102 89l64 -73l-104 -91q19 -53 19 -96q0 -82 -61 -173l74 -90l-85 -75l-75 90q-75 -39 -140 -39q-64 0 -126 39l-103 -90l-62 75l104 90q-20 53 -20 96q0 83 62 173l-75 91zM447 469q-61 0 -103.5 -47.5t-42.5 -115.5
q0 -49 28.5 -78.5t75.5 -29.5q63 0 105.5 47.5t42.5 117.5q0 49 -28.5 77.5t-77.5 28.5z" />
    <glyph glyph-name="yen" unicode="&#xa5;" horiz-adv-x="652" 
d="M286 318l-12 29h-110l16 99h54l-91 221h149l100 -253h1l180 253h148l-160 -221h54l-16 -99h-111l-20 -29h126l-15 -99h-151l-35 -219h-133l35 219h-151l15 99h127z" />
    <glyph glyph-name="brokenbar" unicode="&#xa6;" horiz-adv-x="529" 
d="M201 728h126v-340h-126v340zM201 164h126v-340h-126v340z" />
    <glyph glyph-name="section" unicode="&#xa7;" horiz-adv-x="577" 
d="M353 410l59 -23q73 -30 107.5 -69.5t34.5 -94.5q0 -83 -69 -163q19 -33 19 -76q0 -98 -74.5 -165t-184.5 -67q-81 0 -133 38t-85 122l123 70q6 -16 9 -20l7 -14q21 -41 43 -56.5t60 -15.5q42 0 70.5 25.5t28.5 63.5q0 20 -19 36.5t-62 34.5l-57 23q-126 52 -126 155
q0 89 71 158q-22 36 -22 80q0 94 76 162.5t180 68.5q69 0 113.5 -30.5t78.5 -100.5l-123 -71q-2 4 -4.5 8.5t-3.5 7.5t-2 4l-7 10q-17 28 -32.5 38t-43.5 10q-39 0 -68.5 -26t-29.5 -60q0 -37 66 -63zM273 299l-2 -2l-8 -7q-26 -24 -26 -55q0 -36 66 -62l64 -26l20 -9
q31 34 31 65q0 20 -18.5 35.5t-65.5 35.5z" />
    <glyph glyph-name="dieresis" unicode="&#xa8;" horiz-adv-x="476" 
d="M437 668q28 0 46 -17.5t18 -44.5q0 -33 -26.5 -58.5t-60.5 -25.5q-28 0 -46.5 17.5t-18.5 44.5q0 33 26.5 58.5t61.5 25.5zM251 668q28 0 46 -17.5t18 -44.5q0 -34 -26.5 -59t-62.5 -25q-27 0 -45 17.5t-18 44.5q0 34 26.5 59t61.5 25z" />
    <glyph glyph-name="copyright" unicode="&#xa9;" horiz-adv-x="835" 
d="M620 478l-74 -70q-34 38 -57 51t-56 13q-56 0 -95 -40.5t-39 -98.5t39 -98t95 -40q33 0 55.5 12.5t59.5 51.5l74 -70l-4 -4q-8 -8 -13 -12q-76 -76 -172 -76q-99 0 -169 69t-70 167t70 167.5t170 69.5q84 0 145 -52q15 -13 41 -40zM424 714q153 0 263.5 -112.5
t110.5 -267.5q0 -158 -111 -269.5t-269 -111.5q-159 0 -270 111.5t-111 271.5q0 158 113 268t274 110zM413 628q-118 0 -204 -87t-86 -207q0 -122 86 -208.5t208 -86.5q123 0 209 86.5t86 210.5q0 122 -87.5 207t-211.5 85z" />
    <glyph glyph-name="ordfeminine" unicode="&#xaa;" horiz-adv-x="348" 
d="M381 406h-89l2 10q-35 -21 -68 -21q-53 0 -88 33.5t-35 84.5q0 67 51.5 118.5t118.5 51.5q33 0 60 -22l1 11h89zM265 604q-30 0 -51 -23.5t-21 -57.5q0 -23 14 -36t38 -13q29 0 49.5 22.5t20.5 56.5q0 23 -13.5 37t-36.5 14z" />
    <glyph glyph-name="guillemotleft" unicode="&#xab;" horiz-adv-x="509" 
d="M385 222l98 -151l-98 -68l-143 219l213 223l76 -68zM202 222l98 -151l-98 -69l-143 219l213 224l76 -68z" />
    <glyph glyph-name="logicalnot" unicode="&#xac;" horiz-adv-x="694" 
d="M641 54h-124v199h-463v117h587v-316z" />
    <glyph glyph-name="uni00AD" unicode="&#xad;" horiz-adv-x="283" 
d="M70 289h235l-19 -117h-235z" />
    <glyph glyph-name="registered" unicode="&#xae;" horiz-adv-x="835" 
d="M423 714q153 0 263.5 -112.5t110.5 -267.5q0 -158 -111 -269.5t-269 -111.5t-269 111.5t-111 271.5q0 157 112.5 267.5t273.5 110.5zM606 108h-102l-88 158q-9 -1 -23 -1h-14v-157h-103v450h119q70 0 107 -22q33 -19 52 -52.5t19 -73.5q0 -71 -59 -115l101 -179
q45 40 70.5 98t25.5 120q0 122 -86.5 208t-207.5 86q-122 0 -208 -86.5t-86 -208.5q0 -121 86.5 -207.5t207.5 -86.5q105 0 189 69zM379 361h22q37 0 54 12t17 38q0 27 -16.5 39t-54.5 12h-22v-101z" />
    <glyph glyph-name="macron" unicode="&#xaf;" horiz-adv-x="476" 
d="M178 645h324l-17 -110h-324z" />
    <glyph glyph-name="degree" unicode="&#xb0;" horiz-adv-x="328" 
d="M317 744q51 0 86 -34.5t35 -85.5q0 -67 -51 -117t-119 -50q-52 0 -86.5 34.5t-34.5 86.5q0 66 51 116t119 50zM300 655q-25 0 -44 -19t-19 -44q0 -20 13.5 -33t32.5 -13q26 0 45.5 19.5t19.5 44.5q0 20 -13.5 32.5t-34.5 12.5z" />
    <glyph glyph-name="plusminus" unicode="&#xb1;" horiz-adv-x="556" 
d="M290 449l31 194h118l-31 -194h199l-18 -115h-199l-31 -194h-118l31 194h-199l18 115h199zM554 116l-18 -116h-516l18 116h516z" />
    <glyph glyph-name="twosuperior" unicode="&#xb2;" 
d="M122 406l11 68l167 151q47 42 47 73q0 29 -38 29q-24 0 -37 -11.5t-29 -48.5l-82 22q46 121 162 121q53 0 84.5 -27t31.5 -73q0 -67 -63 -124l-107 -97h145l-13 -83h-279z" />
    <glyph glyph-name="threesuperior" unicode="&#xb3;" 
d="M251 652h40q53 0 53 45q0 31 -38 31q-19 0 -32 -8t-35 -35l-70 40q36 47 69.5 66t79.5 19q53 0 85.5 -28t32.5 -73q0 -52 -44 -93q27 -32 27 -68q0 -63 -49 -107.5t-119 -44.5q-41 0 -71 18t-43 50q-7 18 -11 57l92 22l1 -9q3 -31 13 -43t33 -12q26 0 43.5 16t17.5 41
q0 36 -48 36h-40z" />
    <glyph glyph-name="acute" unicode="&#xb4;" horiz-adv-x="476" 
d="M507 645l-188 -158l-79 48l157 172z" />
    <glyph glyph-name="mu" unicode="&#xb5;" horiz-adv-x="510" 
d="M178 -234h-128v677h128v-233q0 -61 16 -85.5t56 -24.5q50 0 68 33q14 25 14 87v223h128v-443h-128v21q-41 -37 -82 -37q-35 0 -72 27v-245z" />
    <glyph glyph-name="paragraph" unicode="&#xb6;" horiz-adv-x="645" 
d="M345 -234h-113l69 432q-46 6 -72 17t-51 35q-59 57 -59 144q0 110 82 191.5t192 81.5h320l-17 -108h-63l-125 -793h-113l126 793h-51z" />
    <glyph glyph-name="periodcentered" unicode="&#xb7;" horiz-adv-x="258" 
d="M194 409q29 0 48 -18t19 -46q0 -35 -27.5 -61.5t-63.5 -26.5q-29 0 -48 18t-19 46q0 35 27.5 61.5t63.5 26.5z" />
    <glyph glyph-name="cedilla" unicode="&#xb8;" horiz-adv-x="476" 
d="M348 -67l-161 -164l-85 45l137 167z" />
    <glyph glyph-name="onesuperior" unicode="&#xb9;" 
d="M319 406h-91l45 286l-46 -23l-33 73l118 59h70z" />
    <glyph glyph-name="ordmasculine" unicode="&#xba;" horiz-adv-x="341" 
d="M280 683q56 0 92 -34.5t36 -87.5q0 -67 -52.5 -116.5t-122.5 -49.5q-56 0 -92.5 34.5t-36.5 87.5q0 67 52.5 116.5t123.5 49.5zM266 603q-30 0 -50.5 -22t-20.5 -55q0 -24 14 -37.5t38 -13.5q30 0 50.5 22.5t20.5 55.5q0 23 -14 36.5t-38 13.5z" />
    <glyph glyph-name="guillemotright" unicode="&#xbb;" horiz-adv-x="509" 
d="M378 222l-98 155l98 68l142 -224l-212 -219l-76 69zM195 222l-97 155l97 68l143 -223l-213 -219l-76 68z" />
    <glyph glyph-name="onequarter" unicode="&#xbc;" horiz-adv-x="833" 
d="M747 365l-169 -205h55l12 75h92l-12 -75h41l-13 -82h-41l-12 -78h-92l12 78h-168l11 70l215 262zM641 683l65 -42l-484 -657l-65 41zM268 272h-91l45 286l-46 -23l-33 72l118 59h70z" />
    <glyph glyph-name="onehalf" unicode="&#xbd;" horiz-adv-x="833" 
d="M640 683l65 -42l-484 -657l-65 41zM267 272h-91l45 286l-46 -23l-33 72l118 59h70zM489 0l11 68l167 151q48 44 48 73t-38 29q-25 0 -37.5 -11.5t-29.5 -48.5l-82 22q47 121 163 121q53 0 84.5 -27t31.5 -73q0 -66 -63 -124l-108 -97h146l-14 -83h-279z" />
    <glyph glyph-name="threequarters" unicode="&#xbe;" horiz-adv-x="833" 
d="M785 365l-170 -205h56l12 75h91l-12 -75h42l-13 -82h-42l-12 -78h-91l12 78h-169l11 70l216 262zM700 683l66 -42l-485 -657l-65 41zM226 517h40q54 0 54 45q0 31 -39 31q-19 0 -31.5 -8.5t-35.5 -34.5l-70 40q38 48 70.5 67t78.5 19q53 0 86 -28t33 -74q0 -54 -45 -93
q27 -32 27 -68q0 -62 -49 -106.5t-119 -44.5q-41 0 -71 18t-43 49q-7 15 -11 57l92 22q4 -37 13.5 -50t33.5 -13q26 0 43.5 16t17.5 40q0 36 -48 36h-40z" />
    <glyph glyph-name="questiondown" unicode="&#xbf;" horiz-adv-x="441" 
d="M354 305l-10 -63q-8 -49 -25.5 -76.5t-60.5 -58.5l-46 -34q-63 -47 -63 -95q0 -26 17 -40t48 -14q36 0 61 16t65 65l86 -79q-93 -126 -229 -126q-84 0 -132.5 42.5t-48.5 116.5q0 56 27 102.5t89 96.5l52 42q17 14 21 20q5 3 9 30l8 55h132zM319 497q29 0 47.5 -18.5
t18.5 -46.5q0 -35 -27.5 -61.5t-63.5 -26.5q-28 0 -47 18.5t-19 46.5q0 35 27.5 61.5t63.5 26.5z" />
    <glyph glyph-name="Agrave" unicode="&#xc0;" horiz-adv-x="643" 
d="M478 155h-264l-80 -155h-140l354 667h158l143 -667h-141zM453 279l-49 246l-127 -246h176zM288 849l129 62l102 -172l-93 -47z" />
    <glyph glyph-name="Aacute" unicode="&#xc1;" horiz-adv-x="643" 
d="M622 849l-188 -157l-79 47l157 172zM478 155h-264l-80 -155h-140l354 667h158l143 -667h-141zM453 279l-49 246l-127 -246h176z" />
    <glyph glyph-name="Acircumflex" unicode="&#xc2;" horiz-adv-x="643" 
d="M478 155h-264l-80 -155h-140l354 667h158l143 -667h-141zM453 279l-49 246l-127 -246h176zM344 693l-90 47l169 153h79l121 -153l-104 -47l-75 83z" />
    <glyph glyph-name="Atilde" unicode="&#xc3;" horiz-adv-x="643" 
d="M478 155h-264l-80 -155h-140l354 667h158l143 -667h-141zM453 279l-49 246l-127 -246h176zM516 873l103 -24q-12 -53 -33 -81q-33 -44 -92 -44q-38 0 -75 21q-14 9 -24 9q-5 0 -6 -3l-1 -4q-2 -4 -5.5 -12.5t-6.5 -16.5l-100 23q31 125 127 125q33 0 75 -24q14 -8 22 -8
q4 0 6 5t10 34z" />
    <glyph glyph-name="Adieresis" unicode="&#xc4;" horiz-adv-x="643" 
d="M478 155h-264l-80 -155h-140l354 667h158l143 -667h-141zM453 279l-49 246l-127 -246h176zM552 868q28 0 46 -17.5t18 -44.5q0 -33 -26.5 -58.5t-61.5 -25.5q-27 0 -45 17.5t-18 44.5q0 34 26 59t61 25zM366 868q28 0 46 -17.5t18 -44.5q0 -33 -26.5 -58.5t-61.5 -25.5
q-28 0 -45.5 17.5t-17.5 44.5q0 34 26 59t61 25z" />
    <glyph glyph-name="Aring" unicode="&#xc5;" horiz-adv-x="643" 
d="M465 904q42 0 70 -27t28 -68q0 -52 -40.5 -91.5t-93.5 -39.5q-43 0 -70.5 27t-27.5 69q0 51 40.5 90.5t93.5 39.5zM455 843q-23 0 -41.5 -18t-18.5 -42q0 -19 12.5 -31.5t30.5 -12.5q24 0 42.5 18t18.5 42q0 19 -12.5 31.5t-31.5 12.5zM478 155h-264l-80 -155h-140
l354 667h158l143 -667h-141zM453 279l-49 246l-127 -246h176z" />
    <glyph glyph-name="AE" unicode="&#xc6;" horiz-adv-x="845" 
d="M448 155h-200l-105 -155h-149l457 667h460l-20 -123h-249l-23 -145h221l-19 -123h-222l-24 -152h259l-20 -124h-391zM467 279l40 249h-7l-168 -249h135z" />
    <glyph glyph-name="Ccedilla" unicode="&#xc7;" horiz-adv-x="674" 
d="M739 556l-109 -90q-38 51 -73.5 71.5t-84.5 20.5q-104 0 -181.5 -78.5t-77.5 -183.5q0 -82 52.5 -134.5t134.5 -52.5q49 0 91.5 20.5t99.5 72.5l81 -89q-77 -68 -145 -98.5t-146 -30.5q-131 0 -217.5 84t-86.5 211q0 160 126 282t291 122q75 0 133.5 -30t111.5 -97z
M447 -67l-160 -164l-86 45l137 167z" />
    <glyph glyph-name="Egrave" unicode="&#xc8;" horiz-adv-x="489" 
d="M554 667l-19 -123h-249l-23 -145h221l-19 -123h-222l-24 -152h259l-20 -124h-391l106 667h381zM237 849l130 62l102 -172l-94 -47z" />
    <glyph glyph-name="Eacute" unicode="&#xc9;" horiz-adv-x="489" 
d="M554 667l-19 -123h-249l-23 -145h221l-19 -123h-222l-24 -152h259l-20 -124h-391l106 667h381zM558 849l-188 -157l-79 47l157 172z" />
    <glyph glyph-name="Ecircumflex" unicode="&#xca;" horiz-adv-x="489" 
d="M554 667l-19 -123h-249l-23 -145h221l-19 -123h-222l-24 -152h259l-20 -124h-391l106 667h381zM285 693l-90 47l170 153h79l121 -153l-105 -47l-74 83z" />
    <glyph glyph-name="Edieresis" unicode="&#xcb;" horiz-adv-x="489" 
d="M554 667l-19 -123h-249l-23 -145h221l-19 -123h-222l-24 -152h259l-20 -124h-391l106 667h381zM493 868q28 0 46 -17.5t18 -44.5q0 -33 -26.5 -58.5t-60.5 -25.5q-28 0 -46 17.5t-18 44.5q0 33 26.5 58.5t60.5 25.5zM307 868q28 0 46 -17.5t18 -44.5q0 -33 -26.5 -58.5
t-61.5 -25.5q-28 0 -45.5 17.5t-17.5 44.5q0 34 26 59t61 25z" />
    <glyph glyph-name="Igrave" unicode="&#xcc;" horiz-adv-x="267" 
d="M306 667l-106 -667h-133l106 667h133zM95 849l129 62l102 -172l-93 -47z" />
    <glyph glyph-name="Iacute" unicode="&#xcd;" horiz-adv-x="267" 
d="M306 667l-106 -667h-133l106 667h133zM438 849l-188 -157l-79 47l157 172z" />
    <glyph glyph-name="Icircumflex" unicode="&#xce;" horiz-adv-x="267" 
d="M306 667l-106 -667h-133l106 667h133zM156 693l-90 47l169 153h79l121 -153l-104 -47l-75 83z" />
    <glyph glyph-name="Idieresis" unicode="&#xcf;" horiz-adv-x="267" 
d="M306 667l-106 -667h-133l106 667h133zM190 868q28 0 46 -17.5t18 -44.5q0 -33 -26.5 -58.5t-60.5 -25.5q-28 0 -46 17.5t-18 44.5q0 33 26.5 58.5t60.5 25.5zM353 868q27 0 45 -18t18 -44q0 -33 -26.5 -58.5t-61.5 -25.5q-28 0 -45.5 17.5t-17.5 44.5q0 34 26.5 59
t61.5 25z" />
    <glyph glyph-name="Eth" unicode="&#xd0;" horiz-adv-x="632" 
d="M145 418l39 249h159q149 0 233 -72.5t84 -202.5q0 -82 -33 -157.5t-92 -128.5q-115 -106 -298 -106h-158l47 298h-62l19 120h62zM278 418h143l-19 -120h-143l-28 -174h29q118 0 191.5 69t73.5 180q0 81 -52 125.5t-147 44.5h-28z" />
    <glyph glyph-name="Ntilde" unicode="&#xd1;" horiz-adv-x="708" 
d="M67 0l106 667h112l259 -434l69 434h133l-105 -667h-113l-259 434l-69 -434h-133zM552 873l103 -24q-14 -55 -33 -81q-33 -44 -92 -44q-38 0 -75 21q-15 9 -24 9q-5 0 -7 -4.5t-12 -31.5l-101 23q33 125 127 125q34 0 76 -24q14 -8 22 -8q4 0 6 5t10 34z" />
    <glyph glyph-name="Ograve" unicode="&#xd2;" horiz-adv-x="762" 
d="M349 849l129 62l103 -172l-94 -47zM493 683q126 0 212 -85.5t86 -210.5q0 -158 -126.5 -280.5t-289.5 -122.5q-126 0 -211.5 85t-85.5 211q0 104 58 197.5t154 149.5t203 56zM471 558q-102 0 -180 -79t-78 -183q0 -79 53 -133t130 -54q103 0 181 78.5t78 182.5
q0 81 -52.5 134.5t-131.5 53.5z" />
    <glyph glyph-name="Oacute" unicode="&#xd3;" horiz-adv-x="762" 
d="M493 683q126 0 212 -85.5t86 -210.5q0 -158 -126.5 -280.5t-289.5 -122.5q-126 0 -211.5 85t-85.5 211q0 104 58 197.5t154 149.5t203 56zM471 558q-102 0 -180 -79t-78 -183q0 -79 53 -133t130 -54q103 0 181 78.5t78 182.5q0 81 -52.5 134.5t-131.5 53.5zM683 849
l-187 -157l-79 47l157 172z" />
    <glyph glyph-name="Ocircumflex" unicode="&#xd4;" horiz-adv-x="762" 
d="M493 683q126 0 212 -85.5t86 -210.5q0 -158 -126.5 -280.5t-289.5 -122.5q-126 0 -211.5 85t-85.5 211q0 104 58 197.5t154 149.5t203 56zM471 558q-102 0 -180 -79t-78 -183q0 -79 53 -133t130 -54q103 0 181 78.5t78 182.5q0 81 -52.5 134.5t-131.5 53.5zM404 693
l-90 47l169 153h79l121 -153l-104 -47l-75 83z" />
    <glyph glyph-name="Otilde" unicode="&#xd5;" horiz-adv-x="762" 
d="M493 683q126 0 212 -85.5t86 -210.5q0 -158 -126.5 -280.5t-289.5 -122.5q-126 0 -211.5 85t-85.5 211q0 104 58 197.5t154 149.5t203 56zM471 558q-102 0 -180 -79t-78 -183q0 -79 53 -133t130 -54q103 0 181 78.5t78 182.5q0 81 -52.5 134.5t-131.5 53.5zM576 873
l103 -24q-12 -53 -33 -81q-33 -44 -92 -44q-38 0 -75 21q-14 9 -24 9q-5 0 -7 -4.5t-12 -31.5l-100 23q31 125 127 125q33 0 75 -24q14 -8 22 -8q4 0 6.5 5t9.5 34z" />
    <glyph glyph-name="Odieresis" unicode="&#xd6;" horiz-adv-x="762" 
d="M493 683q126 0 212 -85.5t86 -210.5q0 -158 -126.5 -280.5t-289.5 -122.5q-126 0 -211.5 85t-85.5 211q0 104 58 197.5t154 149.5t203 56zM471 558q-102 0 -180 -79t-78 -183q0 -79 53 -133t130 -54q103 0 181 78.5t78 182.5q0 81 -52.5 134.5t-131.5 53.5zM612 868
q28 0 46 -17.5t18 -44.5q0 -33 -26.5 -58.5t-61.5 -25.5q-28 0 -45.5 17.5t-17.5 44.5q0 34 26 59t61 25zM426 868q28 0 46 -17.5t18 -44.5q0 -33 -26.5 -58.5t-61.5 -25.5q-28 0 -45.5 17.5t-17.5 44.5q0 34 26 59t61 25z" />
    <glyph glyph-name="multiply" unicode="&#xd7;" horiz-adv-x="556" 
d="M245 312l-118 141l95 82l119 -140l163 140l70 -82l-164 -141l119 -141l-96 -82l-118 140l-164 -140l-69 82z" />
    <glyph glyph-name="Oslash" unicode="&#xd8;" horiz-adv-x="770" 
d="M824 600l-71 -60q41 -68 41 -153q0 -103 -57.5 -196.5t-153 -150t-200.5 -56.5q-115 0 -201 71l-68 -58l-62 70l70 60q-41 73 -41 153q0 103 57.5 196.5t153.5 150t201 56.5q117 0 200 -71l69 58zM643 447l-353 -301q50 -37 111 -37q101 0 179 78.5t78 180.5q0 42 -15 79
zM232 220l355 301q-50 37 -114 37q-101 0 -178.5 -79t-77.5 -182q0 -39 15 -77z" />
    <glyph glyph-name="Ugrave" unicode="&#xd9;" horiz-adv-x="642" 
d="M306 667l-65 -409q-6 -46 -6 -62q0 -38 28.5 -62.5t74.5 -24.5q34 0 66.5 15t49.5 38q17 25 29 96l65 409h133l-68 -427q-13 -84 -51 -135q-41 -56 -107 -88.5t-137 -32.5q-95 0 -156.5 54.5t-61.5 137.5q0 27 5 64l68 427h133zM292 849l129 62l102 -172l-93 -47z" />
    <glyph glyph-name="Uacute" unicode="&#xda;" horiz-adv-x="642" 
d="M306 667l-65 -409q-6 -46 -6 -62q0 -38 28.5 -62.5t74.5 -24.5q34 0 66.5 15t49.5 38q17 25 29 96l65 409h133l-68 -427q-13 -84 -51 -135q-41 -56 -107 -88.5t-137 -32.5q-95 0 -156.5 54.5t-61.5 137.5q0 27 5 64l68 427h133zM620 849l-188 -157l-79 47l157 172z" />
    <glyph glyph-name="Ucircumflex" unicode="&#xdb;" horiz-adv-x="642" 
d="M306 667l-65 -409q-6 -46 -6 -62q0 -38 28.5 -62.5t74.5 -24.5q34 0 66.5 15t49.5 38q17 25 29 96l65 409h133l-68 -427q-13 -84 -51 -135q-41 -56 -107 -88.5t-137 -32.5q-95 0 -156.5 54.5t-61.5 137.5q0 27 5 64l68 427h133zM343 693l-89 47l169 153h79l121 -153
l-105 -47l-74 83z" />
    <glyph glyph-name="Udieresis" unicode="&#xdc;" horiz-adv-x="642" 
d="M306 667l-65 -409q-6 -46 -6 -62q0 -38 28.5 -62.5t74.5 -24.5q34 0 66.5 15t49.5 38q17 25 29 96l65 409h133l-68 -427q-13 -84 -51 -135q-41 -56 -107 -88.5t-137 -32.5q-95 0 -156.5 54.5t-61.5 137.5q0 27 5 64l68 427h133zM552 868q28 0 46 -17.5t18 -44.5
q0 -33 -26.5 -58.5t-61.5 -25.5q-28 0 -45.5 17.5t-17.5 44.5q0 34 26 59t61 25zM366 868q28 0 46 -17.5t18 -44.5q0 -33 -26.5 -58.5t-60.5 -25.5q-28 0 -46.5 17.5t-18.5 44.5q0 33 26.5 58.5t61.5 25.5z" />
    <glyph glyph-name="Yacute" unicode="&#xdd;" horiz-adv-x="552" 
d="M253 276l-160 391h149l100 -254l181 254h148l-284 -391l-44 -276h-133zM575 849l-188 -157l-79 47l157 172z" />
    <glyph glyph-name="Thorn" unicode="&#xde;" horiz-adv-x="478" 
d="M292 581h26q93 0 140 -30q74 -46 74 -147q0 -54 -25.5 -106.5t-69.5 -87.5q-68 -54 -187 -54h-25l-25 -156h-133l106 667h133zM273 459l-29 -182h34q72 0 100 37q23 32 23 73q0 39 -21.5 55.5t-72.5 16.5h-34z" />
    <glyph glyph-name="germandbls" unicode="&#xdf;" horiz-adv-x="530" 
d="M209 0l19 118h57q51 0 85 30.5t34 76.5q0 72 -93 72h-24l18 116h25q34 0 53 24.5t19 68.5q0 63 -61 63q-34 0 -57 -22t-29 -60l-77 -487h-128l77 487q14 84 78 140t148 56q81 0 128.5 -44t47.5 -118q0 -82 -62 -147q66 -48 66 -135q0 -71 -45 -133q-77 -106 -224 -106
h-55z" />
    <glyph glyph-name="agrave" unicode="&#xe0;" horiz-adv-x="543" 
d="M493 0h-128l4 25q-60 -41 -121 -41q-85 0 -139.5 56.5t-54.5 142.5q0 110 82 193t190 83q57 0 106 -41l4 25h128zM312 344q-54 0 -91 -43t-37 -106q0 -44 24.5 -70t66.5 -26q55 0 92 43t37 107q0 44 -24.5 69.5t-67.5 25.5zM193 645l129 62l102 -172l-93 -47z" />
    <glyph glyph-name="aacute" unicode="&#xe1;" horiz-adv-x="543" 
d="M533 645l-187 -157l-79 47l157 172zM493 0h-128l4 25q-60 -41 -121 -41q-85 0 -139.5 56.5t-54.5 142.5q0 110 82 193t190 83q57 0 106 -41l4 25h128zM312 344q-54 0 -91 -43t-37 -106q0 -44 24.5 -70t66.5 -26q55 0 92 43t37 107q0 44 -24.5 69.5t-67.5 25.5z" />
    <glyph glyph-name="acircumflex" unicode="&#xe2;" horiz-adv-x="543" 
d="M493 0h-128l4 25q-60 -41 -121 -41q-85 0 -139.5 56.5t-54.5 142.5q0 110 82 193t190 83q57 0 106 -41l4 25h128zM312 344q-54 0 -91 -43t-37 -106q0 -44 24.5 -70t66.5 -26q55 0 92 43t37 107q0 44 -24.5 69.5t-67.5 25.5zM423 489l-74 85l-101 -85l-90 46l169 153h79
l121 -153z" />
    <glyph glyph-name="atilde" unicode="&#xe3;" horiz-adv-x="543" 
d="M493 0h-128l4 25q-60 -41 -121 -41q-85 0 -139.5 56.5t-54.5 142.5q0 110 82 193t190 83q57 0 106 -41l4 25h128zM312 344q-54 0 -91 -43t-37 -106q0 -44 24.5 -70t66.5 -26q55 0 92 43t37 107q0 44 -24.5 69.5t-67.5 25.5zM420 669l103 -24q-14 -55 -33 -81
q-33 -44 -92 -44q-38 0 -75 21q-15 9 -24 9q-5 0 -6 -3q-3 -3 -13 -33l-101 23q33 125 127 125q34 0 75 -24q16 -8 23 -8q4 0 6 5t10 34z" />
    <glyph glyph-name="adieresis" unicode="&#xe4;" horiz-adv-x="543" 
d="M493 0h-128l4 25q-60 -41 -121 -41q-85 0 -139.5 56.5t-54.5 142.5q0 110 82 193t190 83q57 0 106 -41l4 25h128zM312 344q-54 0 -91 -43t-37 -106q0 -44 24.5 -70t66.5 -26q55 0 92 43t37 107q0 44 -24.5 69.5t-67.5 25.5zM465 668q28 0 46 -17.5t18 -44.5
q0 -33 -26.5 -58.5t-60.5 -25.5q-28 0 -46 17.5t-18 44.5q0 33 26.5 58.5t60.5 25.5zM279 668q28 0 46 -17.5t18 -44.5q0 -33 -26.5 -58.5t-60.5 -25.5q-28 0 -46.5 17.5t-18.5 44.5q0 33 26.5 58.5t61.5 25.5z" />
    <glyph glyph-name="aring" unicode="&#xe5;" horiz-adv-x="543" 
d="M381 704q42 0 70 -27t28 -68q0 -52 -40.5 -91.5t-94.5 -39.5q-42 0 -69.5 27.5t-27.5 69.5q0 50 41 89.5t93 39.5zM371 643q-23 0 -41.5 -18t-18.5 -42q0 -19 12.5 -31.5t30.5 -12.5q24 0 42.5 18t18.5 42q0 19 -12.5 31.5t-31.5 12.5zM493 0h-128l4 25q-60 -41 -121 -41
q-85 0 -139.5 56.5t-54.5 142.5q0 110 82 193t190 83q57 0 106 -41l4 25h128zM312 344q-54 0 -91 -43t-37 -106q0 -44 24.5 -70t66.5 -26q55 0 92 43t37 107q0 44 -24.5 69.5t-67.5 25.5z" />
    <glyph glyph-name="ae" unicode="&#xe6;" horiz-adv-x="801" 
d="M145 300l-54 83q63 42 113 59t110 17q108 0 154 -60q75 60 160 60q86 0 137 -54.5t51 -145.5q0 -29 -10 -82h-317q12 -80 87 -80q64 0 108 57l105 -44q-97 -126 -232 -126q-87 0 -143 57q-68 -57 -178 -57q-89 0 -141.5 36t-52.5 98q0 76 62.5 122.5t165.5 46.5h97
q-11 60 -81 60q-62 0 -141 -47zM503 266h191q-13 81 -83 81q-75 0 -108 -81zM358 198h-89q-98 0 -98 -60q0 -20 21 -31.5t58 -11.5q92 0 101 57z" />
    <glyph glyph-name="ccedilla" unicode="&#xe7;" horiz-adv-x="461" 
d="M325 -67l-160 -164l-86 45l138 167zM508 371l-95 -85q-28 34 -47.5 45.5t-49.5 11.5q-57 0 -94.5 -42t-37.5 -105q0 -45 25 -70.5t69 -25.5q57 0 118 61l68 -85q-99 -92 -205 -92q-91 0 -148 55.5t-57 144.5q0 111 84 193t197 82q54 0 94.5 -20.5t78.5 -67.5z" />
    <glyph glyph-name="egrave" unicode="&#xe8;" horiz-adv-x="493" 
d="M187 645l129 62l102 -172l-93 -48zM377 154l105 -44q-98 -126 -230 -126q-89 0 -143.5 55t-54.5 144q0 110 81 193t187 83q84 0 135.5 -55t51.5 -145q0 -31 -10 -82h-318q12 -80 88 -80q65 0 108 57zM195 266h191q-13 81 -82 81q-73 0 -109 -81z" />
    <glyph glyph-name="eacute" unicode="&#xe9;" horiz-adv-x="493" 
d="M511 645l-188 -158l-79 48l157 172zM377 154l105 -44q-98 -126 -230 -126q-89 0 -143.5 55t-54.5 144q0 110 81 193t187 83q84 0 135.5 -55t51.5 -145q0 -31 -10 -82h-318q12 -80 88 -80q65 0 108 57zM195 266h191q-13 81 -82 81q-73 0 -109 -81z" />
    <glyph glyph-name="ecircumflex" unicode="&#xea;" horiz-adv-x="493" 
d="M377 154l105 -44q-98 -126 -230 -126q-89 0 -143.5 55t-54.5 144q0 110 81 193t187 83q84 0 135.5 -55t51.5 -145q0 -31 -10 -82h-318q12 -80 88 -80q65 0 108 57zM195 266h191q-13 81 -82 81q-73 0 -109 -81zM411 489l-74 85l-101 -85l-89 46l169 153h79l120 -153z" />
    <glyph glyph-name="edieresis" unicode="&#xeb;" horiz-adv-x="493" 
d="M377 154l105 -44q-98 -126 -230 -126q-89 0 -143.5 55t-54.5 144q0 110 81 193t187 83q84 0 135.5 -55t51.5 -145q0 -31 -10 -82h-318q12 -80 88 -80q65 0 108 57zM195 266h191q-13 81 -82 81q-73 0 -109 -81zM446 668q28 0 46 -17.5t18 -44.5q0 -33 -27 -58.5t-62 -25.5
q-27 0 -45 17.5t-18 44.5q0 34 26.5 59t61.5 25zM260 668q28 0 46 -17.5t18 -44.5q0 -33 -26.5 -58.5t-61.5 -25.5q-28 0 -46 17.5t-18 44.5q0 33 26.5 58.5t61.5 25.5z" />
    <glyph glyph-name="igrave" unicode="&#xec;" horiz-adv-x="229" 
d="M44 645l129 62l103 -172l-94 -48zM249 443l-70 -443h-128l70 443h128z" />
    <glyph glyph-name="iacute" unicode="&#xed;" horiz-adv-x="229" 
d="M390 645l-188 -158l-78 48l157 172zM249 443l-70 -443h-128l70 443h128z" />
    <glyph glyph-name="icircumflex" unicode="&#xee;" horiz-adv-x="229" 
d="M249 443l-70 -443h-129l71 443h128zM279 489l-74 85l-101 -85l-89 46l169 153h79l121 -153z" />
    <glyph glyph-name="idieresis" unicode="&#xef;" horiz-adv-x="229" 
d="M249 443l-70 -443h-128l70 443h128zM302 668q28 0 46 -17.5t18 -44.5q0 -33 -26.5 -58.5t-60.5 -25.5q-28 0 -46.5 17.5t-18.5 44.5q0 33 26.5 58.5t61.5 25.5zM140 668q28 0 46 -17.5t18 -44.5q0 -34 -26.5 -59t-62.5 -25q-27 0 -45 17.5t-18 44.5q0 34 26.5 59t61.5 25
z" />
    <glyph glyph-name="eth" unicode="&#xf0;" horiz-adv-x="521" 
d="M559 664l-104 -49q89 -123 89 -286q0 -144 -66 -234q-37 -51 -97 -81t-124 -30q-89 0 -146 56t-57 144q0 109 83.5 192t192.5 83q39 0 81 -14l-1 3q-36 79 -68 114l-108 -52l-72 75l86 40q-40 18 -94 35l73 87q92 -26 151 -62l115 53zM313 343q-54 0 -91.5 -42.5
t-37.5 -104.5q0 -44 24.5 -70t67.5 -26q55 0 92.5 42.5t37.5 106.5q0 43 -25 68.5t-68 25.5z" />
    <glyph glyph-name="ntilde" unicode="&#xf1;" horiz-adv-x="510" 
d="M248 443l-3 -21q51 37 106 37q68 0 110 -42.5t42 -110.5q0 -29 -5 -67l-38 -239h-128l36 232q5 28 5 51q0 61 -59 61q-50 0 -73 -33q-18 -26 -28 -88l-35 -223h-128l70 443h128zM419 669l103 -24q-14 -55 -33 -81q-34 -44 -92 -44q-38 0 -75 21q-15 9 -24 9q-4 0 -7 -3
q-1 -1 -12 -33l-101 23q33 125 127 125q35 0 75 -24q14 -8 23 -8q5 0 6.5 5t9.5 34z" />
    <glyph glyph-name="ograve" unicode="&#xf2;" horiz-adv-x="520" 
d="M196 645l128 62l103 -172l-94 -47zM336 459q87 0 144 -56.5t57 -142.5q0 -111 -83.5 -193.5t-196.5 -82.5q-89 0 -146 56t-57 145q0 110 84 192t198 82zM314 343q-55 0 -92.5 -42.5t-37.5 -104.5q0 -44 25 -70t67 -26q56 0 93.5 42.5t37.5 106.5q0 43 -25 68.5t-68 25.5z
" />
    <glyph glyph-name="oacute" unicode="&#xf3;" horiz-adv-x="520" 
d="M529 645l-187 -157l-79 47l157 172zM336 459q87 0 144 -56.5t57 -142.5q0 -111 -83.5 -193.5t-196.5 -82.5q-89 0 -146 56t-57 145q0 110 84 192t198 82zM314 343q-55 0 -92.5 -42.5t-37.5 -104.5q0 -44 25 -70t67 -26q56 0 93.5 42.5t37.5 106.5q0 43 -25 68.5t-68 25.5
z" />
    <glyph glyph-name="ocircumflex" unicode="&#xf4;" horiz-adv-x="520" 
d="M425 489l-74 85l-101 -85l-89 46l169 153h79l120 -153zM336 459q87 0 144 -56.5t57 -142.5q0 -111 -83.5 -193.5t-196.5 -82.5q-89 0 -146 56t-57 145q0 110 84 192t198 82zM314 343q-55 0 -92.5 -42.5t-37.5 -104.5q0 -44 25 -70t67 -26q56 0 93.5 42.5t37.5 106.5
q0 43 -25 68.5t-68 25.5z" />
    <glyph glyph-name="otilde" unicode="&#xf5;" horiz-adv-x="520" 
d="M422 669l103 -24q-12 -53 -33 -81q-33 -44 -91 -44q-38 0 -75 21q-15 9 -25 9q-5 0 -6 -3q-1 -1 -13 -33l-100 23q31 125 127 125q33 0 75 -24q14 -8 22 -8q5 0 7 5t9 34zM336 459q87 0 144 -56.5t57 -142.5q0 -111 -83.5 -193.5t-196.5 -82.5q-89 0 -146 56t-57 145
q0 110 84 192t198 82zM314 343q-55 0 -92.5 -42.5t-37.5 -104.5q0 -44 25 -70t67 -26q56 0 93.5 42.5t37.5 106.5q0 43 -25 68.5t-68 25.5z" />
    <glyph glyph-name="odieresis" unicode="&#xf6;" horiz-adv-x="520" 
d="M336 459q87 0 144 -56.5t57 -142.5q0 -111 -83.5 -193.5t-196.5 -82.5q-89 0 -146 56t-57 145q0 110 84 192t198 82zM314 343q-55 0 -92.5 -42.5t-37.5 -104.5q0 -44 25 -70t67 -26q56 0 93.5 42.5t37.5 106.5q0 43 -25 68.5t-68 25.5zM458 668q28 0 46 -17.5t18 -44.5
q0 -33 -26.5 -58.5t-60.5 -25.5q-28 0 -46 17.5t-18 44.5q0 33 26.5 58.5t60.5 25.5zM272 668q28 0 46 -17.5t18 -44.5q0 -33 -26.5 -58.5t-60.5 -25.5q-28 0 -46.5 17.5t-18.5 44.5q0 33 26.5 58.5t61.5 25.5z" />
    <glyph glyph-name="divide" unicode="&#xf7;" horiz-adv-x="556" 
d="M577 370l-18 -116h-482l18 116h482zM368 569q29 0 48.5 -19t19.5 -48q0 -37 -28.5 -65t-66.5 -28q-29 0 -48 19.5t-19 48.5q0 36 28.5 64t65.5 28zM312 215q29 0 48.5 -19t19.5 -48q0 -37 -28.5 -65t-66.5 -28q-29 0 -48 19.5t-19 48.5q0 36 28.5 64t65.5 28z" />
    <glyph glyph-name="oslash" unicode="&#xf8;" horiz-adv-x="534" 
d="M38 58l43 35q-20 40 -20 90q0 111 83.5 193.5t196.5 82.5q76 0 133 -45l39 32l53 -61l-42 -35q20 -42 20 -91q0 -110 -84 -192.5t-196 -82.5q-79 0 -133 45l-39 -32zM192 184l180 147q-22 13 -50 13q-55 0 -93 -42t-38 -102q0 -10 1 -16zM413 260l-180 -148
q23 -13 50 -13q54 0 92.5 42.5t38.5 102.5q0 10 -1 16z" />
    <glyph glyph-name="ugrave" unicode="&#xf9;" horiz-adv-x="510" 
d="M192 645l129 62l102 -172l-93 -48zM332 0l3 21q-51 -37 -106 -37q-68 0 -110 42.5t-42 110.5q0 29 5 67l38 239h128l-36 -232q-5 -28 -5 -51q0 -60 59 -60q50 0 73 33q17 23 28 87l35 223h128l-70 -443h-128z" />
    <glyph glyph-name="uacute" unicode="&#xfa;" horiz-adv-x="510" 
d="M519 645l-187 -158l-79 48l157 172zM332 0l3 21q-51 -37 -106 -37q-68 0 -110 42.5t-42 110.5q0 29 5 67l38 239h128l-36 -232q-5 -28 -5 -51q0 -60 59 -60q50 0 73 33q17 23 28 87l35 223h128l-70 -443h-128z" />
    <glyph glyph-name="ucircumflex" unicode="&#xfb;" horiz-adv-x="510" 
d="M332 0l3 21q-51 -37 -106 -37q-68 0 -110 42.5t-42 110.5q0 29 5 67l38 239h128l-36 -232q-5 -28 -5 -51q0 -60 59 -60q50 0 73 33q17 23 28 87l35 223h128l-70 -443h-128zM420 489l-74 85l-101 -85l-89 46l169 153h78l121 -153z" />
    <glyph glyph-name="udieresis" unicode="&#xfc;" horiz-adv-x="510" 
d="M332 0l3 21q-51 -37 -106 -37q-68 0 -110 42.5t-42 110.5q0 29 5 67l38 239h128l-36 -232q-5 -28 -5 -51q0 -60 59 -60q50 0 73 33q17 23 28 87l35 223h128l-70 -443h-128zM454 668q28 0 46 -17.5t18 -44.5q0 -33 -26.5 -58.5t-61.5 -25.5q-27 0 -45 17.5t-18 44.5
q0 33 26.5 58.5t60.5 25.5zM268 668q28 0 46 -17.5t18 -44.5q0 -33 -26.5 -58.5t-60.5 -25.5q-28 0 -46.5 17.5t-18.5 44.5q0 33 26.5 58.5t61.5 25.5z" />
    <glyph glyph-name="yacute" unicode="&#xfd;" horiz-adv-x="474" 
d="M167 22l-109 421h137l66 -265l159 265h137l-409 -677h-135zM504 645l-187 -158l-79 48l157 172z" />
    <glyph glyph-name="thorn" unicode="&#xfe;" horiz-adv-x="544" 
d="M157 667h128l-40 -248q63 40 122 40q84 0 139 -56.5t55 -142.5q0 -110 -82 -193t-190 -83q-58 0 -106 41l-41 -259h-128zM339 343q-54 0 -91 -43t-37 -106q0 -44 24.5 -69t67.5 -25q53 0 90.5 43t37.5 104q0 44 -25 70t-67 26z" />
    <glyph glyph-name="ydieresis" unicode="&#xff;" horiz-adv-x="474" 
d="M167 22l-109 421h137l66 -265l159 265h137l-409 -677h-135zM437 668q28 0 46 -17.5t18 -44.5q0 -33 -26.5 -58.5t-60.5 -25.5q-28 0 -46.5 17.5t-18.5 44.5q0 33 26.5 58.5t61.5 25.5zM251 668q27 0 45 -17.5t18 -44.5q0 -33 -26.5 -58.5t-60.5 -25.5q-28 0 -46 17.5
t-18 44.5q0 33 26.5 58.5t61.5 25.5z" />
    <glyph glyph-name="Amacron" unicode="&#x100;" horiz-adv-x="643" 
d="M478 155h-264l-80 -155h-140l354 667h158l143 -667h-141zM453 279l-49 246l-127 -246h176zM294 850h324l-17 -110h-324z" />
    <glyph glyph-name="amacron" unicode="&#x101;" horiz-adv-x="543" 
d="M493 0h-128l4 25q-60 -41 -121 -41q-85 0 -139.5 56.5t-54.5 142.5q0 110 82 193t190 83q57 0 106 -41l4 25h128zM312 344q-54 0 -91 -43t-37 -106q0 -44 24.5 -70t66.5 -26q55 0 92 43t37 107q0 44 -24.5 69.5t-67.5 25.5zM210 645h324l-18 -110h-324z" />
    <glyph glyph-name="Abreve" unicode="&#x102;" horiz-adv-x="643" 
d="M478 155h-264l-80 -155h-140l354 667h158l143 -667h-141zM453 279l-49 246l-127 -246h176zM301 871l112 9q-2 -20 -3 -25q-1 -6 -1 -16q0 -16 10.5 -25.5t27.5 -9.5q27 0 44 27q5 7 18 49l109 -9q-12 -45 -16.5 -56.5t-16.5 -28.5q-58 -88 -155 -88q-57 0 -96 34.5
t-39 85.5q0 14 6 53z" />
    <glyph glyph-name="abreve" unicode="&#x103;" horiz-adv-x="543" 
d="M493 0h-128l4 25q-60 -41 -121 -41q-85 0 -139.5 56.5t-54.5 142.5q0 110 82 193t190 83q57 0 106 -41l4 25h128zM312 344q-54 0 -91 -43t-37 -106q0 -44 24.5 -70t66.5 -26q55 0 92 43t37 107q0 44 -24.5 69.5t-67.5 25.5zM207 667l112 9q-2 -24 -2 -26q-1 -6 -1 -16
q0 -16 10 -26t27 -10q27 0 44 27q5 7 18 51l109 -9q-12 -45 -16.5 -57t-15.5 -28q-58 -88 -155 -88q-57 0 -96 34.5t-39 85.5q0 14 5 53z" />
    <glyph glyph-name="Aogonek" unicode="&#x104;" horiz-adv-x="643" 
d="M649 0l-5 -5q-36 -39 -36 -56q0 -6 9 -6q15 0 44 12l24 -93q-69 -23 -99 -23q-46 0 -74.5 23.5t-28.5 61.5q0 41 38 86h-13l-30 155h-264l-80 -155h-140l354 667h158zM453 279l-49 246l-127 -246h176z" />
    <glyph glyph-name="aogonek" unicode="&#x105;" horiz-adv-x="543" 
d="M564 443l-71 -443l-2 -2q-1 -2 -2 -3q-37 -39 -37 -56q0 -6 9 -6q15 0 44 12l24 -93q-69 -23 -99 -23q-46 0 -74.5 23.5t-28.5 61.5q0 40 38 86l4 25q-60 -41 -121 -41q-85 0 -139.5 56.5t-54.5 142.5q0 110 82 193t190 83q57 0 106 -41l4 25h128zM312 344q-54 0 -91 -43
t-37 -106q0 -44 24.5 -70t66.5 -26q55 0 92 43t37 107q0 44 -24.5 69.5t-67.5 25.5z" />
    <glyph glyph-name="Cacute" unicode="&#x106;" horiz-adv-x="674" 
d="M739 556l-109 -90q-38 51 -73.5 71.5t-84.5 20.5q-104 0 -181.5 -78.5t-77.5 -183.5q0 -82 52.5 -134.5t134.5 -52.5q49 0 91.5 20.5t99.5 72.5l81 -89q-77 -68 -145 -98.5t-146 -30.5q-131 0 -217.5 84t-86.5 211q0 160 126 282t291 122q75 0 133.5 -30t111.5 -97z
M688 849l-188 -157l-79 47l157 172z" />
    <glyph glyph-name="cacute" unicode="&#x107;" horiz-adv-x="461" 
d="M518 645l-188 -158l-79 48l157 172zM508 371l-95 -85q-28 34 -47.5 45.5t-49.5 11.5q-57 0 -94.5 -42t-37.5 -105q0 -45 25 -70.5t69 -25.5q57 0 118 61l68 -85q-99 -92 -205 -92q-91 0 -148 55.5t-57 144.5q0 111 84 193t197 82q54 0 94.5 -20.5t78.5 -67.5z" />
    <glyph glyph-name="Ccircumflex" unicode="&#x108;" horiz-adv-x="674" 
d="M739 556l-109 -90q-38 51 -73.5 71.5t-84.5 20.5q-104 0 -181.5 -78.5t-77.5 -183.5q0 -82 52.5 -134.5t134.5 -52.5q49 0 91.5 20.5t99.5 72.5l81 -89q-77 -68 -145 -98.5t-146 -30.5q-131 0 -217.5 84t-86.5 211q0 160 126 282t291 122q75 0 133.5 -30t111.5 -97z
M395 693l-89 47l169 153h79l121 -153l-105 -47l-74 83z" />
    <glyph glyph-name="ccircumflex" unicode="&#x109;" horiz-adv-x="461" 
d="M508 371l-95 -85q-27 34 -47 45.5t-50 11.5q-57 0 -94.5 -42t-37.5 -105q0 -45 25 -70.5t69 -25.5q31 0 57 13.5t61 47.5l68 -85q-54 -49 -101.5 -70.5t-103.5 -21.5q-91 0 -148 55.5t-57 144.5q0 111 84 193t197 82q53 0 92.5 -20t80.5 -68zM415 489l-74 85l-101 -85
l-89 46l169 153h79l120 -153z" />
    <glyph glyph-name="Cdotaccent" unicode="&#x10a;" horiz-adv-x="674" 
d="M739 556l-109 -90q-38 51 -73.5 71.5t-84.5 20.5q-104 0 -181.5 -78.5t-77.5 -183.5q0 -82 52.5 -134.5t134.5 -52.5q49 0 91.5 20.5t99.5 72.5l81 -89q-77 -68 -145 -98.5t-146 -30.5q-131 0 -217.5 84t-86.5 211q0 160 126 282t291 122q75 0 133.5 -30t111.5 -97z
M520 871q29 0 47.5 -18t18.5 -46q0 -34 -27.5 -61t-62.5 -27q-29 0 -48 18.5t-19 46.5q0 34 27.5 60.5t63.5 26.5z" />
    <glyph glyph-name="cdotaccent" unicode="&#x10b;" horiz-adv-x="461" 
d="M508 371l-95 -85q-28 34 -47.5 45.5t-49.5 11.5q-57 0 -94.5 -42t-37.5 -105q0 -45 25 -70.5t69 -25.5q57 0 118 61l68 -85q-99 -92 -205 -92q-91 0 -148 55.5t-57 144.5q0 111 84 193t197 82q54 0 94.5 -20.5t78.5 -67.5zM360 671q29 0 48 -18t19 -46q0 -35 -27.5 -61.5
t-64.5 -26.5q-29 0 -47.5 18.5t-18.5 46.5q0 34 27.5 60.5t63.5 26.5z" />
    <glyph glyph-name="Ccaron" unicode="&#x10c;" horiz-adv-x="674" 
d="M739 556l-109 -90q-38 51 -73.5 71.5t-84.5 20.5q-104 0 -181.5 -78.5t-77.5 -183.5q0 -82 52.5 -134.5t134.5 -52.5q49 0 91.5 20.5t99.5 72.5l81 -89q-77 -68 -145 -98.5t-146 -30.5q-131 0 -217.5 84t-86.5 211q0 160 126 282t291 122q75 0 133.5 -30t111.5 -97z
M428 899l74 -83l101 83l90 -47l-170 -153h-79l-120 153z" />
    <glyph glyph-name="ccaron" unicode="&#x10d;" horiz-adv-x="460" 
d="M508 371l-95 -85q-28 34 -47.5 45.5t-49.5 11.5q-57 0 -94.5 -42t-37.5 -105q0 -45 25 -70.5t69 -25.5q57 0 118 61l68 -85q-99 -92 -205 -92q-91 0 -148 55.5t-57 144.5q0 111 84 193t197 82q54 0 94.5 -20.5t78.5 -67.5zM449 699l89 -46l-169 -153h-79l-120 153l104 46
l74 -85z" />
    <glyph glyph-name="Dcaron" unicode="&#x10e;" horiz-adv-x="620" 
d="M173 667h158q149 0 233 -72.5t84 -202.5q0 -82 -33 -157t-92 -129q-115 -106 -297 -106h-159zM286 543l-66 -419h28q118 0 191.5 69t73.5 181q0 81 -51.5 125t-146.5 44h-29zM346 899l75 -83l100 83l90 -47l-169 -153h-79l-121 153z" />
    <glyph glyph-name="dcaron" unicode="&#x10f;" horiz-adv-x="686" 
d="M493 0h-128l4 25q-61 -41 -121 -41q-85 0 -139.5 56.5t-54.5 142.5q0 110 82 193t190 83q56 0 106 -40l39 248h128zM312 343q-53 0 -90.5 -43t-37.5 -104q0 -44 24.5 -70t66.5 -26q55 0 92 43t37 106q0 44 -24.5 69t-67.5 25zM695 706l115 -36l-116 -192l-91 29z" />
    <glyph glyph-name="Dcroat" unicode="&#x110;" horiz-adv-x="632" 
d="M145 418l39 249h159q149 0 233 -72.5t84 -202.5q0 -82 -33 -157.5t-92 -128.5q-115 -106 -298 -106h-158l47 298h-62l19 120h62zM278 418h143l-19 -120h-143l-28 -174h29q118 0 191.5 69t73.5 180q0 81 -52 125.5t-147 44.5h-28z" />
    <glyph glyph-name="dcroat" unicode="&#x111;" horiz-adv-x="546" 
d="M444 497h-109l18 112h109l9 58h128l-9 -58h55l-18 -112h-55l-79 -497h-128l4 25q-61 -41 -121 -41q-85 0 -139.5 56.5t-54.5 142.5q0 110 82 193t190 83q58 0 106 -40zM312 343q-53 0 -90.5 -43t-37.5 -104q0 -44 24.5 -70t66.5 -26q55 0 92 43t37 106q0 44 -24.5 69
t-67.5 25z" />
    <glyph glyph-name="Emacron" unicode="&#x112;" horiz-adv-x="489" 
d="M554 667l-19 -123h-249l-23 -145h221l-19 -123h-222l-24 -152h259l-20 -124h-391l106 667h381zM236 850h324l-18 -110h-324z" />
    <glyph glyph-name="emacron" unicode="&#x113;" horiz-adv-x="493" 
d="M377 154l105 -44q-98 -126 -230 -126q-89 0 -143.5 55t-54.5 144q0 110 81 193t187 83q84 0 135.5 -55t51.5 -145q0 -31 -10 -82h-318q12 -80 88 -80q65 0 108 57zM195 266h191q-13 81 -82 81q-73 0 -109 -81zM187 645h324l-18 -110h-324z" />
    <glyph glyph-name="Ebreve" unicode="&#x114;" horiz-adv-x="489" 
d="M554 667l-19 -123h-249l-23 -145h221l-19 -123h-222l-24 -152h259l-20 -124h-391l106 667h381zM242 871l112 9q-2 -20 -3 -25q-1 -6 -1 -16q0 -16 10.5 -25.5t27.5 -9.5q28 0 44 27q5 7 18 49l109 -9q-12 -45 -16.5 -56.5t-16.5 -28.5q-58 -88 -155 -88q-57 0 -96 34.5
t-39 85.5q0 14 6 53z" />
    <glyph glyph-name="ebreve" unicode="&#x115;" horiz-adv-x="493" 
d="M377 154l105 -44q-98 -126 -230 -126q-89 0 -143.5 55t-54.5 144q0 110 81 193t187 83q84 0 135.5 -55t51.5 -145q0 -31 -10 -82h-318q12 -80 88 -80q65 0 108 57zM195 266h191q-13 81 -82 81q-73 0 -109 -81zM194 667l112 9q-2 -21 -3 -26q-1 -6 -1 -16q0 -16 10 -26
t27 -10q29 0 45 27q4 7 17 51l110 -9q-13 -45 -17.5 -57t-15.5 -28q-58 -88 -155 -88q-57 0 -96 34.5t-39 85.5q0 12 6 53z" />
    <glyph glyph-name="Edotaccent" unicode="&#x116;" horiz-adv-x="489" 
d="M554 667l-19 -123h-249l-23 -145h221l-19 -123h-222l-24 -152h259l-20 -124h-391l106 667h381zM401 871q29 0 47.5 -18t18.5 -46q0 -34 -27.5 -61t-62.5 -27q-29 0 -48 18.5t-19 46.5q0 34 27.5 60.5t63.5 26.5z" />
    <glyph glyph-name="edotaccent" unicode="&#x117;" horiz-adv-x="493" 
d="M377 154l105 -44q-98 -126 -230 -126q-89 0 -143.5 55t-54.5 144q0 110 81 193t187 83q84 0 135.5 -55t51.5 -145q0 -31 -10 -82h-318q12 -80 88 -80q65 0 108 57zM195 266h191q-13 81 -82 81q-73 0 -109 -81zM352 671q29 0 48 -18t19 -46q0 -35 -27.5 -61.5t-64.5 -26.5
q-29 0 -47.5 18.5t-18.5 46.5q0 34 27.5 60.5t63.5 26.5z" />
    <glyph glyph-name="Eogonek" unicode="&#x118;" horiz-adv-x="489" 
d="M458 0l-5 -5q-36 -39 -36 -56q0 -6 9 -6q15 0 44 12l24 -93q-69 -23 -99 -23q-46 0 -74.5 23.5t-28.5 61.5q0 41 38 86h-263l106 667h381l-19 -123h-249l-23 -145h221l-19 -123h-222l-24 -152h259z" />
    <glyph glyph-name="eogonek" unicode="&#x119;" horiz-adv-x="493" 
d="M377 154l105 -45q-74 -97 -177 -119q-33 -38 -33 -51q0 -6 9 -6q16 0 45 12l24 -93q-68 -23 -99 -23q-47 0 -75.5 23.5t-28.5 61.5q0 37 35 81q-60 20 -94 69.5t-34 117.5q0 110 80.5 193.5t187.5 83.5q84 0 135.5 -55t51.5 -145q0 -31 -10 -82h-318q12 -79 88 -79
q65 0 108 56zM195 266h191q-13 81 -82 81q-73 0 -109 -81z" />
    <glyph glyph-name="Ecaron" unicode="&#x11a;" horiz-adv-x="489" 
d="M554 667l-19 -123h-249l-23 -145h221l-19 -123h-222l-24 -152h259l-20 -124h-391l106 667h381zM318 899l74 -83l101 83l90 -47l-170 -153h-79l-121 153z" />
    <glyph glyph-name="ecaron" unicode="&#x11b;" horiz-adv-x="493" 
d="M377 154l105 -44q-98 -126 -230 -126q-89 0 -143.5 55t-54.5 144q0 110 81 193t187 83q84 0 135.5 -55t51.5 -145q0 -31 -10 -82h-318q12 -80 88 -80q65 0 108 57zM195 266h191q-13 81 -82 81q-73 0 -109 -81zM444 699l90 -46l-169 -153h-79l-121 153l104 46l74 -85z" />
    <glyph glyph-name="Gcircumflex" unicode="&#x11c;" horiz-adv-x="728" 
d="M436 373h320l-10 -64q-23 -146 -122.5 -235.5t-239.5 -89.5q-133 0 -219.5 83.5t-86.5 212.5q0 105 57.5 198t154.5 149t205 56q75 0 131.5 -28.5t115.5 -95.5l-108 -89q-41 50 -76.5 69t-84.5 19q-104 0 -181.5 -78t-77.5 -184q0 -82 53 -134.5t136 -52.5t141 55
q34 32 54 86h-182zM392 693l-90 47l170 153h79l120 -153l-104 -47l-74 83z" />
    <glyph glyph-name="gcircumflex" unicode="&#x11d;" horiz-adv-x="543" 
d="M364 -9l6 34q-65 -41 -124 -41q-83 0 -137.5 56.5t-54.5 142.5q0 109 82 192.5t189 83.5q57 0 107 -41l4 25h128l-72 -452q-16 -107 -94 -173.5t-185 -66.5q-105 0 -168 68q-12 13 -38 50l99 82l9 -13l7 -10q41 -61 109 -61q54 0 89 32.5t44 91.5zM313 344
q-54 0 -91.5 -43t-37.5 -106q0 -44 25 -70t66 -26q55 0 92 43t37 107q0 44 -24.5 69.5t-66.5 25.5zM423 489l-74 85l-101 -85l-90 46l170 153h78l121 -153z" />
    <glyph glyph-name="Gbreve" unicode="&#x11e;" horiz-adv-x="728" 
d="M436 373h320l-10 -64q-23 -146 -122.5 -235.5t-239.5 -89.5q-133 0 -219.5 83.5t-86.5 212.5q0 105 57.5 198t154.5 149t205 56q75 0 131.5 -28.5t115.5 -95.5l-108 -89q-41 50 -76.5 69t-84.5 19q-104 0 -181.5 -78t-77.5 -184q0 -82 53 -134.5t136 -52.5t141 55
q34 32 54 86h-182zM368 871l113 9q-3 -18 -3 -25q-1 -6 -1 -16q0 -15 10.5 -25t26.5 -10q28 0 45 27q4 7 17 49l110 -9q-13 -45 -17.5 -57t-15.5 -28q-58 -88 -155 -88q-57 0 -96 34.5t-39 85.5q0 14 5 53z" />
    <glyph glyph-name="gbreve" unicode="&#x11f;" horiz-adv-x="543" 
d="M364 -9l6 34q-65 -41 -124 -41q-83 0 -137.5 56.5t-54.5 142.5q0 109 82 192.5t189 83.5q57 0 107 -41l4 25h128l-72 -452q-16 -107 -94 -173.5t-185 -66.5q-105 0 -168 68q-12 13 -38 50l99 82l9 -13l7 -10q41 -61 109 -61q54 0 89 32.5t44 91.5zM313 344
q-54 0 -91.5 -43t-37.5 -106q0 -44 25 -70t66 -26q55 0 92 43t37 107q0 44 -24.5 69.5t-66.5 25.5zM208 667l112 9q-2 -23 -3 -26q-1 -6 -1 -16q0 -16 10 -26t27 -10q29 0 45 27q4 7 18 51l109 -9q-13 -45 -17.5 -57t-15.5 -28q-58 -88 -155 -88q-57 0 -96 34.5t-39 85.5
q0 12 6 53z" />
    <glyph glyph-name="Gdotaccent" unicode="&#x120;" horiz-adv-x="728" 
d="M436 373h320l-10 -64q-23 -146 -122.5 -235.5t-239.5 -89.5q-133 0 -219.5 83.5t-86.5 212.5q0 105 57.5 198t154.5 149t205 56q75 0 131.5 -28.5t115.5 -95.5l-108 -89q-41 50 -76.5 69t-84.5 19q-104 0 -181.5 -78t-77.5 -184q0 -82 53 -134.5t136 -52.5t141 55
q34 32 54 86h-182zM525 871q29 0 47.5 -18t18.5 -46q0 -34 -27.5 -61t-62.5 -27q-29 0 -48 18.5t-19 46.5q0 34 27.5 60.5t63.5 26.5z" />
    <glyph glyph-name="gdotaccent" unicode="&#x121;" horiz-adv-x="543" 
d="M364 -9l6 34q-65 -41 -124 -41q-83 0 -137.5 56.5t-54.5 142.5q0 109 82 192.5t189 83.5q57 0 107 -41l4 25h128l-72 -452q-16 -107 -94 -173.5t-185 -66.5q-105 0 -168 68q-12 13 -38 50l99 82l9 -13l7 -10q41 -61 109 -61q54 0 89 32.5t44 91.5zM313 344
q-54 0 -91.5 -43t-37.5 -106q0 -44 25 -70t66 -26q55 0 92 43t37 107q0 44 -24.5 69.5t-66.5 25.5zM365 671q29 0 47.5 -18t18.5 -46q0 -35 -27.5 -61.5t-63.5 -26.5q-29 0 -47.5 18t-18.5 47q0 34 27.5 60.5t63.5 26.5z" />
    <glyph glyph-name="Gcommaaccent" unicode="&#x122;" horiz-adv-x="728" 
d="M436 373h320l-10 -64q-23 -146 -122.5 -235.5t-239.5 -89.5q-133 0 -219.5 83.5t-86.5 212.5q0 105 57.5 198t154.5 149t205 56q75 0 131.5 -28.5t115.5 -95.5l-108 -89q-41 50 -76.5 69t-84.5 19q-104 0 -181.5 -78t-77.5 -184q0 -82 53 -134.5t136 -52.5t141 55
q34 32 54 86h-182zM331 -19l115 -36l-116 -192l-91 29z" />
    <glyph glyph-name="gcommaaccent" unicode="&#x123;" horiz-adv-x="543" 
d="M364 -9l6 34q-65 -41 -124 -41q-83 0 -137.5 56.5t-54.5 142.5q0 109 82 192.5t189 83.5q57 0 107 -41l4 25h128l-72 -452q-16 -107 -94 -173.5t-185 -66.5q-105 0 -168 68q-12 13 -38 50l99 82l9 -13l7 -10q41 -61 109 -61q54 0 89 32.5t44 91.5zM313 344
q-54 0 -91.5 -43t-37.5 -106q0 -44 25 -70t66 -26q55 0 92 43t37 107q0 44 -24.5 69.5t-66.5 25.5zM389 478l-115 35l116 192l91 -29z" />
    <glyph glyph-name="Hcircumflex" unicode="&#x124;" horiz-adv-x="652" 
d="M306 667l-43 -268h252l42 268h134l-106 -667h-133l44 275h-252l-44 -275h-133l106 667h133zM348 693l-90 47l170 153h79l121 -153l-105 -47l-74 83z" />
    <glyph glyph-name="hcircumflex" unicode="&#x125;" horiz-adv-x="510" 
d="M284 667l-39 -244q51 36 106 36q68 0 110 -42.5t42 -110.5q0 -29 -5 -67l-38 -239h-128l36 232q5 28 5 51q0 60 -59 60q-50 0 -73 -33q-17 -24 -28 -87l-35 -223h-128l106 667h128zM279 693l-90 47l170 153h79l121 -153l-105 -47l-74 83z" />
    <glyph glyph-name="Hbar" unicode="&#x126;" horiz-adv-x="648" 
d="M546 609l10 58h133l-10 -58h56l-18 -113h-55l-79 -496h-133l44 275h-252l-44 -275h-133l79 496h-56l18 113h55l10 58h133l-9 -58h251zM529 496h-252l-16 -97h252z" />
    <glyph glyph-name="hbar" unicode="&#x127;" horiz-adv-x="506" 
d="M125 497h-56l18 112h55l10 58h128l-9 -58h111l-18 -112h-111l-12 -74q51 36 106 36q68 0 110 -42.5t42 -110.5q0 -29 -5 -67l-38 -239h-128l36 232q5 28 5 51q0 60 -59 60q-50 0 -73 -33q-17 -23 -28 -87l-35 -223h-128z" />
    <glyph glyph-name="Itilde" unicode="&#x128;" horiz-adv-x="267" 
d="M306 667l-106 -667h-133l106 667h133zM328 873l103 -24q-12 -53 -33 -81q-33 -44 -92 -44q-38 0 -75 21q-13 9 -24 9q-5 0 -7 -4.5t-12 -31.5l-100 23q31 125 127 125q33 0 75 -24q14 -8 22 -8q4 0 6.5 5t9.5 34z" />
    <glyph glyph-name="itilde" unicode="&#x129;" horiz-adv-x="229" 
d="M248 443l-70 -443h-128l70 443h128zM277 669l103 -24q-13 -54 -34 -81q-33 -44 -91 -44q-38 0 -75 21q-15 9 -25 9q-5 0 -6 -3q-1 -1 -12 -33l-101 23q33 125 127 125q35 0 75 -24q14 -8 22 -8q5 0 7 5t10 34z" />
    <glyph glyph-name="Imacron" unicode="&#x12a;" horiz-adv-x="267" 
d="M306 667l-106 -667h-133l106 667h133zM106 850h324l-17 -110h-324z" />
    <glyph glyph-name="imacron" unicode="&#x12b;" horiz-adv-x="229" 
d="M249 443l-70 -443h-128l70 443h128zM55 645h324l-17 -110h-324z" />
    <glyph glyph-name="Ibreve" unicode="&#x12c;" horiz-adv-x="267" 
d="M306 667l-106 -667h-133l106 667h133zM113 871l112 9q-2 -22 -3 -25q-1 -6 -1 -15q0 -16 10.5 -26t27.5 -10q27 0 44 27q5 7 18 49l109 -9q-12 -45 -16.5 -56.5t-16.5 -28.5q-58 -88 -155 -88q-57 0 -96 34.5t-39 85.5q0 12 6 53z" />
    <glyph glyph-name="ibreve" unicode="&#x12d;" horiz-adv-x="229" 
d="M249 443l-70 -443h-128l70 443h128zM62 667l112 9q-2 -23 -3 -26q-1 -6 -1 -16q0 -16 10.5 -26t27.5 -10q27 0 44 27q4 7 18 51l109 -9q-12 -45 -16.5 -57t-15.5 -28q-58 -88 -156 -88q-57 0 -96 34.5t-39 85.5q0 12 6 53z" />
    <glyph glyph-name="Iogonek" unicode="&#x12e;" horiz-adv-x="267" 
d="M201 0l-5 -5q-37 -37 -37 -55q0 -6 9 -6q16 0 45 12l23 -93q-68 -23 -98 -23q-47 0 -75.5 23.5t-28.5 61.5q0 39 39 85h-5l105 667h133z" />
    <glyph glyph-name="iogonek" unicode="&#x12f;" horiz-adv-x="229" 
d="M179 0l-5 -6q-37 -37 -37 -55q0 -6 9 -6q16 0 45 12l23 -93q-68 -23 -98 -23q-47 0 -75.5 23.5t-28.5 61.5q0 39 39 86l70 443h128zM221 671q29 0 48 -18t19 -46q0 -35 -27.5 -61.5t-63.5 -26.5q-29 0 -48 18t-19 46q0 35 27.5 61.5t63.5 26.5z" />
    <glyph glyph-name="Idotaccent" unicode="&#x130;" horiz-adv-x="267" 
d="M306 667l-106 -667h-133l106 667h133zM272 871q28 0 47 -18.5t19 -45.5q0 -34 -27.5 -61t-62.5 -27q-29 0 -48 18.5t-19 46.5q0 34 27.5 60.5t63.5 26.5z" />
    <glyph glyph-name="dotlessi" unicode="&#x131;" horiz-adv-x="229" 
d="M249 443l-70 -443h-128l70 443h128z" />
    <glyph glyph-name="IJ" unicode="&#x132;" horiz-adv-x="691" 
d="M306 667l-106 -667h-133l106 667h133zM729 667l-72 -459q-15 -88 -52 -140q-62 -84 -169 -84q-50 0 -90 21t-80 70l97 96q47 -62 89 -62q56 0 72 99l72 459h133z" />
    <glyph glyph-name="ij" unicode="&#x133;" horiz-adv-x="463" 
d="M221 671q29 0 48 -18t19 -46q0 -35 -27.5 -61.5t-64.5 -26.5q-29 0 -47.5 18.5t-18.5 46.5q0 34 27.5 60.5t63.5 26.5zM249 443l-70 -443h-128l70 443h128zM483 443l-84 -532q-12 -74 -52 -114.5t-102 -40.5q-30 0 -69 13l18 119q34 -13 52 -13q10 0 15.5 8.5t9.5 30.5
l84 529h128zM455 671q29 0 48 -18t19 -46q0 -35 -27.5 -61.5t-63.5 -26.5q-29 0 -48 18t-19 46q0 35 27.5 61.5t63.5 26.5z" />
    <glyph glyph-name="Jcircumflex" unicode="&#x134;" horiz-adv-x="427" 
d="M465 667l-72 -459q-15 -88 -52 -140q-62 -84 -169 -84q-51 0 -90.5 21t-79.5 70l97 96q47 -62 88 -62q57 0 73 99l72 459h133zM280 693l-90 47l170 153h79l121 -153l-105 -47l-74 83z" />
    <glyph glyph-name="jcircumflex" unicode="&#x135;" horiz-adv-x="237" 
d="M256 443l-84 -532q-11 -74 -51 -114.5t-102 -40.5q-31 0 -70 13l19 119q34 -13 51 -13q20 0 25 39l84 529h128zM275 489l-74 85l-101 -85l-90 46l169 153h79l121 -153z" />
    <glyph glyph-name="Kcommaaccent" unicode="&#x136;" horiz-adv-x="604" 
d="M408 384l196 -384h-157l-145 287l-66 -61l-36 -226h-133l106 667h133l-41 -260l282 260h169zM281 -19l115 -36l-116 -192l-91 29z" />
    <glyph glyph-name="kcommaaccent" unicode="&#x137;" horiz-adv-x="491" 
d="M340 256l162 -256h-159l-105 170l-38 -32l-22 -138h-128l106 667h128l-58 -365l166 141h171zM211 -19l115 -36l-116 -192l-91 29z" />
    <glyph glyph-name="kgreenlandic" unicode="&#x138;" horiz-adv-x="491" 
d="M340 256l162 -256h-159l-105 170l-38 -32l-22 -138h-128l70 443h128l-22 -141l166 141h171z" />
    <glyph glyph-name="Lacute" unicode="&#x139;" horiz-adv-x="437" 
d="M173 667h133l-86 -543h239l-19 -124h-373zM442 849l-188 -157l-79 47l157 172z" />
    <glyph glyph-name="lacute" unicode="&#x13a;" horiz-adv-x="230" 
d="M424 857l-188 -158l-79 47l157 172zM179 0h-128l106 667h128z" />
    <glyph glyph-name="Lcommaaccent" unicode="&#x13b;" horiz-adv-x="440" 
d="M173 667h133l-86 -543h239l-19 -124h-373zM228 -19l114 -36l-116 -192l-91 29z" />
    <glyph glyph-name="lcommaaccent" unicode="&#x13c;" horiz-adv-x="230" 
d="M179 0h-128l106 667h128zM67 -19l115 -36l-116 -192l-91 29z" />
    <glyph glyph-name="Lcaron" unicode="&#x13d;" horiz-adv-x="440" 
d="M173 667h133l-86 -543h239l-19 -124h-373zM421 698l115 -35l-116 -192l-91 28z" />
    <glyph glyph-name="lcaron" unicode="&#x13e;" horiz-adv-x="371" 
d="M179 0h-128l106 667h128zM381 706l115 -36l-117 -192l-91 29z" />
    <glyph glyph-name="Ldot" unicode="&#x13f;" horiz-adv-x="440" 
d="M173 667h133l-86 -543h239l-19 -124h-373zM410 409q29 0 47.5 -18t18.5 -46q0 -34 -27.5 -61t-62.5 -27q-29 0 -48 18t-19 46q0 35 27.5 61.5t63.5 26.5z" />
    <glyph glyph-name="ldot" unicode="&#x140;" horiz-adv-x="382" 
d="M371 409q29 0 48 -18t19 -46q0 -35 -27.5 -61.5t-63.5 -26.5q-29 0 -48 18t-19 46q0 35 27.5 61.5t63.5 26.5zM179 0h-128l106 667h128z" />
    <glyph glyph-name="Lslash" unicode="&#x141;" horiz-adv-x="453" 
d="M285 452l116 66l-21 -132l-116 -66l-31 -196h239l-19 -124h-373l38 237l-71 -40l21 132l70 40l48 298h133z" />
    <glyph glyph-name="lslash" unicode="&#x142;" horiz-adv-x="273" 
d="M111 245l-66 -39l21 133l67 39l45 289h128l-32 -207l66 39l-21 -133l-66 -39l-52 -327h-128z" />
    <glyph glyph-name="Nacute" unicode="&#x143;" horiz-adv-x="708" 
d="M67 0l106 667h112l259 -434l69 434h133l-105 -667h-113l-259 434l-69 -434h-133zM673 849l-188 -157l-79 47l157 172z" />
    <glyph glyph-name="nacute" unicode="&#x144;" horiz-adv-x="510" 
d="M536 645l-188 -158l-79 48l157 172zM248 443l-3 -21q51 37 106 37q68 0 110 -42.5t42 -110.5q0 -29 -5 -67l-38 -239h-128l36 232q5 28 5 51q0 61 -59 61q-50 0 -73 -33q-18 -26 -28 -88l-35 -223h-128l70 443h128z" />
    <glyph glyph-name="Ncommaaccent" unicode="&#x145;" horiz-adv-x="708" 
d="M67 0l106 667h112l259 -434l69 434h133l-105 -667h-113l-259 434l-69 -434h-133zM322 -19l115 -36l-117 -192l-91 29z" />
    <glyph glyph-name="ncommaaccent" unicode="&#x146;" horiz-adv-x="510" 
d="M248 443l-3 -21q51 37 106 37q68 0 110 -42.5t42 -110.5q0 -29 -5 -67l-38 -239h-128l36 232q5 28 5 51q0 61 -59 61q-50 0 -73 -33q-18 -26 -28 -88l-35 -223h-128l70 443h128zM223 -19l115 -36l-117 -192l-91 29z" />
    <glyph glyph-name="Ncaron" unicode="&#x147;" horiz-adv-x="708" 
d="M67 0l106 667h112l259 -434l69 434h133l-105 -667h-113l-259 434l-69 -434h-133zM425 899l75 -83l100 83l90 -47l-169 -153h-79l-121 153z" />
    <glyph glyph-name="ncaron" unicode="&#x148;" horiz-adv-x="510" 
d="M248 443l-3 -21q51 37 106 37q68 0 110 -42.5t42 -110.5q0 -29 -5 -67l-38 -239h-128l36 232q5 28 5 51q0 61 -59 61q-50 0 -73 -33q-18 -26 -28 -88l-35 -223h-128l70 443h128zM458 699l89 -46l-169 -153h-78l-121 153l104 46l74 -85z" />
    <glyph glyph-name="napostrophe" unicode="&#x149;" horiz-adv-x="609" 
d="M196 687l108 -40l-163 -263l-87 36zM348 443l-3 -21q49 37 106 37q68 0 110 -42.5t42 -110.5q0 -32 -6 -67l-38 -239h-128l37 232q5 28 5 51q0 61 -59 61q-49 0 -74 -33q-16 -24 -27 -88l-35 -223h-128l70 443h128z" />
    <glyph glyph-name="Eng" unicode="&#x14a;" horiz-adv-x="708" 
d="M746 667l-105 -667q-13 -74 -52.5 -113.5t-100.5 -39.5q-34 0 -70 12l19 120q33 -13 51 -13q20 0 25 38l3 16l-247 414l-69 -434h-133l106 667h112l259 -434l69 434h133z" />
    <glyph glyph-name="eng" unicode="&#x14b;" horiz-adv-x="510" 
d="M248 443l-3 -21q51 37 106 37q65 0 108.5 -41.5t43.5 -103.5q0 -32 -6 -75q0 -2 -1.5 -14t-2.5 -21q-27 -236 -69 -299q-19 -27 -50.5 -42.5t-66.5 -15.5t-70 13l19 119q32 -13 51 -13q20 0 25 37l32 203l4 26q5 28 5 51q0 61 -59 61q-50 0 -73 -33q-18 -26 -28 -88
l-35 -223h-128l70 443h128z" />
    <glyph glyph-name="Omacron" unicode="&#x14c;" horiz-adv-x="762" 
d="M493 683q126 0 212 -85.5t86 -210.5q0 -158 -126.5 -280.5t-289.5 -122.5q-126 0 -211.5 85t-85.5 211q0 104 58 197.5t154 149.5t203 56zM471 558q-102 0 -180 -79t-78 -183q0 -79 53 -133t130 -54q103 0 181 78.5t78 182.5q0 81 -52.5 134.5t-131.5 53.5zM354 850h324
l-17 -110h-324z" />
    <glyph glyph-name="omacron" unicode="&#x14d;" horiz-adv-x="520" 
d="M336 459q87 0 144 -56.5t57 -142.5q0 -111 -83.5 -193.5t-196.5 -82.5q-89 0 -146 56t-57 145q0 110 84 192t198 82zM314 343q-55 0 -92.5 -42.5t-37.5 -104.5q0 -44 25 -70t67 -26q56 0 93.5 42.5t37.5 106.5q0 43 -25 68.5t-68 25.5zM200 645h324l-17 -110h-324z" />
    <glyph glyph-name="Obreve" unicode="&#x14e;" horiz-adv-x="762" 
d="M493 683q126 0 212 -85.5t86 -210.5q0 -158 -126.5 -280.5t-289.5 -122.5q-126 0 -211.5 85t-85.5 211q0 104 58 197.5t154 149.5t203 56zM471 558q-102 0 -180 -79t-78 -183q0 -79 53 -133t130 -54q103 0 181 78.5t78 182.5q0 81 -52.5 134.5t-131.5 53.5zM361 871
l112 9q-2 -22 -3 -25q-1 -6 -1 -15q0 -16 10.5 -26t27.5 -10q27 0 44 27q5 7 18 49l109 -9q-12 -45 -16.5 -56.5t-16.5 -28.5q-58 -88 -155 -88q-57 0 -96 34.5t-39 85.5q0 12 6 53z" />
    <glyph glyph-name="obreve" unicode="&#x14f;" horiz-adv-x="520" 
d="M336 459q87 0 144 -56.5t57 -142.5q0 -111 -83.5 -193.5t-196.5 -82.5q-89 0 -146 56t-57 145q0 110 84 192t198 82zM314 343q-55 0 -92.5 -42.5t-37.5 -104.5q0 -44 25 -70t67 -26q56 0 93.5 42.5t37.5 106.5q0 43 -25 68.5t-68 25.5zM207 667l112 9q-2 -24 -2 -26
q-1 -6 -1 -16q0 -16 10 -26t27 -10q27 0 44 27q5 7 18 51l109 -9q-12 -45 -16.5 -57t-15.5 -28q-58 -88 -155 -88q-57 0 -96 34.5t-39 85.5q0 14 5 53z" />
    <glyph glyph-name="Ohungarumlaut" unicode="&#x150;" horiz-adv-x="762" 
d="M611 852l51 58l96 -60l-187 -157l-63 41l102 117l-188 -158l-66 46l157 171zM493 683q126 0 212 -85.5t86 -210.5q0 -158 -126.5 -280.5t-289.5 -122.5q-126 0 -211.5 85t-85.5 211q0 104 58 197.5t154 149.5t203 56zM471 558q-102 0 -180 -79t-78 -183q0 -79 53 -133
t130 -54q103 0 181 78.5t78 182.5q0 81 -52.5 134.5t-131.5 53.5z" />
    <glyph glyph-name="ohungarumlaut" unicode="&#x151;" horiz-adv-x="530" 
d="M463 646l51 59l96 -61l-187 -157l-63 42l102 116l-188 -158l-65 47l156 171zM336 459q87 0 144 -56.5t57 -142.5q0 -111 -83.5 -193.5t-196.5 -82.5q-89 0 -146 56t-57 145q0 110 84 192t198 82zM314 343q-55 0 -92.5 -42.5t-37.5 -104.5q0 -44 25 -70t67 -26
q56 0 93.5 42.5t37.5 106.5q0 43 -25 68.5t-68 25.5z" />
    <glyph glyph-name="OE" unicode="&#x152;" horiz-adv-x="1021" 
d="M990 0h-391l10 61q-110 -77 -227 -77q-131 0 -218 84.5t-87 211.5q0 158 127 280.5t291 122.5q115 0 200 -77l10 61h381l-19 -123h-249l-23 -145h221l-19 -123h-222l-24 -152h259zM470 558q-101 0 -179 -79.5t-78 -182.5q0 -79 52.5 -133t129.5 -54q103 0 181 78.5
t78 181.5q0 82 -52 135.5t-132 53.5z" />
    <glyph glyph-name="oe" unicode="&#x153;" horiz-adv-x="841" 
d="M725 154l105 -45q-99 -125 -232 -125q-100 0 -156 73q-86 -73 -183 -73q-91 0 -148 55.5t-57 144.5q0 110 84 192.5t196 82.5q103 0 160 -73q82 73 174 73q86 0 137.5 -54.5t51.5 -145.5q0 -29 -10 -82h-318q12 -79 88 -79q64 0 108 56zM543 266h191q-13 81 -82 81
q-74 0 -109 -81zM312 343q-53 0 -90.5 -43t-37.5 -104q0 -44 25 -70t67 -26q55 0 93 43t38 106q0 44 -25.5 69t-69.5 25z" />
    <glyph glyph-name="Racute" unicode="&#x154;" horiz-adv-x="561" 
d="M399 0l-97 243h-2h-3l-33 -1h-26l-38 -242h-133l106 667h158q102 0 152 -32q77 -47 77 -149q0 -62 -33 -117.5t-91 -89.5l113 -279h-150zM257 363h34q74 0 106 29q32 30 32 78q0 40 -25.5 57.5t-83.5 17.5h-34zM562 849l-188 -157l-79 47l157 172z" />
    <glyph glyph-name="racute" unicode="&#x155;" horiz-adv-x="311" 
d="M419 645l-188 -158l-78 48l157 172zM248 443l-3 -24q42 27 84 27q14 0 44 -3l-18 -114q-24 2 -43 2q-47 0 -68.5 -25t-31.5 -92l-34 -214h-128l70 443h128z" />
    <glyph glyph-name="Rcommaaccent" unicode="&#x156;" horiz-adv-x="561" 
d="M399 0l-97 243h-2h-3l-33 -1h-26l-38 -242h-133l106 667h158q102 0 152 -32q77 -47 77 -149q0 -62 -33 -117.5t-91 -89.5l113 -279h-150zM257 363h34q74 0 106 29q32 30 32 78q0 40 -25.5 57.5t-83.5 17.5h-34zM251 -19l115 -36l-116 -192l-91 29z" />
    <glyph glyph-name="rcommaaccent" unicode="&#x157;" horiz-adv-x="311" 
d="M249 443l-4 -24q42 27 85 27q14 0 43 -3l-18 -114q-24 2 -43 2q-46 0 -67.5 -25t-32.5 -92l-33 -214h-129l71 443h128zM60 -19l115 -36l-116 -192l-91 29z" />
    <glyph glyph-name="Rcaron" unicode="&#x158;" horiz-adv-x="561" 
d="M399 0l-97 243h-2h-3l-33 -1h-26l-38 -242h-133l106 667h158q102 0 152 -32q77 -47 77 -149q0 -62 -33 -117.5t-91 -89.5l113 -279h-150zM257 363h34q74 0 106 29q32 30 32 78q0 40 -25.5 57.5t-83.5 17.5h-34zM317 899l74 -83l100 83l90 -47l-169 -153h-79l-121 153z
" />
    <glyph glyph-name="rcaron" unicode="&#x159;" horiz-adv-x="311" 
d="M248 443l-3 -24q42 27 84 27q14 0 44 -3l-18 -114q-24 2 -43 2q-47 0 -68.5 -25t-31.5 -92l-34 -214h-128l70 443h128zM375 699l89 -46l-169 -153h-78l-121 153l104 46l74 -85z" />
    <glyph glyph-name="Sacute" unicode="&#x15a;" horiz-adv-x="525" 
d="M570 551l-120 -69q-23 47 -41 62t-52 15q-35 0 -63.5 -25.5t-28.5 -56.5q0 -35 62 -61l58 -23q139 -56 139 -162q0 -98 -81 -172.5t-188 -74.5q-53 0 -97 21.5t-67 58.5q-29 46 -34 125l136 35q5 -59 15 -76q20 -40 69 -40q43 0 77 31.5t34 71.5q0 20 -18 36.5t-60 33.5
l-55 22q-124 50 -124 153q0 92 74.5 159.5t176.5 67.5q68 0 112 -31t76 -101zM579 849l-188 -157l-78 47l156 172z" />
    <glyph glyph-name="sacute" unicode="&#x15b;" horiz-adv-x="389" 
d="M466 645l-187 -158l-79 48l157 172zM36 120l114 40q12 -34 26 -48.5t37 -14.5q20 0 34 12t14 30q0 9 -8 16t-32 17l-55 23q-74 32 -74 100q0 67 55 115.5t131 48.5q103 0 143 -103l-109 -49q-21 40 -53 40q-18 0 -30 -9.5t-12 -23.5q0 -8 8 -14t31 -16l47 -20
q88 -35 88 -104q0 -70 -59 -123t-138 -53t-121 50q-25 32 -37 86z" />
    <glyph glyph-name="Scircumflex" unicode="&#x15c;" horiz-adv-x="525" 
d="M570 551l-120 -69q-23 47 -41 62t-52 15q-35 0 -63.5 -25.5t-28.5 -56.5q0 -35 62 -61l58 -23q139 -56 139 -162q0 -98 -81 -172.5t-188 -74.5q-53 0 -97 21.5t-67 58.5q-29 46 -34 125l136 35q5 -59 15 -76q20 -40 69 -40q43 0 77 31.5t34 71.5q0 20 -18 36.5t-60 33.5
l-55 22q-124 50 -124 153q0 92 74.5 159.5t176.5 67.5q68 0 112 -31t76 -101zM282 693l-90 47l169 153h79l121 -153l-104 -47l-75 83z" />
    <glyph glyph-name="scircumflex" unicode="&#x15d;" horiz-adv-x="396" 
d="M37 120l114 40q12 -34 26.5 -48.5t36.5 -14.5q20 0 34 12t14 30q0 10 -8 16t-32 17l-55 23q-74 32 -74 100q0 67 55 115.5t131 48.5q104 0 143 -103l-109 -49q-21 40 -53 40q-19 0 -30.5 -9.5t-11.5 -24.5q0 -13 39 -29l47 -20q88 -35 88 -104q0 -70 -59 -123t-138 -53
q-81 0 -121 50q-25 32 -37 86zM363 489l-74 85l-101 -85l-89 46l169 153h79l120 -153z" />
    <glyph glyph-name="Scedilla" unicode="&#x15e;" horiz-adv-x="525" 
d="M570 551l-120 -69q-23 47 -41 62t-52 15q-35 0 -63.5 -25.5t-28.5 -56.5q0 -35 62 -61l58 -23q139 -56 139 -162q0 -98 -81 -172.5t-188 -74.5q-53 0 -97 21.5t-67 58.5q-29 46 -34 125l136 35q5 -59 15 -76q20 -40 69 -40q43 0 77 31.5t34 71.5q0 20 -18 36.5t-60 33.5
l-55 22q-124 50 -124 153q0 92 74.5 159.5t176.5 67.5q68 0 112 -31t76 -101zM363 -67l-160 -164l-85 45l137 167z" />
    <glyph glyph-name="scedilla" unicode="&#x15f;" horiz-adv-x="389" 
d="M36 120l114 40q12 -34 26 -48.5t37 -14.5q20 0 34 12t14 30q0 9 -8 16t-32 17l-55 23q-74 32 -74 100q0 67 55 115.5t131 48.5q103 0 143 -103l-109 -49q-21 40 -53 40q-18 0 -30 -9.5t-12 -23.5q0 -8 8 -14t31 -16l47 -20q88 -35 88 -104q0 -70 -59 -123t-138 -53
t-121 50q-25 32 -37 86zM293 -67l-160 -164l-86 45l137 167z" />
    <glyph glyph-name="Scaron" unicode="&#x160;" horiz-adv-x="525" 
d="M570 551l-120 -69q-23 47 -41 62t-52 15q-35 0 -63.5 -25.5t-28.5 -56.5q0 -35 62 -61l58 -23q139 -56 139 -162q0 -98 -81 -172.5t-188 -74.5q-53 0 -97 21.5t-67 58.5q-29 46 -34 125l136 35q5 -59 15 -76q20 -40 69 -40q43 0 77 31.5t34 71.5q0 20 -18 36.5t-60 33.5
l-55 22q-124 50 -124 153q0 92 74.5 159.5t176.5 67.5q68 0 112 -31t76 -101zM314 899l75 -83l100 83l90 -47l-169 -153h-79l-121 153z" />
    <glyph glyph-name="scaron" unicode="&#x161;" horiz-adv-x="396" 
d="M37 120l114 40q12 -34 26.5 -48.5t36.5 -14.5q20 0 34 12t14 30q0 10 -8 16t-32 17l-55 23q-74 32 -74 100q0 67 55 115.5t131 48.5q104 0 143 -103l-109 -49q-21 40 -53 40q-19 0 -30.5 -9.5t-11.5 -24.5q0 -13 39 -29l47 -20q88 -35 88 -104q0 -70 -59 -123t-138 -53
q-81 0 -121 50q-25 32 -37 86zM396 699l90 -46l-169 -153h-79l-121 153l104 46l74 -85z" />
    <glyph glyph-name="Tcommaaccent" unicode="&#x162;" horiz-adv-x="441" 
d="M553 667l-20 -123h-160l-86 -544h-133l86 544h-160l20 123h453zM178 -19l115 -36l-116 -192l-91 29z" />
    <glyph glyph-name="tcommaaccent" unicode="&#x163;" horiz-adv-x="274" 
d="M234 328l-29 -180q-1 -6 -1 -19q0 -19 14 -19q17 0 56 13l-19 -119q-39 -13 -75 -13q-106 0 -106 115q0 20 3 40l29 182h-45l18 115h45l14 92l136 50l-22 -142h66l-18 -115h-66zM99 -19l115 -36l-116 -192l-91 29z" />
    <glyph glyph-name="Tcaron" unicode="&#x164;" horiz-adv-x="441" 
d="M553 667l-20 -123h-160l-86 -544h-133l86 544h-160l20 123h453zM275 899l75 -83l100 83l90 -47l-169 -153h-79l-121 153z" />
    <glyph glyph-name="tcaron" unicode="&#x165;" horiz-adv-x="374" 
d="M234 328l-28 -180q-2 -12 -2 -19q0 -19 15 -19q16 0 55 13l-19 -119q-38 -13 -75 -13q-106 0 -106 115q0 20 3 40l29 182h-45l18 115h45l15 92l136 50l-23 -142h67l-18 -115h-67zM384 706l115 -36l-116 -192l-92 29z" />
    <glyph glyph-name="Tbar" unicode="&#x166;" horiz-adv-x="441" 
d="M206 327h-99l19 116h98l16 101h-160l20 123h453l-20 -123h-160l-16 -101h99l-19 -116h-98l-52 -327h-133z" />
    <glyph glyph-name="tbar" unicode="&#x167;" horiz-adv-x="274" 
d="M125 443l14 92l136 50l-22 -142h66l-16 -104h-67l-4 -28h66l-16 -104h-67l-9 -59q-2 -12 -2 -19q0 -19 15 -19q16 0 55 13l-18 -119q-39 -13 -76 -13q-106 0 -106 115q0 20 3 40l10 61h-45l16 104h46l4 28h-45l16 104h46z" />
    <glyph glyph-name="Utilde" unicode="&#x168;" horiz-adv-x="642" 
d="M306 667l-65 -409q-6 -46 -6 -62q0 -38 28.5 -62.5t74.5 -24.5q34 0 66.5 15t49.5 38q17 25 29 96l65 409h133l-68 -427q-13 -84 -51 -135q-41 -56 -107 -88.5t-137 -32.5q-95 0 -156.5 54.5t-61.5 137.5q0 27 5 64l68 427h133zM516 873l103 -24q-14 -55 -33 -81
q-33 -44 -92 -44q-38 0 -75 21q-15 9 -24 9q-5 0 -7 -4.5t-12 -31.5l-101 23q33 125 127 125q34 0 75 -24q16 -8 23 -8q4 0 6 5t10 34z" />
    <glyph glyph-name="utilde" unicode="&#x169;" horiz-adv-x="510" 
d="M332 0l3 21q-51 -37 -106 -37q-68 0 -110 42.5t-42 110.5q0 29 5 67l38 239h128l-36 -232q-5 -28 -5 -51q0 -60 59 -60q50 0 73 33q17 23 28 87l35 223h128l-70 -443h-128zM417 669l103 -24q-12 -53 -33 -81q-33 -44 -92 -44q-38 0 -75 21q-14 9 -24 9q-4 0 -6 -3
q-1 -1 -13 -33l-100 23q31 125 127 125q33 0 75 -24q14 -8 22 -8q5 0 7 5t9 34z" />
    <glyph glyph-name="Umacron" unicode="&#x16a;" horiz-adv-x="642" 
d="M306 667l-65 -409q-6 -46 -6 -62q0 -38 28.5 -62.5t74.5 -24.5q34 0 66.5 15t49.5 38q17 25 29 96l65 409h133l-68 -427q-13 -84 -51 -135q-41 -56 -107 -88.5t-137 -32.5q-95 0 -156.5 54.5t-61.5 137.5q0 27 5 64l68 427h133zM294 850h324l-18 -110h-324z" />
    <glyph glyph-name="umacron" unicode="&#x16b;" horiz-adv-x="510" 
d="M332 0l3 21q-51 -37 -106 -37q-68 0 -110 42.5t-42 110.5q0 29 5 67l38 239h128l-36 -232q-5 -28 -5 -51q0 -60 59 -60q50 0 73 33q17 23 28 87l35 223h128l-70 -443h-128zM195 645h324l-17 -110h-324z" />
    <glyph glyph-name="Ubreve" unicode="&#x16c;" horiz-adv-x="642" 
d="M306 667l-65 -409q-6 -46 -6 -62q0 -38 28.5 -62.5t74.5 -24.5q34 0 66.5 15t49.5 38q17 25 29 96l65 409h133l-68 -427q-13 -84 -51 -135q-41 -56 -107 -88.5t-137 -32.5q-95 0 -156.5 54.5t-61.5 137.5q0 27 5 64l68 427h133zM301 871l112 9q-2 -22 -3 -25
q-1 -6 -1 -15q0 -16 10.5 -26t27.5 -10q27 0 44 27q4 6 17 49l110 -9q-13 -45 -17.5 -57t-15.5 -28q-58 -88 -155 -88q-57 0 -96 34.5t-39 85.5q0 14 6 53z" />
    <glyph glyph-name="ubreve" unicode="&#x16d;" horiz-adv-x="510" 
d="M332 0l3 21q-51 -37 -106 -37q-68 0 -110 42.5t-42 110.5q0 29 5 67l38 239h128l-36 -232q-5 -28 -5 -51q0 -60 59 -60q50 0 73 33q17 23 28 87l35 223h128l-70 -443h-128zM203 667l112 9q-2 -21 -3 -26q-1 -7 -1 -16q0 -16 10.5 -26t26.5 -10q27 0 45 27q4 7 17 51
l110 -9q-17 -62 -33 -85q-58 -88 -155 -88q-57 0 -96 34.5t-39 85.5q0 14 6 53z" />
    <glyph glyph-name="Uring" unicode="&#x16e;" horiz-adv-x="642" 
d="M465 909q43 0 71 -27t28 -68q0 -52 -41 -91.5t-95 -39.5q-42 0 -69.5 27.5t-27.5 69.5q0 50 41 89.5t93 39.5zM456 848q-24 0 -42.5 -18.5t-18.5 -41.5q0 -19 12.5 -31.5t31.5 -12.5q24 0 42.5 18t18.5 42q0 19 -12.5 31.5t-31.5 12.5zM306 667l-65 -409q-6 -46 -6 -62
q0 -38 28.5 -62.5t74.5 -24.5q34 0 66.5 15t49.5 38q17 25 29 96l65 409h133l-68 -427q-13 -84 -51 -135q-41 -56 -107 -88.5t-137 -32.5q-95 0 -156.5 54.5t-61.5 137.5q0 27 5 64l68 427h133z" />
    <glyph glyph-name="uring" unicode="&#x16f;" horiz-adv-x="510" 
d="M332 0l3 21q-51 -37 -106 -37q-68 0 -110 42.5t-42 110.5q0 29 5 67l38 239h128l-36 -232q-5 -28 -5 -51q0 -60 59 -60q50 0 73 33q17 23 28 87l35 223h128l-70 -443h-128zM366 704q43 0 71 -27t28 -68q0 -52 -41 -91.5t-95 -39.5q-42 0 -69.5 27.5t-27.5 69.5
q0 50 41 89.5t93 39.5zM357 643q-24 0 -42.5 -18.5t-18.5 -41.5q0 -19 12.5 -31.5t31.5 -12.5q24 0 42.5 18t18.5 42q0 19 -12.5 31.5t-31.5 12.5z" />
    <glyph glyph-name="Uhungarumlaut" unicode="&#x170;" horiz-adv-x="644" 
d="M544 852l51 58l96 -60l-187 -157l-63 41l102 117l-188 -158l-65 46l156 171zM306 667l-65 -409q-6 -46 -6 -62q0 -38 28.5 -62.5t74.5 -24.5q34 0 66.5 15t49.5 38q17 25 29 96l65 409h133l-68 -427q-13 -84 -51 -135q-41 -56 -107 -88.5t-137 -32.5q-95 0 -156.5 54.5
t-61.5 137.5q0 27 5 64l68 427h133z" />
    <glyph glyph-name="uhungarumlaut" unicode="&#x171;" horiz-adv-x="510" 
d="M442 646l51 59l96 -61l-188 -157l-62 42l102 116l-189 -158l-65 47l156 171zM332 0l3 21q-51 -37 -106 -37q-68 0 -110 42.5t-42 110.5q0 29 5 67l38 239h128l-36 -232q-5 -28 -5 -51q0 -60 59 -60q50 0 73 33q17 23 28 87l35 223h128l-70 -443h-128z" />
    <glyph glyph-name="Uogonek" unicode="&#x172;" horiz-adv-x="642" 
d="M681 667l-68 -427q-12 -95 -70.5 -158.5t-155.5 -88.5q-35 -38 -35 -53q0 -6 9 -6q16 0 45 12l24 -93q-69 -23 -99 -23q-47 0 -75.5 23.5t-28.5 61.5q0 34 32 77q-73 16 -116 66t-43 118q0 27 5 64l68 427h133l-65 -409q-6 -46 -6 -62q0 -38 28.5 -62.5t74.5 -24.5
q34 0 66.5 15t49.5 38q17 25 29 96l65 409h133z" />
    <glyph glyph-name="uogonek" unicode="&#x173;" horiz-adv-x="510" 
d="M460 0l-5 -5q-37 -39 -37 -56q0 -6 9 -6q16 0 45 12l24 -93q-70 -23 -99 -23q-47 0 -75.5 23.5t-28.5 61.5q0 39 39 86l3 21q-51 -37 -106 -37q-68 0 -110 42.5t-42 110.5q0 29 5 67l38 239h128l-36 -232q-5 -28 -5 -51q0 -60 59 -60q50 0 73 33q17 22 28 87l35 223h128z
" />
    <glyph glyph-name="Wcircumflex" unicode="&#x174;" horiz-adv-x="877" 
d="M238 667l55 -427l195 427h111l60 -427l191 427h138l-305 -667h-119l-60 417l-192 -417h-119l-94 667h139zM460 693l-90 47l170 153h79l121 -153l-105 -47l-74 83z" />
    <glyph glyph-name="wcircumflex" unicode="&#x175;" horiz-adv-x="658" 
d="M58 443h136l39 -234l117 234h98l43 -234l114 234h136l-231 -443h-102l-42 230l-116 -230h-102zM494 489l-74 85l-101 -85l-89 46l169 153h79l120 -153z" />
    <glyph glyph-name="Ycircumflex" unicode="&#x176;" horiz-adv-x="552" 
d="M253 276l-160 391h149l100 -254l181 254h148l-284 -391l-44 -276h-133zM299 693l-90 47l170 153h79l120 -153l-104 -47l-74 83z" />
    <glyph glyph-name="ycircumflex" unicode="&#x177;" horiz-adv-x="474" 
d="M167 22l-109 421h137l66 -265l159 265h137l-409 -677h-135zM403 489l-74 85l-101 -85l-89 46l169 153h79l120 -153z" />
    <glyph glyph-name="Ydieresis" unicode="&#x178;" horiz-adv-x="552" 
d="M253 276l-160 391h149l100 -254l181 254h148l-284 -391l-44 -276h-133zM507 868q28 0 46 -17.5t18 -44.5q0 -33 -26.5 -58.5t-60.5 -25.5q-28 0 -46 17.5t-18 44.5q0 33 26.5 58.5t60.5 25.5zM321 868q28 0 46 -17.5t18 -44.5q0 -33 -26.5 -58.5t-60.5 -25.5
q-28 0 -46 17.5t-18 44.5q0 33 26.5 58.5t60.5 25.5z" />
    <glyph glyph-name="Zacute" unicode="&#x179;" horiz-adv-x="513" 
d="M584 566l-381 -442h317l-19 -124h-491l16 101l385 443h-287l19 123h457zM554 849l-188 -157l-79 47l157 172z" />
    <glyph glyph-name="zacute" unicode="&#x17a;" horiz-adv-x="418" 
d="M476 645l-188 -158l-78 48l157 172zM471 443l-14 -93l-247 -236h218l-18 -114h-392l15 92l247 237h-196l18 114h369z" />
    <glyph glyph-name="Zdotaccent" unicode="&#x17b;" horiz-adv-x="513" 
d="M584 566l-381 -442h317l-19 -124h-491l16 101l385 443h-287l19 123h457zM410 871q29 0 47.5 -18t18.5 -46q0 -35 -27.5 -61.5t-63.5 -26.5q-29 0 -47.5 18.5t-18.5 46.5q0 34 27.5 60.5t63.5 26.5z" />
    <glyph glyph-name="zdotaccent" unicode="&#x17c;" horiz-adv-x="418" 
d="M471 443l-14 -93l-247 -236h218l-18 -114h-392l15 92l247 237h-196l18 114h369zM320 671q29 0 48 -18t19 -46q0 -35 -27.5 -61.5t-64.5 -26.5q-29 0 -47.5 18.5t-18.5 46.5q0 34 27.5 60.5t63.5 26.5z" />
    <glyph glyph-name="Zcaron" unicode="&#x17d;" horiz-adv-x="513" 
d="M584 566l-381 -442h317l-19 -124h-491l16 101l385 443h-287l19 123h457zM327 899l74 -83l101 83l90 -47l-170 -153h-79l-121 153z" />
    <glyph glyph-name="zcaron" unicode="&#x17e;" horiz-adv-x="418" 
d="M470 443l-14 -93l-247 -236h218l-18 -114h-392l15 92l247 237h-196l18 114h369zM411 699l89 -46l-169 -153h-78l-121 153l104 46l74 -85z" />
    <glyph glyph-name="longs" unicode="&#x17f;" horiz-adv-x="248" 
d="M185 0h-128l52 328h-41l18 115h41l12 78q12 74 52.5 114.5t103.5 40.5q33 0 68 -9l-18 -115q-26 9 -41 9q-30 0 -37 -42z" />
    <glyph glyph-name="florin" unicode="&#x192;" horiz-adv-x="493" 
d="M-34 -186l43 118q16 -4 17 -4l9 -4q16 -4 22 -4q24 0 40 46l133 362h-43l42 115h43l30 80q27 74 74 114.5t107 40.5q31 0 78 -15l-44 -118q-36 11 -47 11q-24 0 -41 -45l-24 -68h76l-42 -115h-76l-138 -375q-27 -74 -74 -114t-108 -40q-27 0 -77 15z" />
    <glyph glyph-name="Ohorn" unicode="&#x1a0;" horiz-adv-x="776" 
d="M704 724l106 49q35 -28 47.5 -51t12.5 -59q0 -94 -103 -158q24 -59 24 -119q0 -158 -126.5 -280t-290.5 -122q-125 0 -211 85.5t-86 210.5q0 158 126.5 280.5t290.5 122.5q128 0 215 -90q26 12 36 25t10 33q0 17 -10 31t-41 42zM471 558q-102 0 -180 -79t-78 -183
q0 -79 53 -133t130 -54q103 0 181 78.5t78 182.5q0 81 -52.5 134.5t-131.5 53.5z" />
    <glyph glyph-name="ohorn" unicode="&#x1a1;" horiz-adv-x="569" 
d="M468 500l106 50q34 -28 46.5 -51.5t12.5 -59.5q0 -92 -98 -155q2 -9 2 -24q0 -110 -84 -193t-196 -83q-89 0 -146 56t-57 144q0 111 84 193t197 82q103 0 162 -76q21 17 21 44q0 16 -10 30.5t-40 42.5zM314 343q-55 0 -92.5 -42.5t-37.5 -104.5q0 -44 25 -70t67 -26
q56 0 93.5 42.5t37.5 106.5q0 43 -25 68.5t-68 25.5z" />
    <glyph glyph-name="Uhorn" unicode="&#x1af;" horiz-adv-x="704" 
d="M681 667l-11 -67q32 20 32 51q0 16 -10.5 30.5t-40.5 42.5l107 49q34 -28 46.5 -51t12.5 -59q0 -125 -166 -187l-38 -236q-13 -84 -51 -135q-41 -56 -107 -88.5t-137 -32.5q-95 0 -156.5 54.5t-61.5 137.5q0 27 5 64l68 427h133l-65 -409q-6 -46 -6 -62q0 -38 28.5 -62.5
t74.5 -24.5q34 0 66.5 15t49.5 38q17 25 29 96l65 409h133z" />
    <glyph glyph-name="uhorn" unicode="&#x1b0;" horiz-adv-x="605" 
d="M530 443l-11 -69q35 20 35 53q0 16 -10 30t-40 43l106 49q34 -28 46.5 -51t12.5 -59q0 -103 -119 -165q-15 -9 -50 -23l-40 -251h-128l3 21q-51 -37 -106 -37q-68 0 -110 42.5t-42 110.5q0 29 5 67l38 239h128l-36 -232q-5 -28 -5 -51q0 -60 59 -60q50 0 73 33
q17 23 28 87l35 223h128z" />
    <glyph glyph-name="uni01C4" unicode="&#x1c4;" horiz-adv-x="1128" 
d="M173 667h158q149 0 233 -72.5t84 -202.5q0 -82 -33 -157t-92 -129q-115 -106 -297 -106h-159zM286 543l-66 -419h28q118 0 191.5 69t73.5 181q0 81 -51.5 125t-146.5 44h-29zM1204 566l-380 -442h317l-20 -124h-490l15 101l386 443h-288l20 123h456zM947 899l75 -83
l100 83l90 -47l-169 -153h-79l-121 153z" />
    <glyph glyph-name="uni01C5" unicode="&#x1c5;" horiz-adv-x="1038" 
d="M173 667h158q149 0 233 -72.5t84 -202.5q0 -82 -33 -157t-92 -129q-115 -106 -297 -106h-159zM286 543l-66 -419h28q118 0 191.5 69t73.5 181q0 81 -51.5 125t-146.5 44h-29zM1090 443l-14 -93l-247 -236h218l-18 -114h-392l15 92l247 237h-197l18 114h370zM1031 699
l89 -46l-169 -153h-78l-121 153l104 46l74 -85z" />
    <glyph glyph-name="uni01C6" unicode="&#x1c6;" horiz-adv-x="961" 
d="M493 0h-128l4 25q-61 -41 -121 -41q-85 0 -139.5 56.5t-54.5 142.5q0 110 82 193t190 83q56 0 106 -40l39 248h128zM312 343q-53 0 -90.5 -43t-37.5 -104q0 -44 24.5 -70t66.5 -26q55 0 92 43t37 106q0 44 -24.5 69t-67.5 25zM1014 443l-15 -93l-247 -236h218l-18 -114
h-392l15 92l247 237h-196l18 114h370zM954 699l90 -46l-169 -153h-79l-121 153l104 46l74 -85z" />
    <glyph glyph-name="uni01C7" unicode="&#x1c7;" horiz-adv-x="884" 
d="M173 667h133l-86 -543h239l-19 -124h-373zM922 667l-72 -459q-15 -88 -52 -140q-62 -84 -169 -84q-96 0 -170 91l97 96q46 -62 88 -62q57 0 73 99l72 459h133z" />
    <glyph glyph-name="uni01C8" unicode="&#x1c8;" horiz-adv-x="677" 
d="M173 667h133l-86 -543h239l-19 -124h-373zM697 443l-84 -532q-12 -74 -52 -114.5t-102 -40.5q-30 0 -70 13l19 119q34 -13 52 -13q10 0 15.5 8.5t9.5 30.5l84 529h128zM669 671q29 0 48 -18t19 -46q0 -35 -27.5 -61.5t-63.5 -26.5q-29 0 -48 18t-19 46q0 35 27.5 61.5
t63.5 26.5z" />
    <glyph glyph-name="uni01C9" unicode="&#x1c9;" horiz-adv-x="467" 
d="M179 0h-128l106 667h128zM487 443l-84 -532q-12 -74 -52 -114.5t-102 -40.5q-30 0 -70 13l19 119q34 -13 52 -13q10 0 15.5 8.5t9.5 30.5l84 529h128zM459 671q29 0 48 -18t19 -46q0 -35 -27.5 -61.5t-63.5 -26.5q-29 0 -48 18t-19 46q0 35 27.5 61.5t63.5 26.5z" />
    <glyph glyph-name="uni01CA" unicode="&#x1ca;" horiz-adv-x="1135" 
d="M67 0l106 667h112l259 -434l69 434h133l-105 -667h-113l-259 434l-69 -434h-133zM1173 667l-72 -459q-15 -88 -52 -140q-62 -84 -169 -84q-51 0 -90.5 21t-79.5 70l96 96q46 -62 89 -62q57 0 72 99l73 459h133z" />
    <glyph glyph-name="uni01CB" unicode="&#x1cb;" horiz-adv-x="945" 
d="M67 0l106 667h112l259 -434l69 434h133l-105 -667h-113l-259 434l-69 -434h-133zM964 443l-84 -532q-12 -74 -52 -114.5t-101 -40.5q-31 0 -70 13l19 119q32 -13 51 -13q20 0 25 39l84 529h128zM936 671q29 0 48 -18t19 -46q0 -35 -27.5 -61.5t-63.5 -26.5q-29 0 -48 18
t-19 46q0 35 27.5 61.5t63.5 26.5z" />
    <glyph glyph-name="uni01CC" unicode="&#x1cc;" horiz-adv-x="747" 
d="M248 443l-3 -21q51 37 106 37q68 0 110 -42.5t42 -110.5q0 -29 -5 -67l-38 -239h-128l36 232q5 28 5 51q0 61 -59 61q-50 0 -73 -33q-18 -26 -28 -88l-35 -223h-128l70 443h128zM767 443l-85 -532q-11 -74 -51 -114.5t-102 -40.5q-31 0 -70 13l19 119q34 -13 52 -13
q10 0 15.5 8.5t9.5 30.5l83 529h129zM739 671q29 0 47.5 -18t18.5 -46q0 -34 -27.5 -61t-62.5 -27q-29 0 -48 18t-19 46q0 35 27.5 61.5t63.5 26.5z" />
    <glyph glyph-name="uni01CD" unicode="&#x1cd;" horiz-adv-x="643" 
d="M478 155h-264l-80 -155h-140l354 667h158l143 -667h-141zM453 279l-49 246l-127 -246h176zM377 899l74 -83l100 83l90 -47l-169 -153h-79l-121 153z" />
    <glyph glyph-name="uni01CE" unicode="&#x1ce;" horiz-adv-x="543" 
d="M493 0h-128l4 25q-60 -41 -121 -41q-85 0 -139.5 56.5t-54.5 142.5q0 110 82 193t190 83q57 0 106 -41l4 25h128zM312 344q-54 0 -91 -43t-37 -106q0 -44 24.5 -70t66.5 -26q55 0 92 43t37 107q0 44 -24.5 69.5t-67.5 25.5zM456 699l89 -46l-169 -153h-79l-120 153
l104 46l74 -85z" />
    <glyph glyph-name="uni01CF" unicode="&#x1cf;" horiz-adv-x="267" 
d="M306 667l-106 -667h-133l106 667h133zM188 899l75 -83l100 83l90 -47l-169 -153h-79l-121 153z" />
    <glyph glyph-name="uni01D0" unicode="&#x1d0;" horiz-adv-x="229" 
d="M249 443l-70 -443h-128l70 443h128zM313 699l90 -46l-169 -153h-79l-121 153l104 46l74 -85z" />
    <glyph glyph-name="uni01D1" unicode="&#x1d1;" horiz-adv-x="762" 
d="M493 683q126 0 212 -85.5t86 -210.5q0 -158 -126.5 -280.5t-289.5 -122.5q-126 0 -211.5 85t-85.5 211q0 104 58 197.5t154 149.5t203 56zM471 558q-102 0 -180 -79t-78 -183q0 -79 53 -133t130 -54q103 0 181 78.5t78 182.5q0 81 -52.5 134.5t-131.5 53.5zM436 899
l75 -83l100 83l90 -47l-169 -153h-79l-121 153z" />
    <glyph glyph-name="uni01D2" unicode="&#x1d2;" horiz-adv-x="520" 
d="M336 459q87 0 144 -56.5t57 -142.5q0 -111 -83.5 -193.5t-196.5 -82.5q-89 0 -146 56t-57 145q0 110 84 192t198 82zM314 343q-55 0 -92.5 -42.5t-37.5 -104.5q0 -44 25 -70t67 -26q56 0 93.5 42.5t37.5 106.5q0 43 -25 68.5t-68 25.5zM458 699l90 -46l-169 -153h-79
l-121 153l104 46l74 -85z" />
    <glyph glyph-name="uni01D3" unicode="&#x1d3;" horiz-adv-x="642" 
d="M306 667l-65 -409q-6 -46 -6 -62q0 -38 28.5 -62.5t74.5 -24.5q34 0 66.5 15t49.5 38q17 25 29 96l65 409h133l-68 -427q-13 -84 -51 -135q-41 -56 -107 -88.5t-137 -32.5q-95 0 -156.5 54.5t-61.5 137.5q0 27 5 64l68 427h133zM376 899l74 -83l101 83l90 -47l-169 -153
h-79l-121 153z" />
    <glyph glyph-name="uni01D4" unicode="&#x1d4;" horiz-adv-x="510" 
d="M332 0l3 21q-51 -37 -106 -37q-68 0 -110 42.5t-42 110.5q0 29 5 67l38 239h128l-36 -232q-5 -28 -5 -51q0 -60 59 -60q50 0 73 33q17 23 28 87l35 223h128l-70 -443h-128zM453 699l90 -46l-169 -153h-79l-121 153l104 46l74 -85z" />
    <glyph glyph-name="Gcaron" unicode="&#x1e6;" horiz-adv-x="728" 
d="M436 373h320l-10 -64q-23 -146 -122.5 -235.5t-239.5 -89.5q-133 0 -219.5 83.5t-86.5 212.5q0 105 57.5 198t154.5 149t205 56q75 0 131.5 -28.5t115.5 -95.5l-108 -89q-41 50 -76.5 69t-84.5 19q-104 0 -181.5 -78t-77.5 -184q0 -82 53 -134.5t136 -52.5t141 55
q34 32 54 86h-182zM441 899l75 -83l100 83l90 -47l-169 -153h-79l-121 153z" />
    <glyph glyph-name="gcaron" unicode="&#x1e7;" horiz-adv-x="543" 
d="M364 -9l6 34q-65 -41 -124 -41q-83 0 -137.5 56.5t-54.5 142.5q0 109 82 192.5t189 83.5q57 0 107 -41l4 25h128l-72 -452q-16 -107 -94 -173.5t-185 -66.5q-105 0 -168 68q-12 13 -38 50l99 82l9 -13l7 -10q41 -61 109 -61q54 0 89 32.5t44 91.5zM313 344
q-54 0 -91.5 -43t-37.5 -106q0 -44 25 -70t66 -26q55 0 92 43t37 107q0 44 -24.5 69.5t-66.5 25.5zM456 699l90 -46l-169 -153h-79l-121 153l104 46l74 -85z" />
    <glyph glyph-name="uni01F4" unicode="&#x1f4;" horiz-adv-x="728" 
d="M436 373h320l-10 -64q-23 -146 -122.5 -235.5t-239.5 -89.5q-133 0 -219.5 83.5t-86.5 212.5q0 105 57.5 198t154.5 149t205 56q75 0 131.5 -28.5t115.5 -95.5l-108 -89q-41 50 -76.5 69t-84.5 19q-104 0 -181.5 -78t-77.5 -184q0 -82 53 -134.5t136 -52.5t141 55
q34 32 54 86h-182zM692 849l-188 -157l-79 47l157 172z" />
    <glyph glyph-name="uni01F5" unicode="&#x1f5;" horiz-adv-x="543" 
d="M364 -9l6 34q-65 -41 -124 -41q-83 0 -137.5 56.5t-54.5 142.5q0 109 82 192.5t189 83.5q57 0 107 -41l4 25h128l-72 -452q-16 -107 -94 -173.5t-185 -66.5q-105 0 -168 68q-12 13 -38 50l99 82l9 -13l7 -10q41 -61 109 -61q54 0 89 32.5t44 91.5zM313 344
q-54 0 -91.5 -43t-37.5 -106q0 -44 25 -70t66 -26q55 0 92 43t37 107q0 44 -24.5 69.5t-66.5 25.5zM527 645l-188 -158l-79 48l157 172z" />
    <glyph glyph-name="Aringacute" unicode="&#x1fa;" horiz-adv-x="643" 
d="M609 1022l-140 -114q43 -2 69 -28t26 -65q0 -50 -40.5 -87.5t-93.5 -37.5q-42 0 -70 26.5t-28 66.5q0 63 61 103l-50 29l156 166zM456 849q-24 0 -42 -17t-18 -40q0 -19 12.5 -31t31.5 -12q24 0 42 17.5t18 40.5q0 18 -12.5 30t-31.5 12zM478 155h-264l-80 -155h-140
l354 667h158l143 -667h-141zM453 279l-49 246l-127 -246h176z" />
    <glyph glyph-name="aringacute" unicode="&#x1fb;" horiz-adv-x="543" 
d="M539 849l-178 -149q6 2 16 2q43 0 71 -27t28 -68q0 -52 -41 -91.5t-94 -39.5q-42 0 -70 27.5t-28 68.5t28.5 76.5t71.5 48.5l-71 42l157 172zM368 641q-24 0 -42.5 -18.5t-18.5 -41.5q0 -19 12.5 -31.5t31.5 -12.5q24 0 42.5 18t18.5 42q0 19 -12.5 31.5t-31.5 12.5z
M493 0h-128l4 25q-60 -41 -121 -41q-85 0 -139.5 56.5t-54.5 142.5q0 110 82 193t190 83q57 0 106 -41l4 25h128zM312 344q-54 0 -91 -43t-37 -106q0 -44 24.5 -70t66.5 -26q55 0 92 43t37 107q0 44 -24.5 69.5t-67.5 25.5z" />
    <glyph glyph-name="AEacute" unicode="&#x1fc;" horiz-adv-x="845" 
d="M448 155h-200l-105 -155h-149l457 667h460l-20 -123h-249l-23 -145h221l-19 -123h-222l-24 -152h259l-20 -124h-391zM467 279l40 249h-7l-168 -249h135zM825 849l-188 -157l-79 47l157 172z" />
    <glyph glyph-name="aeacute" unicode="&#x1fd;" horiz-adv-x="801" 
d="M145 300l-54 83q63 42 113 59t110 17q108 0 154 -60q75 60 160 60q86 0 137 -54.5t51 -145.5q0 -29 -10 -82h-317q12 -80 87 -80q64 0 108 57l105 -44q-97 -126 -232 -126q-87 0 -143 57q-68 -57 -178 -57q-89 0 -141.5 36t-52.5 98q0 76 62.5 122.5t165.5 46.5h97
q-11 60 -81 60q-62 0 -141 -47zM503 266h191q-13 81 -83 81q-75 0 -108 -81zM358 198h-89q-98 0 -98 -60q0 -20 21 -31.5t58 -11.5q92 0 101 57zM664 645l-188 -158l-78 48l157 172z" />
    <glyph glyph-name="Oslashacute" unicode="&#x1fe;" horiz-adv-x="770" 
d="M824 600l-71 -60q41 -68 41 -153q0 -103 -57.5 -196.5t-153 -150t-200.5 -56.5q-115 0 -201 71l-68 -58l-62 70l70 60q-41 73 -41 153q0 103 57.5 196.5t153.5 150t201 56.5q117 0 200 -71l69 58zM643 447l-353 -301q50 -37 111 -37q101 0 179 78.5t78 180.5q0 42 -15 79
zM232 220l355 301q-50 37 -114 37q-101 0 -178.5 -79t-77.5 -182q0 -39 15 -77zM689 849l-188 -157l-78 47l157 172z" />
    <glyph glyph-name="oslashacute" unicode="&#x1ff;" horiz-adv-x="534" 
d="M38 58l43 35q-20 40 -20 90q0 111 83.5 193.5t196.5 82.5q76 0 133 -45l39 32l53 -61l-42 -35q20 -42 20 -91q0 -110 -84 -192.5t-196 -82.5q-79 0 -133 45l-39 -32zM192 184l180 147q-22 13 -50 13q-55 0 -93 -42t-38 -102q0 -10 1 -16zM413 260l-180 -148
q23 -13 50 -13q54 0 92.5 42.5t38.5 102.5q0 10 -1 16zM536 645l-188 -158l-79 48l157 172z" />
    <glyph glyph-name="uni0200" unicode="&#x200;" horiz-adv-x="643" 
d="M370 854l113 56l102 -171l-86 -46l-107 123l44 -79l-80 -44l-138 157l121 60zM478 155h-264l-80 -155h-140l354 667h158l143 -667h-141zM453 279l-49 246l-127 -246h176z" />
    <glyph glyph-name="uni0201" unicode="&#x201;" horiz-adv-x="543" 
d="M260 648l113 57l102 -171l-86 -47l-108 123l45 -79l-80 -44l-138 157l120 61zM493 0h-128l4 25q-60 -41 -121 -41q-85 0 -139.5 56.5t-54.5 142.5q0 110 82 193t190 83q57 0 106 -41l4 25h128zM312 344q-54 0 -91 -43t-37 -106q0 -44 24.5 -70t66.5 -26q55 0 92 43
t37 107q0 44 -24.5 69.5t-67.5 25.5z" />
    <glyph glyph-name="Scommaaccent" unicode="&#x218;" horiz-adv-x="525" 
d="M570 551l-120 -69q-23 47 -41 62t-52 15q-35 0 -63.5 -25.5t-28.5 -56.5q0 -35 62 -61l58 -23q139 -56 139 -162q0 -98 -81 -172.5t-188 -74.5q-53 0 -97 21.5t-67 58.5q-29 46 -34 125l136 35q5 -59 15 -76q20 -40 69 -40q43 0 77 31.5t34 71.5q0 20 -18 36.5t-60 33.5
l-55 22q-124 50 -124 153q0 92 74.5 159.5t176.5 67.5q68 0 112 -31t76 -101zM360 -67l-161 -164l-85 45l137 167z" />
    <glyph glyph-name="scommaaccent" unicode="&#x219;" horiz-adv-x="389" 
d="M165 -19l115 -36l-116 -192l-92 29zM36 120l114 40q12 -34 26 -48.5t37 -14.5q20 0 34 12t14 30q0 9 -8 16t-32 17l-55 23q-74 32 -74 100q0 67 55 115.5t131 48.5q103 0 143 -103l-109 -49q-21 40 -53 40q-18 0 -30 -9.5t-12 -23.5q0 -8 8 -14t31 -16l47 -20
q88 -35 88 -104q0 -70 -59 -123t-138 -53t-121 50q-25 32 -37 86z" />
    <glyph glyph-name="uni021A" unicode="&#x21a;" horiz-adv-x="441" 
d="M553 667l-20 -123h-160l-86 -544h-133l86 544h-160l20 123h453zM178 -19l115 -36l-116 -192l-91 29z" />
    <glyph glyph-name="uni021B" unicode="&#x21b;" horiz-adv-x="274" 
d="M234 328l-29 -180q-1 -6 -1 -19q0 -19 14 -19q17 0 56 13l-19 -119q-39 -13 -75 -13q-106 0 -106 115q0 20 3 40l29 182h-45l18 115h45l14 92l136 50l-22 -142h66l-18 -115h-66zM99 -19l115 -36l-116 -192l-91 29z" />
    <glyph glyph-name="uni0226" unicode="&#x226;" horiz-adv-x="643" 
d="M478 155h-264l-80 -155h-140l354 667h158l143 -667h-141zM453 279l-49 246l-127 -246h176zM460 871q29 0 47.5 -18t18.5 -46q0 -34 -27.5 -61t-62.5 -27q-29 0 -48 18.5t-19 46.5q0 34 27.5 60.5t63.5 26.5z" />
    <glyph glyph-name="uni0227" unicode="&#x227;" horiz-adv-x="543" 
d="M493 0h-128l4 25q-60 -41 -121 -41q-85 0 -139.5 56.5t-54.5 142.5q0 110 82 193t190 83q57 0 106 -41l4 25h128zM312 344q-54 0 -91 -43t-37 -106q0 -44 24.5 -70t66.5 -26q55 0 92 43t37 107q0 44 -24.5 69.5t-67.5 25.5zM364 671q29 0 48 -18t19 -46
q0 -35 -27.5 -61.5t-64.5 -26.5q-29 0 -47.5 18.5t-18.5 46.5q0 34 27.5 60.5t63.5 26.5z" />
    <glyph glyph-name="uni0237" unicode="&#x237;" horiz-adv-x="237" 
d="M256 443l-84 -532q-12 -74 -52 -114.5t-101 -40.5q-31 0 -70 13l19 119q34 -13 51 -13q20 0 25 39l84 529h128z" />
    <glyph glyph-name="uni02BB" unicode="&#x2bb;" horiz-adv-x="269" 
d="M216 429l-108 40l163 263l87 -36z" />
    <glyph glyph-name="afii57929" unicode="&#x2bc;" horiz-adv-x="306" 
d="M261 734l111 -43l-167 -275l-89 38z" />
    <glyph glyph-name="circumflex" unicode="&#x2c6;" horiz-adv-x="476" 
d="M402 489l-74 85l-101 -85l-89 46l169 153h79l121 -153z" />
    <glyph glyph-name="caron" unicode="&#x2c7;" horiz-adv-x="476" 
d="M436 699l90 -46l-169 -153h-79l-121 153l104 46l74 -85z" />
    <glyph glyph-name="uni02C9" unicode="&#x2c9;" horiz-adv-x="476" 
d="M178 645h324l-17 -110h-324z" />
    <glyph glyph-name="breve" unicode="&#x2d8;" horiz-adv-x="476" 
d="M185 667l112 9q-1 -7 -2 -15.5t-1 -10.5q-1 -6 -1 -16q0 -16 10.5 -26t26.5 -10q27 0 45 27q4 7 17 51l110 -9q-13 -45 -17.5 -57t-15.5 -28q-58 -88 -155 -88q-57 0 -96 34.5t-39 85.5q0 10 6 53z" />
    <glyph glyph-name="dotaccent" unicode="&#x2d9;" horiz-adv-x="476" 
d="M344 671q29 0 48 -18t19 -46q0 -35 -27.5 -61.5t-64.5 -26.5q-29 0 -47.5 18.5t-18.5 46.5q0 34 27.5 60.5t63.5 26.5z" />
    <glyph glyph-name="ring" unicode="&#x2da;" horiz-adv-x="476" 
d="M350 704q43 0 71 -27t28 -68q0 -52 -40.5 -91.5t-93.5 -39.5q-44 0 -71.5 27t-27.5 70q0 50 41 89.5t93 39.5zM341 643q-24 0 -42.5 -18.5t-18.5 -41.5q0 -19 12.5 -31.5t31.5 -12.5q24 0 42.5 18t18.5 42q0 19 -12.5 31.5t-31.5 12.5z" />
    <glyph glyph-name="ogonek" unicode="&#x2db;" horiz-adv-x="476" 
d="M323 0h128q-42 -45 -42 -61q0 -6 9 -6q16 0 45 12l23 -93q-68 -23 -98 -23q-47 0 -75.5 23.5t-28.5 61.5q0 39 39 86z" />
    <glyph glyph-name="tilde" unicode="&#x2dc;" horiz-adv-x="476" 
d="M401 669l103 -24q-13 -54 -34 -81q-33 -44 -91 -44q-38 0 -75 21q-15 9 -25 9q-5 0 -6 -3q-1 -1 -12 -33l-101 23q33 125 127 125q35 0 75 -24q14 -8 22 -8q5 0 7 5t10 34z" />
    <glyph glyph-name="hungarumlaut" unicode="&#x2dd;" horiz-adv-x="476" 
d="M426 646l52 59l95 -61l-187 -157l-63 42l103 116l-189 -158l-65 47l156 171z" />
    <glyph glyph-name="uni0309" unicode="&#x309;" horiz-adv-x="476" 
d="M437 704h-115q7 36 12 48.5t19 26.5q16 18 16 22q0 5 -9 5q-8 0 -45 -12l-24 93q67 23 101 23q47 0 75 -21t28 -56q0 -34 -30 -72l-20 -24q-5 -7 -8 -33z" />
    <glyph glyph-name="uni0323" unicode="&#x323;" horiz-adv-x="476" 
d="M233 -37q28 0 47 -18.5t19 -46.5q0 -35 -27.5 -61.5t-64.5 -26.5q-29 0 -47.5 18.5t-18.5 46.5q0 35 27.5 61.5t64.5 26.5z" />
    <glyph glyph-name="uni037E" unicode="&#x37e;" horiz-adv-x="265" 
d="M132 132l111 -43l-167 -275l-89 38zM218 430q29 0 48 -18t19 -46q0 -35 -27.5 -61.5t-64.5 -26.5q-29 0 -47.5 18.5t-18.5 46.5q0 34 27.5 60.5t63.5 26.5z" />
    <glyph glyph-name="uni0387" unicode="&#x387;" horiz-adv-x="258" 
d="M194 409q29 0 48 -18t19 -46q0 -35 -27.5 -61.5t-63.5 -26.5q-29 0 -48 18t-19 46q0 35 27.5 61.5t63.5 26.5z" />
    <glyph glyph-name="uni1E1E" unicode="&#x1e1e;" horiz-adv-x="452" 
d="M533 667l-20 -123h-227l-23 -145h208l-20 -124h-207l-44 -275h-133l106 667h360zM385 871q29 0 48 -18t19 -46q0 -35 -27.5 -61.5t-63.5 -26.5q-29 0 -48 18.5t-19 46.5q0 34 27.5 60.5t63.5 26.5z" />
    <glyph glyph-name="uni1E1F" unicode="&#x1e1f;" horiz-adv-x="269" 
d="M240 328l-52 -328h-128l52 328h-41l18 115h41l12 78q12 74 52.5 114.5t103.5 40.5q33 0 68 -9l-18 -115q-25 9 -42 9q-29 0 -36 -42l-12 -76h74l-18 -115h-74zM303 866q29 0 48 -18t19 -46q0 -35 -27.5 -61.5t-64.5 -26.5q-29 0 -47.5 18.5t-18.5 46.5q0 34 27.5 60.5
t63.5 26.5z" />
    <glyph glyph-name="Wgrave" unicode="&#x1e80;" horiz-adv-x="877" 
d="M238 667l55 -427l195 427h111l60 -427l191 427h138l-305 -667h-119l-60 417l-192 -417h-119l-94 667h139zM409 849l129 62l102 -172l-94 -47z" />
    <glyph glyph-name="wgrave" unicode="&#x1e81;" horiz-adv-x="658" 
d="M58 443h136l39 -234l117 234h98l43 -234l114 234h136l-231 -443h-102l-42 230l-116 -230h-102zM264 645l129 62l102 -172l-93 -48z" />
    <glyph glyph-name="Wacute" unicode="&#x1e82;" horiz-adv-x="877" 
d="M238 667l55 -427l195 427h111l60 -427l191 427h138l-305 -667h-119l-60 417l-192 -417h-119l-94 667h139zM742 849l-188 -157l-78 47l156 172z" />
    <glyph glyph-name="wacute" unicode="&#x1e83;" horiz-adv-x="660" 
d="M58 443h136l39 -234l117 234h98l43 -234l114 234h136l-231 -443h-102l-42 230l-116 -230h-102zM566 645l-188 -158l-79 48l157 172z" />
    <glyph glyph-name="Wdieresis" unicode="&#x1e84;" horiz-adv-x="877" 
d="M238 667l55 -427l195 427h111l60 -427l191 427h138l-305 -667h-119l-60 417l-192 -417h-119l-94 667h139zM669 868q28 0 46 -17.5t18 -44.5q0 -33 -26.5 -58.5t-60.5 -25.5q-28 0 -46.5 17.5t-18.5 44.5q0 33 26.5 58.5t61.5 25.5zM483 868q28 0 46 -17.5t18 -44.5
q0 -33 -27 -58.5t-62 -25.5q-27 0 -45 17.5t-18 44.5q0 34 26.5 59t61.5 25z" />
    <glyph glyph-name="wdieresis" unicode="&#x1e85;" horiz-adv-x="658" 
d="M58 443h136l39 -234l117 234h98l43 -234l114 234h136l-231 -443h-102l-42 230l-116 -230h-102zM529 668q27 0 45 -17.5t18 -44.5q0 -33 -26.5 -58.5t-61.5 -25.5q-28 0 -45.5 17.5t-17.5 44.5q0 34 26.5 59t61.5 25zM342 668q28 0 46 -17.5t18 -44.5q0 -33 -26.5 -58.5
t-61.5 -25.5q-27 0 -45 17.5t-18 44.5q0 33 26.5 58.5t60.5 25.5z" />
    <glyph glyph-name="uni1EA0" unicode="&#x1ea0;" horiz-adv-x="643" 
d="M478 155h-264l-80 -155h-140l354 667h158l143 -667h-141zM453 279l-49 246l-127 -246h176zM317 -37q28 0 47 -18.5t19 -46.5q0 -35 -27.5 -61.5t-63.5 -26.5q-29 0 -48 18.5t-19 46.5q0 35 27.5 61.5t64.5 26.5z" />
    <glyph glyph-name="uni1EA1" unicode="&#x1ea1;" horiz-adv-x="543" 
d="M493 0h-128l4 25q-60 -41 -121 -41q-85 0 -139.5 56.5t-54.5 142.5q0 110 82 193t190 83q57 0 106 -41l4 25h128zM313 344q-54 0 -91.5 -43t-37.5 -105q0 -44 25 -70.5t66 -26.5q55 0 92 43t37 107q0 44 -24.5 69.5t-66.5 25.5zM264 -37q28 0 47 -18.5t19 -46.5
q0 -35 -27.5 -61.5t-63.5 -26.5q-29 0 -48 18.5t-19 46.5q0 35 27.5 61.5t64.5 26.5z" />
    <glyph glyph-name="uni1EA2" unicode="&#x1ea2;" horiz-adv-x="643" 
d="M498 704h-115q7 36 12 48.5t19 26.5q16 18 16 22q0 5 -9 5q-7 0 -46 -12l-23 93q67 23 101 23q47 0 74.5 -21t27.5 -56q0 -36 -30 -72l-19 -24q-5 -7 -8 -33zM478 155h-264l-80 -155h-140l354 667h158l143 -667h-141zM453 279l-49 246l-127 -246h176z" />
    <glyph glyph-name="uni1EA3" unicode="&#x1ea3;" horiz-adv-x="543" 
d="M493 0h-128l4 25q-60 -41 -121 -41q-85 0 -139.5 56.5t-54.5 142.5q0 110 82 193t190 83q57 0 106 -41l4 25h128zM313 344q-54 0 -91.5 -43t-37.5 -105q0 -44 25 -70.5t66 -26.5q55 0 92 43t37 107q0 44 -24.5 69.5t-66.5 25.5zM405 497h-115q7 36 12 48.5t19 26.5
q16 18 16 22q0 5 -9 5q-7 0 -46 -12l-23 93q69 23 101 23q47 0 75 -21t28 -56q0 -34 -30 -72l-20 -24q-6 -7 -8 -33z" />
    <glyph glyph-name="uni1EA4" unicode="&#x1ea4;" horiz-adv-x="643" 
d="M590 782l33 -42l-104 -47l-74 85l-101 -85l-90 47l169 153h79l27 -34l96 106l110 -62zM478 155h-264l-80 -155h-140l354 667h158l143 -667h-141zM453 279l-49 246l-127 -246h176z" />
    <glyph glyph-name="uni1EA5" unicode="&#x1ea5;" horiz-adv-x="543" 
d="M427 648l145 158l109 -62l-188 -157l-34 20l66 -83l-104 -46l-74 85l-101 -85l-90 46l170 153h78zM493 0h-128l4 25q-60 -41 -121 -41q-85 0 -139.5 56.5t-54.5 142.5q0 110 82 193t190 83q57 0 106 -41l4 25h128zM312 344q-54 0 -91 -43t-37 -106q0 -44 24.5 -70
t66.5 -26q55 0 92 43t37 107q0 44 -24.5 69.5t-67.5 25.5z" />
    <glyph glyph-name="uni1EA6" unicode="&#x1ea6;" horiz-adv-x="643" 
d="M478 155h-264l-80 -155h-140l354 667h158l143 -667h-141zM453 279l-49 246l-127 -246h176zM501 915l129 62l103 -172l-94 -48zM508 693l-75 83l-100 -83l-90 47l169 153h79l121 -153z" />
    <glyph glyph-name="uni1EA7" unicode="&#x1ea7;" horiz-adv-x="543" 
d="M393 677l121 -153l-104 -46l-74 85l-101 -85l-90 46l169 153h79zM493 0h-128l4 25q-60 -41 -121 -41q-85 0 -139.5 56.5t-54.5 142.5q0 110 82 193t190 83q57 0 106 -41l4 25h128zM312 344q-54 0 -91 -43t-37 -106q0 -44 24.5 -70t66.5 -26q55 0 92 43t37 107
q0 44 -24.5 69.5t-67.5 25.5zM363 740l129 62l102 -172l-93 -47z" />
    <glyph glyph-name="uni1EA8" unicode="&#x1ea8;" horiz-adv-x="643" 
d="M602 767l21 -27l-104 -47l-75 83l-100 -83l-90 47l169 153h79l62 -78l2 3l6 10l2 3q7 12 9 14q4 6 7 9l5 5q2 4 2 5q0 5 -9 5q-10 0 -28 -6q-14 -5 -17 -6l-24 93q68 23 101 23q47 0 75 -21t28 -56q0 -36 -30 -72l-20 -24q-5 -7 -8 -33h-63zM478 155h-264l-80 -155h-140
l354 667h158l143 -667h-141zM453 279l-49 246l-127 -246h176z" />
    <glyph glyph-name="uni1EA9" unicode="&#x1ea9;" horiz-adv-x="543" 
d="M404 677l37 -46q5 13 16 28q4 8 15 19q8 10 8 13q0 5 -9 5q-7 0 -45 -12l-24 93q66 23 101 23q47 0 75 -21t28 -56q0 -36 -30 -72l-20 -24q-4 -5 -8 -33h-78l55 -70l-104 -46l-74 85l-101 -85l-90 46l170 153h78zM493 0h-128l4 25q-60 -41 -121 -41q-85 0 -139.5 56.5
t-54.5 142.5q0 110 82 193t190 83q57 0 106 -41l4 25h128zM312 344q-54 0 -91 -43t-37 -106q0 -44 24.5 -70t66.5 -26q55 0 92 43t37 107q0 44 -24.5 69.5t-67.5 25.5z" />
    <glyph glyph-name="uni1EAA" unicode="&#x1eaa;" horiz-adv-x="643" 
d="M478 155h-264l-80 -155h-140l354 667h158l143 -667h-141zM453 279l-49 246l-127 -246h176zM342 682l-90 45l168 147h79l122 -147l-104 -45l-75 80zM541 1029l103 -23q-11 -50 -32 -77q-33 -43 -92 -43q-40 0 -75 20q-15 9 -24 9q-5 0 -7.5 -4.5t-11.5 -31.5l-101 23
q31 120 126 120q32 0 76 -22q14 -8 22 -8q5 0 7 4.5t9 32.5z" />
    <glyph glyph-name="uni1EAB" unicode="&#x1eab;" horiz-adv-x="543" 
d="M493 0h-128l4 25q-60 -41 -121 -41q-85 0 -139.5 56.5t-54.5 142.5q0 110 82 193t190 83q57 0 106 -41l4 25h128zM312 344q-54 0 -91 -43t-37 -106q0 -44 24.5 -70t66.5 -26q55 0 92 43t37 107q0 44 -24.5 69.5t-67.5 25.5zM246 483l-90 45l169 148h79l122 -148l-105 -45
l-74 81zM446 837l104 -23q-13 -52 -32 -77q-33 -43 -93 -43q-41 0 -75 20q-15 9 -24 9q-4 0 -6.5 -4.5t-12.5 -31.5l-100 23q31 120 126 120q33 0 75 -22q16 -8 23 -8q5 0 6.5 4.5t8.5 32.5z" />
    <glyph glyph-name="uni1EAC" unicode="&#x1eac;" horiz-adv-x="643" 
d="M478 155h-264l-80 -155h-140l354 667h158l143 -667h-141zM453 279l-49 246l-127 -246h176zM317 -37q28 0 47 -18.5t19 -46.5q0 -35 -27.5 -61.5t-63.5 -26.5q-29 0 -48 18.5t-19 46.5q0 35 27.5 61.5t64.5 26.5zM344 693l-90 47l169 153h79l121 -153l-104 -47l-75 83z
" />
    <glyph glyph-name="uni1EAD" unicode="&#x1ead;" horiz-adv-x="543" 
d="M493 0h-128l4 25q-60 -41 -121 -41q-85 0 -139.5 56.5t-54.5 142.5q0 110 82 193t190 83q57 0 106 -41l4 25h128zM313 344q-54 0 -91.5 -43t-37.5 -105q0 -44 25 -70.5t66 -26.5q55 0 92 43t37 107q0 44 -24.5 69.5t-66.5 25.5zM256 -37q28 0 47 -18.5t19 -46.5
q0 -35 -27.5 -61.5t-63.5 -26.5q-29 0 -47.5 18.5t-18.5 46.5q0 35 27.5 61.5t63.5 26.5zM422 489l-74 85l-101 -85l-89 46l169 153h79l121 -153z" />
    <glyph glyph-name="uni1EAE" unicode="&#x1eae;" horiz-adv-x="643" 
d="M402 864l-28 16l155 166l110 -59l-186 -152l-42 24l-1 -6q-1 -17 -1 -24q0 -40 36 -40q29 0 45 27q4 7 17 48l109 -8q-16 -59 -31 -82q-58 -86 -155 -86q-58 0 -97 33.5t-39 83.5q0 13 5 51zM478 155h-264l-80 -155h-140l354 667h158l143 -667h-141zM453 279l-49 246
l-127 -246h176z" />
    <glyph glyph-name="uni1EAF" unicode="&#x1eaf;" horiz-adv-x="543" 
d="M493 0h-128l4 25q-60 -41 -121 -41q-85 0 -139.5 56.5t-54.5 142.5q0 110 82 193t190 83q57 0 106 -41l4 25h128zM313 344q-54 0 -91.5 -43t-37.5 -105q0 -44 25 -70.5t66 -26.5q55 0 92 43t37 107q0 44 -24.5 69.5t-66.5 25.5zM204 653l112 9q-2 -20 -2 -25
q-1 -6 -1 -15q0 -16 10.5 -25.5t27.5 -9.5q26 0 44 26q4 9 17 48l109 -8q-17 -60 -31 -81q-58 -86 -155 -86q-58 0 -97 33.5t-39 82.5q0 13 5 51zM549 793l-187 -152l-79 45l156 166z" />
    <glyph glyph-name="uni1EB0" unicode="&#x1eb0;" horiz-adv-x="643" 
d="M506 862l-56 -27l-139 152l129 59l103 -166l-33 -16l106 -8q-16 -59 -31 -82q-58 -86 -155 -86q-58 0 -97 33.5t-39 83.5q0 13 5 51l112 8q-2 -22 -2 -24q-1 -6 -1 -16q0 -15 10.5 -25t26.5 -10q40 0 56 57q1 4 5 16zM478 155h-264l-80 -155h-140l354 667h158l143 -667
h-141zM453 279l-49 246l-127 -246h176z" />
    <glyph glyph-name="uni1EB1" unicode="&#x1eb1;" horiz-adv-x="543" 
d="M493 0h-128l4 25q-60 -41 -121 -41q-85 0 -139.5 56.5t-54.5 142.5q0 110 82 193t190 83q57 0 106 -41l4 25h128zM313 344q-54 0 -91.5 -43t-37.5 -105q0 -44 25 -70.5t66 -26.5q55 0 92 43t37 107q0 44 -24.5 69.5t-66.5 25.5zM204 653l112 9q-2 -20 -2 -25
q-1 -6 -1 -15q0 -16 10.5 -25.5t27.5 -9.5q26 0 44 26q4 9 17 48l109 -8q-17 -60 -31 -81q-58 -86 -155 -86q-58 0 -97 33.5t-39 82.5q0 13 5 51zM215 793l129 59l103 -166l-93 -45z" />
    <glyph glyph-name="uni1EB2" unicode="&#x1eb2;" horiz-adv-x="643" 
d="M403 867v3q7 36 27 56q17 17 17 22t-9 5q-7 0 -46 -12l-24 90q69 22 101 22q47 0 75 -20.5t28 -54.5t-29 -69l-20 -23q-5 -7 -6 -19l100 -8q-12 -43 -16.5 -54t-15.5 -27q-56 -86 -155 -86q-58 0 -97 33.5t-39 83.5q0 13 6 50zM411 854l-1 -4l-1 -9q-1 -5 -1 -9
q0 -39 37 -39q40 0 56 53l1 4l1 4h-92zM478 155h-264l-80 -155h-140l354 667h158l143 -667h-141zM453 279l-49 246l-127 -246h176z" />
    <glyph glyph-name="uni1EB3" unicode="&#x1eb3;" horiz-adv-x="543" 
d="M493 0h-128l4 25q-60 -41 -121 -41q-85 0 -139.5 56.5t-54.5 142.5q0 110 82 193t190 83q57 0 106 -41l4 25h128zM313 344q-54 0 -91.5 -43t-37.5 -105q0 -44 25 -70.5t66 -26.5q55 0 92 43t37 107q0 44 -24.5 69.5t-66.5 25.5zM204 653l112 9q-2 -22 -2 -25
q-1 -6 -1 -15q0 -16 10.5 -25.5t27.5 -9.5q26 0 44 26q4 9 17 48l109 -8q-17 -60 -31 -81q-58 -86 -155 -86q-58 0 -97 33.5t-39 82.5q0 13 5 51zM423 669h-115q6 34 11 45.5t19 26.5q16 18 16 22q0 5 -9 5t-45 -12l-24 90q69 22 101 22q47 0 75 -20.5t28 -54.5t-30 -69
l-19 -23q-5 -5 -7 -25z" />
    <glyph glyph-name="uni1EB4" unicode="&#x1eb4;" horiz-adv-x="643" 
d="M478 155h-264l-80 -155h-140l354 667h158l143 -667h-141zM453 279l-49 246l-127 -246h176zM299 860l112 8q0 -5 -0.5 -10.5t-1 -8.5t-0.5 -5q-1 -6 -1 -16q0 -16 10.5 -25.5t27.5 -9.5q28 0 44 27q3 4 17 48l109 -9q-16 -58 -31 -81q-58 -86 -155 -86q-58 0 -97 33.5
t-39 83.5q0 12 5 51zM540 1025l104 -23q-13 -52 -32 -77q-33 -43 -92 -43q-42 0 -76 20q-15 9 -24 9q-4 0 -6.5 -4.5t-12.5 -31.5l-100 23q30 120 125 120q37 0 74 -21q13 -9 24 -9q5 0 7 4.5t9 32.5z" />
    <glyph glyph-name="uni1EB5" unicode="&#x1eb5;" horiz-adv-x="543" 
d="M204 659l112 8q-3 -34 -3 -40q0 -16 10.5 -25.5t27.5 -9.5q27 0 44 27q4 7 17 48l110 -8q-18 -62 -32 -82q-56 -86 -155 -86q-58 0 -97 33.5t-39 83.5q0 13 5 51zM447 831l103 -23q-11 -50 -32 -77q-33 -43 -92 -43q-42 0 -76 20q-14 9 -24 9q-4 0 -6.5 -4.5t-11.5 -31.5
l-101 23q31 120 126 120q39 0 73 -21q15 -9 25 -9q5 0 7 4.5t9 32.5zM493 0h-128l4 25q-60 -41 -121 -41q-85 0 -139.5 56.5t-54.5 142.5q0 110 82 193t190 83q57 0 106 -41l4 25h128zM312 344q-54 0 -91 -43t-37 -106q0 -44 24.5 -70t66.5 -26q55 0 92 43t37 107
q0 44 -24.5 69.5t-67.5 25.5z" />
    <glyph glyph-name="uni1EB6" unicode="&#x1eb6;" horiz-adv-x="643" 
d="M478 155h-264l-80 -155h-140l354 667h158l143 -667h-141zM453 279l-49 246l-127 -246h176zM301 871l112 9q-2 -20 -3 -25q-1 -6 -1 -16q0 -16 10.5 -25.5t27.5 -9.5q27 0 44 27q5 7 18 49l109 -9q-12 -45 -16.5 -56.5t-16.5 -28.5q-58 -88 -155 -88q-57 0 -96 34.5
t-39 85.5q0 14 6 53zM317 -37q28 0 47 -18.5t19 -46.5q0 -35 -27.5 -61.5t-63.5 -26.5q-29 0 -48 18.5t-19 46.5q0 35 27.5 61.5t64.5 26.5z" />
    <glyph glyph-name="uni1EB7" unicode="&#x1eb7;" horiz-adv-x="543" 
d="M493 0h-128l4 25q-60 -41 -121 -41q-85 0 -139.5 56.5t-54.5 142.5q0 110 82 193t190 83q57 0 106 -41l4 25h128zM312 344q-54 0 -91 -43t-37 -106q0 -44 24.5 -70t66.5 -26q55 0 92 43t37 107q0 44 -24.5 69.5t-67.5 25.5zM256 -37q28 0 47 -18.5t19 -46.5
q0 -35 -27.5 -61.5t-63.5 -26.5q-29 0 -47.5 18.5t-18.5 46.5q0 35 27.5 61.5t63.5 26.5zM205 667l112 9q-2 -21 -3 -26q-1 -6 -1 -16q0 -16 10 -26t27 -10q28 0 45 27q4 7 17 51l110 -9q-13 -45 -17.5 -57t-15.5 -28q-58 -88 -155 -88q-57 0 -96 34.5t-39 85.5q0 10 6 53z
" />
    <glyph glyph-name="uni1EB8" unicode="&#x1eb8;" horiz-adv-x="487" 
d="M554 667l-19 -123h-249l-23 -145h221l-19 -123h-222l-24 -152h259l-20 -124h-391l106 667h381zM267 -37q28 0 47 -18.5t19 -46.5q0 -35 -27.5 -61.5t-63.5 -26.5q-29 0 -48 18.5t-19 46.5q0 35 27.5 61.5t64.5 26.5z" />
    <glyph glyph-name="uni1EB9" unicode="&#x1eb9;" horiz-adv-x="493" 
d="M377 154l105 -44q-98 -126 -230 -126q-89 0 -143.5 55t-54.5 144q0 110 81 193t187 83q84 0 135.5 -55t51.5 -145q0 -31 -10 -82h-318q12 -80 88 -80q65 0 108 57zM195 266h191q-13 81 -82 81q-73 0 -109 -81zM245 -37q29 0 48 -18.5t19 -46.5q0 -35 -27.5 -61.5
t-64.5 -26.5q-29 0 -47.5 18.5t-18.5 46.5q0 35 27.5 61.5t63.5 26.5z" />
    <glyph glyph-name="uni1EBA" unicode="&#x1eba;" horiz-adv-x="487" 
d="M554 667l-19 -123h-249l-23 -145h221l-19 -123h-222l-24 -152h259l-20 -124h-391l106 667h381zM442 704h-115q7 36 12 48t19 27q16 18 16 22q0 5 -9 5q-7 0 -45 -12l-24 93q67 23 101 23q47 0 75 -21t28 -56q0 -36 -30 -72l-19 -24q-5 -4 -9 -33z" />
    <glyph glyph-name="uni1EBB" unicode="&#x1ebb;" horiz-adv-x="493" 
d="M377 154l105 -44q-98 -126 -230 -126q-89 0 -143.5 55t-54.5 144q0 110 81 193t187 83q84 0 135.5 -55t51.5 -145q0 -31 -10 -82h-318q12 -80 88 -80q65 0 108 57zM195 266h191q-13 81 -82 81q-73 0 -109 -81zM394 497h-115q6 35 11.5 48t19.5 27q16 18 16 22q0 5 -9 5
q-7 0 -46 -12l-23 93q68 23 101 23q47 0 75 -20.5t28 -56.5q0 -35 -31 -72l-19 -24q-5 -5 -8 -33z" />
    <glyph glyph-name="uni1EBC" unicode="&#x1ebc;" horiz-adv-x="487" 
d="M554 667l-19 -123h-249l-23 -145h221l-19 -123h-222l-24 -152h259l-20 -124h-391l106 667h381zM439 873l103 -24q-13 -54 -34 -81q-33 -44 -91 -44q-38 0 -75 21q-15 9 -25 9q-5 0 -6 -3q-1 -1 -12 -33l-101 23q33 125 127 125q35 0 75 -24q14 -8 22 -8q5 0 7 5t10 34z
" />
    <glyph glyph-name="uni1EBD" unicode="&#x1ebd;" horiz-adv-x="493" 
d="M377 154l105 -44q-98 -126 -230 -126q-89 0 -143.5 55t-54.5 144q0 110 81 193t187 83q84 0 135.5 -55t51.5 -145q0 -31 -10 -82h-318q12 -80 88 -80q65 0 108 57zM195 266h191q-13 81 -82 81q-73 0 -109 -81zM409 669l103 -24q-12 -53 -33 -81q-33 -44 -92 -44
q-38 0 -75 21q-15 9 -24 9q-4 0 -6.5 -4.5t-12.5 -31.5l-101 23q33 125 127 125q34 0 76 -24q14 -8 22 -8q5 0 6.5 5t9.5 34z" />
    <glyph glyph-name="uni1EBE" unicode="&#x1ebe;" horiz-adv-x="502" 
d="M556 667l-20 -123h-249l-23 -145h221l-19 -123h-222l-24 -152h259l-20 -124h-391l106 667h382zM521 782l33 -42l-105 -47l-74 85l-101 -85l-90 47l170 153h79l27 -34l95 106l110 -62z" />
    <glyph glyph-name="uni1EBF" unicode="&#x1ebf;" horiz-adv-x="493" 
d="M419 648l144 158l109 -62l-186 -156l-55 44l85 -108l-104 -46l-74 85l-101 -85l-90 46l170 153h78zM377 154l105 -44q-98 -126 -230 -126q-89 0 -143.5 55t-54.5 144q0 110 81 193t187 83q84 0 135.5 -55t51.5 -145q0 -31 -10 -82h-318q12 -80 88 -80q65 0 108 57z
M195 266h191q-13 81 -82 81q-73 0 -109 -81z" />
    <glyph glyph-name="uni1EC0" unicode="&#x1ec0;" horiz-adv-x="520" 
d="M559 667l-19 -123h-249l-23 -145h221l-19 -123h-222l-24 -152h259l-20 -124h-391l106 667h381zM443 915l129 62l103 -172l-94 -48zM449 693l-74 83l-101 -83l-89 47l169 153h79l121 -153z" />
    <glyph glyph-name="uni1EC1" unicode="&#x1ec1;" horiz-adv-x="493" 
d="M377 154l105 -44q-98 -126 -230 -126q-89 0 -143.5 55t-54.5 144q0 110 81 193t187 83q84 0 135.5 -55t51.5 -145q0 -31 -10 -82h-318q12 -80 88 -80q65 0 108 57zM195 266h191q-13 81 -82 81q-73 0 -109 -81zM386 677l121 -153l-105 -46l-74 85l-101 -85l-89 46l169 153
h79zM356 740l129 62l102 -172l-94 -47z" />
    <glyph glyph-name="uni1EC2" unicode="&#x1ec2;" horiz-adv-x="500" 
d="M494 815l2 3l6 10l2 3q2 2 4 5.5t4 5.5l1 3l7 9l5 5q2 4 2 5q0 5 -9 5q-10 0 -28 -6q-14 -5 -17 -6l-24 93q68 23 101 23q47 0 75 -21t28 -56q0 -36 -30 -72l-20 -24q-5 -7 -8 -33h-63l21 -27l-104 -47l-75 83l-100 -83l-90 47l169 153h79zM561 667l-19 -123h-249
l-23 -145h221l-19 -123h-222l-24 -152h259l-20 -124h-391l106 667h381z" />
    <glyph glyph-name="uni1EC3" unicode="&#x1ec3;" horiz-adv-x="493" 
d="M392 677l36 -46q5 11 16 28q6 9 15 19q9 9 9 13q0 5 -9 5q-10 0 -28 -6q-3 -1 -6.5 -2.5t-5.5 -2l-6 -1.5l-23 93q66 23 101 23q47 0 75 -21t28 -56q0 -36 -30 -72l-20 -24q-6 -7 -8 -33h-79l55 -70l-104 -46l-74 85l-101 -85l-89 46l169 153h79zM377 154l105 -44
q-98 -126 -230 -126q-89 0 -143.5 55t-54.5 144q0 110 81 193t187 83q84 0 135.5 -55t51.5 -145q0 -31 -10 -82h-318q12 -80 88 -80q65 0 108 57zM195 266h191q-13 81 -82 81q-73 0 -109 -81z" />
    <glyph glyph-name="uni1EC4" unicode="&#x1ec4;" horiz-adv-x="487" 
d="M554 667l-19 -123h-249l-23 -145h221l-19 -123h-222l-24 -152h259l-20 -124h-391l106 667h381zM474 1025l103 -23q-11 -50 -32 -77q-33 -43 -92 -43q-41 0 -75 20q-15 9 -25 9q-4 0 -6 -4.5t-12 -31.5l-101 23q32 120 126 120q37 0 73 -21q15 -9 25 -9q5 0 7 4.5t9 32.5z
M274 676l-90 45l168 148h79l122 -148l-104 -45l-75 81z" />
    <glyph glyph-name="uni1EC5" unicode="&#x1ec5;" horiz-adv-x="493" 
d="M377 154l105 -44q-98 -126 -230 -126q-89 0 -143.5 55t-54.5 144q0 110 81 193t187 83q84 0 135.5 -55t51.5 -145q0 -31 -10 -82h-318q12 -80 88 -80q65 0 108 57zM195 266h191q-13 81 -82 81q-73 0 -109 -81zM437 831l103 -23q-11 -50 -32 -77q-33 -43 -92 -43
q-42 0 -76 20q-14 9 -24 9q-4 0 -6.5 -4.5t-11.5 -31.5l-101 23q31 120 126 120q39 0 73 -21q15 -9 24 -9q5 0 7.5 4.5t9.5 32.5zM231 483l-90 45l169 148h79l122 -148l-105 -45l-74 81z" />
    <glyph glyph-name="uni1EC6" unicode="&#x1ec6;" horiz-adv-x="487" 
d="M270 -37q29 0 48 -18.5t19 -46.5q0 -35 -27.5 -61.5t-63.5 -26.5q-29 0 -48 18.5t-19 46.5q0 35 27.5 61.5t63.5 26.5zM285 693l-90 47l170 153h79l121 -153l-105 -47l-74 83zM554 667l-19 -123h-249l-23 -145h221l-19 -123h-222l-24 -152h259l-20 -124h-391l106 667h381
z" />
    <glyph glyph-name="uni1EC7" unicode="&#x1ec7;" horiz-adv-x="493" 
d="M377 154l105 -44q-98 -126 -230 -126q-89 0 -143.5 55t-54.5 144q0 110 81 193t187 83q84 0 135.5 -55t51.5 -145q0 -31 -10 -82h-318q12 -80 88 -80q65 0 108 57zM195 266h191q-13 81 -82 81q-73 0 -109 -81zM248 -37q28 0 47 -18.5t19 -46.5q0 -35 -27.5 -61.5
t-64.5 -26.5q-29 0 -47.5 18.5t-18.5 46.5q0 35 27.5 61.5t64.5 26.5zM416 489l-74 85l-101 -85l-90 46l170 153h78l121 -153z" />
    <glyph glyph-name="uni1EC8" unicode="&#x1ec8;" horiz-adv-x="267" 
d="M305 667l-106 -667h-133l106 667h133zM312 704h-115q7 36 12 48t19 27q16 18 16 22q0 5 -9 5q-7 0 -45 -12l-24 93q67 23 101 23q47 0 75 -21t28 -56q0 -36 -30 -72l-20 -24q-4 -5 -8 -33z" />
    <glyph glyph-name="uni1EC9" unicode="&#x1ec9;" horiz-adv-x="229" 
d="M249 443l-70 -443h-128l70 443h128zM261 497h-115q7 36 12 48.5t19 26.5q16 18 16 22q0 5 -9 5q-7 0 -46 -12l-23 93q68 23 101 23q47 0 75 -21t28 -56q0 -36 -30 -72l-20 -24q-4 -5 -8 -33z" />
    <glyph glyph-name="uni1ECA" unicode="&#x1eca;" horiz-adv-x="266" 
d="M305 667l-106 -667h-133l106 667h133zM127 -37q29 0 48 -18.5t19 -46.5q0 -35 -27.5 -61.5t-64.5 -26.5q-29 0 -47.5 18.5t-18.5 46.5q0 35 27.5 61.5t63.5 26.5z" />
    <glyph glyph-name="uni1ECB" unicode="&#x1ecb;" horiz-adv-x="229" 
d="M221 671q29 0 48 -18t19 -46q0 -35 -27.5 -61.5t-64.5 -26.5q-29 0 -47.5 18.5t-18.5 46.5q0 34 27.5 60.5t63.5 26.5zM249 443l-70 -443h-128l70 443h128zM109 -37q29 0 48 -18.5t19 -46.5q0 -35 -27.5 -61.5t-63.5 -26.5q-29 0 -48 18.5t-19 46.5q0 35 27.5 61.5
t63.5 26.5z" />
    <glyph glyph-name="uni1ECC" unicode="&#x1ecc;" horiz-adv-x="762" 
d="M493 683q126 0 212 -85.5t86 -210.5q0 -158 -126.5 -280.5t-289.5 -122.5q-126 0 -211.5 85t-85.5 211q0 104 58 197.5t154 149.5t203 56zM471 558q-102 0 -180 -79t-78 -183q0 -79 53 -133t130 -54q103 0 181 78.5t78 182.5q0 81 -52.5 134.5t-131.5 53.5zM377 -37
q28 0 47 -18.5t19 -46.5q0 -35 -27.5 -61.5t-64.5 -26.5q-29 0 -47.5 18.5t-18.5 46.5q0 35 27.5 61.5t64.5 26.5z" />
    <glyph glyph-name="uni1ECD" unicode="&#x1ecd;" horiz-adv-x="520" 
d="M336 459q87 0 144 -56.5t57 -142.5q0 -111 -83.5 -193.5t-196.5 -82.5q-89 0 -146 56t-57 145q0 110 84 192t198 82zM314 343q-55 0 -92.5 -42.5t-37.5 -104.5q0 -44 25 -70t67 -26q56 0 93.5 42.5t37.5 106.5q0 43 -25 68.5t-68 25.5zM255 -37q28 0 47 -18.5t19 -46.5
q0 -35 -27.5 -61.5t-63.5 -26.5q-29 0 -48 18.5t-19 46.5q0 35 27.5 61.5t64.5 26.5z" />
    <glyph glyph-name="uni1ECE" unicode="&#x1ece;" horiz-adv-x="762" 
d="M493 683q126 0 212 -85.5t86 -210.5q0 -158 -126.5 -280.5t-289.5 -122.5q-126 0 -211.5 85t-85.5 211q0 104 58 197.5t154 149.5t203 56zM471 558q-102 0 -180 -79t-78 -183q0 -79 53 -133t130 -54q103 0 181 78.5t78 182.5q0 81 -52.5 134.5t-131.5 53.5zM561 704h-115
q7 36 12 48t19 27q16 18 16 22q0 5 -9 5q-8 0 -45 -12l-24 93q67 23 101 23q47 0 75 -21t28 -56q0 -36 -30 -72l-19 -24q-4 -7 -9 -33z" />
    <glyph glyph-name="uni1ECF" unicode="&#x1ecf;" horiz-adv-x="520" 
d="M336 459q87 0 144 -56.5t57 -142.5q0 -111 -83.5 -193.5t-196.5 -82.5q-89 0 -146 56t-57 145q0 110 84 192t198 82zM314 343q-55 0 -92.5 -42.5t-37.5 -104.5q0 -44 25 -70t67 -26q56 0 93.5 42.5t37.5 106.5q0 43 -25 68.5t-68 25.5zM407 497h-115q7 35 12 48t19 27
q16 18 16 22q0 5 -9 5q-8 0 -45 -12l-24 93q68 23 101 23q47 0 75 -21t28 -56q0 -36 -30 -72l-19 -24q-5 -7 -9 -33z" />
    <glyph glyph-name="uni1ED0" unicode="&#x1ed0;" horiz-adv-x="762" 
d="M493 683q126 0 212 -85.5t86 -210.5q0 -158 -126.5 -280.5t-289.5 -122.5q-126 0 -211.5 85t-85.5 211q0 104 58 197.5t154 149.5t203 56zM471 558q-102 0 -180 -79t-78 -183q0 -79 53 -133t130 -54q103 0 181 78.5t78 182.5q0 81 -52.5 134.5t-131.5 53.5zM650 782
l33 -42l-104 -47l-75 82l-100 -82l-90 47l169 153h79l27 -34l96 106l110 -62z" />
    <glyph glyph-name="uni1ED1" unicode="&#x1ed1;" horiz-adv-x="520" 
d="M430 648l144 158l110 -62l-187 -156l-55 44l85 -108l-104 -46l-74 85l-101 -85l-89 46l169 153h79zM336 459q87 0 144 -56.5t57 -142.5q0 -111 -83.5 -193.5t-196.5 -82.5q-89 0 -146 56t-57 145q0 110 84 192t198 82zM314 343q-55 0 -92.5 -42.5t-37.5 -104.5
q0 -44 25 -70t67 -26q56 0 93.5 42.5t37.5 106.5q0 43 -25 68.5t-68 25.5z" />
    <glyph glyph-name="uni1ED2" unicode="&#x1ed2;" horiz-adv-x="762" 
d="M493 683q126 0 212 -85.5t86 -210.5q0 -158 -126.5 -280.5t-289.5 -122.5q-126 0 -211.5 85t-85.5 211q0 104 58 197.5t154 149.5t203 56zM471 558q-102 0 -180 -79t-78 -183q0 -79 53 -133t130 -54q103 0 181 78.5t78 182.5q0 81 -52.5 134.5t-131.5 53.5zM572 915
l130 62l102 -172l-94 -48zM579 693l-75 83l-100 -83l-90 47l169 153h79l121 -153z" />
    <glyph glyph-name="uni1ED3" unicode="&#x1ed3;" horiz-adv-x="520" 
d="M336 459q87 0 144 -56.5t57 -142.5q0 -111 -83.5 -193.5t-196.5 -82.5q-89 0 -146 56t-57 145q0 110 84 192t198 82zM314 343q-55 0 -92.5 -42.5t-37.5 -104.5q0 -44 25 -70t67 -26q56 0 93.5 42.5t37.5 106.5q0 43 -25 68.5t-68 25.5zM407 677l120 -153l-104 -46l-74 85
l-101 -85l-89 46l169 153h79zM376 740l130 62l102 -172l-94 -47z" />
    <glyph glyph-name="uni1ED4" unicode="&#x1ed4;" horiz-adv-x="762" 
d="M662 767l21 -27l-104 -47l-75 83l-100 -83l-90 47l169 153h79l62 -78l2 3l6 10l2 3q2 2 4 5.5t4 5.5l1 3q4 6 7 9l5 5q2 4 2 5q0 5 -9 5q-10 0 -28 -6q-14 -5 -17 -6l-24 93q68 23 101 23q47 0 75 -21t28 -56q0 -36 -30 -72l-20 -24q-3 -3 -7 -23q0 -5 -1 -10h-63z
M493 683q126 0 212 -85.5t86 -210.5q0 -158 -126.5 -280.5t-289.5 -122.5q-126 0 -211.5 85t-85.5 211q0 104 58 197.5t154 149.5t203 56zM471 558q-102 0 -180 -79t-78 -183q0 -79 53 -133t130 -54q103 0 181 78.5t78 182.5q0 81 -52.5 134.5t-131.5 53.5z" />
    <glyph glyph-name="uni1ED5" unicode="&#x1ed5;" horiz-adv-x="520" 
d="M402 677l37 -46q2 6 4 9l10 14l9 14l2 2q3 6 11 16q3 3 3 5q0 5 -9 5q-10 0 -28 -6q-14 -5 -17 -6l-24 93q66 23 101 23q47 0 75 -21t28 -56q0 -36 -30 -72l-20 -24q-4 -5 -8 -33h-78l55 -70l-104 -46l-74 85l-101 -85l-90 46l169 153h79zM336 459q87 0 144 -56.5
t57 -142.5q0 -111 -83.5 -193.5t-196.5 -82.5q-89 0 -146 56t-57 145q0 110 84 192t198 82zM314 343q-55 0 -92.5 -42.5t-37.5 -104.5q0 -44 25 -70t67 -26q56 0 93.5 42.5t37.5 106.5q0 43 -25 68.5t-68 25.5z" />
    <glyph glyph-name="uni1ED6" unicode="&#x1ed6;" horiz-adv-x="762" 
d="M493 683q126 0 212 -85.5t86 -210.5q0 -158 -126.5 -280.5t-289.5 -122.5q-126 0 -211.5 85t-85.5 211q0 104 58 197.5t154 149.5t203 56zM471 558q-102 0 -180 -79t-78 -183q0 -79 53 -133t130 -54q103 0 181 78.5t78 182.5q0 81 -52.5 134.5t-131.5 53.5zM402 682
l-90 45l168 147h79l122 -147l-104 -45l-75 80zM601 1029l103 -23q-11 -50 -32 -77q-33 -43 -92 -43q-40 0 -75 20q-15 9 -24 9q-5 0 -7.5 -4.5t-11.5 -31.5l-101 23q31 120 126 120q32 0 76 -22q14 -8 22 -8q5 0 7 4.5t9 32.5z" />
    <glyph glyph-name="uni1ED7" unicode="&#x1ed7;" horiz-adv-x="520" 
d="M336 459q87 0 144 -56.5t57 -142.5q0 -111 -83.5 -193.5t-196.5 -82.5q-89 0 -146 56t-57 145q0 110 84 192t198 82zM314 343q-55 0 -92.5 -42.5t-37.5 -104.5q0 -44 25 -70t67 -26q56 0 93.5 42.5t37.5 106.5q0 43 -25 68.5t-68 25.5zM249 483l-90 45l169 148h79
l121 -148l-104 -45l-75 81zM449 837l103 -23q-12 -52 -32 -77q-33 -43 -92 -43q-41 0 -75 20q-15 9 -24 9q-5 0 -7.5 -4.5t-11.5 -31.5l-101 23q33 120 126 120q32 0 76 -22q14 -8 22 -8q5 0 7 4.5t9 32.5z" />
    <glyph glyph-name="uni1ED8" unicode="&#x1ed8;" horiz-adv-x="762" 
d="M493 683q126 0 212 -85.5t86 -210.5q0 -158 -126.5 -280.5t-289.5 -122.5q-126 0 -211.5 85t-85.5 211q0 104 58 197.5t154 149.5t203 56zM471 558q-102 0 -180 -79t-78 -183q0 -79 53 -133t130 -54q103 0 181 78.5t78 182.5q0 81 -52.5 134.5t-131.5 53.5zM377 -37
q28 0 47 -18.5t19 -46.5q0 -35 -27.5 -61.5t-64.5 -26.5q-29 0 -47.5 18.5t-18.5 46.5q0 35 27.5 61.5t64.5 26.5zM404 693l-90 47l169 153h79l121 -153l-104 -47l-75 83z" />
    <glyph glyph-name="uni1ED9" unicode="&#x1ed9;" horiz-adv-x="520" 
d="M336 459q87 0 144 -56.5t57 -142.5q0 -111 -83.5 -193.5t-196.5 -82.5q-89 0 -146 56t-57 145q0 110 84 192t198 82zM314 343q-55 0 -92.5 -42.5t-37.5 -104.5q0 -44 25 -70t67 -26q56 0 93.5 42.5t37.5 106.5q0 43 -25 68.5t-68 25.5zM425 489l-74 85l-101 -85l-89 46
l169 153h79l120 -153zM255 -37q28 0 47 -18.5t19 -46.5q0 -35 -27.5 -61.5t-63.5 -26.5q-29 0 -48 18.5t-19 46.5q0 35 27.5 61.5t64.5 26.5z" />
    <glyph glyph-name="uni1EDA" unicode="&#x1eda;" horiz-adv-x="776" 
d="M704 724l106 49q35 -28 47.5 -51t12.5 -59q0 -94 -103 -158q24 -59 24 -119q0 -158 -126.5 -280t-290.5 -122q-125 0 -211 85.5t-86 210.5q0 158 126.5 280.5t290.5 122.5q128 0 215 -90q26 12 36 25t10 33q0 17 -10 31t-41 42zM471 558q-102 0 -180 -79t-78 -183
q0 -79 53 -133t130 -54q103 0 181 78.5t78 182.5q0 81 -52.5 134.5t-131.5 53.5zM688 849l-188 -157l-79 47l157 172z" />
    <glyph glyph-name="uni1EDB" unicode="&#x1edb;" horiz-adv-x="569" 
d="M468 500l106 50q34 -28 46.5 -51.5t12.5 -59.5q0 -92 -98 -155q2 -9 2 -24q0 -110 -84 -193t-196 -83q-89 0 -146 56t-57 144q0 111 84 193t197 82q103 0 162 -76q21 17 21 44q0 16 -10 30.5t-40 42.5zM314 343q-55 0 -92.5 -42.5t-37.5 -104.5q0 -44 25 -70t67 -26
q56 0 93.5 42.5t37.5 106.5q0 43 -25 68.5t-68 25.5zM518 645l-188 -158l-79 48l157 172z" />
    <glyph glyph-name="uni1EDC" unicode="&#x1edc;" horiz-adv-x="776" 
d="M704 724l106 49q35 -28 47.5 -51t12.5 -59q0 -94 -103 -158q24 -59 24 -119q0 -158 -126.5 -280t-290.5 -122q-125 0 -211 85.5t-86 210.5q0 158 126.5 280.5t290.5 122.5q128 0 215 -90q26 12 36 25t10 33q0 17 -10 31t-41 42zM471 558q-102 0 -180 -79t-78 -183
q0 -79 53 -133t130 -54q103 0 181 78.5t78 182.5q0 81 -52.5 134.5t-131.5 53.5zM344 849l129 62l103 -172l-94 -47z" />
    <glyph glyph-name="uni1EDD" unicode="&#x1edd;" horiz-adv-x="569" 
d="M468 500l106 50q34 -28 46.5 -51.5t12.5 -59.5q0 -92 -98 -155q2 -9 2 -24q0 -110 -84 -193t-196 -83q-89 0 -146 56t-57 144q0 111 84 193t197 82q103 0 162 -76q21 17 21 44q0 16 -10 30.5t-40 42.5zM314 343q-55 0 -92.5 -42.5t-37.5 -104.5q0 -44 25 -70t67 -26
q56 0 93.5 42.5t37.5 106.5q0 43 -25 68.5t-68 25.5zM197 645l129 62l102 -172l-94 -48z" />
    <glyph glyph-name="uni1EDE" unicode="&#x1ede;" horiz-adv-x="776" 
d="M704 724l106 49q35 -28 47.5 -51t12.5 -59q0 -94 -103 -158q24 -59 24 -119q0 -158 -126.5 -280t-290.5 -122q-125 0 -211 85.5t-86 210.5q0 158 126.5 280.5t290.5 122.5q128 0 215 -90q26 12 36 25t10 33q0 17 -10 31t-41 42zM471 558q-102 0 -180 -79t-78 -183
q0 -79 53 -133t130 -54q103 0 181 78.5t78 182.5q0 81 -52.5 134.5t-131.5 53.5zM570 704h-115q7 36 11.5 48t18.5 27q17 17 17 22t-9 5q-7 0 -46 -12l-23 93q67 23 101 23q47 0 75 -21t28 -56t-31 -72l-19 -24q-5 -7 -8 -33z" />
    <glyph glyph-name="uni1EDF" unicode="&#x1edf;" horiz-adv-x="569" 
d="M468 500l106 50q34 -28 46.5 -51.5t12.5 -59.5q0 -92 -98 -155q2 -9 2 -24q0 -110 -84 -193t-196 -83q-89 0 -146 56t-57 144q0 111 84 193t197 82q103 0 162 -76q21 17 21 44q0 16 -10 30.5t-40 42.5zM314 343q-55 0 -92.5 -42.5t-37.5 -104.5q0 -44 25 -70t67 -26
q56 0 93.5 42.5t37.5 106.5q0 43 -25 68.5t-68 25.5zM411 497h-115q7 36 12 48.5t19 26.5q16 18 16 22q0 5 -9 5q-7 0 -46 -12l-23 93q68 23 101 23q47 0 75 -21t28 -56q0 -36 -30 -72l-20 -24q-4 -5 -8 -33z" />
    <glyph glyph-name="uni1EE0" unicode="&#x1ee0;" horiz-adv-x="776" 
d="M704 724l106 49q35 -28 47.5 -51t12.5 -59q0 -94 -103 -158q24 -59 24 -119q0 -158 -126.5 -280t-290.5 -122q-125 0 -211 85.5t-86 210.5q0 158 126.5 280.5t290.5 122.5q128 0 215 -90q26 12 36 25t10 33q0 17 -10 31t-41 42zM471 558q-102 0 -180 -79t-78 -183
q0 -79 53 -133t130 -54q103 0 181 78.5t78 182.5q0 81 -52.5 134.5t-131.5 53.5zM575 873l103 -24q-13 -54 -34 -81q-33 -44 -91 -44q-39 0 -75 21q-15 9 -25 9q-5 0 -7 -4.5t-11 -31.5l-101 23q33 125 127 125q35 0 75 -24q14 -8 22 -8q5 0 7.5 5t9.5 34z" />
    <glyph glyph-name="uni1EE1" unicode="&#x1ee1;" horiz-adv-x="569" 
d="M468 500l106 50q34 -28 46.5 -51.5t12.5 -59.5q0 -92 -98 -155q2 -9 2 -24q0 -110 -84 -193t-196 -83q-89 0 -146 56t-57 144q0 111 84 193t197 82q103 0 162 -76q21 17 21 44q0 16 -10 30.5t-40 42.5zM314 343q-55 0 -92.5 -42.5t-37.5 -104.5q0 -44 25 -70t67 -26
q56 0 93.5 42.5t37.5 106.5q0 43 -25 68.5t-68 25.5zM422 669l103 -24q-14 -55 -33 -81q-34 -44 -92 -44q-38 0 -75 21q-15 9 -24 9q-5 0 -7 -4.5t-12 -31.5l-101 23q33 125 127 125q34 0 75 -24q16 -8 23 -8q4 0 6 5t10 34z" />
    <glyph glyph-name="uni1EE2" unicode="&#x1ee2;" horiz-adv-x="776" 
d="M704 724l106 49q35 -28 47.5 -51t12.5 -59q0 -94 -103 -158q24 -59 24 -119q0 -158 -126.5 -280t-290.5 -122q-125 0 -211 85.5t-86 210.5q0 158 126.5 280.5t290.5 122.5q128 0 215 -90q26 12 36 25t10 33q0 17 -10 31t-41 42zM471 558q-102 0 -180 -79t-78 -183
q0 -79 53 -133t130 -54q103 0 181 78.5t78 182.5q0 81 -52.5 134.5t-131.5 53.5zM376 -37q28 0 47 -18.5t19 -46.5q0 -35 -27.5 -61.5t-63.5 -26.5q-29 0 -47.5 18.5t-18.5 46.5q0 35 27.5 61.5t63.5 26.5z" />
    <glyph glyph-name="uni1EE3" unicode="&#x1ee3;" horiz-adv-x="569" 
d="M468 500l106 50q34 -28 46.5 -51.5t12.5 -59.5q0 -92 -98 -155q2 -9 2 -24q0 -110 -84 -193t-196 -83q-89 0 -146 56t-57 144q0 111 84 193t197 82q103 0 162 -76q21 17 21 44q0 16 -10 30.5t-40 42.5zM314 343q-55 0 -92.5 -42.5t-37.5 -104.5q0 -44 25 -70t67 -26
q56 0 93.5 42.5t37.5 106.5q0 43 -25 68.5t-68 25.5zM255 -37q28 0 47 -18.5t19 -46.5q0 -35 -27.5 -61.5t-63.5 -26.5q-29 0 -48 18.5t-19 46.5q0 35 27.5 61.5t64.5 26.5z" />
    <glyph glyph-name="uni1EE4" unicode="&#x1ee4;" horiz-adv-x="642" 
d="M306 667l-65 -409q-6 -46 -6 -62q0 -38 28.5 -62.5t74.5 -24.5q34 0 66.5 15t49.5 38q17 25 29 96l65 409h133l-68 -427q-13 -84 -51 -135q-41 -56 -107 -88.5t-137 -32.5q-95 0 -156.5 54.5t-61.5 137.5q0 27 5 64l68 427h133zM316 -37q28 0 47 -18.5t19 -46.5
q0 -35 -27.5 -61.5t-63.5 -26.5q-29 0 -47.5 18.5t-18.5 46.5q0 35 27.5 61.5t63.5 26.5z" />
    <glyph glyph-name="uni1EE5" unicode="&#x1ee5;" horiz-adv-x="510" 
d="M332 0l3 21q-51 -37 -106 -37q-68 0 -110 42.5t-42 110.5q0 29 5 67l38 239h128l-36 -232q-5 -28 -5 -51q0 -60 59 -60q50 0 73 33q17 23 28 87l35 223h128l-70 -443h-128zM250 -37q28 0 47 -18.5t19 -46.5q0 -35 -27.5 -61.5t-63.5 -26.5q-29 0 -48 18.5t-19 46.5
q0 35 27.5 61.5t64.5 26.5z" />
    <glyph glyph-name="uni1EE6" unicode="&#x1ee6;" horiz-adv-x="642" 
d="M306 667l-65 -409q-6 -46 -6 -62q0 -38 28.5 -62.5t74.5 -24.5q34 0 66.5 15t49.5 38q17 25 29 96l65 409h133l-68 -427q-13 -84 -51 -135q-41 -56 -107 -88.5t-137 -32.5q-95 0 -156.5 54.5t-61.5 137.5q0 27 5 64l68 427h133zM499 704h-115q7 36 12 48.5t19 26.5
q16 18 16 22q0 5 -9 5q-8 0 -45 -12l-24 93q67 23 101 23q47 0 75 -21t28 -56q0 -34 -30 -72l-20 -24q-5 -7 -8 -33z" />
    <glyph glyph-name="uni1EE7" unicode="&#x1ee7;" horiz-adv-x="510" 
d="M332 0l3 21q-51 -37 -106 -37q-68 0 -110 42.5t-42 110.5q0 29 5 67l38 239h128l-36 -232q-5 -28 -5 -51q0 -60 59 -60q50 0 73 33q17 23 28 87l35 223h128l-70 -443h-128zM400 497h-115q7 36 12 48.5t19 26.5q16 18 16 22q0 5 -9 5q-7 0 -45 -12l-24 93q69 23 101 23
q47 0 75 -21t28 -56q0 -36 -30 -72l-20 -24q-4 -7 -8 -33z" />
    <glyph glyph-name="uni1EE8" unicode="&#x1ee8;" horiz-adv-x="704" 
d="M681 667l-11 -67q32 20 32 51q0 16 -10.5 30.5t-40.5 42.5l107 49q34 -28 46.5 -51t12.5 -59q0 -125 -166 -187l-38 -236q-13 -84 -51 -135q-41 -56 -107 -88.5t-137 -32.5q-95 0 -156.5 54.5t-61.5 137.5q0 27 5 64l68 427h133l-65 -409q-6 -46 -6 -62q0 -38 28.5 -62.5
t74.5 -24.5q34 0 66.5 15t49.5 38q17 25 29 96l65 409h133zM622 849l-187 -157l-79 47l157 172z" />
    <glyph glyph-name="uni1EE9" unicode="&#x1ee9;" horiz-adv-x="605" 
d="M530 443l-11 -69q35 20 35 53q0 16 -10 30t-40 43l106 49q34 -28 46.5 -51t12.5 -59q0 -103 -119 -165q-15 -9 -50 -23l-40 -251h-128l3 21q-51 -37 -106 -37q-68 0 -110 42.5t-42 110.5q0 29 5 67l38 239h128l-36 -232q-5 -28 -5 -51q0 -60 59 -60q50 0 73 33
q17 23 28 87l35 223h128zM519 645l-187 -158l-79 48l157 172z" />
    <glyph glyph-name="uni1EEA" unicode="&#x1eea;" horiz-adv-x="704" 
d="M681 667l-11 -67q32 20 32 51q0 16 -10.5 30.5t-40.5 42.5l107 49q34 -28 46.5 -51t12.5 -59q0 -125 -166 -187l-38 -236q-13 -84 -51 -135q-41 -56 -107 -88.5t-137 -32.5q-95 0 -156.5 54.5t-61.5 137.5q0 27 5 64l68 427h133l-65 -409q-6 -46 -6 -62q0 -38 28.5 -62.5
t74.5 -24.5q34 0 66.5 15t49.5 38q17 25 29 96l65 409h133zM284 849l130 62l102 -172l-94 -47z" />
    <glyph glyph-name="uni1EEB" unicode="&#x1eeb;" horiz-adv-x="605" 
d="M530 443l-11 -69q35 20 35 53q0 16 -10 30t-40 43l106 49q34 -28 46.5 -51t12.5 -59q0 -103 -119 -165q-15 -9 -50 -23l-40 -251h-128l3 21q-51 -37 -106 -37q-68 0 -110 42.5t-42 110.5q0 29 5 67l38 239h128l-36 -232q-5 -28 -5 -51q0 -60 59 -60q50 0 73 33
q17 23 28 87l35 223h128zM187 645l129 62l102 -172l-94 -48z" />
    <glyph glyph-name="uni1EEC" unicode="&#x1eec;" horiz-adv-x="704" 
d="M681 667l-11 -67q32 20 32 51q0 16 -10.5 30.5t-40.5 42.5l107 49q34 -28 46.5 -51t12.5 -59q0 -125 -166 -187l-38 -236q-13 -84 -51 -135q-41 -56 -107 -88.5t-137 -32.5q-95 0 -156.5 54.5t-61.5 137.5q0 27 5 64l68 427h133l-65 -409q-6 -46 -6 -62q0 -38 28.5 -62.5
t74.5 -24.5q34 0 66.5 15t49.5 38q17 25 29 96l65 409h133zM506 704h-115q7 35 12 48t19 27q16 18 16 22q0 5 -9 5q-7 0 -45 -12l-24 93q67 23 102 23q47 0 74.5 -21t27.5 -56q0 -36 -30 -72l-19 -24q-5 -4 -9 -33z" />
    <glyph glyph-name="uni1EED" unicode="&#x1eed;" horiz-adv-x="605" 
d="M530 443l-11 -69q35 20 35 53q0 16 -10 30t-40 43l106 49q34 -28 46.5 -51t12.5 -59q0 -103 -119 -165q-15 -9 -50 -23l-40 -251h-128l3 21q-51 -37 -106 -37q-68 0 -110 42.5t-42 110.5q0 29 5 67l38 239h128l-36 -232q-5 -28 -5 -51q0 -60 59 -60q50 0 73 33
q17 23 28 87l35 223h128zM404 497h-115q7 36 12 48.5t19 26.5q16 18 16 22q0 5 -9 5q-7 0 -45 -12l-24 93q68 23 101 23q47 0 75 -20.5t28 -56.5q0 -34 -30 -72l-20 -24q-5 -5 -8 -33z" />
    <glyph glyph-name="uni1EEE" unicode="&#x1eee;" horiz-adv-x="704" 
d="M681 667l-11 -67q32 20 32 51q0 16 -10.5 30.5t-40.5 42.5l107 49q34 -28 46.5 -51t12.5 -59q0 -125 -166 -187l-38 -236q-13 -84 -51 -135q-41 -56 -107 -88.5t-137 -32.5q-95 0 -156.5 54.5t-61.5 137.5q0 27 5 64l68 427h133l-65 -409q-6 -46 -6 -62q0 -38 28.5 -62.5
t74.5 -24.5q34 0 66.5 15t49.5 38q17 25 29 96l65 409h133zM516 873l103 -24q-14 -55 -33 -81q-33 -44 -92 -44q-38 0 -75 21q-15 9 -24 9q-4 0 -7 -3q-1 -1 -12 -33l-101 23q33 125 127 125q34 0 75 -24q16 -8 23 -8q4 0 6 5t10 34z" />
    <glyph glyph-name="uni1EEF" unicode="&#x1eef;" horiz-adv-x="605" 
d="M530 443l-11 -69q35 20 35 53q0 16 -10 30t-40 43l106 49q34 -28 46.5 -51t12.5 -59q0 -103 -119 -165q-15 -9 -50 -23l-40 -251h-128l3 21q-51 -37 -106 -37q-68 0 -110 42.5t-42 110.5q0 29 5 67l38 239h128l-36 -232q-5 -28 -5 -51q0 -60 59 -60q50 0 73 33
q17 23 28 87l35 223h128zM415 669l103 -24q-13 -54 -34 -81q-33 -44 -91 -44q-38 0 -75 21q-15 9 -25 9q-5 0 -7 -4.5t-11 -31.5l-101 23q33 125 127 125q35 0 75 -24q14 -8 22 -8q5 0 7.5 5t9.5 34z" />
    <glyph glyph-name="uni1EF0" unicode="&#x1ef0;" horiz-adv-x="704" 
d="M681 667l-11 -67q32 20 32 51q0 16 -10.5 30.5t-40.5 42.5l107 49q34 -28 46.5 -51t12.5 -59q0 -125 -166 -187l-38 -236q-13 -84 -51 -135q-41 -56 -107 -88.5t-137 -32.5q-95 0 -156.5 54.5t-61.5 137.5q0 27 5 64l68 427h133l-65 -409q-6 -46 -6 -62q0 -38 28.5 -62.5
t74.5 -24.5q34 0 66.5 15t49.5 38q17 25 29 96l65 409h133zM315 -37q29 0 48 -18.5t19 -46.5q0 -35 -27.5 -61.5t-63.5 -26.5q-29 0 -48 18.5t-19 46.5q0 35 27.5 61.5t63.5 26.5z" />
    <glyph glyph-name="uni1EF1" unicode="&#x1ef1;" horiz-adv-x="605" 
d="M530 443l-11 -69q35 20 35 53q0 16 -10 30t-40 43l106 49q34 -28 46.5 -51t12.5 -59q0 -103 -119 -165q-15 -9 -50 -23l-40 -251h-128l3 21q-51 -37 -106 -37q-68 0 -110 42.5t-42 110.5q0 29 5 67l38 239h128l-36 -232q-5 -28 -5 -51q0 -60 59 -60q50 0 73 33
q17 23 28 87l35 223h128zM250 -37q28 0 47 -18.5t19 -46.5q0 -35 -27.5 -61.5t-64.5 -26.5q-29 0 -47.5 18.5t-18.5 46.5q0 35 27.5 61.5t64.5 26.5z" />
    <glyph glyph-name="Ygrave" unicode="&#x1ef2;" horiz-adv-x="552" 
d="M253 276l-160 391h149l100 -254l181 254h148l-284 -391l-44 -276h-133zM248 849l129 62l103 -172l-94 -47z" />
    <glyph glyph-name="ygrave" unicode="&#x1ef3;" horiz-adv-x="474" 
d="M167 22l-109 421h137l66 -265l159 265h137l-409 -677h-135zM180 645l129 62l103 -172l-94 -48z" />
    <glyph glyph-name="uni1EF4" unicode="&#x1ef4;" horiz-adv-x="552" 
d="M253 276l-160 391h149l100 -254l181 254h148l-284 -391l-44 -276h-133zM271 -37q29 0 48 -18.5t19 -46.5q0 -35 -27.5 -61.5t-64.5 -26.5q-29 0 -47.5 18.5t-18.5 46.5q0 35 27.5 61.5t63.5 26.5z" />
    <glyph glyph-name="uni1EF5" unicode="&#x1ef5;" horiz-adv-x="474" 
d="M167 22l-109 421h137l66 -265l159 265h137l-409 -677h-135zM353 -37q28 0 47 -18.5t19 -46.5q0 -35 -27.5 -61.5t-64.5 -26.5q-29 0 -47.5 18.5t-18.5 46.5q0 35 27.5 61.5t64.5 26.5z" />
    <glyph glyph-name="uni1EF6" unicode="&#x1ef6;" horiz-adv-x="552" 
d="M253 276l-160 391h149l100 -254l181 254h148l-284 -391l-44 -276h-133zM456 704h-115q7 35 12 48t19 27q16 18 16 22q0 5 -9 5q-7 0 -45 -12l-24 93q68 23 102 23q47 0 74.5 -21t27.5 -56q0 -36 -30 -72l-19 -24q-5 -4 -9 -33z" />
    <glyph glyph-name="uni1EF7" unicode="&#x1ef7;" horiz-adv-x="474" 
d="M167 22l-109 421h137l66 -265l159 265h137l-409 -677h-135zM385 497h-115q7 36 12 48.5t19 26.5q16 18 16 22q0 5 -9 5q-7 0 -46 -12l-23 93q68 23 101 23q47 0 75 -21t28 -56t-31 -72l-19 -24q-6 -7 -8 -33z" />
    <glyph glyph-name="uni1EF8" unicode="&#x1ef8;" horiz-adv-x="552" 
d="M253 276l-160 391h149l100 -254l181 254h148l-284 -391l-44 -276h-133zM471 873l103 -24q-12 -53 -33 -81q-33 -44 -92 -44q-38 0 -75 21q-14 9 -24 9q-4 0 -6.5 -4.5t-12.5 -31.5l-100 23q31 125 127 125q33 0 75 -24q14 -8 22 -8q5 0 6.5 5t9.5 34z" />
    <glyph glyph-name="uni1EF9" unicode="&#x1ef9;" horiz-adv-x="474" 
d="M167 22l-109 421h137l66 -265l159 265h137l-409 -677h-135zM400 669l103 -24q-14 -55 -33 -81q-34 -44 -92 -44q-38 0 -75 21q-15 9 -24 9q-5 0 -7 -4.5t-12 -31.5l-101 23q33 125 127 125q34 0 75 -24q16 -8 23 -8q4 0 6 5t10 34z" />
    <glyph glyph-name="uni2002" unicode="&#x2002;" horiz-adv-x="480" 
 />
    <glyph glyph-name="uni2003" unicode="&#x2003;" horiz-adv-x="980" 
 />
    <glyph glyph-name="uni2004" unicode="&#x2004;" horiz-adv-x="313" 
 />
    <glyph glyph-name="uni2005" unicode="&#x2005;" horiz-adv-x="230" 
 />
    <glyph glyph-name="uni2006" unicode="&#x2006;" horiz-adv-x="47" 
 />
    <glyph glyph-name="uni2007" unicode="&#x2007;" horiz-adv-x="536" 
 />
    <glyph glyph-name="uni2009" unicode="&#x2009;" horiz-adv-x="105" 
 />
    <glyph glyph-name="uni200A" unicode="&#x200a;" horiz-adv-x="13" 
 />
    <glyph glyph-name="uni2011" unicode="&#x2011;" horiz-adv-x="283" 
d="M70 289h235l-19 -117h-235z" />
    <glyph glyph-name="figuredash" unicode="&#x2012;" horiz-adv-x="594" 
d="M150 289h386l-19 -117h-386z" />
    <glyph glyph-name="endash" unicode="&#x2013;" horiz-adv-x="594" 
d="M150 289h386l-19 -117h-386z" />
    <glyph glyph-name="emdash" unicode="&#x2014;" horiz-adv-x="645" 
d="M70 289h597l-19 -117h-597z" />
    <glyph glyph-name="afii00208" unicode="&#x2015;" horiz-adv-x="645" 
d="M70 289h597l-19 -117h-597z" />
    <glyph glyph-name="underscoredbl" unicode="&#x2017;" horiz-adv-x="528" 
d="M-18 -36h553l-17 -105h-553zM-41 -181h553l-17 -105h-553z" />
    <glyph glyph-name="quoteleft" unicode="&#x2018;" horiz-adv-x="305" 
d="M228 416l-111 43l166 275l89 -38z" />
    <glyph glyph-name="quoteright" unicode="&#x2019;" horiz-adv-x="272" 
d="M238 734l111 -43l-167 -275l-89 38z" />
    <glyph glyph-name="quotesinglbase" unicode="&#x201a;" horiz-adv-x="272" 
d="M142 132l111 -43l-167 -275l-89 38z" />
    <glyph glyph-name="quotereversed" unicode="&#x201b;" horiz-adv-x="272" 
d="M267 734l57 -280l-102 -38l-79 275z" />
    <glyph glyph-name="quotedblleft" unicode="&#x201c;" horiz-adv-x="462" 
d="M384 416l-110 43l166 275l89 -38zM372 696l-144 -280l-111 43l166 275z" />
    <glyph glyph-name="quotedblright" unicode="&#x201d;" horiz-adv-x="462" 
d="M261 734l110 -43l-166 -275l-89 38zM273 454l145 280l110 -43l-166 -275z" />
    <glyph glyph-name="quotedblbase" unicode="&#x201e;" horiz-adv-x="462" 
d="M165 132l110 -43l-166 -275l-89 38zM322 132l110 -43l-166 -275l-89 38z" />
    <glyph glyph-name="dagger" unicode="&#x2020;" horiz-adv-x="558" 
d="M320 665h129l-33 -211h139l-20 -122h-138l-82 -516h-130l82 516h-139l19 122h139z" />
    <glyph glyph-name="daggerdbl" unicode="&#x2021;" horiz-adv-x="558" 
d="M219 27h-139l19 122h139l29 183h-139l20 122h139l33 211h130l-34 -211h139l-19 -122h-139l-29 -183h139l-20 -122h-138l-34 -211h-129z" />
    <glyph glyph-name="bullet" unicode="&#x2022;" horiz-adv-x="508" 
d="M335 500q60 0 100.5 -40t40.5 -100q0 -76 -59.5 -134.5t-137.5 -58.5q-60 0 -100.5 40t-40.5 100q0 76 59.5 134.5t137.5 58.5z" />
    <glyph glyph-name="ellipsis" unicode="&#x2026;" horiz-adv-x="777" 
d="M162 138q29 0 48 -18t19 -46q0 -35 -27.5 -61.5t-63.5 -26.5q-29 0 -48 18t-19 46q0 35 27.5 61.5t63.5 26.5zM659 138q29 0 48 -18t19 -46q0 -35 -27.5 -61.5t-63.5 -26.5q-29 0 -48 18t-19 46q0 35 27.5 61.5t63.5 26.5zM411 138q29 0 48 -18t19 -46q0 -35 -27.5 -61.5
t-63.5 -26.5q-29 0 -48 18t-19 46q0 35 27.5 61.5t63.5 26.5z" />
    <glyph glyph-name="perthousand" unicode="&#x2030;" horiz-adv-x="1267" 
d="M710 683l65 -42l-484 -657l-65 41zM307 676q68 0 103 -36t35 -105q0 -105 -41 -179q-53 -93 -159 -93q-68 0 -103.5 36t-35.5 104q0 106 41 180q53 93 160 93zM295 593q-38 0 -57 -28q-38 -57 -38 -147q0 -72 56 -72q38 0 57 28q38 58 38 144q0 75 -56 75zM758 404
q68 0 103 -36t35 -105q0 -105 -41 -179q-53 -93 -162 -93q-65 0 -100.5 36.5t-35.5 103.5q0 106 41 180q53 93 160 93zM746 321q-38 0 -57 -28q-38 -55 -38 -147q0 -72 56 -72q38 0 57 28q38 56 38 145q0 74 -56 74zM1129 404q67 0 102 -36t35 -105q0 -105 -41 -179
q-53 -93 -162 -93q-65 0 -100.5 36.5t-35.5 104.5q0 105 41 179q52 93 161 93zM1116 321q-38 0 -57 -28q-38 -55 -38 -147q0 -72 56 -72q38 0 57 28q38 56 38 145q0 74 -56 74z" />
    <glyph glyph-name="minute" unicode="&#x2032;" horiz-adv-x="214" 
d="M171 733l109 -42l-165 -274l-89 37z" />
    <glyph glyph-name="second" unicode="&#x2033;" horiz-adv-x="371" 
d="M171 733l109 -42l-165 -274l-89 37zM327 733l110 -42l-166 -274l-88 37z" />
    <glyph glyph-name="guilsinglleft" unicode="&#x2039;" horiz-adv-x="329" 
d="M204 222l98 -151l-99 -70l-144 220l215 225l77 -69z" />
    <glyph glyph-name="guilsinglright" unicode="&#x203a;" horiz-adv-x="329" 
d="M195 222l-97 155l99 69l143 -225l-214 -220l-77 70z" />
    <glyph glyph-name="uni203E" unicode="&#x203e;" horiz-adv-x="528" 
d="M123 857h553l-19 -118h-553z" />
    <glyph glyph-name="fraction" unicode="&#x2044;" horiz-adv-x="180" 
d="M352 683l66 -42l-485 -657l-65 41z" />
    <glyph glyph-name="zerosuperior" unicode="&#x2070;" 
d="M321 810q67 0 102 -36.5t35 -105.5q0 -106 -41 -178q-53 -94 -160 -94q-67 0 -102.5 36t-35.5 104q0 108 41 180q53 94 161 94zM308 727q-38 0 -57 -28q-38 -58 -38 -146q0 -74 56 -74q38 0 57 28q38 55 38 145q0 75 -56 75z" />
    <glyph glyph-name="foursuperior" unicode="&#x2074;" 
d="M412 772l-170 -207h56l12 76h91l-12 -76h42l-13 -82h-42l-12 -77h-91l12 77h-169l11 70l216 264z" />
    <glyph glyph-name="fivesuperior" unicode="&#x2075;" 
d="M298 719l-14 -38q7 1 16 1q53 0 89 -34.5t36 -84.5q0 -67 -54 -117t-126 -50q-47 0 -77.5 21t-55.5 70l82 49q16 -35 28 -46t37 -11q30 0 51.5 20.5t21.5 49.5q0 23 -14.5 37t-38.5 14q-27 0 -48 -20q-1 0 -2 -1q-2 -3 -4 -4l-69 14l79 212h211l-13 -82h-135z" />
    <glyph glyph-name="sixsuperior" unicode="&#x2076;" 
d="M343 816l64 -51l-85 -92q50 -8 79.5 -38t29.5 -75q0 -65 -53 -114.5t-123 -49.5q-56 0 -93 34.5t-37 87.5q0 59 50 114zM286 593q-28 0 -48.5 -19.5t-20.5 -46.5q0 -22 14 -35.5t37 -13.5q28 0 49 20.5t21 48.5q0 20 -14.5 33t-37.5 13z" />
    <glyph glyph-name="sevensuperior" unicode="&#x2077;" 
d="M138 431l209 288h-172l13 82h286l-10 -61l-252 -349z" />
    <glyph glyph-name="eightsuperior" unicode="&#x2078;" 
d="M191 617q-23 27 -23 59q0 53 46 93.5t107 40.5q52 0 84.5 -28.5t32.5 -73.5q0 -51 -46 -91q32 -35 32 -72q0 -61 -49.5 -105t-118.5 -44q-56 0 -91.5 30.5t-35.5 79.5q0 62 62 111zM283 574q-26 0 -44 -16t-18 -40q0 -41 48 -41q27 0 45 16t18 41q0 40 -49 40zM310 731
q-23 0 -38.5 -14t-15.5 -34q0 -15 11 -24t30 -9q23 0 38 13.5t15 33.5q0 16 -11 25t-29 9z" />
    <glyph glyph-name="ninesuperior" unicode="&#x2079;" 
d="M235 391l-64 50l85 93q-51 7 -80 37t-29 75q0 65 53 114.5t123 49.5q56 0 93 -34.5t37 -87.5q0 -59 -50 -114zM310 728q-29 0 -50 -20.5t-21 -48.5q0 -20 14.5 -33t37.5 -13q29 0 49.5 19t20.5 47q0 22 -14 35.5t-37 13.5z" />
    <glyph glyph-name="zeroinferior" unicode="&#x2080;" 
d="M236 275q67 0 102.5 -36.5t35.5 -105.5q0 -106 -41 -178q-53 -94 -162 -94q-65 0 -100.5 36.5t-35.5 104.5q0 107 41 179q53 94 160 94zM224 192q-38 0 -57 -28q-38 -58 -38 -146q0 -74 56 -74q38 0 57 28q38 55 38 145q0 75 -56 75z" />
    <glyph glyph-name="oneinferior" unicode="&#x2081;" 
d="M234 -130h-91l45 286l-46 -23l-33 73l118 59h70z" />
    <glyph glyph-name="twoinferior" unicode="&#x2082;" 
d="M37 -130l11 68l167 151q48 43 48 73q0 29 -38 29q-25 0 -37.5 -11.5t-29.5 -48.5l-82 22q46 121 163 121q53 0 84.5 -27t31.5 -73q0 -66 -63 -124l-108 -97h145l-13 -83h-279z" />
    <glyph glyph-name="threeinferior" unicode="&#x2083;" 
d="M166 116h40q53 0 53 45q0 31 -38 31q-19 0 -32 -8t-35 -35l-70 40q37 47 70 66t79 19q53 0 85.5 -28t32.5 -73q0 -52 -44 -93q27 -32 27 -68q0 -62 -49 -106.5t-119 -44.5q-41 0 -71 18t-43 49q-7 15 -11 57l92 22l1 -9q3 -30 13 -42t33 -12q26 0 43.5 16t17.5 40
q0 36 -48 36h-40z" />
    <glyph glyph-name="fourinferior" unicode="&#x2084;" 
d="M327 236l-169 -206h55l12 75h91l-12 -75h42l-13 -82h-42l-12 -78h-91l12 78h-169l11 70l216 263z" />
    <glyph glyph-name="fiveinferior" unicode="&#x2085;" 
d="M213 183l-14 -38q7 1 16 1q53 0 89 -34.5t36 -84.5q0 -67 -54 -116.5t-126 -49.5q-47 0 -78 21t-55 69l82 50q16 -35 28 -46t37 -11q30 0 51.5 20.5t21.5 49.5q0 23 -14.5 37t-38.5 14q-28 0 -48 -20l-6 -5l-69 14l79 211h211l-13 -82h-135z" />
    <glyph glyph-name="sixinferior" unicode="&#x2086;" 
d="M258 281l64 -51l-85 -93q50 -7 79.5 -37t29.5 -75q0 -65 -53 -114.5t-123 -49.5q-56 0 -93 34.5t-37 87.5q0 59 50 114zM202 58q-29 0 -49.5 -19.5t-20.5 -46.5q0 -22 14.5 -35.5t37.5 -13.5q28 0 49 20.5t21 48.5q0 20 -14.5 33t-37.5 13z" />
    <glyph glyph-name="seveninferior" unicode="&#x2087;" 
d="M53 -105l209 288h-172l13 82h285l-9 -61l-252 -349z" />
    <glyph glyph-name="eightinferior" unicode="&#x2088;" 
d="M106 81q-23 27 -23 60q0 53 46 93.5t107 40.5q52 0 84.5 -28.5t32.5 -74.5q0 -51 -46 -91q32 -33 32 -72q0 -61 -50 -104.5t-118 -43.5q-56 0 -91.5 30.5t-35.5 79.5q0 62 62 110zM198 38q-26 0 -44 -16t-18 -40q0 -40 48 -40q27 0 45 16t18 40q0 40 -49 40zM225 196
q-23 0 -38.5 -14t-15.5 -34q0 -16 11 -25t30 -9q23 0 38 13.5t15 33.5q0 16 -11 25.5t-29 9.5z" />
    <glyph glyph-name="nineinferior" unicode="&#x2089;" 
d="M151 -145l-64 51l85 92q-50 8 -79.5 38t-29.5 75q0 65 53 114.5t123 49.5q56 0 93 -34.5t37 -87.5q0 -59 -50 -114zM226 193q-28 0 -49 -20.5t-21 -48.5q0 -20 14.5 -33t36.5 -13q29 0 49.5 19t20.5 47q0 22 -14 35.5t-37 13.5z" />
    <glyph glyph-name="franc" unicode="&#x20a3;" horiz-adv-x="758" 
d="M573 667l-20 -123h-227l-23 -145h172l-20 -124h-171l-44 -275h-133l106 667h360zM636 399l-4 -24q43 27 87 27q13 0 42 -3l-18 -114q-24 2 -43 2q-47 0 -68.5 -25t-31.5 -92l-27 -170h-128l63 399h128z" />
    <glyph glyph-name="lira" unicode="&#x20a4;" horiz-adv-x="569" 
d="M310 318h182l-16 -99h-166q-4 -53 -38 -97h279l-19 -122h-470l17 108q1 1 2.5 2t2.5 2l2 1q8 6 13 9q49 40 60 53.5t17 43.5h-79l15 99h63l-1 29h-57l16 99h42v3l2 10q14 99 84.5 161.5t169.5 62.5q66 0 108.5 -31.5t71.5 -100.5l-117 -67q-20 44 -38.5 60t-48.5 16
q-86 0 -100 -114h205l-16 -99h-187z" />
    <glyph glyph-name="peseta" unicode="&#x20a7;" horiz-adv-x="606" 
d="M123 0l64 407h-52l15 94h52l27 166h158q202 4 214 -166h57l-15 -94h-57q-35 -86 -100 -126.5t-166 -38.5h-26l-38 -242h-133zM320 407l-7 -46h34q43 1 65.5 10.5t39.5 35.5h-132zM335 501h132q-8 26 -27 35.5t-63 10.5h-35z" />
    <glyph glyph-name="uni20AB" unicode="&#x20ab;" horiz-adv-x="553" 
d="M444 497h-112l18 112h112l9 58h128l-9 -58h55l-17 -112h-56l-79 -497h-128l4 25q-61 -41 -121 -41q-85 0 -139.5 56.5t-54.5 142.5q0 110 82 193t190 83q58 0 105 -40zM312 343q-54 0 -91 -42.5t-37 -104.5q0 -44 24.5 -70t66.5 -26q54 0 91 43t37 106q0 43 -24.5 68.5
t-66.5 25.5zM23 -40h515l-18 -118h-516z" />
    <glyph glyph-name="Euro" unicode="&#x20ac;" horiz-adv-x="804" 
d="M702 347h-369q-5 -26 -5 -29h358l-58 -99h-286q53 -110 173 -110q55 0 110.5 28t127.5 91l-26 -166q-2 -1 -5 -3l-2 -1q-4 -3 -11 -8t-9 -6q-39 -27 -95 -43.5t-108 -16.5q-116 0 -196.5 63t-103.5 172h-109l58 99h47l1 2l1 10q0 1 1 6.5t2 10.5h-90l58 99h66
q66 116 162.5 176.5t214.5 60.5q70 0 120.5 -22t109.5 -78l-70 -121q-53 54 -93 75t-92 21q-94 0 -164 -64q-15 -14 -43 -48h383z" />
    <glyph glyph-name="uni20B4" unicode="&#x20b4;" horiz-adv-x="624" 
d="M283 483l-98 69q54 70 108 101t122 31q84 0 136.5 -46.5t52.5 -120.5q0 -38 -14 -72h31l-14 -91h-90q-21 -14 -49 -28h134l-14 -91h-306q-26 -21 -26 -48q0 -33 23.5 -55t59.5 -22q52 0 84 43q11 13 36 71l125 -34q-32 -80 -73 -124q-77 -80 -191 -80q-87 0 -143.5 51.5
t-56.5 131.5q0 30 12 66h-24l14 91h72q29 23 39 28h-106l14 91h300q29 20 29 51q0 29 -20 46.5t-52 17.5t-55 -15.5t-60 -61.5z" />
    <glyph glyph-name="uni2101" unicode="&#x2101;" horiz-adv-x="939" 
d="M397 359h-151l-48 -90h-98l219 400h104l68 -298l-75 -102zM379 443l-25 119l-63 -119h88zM693 140v-3q4 -39 13.5 -52t33.5 -13q23 0 41.5 16t18.5 37q0 18 -45 36l-34 13q-79 31 -79 95q0 56 47 97t112 41q83 0 118 -74l3 -5l3 -6l-85 -46q-15 29 -25.5 37.5t-29.5 8.5
t-34 -12t-15 -28q0 -17 35 -31l36 -13q89 -36 89 -100q0 -60 -51.5 -105.5t-119.5 -45.5q-43 0 -74.5 20t-43.5 55q-7 17 -9 55zM773 683l65 -42l-484 -657l-65 41z" />
    <glyph glyph-name="afii61248" unicode="&#x2105;" horiz-adv-x="1049" 
d="M782 683l65 -42l-484 -657l-65 41zM838 405q80 0 134 -51t54 -127q0 -94 -78 -166t-179 -72q-80 0 -133 51t-53 128q0 93 77.5 165t177.5 72zM824 321q-58 0 -102.5 -43.5t-44.5 -100.5q0 -43 31 -73.5t75 -30.5q59 0 103.5 43t44.5 100q0 46 -30 75.5t-77 29.5zM542 598
l-76 -60q-24 31 -45 43t-50 12q-60 0 -104 -43t-44 -101q0 -45 30.5 -74.5t77.5 -29.5q50 0 101 44q10 9 15 13l57 -60l-6 -5q-8 -6 -10 -8q-78 -68 -169 -68q-82 0 -136 50.5t-54 127.5q0 95 77.5 167t179.5 72q91 0 156 -80z" />
    <glyph glyph-name="uni2117" unicode="&#x2117;" horiz-adv-x="835" 
d="M296 558h119q64 0 98 -20q33 -19 51.5 -52.5t18.5 -73.5q0 -86 -69 -126q-35 -21 -101 -21h-14v-157h-103v450zM399 361h22q32 0 46.5 11.5t14.5 39.5q0 27 -14.5 38.5t-46.5 11.5h-22v-101zM424 714q153 0 263.5 -112.5t110.5 -267.5q0 -158 -111 -269.5t-269 -111.5
q-159 0 -270 111.5t-111 271.5q0 158 113 268t274 110zM413 628q-118 0 -204 -87t-86 -207q0 -122 86 -208.5t208 -86.5q123 0 209 86.5t86 210.5q0 122 -87.5 207t-211.5 85z" />
    <glyph glyph-name="trademark" unicode="&#x2122;" horiz-adv-x="668" 
d="M269 673v-58h-76v-254h-63v254h-76v58h215zM298 361v312h59l100 -173l100 173h58v-312h-63v189l-72 -126h-47l-72 126v-189h-63z" />
    <glyph glyph-name="uni2126" unicode="&#x2126;" horiz-adv-x="793" 
d="M433 0v163q68 21 98 43q81 59 81 154q0 83 -63 141t-152 58q-90 0 -153 -58t-63 -141q0 -105 98 -165q20 -13 81 -32v-163h-297v124h98q-53 49 -77 92q-37 69 -37 144q0 133 103 228t247 95q143 0 246 -95t103 -228q0 -87 -48 -161q-18 -30 -66 -75h98v-124h-297z" />
    <glyph glyph-name="estimated" unicode="&#x212e;" horiz-adv-x="743" 
d="M687 294h-470v-91q20 -51 42 -71q39 -36 117 -36q104 0 157 74q10 14 29 56h117q-27 -90 -57 -130q-40 -54 -103.5 -83t-141.5 -29q-149 0 -234.5 92t-85.5 253q0 162 87 258t233 96q102 0 179.5 -51t108.5 -139q19 -58 22 -199zM536 396v75q-42 100 -158 100
q-62 0 -96 -21.5t-65 -80.5v-73h319z" />
    <glyph glyph-name="onethird" unicode="&#x2153;" horiz-adv-x="833" 
d="M648 683l66 -41l-485 -658l-65 42zM620 246h40q54 0 54 45q0 31 -38 31q-19 0 -31.5 -8t-36.5 -35l-70 40q37 47 70 66t80 19q53 0 85.5 -28t32.5 -73q0 -52 -45 -93q28 -32 28 -69q0 -62 -49.5 -106t-118.5 -44q-41 0 -71.5 18t-43.5 49q-7 19 -11 57l92 22l1 -9
q4 -30 14 -42t32 -12q27 0 44.5 16t17.5 40q0 36 -49 36h-39zM265 272h-91l45 286l-46 -23l-33 72l118 59h70z" />
    <glyph glyph-name="twothirds" unicode="&#x2154;" horiz-adv-x="833" 
d="M683 683l66 -42l-485 -657l-65 41zM88 272l11 68l167 151q48 43 48 73q0 29 -38 29q-25 0 -38 -11.5t-29 -48.5l-82 22q46 121 163 121q53 0 84.5 -27t31.5 -73q0 -66 -63 -124l-108 -97h145l-13 -83h-279zM619 246h40q54 0 54 44q0 32 -38 32q-19 0 -32 -8t-36 -35
l-70 40q38 47 71 66t79 19q53 0 85.5 -28t32.5 -73q0 -52 -45 -93q27 -32 27 -69q0 -62 -49.5 -106t-118.5 -44q-41 0 -71 18t-43 49q-7 14 -11 57l92 22q4 -37 13.5 -50t33.5 -13q26 0 43.5 16t17.5 40q0 36 -48 36h-40z" />
    <glyph glyph-name="oneeighth" unicode="&#x215b;" horiz-adv-x="833" 
d="M639 683l65 -42l-484 -657l-65 41zM266 272h-91l45 286l-46 -23l-33 72l118 59h70zM554 210q-22 28 -22 60q0 53 46 93.5t107 40.5q52 0 84.5 -28.5t32.5 -74.5q0 -51 -47 -91q33 -33 33 -71q0 -61 -49.5 -104.5t-118.5 -43.5q-56 0 -91.5 30.5t-35.5 78.5q0 63 61 110z
M647 168q-26 0 -44 -16t-18 -40q0 -40 48 -40q27 0 45 16t18 40q0 40 -49 40zM673 325q-22 0 -37.5 -14t-15.5 -34q0 -15 11 -24t30 -9q23 0 38 13.5t15 33.5q0 16 -11 25t-30 9z" />
    <glyph glyph-name="threeeighths" unicode="&#x215c;" horiz-adv-x="833" 
d="M664 683l65 -42l-484 -657l-65 41zM544 210q-23 27 -23 60q0 53 46 93.5t107 40.5q52 0 84.5 -28.5t32.5 -74.5q0 -51 -46 -91q32 -33 32 -71q0 -61 -49.5 -104.5t-117.5 -43.5q-56 0 -91.5 30.5t-35.5 78.5q0 63 61 110zM637 168q-26 0 -44 -16t-18 -40q0 -40 48 -40
q26 0 44 16t18 40q0 40 -48 40zM663 325q-23 0 -38.5 -14t-15.5 -34q0 -15 11 -24t30 -9q23 0 38 13.5t15 33.5q0 16 -11 25t-29 9zM225 517h40q54 0 54 45q0 31 -39 31q-19 0 -31.5 -8.5t-35.5 -34.5l-70 40q38 48 70.5 67t78.5 19q53 0 86 -28t33 -74q0 -54 -45 -93
q27 -32 27 -68q0 -62 -49 -106.5t-119 -44.5q-41 0 -71 18t-43 49q-7 15 -11 57l92 22q4 -37 13.5 -50t33.5 -13q26 0 43.5 16t17.5 40q0 36 -48 36h-40z" />
    <glyph glyph-name="fiveeighths" unicode="&#x215d;" horiz-adv-x="833" 
d="M667 683l65 -42l-484 -657l-66 41zM279 583l-14 -38q7 1 16 1q53 0 89 -34.5t36 -84.5q0 -67 -54 -116.5t-126 -49.5q-47 0 -78 21t-55 69l82 50q16 -35 28 -46t37 -11q30 0 51.5 20.5t21.5 49.5q0 23 -14.5 36.5t-38.5 13.5q-28 0 -48 -19q-3 -3 -6 -5l-69 14l79 212
h211l-13 -83h-135zM544 210q-23 27 -23 60q0 53 46 93.5t107 40.5q52 0 84.5 -28.5t32.5 -74.5q0 -51 -46 -91q33 -33 33 -71q0 -61 -50 -104.5t-118 -43.5q-56 0 -91.5 30.5t-35.5 78.5q0 62 61 110zM637 168q-26 0 -44 -16t-18 -40q0 -40 48 -40q27 0 45 16t18 40
q0 40 -49 40zM663 325q-23 0 -38.5 -14t-15.5 -34q0 -15 11 -24t30 -9q23 0 38 13.5t15 33.5q0 16 -11 25t-29 9z" />
    <glyph glyph-name="seveneighths" unicode="&#x215e;" horiz-adv-x="833" 
d="M629 683l65 -42l-484 -657l-66 41zM542 210q-23 27 -23 60q0 53 46 93.5t107 40.5q52 0 84.5 -28.5t32.5 -74.5q0 -51 -47 -91q33 -34 33 -71q0 -61 -49.5 -104.5t-118.5 -43.5q-56 0 -91.5 30.5t-35.5 78.5q0 63 62 110zM635 168q-27 0 -45 -16t-18 -40q0 -18 13 -29
t35 -11q27 0 45 16t18 40q0 40 -48 40zM660 325q-22 0 -37.5 -14t-15.5 -34q0 -15 11 -24t30 -9q23 0 38 13.5t15 33.5q0 16 -11 25t-30 9zM122 295l209 288h-172l13 83h285l-9 -62l-252 -349z" />
    <glyph glyph-name="partialdiff" unicode="&#x2202;" horiz-adv-x="584" 
d="M105 552l17 115q159 -19 245 -81q163 -115 163 -339q0 -135 -79 -205q-69 -58 -159 -58q-100 0 -169 68.5t-69 168.5q0 97 67 167t159 70q14 0 36 -5l-8 8q-40 40 -86 60t-117 31zM291 343q-47 0 -77.5 -33.5t-30.5 -86.5q0 -55 30 -89t79 -34t79 33.5t30 88.5t-30 88
t-80 33z" />
    <glyph glyph-name="emptyset" unicode="&#x2205;" horiz-adv-x="645" 
d="M251 73l-54 -105l-95 48l54 107q-56 51 -79 98.5t-23 109.5q0 114 78.5 192.5t192.5 78.5q28 0 69 -9l53 104l96 -49l-54 -105q50 -46 69 -82q33 -59 33 -127q0 -113 -80 -191t-196 -78q-27 0 -64 8zM439 444l-136 -268q11 -2 25 -2q62 0 108.5 47.5t46.5 111.5
q0 60 -44 111zM207 224l136 267q-22 2 -25 2q-62 0 -109 -48t-47 -112q0 -57 45 -109z" />
    <glyph glyph-name="Delta" unicode="&#x2206;" horiz-adv-x="689" 
d="M672 0h-655l257 667h141zM203 124h282l-141 380z" />
    <glyph glyph-name="product" unicode="&#x220f;" horiz-adv-x="661" 
d="M230 0h-133v544h-77v123h620v-123h-77v-544h-133v544h-200v-544z" />
    <glyph glyph-name="summation" unicode="&#x2211;" horiz-adv-x="671" 
d="M270 345l-155 221v101h453v-123h-285l142 -199l-155 -221h317v-124h-491v101z" />
    <glyph glyph-name="minus" unicode="&#x2212;" horiz-adv-x="556" 
d="M564 370l-19 -116h-453l18 116h454z" />
    <glyph glyph-name="uni2215" unicode="&#x2215;" horiz-adv-x="180" 
d="M352 683l66 -42l-485 -657l-65 41z" />
    <glyph glyph-name="uni2218" unicode="&#x2218;" horiz-adv-x="508" 
d="M256 500q67 0 115.5 -49.5t48.5 -117.5q0 -69 -48.5 -118t-117.5 -49t-118 49t-49 118q0 70 49 118.5t120 48.5zM252 426q-37 0 -64 -27.5t-27 -65.5q0 -39 27 -66t66 -27q38 0 65 27t27 67q0 38 -27.5 65t-66.5 27z" />
    <glyph glyph-name="radical" unicode="&#x221a;" horiz-adv-x="629" 
d="M100 307h-80v122h178l78 -232l212 631h320v-124h-221l-240 -704h-142z" />
    <glyph glyph-name="infinity" unicode="&#x221e;" horiz-adv-x="724" 
d="M363 243q-43 -48 -80 -67t-85 -19q-78 0 -128 51t-50 130q0 77 51 128t128 51q47 0 83.5 -19.5t77.5 -65.5q73 86 166 86q77 0 127 -51.5t50 -130.5q0 -78 -50 -129t-127 -51q-90 0 -163 87zM431 337q25 -36 44.5 -50t43.5 -14q27 0 45 18t18 46t-18.5 46t-46.5 18
q-42 0 -86 -64zM292 337q-24 35 -43.5 49t-44.5 14q-27 0 -45 -18t-18 -45t18.5 -45t46.5 -18q44 0 86 63z" />
    <glyph glyph-name="integral" unicode="&#x222b;" horiz-adv-x="314" 
d="M20 -178v115q27 -9 43 -9q29 0 29 42v614q0 74 34 114.5t96 40.5q34 0 71 -9v-115q-29 9 -43 9q-30 0 -30 -42v-614q0 -74 -34 -114.5t-96 -40.5q-28 0 -70 9z" />
    <glyph glyph-name="similar" unicode="&#x223c;" horiz-adv-x="599" 
d="M113 205l-88 57q36 79 70 113q38 40 100 40q49 0 124 -37q61 -29 86 -29q22 0 35 12.5t45 64.5l90 -52q-37 -74 -61 -98q-50 -52 -114 -52q-48 0 -156 51q-35 15 -55 15q-19 0 -33.5 -16.5t-42.5 -68.5z" />
    <glyph glyph-name="uni2243" unicode="&#x2243;" horiz-adv-x="599" 
d="M113 294l-88 57q38 84 76.5 118t94.5 34q48 0 123 -37q61 -29 86 -29q22 0 35 12.5t45 65.5l90 -53q-35 -72 -60 -98q-54 -52 -114 -52q-30 0 -60.5 10t-96.5 41q-35 15 -55 15q-19 0 -33.5 -16t-42.5 -68zM567 272v-115h-535v115h535z" />
    <glyph glyph-name="approxequal" unicode="&#x2248;" horiz-adv-x="599" 
d="M113 310l-88 57q38 85 76.5 119t94.5 34q48 0 123 -37q61 -29 86 -29q22 0 35 12.5t45 65.5l90 -53q-37 -73 -60 -98q-52 -52 -114 -52q-30 0 -60.5 10t-96.5 41q-35 15 -55 15q-19 0 -33.5 -16.5t-42.5 -68.5zM113 109l-88 57q36 80 70 112q40 40 101 40q48 0 123 -37
q61 -29 86 -29q23 0 36 13t44 65l90 -53q-37 -74 -61 -98q-50 -52 -114 -52q-47 0 -156 51q-35 15 -55 15q-19 0 -34 -16.5t-42 -67.5z" />
    <glyph glyph-name="notequal" unicode="&#x2260;" horiz-adv-x="584" 
d="M366 339l-26 -53h219v-116h-277l-61 -123l-101 42l40 81h-135v116h193l26 53h-219v116h277l61 123l101 -42l-40 -81h135v-116h-193z" />
    <glyph glyph-name="lessequal" unicode="&#x2264;" horiz-adv-x="584" 
d="M553 116l-452 218l16 100l521 221l-20 -131l-336 -139l292 -139l-39 -246h-487l18 116h487z" />
    <glyph glyph-name="greaterequal" unicode="&#x2265;" horiz-adv-x="584" 
d="M67 116h486l-18 -116h-487l39 246l336 139l-292 139l21 131l451 -221l-15 -100z" />
    <glyph glyph-name="dotmath" unicode="&#x22c5;" horiz-adv-x="258" 
d="M194 409q29 0 48 -18t19 -46q0 -35 -27.5 -61.5t-63.5 -26.5q-29 0 -48 18t-19 46q0 35 27.5 61.5t63.5 26.5z" />
    <glyph glyph-name="lozenge" unicode="&#x25ca;" horiz-adv-x="669" 
d="M334 -40l-279 373l279 373l280 -373zM462 333l-128 170l-127 -170l127 -169z" />
    <glyph glyph-name="openbullet" unicode="&#x25e6;" horiz-adv-x="508" 
d="M256 500q67 0 115.5 -49.5t48.5 -117.5q0 -69 -48.5 -118t-117.5 -49t-118 49t-49 118q0 70 49 118.5t120 48.5zM252 426q-37 0 -64 -27.5t-27 -65.5q0 -39 27 -66t66 -27q38 0 65 27t27 67q0 38 -27.5 65t-66.5 27z" />
    <glyph glyph-name="commaaccent" unicode="&#xf6c3;" horiz-adv-x="476" 
d="M188 -19l115 -36l-116 -192l-91 29z" />
    <glyph glyph-name="Acute" unicode="&#xf6c9;" horiz-adv-x="476" 
d="M539 849l-188 -157l-79 47l157 172z" />
    <glyph glyph-name="Caron" unicode="&#xf6ca;" horiz-adv-x="476" 
d="M293 899l74 -83l101 83l89 -47l-169 -153h-79l-121 153z" />
    <glyph glyph-name="Dieresis" unicode="&#xf6cb;" horiz-adv-x="476" 
d="M469 868q28 0 46 -17.5t18 -44.5q0 -33 -26.5 -58.5t-60.5 -25.5q-28 0 -46.5 17.5t-18.5 44.5q0 33 26.5 58.5t61.5 25.5zM283 868q28 0 46 -17.5t18 -44.5q0 -33 -27 -58.5t-62 -25.5q-27 0 -45 17.5t-18 44.5q0 34 26.5 59t61.5 25z" />
    <glyph glyph-name="Grave" unicode="&#xf6ce;" horiz-adv-x="476" 
d="M206 849l129 62l103 -172l-94 -47z" />
    <glyph glyph-name="Hungarumlaut" unicode="&#xf6cf;" horiz-adv-x="476" 
d="M459 852l51 58l95 -60l-187 -157l-63 41l103 117l-189 -158l-65 46l156 171z" />
    <glyph glyph-name="Macron" unicode="&#xf6d0;" horiz-adv-x="476" 
d="M210 850h324l-17 -110h-324z" />
    <glyph glyph-name="one.fitted" horiz-adv-x="560" 
d="M321 506l-84 -43l-46 108l185 96h104l-87 -545h108l-19 -122h-360l19 122h119z" />
    <glyph glyph-name="two.fitted" horiz-adv-x="560" 
d="M70 0l16 103l278 260q84 81 84 138q0 59 -72 59q-43 0 -67.5 -21t-50.5 -82l-118 33q27 73 67 115q73 78 191 78q84 0 133.5 -44t49.5 -120q0 -114 -103 -209l-198 -187h255l-20 -123h-445z" />
    <glyph glyph-name="three.fitted" horiz-adv-x="560" 
d="M257 289l18 118h56q60 0 84 34q19 25 19 56q0 29 -19.5 46t-53.5 17q-32 0 -55 -14.5t-60 -57.5l-101 60q54 72 108.5 103.5t125.5 31.5q85 0 136.5 -45.5t51.5 -120.5q0 -95 -81 -162q50 -51 50 -120q0 -103 -79.5 -177t-190.5 -74q-53 0 -97.5 20.5t-66.5 56.5
q-27 42 -34 121l133 34q7 -63 25 -86t61 -23q49 0 81.5 32t32.5 80q0 70 -89 70h-55z" />
    <glyph glyph-name="four.fitted" horiz-adv-x="560" 
d="M427 689l99 -67l-290 -365h121l21 130h132l-21 -130h70l-20 -122h-69l-21 -135h-133l22 135h-282l17 109z" />
    <glyph glyph-name="five.fitted" horiz-adv-x="560" 
d="M340 544l-32 -88q18 3 32 3q91 0 149 -55.5t58 -141.5q0 -112 -87.5 -195t-203.5 -83q-74 0 -122.5 33.5t-85.5 110.5l119 73q13 -30 19 -42q30 -52 91 -52q55 0 95 39.5t40 95.5q0 43 -27 69.5t-70 26.5q-47 0 -93 -43l-99 22l127 350h333l-20 -123h-223z" />
    <glyph glyph-name="six.fitted" horiz-adv-x="560" 
d="M425 689l91 -76l-147 -167q80 -8 127 -48q62 -54 62 -139q0 -109 -85.5 -192t-196.5 -83q-89 0 -148 57t-59 144q0 100 81 193zM330 326q-53 0 -90.5 -37.5t-37.5 -89.5q0 -41 26 -66.5t67 -25.5q52 0 90.5 39t38.5 92q0 40 -26 64t-68 24z" />
    <glyph glyph-name="seven.fitted" horiz-adv-x="560" 
d="M93 38l356 506h-294l19 123h456l-15 -94l-416 -595z" />
    <glyph glyph-name="eight.fitted" horiz-adv-x="560" 
d="M184 355q-42 49 -42 104q0 89 74 156.5t172 67.5q82 0 133 -47t51 -122q0 -88 -84 -159q59 -55 59 -125q0 -100 -80 -173t-190 -73q-89 0 -145.5 50t-56.5 130q0 112 109 191zM324 292q-49 0 -82.5 -31.5t-33.5 -78.5q0 -36 24 -57t65 -21q50 0 83.5 32t33.5 79
q0 36 -24 56.5t-66 20.5zM370 567q-42 0 -71.5 -28t-29.5 -68q0 -32 20.5 -50t55.5 -18q42 0 71 27.5t29 67.5q0 31 -20.5 50t-54.5 19z" />
    <glyph glyph-name="nine.fitted" horiz-adv-x="560" 
d="M241 -22l-92 76l147 167q-80 8 -127 48q-62 54 -62 139q0 109 85.5 192t196.5 83q89 0 148 -57t59 -144q0 -101 -81 -193zM370 560q-52 0 -90.5 -39t-38.5 -92q0 -39 26 -63.5t68 -24.5q53 0 90.5 37.5t37.5 89.5q0 41 -26 66.5t-67 25.5z" />
    <glyph glyph-name="zero.fitted" horiz-adv-x="560" 
d="M387 683q107 0 163 -59.5t56 -173.5q0 -83 -19 -168t-51 -143q-85 -155 -255 -155q-107 0 -164 59t-57 171q0 86 19 171t51 143q85 155 257 155zM369 560q-68 0 -103 -53q-69 -103 -69 -269q0 -131 102 -131q83 0 128 98q42 94 42 217q0 138 -100 138z" />
    <glyph glyph-name="sterling.fitted" horiz-adv-x="560" 
d="M500 395l-19 -118h-173q-1 -63 -8.5 -93t-31.5 -62h279l-19 -122h-470l17 108q5 3 13 9q55 40 70.5 64t15.5 70q0 15 -1 26h-71l19 118h47q1 80 27 140q28 67 91.5 107.5t140.5 40.5q66 0 108.5 -31.5t71.5 -100.5l-117 -67q-20 44 -38.5 60t-48.5 16q-47 0 -74 -37.5
t-27 -104.5v-23h198z" />
    <glyph glyph-name="dollar.fitted" horiz-adv-x="560" 
d="M70 189l136 35q5 -57 15 -76q19 -39 69 -39q44 0 77.5 31.5t33.5 71.5q0 20 -18 36t-60 33l-55 23q-124 49 -124 152q0 75 51 135.5t132 82.5l14 93h132l-15 -93q44 -13 73 -41.5t52 -81.5l-120 -69q-23 46 -41 61.5t-51 15.5q-36 0 -64.5 -25t-28.5 -57q0 -35 62 -61
l58 -23q139 -56 139 -161q0 -76 -53 -143t-133 -92l-16 -100h-131l14 93q-72 17 -108 65.5t-40 133.5z" />
    <glyph glyph-name="cent.fitted" horiz-adv-x="560" 
d="M359 0h-131l17 106q-64 19 -100 69.5t-36 119.5q0 90 59 165t149 100l17 107h131l-17 -104q67 -20 115 -80l-95 -85q-27 34 -47 45.5t-50 11.5q-57 0 -94.5 -42t-37.5 -106q0 -45 25 -70.5t69 -25.5q32 0 58 13.5t60 47.5l68 -85q-70 -66 -144 -84z" />
    <glyph glyph-name="florin.fitted" horiz-adv-x="560" 
d="M3 -186l43 118q16 -4 17 -4l9 -4q16 -4 22 -4q24 0 40 46l133 362h-43l42 115h43l30 80q27 74 74 114.5t107 40.5q30 0 78 -15l-44 -118q-36 11 -47 11q-24 0 -41 -45l-24 -68h76l-42 -115h-76l-138 -375q-27 -74 -74 -114t-108 -40q-27 0 -77 15z" />
    <glyph glyph-name="Euro.fitted" horiz-adv-x="560" 
d="M590 347h-369q-2 -6 -5 -29h358l-58 -99h-286q53 -110 173 -110q55 0 110.5 28t127.5 91l-26 -166q-2 -1 -5 -3l-2 -1q-3 -3 -10.5 -8t-9.5 -6q-39 -27 -95 -43.5t-108 -16.5q-116 0 -195 61.5t-105 173.5h-109l58 99h47l1 2l1 10q1 2 1.5 7t1.5 10h-90l58 99h67
q61 113 159.5 175t216.5 62q70 0 120 -22t110 -78l-71 -122q-83 97 -184 97q-92 0 -164 -64q-15 -14 -43 -48h383z" />
    <glyph glyph-name="yen.fitted" horiz-adv-x="560" 
d="M239 318l-12 29h-110l16 99h54l-91 221h149l100 -253h1l180 253h148l-160 -221h54l-16 -99h-111l-20 -29h126l-15 -99h-151l-35 -219h-133l35 219h-151l15 99h127z" />
    <glyph glyph-name="one.numerator" 
d="M298 272h-91l45 286l-46 -23l-33 72l118 59h70z" />
    <glyph glyph-name="two.numerator" 
d="M100 272l11 68l167 151q48 43 48 73q0 29 -38 29q-25 0 -38 -11.5t-29 -48.5l-82 22q46 121 163 121q53 0 84.5 -27t31.5 -73q0 -66 -63 -124l-108 -97h145l-13 -83h-279z" />
    <glyph glyph-name="three.numerator" 
d="M229 517h40q54 0 54 45q0 31 -39 31q-19 0 -31.5 -8.5t-35.5 -34.5l-70 40q38 48 70.5 67t78.5 19q53 0 86 -28t33 -74q0 -54 -45 -93q27 -32 27 -68q0 -62 -49 -106.5t-119 -44.5q-41 0 -71 18t-43 49q-7 15 -11 57l92 22q4 -37 13.5 -50t33.5 -13q26 0 43.5 16t17.5 40
q0 36 -48 36h-40z" />
    <glyph glyph-name="four.numerator" 
d="M391 637l-169 -206h55l12 75h91l-12 -75h42l-13 -82h-42l-12 -78h-91l12 78h-169l11 70l216 263z" />
    <glyph glyph-name="five.numerator" 
d="M276 583l-14 -38q7 1 16 1q53 0 89 -34.5t36 -84.5q0 -67 -54 -116.5t-126 -49.5q-47 0 -78 21t-55 69l82 50q16 -35 28 -46t37 -11q30 0 51.5 20.5t21.5 49.5q0 23 -14.5 36.5t-38.5 13.5q-28 0 -48 -19q-3 -3 -6 -5l-69 14l79 212h211l-13 -83h-135z" />
    <glyph glyph-name="six.numerator" 
d="M321 682l64 -51l-85 -92q50 -7 79.5 -37t29.5 -75q0 -65 -53 -114.5t-123 -49.5q-56 0 -93 34.5t-37 86.5q0 61 50 114zM265 459q-29 0 -49.5 -19t-20.5 -46q0 -22 14.5 -35.5t37.5 -13.5q28 0 49 20.5t21 47.5q0 20 -14.5 33t-37.5 13z" />
    <glyph glyph-name="seven.numerator" 
d="M117 295l209 288h-172l13 83h285l-9 -62l-252 -349z" />
    <glyph glyph-name="eight.numerator" 
d="M169 482q-23 27 -23 60q0 53 46 93.5t107 40.5q52 0 84.5 -28.5t32.5 -73.5q0 -52 -46 -92q32 -33 32 -71q0 -61 -49.5 -104.5t-118.5 -43.5q-56 0 -91.5 30.5t-35.5 78.5q0 62 62 110zM261 440q-26 0 -44 -16t-18 -40q0 -40 48 -40q27 0 45 16t18 40q0 40 -49 40z
M287 597q-22 0 -37.5 -14t-15.5 -34q0 -15 11 -24t30 -9q23 0 38 13.5t15 33.5q0 16 -11 25t-30 9z" />
    <glyph glyph-name="nine.numerator" 
d="M214 257l-64 50l85 93q-50 6 -79.5 36.5t-29.5 75.5q0 65 53 114.5t123 49.5q56 0 93 -34.5t37 -87.5q0 -59 -50 -114zM289 594q-29 0 -50 -20.5t-21 -48.5q0 -20 14.5 -33t37.5 -13q29 0 49.5 19t20.5 47q0 22 -14 35.5t-37 13.5z" />
    <glyph glyph-name="zero.numerator" 
d="M299 676q68 0 103 -36t35 -105q0 -105 -41 -179q-54 -93 -159 -93q-68 0 -103.5 36t-35.5 104q0 106 41 180q53 93 160 93zM287 593q-38 0 -57 -28q-38 -58 -38 -145q0 -74 56 -74q38 0 57 28q38 58 38 144q0 75 -56 75z" />
    <glyph glyph-name="one.denominator" 
d="M255 0h-91l45 286l-46 -23l-33 73l118 59h70z" />
    <glyph glyph-name="two.denominator" 
d="M57 0l11 68l167 151q48 44 48 73t-38 29q-25 0 -37.5 -11.5t-29.5 -48.5l-82 22q46 121 163 121q53 0 84.5 -27t31.5 -73q0 -66 -64 -124l-107 -97h145l-13 -83h-279z" />
    <glyph glyph-name="three.denominator" 
d="M186 246h40q54 0 54 45q0 31 -39 31q-18 0 -31 -8.5t-36 -34.5l-70 40q37 47 70 66t80 19q53 0 85.5 -28t32.5 -73q0 -54 -45 -93q27 -32 27 -69q0 -62 -49 -106t-119 -44q-41 0 -71 18t-43 49q-7 15 -11 57l92 22l1 -9q3 -30 13 -42t33 -12q26 0 43.5 16t17.5 40
q0 36 -48 36h-40z" />
    <glyph glyph-name="four.denominator" 
d="M348 365l-169 -205h55l12 75h91l-12 -75h42l-13 -82h-42l-12 -78h-91l12 78h-169l11 70l216 262z" />
    <glyph glyph-name="five.denominator" 
d="M233 313l-14 -38q7 1 16 1q53 0 89 -34.5t36 -84.5q0 -67 -54 -116.5t-126 -49.5q-47 0 -78 21t-55 69l82 49q16 -35 28 -45.5t37 -10.5q30 0 51.5 20.5t21.5 49.5q0 23 -14.5 36.5t-38.5 13.5q-28 0 -48 -19l-6 -6l-69 15l79 211h211l-13 -82h-135z" />
    <glyph glyph-name="six.denominator" 
d="M278 410l64 -51l-85 -92q50 -7 79.5 -37t29.5 -75q0 -65 -53 -114.5t-123 -49.5q-56 0 -93 34.5t-37 86.5q0 61 50 114zM221 187q-29 0 -49 -19t-20 -46q0 -22 14 -35.5t37 -13.5q28 0 49 20.5t21 47.5q0 21 -14.5 33.5t-37.5 12.5z" />
    <glyph glyph-name="seven.denominator" 
d="M74 25l209 288h-172l13 82h285l-9 -61l-252 -349z" />
    <glyph glyph-name="eight.denominator" 
d="M126 210q-23 27 -23 60q0 53 46 93.5t107 40.5q52 0 84.5 -28.5t32.5 -74.5q0 -51 -46 -91q32 -33 32 -71q0 -61 -49.5 -104.5t-118.5 -43.5q-56 0 -91.5 30.5t-35.5 78.5q0 62 62 110zM218 168q-26 0 -44 -16t-18 -40q0 -40 48 -40q27 0 45 16t18 40q0 40 -49 40z
M244 325q-22 0 -37.5 -14t-15.5 -34q0 -15 11 -24t30 -9q23 0 38 13.5t15 33.5q0 16 -11 25t-30 9z" />
    <glyph glyph-name="nine.denominator" 
d="M171 -15l-64 50l85 93q-50 7 -79.5 37t-29.5 75q0 65 53 114.5t123 49.5q56 0 93 -34.5t37 -87.5q0 -59 -50 -114zM246 322q-28 0 -49 -20.5t-21 -47.5q0 -21 14.5 -34t37.5 -13q28 0 48.5 19.5t20.5 46.5q0 22 -14 35.5t-37 13.5z" />
    <glyph glyph-name="zero.denominator" 
d="M256 404q68 0 103 -36t35 -105q0 -105 -41 -179q-53 -93 -159 -93q-68 0 -103.5 36t-35.5 104q0 106 41 180q53 93 160 93zM244 321q-38 0 -57 -28q-38 -55 -38 -147q0 -72 56 -72q38 0 57 28q38 58 38 145q0 74 -56 74z" />
    <glyph glyph-name="onefifth" horiz-adv-x="833" 
d="M640 683l65 -42l-484 -657l-65 41zM654 313l-14 -38q7 1 16 1q53 0 89.5 -34.5t36.5 -84.5q0 -67 -54 -116.5t-126 -49.5q-47 0 -78 21t-55 69l82 49q16 -35 28 -45.5t36 -10.5q31 0 52.5 20.5t21.5 49.5q0 22 -15 36t-38 14q-28 0 -48 -19q-3 -3 -7 -6l-68 15l79 211
h210l-13 -82h-135zM267 272h-91l45 286l-46 -23l-33 72l118 59h70z" />
    <glyph glyph-name="twofifth" horiz-adv-x="833" 
d="M688 683l65 -42l-484 -657l-65 41zM89 272l11 68l167 151q48 43 48 73q0 29 -38 29q-25 0 -38 -11.5t-29 -48.5l-82 22q46 121 163 121q53 0 84.5 -27t31.5 -73q0 -66 -63 -124l-108 -97h145l-13 -83h-279zM652 313l-14 -38q7 1 16 1q53 0 89 -34.5t36 -84.5
q0 -67 -54 -116.5t-126 -49.5q-47 0 -77.5 20.5t-55.5 69.5l83 49q16 -35 27.5 -45.5t36.5 -10.5q30 0 51.5 20.5t21.5 49.5q0 23 -14.5 36.5t-38.5 13.5q-26 0 -48 -19l-1 -1q-1 -1 -2 -2.5t-3 -2.5l-68 15l79 211h210l-13 -82h-135z" />
    <glyph glyph-name="threefifth" horiz-adv-x="833" 
d="M668 683l65 -42l-484 -657l-65 41zM652 313l-14 -38q7 1 16 1q53 0 89 -34.5t36 -84.5q0 -67 -54 -116.5t-126 -49.5q-46 0 -77 21t-56 69l83 49q15 -34 27.5 -45t36.5 -11q30 0 51.5 20.5t21.5 49.5q0 23 -14.5 36.5t-38.5 13.5q-28 0 -47 -19l-7 -6l-68 15l79 211h210
l-13 -82h-135zM225 517h40q54 0 54 45q0 31 -39 31q-19 0 -31.5 -8.5t-35.5 -34.5l-70 40q38 48 70.5 67t78.5 19q53 0 86 -28t33 -74q0 -54 -45 -93q27 -32 27 -68q0 -62 -49 -106.5t-119 -44.5q-41 0 -71 18t-43 49q-7 15 -11 57l92 22q4 -37 13.5 -50t33.5 -13
q26 0 43.5 16t17.5 40q0 36 -48 36h-40z" />
    <glyph glyph-name="fourfifth" horiz-adv-x="833" 
d="M395 637l-169 -206h55l12 75h91l-12 -75h42l-13 -82h-42l-12 -78h-91l12 78h-169l11 70l216 263zM681 683l65 -42l-484 -657l-66 41zM650 313l-14 -38q7 1 16 1q53 0 89.5 -34.5t36.5 -84.5q0 -67 -54 -116.5t-126 -49.5q-47 0 -78 21t-55 69l82 49q15 -34 27.5 -45
t36.5 -11q31 0 52.5 20.5t21.5 49.5q0 22 -15 36t-38 14q-26 0 -48 -19q-3 -3 -7 -6l-68 15l79 211h210l-13 -82h-135z" />
    <glyph glyph-name="onesixth" horiz-adv-x="833" 
d="M654 683l66 -42l-485 -657l-65 41zM692 410l64 -51l-84 -92q50 -7 79 -37t29 -75q0 -65 -53 -114.5t-122 -49.5q-56 0 -93 34.5t-37 86.5q0 61 50 114zM637 187q-29 0 -49.5 -19t-20.5 -46q0 -22 14 -35.5t37 -13.5q28 0 49 20.5t21 47.5q0 20 -14.5 33t-36.5 13z
M268 272h-91l45 286l-46 -23l-33 72l118 59h70z" />
    <glyph glyph-name="fivesixth" horiz-adv-x="833" 
d="M692 683l66 -42l-484 -657l-66 41zM691 410l64 -51l-84 -92q50 -7 79 -37t29 -75q0 -65 -53 -114.5t-122 -49.5q-56 0 -93 34.5t-37 86.5q0 60 49 114zM635 187q-29 0 -49 -19t-20 -46q0 -22 14 -35.5t37 -13.5q28 0 48.5 20.5t20.5 47.5q0 21 -14 33.5t-37 12.5z
M281 583l-14 -38q7 1 16 1q53 0 89 -34.5t36 -84.5q0 -67 -54 -116.5t-126 -49.5q-47 0 -78 21t-55 69l82 50q16 -35 28 -46t37 -11q30 0 51.5 20.5t21.5 49.5q0 23 -14.5 36.5t-38.5 13.5q-28 0 -48 -19q-3 -3 -6 -5l-69 14l79 212h211l-13 -83h-135z" />
    <glyph glyph-name="Dotaccent" horiz-adv-x="476" 
d="M376 871q29 0 48 -18t19 -46q0 -35 -27.5 -61.5t-64.5 -26.5q-29 0 -47.5 18.5t-18.5 46.5q0 34 27.5 60.5t63.5 26.5z" />
    <glyph glyph-name="Ring" horiz-adv-x="476" 
d="M382 909q42 0 70 -27t28 -68q0 -52 -40.5 -91.5t-93.5 -39.5q-43 0 -70.5 27t-27.5 70q0 50 41 89.5t93 39.5zM372 848q-23 0 -41.5 -18.5t-18.5 -41.5q0 -19 12.5 -31.5t30.5 -12.5q24 0 42.5 18t18.5 42q0 19 -12.5 31.5t-31.5 12.5z" />
    <glyph glyph-name="Circumflex" horiz-adv-x="476" 
d="M260 693l-90 47l169 153h79l121 -153l-104 -47l-75 83z" />
    <glyph glyph-name="Breve" horiz-adv-x="476" 
d="M218 871l112 9q-2 -22 -3 -25q-1 -6 -1 -15q0 -16 10.5 -26t27.5 -10q27 0 44 27q4 6 17 49l110 -9q-13 -45 -17.5 -57t-15.5 -28q-58 -88 -155 -88q-57 0 -96 34.5t-39 85.5q0 14 6 53z" />
    <glyph glyph-name="Tilde" horiz-adv-x="476" 
d="M433 873l103 -24q-13 -54 -34 -81q-33 -44 -91 -44q-38 0 -75 21q-15 9 -25 9q-5 0 -6 -3q-1 -1 -12 -33l-101 23q33 125 127 125q33 0 75 -24q14 -8 22 -8q5 0 7.5 5t9.5 34z" />
    <glyph glyph-name="Cedilla" horiz-adv-x="476" 
d="M348 -67l-161 -164l-85 45l137 167z" />
    <glyph glyph-name="Ogonek" horiz-adv-x="476" 
d="M323 0h128q-42 -46 -42 -61q0 -6 9 -6q16 0 45 12l23 -93q-69 -23 -98 -23q-47 0 -75.5 23.5t-28.5 61.5q0 39 39 86z" />
    <glyph glyph-name="Commaaccent" horiz-adv-x="476" 
d="M188 -19l115 -36l-116 -192l-91 29z" />
    <glyph glyph-name="Comma.high" horiz-adv-x="476" 
d="M455 910l115 -35l-116 -192l-91 29z" />
    <glyph glyph-name="Dieresis.alt" horiz-adv-x="476" 
d="M292 868q28 0 46 -17.5t18 -44.5q0 -33 -26.5 -58.5t-60.5 -25.5q-28 0 -46.5 17.5t-18.5 44.5q0 33 26.5 58.5t61.5 25.5zM454 868q28 0 46 -18t18 -44q0 -33 -26.5 -58.5t-61.5 -25.5q-28 0 -46 17.5t-18 44.5q0 34 26.5 59t61.5 25z" />
    <glyph glyph-name="comma.high" horiz-adv-x="476" 
d="M423 706l115 -36l-116 -192l-91 29z" />
    <glyph glyph-name="dieresis.alt" horiz-adv-x="476" 
d="M422 668q28 0 46 -17.5t18 -44.5q0 -33 -26.5 -58.5t-60.5 -25.5q-28 0 -46.5 17.5t-18.5 44.5q0 33 26.5 58.5t61.5 25.5zM260 668q28 0 46 -17.5t18 -44.5q0 -34 -26.5 -59t-62.5 -25q-27 0 -45 17.5t-18 44.5q0 34 26.5 59t61.5 25z" />
    <glyph glyph-name="commareversed" horiz-adv-x="476" 
d="M447 478l-115 35l116 192l91 -29z" />
    <glyph glyph-name="G.salt" horiz-adv-x="731" 
d="M742 559l-108 -89q-41 50 -76.5 69t-84.5 19q-104 0 -181.5 -78t-77.5 -184q0 -80 52 -133.5t131 -53.5q94 0 173 70l12 71h-166l20 123h297l-38 -240q-14 -16 -35 -35q-56 -53 -131.5 -83.5t-153.5 -30.5q-126 0 -211.5 85t-85.5 210q0 105 57.5 198.5t154.5 149.5
t205 56q119 0 201 -75q22 -22 46 -49z" />
    <glyph glyph-name="M.salt" horiz-adv-x="833" 
d="M54 0l174 667h118l119 -361l233 361h119l-38 -667h-134l24 414l-180 -278h-102l-92 277l-107 -413h-134z" />
    <glyph glyph-name="y.salt" horiz-adv-x="474" 
d="M167 22l-109 421h137l66 -264l159 264h137l-357 -588q-62 -104 -139 -104q-29 0 -73 15l39 122q5 -3 7 -3q20 -11 31 -11q12 0 31 30z" />
    <glyph glyph-name="parenleft.salt" horiz-adv-x="329" 
d="M292 808l106 -55q-48 -87 -78 -164q-38 -101 -60.5 -221t-22.5 -226q0 -104 28 -229l-124 -54q-11 39 -14 48q-21 75 -21 207q0 304 122 580q16 36 64 114z" />
    <glyph glyph-name="parenright.salt" horiz-adv-x="329" 
d="M170 753l123 54q12 -38 15 -47q21 -77 21 -207q0 -305 -122 -580q-15 -35 -64 -114l-106 54q48 87 78 164q38 101 60.5 221t22.5 226q0 104 -28 229z" />
    <glyph glyph-name="bracketleft.salt" horiz-adv-x="314" 
d="M389 670h-86l-107 -673h86l-19 -121h-216l145 915h216z" />
    <glyph glyph-name="bracketright.salt" horiz-adv-x="314" 
d="M137 670l19 121h216l-145 -915h-216l19 121h86l107 673h-86z" />
    <glyph glyph-name="afii61248.salt" horiz-adv-x="747" 
d="M586 270q55 0 90.5 -34t35.5 -86q0 -66 -52 -115.5t-122 -49.5q-56 0 -92 34t-36 87q0 66 52.5 115t123.5 49zM570 192q-29 0 -49.5 -22.5t-20.5 -55.5q0 -23 13.5 -37t37.5 -14q31 0 51 22.5t20 56.5q0 23 -14 36.5t-38 13.5zM422 590l-67 -58q-19 22 -30 29t-28 7
q-31 0 -51.5 -22t-20.5 -56q0 -24 13.5 -37.5t37.5 -13.5q33 0 71 38l49 -57q-65 -59 -132 -59q-57 0 -93 34t-36 87q0 66 52.5 115t122.5 49q63 0 112 -56zM630 683l66 -42l-485 -657l-65 41z" />
    <glyph glyph-name="braceleft.salt" horiz-adv-x="313" 
d="M294 -6l-19 -118q-46 -1 -56 -1q-126 0 -126 114q0 23 3 45l31 190q2 18 2 25q0 17 -8 23t-38 13l16 102l12 3q28 8 36.5 17t13.5 37l30 187q25 160 173 160q9 0 56 -1l-19 -119l-25 1h-15q-24 -2 -29.5 -6t-9.5 -26l-32 -201q-12 -71 -51 -106q21 -28 21 -69
q0 -19 -3 -40l-32 -198q-2 -14 -2 -19q0 -13 30 -13h25h16z" />
    <glyph glyph-name="braceright.salt" horiz-adv-x="313" 
d="M18 -5h18q10 0 23 -1q23 0 28.5 5t9.5 28l31 198q14 74 52 109q-21 29 -21 68q0 18 3 38l32 201q1 3 1 18q0 8 -5.5 10.5t-23.5 2.5h-12h-29l19 118q47 2 56 2q126 0 126 -114q0 -24 -3 -46l-30 -187q-2 -16 -2 -22q0 -13 7.5 -20t27.5 -13l11 -3l-16 -101
q-37 -8 -46.5 -17.5t-16.5 -43.5l-30 -190q-25 -160 -173 -160q-10 0 -56 2z" />
    <glyph glyph-name="copyright.salt" horiz-adv-x="453" 
d="M344 629l-43 -40q-18 20 -29.5 27t-27.5 7q-26 0 -44.5 -19.5t-18.5 -47.5t18.5 -47t45.5 -19q26 0 48 25l10 10l42 -41l-3 -4l-4 -4q-43 -43 -93 -43q-52 0 -88 36t-36 87q0 52 36 88t88 36t99 -51zM242 764q86 0 146.5 -62t60.5 -150q0 -83 -61.5 -144t-146.5 -61
q-86 0 -147.5 61t-61.5 147q0 87 61 148t149 61zM239 709q-64 0 -108 -45.5t-44 -110.5q0 -61 45.5 -106t107.5 -45q64 0 109 45t45 108q0 64 -45 109t-110 45z" />
    <glyph glyph-name="registered.salt" horiz-adv-x="453" 
d="M243 764q86 0 146.5 -62t60.5 -150q0 -83 -62 -144t-147 -61q-86 0 -147.5 61t-61.5 148q0 86 61.5 147t149.5 61zM293 537l53 -94q49 46 49 113q0 63 -45 108t-109 45t-109 -45t-45 -108q0 -64 45 -109t109 -45q58 0 102 38h-62l-44 79h-6h-1h-7v-79h-60v233h64
q44 0 69 -20.5t25 -57.5q0 -34 -28 -58zM223 573h7q34 0 34 22q0 24 -34 24h-7v-46z" />
    </font>
</defs>
</svg>
