<?xml version="1.0" standalone="no"?>
<!DOCTYPE svg PUBLIC "-//W3C//DTD SVG 1.1//EN" "http://www.w3.org/Graphics/SVG/1.1/DTD/svg11.dtd" >
<svg xmlns="http://www.w3.org/2000/svg" xmlns:xlink="http://www.w3.org/1999/xlink" version="1.1">
<metadata>
Created by FontForge 20170731 at Thu Sep 10 14:38:15 2015
 By ,,,
Copyright 2014 by (URW)++ Design &#38; Development GmbH
</metadata>
<defs>
<font id="URWGeometric-LightOblique" horiz-adv-x="387" >
  <font-face 
    font-family="URW Geometric Light"
    font-weight="300"
    font-style="oblique"
    font-stretch="normal"
    units-per-em="1000"
    panose-1="0 0 4 0 0 0 0 0 0 0"
    ascent="667"
    descent="-333"
    x-height="443"
    cap-height="667"
    bbox="-118 -244 1248 1052"
    underline-thickness="51"
    underline-position="-198"
    unicode-range="U+0020-FB04"
  />
<missing-glyph horiz-adv-x="257" 
 />
    <glyph glyph-name="afii61352" unicode="Nr&#x2e;" horiz-adv-x="1056" 
d="M959 678q52 0 85.5 -33t33.5 -84q0 -65 -49 -113t-115 -48q-53 0 -86.5 32.5t-33.5 84.5q0 65 49 113t116 48zM949 635q-44 0 -76 -33.5t-32 -80.5q0 -35 21.5 -56.5t58.5 -21.5q47 0 78.5 33t31.5 82q0 35 -22 56t-60 21zM773 288l7 44h247l-7 -44h-247zM233 576
l-91 -576h-59l106 667h59l335 -576l91 576h59l-106 -667h-59z" />
    <glyph glyph-name="ff" unicode="ff" horiz-adv-x="481" 
d="M152 443l13 82q10 67 41.5 102.5t79.5 35.5q15 0 39 -6l-8 -52q-16 5 -28 5q-54 0 -67 -85l-13 -82h84l-8 -51h-84l-63 -392h-56l62 392h-47l9 51h46zM389 443l15 92q21 138 121 138q15 0 39 -6l-9 -52q-15 5 -27 5q-54 0 -68 -85l-14 -92h84l-8 -51h-84l-62 -392h-57
l62 392h-46l8 51h46z" />
    <glyph glyph-name="fi" unicode="fi" horiz-adv-x="428" 
d="M152 443l15 92q21 138 121 138q14 0 38 -6l-8 -52q-15 5 -27 5q-55 0 -68 -85l-14 -92h84l-8 -51h-84l-63 -392h-56l62 392h-47l9 51h46zM431 443l-70 -443h-57l71 443h56zM433 632q16 0 26 -10t10 -26q0 -19 -15 -34t-35 -15q-15 0 -25.5 10.5t-10.5 25.5q0 19 15 34
t35 15z" />
    <glyph glyph-name="fl" unicode="fl" horiz-adv-x="428" 
d="M152 443l15 92q21 138 121 138q14 0 38 -6l-8 -52q-15 5 -27 5q-55 0 -68 -85l-14 -92h84l-8 -51h-84l-63 -392h-56l62 392h-47l9 51h46zM361 0h-56l105 667h57z" />
    <glyph glyph-name="ffi" unicode="ffi" horiz-adv-x="663" 
d="M152 443l13 82q10 67 41.5 102.5t79.5 35.5q15 0 39 -6l-8 -52q-16 5 -28 5q-54 0 -67 -85l-13 -82h84l-8 -51h-84l-63 -392h-56l62 392h-47l9 51h46zM389 443l15 92q21 138 121 138q15 0 39 -6l-9 -52q-15 5 -27 5q-54 0 -68 -85l-14 -92h84l-8 -51h-84l-62 -392h-57
l62 392h-46l8 51h46zM667 443l-71 -443h-56l70 443h57zM669 632q15 0 25 -10t10 -26q0 -20 -15 -34.5t-35 -14.5q-15 0 -25 10.5t-10 25.5q0 19 15 34t35 15z" />
    <glyph glyph-name="ffl" unicode="ffl" horiz-adv-x="664" 
d="M152 443l13 82q10 67 41.5 102.5t79.5 35.5q15 0 39 -6l-8 -52q-16 5 -28 5q-54 0 -67 -85l-13 -82h84l-8 -51h-84l-63 -392h-56l62 392h-47l9 51h46zM389 443l15 92q21 138 121 138q15 0 39 -6l-9 -52q-15 5 -27 5q-54 0 -68 -85l-14 -92h84l-8 -51h-84l-62 -392h-57
l62 392h-46l8 51h46zM597 0h-57l106 667h56z" />
    <glyph glyph-name=".notdef" horiz-adv-x="257" 
 />
    <glyph glyph-name=".null" horiz-adv-x="0" 
 />
    <glyph glyph-name="nonmarkingreturn" horiz-adv-x="333" 
 />
    <glyph glyph-name="space" unicode=" " horiz-adv-x="257" 
 />
    <glyph glyph-name="exclam" unicode="!" horiz-adv-x="269" 
d="M132 154l75 513h66l-88 -513h-53zM146 74q15 0 25 -10t10 -25q0 -19 -15 -33.5t-34 -14.5q-15 0 -25 10t-10 25q0 19 15 33.5t34 14.5z" />
    <glyph glyph-name="quotedbl" unicode="&#x22;" horiz-adv-x="298" 
d="M164 423h-41l29 244h60zM309 423h-41l29 244h60z" />
    <glyph glyph-name="numbersign" unicode="#" horiz-adv-x="586" 
d="M178 243l65 180h-77l16 45h77l75 208l45 -11l-71 -197h173l75 208l45 -10l-71 -198h77l-16 -45h-77l-65 -180h77l-16 -45h-77l-74 -207l-45 11l70 196h-173l-75 -207l-45 11l71 196h-77l16 45h77zM227 243h173l65 180h-173z" />
    <glyph glyph-name="dollar" unicode="$" horiz-adv-x="562" 
d="M365 676l14 91h59l-15 -91q85 -12 125 -94l-52 -31q-37 72 -115 72q-59 0 -104.5 -41.5t-45.5 -95.5q0 -63 87 -99l62 -26q128 -52 128 -146q0 -77 -56 -141t-137 -80l-15 -97h-58l14 93q-71 5 -114 47.5t-48 112.5l60 16q14 -121 124 -121q67 0 118.5 48.5t51.5 112.5
q0 35 -24 59.5t-81 48.5l-60 25q-111 47 -111 136q0 76 54 132.5t139 68.5z" />
    <glyph glyph-name="percent" unicode="%" horiz-adv-x="902" 
d="M761 401q125 0 125 -134q0 -109 -42 -186q-48 -87 -145 -87q-126 0 -126 132q0 111 42 188q47 87 146 87zM755 358q-57 0 -86 -43q-47 -71 -47 -177q0 -101 82 -101q56 0 86 43q47 71 47 180q0 47 -21 72.5t-61 25.5zM733 675l31 -19l-490 -665l-30 20zM310 673
q126 0 126 -134q0 -109 -42 -186q-48 -87 -146 -87q-126 0 -126 132q0 114 42 188q49 87 146 87zM305 630q-57 0 -87 -43q-47 -71 -47 -177q0 -101 82 -101q57 0 87 43q47 70 47 180q0 47 -21 72.5t-61 25.5z" />
    <glyph glyph-name="ampersand" unicode="&#x26;" horiz-adv-x="631" 
d="M285 381l-7 11q-49 74 -49 128q0 64 48 111t114 47q53 0 85 -30.5t32 -79.5q0 -50 -39 -100q-23 -30 -106 -90l-8 -5l146 -217q31 40 69 116l51 -15q-44 -93 -89 -146l74 -111h-69l-45 69q-88 -80 -207 -80q-83 0 -134.5 43t-51.5 113q0 61 40.5 115t132.5 113q4 2 6 4z
M330 411l5 4q68 47 95 80t27 69q0 30 -20.5 48.5t-54.5 18.5q-42 0 -71.5 -30t-29.5 -73t45 -111zM462 113l-152 230l-4 -3l-5 -3q-54 -37 -79 -59t-41 -47q-24 -37 -24 -74q0 -51 38.5 -83t99.5 -32q95 0 167 71z" />
    <glyph glyph-name="quotesingle" unicode="'" horiz-adv-x="153" 
d="M164 423h-41l29 244h60z" />
    <glyph glyph-name="parenleft" unicode="(" horiz-adv-x="285" 
d="M194 -154l-54 -23q-26 89 -26 230q0 253 92 511q35 98 78 165l47 -23q-160 -294 -160 -646q0 -110 23 -214z" />
    <glyph glyph-name="parenright" unicode=")" horiz-adv-x="285" 
d="M89 -177l-47 23q160 295 160 646q0 113 -24 214l54 23q27 -88 27 -231q0 -254 -93 -510q-34 -95 -77 -165z" />
    <glyph glyph-name="asterisk" unicode="*" horiz-adv-x="455" 
d="M188 641l112 -44l15 127h54l-26 -127l127 44l8 -51l-128 -35l64 -99l-49 -32l-54 106l-87 -106l-39 31l95 100l-117 35z" />
    <glyph glyph-name="plus" unicode="+" horiz-adv-x="556" 
d="M305 337l32 200h52l-32 -200h199l-5 -28l-3 -21h-199l-32 -200h-51l32 200h-199l4 28l4 21h198z" />
    <glyph glyph-name="comma" unicode="," horiz-adv-x="218" 
d="M6 -133l114 221l50 -19l-129 -217z" />
    <glyph glyph-name="hyphen" unicode="-" horiz-adv-x="248" 
d="M80 256h168l-8 -51h-168z" />
    <glyph glyph-name="period" unicode="." horiz-adv-x="217" 
d="M120 74q15 0 25 -10t10 -25q0 -19 -15 -33.5t-34 -14.5q-15 0 -25 10t-10 25q0 19 15 33.5t34 14.5z" />
    <glyph glyph-name="slash" unicode="/" horiz-adv-x="540" 
d="M545 676l40 -26l-484 -659l-40 26z" />
    <glyph glyph-name="zero" unicode="0" horiz-adv-x="570" 
d="M391 678q199 0 199 -219q0 -87 -20 -177t-52 -150q-77 -143 -232 -143q-113 0 -161 68q-39 55 -39 148q0 89 20 180t52 150q77 143 233 143zM384 624q-46 0 -86.5 -21t-65.5 -57q-40 -60 -62.5 -145.5t-22.5 -177.5q0 -88 37.5 -134t108.5 -46q122 0 185 138
q51 114 51 262q0 88 -37.5 134.5t-107.5 46.5z" />
    <glyph glyph-name="one" unicode="1" horiz-adv-x="291" 
d="M208 0h-59l96 603l-122 -65l-20 48l153 81h58z" />
    <glyph glyph-name="two" unicode="2" horiz-adv-x="480" 
d="M49 0l9 56l290 276q110 104 110 187q0 47 -31.5 75.5t-84.5 28.5q-55 0 -93 -26.5t-66 -85.5l-51 15q31 73 88.5 112.5t132.5 39.5t119 -40.5t44 -109.5q0 -107 -111 -213l-275 -261h329l-8 -54h-402z" />
    <glyph glyph-name="three" unicode="3" horiz-adv-x="467" 
d="M252 376h30q26 0 57.5 12.5t48.5 29.5q44 42 44 104q0 47 -29.5 74.5t-81.5 27.5q-76 0 -137 -69l-44 27q80 96 190 96q73 0 116.5 -39.5t43.5 -107.5q0 -113 -102 -176q68 -48 68 -132q0 -98 -69.5 -166t-169.5 -68q-72 0 -118 37.5t-56 104.5l-1 10l60 16q8 -50 26 -73
q29 -40 97 -40q73 0 122.5 48t49.5 119q0 54 -32 83t-92 29h-29z" />
    <glyph glyph-name="four" unicode="4" horiz-adv-x="517" 
d="M465 646l-338 -441h241l29 180h59l-29 -180h84l-9 -54h-83l-24 -151h-59l24 151h-303l10 61l356 464z" />
    <glyph glyph-name="five" unicode="5" horiz-adv-x="515" 
d="M293 612l-71 -196h3l7 3q41 15 81 15q83 0 136 -51.5t53 -131.5q0 -105 -78.5 -183.5t-183.5 -78.5q-86 0 -142 53q-19 18 -39 58l52 33q36 -90 136 -90q80 0 137.5 58t57.5 139q0 62 -39.5 101.5t-101.5 39.5q-65 0 -117 -43l-45 10l114 319h283l-8 -55h-235z" />
    <glyph glyph-name="six" unicode="6" horiz-adv-x="541" 
d="M425 675l39 -34l-197 -230q38 14 74 14q82 0 134 -49.5t52 -126.5q0 -103 -79 -181.5t-182 -78.5q-81 0 -134.5 53.5t-53.5 134.5q0 95 77 186zM329 373q-78 0 -135 -57t-57 -134q0 -62 38.5 -100.5t100.5 -38.5q76 0 134 59t58 137q0 59 -39 96.5t-100 37.5z" />
    <glyph glyph-name="seven" unicode="7" horiz-adv-x="448" 
d="M467 612h-350l8 55h415l-8 -51l-427 -625l-47 28z" />
    <glyph glyph-name="eight" unicode="8" horiz-adv-x="504" 
d="M201 355q-58 44 -58 120q0 82 64 142.5t152 60.5q72 0 116.5 -41.5t44.5 -108.5q0 -51 -28 -97t-76 -76q76 -50 76 -139q0 -94 -71 -160.5t-171 -66.5q-80 0 -130 45t-50 118q0 63 34.5 116t96.5 87zM302 324q-72 0 -122.5 -47.5t-50.5 -115.5q0 -53 36 -85.5t95 -32.5
q71 0 122 48t51 116q0 53 -35.5 85t-95.5 32zM350 625q-63 0 -108 -43t-45 -102q0 -46 32 -75t83 -29q62 0 107.5 43t45.5 102q0 47 -31.5 75.5t-83.5 28.5z" />
    <glyph glyph-name="nine" unicode="9" horiz-adv-x="543" 
d="M221 -9l-39 34l198 231q-35 -12 -70 -12q-85 0 -138 48.5t-53 126.5q0 102 79 180.5t182 78.5q82 0 135 -53t53 -135q0 -97 -77 -186zM370 624q-76 0 -134 -59t-58 -136q0 -60 38.5 -96.5t101.5 -36.5q78 0 135 56t57 133q0 62 -39 100.5t-101 38.5z" />
    <glyph glyph-name="colon" unicode=":" horiz-adv-x="217" 
d="M120 74q15 0 25 -10t10 -25q0 -19 -15 -33.5t-34 -14.5q-15 0 -25 10t-10 25q0 19 15 33.5t34 14.5zM176 425q15 0 25 -10t10 -24q0 -19 -14.5 -33.5t-34.5 -14.5q-15 0 -25 10t-10 25q0 19 14.5 33t34.5 14z" />
    <glyph glyph-name="semicolon" unicode=";" horiz-adv-x="219" 
d="M6 -133l114 221l50 -19l-129 -217zM191 412q15 0 25 -10t10 -25q0 -19 -15 -33.5t-34 -14.5q-14 0 -24 10.5t-10 24.5q0 19 14.5 33.5t33.5 14.5z" />
    <glyph glyph-name="less" unicode="&#x3c;" horiz-adv-x="549" 
d="M574 562l-9 -60l-389 -165l336 -166l-9 -60l-389 198l9 56z" />
    <glyph glyph-name="equal" unicode="=" horiz-adv-x="556" 
d="M516 272l-8 -50h-391l8 50h391zM537 403l-8 -50h-391l8 50h391z" />
    <glyph glyph-name="greater" unicode="&#x3e;" horiz-adv-x="549" 
d="M82 111l10 60l388 166l-336 166l9 59l389 -197l-9 -57z" />
    <glyph glyph-name="question" unicode="?" horiz-adv-x="416" 
d="M194 154l10 67q9 48 21.5 68.5t53.5 51.5l50 39q91 67 91 147q0 45 -29.5 70.5t-81.5 25.5q-44 0 -76 -17t-67 -59l-37 36q74 95 186 95q79 0 121.5 -37t42.5 -105q0 -53 -25.5 -97.5t-82.5 -90.5l-59 -47q-31 -25 -37.5 -37t-14.5 -52l-9 -58h-57zM210 74q15 0 25 -10
t10 -25q0 -19 -15 -33.5t-34 -14.5q-15 0 -25 10t-10 26q0 18 15 32.5t34 14.5z" />
    <glyph glyph-name="at" unicode="@" horiz-adv-x="905" 
d="M705 518l-99 -346h30q92 0 149 72t57 189q0 112 -65 173t-184 61q-107 0 -194 -41.5t-145 -120.5q-80 -108 -80 -241q0 -126 81 -195t229 -69q106 0 225 36l9 -43q-111 -37 -245 -37q-100 0 -176.5 30.5t-116.5 86.5q-53 73 -53 184q0 148 91 272q65 88 162.5 135
t215.5 47q139 0 216 -71.5t77 -200.5q0 -77 -29 -146t-79 -110q-66 -55 -179 -55h-138q-68 0 -106.5 37.5t-38.5 102.5q0 83 54 153q73 97 219 97h113zM559 172l86 302h-69q-108 0 -165 -75q-42 -56 -42 -123q0 -49 29.5 -76.5t81.5 -27.5h79z" />
    <glyph glyph-name="A" unicode="A" horiz-adv-x="615" 
d="M71 0h-61l367 667h72l156 -667h-62l-45 193h-322zM206 248h280l-83 361z" />
    <glyph glyph-name="B" unicode="B" horiz-adv-x="520" 
d="M83 0l106 667h132q94 0 140 -28q60 -39 60 -119q0 -110 -112 -170q96 -35 96 -140q0 -97 -83 -161q-67 -49 -172 -49h-167zM200 367h86q50 0 79 9t54 32q46 44 46 104q0 52 -33.5 76.5t-106.5 24.5h-86zM150 55h103q54 0 87 10.5t60 35.5q47 42 47 104q0 60 -44 88
q-37 23 -119 23h-92z" />
    <glyph glyph-name="C" unicode="C" horiz-adv-x="659" 
d="M710 577l-47 -41q-69 86 -178 86q-133 0 -232 -101t-99 -236q0 -105 67.5 -172.5t171.5 -67.5q106 0 210 88l34 -41q-64 -54 -123.5 -78.5t-128.5 -24.5q-127 0 -209 81.5t-82 208.5q0 104 55.5 196t149 147.5t197.5 55.5q126 0 214 -101z" />
    <glyph glyph-name="D" unicode="D" horiz-adv-x="619" 
d="M189 667h131q148 0 229.5 -71t81.5 -199q0 -176 -116.5 -286.5t-300.5 -110.5h-131zM239 612l-88 -557h75q151 0 248 93t97 238q0 107 -68 166.5t-189 59.5h-75z" />
    <glyph glyph-name="E" unicode="E" horiz-adv-x="472" 
d="M513 613h-274l-39 -247h244l-9 -55h-244l-40 -256h284l-8 -55h-344l106 667h333z" />
    <glyph glyph-name="F" unicode="F" horiz-adv-x="433" 
d="M490 613h-251l-39 -247h228l-8 -55h-229l-49 -311h-59l106 667h309z" />
    <glyph glyph-name="G" unicode="G" horiz-adv-x="728" 
d="M665 282h-200l8 55h261l-4 -30q-23 -144 -116.5 -231t-226.5 -87q-128 0 -210.5 81.5t-82.5 208.5q0 104 55.5 196t149 147.5t197.5 55.5q126 0 214 -101l-47 -41q-69 86 -178 86q-133 0 -232 -100.5t-99 -236.5q0 -105 67.5 -172.5t172.5 -67.5q104 0 177.5 64t93.5 173
z" />
    <glyph glyph-name="H" unicode="H" horiz-adv-x="650" 
d="M200 366h365l48 301h59l-106 -667h-59l49 311h-365l-49 -311h-59l106 667h59z" />
    <glyph glyph-name="I" unicode="I" horiz-adv-x="226" 
d="M248 667l-106 -667h-59l106 667h59z" />
    <glyph glyph-name="J" unicode="J" horiz-adv-x="395" 
d="M417 667l-74 -469q-14 -89 -50 -138q-25 -33 -63 -52t-81 -19q-71 0 -134 66l42 42q28 -29 50 -40.5t50 -11.5q102 0 127 153l74 469h59z" />
    <glyph glyph-name="K" unicode="K" horiz-adv-x="560" 
d="M353 393l196 -393h-69l-173 350l-129 -121l-36 -229h-59l106 667h59l-57 -361l383 361h71z" />
    <glyph glyph-name="L" unicode="L" horiz-adv-x="422" 
d="M189 667h59l-97 -612h264l-9 -55h-323z" />
    <glyph glyph-name="M" unicode="M" horiz-adv-x="813" 
d="M403 156l-170 416l-91 -572h-59l106 667h67l185 -450l327 450h67l-105 -667h-60l91 572l-302 -416h-56z" />
    <glyph glyph-name="N" unicode="N" horiz-adv-x="711" 
d="M233 576l-91 -576h-59l106 667h59l335 -576l91 576h59l-106 -667h-59z" />
    <glyph glyph-name="O" unicode="O" horiz-adv-x="765" 
d="M493 678q121 0 202.5 -83.5t81.5 -207.5q0 -102 -56 -194.5t-148.5 -148t-194.5 -55.5q-122 0 -203 83.5t-81 209.5q0 101 55.5 193t148.5 147.5t195 55.5zM481 622q-129 0 -228.5 -102t-99.5 -235q0 -102 67.5 -171.5t165.5 -69.5q131 0 231 101.5t100 234.5
q0 105 -66.5 173.5t-169.5 68.5z" />
    <glyph glyph-name="P" unicode="P" horiz-adv-x="464" 
d="M189 667h131q89 0 132 -26q66 -41 66 -135q0 -52 -23.5 -101t-64.5 -81q-59 -48 -172 -48h-72l-44 -276h-59zM195 330h81q85 0 131 43q52 49 52 127q0 58 -34 85.5t-105 27.5h-81z" />
    <glyph glyph-name="Q" unicode="Q" horiz-adv-x="763" 
d="M612 73l55 -67l-45 -39l-60 72q-91 -50 -181 -50q-123 0 -205.5 83t-82.5 207q0 102 56 195t149 148.5t196 55.5q120 0 201.5 -83.5t81.5 -207.5q0 -88 -44 -171.5t-121 -142.5zM527 81l-46 56l45 39l52 -63q65 48 102 119t37 148q0 104 -66.5 173t-166.5 69
q-131 0 -230.5 -101t-99.5 -235q0 -103 67 -172t166 -69q73 0 140 36z" />
    <glyph glyph-name="R" unicode="R" horiz-adv-x="526" 
d="M189 667h131q97 0 145 -29q69 -44 69 -138q0 -70 -41 -126.5t-110 -81.5l114 -292h-66l-108 280q-39 -4 -65 -4h-72l-44 -276h-59zM195 330h81q99 0 149 46q50 47 50 117q0 61 -38 90t-117 29h-81z" />
    <glyph glyph-name="S" unicode="S" horiz-adv-x="500" 
d="M521 582l-52 -31q-37 72 -115 72q-59 0 -104.5 -41.5t-45.5 -95.5q0 -64 87 -100l62 -25q128 -54 128 -146q0 -90 -72.5 -158t-168.5 -68q-75 0 -120 42t-53 119l60 16q14 -121 124 -121q67 0 118.5 48.5t51.5 112.5q0 35 -24 59.5t-81 48.5l-60 25q-111 47 -111 136
q0 83 65 143t156 60q108 0 155 -96z" />
    <glyph glyph-name="T" unicode="T" horiz-adv-x="432" 
d="M342 612l-96 -612h-60l97 612h-176l9 55h411l-8 -55h-177z" />
    <glyph glyph-name="U" unicode="U" horiz-adv-x="635" 
d="M249 667l-66 -414q-8 -46 -8 -76q0 -54 35 -88q44 -44 114 -44q48 0 94.5 22t71.5 57q29 39 43 129l65 414h60l-69 -435q-14 -84 -49 -131q-37 -52 -98 -82t-127 -30q-86 0 -143 50.5t-57 126.5q0 32 6 66l68 435h60z" />
    <glyph glyph-name="V" unicode="V" horiz-adv-x="547" 
d="M285 68l297 599h61l-333 -667h-72l-122 667h62z" />
    <glyph glyph-name="W" unicode="W" horiz-adv-x="877" 
d="M530 573l-253 -573h-25h-39l-97 667h62l80 -585l258 585h58l72 -585l266 585h61l-308 -667h-26h-38z" />
    <glyph glyph-name="X" unicode="X" horiz-adv-x="518" 
d="M201 667l122 -268l207 268h64l-247 -317l161 -350h-66l-136 299l-231 -299h-65l272 349l-146 318h65z" />
    <glyph glyph-name="Y" unicode="Y" horiz-adv-x="495" 
d="M262 279l-153 388h65l127 -332l232 332h64l-276 -388l-44 -279h-59z" />
    <glyph glyph-name="Z" unicode="Z" horiz-adv-x="508" 
d="M103 55h386l-9 -55h-453l9 56l471 556h-352l8 55h415l-9 -57z" />
    <glyph glyph-name="bracketleft" unicode="[" horiz-adv-x="288" 
d="M220 -120l-8 -53h-153l142 898h153l-8 -53h-96l-126 -792h96z" />
    <glyph glyph-name="backslash" unicode="\" horiz-adv-x="540" 
d="M209 676l276 -659l-48 -26l-276 659z" />
    <glyph glyph-name="bracketright" unicode="]" horiz-adv-x="288" 
d="M29 -120h96l126 792h-96l8 53h153l-142 -898h-153z" />
    <glyph glyph-name="asciicircum" unicode="^" horiz-adv-x="484" 
d="M28 377l173 292h82l173 -292h-66l-149 245l-148 -245h-65z" />
    <glyph glyph-name="underscore" unicode="_" horiz-adv-x="492" 
d="M-8 -72h485l-8 -51h-485z" />
    <glyph glyph-name="grave" unicode="`" horiz-adv-x="476" 
d="M358 543l-38 -20l-97 116l62 31z" />
    <glyph glyph-name="a" unicode="a" horiz-adv-x="550" 
d="M484 0h-57l12 73q-83 -84 -180 -84q-83 0 -136 55t-53 140q0 107 79.5 188.5t184.5 81.5q95 0 152 -84l12 73h56zM324 402q-81 0 -138.5 -63t-57.5 -152q0 -66 39 -106t103 -40q83 0 140 63.5t57 154.5q0 65 -39 104t-104 39z" />
    <glyph glyph-name="b" unicode="b" horiz-adv-x="550" 
d="M66 0l106 667h56l-47 -297q81 84 179 84q83 0 136.5 -54.5t53.5 -139.5q0 -108 -80 -189.5t-186 -81.5q-98 0 -150 84l-12 -73h-56zM348 402q-80 0 -137 -63t-57 -152q0 -67 37.5 -106.5t100.5 -39.5q83 0 141.5 63t58.5 152q0 67 -39 106.5t-105 39.5z" />
    <glyph glyph-name="c" unicode="c" horiz-adv-x="455" 
d="M487 384l-44 -38q-45 56 -114 56q-85 0 -143 -62.5t-58 -152.5q0 -67 39 -106.5t107 -39.5q73 0 134 60l32 -39q-83 -73 -176 -73q-86 0 -140 54t-54 141q0 109 80 189.5t189 80.5q46 0 80 -16t68 -54z" />
    <glyph glyph-name="d" unicode="d" horiz-adv-x="550" 
d="M484 0h-57l12 73q-79 -84 -179 -84q-83 0 -136.5 55t-53.5 140q0 107 80 188.5t186 81.5q97 0 150 -84l47 297h56zM324 402q-81 0 -138.5 -63t-57.5 -152q0 -66 39 -106t103 -40q82 0 139 63.5t57 154.5q0 65 -38.5 104t-103.5 39z" />
    <glyph glyph-name="e" unicode="e" horiz-adv-x="498" 
d="M127 198v-15q0 -64 37 -103t98 -39q92 0 154 79l48 -21q-86 -110 -209 -110q-83 0 -134 53.5t-51 140.5q0 107 76.5 189t176.5 82q79 0 126.5 -52.5t47.5 -140.5q0 -24 -6 -63h-364zM135 246h307q0 43 -8 69q-13 41 -44 64t-75 23q-62 0 -111.5 -43t-68.5 -113z" />
    <glyph glyph-name="f" unicode="f" horiz-adv-x="245" 
d="M152 443l15 92q21 138 121 138q14 0 38 -6l-8 -52q-15 5 -27 5q-55 0 -68 -85l-14 -92h84l-8 -51h-84l-63 -392h-56l62 392h-47l9 51h46z" />
    <glyph glyph-name="g" unicode="g" horiz-adv-x="550" 
d="M554 443l-71 -451q-17 -107 -90.5 -171.5t-177.5 -64.5q-114 0 -181 93l43 38q30 -43 63 -61t83 -18q81 0 135 49t68 135l1 7l12 74q-79 -84 -179 -84q-83 0 -136.5 55t-53.5 140q0 108 80 189t186 81q98 0 150 -84l12 73h56zM326 402q-82 0 -140 -63t-58 -152
q0 -66 39 -106t103 -40q83 0 140 63.5t57 154.5q0 65 -38.5 104t-102.5 39z" />
    <glyph glyph-name="h" unicode="h" horiz-adv-x="510" 
d="M228 667l-45 -285q61 72 153 72q70 0 110.5 -38.5t40.5 -104.5q0 -33 -6 -71l-38 -240h-56l36 232q6 33 6 62q0 51 -27.5 78.5t-79.5 27.5q-81 0 -125 -60q-27 -39 -39 -119l-36 -221h-56l106 667h56z" />
    <glyph glyph-name="i" unicode="i" horiz-adv-x="190" 
d="M194 443l-71 -443h-56l70 443h57zM196 632q15 0 25 -10t10 -26q0 -20 -15 -34.5t-35 -14.5q-15 0 -25 10.5t-10 25.5q0 19 15 34t35 15z" />
    <glyph glyph-name="j" unicode="j" horiz-adv-x="200" 
d="M-43 -233l8 51q17 -4 28 -4q54 0 67 84l86 545h57l-86 -545q-23 -137 -122 -137q-19 0 -38 6zM205 632q16 0 26 -10t10 -26q0 -19 -15 -34t-35 -15q-15 0 -25.5 10.5t-10.5 25.5q0 19 15 34t35 15z" />
    <glyph glyph-name="k" unicode="k" horiz-adv-x="458" 
d="M496 443l-206 -178l163 -265h-70l-137 227l-101 -87l-23 -140h-56l106 667h56l-72 -456l268 232h72z" />
    <glyph glyph-name="l" unicode="l" horiz-adv-x="191" 
d="M123 0h-56l106 667h56z" />
    <glyph glyph-name="m" unicode="m" horiz-adv-x="787" 
d="M193 443l-10 -61q55 72 144 72q93 0 126 -84q66 84 162 84q68 0 108.5 -39t40.5 -104q0 -33 -6 -71l-38 -240h-57l37 232q6 33 6 65q0 50 -24.5 76.5t-70.5 26.5q-73 0 -113 -56q-28 -40 -41 -123l-35 -221h-56l36 232q7 40 7 65q0 50 -24.5 76.5t-71.5 26.5
q-74 0 -115 -57q-27 -36 -40 -122l-36 -221h-56l70 443h57z" />
    <glyph glyph-name="n" unicode="n" horiz-adv-x="510" 
d="M193 443l-10 -61q61 72 153 72q70 0 110.5 -38.5t40.5 -104.5q0 -33 -6 -71l-38 -240h-56l36 232q6 33 6 62q0 51 -27.5 78.5t-79.5 27.5q-81 0 -125 -60q-27 -39 -39 -119l-36 -221h-56l70 443h57z" />
    <glyph glyph-name="o" unicode="o" horiz-adv-x="528" 
d="M339 454q83 0 136 -54.5t53 -139.5q0 -109 -79.5 -190t-186.5 -81q-85 0 -138.5 54.5t-53.5 141.5q0 109 80 189t189 80zM326 402q-82 0 -140 -63t-58 -152q0 -66 39 -106t103 -40q84 0 142 63t58 154q0 66 -39.5 105t-104.5 39z" />
    <glyph glyph-name="p" unicode="p" horiz-adv-x="550" 
d="M29 -234l107 677h57l-12 -73q79 84 180 84q83 0 136 -55t53 -140q0 -108 -80 -189t-186 -81q-98 0 -150 84l-49 -307h-56zM348 402q-80 0 -137 -63.5t-57 -152.5q0 -66 37.5 -105.5t101.5 -39.5q83 0 141 63t58 152q0 67 -39 106.5t-105 39.5z" />
    <glyph glyph-name="q" unicode="q" horiz-adv-x="550" 
d="M447 -234h-56l48 307q-80 -84 -179 -84q-83 0 -136.5 55t-53.5 140q0 107 80 188.5t186 81.5q98 0 150 -84l12 73h56zM325 402q-81 0 -139 -63.5t-58 -152.5q0 -66 38.5 -105.5t103.5 -39.5q82 0 139 63.5t57 154.5q0 65 -38.5 104t-102.5 39z" />
    <glyph glyph-name="r" unicode="r" horiz-adv-x="289" 
d="M136 443h57l-10 -61q52 61 139 61h13l-8 -51h-13q-79 0 -117 -55q-28 -39 -40 -122l-35 -215h-56z" />
    <glyph glyph-name="s" unicode="s" horiz-adv-x="368" 
d="M375 381l-50 -24q-25 47 -74 47q-40 0 -67.5 -24t-27.5 -58q0 -24 12.5 -35.5t59.5 -31.5l42 -17q82 -35 82 -93q0 -62 -51.5 -109t-121.5 -47q-102 0 -131 106l52 20q16 -42 35.5 -58.5t54.5 -16.5q42 0 73 27.5t31 65.5q0 24 -14 37t-60 32l-46 19q-72 30 -72 90
q0 59 47 101t112 42q79 0 114 -73z" />
    <glyph glyph-name="t" unicode="t" horiz-adv-x="242" 
d="M139 392h-52l8 51h52l17 109l60 22l-21 -131h76l-8 -51h-76l-41 -260q-3 -16 -3 -34q0 -51 43 -51q12 0 29 4l-8 -51q-25 -6 -41 -6q-80 0 -80 95q0 22 3 43z" />
    <glyph glyph-name="u" unicode="u" horiz-adv-x="510" 
d="M387 0l10 61q-63 -72 -153 -72q-70 0 -110.5 38.5t-40.5 103.5q0 35 6 72l38 240h56l-36 -232q-6 -33 -6 -62q0 -51 27.5 -78.5t79.5 -27.5q81 0 125 60q27 39 39 119l36 221h56l-70 -443h-57z" />
    <glyph glyph-name="v" unicode="v" horiz-adv-x="448" 
d="M453 443h61l-261 -443h-59l-120 443h61l99 -377z" />
    <glyph glyph-name="w" unicode="w" horiz-adv-x="672" 
d="M170 0l-96 443h61l74 -364l171 364h52l56 -364l190 364h60l-236 -443h-52l-57 360l-171 -360h-52z" />
    <glyph glyph-name="x" unicode="x" horiz-adv-x="429" 
d="M284 231l136 -231h-66l-110 188l-170 -188h-66l210 230l-126 213h66l100 -170l154 170h65z" />
    <glyph glyph-name="y" unicode="y" horiz-adv-x="435" 
d="M188 15l-114 428h62l92 -359l212 359h61l-402 -677h-58z" />
    <glyph glyph-name="z" unicode="z" horiz-adv-x="419" 
d="M451 394l-342 -343h298l-8 -51h-367l8 48l343 344h-274l9 51h341l-8 -47v-2z" />
    <glyph glyph-name="braceleft" unicode="{" horiz-adv-x="295" 
d="M89 254l7 47q34 11 51 33.5t24 65.5l30 187q13 77 44 107t99 31h5h13l-8 -50q-50 0 -69 -16t-26 -65l-31 -197q-9 -50 -27 -77t-53 -44q25 -16 34.5 -34t9.5 -50q0 -20 -3 -40l-31 -194q-4 -30 -4 -35q0 -25 16.5 -35.5t57.5 -10.5l-8 -50q-70 0 -96 19t-26 70q0 17 4 49
l30 187q3 18 3 36q0 27 -10.5 42t-35.5 24z" />
    <glyph glyph-name="bar" unicode="|" horiz-adv-x="492" 
d="M218 728h57v-904h-57v904z" />
    <glyph glyph-name="braceright" unicode="}" horiz-adv-x="295" 
d="M294 301l-7 -47q-35 -11 -51.5 -33.5t-23.5 -68.5l-30 -187q-14 -80 -48.5 -110t-112.5 -28l8 50q50 0 69 16.5t26 64.5l31 194q9 51 26.5 78t53.5 46q-44 24 -44 82q0 22 3 39l31 197q4 28 4 33q2 26 -15.5 37t-58.5 11l8 50h13h5q55 0 79.5 -21t24.5 -67q0 -18 -4 -50
l-30 -187q-2 -20 -2 -33q0 -49 45 -66z" />
    <glyph glyph-name="asciitilde" unicode="~" horiz-adv-x="656" 
d="M128 592l-32 21q30 59 58.5 82.5t69.5 23.5q38 0 110 -33q67 -32 99 -32q29 0 49.5 14t43.5 51l33 -20q-24 -47 -50 -71q-37 -32 -81 -32q-25 0 -46 7t-95 40q-44 18 -72 18q-45 0 -87 -69z" />
    <glyph glyph-name="uni00A0" unicode="&#xa0;" horiz-adv-x="257" 
 />
    <glyph glyph-name="exclamdown" unicode="&#xa1;" horiz-adv-x="269" 
d="M160 329h52l-74 -513h-66zM212 491q15 0 25 -10t10 -25q0 -19 -14.5 -33t-33.5 -14q-15 0 -25 10t-10 25q0 18 14.5 32.5t33.5 14.5z" />
    <glyph glyph-name="cent" unicode="&#xa2;" horiz-adv-x="547" 
d="M261 0l16 104q-71 12 -113.5 63.5t-42.5 127.5q0 98 65 174t164 93l16 105h58l-16 -102q43 -5 72 -20t58 -49l-44 -38q-43 56 -114 56q-85 0 -143 -62.5t-58 -152.5q0 -67 39.5 -106.5t106.5 -39.5q72 0 134 59l32 -38q-69 -65 -157 -72l-16 -102h-57z" />
    <glyph glyph-name="sterling" unicode="&#xa3;" horiz-adv-x="557" 
d="M256 306l1 -9q1 -18 1 -47q0 -71 -18.5 -110t-74.5 -85h347l-9 -55h-425l9 59q71 50 91.5 85t20.5 103q0 8 -2 52v7h-70l8 53h59l-1 13v24q0 122 51 194q28 40 78 64t103 24q102 0 147 -97l-52 -30q-36 72 -107 72q-35 0 -68 -16.5t-53 -43.5q-40 -54 -40 -159
q0 -18 1 -36v-9h209l-9 -53h-197z" />
    <glyph glyph-name="currency" unicode="&#xa4;" horiz-adv-x="725" 
d="M263 481l-77 93l37 31l76 -92q68 53 154 53q81 0 136 -53l105 92l27 -31l-106 -93q30 -48 30 -108q0 -105 -77 -187l77 -93l-36 -31l-77 92q-71 -53 -153 -53t-138 53l-105 -92l-26 31l106 93q-30 51 -30 108q0 104 77 187zM442 514q-82 0 -140 -63t-58 -152
q0 -67 38.5 -106.5t103.5 -39.5q84 0 142.5 63t58.5 154q0 65 -39.5 104.5t-105.5 39.5z" />
    <glyph glyph-name="yen" unicode="&#xa5;" horiz-adv-x="595" 
d="M306 239h-166l8 53h158l1 2l-32 81h-113l8 53h84l-95 239h65l127 -332l232 332h65l-170 -239h83l-8 -53h-113l-58 -81v-2h158l-9 -53h-166l-38 -239h-59z" />
    <glyph glyph-name="brokenbar" unicode="&#xa6;" horiz-adv-x="492" 
d="M275 388h-57v340h57v-340zM218 164h57v-340h-57v340z" />
    <glyph glyph-name="section" unicode="&#xa7;" horiz-adv-x="535" 
d="M306 388l62 -26q126 -51 126 -144q0 -72 -50 -134q-8 -10 -36 -38q34 -37 34 -87q0 -85 -63 -144t-155 -59q-70 0 -114.5 30t-71.5 96l53 31q22 -53 56 -77.5t85 -24.5q62 0 106.5 41t44.5 98q0 34 -25 59.5t-80 48.5l-60 25q-110 47 -110 136q0 48 21.5 86.5t70.5 78.5
q-40 39 -40 93q0 82 65 141.5t155 59.5q105 0 151 -96l-52 -31q-37 72 -113 72q-58 0 -102.5 -41.5t-44.5 -94.5q0 -63 87 -99zM330 316l-59 25q-1 0 -25 11q-79 -51 -79 -123q0 -62 86 -98l62 -26q24 -10 50 -25q69 60 69 128q0 34 -24 59t-80 49z" />
    <glyph glyph-name="dieresis" unicode="&#xa8;" horiz-adv-x="476" 
d="M246 631q16 0 26 -10t10 -25q0 -19 -15 -33.5t-35 -14.5q-15 0 -25 10t-10 25q0 19 15 33.5t34 14.5zM430 631q15 0 25 -10t10 -24q0 -19 -14.5 -34t-34.5 -15q-15 0 -25 10.5t-10 24.5q0 19 15 33.5t34 14.5z" />
    <glyph glyph-name="copyright" unicode="&#xa9;" horiz-adv-x="863" 
d="M610 492l-35 -35q-56 59 -127 59q-75 0 -126 -53t-51 -130q0 -76 51.5 -129t125.5 -53q67 0 130 60l35 -35q-74 -74 -164 -74q-96 0 -163 67.5t-67 163.5q0 97 67 164.5t163 67.5q88 0 161 -73zM438 712q152 0 262 -112t110 -266q0 -158 -111 -268.5t-268 -110.5
q-158 0 -268 111t-110 270q0 157 112 266.5t273 109.5zM429 667q-136 0 -234 -99t-98 -236q0 -138 98 -235.5t236 -97.5q140 0 237.5 98t97.5 238q0 138 -98.5 235t-238.5 97z" />
    <glyph glyph-name="ordfeminine" unicode="&#xaa;" horiz-adv-x="361" 
d="M378 406h-44l6 37q-47 -43 -102 -43q-51 0 -84.5 33t-33.5 84q0 64 49 112t114 48q54 0 87 -43l6 37h44zM276 638q-46 0 -78.5 -34.5t-32.5 -83.5q0 -36 22.5 -58t59.5 -22q47 0 79.5 34.5t32.5 83.5q0 37 -22.5 58.5t-60.5 21.5z" />
    <glyph glyph-name="guillemotleft" unicode="&#xab;" horiz-adv-x="420" 
d="M378 76l-41 -29l-114 174l170 179l32 -29l-142 -150zM230 76l-41 -29l-114 174l170 179l32 -29l-142 -150z" />
    <glyph glyph-name="logicalnot" unicode="&#xac;" horiz-adv-x="660" 
d="M590 87h-56v199h-464v51h520v-250z" />
    <glyph glyph-name="uni00AD" unicode="&#xad;" horiz-adv-x="248" 
d="M80 256h168l-8 -51h-168z" />
    <glyph glyph-name="registered" unicode="&#xae;" horiz-adv-x="863" 
d="M493 299l110 -191h-59l-104 183q-18 -1 -60 -1h-22v-182h-51v450h111q62 0 96 -19q29 -16 46 -47.5t17 -68.5q0 -43 -22.5 -76.5t-61.5 -47.5zM358 337h66q102 0 102 87q0 86 -102 86h-66v-173zM438 712q152 0 262 -112t110 -266q0 -158 -111 -268.5t-268 -110.5
q-158 0 -268 111t-110 270q0 157 112 266.5t273 109.5zM429 667q-136 0 -234 -99t-98 -236q0 -138 98 -235.5t236 -97.5q140 0 237.5 98t97.5 238q0 138 -98.5 235t-238.5 97z" />
    <glyph glyph-name="macron" unicode="&#xaf;" horiz-adv-x="476" 
d="M205 616h260l-8 -51h-260z" />
    <glyph glyph-name="degree" unicode="&#xb0;" horiz-adv-x="350" 
d="M327 739q50 0 83.5 -33.5t33.5 -82.5q0 -64 -49.5 -112.5t-114.5 -48.5q-50 0 -83.5 33.5t-33.5 82.5q0 64 49.5 112.5t114.5 48.5zM319 695q-44 0 -77.5 -33t-33.5 -77q0 -34 23.5 -56.5t58.5 -22.5q42 0 75.5 33.5t33.5 76.5q0 33 -23 56t-57 23z" />
    <glyph glyph-name="plusminus" unicode="&#xb1;" horiz-adv-x="556" 
d="M510 50l-8 -50h-449l8 50h449zM313 385l31 200h52l-31 -200h198l-7 -49h-199l-32 -200h-52l32 200h-199l8 49h199z" />
    <glyph glyph-name="twosuperior" unicode="&#xb2;" 
d="M133 406l6 40l175 161q63 57 63 102q0 25 -17.5 40t-47.5 15q-32 0 -53.5 -15t-37.5 -51l-42 12q42 97 141 97q48 0 76 -25t28 -67q0 -63 -68 -126l-153 -140h190l-7 -43h-253z" />
    <glyph glyph-name="threesuperior" unicode="&#xb3;" 
d="M139 497l48 12q5 -35 21 -50t49 -15q40 0 67.5 25t27.5 63q0 59 -69 59h-24l7 43h24q35 0 58.5 22t23.5 54q0 25 -16.5 39.5t-45.5 14.5q-42 0 -80 -41l-36 21l2 2l5 6q46 55 117 55q46 0 73.5 -24.5t27.5 -65.5q0 -64 -56 -101q37 -28 37 -76q0 -59 -43.5 -99.5
t-106.5 -40.5q-46 0 -74.5 23t-35.5 64z" />
    <glyph glyph-name="acute" unicode="&#xb4;" horiz-adv-x="476" 
d="M291 543l113 127l52 -31l-134 -116z" />
    <glyph glyph-name="mu" unicode="&#xb5;" horiz-adv-x="510" 
d="M122 51v-285h-56v677h56v-232q0 -76 20 -113q31 -55 108 -55q38 0 69 16t47 44q21 37 21 119v221h56v-443h-56v57q-51 -68 -139 -68q-80 0 -126 62z" />
    <glyph glyph-name="paragraph" unicode="&#xb6;" horiz-adv-x="641" 
d="M338 225h-19q-80 0 -130.5 51.5t-50.5 133.5q0 103 75.5 180t175.5 77h304l-8 -49h-65l-135 -852h-51l134 852h-115h-1l-135 -852h-52z" />
    <glyph glyph-name="periodcentered" unicode="&#xb7;" horiz-adv-x="217" 
d="M168 375q15 0 25 -10t10 -25q0 -19 -15 -33.5t-34 -14.5q-14 0 -24 10t-10 25q0 19 14.5 33.5t33.5 14.5z" />
    <glyph glyph-name="cedilla" unicode="&#xb8;" horiz-adv-x="476" 
d="M298 -78l-111 -117l-35 19l96 121z" />
    <glyph glyph-name="onesuperior" unicode="&#xb9;" 
d="M297 406h-48l54 342l-68 -35l-17 38l99 50h42z" />
    <glyph glyph-name="ordmasculine" unicode="&#xba;" horiz-adv-x="355" 
d="M286 678q52 0 85.5 -33t33.5 -84q0 -65 -49 -113t-116 -48q-52 0 -86 33t-34 84q0 65 49.5 113t116.5 48zM276 638q-47 0 -79.5 -34t-32.5 -83q0 -37 22.5 -59t59.5 -22q49 0 82 34t33 84q0 37 -23 58.5t-62 21.5z" />
    <glyph glyph-name="guillemotright" unicode="&#xbb;" horiz-adv-x="420" 
d="M214 76l141 145l-94 150l41 29l113 -179l-169 -174zM66 76l141 145l-94 150l40 29l114 -179l-169 -174z" />
    <glyph glyph-name="onequarter" unicode="&#xbc;" horiz-adv-x="833" 
d="M655 675l30 -19l-489 -665l-30 20zM717 379l-198 -249h128l16 104h48l-17 -104h50l-7 -43h-50l-13 -87h-48l14 87h-182l7 43l217 272zM239 272h-47l54 342l-68 -35l-17 37l99 51h42z" />
    <glyph glyph-name="onehalf" unicode="&#xbd;" horiz-adv-x="833" 
d="M655 675l30 -19l-489 -665l-31 20zM497 0l6 40l175 160q63 58 63 103q0 25 -17.5 40t-47.5 15q-32 0 -53 -15.5t-38 -50.5l-42 12q42 97 141 97q48 0 76 -25t28 -67q0 -63 -68 -126l-153 -140h190l-7 -43h-253zM239 272h-47l54 342l-68 -35l-17 37l99 51h42z" />
    <glyph glyph-name="threequarters" unicode="&#xbe;" horiz-adv-x="833" 
d="M717 675l30 -19l-489 -665l-31 20zM757 379l-198 -249h128l16 104h47l-16 -104h50l-7 -43h-50l-14 -87h-47l14 87h-182l7 43l217 272zM113 363l48 12q5 -35 21 -50t49 -15q40 0 67.5 25t27.5 63q0 29 -18 44.5t-51 15.5h-24l7 42h24q35 0 58.5 22t23.5 54
q0 25 -16.5 39.5t-45.5 14.5q-43 0 -80 -41l-36 21l2 2q0 1 5 6q46 55 117 55q46 0 73.5 -24.5t27.5 -65.5q0 -63 -56 -101q37 -27 37 -76q0 -59 -43.5 -99.5t-106.5 -40.5q-94 0 -110 88z" />
    <glyph glyph-name="questiondown" unicode="&#xbf;" horiz-adv-x="416" 
d="M316 329l-11 -67q-8 -48 -21 -68t-54 -52l-50 -39q-91 -69 -91 -146q0 -45 29.5 -70.5t81.5 -25.5q43 0 75.5 17t67.5 58l37 -35q-73 -95 -186 -95q-79 0 -121.5 36.5t-42.5 104.5q0 53 25.5 97.5t82.5 90.5l59 47q31 26 38 38t14 51l9 58h58zM313 491q15 0 25 -10
t10 -25q0 -19 -14.5 -33t-34.5 -14q-15 0 -25 10t-10 24q0 19 15 33.5t34 14.5z" />
    <glyph glyph-name="Agrave" unicode="&#xc0;" horiz-adv-x="615" 
d="M459 743l-37 -20l-98 116l63 31zM71 0h-61l367 667h72l156 -667h-62l-45 193h-322zM206 248h280l-83 361z" />
    <glyph glyph-name="Aacute" unicode="&#xc1;" horiz-adv-x="615" 
d="M388 743l113 127l52 -31l-134 -116zM71 0h-61l367 667h72l156 -667h-62l-45 193h-322zM206 248h280l-83 361z" />
    <glyph glyph-name="Acircumflex" unicode="&#xc2;" horiz-adv-x="615" 
d="M329 723l-37 19l126 118h51l89 -118l-43 -19l-79 87zM71 0h-61l367 667h72l156 -667h-62l-45 193h-322zM206 248h280l-83 361z" />
    <glyph glyph-name="Atilde" unicode="&#xc3;" horiz-adv-x="615" 
d="M341 748l-42 11q22 74 83 74q23 0 64 -21q28 -13 45 -13q22 0 32 34l44 -11q-21 -73 -84 -73q-26 0 -62 18q-29 16 -46 16q-19 0 -34 -35zM71 0h-61l367 667h72l156 -667h-62l-45 193h-322zM206 248h280l-83 361z" />
    <glyph glyph-name="Adieresis" unicode="&#xc4;" horiz-adv-x="615" 
d="M71 0h-61l367 667h72l156 -667h-62l-45 193h-322zM206 248h280l-83 361zM532 832q15 0 25 -10t10 -25q0 -19 -15 -33.5t-35 -14.5q-15 0 -25 10t-10 25q0 19 15 33.5t35 14.5zM348 832q15 0 25 -10t10 -25q0 -19 -15 -33.5t-34 -14.5q-15 0 -25 10t-10 25q0 19 15 33.5
t34 14.5z" />
    <glyph glyph-name="Aring" unicode="&#xc5;" horiz-adv-x="615" 
d="M71 0h-61l367 667h72l156 -667h-62l-45 193h-322zM206 248h280l-83 361zM445 872q31 0 51.5 -19.5t20.5 -49.5q0 -37 -29.5 -65.5t-67.5 -28.5q-31 0 -51 19.5t-20 50.5q0 37 29 65t67 28zM441 842q-23 0 -41.5 -18t-18.5 -41q0 -19 12.5 -31.5t31.5 -12.5q24 0 42 18
t18 42q0 19 -12.5 31t-31.5 12z" />
    <glyph glyph-name="AE" unicode="&#xc6;" horiz-adv-x="841" 
d="M482 193h-278l-128 -193h-66l447 667h434l-9 -54h-274l-39 -247h243l-8 -55h-244l-40 -256h284l-9 -55h-343zM491 248l58 365h-67l-242 -365h251z" />
    <glyph glyph-name="Ccedilla" unicode="&#xc7;" horiz-adv-x="659" 
d="M389 -78l-112 -117l-35 19l97 121zM710 577l-47 -41q-69 86 -178 86q-133 0 -232 -101t-99 -236q0 -105 67.5 -172.5t171.5 -67.5q106 0 210 88l34 -41q-64 -54 -123.5 -78.5t-128.5 -24.5q-127 0 -209 81.5t-82 208.5q0 104 55.5 196t149 147.5t197.5 55.5
q126 0 214 -101z" />
    <glyph glyph-name="Egrave" unicode="&#xc8;" horiz-adv-x="472" 
d="M415 743l-38 -20l-97 116l62 31zM513 613h-274l-39 -247h244l-9 -55h-244l-40 -256h284l-8 -55h-344l106 667h333z" />
    <glyph glyph-name="Eacute" unicode="&#xc9;" horiz-adv-x="472" 
d="M330 743l113 127l52 -31l-134 -116zM513 613h-274l-39 -247h244l-9 -55h-244l-40 -256h284l-8 -55h-344l106 667h333z" />
    <glyph glyph-name="Ecircumflex" unicode="&#xca;" horiz-adv-x="472" 
d="M276 723l-36 19l126 118h51l88 -118l-43 -19l-79 87zM513 613h-274l-39 -247h244l-9 -55h-244l-40 -256h284l-8 -55h-344l106 667h333z" />
    <glyph glyph-name="Edieresis" unicode="&#xcb;" horiz-adv-x="472" 
d="M513 613h-274l-39 -247h244l-9 -55h-244l-40 -256h284l-8 -55h-344l106 667h333zM478 832q15 0 25 -10t10 -25q0 -19 -15 -33.5t-34 -14.5q-15 0 -25 10t-10 25q0 19 15 33.5t34 14.5zM294 832q15 0 25 -10t10 -25q0 -19 -15 -33.5t-34 -14.5q-15 0 -25 10.5t-10 24.5
q0 19 15 33.5t34 14.5z" />
    <glyph glyph-name="Igrave" unicode="&#xcc;" horiz-adv-x="226" 
d="M263 743l-37 -20l-98 116l63 31zM248 667l-106 -667h-59l106 667h59z" />
    <glyph glyph-name="Iacute" unicode="&#xcd;" horiz-adv-x="226" 
d="M197 743l113 127l52 -31l-133 -116zM248 667l-106 -667h-59l106 667h59z" />
    <glyph glyph-name="Icircumflex" unicode="&#xce;" horiz-adv-x="226" 
d="M134 723l-37 19l126 118h51l89 -118l-43 -19l-79 87zM248 667l-106 -667h-59l106 667h59z" />
    <glyph glyph-name="Idieresis" unicode="&#xcf;" horiz-adv-x="226" 
d="M248 667l-106 -667h-59l106 667h59zM312 832q15 0 25 -10t10 -25q0 -19 -15 -33.5t-35 -14.5q-15 0 -25 10t-10 25q0 19 15 33.5t35 14.5zM178 832q15 0 25 -10t10 -25q0 -19 -15 -33.5t-34 -14.5q-15 0 -25 10t-10 25q0 19 15 33.5t34 14.5z" />
    <glyph glyph-name="Eth" unicode="&#xd0;" horiz-adv-x="629" 
d="M146 333h-62l8 53h63l44 281h131q148 0 229.5 -71t81.5 -200q0 -175 -116 -285.5t-301 -110.5h-131zM369 333h-164l-44 -278h75q151 0 248 92.5t97 237.5q0 107 -67.5 167t-188.5 60h-76l-35 -226h163z" />
    <glyph glyph-name="Ntilde" unicode="&#xd1;" horiz-adv-x="711" 
d="M397 748l-42 11q24 74 83 74q25 0 64 -21q28 -13 45 -13q22 0 33 34l43 -11q-21 -73 -83 -73q-27 0 -62 18q-30 16 -46 16q-20 0 -35 -35zM233 576l-91 -576h-59l106 667h59l335 -576l91 576h59l-106 -667h-59z" />
    <glyph glyph-name="Ograve" unicode="&#xd2;" horiz-adv-x="765" 
d="M536 743l-38 -20l-97 116l62 31zM493 678q121 0 202.5 -83.5t81.5 -207.5q0 -102 -56 -194.5t-148.5 -148t-194.5 -55.5q-122 0 -203 83.5t-81 209.5q0 101 55.5 193t148.5 147.5t195 55.5zM481 622q-129 0 -228.5 -102t-99.5 -235q0 -102 67.5 -171.5t165.5 -69.5
q131 0 231 101.5t100 234.5q0 105 -66.5 173.5t-169.5 68.5z" />
    <glyph glyph-name="Oacute" unicode="&#xd3;" horiz-adv-x="765" 
d="M465 743l112 127l53 -31l-134 -116zM493 678q121 0 202.5 -83.5t81.5 -207.5q0 -102 -56 -194.5t-148.5 -148t-194.5 -55.5q-122 0 -203 83.5t-81 209.5q0 101 55.5 193t148.5 147.5t195 55.5zM481 622q-129 0 -228.5 -102t-99.5 -235q0 -102 67.5 -171.5t165.5 -69.5
q131 0 231 101.5t100 234.5q0 105 -66.5 173.5t-169.5 68.5z" />
    <glyph glyph-name="Ocircumflex" unicode="&#xd4;" horiz-adv-x="765" 
d="M404 723l-37 19l126 118h51l89 -118l-43 -19l-79 87zM493 678q121 0 202.5 -83.5t81.5 -207.5q0 -102 -56 -194.5t-148.5 -148t-194.5 -55.5q-122 0 -203 83.5t-81 209.5q0 101 55.5 193t148.5 147.5t195 55.5zM481 622q-129 0 -228.5 -102t-99.5 -235
q0 -102 67.5 -171.5t165.5 -69.5q131 0 231 101.5t100 234.5q0 105 -66.5 173.5t-169.5 68.5z" />
    <glyph glyph-name="Otilde" unicode="&#xd5;" horiz-adv-x="765" 
d="M416 748l-42 11q24 74 83 74q25 0 64 -21q28 -13 45 -13q22 0 33 34l43 -11q-21 -73 -83 -73q-27 0 -62 18q-30 16 -46 16q-20 0 -35 -35zM493 678q121 0 202.5 -83.5t81.5 -207.5q0 -102 -56 -194.5t-148.5 -148t-194.5 -55.5q-122 0 -203 83.5t-81 209.5
q0 101 55.5 193t148.5 147.5t195 55.5zM481 622q-129 0 -228.5 -102t-99.5 -235q0 -102 67.5 -171.5t165.5 -69.5q131 0 231 101.5t100 234.5q0 105 -66.5 173.5t-169.5 68.5z" />
    <glyph glyph-name="Odieresis" unicode="&#xd6;" horiz-adv-x="765" 
d="M493 678q121 0 202.5 -83.5t81.5 -207.5q0 -102 -56 -194.5t-148.5 -148t-194.5 -55.5q-122 0 -203 83.5t-81 209.5q0 101 55.5 193t148.5 147.5t195 55.5zM481 622q-129 0 -228.5 -102t-99.5 -235q0 -102 67.5 -171.5t165.5 -69.5q131 0 231 101.5t100 234.5
q0 105 -66.5 173.5t-169.5 68.5zM607 832q15 0 25 -10t10 -25q0 -19 -15 -33.5t-35 -14.5q-14 0 -24.5 10t-10.5 25q0 19 15 33.5t35 14.5zM423 832q15 0 25 -10t10 -25q0 -19 -15 -33.5t-34 -14.5q-15 0 -25 10t-10 25q0 19 15 33.5t34 14.5z" />
    <glyph glyph-name="multiply" unicode="&#xd7;" horiz-adv-x="556" 
d="M128 171l163 141l-118 141l41 36l119 -141l163 141l30 -36l-163 -141l118 -141l-41 -36l-119 141l-163 -141z" />
    <glyph glyph-name="Oslash" unicode="&#xd8;" horiz-adv-x="772" 
d="M701 592l88 76l27 -31l-88 -77q52 -78 52 -173q0 -102 -55.5 -194.5t-148.5 -148t-196 -55.5q-119 0 -203 86l-88 -76l-27 31l88 77q-53 79 -53 173q0 102 56 194.5t149 148t196 55.5q58 0 112 -23t91 -63zM197 148l459 404q-72 70 -168 70q-132 0 -231.5 -101.5
t-99.5 -237.5q0 -70 40 -135zM681 519l-458 -403q69 -71 166 -71q132 0 231.5 101.5t99.5 235.5q0 77 -39 137z" />
    <glyph glyph-name="Ugrave" unicode="&#xd9;" horiz-adv-x="635" 
d="M478 743l-38 -20l-97 116l62 31zM249 667l-66 -414q-8 -46 -8 -76q0 -54 35 -88q44 -44 114 -44q48 0 94.5 22t71.5 57q29 39 43 129l65 414h60l-69 -435q-14 -84 -49 -131q-37 -52 -98 -82t-127 -30q-86 0 -143 50.5t-57 126.5q0 32 6 66l68 435h60z" />
    <glyph glyph-name="Uacute" unicode="&#xda;" horiz-adv-x="635" 
d="M393 743l113 127l52 -31l-133 -116zM249 667l-66 -414q-8 -46 -8 -76q0 -54 35 -88q44 -44 114 -44q48 0 94.5 22t71.5 57q29 39 43 129l65 414h60l-69 -435q-14 -84 -49 -131q-37 -52 -98 -82t-127 -30q-86 0 -143 50.5t-57 126.5q0 32 6 66l68 435h60z" />
    <glyph glyph-name="Ucircumflex" unicode="&#xdb;" horiz-adv-x="635" 
d="M339 723l-36 19l126 118h51l88 -118l-42 -19l-80 87zM249 667l-66 -414q-8 -46 -8 -76q0 -54 35 -88q44 -44 114 -44q48 0 94.5 22t71.5 57q29 39 43 129l65 414h60l-69 -435q-14 -84 -49 -131q-37 -52 -98 -82t-127 -30q-86 0 -143 50.5t-57 126.5q0 32 6 66l68 435h60z
" />
    <glyph glyph-name="Udieresis" unicode="&#xdc;" horiz-adv-x="635" 
d="M249 667l-66 -414q-8 -46 -8 -76q0 -54 35 -88q44 -44 114 -44q48 0 94.5 22t71.5 57q29 39 43 129l65 414h60l-69 -435q-14 -84 -49 -131q-37 -52 -98 -82t-127 -30q-86 0 -143 50.5t-57 126.5q0 32 6 66l68 435h60zM542 832q15 0 25 -10t10 -25q0 -19 -15 -33.5
t-34 -14.5q-15 0 -25 10.5t-10 24.5q0 19 15 33.5t34 14.5zM358 832q16 0 26 -10t10 -25q0 -19 -15 -33.5t-35 -14.5q-15 0 -25 10t-10 25q0 19 15 33.5t34 14.5z" />
    <glyph glyph-name="Yacute" unicode="&#xdd;" horiz-adv-x="495" 
d="M323 743l113 127l52 -31l-134 -116zM262 279l-153 388h65l127 -332l232 332h64l-276 -388l-44 -279h-59z" />
    <glyph glyph-name="Thorn" unicode="&#xde;" horiz-adv-x="464" 
d="M189 667h59l-17 -104h72q90 0 132 -26q66 -41 66 -134q0 -52 -23.5 -101t-63.5 -81q-61 -48 -173 -48h-71l-28 -173h-59zM223 509l-45 -282h81q85 0 131 43q52 49 52 126q0 113 -138 113h-81z" />
    <glyph glyph-name="germandbls" unicode="&#xdf;" horiz-adv-x="515" 
d="M66 0l79 502q13 77 69 126.5t129 49.5q71 0 112 -38.5t41 -105.5q0 -52 -26.5 -103t-62.5 -67q92 -36 92 -142q0 -70 -44 -130q-69 -92 -200 -92h-49l8 54h53q74 0 124 46.5t50 114.5q0 54 -33.5 84t-93.5 30h-3l8 51h3q50 0 84 42t34 104q0 47 -26.5 74t-73.5 27
q-52 0 -90.5 -34.5t-47.5 -90.5l-80 -502h-56z" />
    <glyph glyph-name="agrave" unicode="&#xe0;" horiz-adv-x="550" 
d="M382 543l-37 -20l-97 116l62 31zM484 0h-57l12 73q-83 -84 -180 -84q-83 0 -136 55t-53 140q0 107 79.5 188.5t184.5 81.5q95 0 152 -84l12 73h56zM324 402q-81 0 -138.5 -63t-57.5 -152q0 -66 39 -106t103 -40q83 0 140 63.5t57 154.5q0 65 -39 104t-104 39z" />
    <glyph glyph-name="aacute" unicode="&#xe1;" horiz-adv-x="550" 
d="M318 543l113 127l52 -31l-134 -116zM484 0h-57l12 73q-83 -84 -180 -84q-83 0 -136 55t-53 140q0 107 79.5 188.5t184.5 81.5q95 0 152 -84l12 73h56zM324 402q-81 0 -138.5 -63t-57.5 -152q0 -66 39 -106t103 -40q83 0 140 63.5t57 154.5q0 65 -39 104t-104 39z" />
    <glyph glyph-name="acircumflex" unicode="&#xe2;" horiz-adv-x="550" 
d="M251 523l-37 19l126 118h51l89 -118l-43 -19l-79 87zM484 0h-57l12 73q-83 -84 -180 -84q-83 0 -136 55t-53 140q0 107 79.5 188.5t184.5 81.5q95 0 152 -84l12 73h56zM324 402q-81 0 -138.5 -63t-57.5 -152q0 -66 39 -106t103 -40q83 0 140 63.5t57 154.5q0 65 -39 104
t-104 39z" />
    <glyph glyph-name="atilde" unicode="&#xe3;" horiz-adv-x="550" 
d="M263 548l-42 11q24 74 83 74q25 0 64 -21q28 -13 45 -13q22 0 33 34l43 -11q-21 -73 -84 -73q-27 0 -61 18q-30 16 -46 16q-20 0 -35 -35zM484 0h-57l12 73q-83 -84 -180 -84q-83 0 -136 55t-53 140q0 107 79.5 188.5t184.5 81.5q95 0 152 -84l12 73h56zM324 402
q-81 0 -138.5 -63t-57.5 -152q0 -66 39 -106t103 -40q83 0 140 63.5t57 154.5q0 65 -39 104t-104 39z" />
    <glyph glyph-name="adieresis" unicode="&#xe4;" horiz-adv-x="550" 
d="M484 0h-57l12 73q-83 -84 -180 -84q-83 0 -136 55t-53 140q0 107 79.5 188.5t184.5 81.5q95 0 152 -84l12 73h56zM324 402q-81 0 -138.5 -63t-57.5 -152q0 -66 39 -106t103 -40q83 0 140 63.5t57 154.5q0 65 -39 104t-104 39zM278 631q15 0 25 -10t10 -25
q0 -19 -15 -33.5t-34 -14.5q-15 0 -25 10.5t-10 24.5q0 19 15 33.5t34 14.5zM462 631q15 0 25 -10t10 -25q0 -19 -15 -33.5t-35 -14.5q-15 0 -25 10t-10 25q0 19 15 33.5t35 14.5z" />
    <glyph glyph-name="aring" unicode="&#xe5;" horiz-adv-x="550" 
d="M379 672q31 0 51.5 -19.5t20.5 -48.5q0 -37 -29.5 -65.5t-68.5 -28.5q-31 0 -51 19.5t-20 50.5q0 36 29.5 64t67.5 28zM375 642q-24 0 -42.5 -18t-18.5 -41q0 -18 12.5 -30.5t31.5 -12.5q24 0 42.5 18t18.5 41q0 19 -12.5 31t-31.5 12zM484 0h-57l12 73q-83 -84 -180 -84
q-83 0 -136 55t-53 140q0 107 79.5 188.5t184.5 81.5q95 0 152 -84l12 73h56zM324 402q-81 0 -138.5 -63t-57.5 -152q0 -66 39 -106t103 -40q83 0 140 63.5t57 154.5q0 65 -39 104t-104 39z" />
    <glyph glyph-name="ae" unicode="&#xe6;" horiz-adv-x="832" 
d="M751 120l47 -21q-86 -110 -208 -110q-56 0 -99.5 26t-63.5 71q-55 -97 -194 -97q-83 0 -129 32t-46 90q0 77 56.5 124t149.5 47h153l1 24q0 47 -32.5 72t-92.5 25q-78 0 -151 -49l-20 38q96 62 187 62q135 0 156 -102q32 46 84.5 74t108.5 28q79 0 126.5 -52.5
t47.5 -140.5q0 -27 -7 -63h-363v-18q0 -62 37.5 -100.5t97.5 -38.5q90 0 154 79zM411 234h-141q-72 0 -114 -31t-42 -84q0 -37 33.5 -57.5t92.5 -20.5q67 0 107.5 26t48.5 74zM470 246h307v15q0 64 -35 103t-92 39q-64 0 -111.5 -41.5t-68.5 -115.5z" />
    <glyph glyph-name="ccedilla" unicode="&#xe7;" horiz-adv-x="455" 
d="M272 -78l-111 -117l-35 19l96 121zM487 384l-44 -38q-45 56 -114 56q-85 0 -143 -62.5t-58 -152.5q0 -67 39 -106.5t107 -39.5q73 0 134 60l32 -39q-83 -73 -176 -73q-86 0 -140 54t-54 141q0 109 80 189.5t189 80.5q46 0 80 -16t68 -54z" />
    <glyph glyph-name="egrave" unicode="&#xe8;" horiz-adv-x="498" 
d="M375 543l-37 -20l-97 116l62 31zM127 198v-15q0 -64 37 -103t98 -39q92 0 154 79l48 -21q-86 -110 -209 -110q-83 0 -134 53.5t-51 140.5q0 107 76.5 189t176.5 82q79 0 126.5 -52.5t47.5 -140.5q0 -24 -6 -63h-364zM135 246h307q0 43 -8 69q-13 41 -44 64t-75 23
q-62 0 -111.5 -43t-68.5 -113z" />
    <glyph glyph-name="eacute" unicode="&#xe9;" horiz-adv-x="498" 
d="M294 543l113 127l53 -31l-134 -116zM127 198v-15q0 -64 37 -103t98 -39q92 0 154 79l48 -21q-86 -110 -209 -110q-83 0 -134 53.5t-51 140.5q0 107 76.5 189t176.5 82q79 0 126.5 -52.5t47.5 -140.5q0 -24 -6 -63h-364zM135 246h307q0 43 -8 69q-13 41 -44 64t-75 23
q-62 0 -111.5 -43t-68.5 -113z" />
    <glyph glyph-name="ecircumflex" unicode="&#xea;" horiz-adv-x="498" 
d="M238 523l-36 19l126 118h51l88 -118l-42 -19l-80 87zM127 198v-15q0 -64 37 -103t98 -39q92 0 154 79l48 -21q-86 -110 -209 -110q-83 0 -134 53.5t-51 140.5q0 107 76.5 189t176.5 82q79 0 126.5 -52.5t47.5 -140.5q0 -24 -6 -63h-364zM135 246h307q0 43 -8 69
q-13 41 -44 64t-75 23q-62 0 -111.5 -43t-68.5 -113z" />
    <glyph glyph-name="edieresis" unicode="&#xeb;" horiz-adv-x="498" 
d="M127 198v-15q0 -64 37 -103t98 -39q92 0 154 79l48 -21q-86 -110 -209 -110q-83 0 -134 53.5t-51 140.5q0 107 76.5 189t176.5 82q79 0 126.5 -52.5t47.5 -140.5q0 -24 -6 -63h-364zM135 246h307q0 43 -8 69q-13 41 -44 64t-75 23q-62 0 -111.5 -43t-68.5 -113zM257 631
q15 0 25 -10t10 -25q0 -19 -15 -33.5t-34 -14.5q-15 0 -25 10t-10 25q0 19 15 33.5t34 14.5zM441 631q15 0 25 -10t10 -24q0 -19 -15 -34t-34 -15q-15 0 -25 10t-10 25q0 19 15 33.5t34 14.5z" />
    <glyph glyph-name="igrave" unicode="&#xec;" horiz-adv-x="190" 
d="M211 543l-38 -20l-97 116l62 31zM194 443l-71 -443h-56l70 443h57z" />
    <glyph glyph-name="iacute" unicode="&#xed;" horiz-adv-x="190" 
d="M152 543l112 127l53 -31l-134 -116zM194 443l-71 -443h-56l70 443h57z" />
    <glyph glyph-name="icircumflex" unicode="&#xee;" horiz-adv-x="190" 
d="M85 523l-37 19l126 118h51l89 -118l-43 -19l-79 87zM193 443l-70 -443h-56l70 443h56z" />
    <glyph glyph-name="idieresis" unicode="&#xef;" horiz-adv-x="190" 
d="M194 443l-71 -443h-56l70 443h57zM128 631q15 0 25 -10t10 -25q0 -19 -15 -33.5t-34 -14.5q-15 0 -25 10t-10 25q0 19 15 33.5t34 14.5zM262 631q15 0 25 -10t10 -24q0 -20 -15 -34.5t-35 -14.5q-14 0 -24.5 10t-10.5 25q0 19 15 33.5t35 14.5z" />
    <glyph glyph-name="eth" unicode="&#xf0;" horiz-adv-x="529" 
d="M374 623l-105 -51l-30 33l97 47q-52 36 -124 58l29 35q78 -22 148 -68l108 51l28 -32l-102 -49q30 -31 54 -74q32 -59 45.5 -112t13.5 -123q0 -130 -44 -208q-36 -65 -98 -103t-132 -38q-85 0 -138.5 54.5t-53.5 140.5q0 107 79.5 188.5t185.5 81.5q87 0 144 -67
q-15 148 -105 236zM327 402q-83 0 -141 -63t-58 -153q0 -65 39 -105t103 -40q83 0 141.5 63t58.5 153q0 66 -39 105.5t-104 39.5z" />
    <glyph glyph-name="ntilde" unicode="&#xf1;" horiz-adv-x="510" 
d="M262 548l-43 11q24 74 84 74q24 0 63 -21q28 -13 45 -13q22 0 33 34l43 -11q-21 -73 -83 -73q-28 0 -62 18q-30 16 -46 16q-21 0 -34 -35zM193 443l-10 -61q61 72 153 72q70 0 110.5 -38.5t40.5 -104.5q0 -33 -6 -71l-38 -240h-56l36 232q6 33 6 62q0 51 -27.5 78.5
t-79.5 27.5q-81 0 -125 -60q-27 -39 -39 -119l-36 -221h-56l70 443h57z" />
    <glyph glyph-name="ograve" unicode="&#xf2;" horiz-adv-x="528" 
d="M385 543l-37 -20l-97 116l62 31zM339 454q83 0 136 -54.5t53 -139.5q0 -109 -79.5 -190t-186.5 -81q-85 0 -138.5 54.5t-53.5 141.5q0 109 80 189t189 80zM326 402q-82 0 -140 -63t-58 -152q0 -66 39 -106t103 -40q84 0 142 63t58 154q0 66 -39.5 105t-104.5 39z" />
    <glyph glyph-name="oacute" unicode="&#xf3;" horiz-adv-x="528" 
d="M314 543l113 127l53 -31l-134 -116zM339 454q83 0 136 -54.5t53 -139.5q0 -109 -79.5 -190t-186.5 -81q-85 0 -138.5 54.5t-53.5 141.5q0 109 80 189t189 80zM326 402q-82 0 -140 -63t-58 -152q0 -66 39 -106t103 -40q84 0 142 63t58 154q0 66 -39.5 105t-104.5 39z" />
    <glyph glyph-name="ocircumflex" unicode="&#xf4;" horiz-adv-x="528" 
d="M440 523l-79 87l-107 -87l-37 19l126 118h51l89 -118zM338 454q83 0 136.5 -54.5t53.5 -139.5q0 -109 -79.5 -190t-186.5 -81q-85 0 -138.5 54.5t-53.5 140.5q0 109 80 189.5t188 80.5zM324 402q-81 0 -138.5 -63t-57.5 -152q0 -67 38.5 -106.5t103.5 -39.5
q83 0 141.5 63t58.5 154q0 66 -39.5 105t-106.5 39z" />
    <glyph glyph-name="otilde" unicode="&#xf5;" horiz-adv-x="528" 
d="M266 548l-42 11q22 74 83 74q25 0 64 -21q28 -13 45 -13q22 0 32 34l44 -11q-21 -73 -84 -73q-26 0 -62 18q-29 16 -45 16q-20 0 -35 -35zM339 454q83 0 136 -54.5t53 -139.5q0 -109 -79.5 -190t-186.5 -81q-85 0 -138.5 54.5t-53.5 141.5q0 109 80 189t189 80zM326 402
q-82 0 -140 -63t-58 -152q0 -66 39 -106t103 -40q84 0 142 63t58 154q0 66 -39.5 105t-104.5 39z" />
    <glyph glyph-name="odieresis" unicode="&#xf6;" horiz-adv-x="528" 
d="M339 454q83 0 136 -54.5t53 -139.5q0 -109 -79.5 -190t-186.5 -81q-85 0 -138.5 54.5t-53.5 141.5q0 109 80 189t189 80zM326 402q-82 0 -140 -63t-58 -152q0 -66 39 -106t103 -40q84 0 142 63t58 154q0 66 -39.5 105t-104.5 39zM456 631q15 0 25 -10t10 -25
q0 -19 -15 -33.5t-34 -14.5q-15 0 -25 10t-10 25q0 19 15 33.5t34 14.5zM272 631q16 0 26 -10t10 -25q0 -19 -15 -33.5t-35 -14.5q-15 0 -25 10t-10 25q0 19 15 33.5t34 14.5z" />
    <glyph glyph-name="divide" unicode="&#xf7;" horiz-adv-x="556" 
d="M540 337l-8 -50h-416l8 50h416zM308 184q16 0 27 -11t11 -28q0 -20 -16 -36t-38 -16q-16 0 -26.5 11t-10.5 28q0 20 16 36t37 16zM363 531q16 0 27 -11t11 -27q0 -21 -16 -37t-38 -16q-16 0 -26.5 11t-10.5 28q0 20 16 36t37 16z" />
    <glyph glyph-name="oslash" unicode="&#xf8;" horiz-adv-x="542" 
d="M563 416l-57 -49q29 -48 29 -106q0 -109 -80 -190.5t-187 -81.5q-81 0 -139 56l-55 -46l-25 28l57 49q-29 47 -29 106q0 109 80 190.5t187 81.5q83 0 139 -56l55 46zM463 330l-292 -249q44 -40 104 -40q85 0 143.5 63.5t58.5 156.5q0 40 -14 69zM149 113l292 249
q-43 40 -104 40q-85 0 -144 -64t-59 -156q0 -32 15 -69z" />
    <glyph glyph-name="ugrave" unicode="&#xf9;" horiz-adv-x="510" 
d="M378 543l-37 -20l-97 116l62 31zM387 0l10 61q-63 -72 -153 -72q-70 0 -110.5 38.5t-40.5 103.5q0 35 6 72l38 240h56l-36 -232q-6 -33 -6 -62q0 -51 27.5 -78.5t79.5 -27.5q81 0 125 60q27 39 39 119l36 221h56l-70 -443h-57z" />
    <glyph glyph-name="uacute" unicode="&#xfa;" horiz-adv-x="510" 
d="M301 543l113 127l52 -31l-134 -116zM387 0l10 61q-63 -72 -153 -72q-70 0 -110.5 38.5t-40.5 103.5q0 35 6 72l38 240h56l-36 -232q-6 -33 -6 -62q0 -51 27.5 -78.5t79.5 -27.5q81 0 125 60q27 39 39 119l36 221h56l-70 -443h-57z" />
    <glyph glyph-name="ucircumflex" unicode="&#xfb;" horiz-adv-x="510" 
d="M245 523l-37 19l126 118h51l89 -118l-43 -19l-79 87zM387 0l10 61q-63 -72 -153 -72q-70 0 -110.5 38.5t-40.5 103.5q0 35 6 72l38 240h56l-36 -232q-6 -33 -6 -62q0 -51 27.5 -78.5t79.5 -27.5q81 0 125 60q27 39 39 119l36 221h56l-70 -443h-57z" />
    <glyph glyph-name="udieresis" unicode="&#xfc;" horiz-adv-x="510" 
d="M387 0l10 61q-63 -72 -153 -72q-70 0 -110.5 38.5t-40.5 103.5q0 35 6 72l38 240h56l-36 -232q-6 -33 -6 -62q0 -51 27.5 -78.5t79.5 -27.5q81 0 125 60q27 39 39 119l36 221h56l-70 -443h-57zM264 631q15 0 25 -10t10 -25q0 -19 -15 -33.5t-34 -14.5q-15 0 -25 10
t-10 25q0 19 15 33.5t34 14.5zM448 631q15 0 25 -10t10 -24q0 -20 -15 -34.5t-35 -14.5q-14 0 -24.5 10t-10.5 25q0 19 15 33.5t35 14.5z" />
    <glyph glyph-name="yacute" unicode="&#xfd;" horiz-adv-x="435" 
d="M266 543l112 127l53 -31l-134 -116zM188 15l-114 428h62l92 -359l212 359h61l-402 -677h-58z" />
    <glyph glyph-name="thorn" unicode="&#xfe;" horiz-adv-x="551" 
d="M30 -234l143 901h56l-47 -297q78 84 180 84q83 0 136 -55t53 -140q0 -108 -80 -189t-186 -81q-97 0 -150 84l-49 -307h-56zM349 402q-80 0 -137 -63.5t-57 -152.5q0 -66 37.5 -105.5t101.5 -39.5q83 0 141 63t58 152q0 67 -39 106.5t-105 39.5z" />
    <glyph glyph-name="ydieresis" unicode="&#xff;" horiz-adv-x="435" 
d="M188 15l-114 428h62l92 -359l212 359h61l-402 -677h-58zM226 631q15 0 25 -10t10 -25q0 -19 -15 -33.5t-34 -14.5q-15 0 -25 10.5t-10 24.5q0 19 15 33.5t34 14.5zM410 631q15 0 25 -10t10 -25q0 -19 -15 -33.5t-34 -14.5q-15 0 -25 10t-10 25q0 19 15 33.5t34 14.5z" />
    <glyph glyph-name="Amacron" unicode="&#x100;" horiz-adv-x="615" 
d="M306 816h261l-8 -51h-261zM71 0h-61l367 667h72l156 -667h-62l-45 193h-322zM206 248h280l-83 361z" />
    <glyph glyph-name="amacron" unicode="&#x101;" horiz-adv-x="550" 
d="M240 616h261l-8 -51h-261zM484 0h-57l12 73q-83 -84 -180 -84q-83 0 -136 55t-53 140q0 107 79.5 188.5t184.5 81.5q95 0 152 -84l12 73h56zM324 402q-81 0 -138.5 -63t-57.5 -152q0 -66 39 -106t103 -40q83 0 140 63.5t57 154.5q0 65 -39 104t-104 39z" />
    <glyph glyph-name="Abreve" unicode="&#x102;" horiz-adv-x="615" 
d="M315 841l50 4q-1 -6 -1 -15q0 -26 18.5 -43t46.5 -17q65 0 88 75l48 -4q-17 -56 -55.5 -88t-89.5 -32q-45 0 -75.5 28t-30.5 70zM71 0h-61l367 667h72l156 -667h-62l-45 193h-322zM206 248h280l-83 361z" />
    <glyph glyph-name="abreve" unicode="&#x103;" horiz-adv-x="550" 
d="M239 641l49 4v-15q0 -25 18.5 -42t45.5 -17q64 0 89 74l47 -4q-17 -56 -55 -87.5t-89 -31.5q-45 0 -75.5 28t-30.5 69q0 13 1 22zM484 0h-57l12 73q-83 -84 -180 -84q-83 0 -136 55t-53 140q0 107 79.5 188.5t184.5 81.5q95 0 152 -84l12 73h56zM324 402
q-81 0 -138.5 -63t-57.5 -152q0 -66 39 -106t103 -40q83 0 140 63.5t57 154.5q0 65 -39 104t-104 39z" />
    <glyph glyph-name="Aogonek" unicode="&#x104;" horiz-adv-x="615" 
d="M548 0h-5l-45 193h-322l-105 -193h-61l367 667h72l156 -667q-47 -47 -47 -73q0 -25 33 -25q13 0 35 7l10 -41q-34 -11 -58 -11q-33 0 -53 17t-20 44q0 37 43 82zM206 248h280l-83 361z" />
    <glyph glyph-name="aogonek" unicode="&#x105;" horiz-adv-x="550" 
d="M554 443l-70 -443q-47 -46 -47 -73q0 -25 33 -25q14 0 35 7l10 -41q-34 -11 -58 -11q-33 0 -53 17t-20 44q0 37 43 82l12 73q-83 -84 -180 -84q-83 0 -136 55t-53 140q0 107 79.5 188.5t184.5 81.5q95 0 152 -84l12 73h56zM324 402q-81 0 -138.5 -63t-57.5 -152
q0 -66 39 -106t103 -40q83 0 140 63.5t57 154.5q0 65 -39 104t-104 39z" />
    <glyph glyph-name="Cacute" unicode="&#x106;" horiz-adv-x="659" 
d="M466 743l113 127l53 -31l-134 -116zM710 577l-47 -41q-69 86 -178 86q-133 0 -232 -101t-99 -236q0 -105 67.5 -172.5t171.5 -67.5q106 0 210 88l34 -41q-64 -54 -123.5 -78.5t-128.5 -24.5q-127 0 -209 81.5t-82 208.5q0 104 55.5 196t149 147.5t197.5 55.5
q126 0 214 -101z" />
    <glyph glyph-name="cacute" unicode="&#x107;" horiz-adv-x="455" 
d="M298 543l113 127l52 -31l-134 -116zM487 384l-44 -38q-45 56 -114 56q-85 0 -143 -62.5t-58 -152.5q0 -67 39 -106.5t107 -39.5q73 0 134 60l32 -39q-83 -73 -176 -73q-86 0 -140 54t-54 141q0 109 80 189.5t189 80.5q46 0 80 -16t68 -54z" />
    <glyph glyph-name="Ccircumflex" unicode="&#x108;" horiz-adv-x="659" 
d="M389 723l-37 19l126 118h51l89 -118l-43 -19l-79 87zM710 577l-47 -41q-69 86 -178 86q-133 0 -232 -101t-99 -236q0 -105 67.5 -172.5t171.5 -67.5q106 0 210 88l34 -41q-64 -54 -123.5 -78.5t-128.5 -24.5q-127 0 -209 81.5t-82 208.5q0 104 55.5 196t149 147.5
t197.5 55.5q126 0 214 -101z" />
    <glyph glyph-name="ccircumflex" unicode="&#x109;" horiz-adv-x="455" 
d="M239 523l-36 19l126 118h51l88 -118l-42 -19l-80 87zM487 384l-44 -38q-45 56 -114 56q-85 0 -143 -62.5t-58 -152.5q0 -67 39 -106.5t107 -39.5q73 0 134 60l32 -39q-83 -73 -176 -73q-86 0 -140 54t-54 141q0 109 80 189.5t189 80.5q46 0 80 -16t68 -54z" />
    <glyph glyph-name="Cdotaccent" unicode="&#x10a;" horiz-adv-x="659" 
d="M710 577l-47 -41q-69 86 -178 86q-133 0 -232 -101t-99 -236q0 -105 67.5 -172.5t171.5 -67.5q106 0 210 88l34 -41q-64 -54 -123.5 -78.5t-128.5 -24.5q-127 0 -209 81.5t-82 208.5q0 104 55.5 196t149 147.5t197.5 55.5q126 0 214 -101zM508 832q16 0 26 -10t10 -25
q0 -19 -15 -33.5t-35 -14.5q-15 0 -25 10t-10 25q0 19 15 33.5t34 14.5z" />
    <glyph glyph-name="cdotaccent" unicode="&#x10b;" horiz-adv-x="455" 
d="M487 384l-44 -38q-45 56 -114 56q-85 0 -143 -62.5t-58 -152.5q0 -67 39 -106.5t107 -39.5q73 0 134 60l32 -39q-83 -73 -176 -73q-86 0 -140 54t-54 141q0 109 80 189.5t189 80.5q46 0 80 -16t68 -54zM354 631q15 0 25 -10t10 -25q0 -19 -15 -33.5t-35 -14.5
q-15 0 -25 10t-10 25q0 19 15 33.5t35 14.5z" />
    <glyph glyph-name="Ccaron" unicode="&#x10c;" horiz-adv-x="659" 
d="M411 864l80 -87l107 87l36 -19l-126 -118h-51l-89 118zM710 577l-47 -41q-69 86 -178 86q-133 0 -232 -101t-99 -236q0 -105 67.5 -172.5t171.5 -67.5q106 0 210 88l34 -41q-64 -54 -123.5 -78.5t-128.5 -24.5q-127 0 -209 81.5t-82 208.5q0 104 55.5 196t149 147.5
t197.5 55.5q126 0 214 -101z" />
    <glyph glyph-name="ccaron" unicode="&#x10d;" horiz-adv-x="455" 
d="M262 665l79 -88l107 88l37 -20l-126 -118h-51l-89 118zM487 384l-44 -38q-45 56 -114 56q-85 0 -143 -62.5t-58 -152.5q0 -67 39 -106.5t107 -39.5q73 0 134 60l32 -39q-83 -73 -176 -73q-86 0 -140 54t-54 141q0 109 80 189.5t189 80.5q46 0 80 -16t68 -54z" />
    <glyph glyph-name="Dcaron" unicode="&#x10e;" horiz-adv-x="619" 
d="M333 864l80 -87l107 87l36 -19l-126 -118h-51l-88 118zM189 667h131q148 0 229.5 -71t81.5 -199q0 -176 -116.5 -286.5t-300.5 -110.5h-131zM239 612l-88 -557h75q151 0 248 93t97 238q0 107 -68 166.5t-189 59.5h-75z" />
    <glyph glyph-name="dcaron" unicode="&#x10f;" horiz-adv-x="638" 
d="M691 679l53 -17l-83 -141l-36 12zM484 0h-57l12 73q-79 -84 -179 -84q-83 0 -136.5 55t-53.5 140q0 107 80 188.5t186 81.5q97 0 150 -84l47 297h56zM324 402q-81 0 -138.5 -63t-57.5 -152q0 -66 39 -106t103 -40q82 0 139 63.5t57 154.5q0 65 -38.5 104t-103.5 39z" />
    <glyph glyph-name="Dcroat" unicode="&#x110;" horiz-adv-x="629" 
d="M146 333h-62l8 53h63l44 281h131q148 0 229.5 -71t81.5 -200q0 -175 -116 -285.5t-301 -110.5h-131zM369 333h-164l-44 -278h75q151 0 248 92.5t97 237.5q0 107 -67.5 167t-188.5 60h-76l-35 -226h163z" />
    <glyph glyph-name="dcroat" unicode="&#x111;" horiz-adv-x="551" 
d="M484 0h-57l12 73q-79 -84 -179 -84q-83 0 -136.5 55t-53.5 140q0 107 80 188.5t186 81.5q98 0 150 -84l25 158h-122l8 51h122l14 88h56l-14 -88h62l-8 -51h-62zM324 402q-81 0 -138.5 -63t-57.5 -152q0 -66 39 -106t103 -40q82 0 139 63.5t57 154.5q0 65 -38.5 104
t-103.5 39z" />
    <glyph glyph-name="Emacron" unicode="&#x112;" horiz-adv-x="472" 
d="M254 816h260l-8 -51h-260zM513 613h-274l-39 -247h244l-9 -55h-244l-40 -256h284l-8 -55h-344l106 667h333z" />
    <glyph glyph-name="emacron" unicode="&#x113;" horiz-adv-x="498" 
d="M216 616h260l-8 -51h-260zM127 198v-15q0 -64 37 -103t98 -39q92 0 154 79l48 -21q-86 -110 -209 -110q-83 0 -134 53.5t-51 140.5q0 107 76.5 189t176.5 82q79 0 126.5 -52.5t47.5 -140.5q0 -24 -6 -63h-364zM135 246h307q0 43 -8 69q-13 41 -44 64t-75 23
q-62 0 -111.5 -43t-68.5 -113z" />
    <glyph glyph-name="Ebreve" unicode="&#x114;" horiz-adv-x="472" 
d="M263 841l49 4v-15q0 -25 18.5 -42.5t45.5 -17.5q64 0 89 75l47 -4q-17 -56 -55 -88t-88 -32q-46 0 -76.5 28t-30.5 70q0 13 1 22zM513 613h-274l-39 -247h244l-9 -55h-244l-40 -256h284l-8 -55h-344l106 667h333z" />
    <glyph glyph-name="ebreve" unicode="&#x115;" horiz-adv-x="498" 
d="M229 641l49 4q-1 -6 -1 -15q0 -26 18.5 -43t46.5 -17q65 0 88 75l48 -4q-17 -56 -55.5 -88t-89.5 -32q-45 0 -75.5 28t-30.5 70q0 4 2 22zM127 198v-15q0 -64 37 -103t98 -39q92 0 154 79l48 -21q-86 -110 -209 -110q-83 0 -134 53.5t-51 140.5q0 107 76.5 189t176.5 82
q79 0 126.5 -52.5t47.5 -140.5q0 -24 -6 -63h-364zM135 246h307q0 43 -8 69q-13 41 -44 64t-75 23q-62 0 -111.5 -43t-68.5 -113z" />
    <glyph glyph-name="Edotaccent" unicode="&#x116;" horiz-adv-x="472" 
d="M513 613h-274l-39 -247h244l-9 -55h-244l-40 -256h284l-8 -55h-344l106 667h333zM387 832q15 0 25 -10t10 -25q0 -19 -15 -33.5t-34 -14.5q-15 0 -25 10t-10 25q0 19 15 33.5t34 14.5z" />
    <glyph glyph-name="edotaccent" unicode="&#x117;" horiz-adv-x="498" 
d="M127 198v-15q0 -64 37 -103t98 -39q92 0 154 79l48 -21q-86 -110 -209 -110q-83 0 -134 53.5t-51 140.5q0 107 76.5 189t176.5 82q79 0 126.5 -52.5t47.5 -140.5q0 -24 -6 -63h-364zM135 246h307q0 43 -8 69q-13 41 -44 64t-75 23q-62 0 -111.5 -43t-68.5 -113zM349 631
q15 0 25 -10t10 -25q0 -19 -15 -33.5t-34 -14.5q-15 0 -25 10.5t-10 24.5q0 19 15 33.5t34 14.5z" />
    <glyph glyph-name="Eogonek" unicode="&#x118;" horiz-adv-x="472" 
d="M435 55l-8 -55q-47 -44 -47 -73q0 -25 33 -25q13 0 35 7l10 -41q-34 -11 -58 -11q-33 0 -53 17t-20 44q0 39 43 82h-287l106 667h333l-9 -54h-274l-39 -247h244l-9 -55h-244l-40 -256h284z" />
    <glyph glyph-name="eogonek" unicode="&#x119;" horiz-adv-x="498" 
d="M416 120l48 -21q-75 -97 -188 -108q-37 -39 -37 -64t33 -25q14 0 35 7l10 -40q-33 -12 -58 -12q-32 0 -52.5 17t-20.5 44q0 36 36 74q-71 12 -111.5 63t-40.5 128q0 107 76.5 189t176.5 82q79 0 126.5 -52.5t47.5 -140.5q0 -24 -6 -63h-364v-15q0 -64 37 -103t98 -39
q93 0 154 79zM135 246h307q0 43 -8 69q-13 41 -44 64t-75 23q-62 0 -111.5 -43t-68.5 -113z" />
    <glyph glyph-name="Ecaron" unicode="&#x11a;" horiz-adv-x="472" 
d="M299 864l79 -87l107 87l36 -19l-125 -118h-51l-89 118zM513 613h-274l-39 -247h244l-9 -55h-244l-40 -256h284l-8 -55h-344l106 667h333z" />
    <glyph glyph-name="ecaron" unicode="&#x11b;" horiz-adv-x="498" 
d="M261 665l79 -88l107 88l37 -20l-126 -118h-51l-89 118zM127 198v-15q0 -64 37 -103t98 -39q92 0 154 79l48 -21q-86 -110 -209 -110q-83 0 -134 53.5t-51 140.5q0 107 76.5 189t176.5 82q79 0 126.5 -52.5t47.5 -140.5q0 -24 -6 -63h-364zM135 246h307q0 43 -8 69
q-13 41 -44 64t-75 23q-62 0 -111.5 -43t-68.5 -113z" />
    <glyph glyph-name="Gcircumflex" unicode="&#x11c;" horiz-adv-x="728" 
d="M391 723l-37 19l127 118h50l89 -118l-43 -19l-79 87zM665 282h-200l8 55h261l-4 -30q-23 -144 -116.5 -231t-226.5 -87q-128 0 -210.5 81.5t-82.5 208.5q0 104 55.5 196t149 147.5t197.5 55.5q126 0 214 -101l-47 -41q-69 86 -178 86q-133 0 -232 -100.5t-99 -236.5
q0 -105 67.5 -172.5t172.5 -67.5q104 0 177.5 64t93.5 173z" />
    <glyph glyph-name="gcircumflex" unicode="&#x11d;" horiz-adv-x="550" 
d="M437 523l-79 87l-107 -87l-37 19l126 118h51l89 -118zM554 443l-71 -451q-17 -107 -90.5 -171.5t-177.5 -64.5q-114 0 -181 93l43 38q30 -43 63 -61t83 -18q81 0 135 49t68 135l1 7l12 74q-79 -84 -179 -84q-83 0 -136.5 55t-53.5 140q0 108 80 189t186 81q98 0 150 -84
l12 73h56zM326 402q-82 0 -140 -63t-58 -152q0 -66 39 -106t103 -40q83 0 140 63.5t57 154.5q0 65 -38.5 104t-102.5 39z" />
    <glyph glyph-name="Gbreve" unicode="&#x11e;" horiz-adv-x="728" 
d="M396 841l49 4v-15q0 -25 18.5 -42.5t45.5 -17.5q64 0 89 75l47 -4q-17 -56 -55.5 -88t-88.5 -32q-45 0 -75.5 28t-30.5 70q0 13 1 22zM665 282h-200l8 55h261l-4 -30q-23 -144 -116.5 -231t-226.5 -87q-128 0 -210.5 81.5t-82.5 208.5q0 104 55.5 196t149 147.5
t197.5 55.5q126 0 214 -101l-47 -41q-69 86 -178 86q-133 0 -232 -100.5t-99 -236.5q0 -105 67.5 -172.5t172.5 -67.5q104 0 177.5 64t93.5 173z" />
    <glyph glyph-name="gbreve" unicode="&#x11f;" horiz-adv-x="550" 
d="M239 641l49 4v-15q0 -25 18.5 -42.5t45.5 -17.5q64 0 89 75l47 -4q-16 -56 -54.5 -88t-89.5 -32q-45 0 -75.5 28t-30.5 70q0 13 1 22zM554 443l-71 -451q-17 -107 -90.5 -171.5t-177.5 -64.5q-114 0 -181 93l43 38q30 -43 63 -61t83 -18q81 0 135 49t68 135l1 7l12 74
q-79 -84 -179 -84q-83 0 -136.5 55t-53.5 140q0 108 80 189t186 81q98 0 150 -84l12 73h56zM326 402q-82 0 -140 -63t-58 -152q0 -66 39 -106t103 -40q83 0 140 63.5t57 154.5q0 65 -38.5 104t-102.5 39z" />
    <glyph glyph-name="Gdotaccent" unicode="&#x120;" horiz-adv-x="728" 
d="M665 282h-200l8 55h261l-4 -30q-23 -144 -116.5 -231t-226.5 -87q-128 0 -210.5 81.5t-82.5 208.5q0 104 55.5 196t149 147.5t197.5 55.5q126 0 214 -101l-47 -41q-69 86 -178 86q-133 0 -232 -100.5t-99 -236.5q0 -105 67.5 -172.5t172.5 -67.5q104 0 177.5 64t93.5 173
zM519 832q15 0 25 -10t10 -25q0 -19 -15 -33.5t-34 -14.5q-15 0 -25 10t-10 25q0 19 15 33.5t34 14.5z" />
    <glyph glyph-name="gdotaccent" unicode="&#x121;" horiz-adv-x="550" 
d="M554 443l-71 -451q-17 -107 -90.5 -171.5t-177.5 -64.5q-114 0 -181 93l43 38q30 -43 63 -61t83 -18q81 0 135 49t68 135l1 7l12 74q-79 -84 -179 -84q-83 0 -136.5 55t-53.5 140q0 108 80 189t186 81q98 0 150 -84l12 73h56zM326 402q-82 0 -140 -63t-58 -152
q0 -66 39 -106t103 -40q83 0 140 63.5t57 154.5q0 65 -38.5 104t-102.5 39zM362 631q15 0 25 -10t10 -25q0 -19 -15 -33.5t-34 -14.5q-15 0 -25 10t-10 25q0 19 15 33.5t34 14.5z" />
    <glyph glyph-name="Gcommaaccent" unicode="&#x122;" horiz-adv-x="728" 
d="M348 -55l53 -17l-83 -140l-36 12zM665 282h-200l8 55h261l-4 -30q-23 -144 -116.5 -231t-226.5 -87q-128 0 -210.5 81.5t-82.5 208.5q0 104 55.5 196t149 147.5t197.5 55.5q126 0 214 -101l-47 -41q-69 86 -178 86q-133 0 -232 -100.5t-99 -236.5q0 -105 67.5 -172.5
t172.5 -67.5q104 0 177.5 64t93.5 173z" />
    <glyph glyph-name="gcommaaccent" unicode="&#x123;" horiz-adv-x="550" 
d="M375 513l-53 17l83 141l36 -12zM554 443l-71 -451q-17 -107 -90.5 -171.5t-177.5 -64.5q-114 0 -181 93l43 38q30 -43 63 -61t83 -18q81 0 135 49t68 135l1 7l12 74q-79 -84 -179 -84q-83 0 -136.5 55t-53.5 140q0 108 80 189t186 81q98 0 150 -84l12 73h56zM326 402
q-82 0 -140 -63t-58 -152q0 -66 39 -106t103 -40q83 0 140 63.5t57 154.5q0 65 -38.5 104t-102.5 39z" />
    <glyph glyph-name="Hcircumflex" unicode="&#x124;" horiz-adv-x="650" 
d="M346 723l-37 19l126 118h51l89 -118l-43 -19l-79 87zM200 366h365l48 301h59l-106 -667h-59l49 311h-365l-49 -311h-59l106 667h59z" />
    <glyph glyph-name="hcircumflex" unicode="&#x125;" horiz-adv-x="510" 
d="M279 723l-37 19l127 118h51l88 -118l-43 -19l-79 87zM228 667l-45 -285q61 72 153 72q70 0 110.5 -38.5t40.5 -104.5q0 -33 -6 -71l-38 -240h-56l36 232q6 33 6 62q0 51 -27.5 78.5t-79.5 27.5q-81 0 -125 -60q-27 -39 -39 -119l-36 -221h-56l106 667h56z" />
    <glyph glyph-name="Hbar" unicode="&#x126;" horiz-adv-x="656" 
d="M722 579l-8 -51h-61l-84 -528h-59l49 311h-365l-49 -311h-59l84 528h-62l8 51h62l14 88h59l-14 -88h365l14 88h59l-14 -88h61zM594 528h-365l-26 -162h365z" />
    <glyph glyph-name="hbar" unicode="&#x127;" horiz-adv-x="510" 
d="M159 579l14 88h56l-14 -88h122l-8 -51h-122l-23 -146q62 72 153 72q69 0 110 -38.5t41 -103.5q0 -34 -6 -72l-38 -240h-56l36 232q6 32 6 62q0 51 -27.5 78t-79.5 27q-81 0 -124 -59q-28 -37 -40 -119l-36 -221h-56l84 528h-62l8 51h62z" />
    <glyph glyph-name="Itilde" unicode="&#x128;" horiz-adv-x="226" 
d="M147 748l-43 11q24 74 83 74q25 0 64 -21q28 -13 45 -13q22 0 33 34l43 -11q-21 -73 -83 -73q-27 0 -62 18q-30 16 -46 16q-21 0 -34 -35zM248 667l-106 -667h-59l106 667h59z" />
    <glyph glyph-name="itilde" unicode="&#x129;" horiz-adv-x="190" 
d="M98 548l-43 11q24 74 83 74q25 0 64 -21q28 -13 45 -13q22 0 33 34l43 -11q-21 -73 -83 -73q-28 0 -62 18q-30 16 -46 16q-21 0 -34 -35zM194 443l-70 -443h-57l70 443h57z" />
    <glyph glyph-name="Imacron" unicode="&#x12a;" horiz-adv-x="226" 
d="M112 816h260l-8 -51h-260zM248 667l-106 -667h-59l106 667h59z" />
    <glyph glyph-name="imacron" unicode="&#x12b;" horiz-adv-x="190" 
d="M63 616h260l-8 -51h-260zM194 443l-70 -443h-57l71 443h56z" />
    <glyph glyph-name="Ibreve" unicode="&#x12c;" horiz-adv-x="226" 
d="M248 667l-106 -667h-59l106 667h59zM121 841l49 4v-15q0 -25 18.5 -42.5t45.5 -17.5q64 0 89 75l47 -4q-17 -56 -55 -88t-88 -32q-46 0 -76.5 28t-30.5 70q0 13 1 22z" />
    <glyph glyph-name="ibreve" unicode="&#x12d;" horiz-adv-x="190" 
d="M194 443l-71 -443h-56l70 443h57zM72 641l49 4v-15q0 -25 18.5 -42.5t45.5 -17.5q64 0 89 75l47 -4q-16 -56 -54.5 -88t-88.5 -32q-46 0 -76.5 28t-30.5 70q0 13 1 22z" />
    <glyph glyph-name="Iogonek" unicode="&#x12e;" horiz-adv-x="226" 
d="M164 -91l10 -40q-33 -12 -58 -12q-33 0 -53 17t-20 44q0 37 43 82h-3l106 667h59l-105 -667q-47 -46 -47 -73q0 -25 33 -25q13 0 35 7z" />
    <glyph glyph-name="iogonek" unicode="&#x12f;" horiz-adv-x="190" 
d="M145 -92l10 -40q-34 -11 -58 -11q-32 0 -52.5 17t-20.5 44q0 39 43 82l70 443h57l-70 -443q-47 -47 -47 -73q0 -25 33 -25q16 0 35 6zM196 632q16 0 26 -10t10 -26q0 -19 -15 -34t-35 -15q-15 0 -25.5 10.5t-10.5 25.5q0 19 15 34t35 15z" />
    <glyph glyph-name="Idotaccent" unicode="&#x130;" horiz-adv-x="226" 
d="M248 667l-106 -667h-59l106 667h59zM245 832q15 0 25 -10t10 -25q0 -19 -15 -33.5t-34 -14.5q-15 0 -25 10t-10 25q0 19 15 33.5t34 14.5z" />
    <glyph glyph-name="dotlessi" unicode="&#x131;" horiz-adv-x="190" 
d="M194 443l-71 -443h-56l70 443h57z" />
    <glyph glyph-name="IJ" unicode="&#x132;" horiz-adv-x="613" 
d="M248 667l-106 -667h-59l106 667h59zM635 667l-75 -469q-14 -91 -49 -138q-25 -33 -63 -52t-81 -19q-39 0 -69.5 15t-64.5 51l42 42q49 -52 99 -52q103 0 127 153l74 469h60z" />
    <glyph glyph-name="ij" unicode="&#x133;" 
d="M194 443l-71 -443h-56l70 443h57zM196 632q15 0 25 -10t10 -26q0 -20 -15 -34.5t-35 -14.5q-15 0 -25 10.5t-10 25.5q0 19 15 34t35 15zM144 -233l8 51q17 -4 28 -4q54 0 67 84l87 545h56l-86 -545q-22 -137 -122 -137q-19 0 -38 6zM392 632q16 0 26 -10t10 -26
q0 -19 -15 -34t-35 -15q-15 0 -25.5 10.5t-10.5 25.5q0 19 15 34t35 15z" />
    <glyph glyph-name="Jcircumflex" unicode="&#x134;" horiz-adv-x="395" 
d="M265 723l-37 19l126 118h51l89 -118l-43 -19l-79 87zM417 667l-74 -469q-14 -89 -50 -138q-25 -33 -63 -52t-81 -19q-71 0 -134 66l42 42q28 -29 50 -40.5t50 -11.5q102 0 127 153l74 469h59z" />
    <glyph glyph-name="jcircumflex" unicode="&#x135;" horiz-adv-x="200" 
d="M79 523l-37 19l126 118h51l89 -118l-43 -19l-79 87zM-43 -233l8 51q17 -4 28 -4q54 0 67 84l86 545h57l-86 -545q-23 -137 -122 -137q-19 0 -38 6z" />
    <glyph glyph-name="Kcommaaccent" unicode="&#x136;" horiz-adv-x="560" 
d="M279 -55l53 -17l-83 -140l-36 12zM353 393l196 -393h-69l-173 350l-129 -121l-36 -229h-59l106 667h59l-57 -361l383 361h71z" />
    <glyph glyph-name="kcommaaccent" unicode="&#x137;" horiz-adv-x="458" 
d="M211 -55l53 -17l-83 -140l-36 12zM496 443l-206 -178l163 -265h-70l-137 227l-101 -87l-23 -140h-56l106 667h56l-72 -456l268 232h72z" />
    <glyph glyph-name="kgreenlandic" unicode="&#x138;" horiz-adv-x="458" 
d="M496 443l-206 -178l163 -265h-70l-137 227l-101 -87l-23 -140h-56l70 443h57l-37 -232l268 232h72z" />
    <glyph glyph-name="Lacute" unicode="&#x139;" horiz-adv-x="422" 
d="M200 743l113 127l52 -31l-134 -116zM189 667h59l-97 -612h264l-9 -55h-323z" />
    <glyph glyph-name="lacute" unicode="&#x13a;" horiz-adv-x="191" 
d="M185 754l113 128l52 -31l-134 -116zM123 0h-56l106 667h56z" />
    <glyph glyph-name="Lcommaaccent" unicode="&#x13b;" horiz-adv-x="422" 
d="M229 -55l53 -17l-82 -140l-37 12zM189 667h59l-97 -612h264l-9 -55h-323z" />
    <glyph glyph-name="lcommaaccent" unicode="&#x13c;" horiz-adv-x="190" 
d="M63 -55l53 -17l-83 -140l-36 12zM124 0h-57l106 667h56z" />
    <glyph glyph-name="Lcaron" unicode="&#x13d;" horiz-adv-x="422" 
d="M406 679l53 -17l-83 -141l-36 12zM189 667h59l-97 -612h264l-9 -55h-323z" />
    <glyph glyph-name="lcaron" unicode="&#x13e;" horiz-adv-x="277" 
d="M331 679l53 -17l-83 -141l-36 12zM123 0h-56l106 667h56z" />
    <glyph glyph-name="Ldot" unicode="&#x13f;" horiz-adv-x="422" 
d="M189 667h59l-97 -612h264l-9 -55h-323zM373 375q15 0 25 -10t10 -25q0 -19 -15 -33.5t-34 -14.5q-14 0 -24 10t-10 25q0 19 14.5 33.5t33.5 14.5z" />
    <glyph glyph-name="ldot" unicode="&#x140;" horiz-adv-x="317" 
d="M229 667l-106 -667h-56l106 667h56zM313 375q15 0 25 -10t10 -25q0 -19 -15 -33.5t-34 -14.5q-15 0 -25 10t-10 25q0 19 15 33.5t34 14.5z" />
    <glyph glyph-name="Lslash" unicode="&#x141;" horiz-adv-x="439" 
d="M146 297l-75 -46l9 59l76 47l49 310h59l-45 -283l128 79l-9 -59l-128 -79l-43 -270h264l-8 -55h-324z" />
    <glyph glyph-name="lslash" unicode="&#x142;" horiz-adv-x="244" 
d="M277 383l-73 -45l-54 -338h-56l48 300l-73 -44l10 61l72 44l49 306h56l-42 -268l72 44z" />
    <glyph glyph-name="Nacute" unicode="&#x143;" horiz-adv-x="711" 
d="M447 743l113 127l52 -31l-133 -116zM233 576l-91 -576h-59l106 667h59l335 -576l91 576h59l-106 -667h-59z" />
    <glyph glyph-name="nacute" unicode="&#x144;" horiz-adv-x="510" 
d="M317 543l112 127l53 -31l-134 -116zM193 443l-10 -61q61 72 153 72q70 0 110.5 -38.5t40.5 -104.5q0 -33 -6 -71l-38 -240h-56l36 232q6 33 6 62q0 51 -27.5 78.5t-79.5 27.5q-81 0 -125 -60q-27 -39 -39 -119l-36 -221h-56l70 443h57z" />
    <glyph glyph-name="Ncommaaccent" unicode="&#x145;" horiz-adv-x="711" 
d="M340 -55l53 -17l-83 -140l-36 12zM233 576l-91 -576h-59l106 667h59l335 -576l91 576h59l-106 -667h-59z" />
    <glyph glyph-name="ncommaaccent" unicode="&#x146;" horiz-adv-x="510" 
d="M239 -55l53 -17l-83 -140l-36 12zM193 443l-10 -61q61 72 153 72q70 0 110.5 -38.5t40.5 -104.5q0 -33 -6 -71l-38 -240h-56l36 232q6 33 6 62q0 51 -27.5 78.5t-79.5 27.5q-81 0 -125 -60q-27 -39 -39 -119l-36 -221h-56l70 443h57z" />
    <glyph glyph-name="Ncaron" unicode="&#x147;" horiz-adv-x="711" 
d="M416 864l79 -87l107 87l37 -19l-126 -118h-51l-89 118zM233 576l-91 -576h-59l106 667h59l335 -576l91 576h59l-106 -667h-59z" />
    <glyph glyph-name="ncaron" unicode="&#x148;" horiz-adv-x="510" 
d="M272 665l79 -88l107 88l36 -20l-125 -118h-51l-89 118zM193 443l-10 -61q61 72 153 72q70 0 110.5 -38.5t40.5 -104.5q0 -33 -6 -71l-38 -240h-56l36 232q6 33 6 62q0 51 -27.5 78.5t-79.5 27.5q-81 0 -125 -60q-27 -39 -39 -119l-36 -221h-56l70 443h57z" />
    <glyph glyph-name="napostrophe" unicode="&#x149;" horiz-adv-x="585" 
d="M72 433l113 219l50 -20l-129 -214zM268 443l-9 -61q61 72 153 72q70 0 110.5 -38.5t40.5 -104.5q0 -33 -6 -71l-38 -240h-57l37 232q6 44 6 62q0 51 -27.5 78.5t-79.5 27.5q-81 0 -125 -60q-26 -36 -40 -119l-35 -221h-56l70 443h56z" />
    <glyph glyph-name="Eng" unicode="&#x14a;" horiz-adv-x="711" 
d="M733 667l-107 -678q-22 -137 -122 -137q-19 0 -38 6l8 51q19 -4 28 -4q54 0 67 84l2 12h-4l-334 575l-91 -576h-59l106 667h59l335 -576l91 576h59z" />
    <glyph glyph-name="eng" unicode="&#x14b;" horiz-adv-x="510" 
d="M122 0h-56l70 443h57l-10 -61q61 72 153 72q70 0 110.5 -38.5t40.5 -104.5q0 -33 -6 -71l-40 -251q-22 -137 -121 -137q-20 0 -38 6l8 51q17 -4 28 -4q54 0 67 84l38 243q6 33 6 62q0 51 -27.5 78.5t-79.5 27.5q-81 0 -125 -60q-27 -39 -39 -119z" />
    <glyph glyph-name="Omacron" unicode="&#x14c;" horiz-adv-x="765" 
d="M382 816h260l-8 -51h-260zM493 678q121 0 202.5 -83.5t81.5 -207.5q0 -102 -56 -194.5t-148.5 -148t-194.5 -55.5q-122 0 -203 83.5t-81 209.5q0 101 55.5 193t148.5 147.5t195 55.5zM481 622q-129 0 -228.5 -102t-99.5 -235q0 -102 67.5 -171.5t165.5 -69.5
q131 0 231 101.5t100 234.5q0 105 -66.5 173.5t-169.5 68.5z" />
    <glyph glyph-name="omacron" unicode="&#x14d;" horiz-adv-x="528" 
d="M231 616h261l-8 -51h-261zM339 454q83 0 136 -54.5t53 -139.5q0 -109 -79.5 -190t-186.5 -81q-85 0 -138.5 54.5t-53.5 141.5q0 109 80 189t189 80zM326 402q-82 0 -140 -63t-58 -152q0 -66 39 -106t103 -40q84 0 142 63t58 154q0 66 -39.5 105t-104.5 39z" />
    <glyph glyph-name="Obreve" unicode="&#x14e;" horiz-adv-x="765" 
d="M391 841l49 4q-1 -6 -1 -15q0 -26 18.5 -43t46.5 -17q65 0 88 75l48 -4q-17 -56 -55.5 -88t-89.5 -32q-45 0 -75.5 28t-30.5 70q0 2 2 22zM493 678q121 0 202.5 -83.5t81.5 -207.5q0 -102 -56 -194.5t-148.5 -148t-194.5 -55.5q-122 0 -203 83.5t-81 209.5
q0 101 55.5 193t148.5 147.5t195 55.5zM481 622q-129 0 -228.5 -102t-99.5 -235q0 -102 67.5 -171.5t165.5 -69.5q131 0 231 101.5t100 234.5q0 105 -66.5 173.5t-169.5 68.5z" />
    <glyph glyph-name="obreve" unicode="&#x14f;" horiz-adv-x="528" 
d="M240 641l50 4q-1 -6 -1 -15q0 -26 18.5 -43t46.5 -17q65 0 88 75l48 -4q-17 -56 -55.5 -88t-89.5 -32q-45 0 -75.5 28t-30.5 70zM339 454q83 0 136 -54.5t53 -139.5q0 -109 -79.5 -190t-186.5 -81q-85 0 -138.5 54.5t-53.5 141.5q0 109 80 189t189 80zM326 402
q-82 0 -140 -63t-58 -152q0 -66 39 -106t103 -40q84 0 142 63t58 154q0 66 -39.5 105t-104.5 39z" />
    <glyph glyph-name="Ohungarumlaut" unicode="&#x150;" horiz-adv-x="765" 
d="M652 870l50 -31l-134 -116l-29 19zM512 870l50 -31l-134 -116l-29 19zM493 678q121 0 202.5 -83.5t81.5 -207.5q0 -102 -56 -194.5t-148.5 -148t-194.5 -55.5q-122 0 -203 83.5t-81 209.5q0 101 55.5 193t148.5 147.5t195 55.5zM481 622q-129 0 -228.5 -102t-99.5 -235
q0 -102 67.5 -171.5t165.5 -69.5q131 0 231 101.5t100 234.5q0 105 -66.5 173.5t-169.5 68.5z" />
    <glyph glyph-name="ohungarumlaut" unicode="&#x151;" horiz-adv-x="528" 
d="M372 670l49 -30l-134 -116l-28 19zM512 670l49 -30l-134 -116l-28 19zM339 454q83 0 136 -54.5t53 -139.5q0 -109 -79.5 -190t-186.5 -81q-85 0 -138.5 54.5t-53.5 141.5q0 109 80 189t189 80zM326 402q-82 0 -140 -63t-58 -152q0 -66 39 -106t103 -40q84 0 142 63
t58 154q0 66 -39.5 105t-104.5 39z" />
    <glyph glyph-name="OE" unicode="&#x152;" horiz-adv-x="1049" 
d="M660 0l23 144q-62 -75 -141 -115t-164 -40q-121 0 -203 83.5t-82 206.5q0 103 56 195.5t149 148t196 55.5q80 0 147.5 -42t101.5 -113l23 144h333l-9 -54h-274l-39 -247h244l-9 -55h-244l-40 -256h284l-8 -55h-344zM482 623q-131 0 -230 -102t-99 -236q0 -101 67.5 -171
t164.5 -70q131 0 231 101.5t100 234.5q0 105 -66.5 174t-167.5 69z" />
    <glyph glyph-name="oe" unicode="&#x153;" horiz-adv-x="892" 
d="M811 120l48 -21q-87 -110 -210 -110q-61 0 -106 31.5t-65 87.5q-37 -55 -95 -87t-121 -32q-85 0 -138.5 54.5t-53.5 140.5q0 108 80 189t186 81q62 0 109 -31t69 -87q82 118 203 118q80 0 127.5 -52.5t47.5 -140.5q0 -27 -7 -63h-363v-15q0 -64 37 -103t98 -39
q92 0 154 79zM326 402q-82 0 -140 -63t-58 -152q0 -66 39 -106t103 -40q83 0 141.5 63t58.5 154q0 66 -39.5 105t-104.5 39zM530 246h307q0 42 -8 69q-14 41 -45 64t-74 23q-63 0 -112 -42.5t-68 -113.5z" />
    <glyph glyph-name="Racute" unicode="&#x154;" horiz-adv-x="526" 
d="M332 743l113 127l52 -31l-134 -116zM189 667h131q97 0 145 -29q69 -44 69 -138q0 -70 -41 -126.5t-110 -81.5l114 -292h-66l-108 280q-39 -4 -65 -4h-72l-44 -276h-59zM195 330h81q99 0 149 46q50 47 50 117q0 61 -38 90t-117 29h-81z" />
    <glyph glyph-name="racute" unicode="&#x155;" horiz-adv-x="289" 
d="M189 543l113 127l52 -31l-133 -116zM136 443h57l-10 -61q52 61 139 61h13l-8 -51h-13q-79 0 -117 -55q-28 -39 -40 -122l-35 -215h-56z" />
    <glyph glyph-name="Rcommaaccent" unicode="&#x156;" horiz-adv-x="526" 
d="M258 -55l53 -17l-83 -140l-36 12zM189 667h131q97 0 145 -29q69 -44 69 -138q0 -70 -41 -126.5t-110 -81.5l114 -292h-66l-108 280q-39 -4 -65 -4h-72l-44 -276h-59zM195 330h81q99 0 149 46q50 47 50 117q0 61 -38 90t-117 29h-81z" />
    <glyph glyph-name="rcommaaccent" unicode="&#x157;" horiz-adv-x="289" 
d="M64 -55l53 -17l-83 -140l-36 12zM137 443h56l-10 -61q54 61 139 61h14l-8 -51h-14q-78 0 -117 -55q-27 -38 -40 -122l-34 -215h-57z" />
    <glyph glyph-name="Rcaron" unicode="&#x158;" horiz-adv-x="526" 
d="M299 864l79 -87l107 87l37 -19l-126 -118h-51l-89 118zM189 667h131q97 0 145 -29q69 -44 69 -138q0 -70 -41 -126.5t-110 -81.5l114 -292h-66l-108 280q-39 -4 -65 -4h-72l-44 -276h-59zM195 330h81q99 0 149 46q50 47 50 117q0 61 -38 90t-117 29h-81z" />
    <glyph glyph-name="rcaron" unicode="&#x159;" horiz-adv-x="284" 
d="M178 665l79 -88l107 88l37 -20l-126 -118h-51l-89 118zM136 443h57l-10 -61q52 61 139 61h13l-8 -51h-13q-79 0 -117 -55q-27 -38 -41 -122l-34 -215h-56z" />
    <glyph glyph-name="Sacute" unicode="&#x15a;" horiz-adv-x="500" 
d="M341 743l113 127l52 -31l-134 -116zM521 582l-52 -31q-37 72 -115 72q-59 0 -104.5 -41.5t-45.5 -95.5q0 -64 87 -100l62 -25q128 -54 128 -146q0 -90 -72.5 -158t-168.5 -68q-75 0 -120 42t-53 119l60 16q14 -121 124 -121q67 0 118.5 48.5t51.5 112.5q0 35 -24 59.5
t-81 48.5l-60 25q-111 47 -111 136q0 83 65 143t156 60q108 0 155 -96z" />
    <glyph glyph-name="sacute" unicode="&#x15b;" horiz-adv-x="368" 
d="M232 543l113 127l52 -31l-134 -116zM375 381l-50 -24q-25 47 -74 47q-40 0 -67.5 -24t-27.5 -58q0 -24 12.5 -35.5t59.5 -31.5l42 -17q82 -35 82 -93q0 -62 -51.5 -109t-121.5 -47q-102 0 -131 106l52 20q16 -42 35.5 -58.5t54.5 -16.5q42 0 73 27.5t31 65.5q0 24 -14 37
t-60 32l-46 19q-72 30 -72 90q0 59 47 101t112 42q79 0 114 -73z" />
    <glyph glyph-name="Scircumflex" unicode="&#x15c;" horiz-adv-x="500" 
d="M267 723l-37 19l126 118h51l89 -118l-43 -19l-79 87zM521 582l-52 -31q-37 72 -115 72q-59 0 -104.5 -41.5t-45.5 -95.5q0 -64 87 -100l62 -25q128 -54 128 -146q0 -90 -72.5 -158t-168.5 -68q-75 0 -120 42t-53 119l60 16q14 -121 124 -121q67 0 118.5 48.5t51.5 112.5
q0 35 -24 59.5t-81 48.5l-60 25q-111 47 -111 136q0 83 65 143t156 60q108 0 155 -96z" />
    <glyph glyph-name="scircumflex" unicode="&#x15d;" horiz-adv-x="368" 
d="M358 523l-80 87l-107 -87l-36 19l126 118h51l88 -118zM375 381l-50 -24q-25 47 -74 47q-40 0 -67.5 -24t-27.5 -58q0 -24 12.5 -35.5t59.5 -31.5l42 -17q82 -35 82 -93q0 -62 -51.5 -109t-121.5 -47q-102 0 -131 106l52 20q16 -42 35.5 -58.5t54.5 -16.5q42 0 73 27.5
t31 65.5q0 24 -14 37t-60 32l-46 19q-72 30 -72 90q0 59 47 101t112 42q79 0 114 -73z" />
    <glyph glyph-name="Scedilla" unicode="&#x15e;" horiz-adv-x="500" 
d="M298 -78l-111 -117l-35 19l96 121zM521 582l-52 -31q-37 72 -115 72q-59 0 -104.5 -41.5t-45.5 -95.5q0 -64 87 -100l62 -25q128 -54 128 -146q0 -90 -72.5 -158t-168.5 -68q-75 0 -120 42t-53 119l60 16q14 -121 124 -121q67 0 118.5 48.5t51.5 112.5q0 35 -24 59.5
t-81 48.5l-60 25q-111 47 -111 136q0 83 65 143t156 60q108 0 155 -96z" />
    <glyph glyph-name="scedilla" unicode="&#x15f;" horiz-adv-x="368" 
d="M226 -78l-111 -117l-35 19l96 121zM375 381l-50 -24q-25 47 -74 47q-40 0 -67.5 -24t-27.5 -58q0 -24 12.5 -35.5t59.5 -31.5l42 -17q82 -35 82 -93q0 -62 -51.5 -109t-121.5 -47q-102 0 -131 106l52 20q16 -42 35.5 -58.5t54.5 -16.5q42 0 73 27.5t31 65.5q0 24 -14 37
t-60 32l-46 19q-72 30 -72 90q0 59 47 101t112 42q79 0 114 -73z" />
    <glyph glyph-name="Scaron" unicode="&#x160;" horiz-adv-x="500" 
d="M289 864l79 -87l108 87l36 -19l-126 -118h-51l-89 118zM521 582l-52 -31q-37 72 -115 72q-59 0 -104.5 -41.5t-45.5 -95.5q0 -64 87 -100l62 -25q128 -54 128 -146q0 -90 -72.5 -158t-168.5 -68q-75 0 -120 42t-53 119l60 16q14 -121 124 -121q67 0 118.5 48.5
t51.5 112.5q0 35 -24 59.5t-81 48.5l-60 25q-111 47 -111 136q0 83 65 143t156 60q108 0 155 -96z" />
    <glyph glyph-name="scaron" unicode="&#x161;" horiz-adv-x="368" 
d="M194 665l79 -88l107 88l37 -20l-126 -118h-51l-89 118zM375 381l-50 -24q-25 47 -74 47q-40 0 -67.5 -24t-27.5 -58q0 -24 12.5 -35.5t59.5 -31.5l42 -17q82 -35 82 -93q0 -62 -51.5 -109t-121.5 -47q-102 0 -131 106l52 20q16 -42 35.5 -58.5t54.5 -16.5q42 0 73 27.5
t31 65.5q0 24 -14 37t-60 32l-46 19q-72 30 -72 90q0 59 47 101t112 42q79 0 114 -73z" />
    <glyph glyph-name="Tcommaaccent" unicode="&#x162;" horiz-adv-x="432" 
d="M185 -55l53 -17l-83 -140l-36 12zM342 612l-96 -612h-60l97 612h-176l9 55h411l-8 -55h-177z" />
    <glyph glyph-name="tcommaaccent" unicode="&#x163;" horiz-adv-x="242" 
d="M105 -55l53 -17l-83 -140l-36 12zM139 392h-52l8 51h52l18 111l60 22l-21 -133h75l-8 -51h-75l-42 -260q-3 -18 -3 -34q0 -51 43 -51q11 0 30 4l-8 -51q-27 -6 -42 -6q-80 0 -80 95q0 15 4 43z" />
    <glyph glyph-name="Tcaron" unicode="&#x164;" horiz-adv-x="432" 
d="M260 864l79 -87l107 87l37 -19l-126 -118h-51l-89 118zM342 612l-96 -612h-60l97 612h-176l9 55h411l-8 -55h-177z" />
    <glyph glyph-name="tcaron" unicode="&#x165;" horiz-adv-x="292" 
d="M346 679l53 -17l-83 -141l-36 12zM139 392h-52l8 51h52l17 109l60 22l-21 -131h76l-8 -51h-76l-41 -260q-3 -16 -3 -34q0 -51 43 -51q12 0 29 4l-8 -51q-25 -6 -41 -6q-80 0 -80 95q0 22 3 43z" />
    <glyph glyph-name="Tbar" unicode="&#x166;" horiz-adv-x="432" 
d="M316 443h101l-8 -51h-101l-62 -392h-60l62 392h-101l8 51h101l27 169h-176l9 55h411l-8 -55h-177z" />
    <glyph glyph-name="tbar" unicode="&#x167;" horiz-adv-x="242" 
d="M164 552l60 22l-21 -131h76l-8 -49h-76l-12 -79h76l-8 -49h-76l-21 -135q-3 -15 -3 -33q0 -51 43 -51q10 0 29 4l-8 -51q-25 -6 -41 -6q-80 0 -80 95q0 22 3 42l22 135h-52l8 49h51l13 79h-52l8 49h52z" />
    <glyph glyph-name="Utilde" unicode="&#x168;" horiz-adv-x="635" 
d="M352 748l-43 11q24 74 84 74q23 0 64 -21q26 -13 44 -13q22 0 33 34l43 -11q-20 -73 -83 -73q-26 0 -62 18q-30 16 -46 16q-21 0 -34 -35zM249 667l-66 -414q-8 -46 -8 -76q0 -54 35 -88q44 -44 114 -44q48 0 94.5 22t71.5 57q29 39 43 129l65 414h60l-69 -435
q-14 -84 -49 -131q-37 -52 -98 -82t-127 -30q-86 0 -143 50.5t-57 126.5q0 32 6 66l68 435h60z" />
    <glyph glyph-name="utilde" unicode="&#x169;" horiz-adv-x="510" 
d="M258 548l-43 11q24 74 83 74q25 0 64 -21q28 -13 45 -13q22 0 33 34l43 -11q-21 -73 -83 -73q-28 0 -62 18q-30 16 -46 16q-21 0 -34 -35zM387 0l10 61q-63 -72 -153 -72q-70 0 -110.5 38.5t-40.5 103.5q0 35 6 72l38 240h56l-36 -232q-6 -33 -6 -62q0 -51 27.5 -78.5
t79.5 -27.5q81 0 125 60q27 39 39 119l36 221h56l-70 -443h-57z" />
    <glyph glyph-name="Umacron" unicode="&#x16a;" horiz-adv-x="635" 
d="M317 816h260l-8 -51h-260zM249 667l-66 -414q-8 -46 -8 -76q0 -54 35 -88q44 -44 114 -44q48 0 94.5 22t71.5 57q29 39 43 129l65 414h60l-69 -435q-14 -84 -49 -131q-37 -52 -98 -82t-127 -30q-86 0 -143 50.5t-57 126.5q0 32 6 66l68 435h60z" />
    <glyph glyph-name="umacron" unicode="&#x16b;" horiz-adv-x="510" 
d="M223 616h260l-8 -51h-260zM387 0l10 61q-63 -72 -153 -72q-70 0 -110.5 38.5t-40.5 103.5q0 35 6 72l38 240h56l-36 -232q-6 -33 -6 -62q0 -51 27.5 -78.5t79.5 -27.5q81 0 125 60q27 39 39 119l36 221h56l-70 -443h-57z" />
    <glyph glyph-name="Ubreve" unicode="&#x16c;" horiz-adv-x="635" 
d="M326 841l49 4v-15q0 -25 18.5 -42.5t45.5 -17.5q64 0 89 75l47 -4q-17 -56 -55 -88t-88 -32q-46 0 -76.5 28t-30.5 70q0 13 1 22zM249 667l-66 -414q-8 -46 -8 -76q0 -54 35 -88q44 -44 114 -44q48 0 94.5 22t71.5 57q29 39 43 129l65 414h60l-69 -435q-14 -84 -49 -131
q-37 -52 -98 -82t-127 -30q-86 0 -143 50.5t-57 126.5q0 32 6 66l68 435h60z" />
    <glyph glyph-name="ubreve" unicode="&#x16d;" horiz-adv-x="510" 
d="M232 641l49 4q-1 -6 -1 -15q0 -26 18.5 -43t46.5 -17q65 0 88 75l48 -4q-17 -56 -55.5 -88t-88.5 -32q-46 0 -76.5 28t-30.5 70q0 2 2 22zM387 0l10 61q-63 -72 -153 -72q-70 0 -110.5 38.5t-40.5 103.5q0 35 6 72l38 240h56l-36 -232q-6 -33 -6 -62q0 -51 27.5 -78.5
t79.5 -27.5q81 0 125 60q27 39 39 119l36 221h56l-70 -443h-57z" />
    <glyph glyph-name="Uring" unicode="&#x16e;" horiz-adv-x="635" 
d="M249 667l-66 -414q-8 -46 -8 -76q0 -54 35 -88q44 -44 114 -44q48 0 94.5 22t71.5 57q29 39 43 129l65 414h60l-69 -435q-14 -84 -49 -131q-37 -52 -98 -82t-127 -30q-86 0 -143 50.5t-57 126.5q0 32 6 66l68 435h60zM455 872q31 0 51.5 -19.5t20.5 -49.5
q0 -37 -29.5 -65.5t-68.5 -28.5q-31 0 -50.5 20t-19.5 50q0 37 29 65t67 28zM451 842q-23 0 -41.5 -18t-18.5 -42q0 -18 12.5 -30.5t31.5 -12.5q23 0 41.5 18t18.5 42q0 19 -12.5 31t-31.5 12z" />
    <glyph glyph-name="uring" unicode="&#x16f;" horiz-adv-x="510" 
d="M361 672q31 0 51.5 -19.5t20.5 -48.5q0 -37 -29.5 -65.5t-68.5 -28.5q-31 0 -50.5 19.5t-19.5 50.5q0 36 29 64t67 28zM357 642q-23 0 -41.5 -18t-18.5 -41q0 -18 12.5 -30.5t30.5 -12.5q24 0 42.5 18t18.5 41q0 19 -12.5 31t-31.5 12zM387 0l10 61q-63 -72 -153 -72
q-70 0 -110.5 38.5t-40.5 103.5q0 35 6 72l38 240h56l-36 -232q-6 -33 -6 -62q0 -51 27.5 -78.5t79.5 -27.5q81 0 125 60q27 39 39 119l36 221h56l-70 -443h-57z" />
    <glyph glyph-name="Uhungarumlaut" unicode="&#x170;" horiz-adv-x="635" 
d="M578 870l49 -31l-134 -116l-28 19zM438 870l49 -31l-134 -116l-28 19zM249 667l-66 -414q-8 -46 -8 -76q0 -54 35 -88q44 -44 114 -44q48 0 94.5 22t71.5 57q29 39 43 129l65 414h60l-69 -435q-14 -84 -49 -131q-37 -52 -98 -82t-127 -30q-86 0 -143 50.5t-57 126.5
q0 32 6 66l68 435h60z" />
    <glyph glyph-name="uhungarumlaut" unicode="&#x171;" horiz-adv-x="510" 
d="M488 670l50 -30l-134 -116l-28 19zM348 670l50 -30l-134 -116l-28 19zM387 0l10 61q-63 -72 -153 -72q-70 0 -110.5 38.5t-40.5 103.5q0 35 6 72l38 240h56l-36 -232q-6 -33 -6 -62q0 -51 27.5 -78.5t79.5 -27.5q81 0 125 60q27 39 39 119l36 221h56l-70 -443h-57z" />
    <glyph glyph-name="Uogonek" unicode="&#x172;" horiz-adv-x="635" 
d="M658 667l-69 -435q-12 -98 -74.5 -161t-165.5 -79q-38 -40 -38 -65t33 -25q13 0 35 7l10 -40q-33 -12 -58 -12q-32 0 -52.5 17t-20.5 44q0 36 34 73q-81 10 -129 57.5t-48 118.5q0 31 6 65l68 435h60l-66 -414q-8 -45 -8 -76q0 -54 35 -88q44 -44 114 -44q48 0 94.5 22
t71.5 58q29 38 43 128l65 414h60z" />
    <glyph glyph-name="uogonek" unicode="&#x173;" horiz-adv-x="510" 
d="M514 443l-70 -443q-47 -46 -47 -73q0 -25 33 -25q13 0 35 7l10 -41q-34 -11 -58 -11q-33 0 -53 17t-20 44q0 37 43 82l10 61q-63 -72 -153 -72q-70 0 -110.5 38.5t-40.5 103.5q0 35 6 72l38 240h56l-36 -232q-6 -33 -6 -62q0 -51 27.5 -78.5t79.5 -27.5q81 0 125 60
q27 39 39 119l36 221h56z" />
    <glyph glyph-name="Wcircumflex" unicode="&#x174;" horiz-adv-x="877" 
d="M460 723l-36 19l126 118h51l88 -118l-42 -19l-80 87zM530 573l-253 -573h-25h-39l-97 667h62l80 -585l258 585h58l72 -585l266 585h61l-308 -667h-26h-38z" />
    <glyph glyph-name="wcircumflex" unicode="&#x175;" horiz-adv-x="672" 
d="M326 523l-37 19l126 118h51l89 -118l-43 -19l-79 87zM170 0l-96 443h61l74 -364l171 364h52l56 -364l190 364h60l-236 -443h-52l-57 360l-171 -360h-52z" />
    <glyph glyph-name="Ycircumflex" unicode="&#x176;" horiz-adv-x="495" 
d="M269 723l-36 19l126 118h51l88 -118l-42 -19l-80 87zM262 279l-153 388h65l127 -332l232 332h64l-276 -388l-44 -279h-59z" />
    <glyph glyph-name="ycircumflex" unicode="&#x177;" horiz-adv-x="435" 
d="M208 523l-36 19l126 118h51l88 -118l-43 -19l-79 87zM188 15l-114 428h62l92 -359l212 359h61l-402 -677h-58z" />
    <glyph glyph-name="Ydieresis" unicode="&#x178;" horiz-adv-x="495" 
d="M262 279l-153 388h65l127 -332l232 332h64l-276 -388l-44 -279h-59zM472 832q15 0 25 -10t10 -25q0 -19 -15 -33.5t-35 -14.5q-14 0 -24.5 10t-10.5 25q0 19 15 33.5t35 14.5zM288 832q15 0 25 -10t10 -25q0 -19 -15 -33.5t-34 -14.5q-15 0 -25 10t-10 25q0 19 15 33.5
t34 14.5z" />
    <glyph glyph-name="Zacute" unicode="&#x179;" horiz-adv-x="508" 
d="M329 743l113 127l52 -31l-133 -116zM103 55h386l-9 -55h-453l9 56l471 556h-352l8 55h415l-9 -57z" />
    <glyph glyph-name="zacute" unicode="&#x17a;" horiz-adv-x="419" 
d="M259 543l113 127l52 -31l-134 -116zM451 394l-342 -343h298l-8 -51h-367l8 48l343 344h-274l9 51h341l-8 -47v-2z" />
    <glyph glyph-name="Zdotaccent" unicode="&#x17b;" horiz-adv-x="508" 
d="M103 55h386l-9 -55h-453l9 56l471 556h-352l8 55h415l-9 -57zM403 832q15 0 25 -10t10 -25q0 -19 -15 -33.5t-34 -14.5q-15 0 -25 10t-10 25q0 19 14.5 33.5t34.5 14.5z" />
    <glyph glyph-name="zdotaccent" unicode="&#x17c;" horiz-adv-x="419" 
d="M451 394l-342 -343h298l-8 -51h-367l8 48l343 344h-274l9 51h341l-8 -47v-2zM315 631q16 0 26 -10t10 -25q0 -19 -15 -33.5t-35 -14.5q-15 0 -25 10t-10 25q0 19 15 33.5t34 14.5z" />
    <glyph glyph-name="Zcaron" unicode="&#x17d;" horiz-adv-x="508" 
d="M314 864l80 -87l107 87l36 -19l-126 -118h-51l-88 118zM103 55h386l-9 -55h-453l9 56l471 556h-352l8 55h415l-9 -57z" />
    <glyph glyph-name="zcaron" unicode="&#x17e;" horiz-adv-x="419" 
d="M227 665l80 -88l107 88l36 -20l-126 -118h-51l-88 118zM451 394l-342 -343h298l-8 -51h-367l8 48l343 344h-274l9 51h341l-8 -47v-2z" />
    <glyph glyph-name="longs" unicode="&#x17f;" horiz-adv-x="224" 
d="M138 0h-56l62 392h-47l9 51h46l15 92q21 138 121 138q14 0 38 -6l-8 -52q-15 5 -27 5q-55 0 -68 -85z" />
    <glyph glyph-name="florin" unicode="&#x192;" horiz-adv-x="459" 
d="M-19 -191l19 52q13 -4 24 -4q56 0 84 80l165 455h-46l18 51h46l9 22l25 72q50 136 151 136q18 0 35 -5l-19 -52q-15 4 -24 4q-55 0 -85 -80l-35 -97h82l-18 -51h-82l-164 -452q-48 -136 -150 -136q-17 0 -35 5z" />
    <glyph glyph-name="Ohorn" unicode="&#x1a0;" horiz-adv-x="762" 
d="M760 716l44 21q35 -32 35 -78q0 -79 -94 -134q32 -66 32 -138q0 -102 -55.5 -194.5t-148.5 -148t-196 -55.5q-120 0 -201.5 83.5t-81.5 207.5q0 102 56 194.5t149 148t196 55.5q135 0 225 -113q68 32 68 89q0 33 -28 62zM481 622q-129 0 -228 -102t-99 -235
q0 -101 67 -170.5t165 -69.5q131 0 231 101t100 234q0 105 -66.5 173.5t-169.5 68.5z" />
    <glyph glyph-name="ohorn" unicode="&#x1a1;" horiz-adv-x="558" 
d="M527 492l44 21q35 -31 35 -78q0 -74 -83 -127q5 -21 5 -48q0 -109 -79.5 -190t-186.5 -81q-85 0 -138.5 54.5t-53.5 140.5q0 108 80 189t187 81q57 0 102 -26.5t69 -75.5q47 29 47 78q0 33 -28 62zM326 402q-82 0 -140 -63t-58 -152q0 -66 39 -106t103 -40q84 0 142 63
t58 154q0 66 -39.5 105t-104.5 39z" />
    <glyph glyph-name="Uhorn" unicode="&#x1af;" horiz-adv-x="662" 
d="M658 667l-16 -101q65 34 65 88q0 33 -28 62l44 21q35 -32 35 -78q0 -96 -125 -148l-44 -279q-14 -84 -49 -131q-37 -52 -98 -82t-127 -30q-86 0 -143 50.5t-57 126.5q0 32 6 66l68 435h60l-66 -414q-8 -46 -8 -76q0 -54 35 -88q44 -44 114 -44q48 0 94.5 22t71.5 58
q29 38 43 128l65 414h60z" />
    <glyph glyph-name="uhorn" unicode="&#x1b0;" horiz-adv-x="565" 
d="M514 443l-16 -100q64 33 64 87q0 34 -27 62l43 21q35 -32 35 -78q0 -96 -124 -147l-45 -288h-57l10 61q-63 -72 -153 -72q-70 0 -110.5 38.5t-40.5 103.5q0 35 6 72l38 240h56l-36 -232q-6 -33 -6 -62q0 -51 27.5 -78.5t79.5 -27.5q81 0 125 60q27 39 39 119l36 221h56z
" />
    <glyph glyph-name="uni01C4" unicode="&#x1c4;" horiz-adv-x="1127" 
d="M189 667h131q148 0 229.5 -71t81.5 -199q0 -176 -116.5 -286.5t-300.5 -110.5h-131zM239 612l-88 -557h75q151 0 248 93t97 238q0 107 -68 166.5t-189 59.5h-75zM932 864l80 -87l107 87l36 -19l-126 -118h-51l-88 118zM721 55h386l-9 -55h-453l9 56l471 556h-352l8 55
h415l-9 -57z" />
    <glyph glyph-name="uni01C5" unicode="&#x1c5;" horiz-adv-x="1037" 
d="M189 667h131q148 0 229.5 -71t81.5 -199q0 -176 -116.5 -286.5t-300.5 -110.5h-131zM239 612l-88 -557h75q151 0 248 93t97 238q0 107 -68 166.5t-189 59.5h-75zM846 665l79 -88l107 88l37 -20l-126 -118h-51l-89 118zM1069 394l-342 -343h298l-8 -51h-367l8 48l343 344
h-273l8 51h341l-7 -47z" />
    <glyph glyph-name="uni01C6" unicode="&#x1c6;" horiz-adv-x="969" 
d="M484 0h-57l12 73q-79 -84 -179 -84q-83 0 -136.5 55t-53.5 140q0 107 80 188.5t186 81.5q97 0 150 -84l47 297h56zM324 402q-81 0 -138.5 -63t-57.5 -152q0 -66 39 -106t103 -40q82 0 139 63.5t57 154.5q0 65 -38.5 104t-103.5 39zM778 665l79 -88l107 88l37 -20
l-126 -118h-51l-89 118zM1001 394l-342 -343h298l-8 -51h-367l8 48l343 344h-273l8 51h341l-8 -47v-2z" />
    <glyph glyph-name="uni01C7" unicode="&#x1c7;" horiz-adv-x="817" 
d="M189 667h59l-97 -612h264l-9 -55h-323zM839 667l-74 -469q-14 -91 -49 -138q-25 -33 -63 -52t-81 -19q-39 0 -70 15t-65 51l43 42q49 -52 99 -52q102 0 127 153l74 469h59z" />
    <glyph glyph-name="uni01C8" unicode="&#x1c8;" horiz-adv-x="622" 
d="M189 667h59l-97 -612h264l-9 -55h-323zM379 -233l8 51q17 -4 28 -4q54 0 67 84l87 545h56l-86 -545q-23 -137 -122 -137q-19 0 -38 6zM627 632q16 0 26 -10t10 -26q0 -19 -15 -34t-35 -15q-15 0 -25.5 10.5t-10.5 25.5q0 19 15 34t35 15z" />
    <glyph glyph-name="uni01C9" unicode="&#x1c9;" horiz-adv-x="391" 
d="M123 0h-56l106 667h56zM148 -233l8 51q17 -4 28 -4q54 0 67 84l86 545h57l-87 -545q-22 -137 -121 -137q-20 0 -38 6zM396 632q16 0 26 -10t10 -26q0 -19 -15 -34t-35 -15q-15 0 -25.5 10.5t-10.5 25.5q0 19 15 34t35 15z" />
    <glyph glyph-name="uni01CA" unicode="&#x1ca;" horiz-adv-x="1093" 
d="M233 576l-91 -576h-59l106 667h59l335 -576l91 576h59l-106 -667h-59zM1128 667l-74 -469q-14 -89 -50 -138q-53 -71 -144 -71q-71 0 -134 66l43 42q49 -52 99 -52q102 0 127 153l74 469h59z" />
    <glyph glyph-name="uni01CB" unicode="&#x1cb;" horiz-adv-x="911" 
d="M233 576l-91 -576h-59l106 667h59l335 -576l91 576h59l-106 -667h-59zM668 -233l8 51q17 -4 28 -4q54 0 67 84l86 545h57l-87 -545q-22 -137 -121 -137q-20 0 -38 6zM916 632q16 0 26 -10t10 -26q0 -19 -15 -34t-35 -15q-15 0 -25.5 10.5t-10.5 25.5q0 19 15 34t35 15z
" />
    <glyph glyph-name="uni01CC" unicode="&#x1cc;" horiz-adv-x="709" 
d="M193 443l-10 -61q61 72 153 72q70 0 110.5 -38.5t40.5 -104.5q0 -33 -6 -71l-38 -240h-56l36 232q6 33 6 62q0 51 -27.5 78.5t-79.5 27.5q-81 0 -125 -60q-27 -39 -39 -119l-36 -221h-56l70 443h57zM466 -233l9 51q16 -4 27 -4q54 0 68 84l86 545h56l-86 -545
q-22 -137 -121 -137q-20 0 -39 6zM714 632q16 0 26 -10t10 -26q0 -19 -15 -34t-35 -15q-15 0 -25.5 10.5t-10.5 25.5q0 19 15 34t35 15z" />
    <glyph glyph-name="uni01CD" unicode="&#x1cd;" horiz-adv-x="615" 
d="M351 864l79 -87l107 87l37 -19l-126 -118h-51l-89 118zM71 0h-61l367 667h72l156 -667h-62l-45 193h-322zM206 248h280l-83 361z" />
    <glyph glyph-name="uni01CE" unicode="&#x1ce;" horiz-adv-x="550" 
d="M273 665l79 -88l108 88l36 -20l-126 -118h-51l-89 118zM484 0h-57l12 73q-83 -84 -180 -84q-83 0 -136 55t-53 140q0 107 79.5 188.5t184.5 81.5q95 0 152 -84l12 73h56zM324 402q-81 0 -138.5 -63t-57.5 -152q0 -66 39 -106t103 -40q83 0 140 63.5t57 154.5
q0 65 -39 104t-104 39z" />
    <glyph glyph-name="uni01CF" unicode="&#x1cf;" horiz-adv-x="226" 
d="M156 864l80 -87l107 87l36 -19l-126 -118h-51l-88 118zM248 667l-106 -667h-59l106 667h59z" />
    <glyph glyph-name="uni01D0" unicode="&#x1d0;" horiz-adv-x="190" 
d="M108 665l79 -88l107 88l37 -20l-126 -118h-51l-89 118zM194 443l-70 -443h-57l71 443h56z" />
    <glyph glyph-name="uni01D1" unicode="&#x1d1;" horiz-adv-x="765" 
d="M426 864l80 -87l107 87l36 -19l-126 -118h-51l-88 118zM493 678q121 0 202.5 -83.5t81.5 -207.5q0 -102 -56 -194.5t-148.5 -148t-194.5 -55.5q-122 0 -203 83.5t-81 209.5q0 101 55.5 193t148.5 147.5t195 55.5zM481 622q-129 0 -228.5 -102t-99.5 -235
q0 -102 67.5 -171.5t165.5 -69.5q131 0 231 101.5t100 234.5q0 105 -66.5 173.5t-169.5 68.5z" />
    <glyph glyph-name="uni01D2" unicode="&#x1d2;" horiz-adv-x="528" 
d="M276 665l79 -88l107 88l37 -20l-126 -118h-51l-89 118zM339 454q83 0 136 -54.5t53 -139.5q0 -109 -79.5 -190t-186.5 -81q-85 0 -138.5 54.5t-53.5 141.5q0 109 80 189t189 80zM326 402q-82 0 -140 -63t-58 -152q0 -66 39 -106t103 -40q84 0 142 63t58 154
q0 66 -39.5 105t-104.5 39z" />
    <glyph glyph-name="uni01D3" unicode="&#x1d3;" horiz-adv-x="635" 
d="M362 864l79 -87l107 87l37 -19l-126 -118h-51l-89 118zM249 667l-66 -414q-8 -46 -8 -76q0 -54 35 -88q44 -44 114 -44q48 0 94.5 22t71.5 57q29 39 43 129l65 414h60l-69 -435q-14 -84 -49 -131q-37 -52 -98 -82t-127 -30q-86 0 -143 50.5t-57 126.5q0 32 6 66l68 435
h60z" />
    <glyph glyph-name="uni01D4" unicode="&#x1d4;" horiz-adv-x="510" 
d="M267 665l80 -88l107 88l36 -20l-126 -118h-51l-88 118zM387 0l10 61q-63 -72 -153 -72q-70 0 -110.5 38.5t-40.5 103.5q0 35 6 72l38 240h56l-36 -232q-6 -33 -6 -62q0 -51 27.5 -78.5t79.5 -27.5q81 0 125 60q27 39 39 119l36 221h56l-70 -443h-57z" />
    <glyph glyph-name="Gcaron" unicode="&#x1e6;" horiz-adv-x="728" 
d="M430 864l79 -87l107 87l37 -19l-126 -118h-51l-89 118zM665 282h-200l8 55h261l-4 -30q-23 -144 -116.5 -231t-226.5 -87q-128 0 -210.5 81.5t-82.5 208.5q0 104 55.5 196t149 147.5t197.5 55.5q126 0 214 -101l-47 -41q-69 86 -178 86q-133 0 -232 -100.5t-99 -236.5
q0 -105 67.5 -172.5t172.5 -67.5q104 0 177.5 64t93.5 173z" />
    <glyph glyph-name="gcaron" unicode="&#x1e7;" horiz-adv-x="550" 
d="M273 665l80 -88l107 88l36 -20l-126 -118h-51l-88 118zM554 443l-71 -451q-17 -107 -90.5 -171.5t-177.5 -64.5q-114 0 -181 93l43 38q30 -43 63 -61t83 -18q81 0 135 49t68 135l1 7l12 74q-79 -84 -179 -84q-83 0 -136.5 55t-53.5 140q0 108 80 189t186 81q98 0 150 -84
l12 73h56zM326 402q-82 0 -140 -63t-58 -152q0 -66 39 -106t103 -40q83 0 140 63.5t57 154.5q0 65 -38.5 104t-102.5 39z" />
    <glyph glyph-name="uni01F4" unicode="&#x1f4;" horiz-adv-x="728" 
d="M469 743l112 127l53 -31l-134 -116zM665 282h-200l8 55h261l-4 -30q-23 -144 -116.5 -231t-226.5 -87q-128 0 -210.5 81.5t-82.5 208.5q0 104 55.5 196t149 147.5t197.5 55.5q126 0 214 -101l-47 -41q-69 86 -178 86q-133 0 -232 -100.5t-99 -236.5q0 -105 67.5 -172.5
t172.5 -67.5q104 0 177.5 64t93.5 173z" />
    <glyph glyph-name="uni01F5" unicode="&#x1f5;" horiz-adv-x="550" 
d="M310 543l113 127l52 -31l-134 -116zM554 443l-71 -451q-17 -107 -90.5 -171.5t-177.5 -64.5q-114 0 -181 93l43 38q30 -43 63 -61t83 -18q81 0 135 49t68 135l1 7l12 74q-79 -84 -179 -84q-83 0 -136.5 55t-53.5 140q0 108 80 189t186 81q98 0 150 -84l12 73h56zM326 402
q-82 0 -140 -63t-58 -152q0 -66 39 -106t103 -40q83 0 140 63.5t57 154.5q0 65 -38.5 104t-102.5 39z" />
    <glyph glyph-name="Aringacute" unicode="&#x1fa;" horiz-adv-x="615" 
d="M378 924l113 128l52 -31l-134 -116zM445 872q31 0 51.5 -19.5t20.5 -48.5q0 -37 -29.5 -65.5t-67.5 -28.5q-31 0 -51.5 19.5t-20.5 49.5q0 37 29.5 65t67.5 28zM441 842q-24 0 -42.5 -18t-18.5 -41q0 -18 12.5 -30.5t31.5 -12.5q24 0 42.5 18t18.5 41q0 19 -12.5 31
t-31.5 12zM71 0h-61l367 667h72l156 -667h-62l-45 193h-322zM206 248h280l-83 361z" />
    <glyph glyph-name="aringacute" unicode="&#x1fb;" horiz-adv-x="550" 
d="M380 672q31 0 51.5 -19.5t20.5 -48.5q0 -37 -29.5 -65.5t-68.5 -28.5q-31 0 -50.5 19.5t-19.5 50.5q0 36 29 64t67 28zM376 642q-23 0 -41.5 -18t-18.5 -41q0 -18 12.5 -30.5t30.5 -12.5q24 0 42.5 18t18.5 41q0 19 -12.5 31t-31.5 12zM316 743l113 127l53 -31l-134 -116
zM484 0h-57l12 73q-83 -84 -180 -84q-83 0 -136 55t-53 140q0 107 79.5 188.5t184.5 81.5q95 0 152 -84l12 73h56zM324 402q-81 0 -138.5 -63t-57.5 -152q0 -66 39 -106t103 -40q83 0 140 63.5t57 154.5q0 65 -39 104t-104 39z" />
    <glyph glyph-name="AEacute" unicode="&#x1fc;" horiz-adv-x="841" 
d="M602 743l113 127l52 -31l-134 -116zM482 193h-278l-128 -193h-66l447 667h434l-9 -54h-274l-39 -247h243l-8 -55h-244l-40 -256h284l-9 -55h-343zM491 248l58 365h-67l-242 -365h251z" />
    <glyph glyph-name="aeacute" unicode="&#x1fd;" horiz-adv-x="832" 
d="M461 543l113 127l52 -31l-134 -116zM751 120l47 -21q-86 -110 -208 -110q-56 0 -99.5 26t-63.5 71q-55 -97 -194 -97q-83 0 -129 32t-46 90q0 77 56.5 124t149.5 47h153l1 24q0 47 -32.5 72t-92.5 25q-78 0 -151 -49l-20 38q96 62 187 62q135 0 156 -102q32 46 84.5 74
t108.5 28q79 0 126.5 -52.5t47.5 -140.5q0 -27 -7 -63h-363v-18q0 -62 37.5 -100.5t97.5 -38.5q90 0 154 79zM411 234h-141q-72 0 -114 -31t-42 -84q0 -37 33.5 -57.5t92.5 -20.5q67 0 107.5 26t48.5 74zM470 246h307v15q0 64 -35 103t-92 39q-64 0 -111.5 -41.5
t-68.5 -115.5z" />
    <glyph glyph-name="Oslashacute" unicode="&#x1fe;" horiz-adv-x="772" 
d="M468 743l113 127l52 -31l-133 -116zM701 592l88 76l27 -31l-88 -77q52 -78 52 -173q0 -102 -55.5 -194.5t-148.5 -148t-196 -55.5q-119 0 -203 86l-88 -76l-27 31l88 77q-53 79 -53 173q0 102 56 194.5t149 148t196 55.5q58 0 112 -23t91 -63zM197 148l459 404
q-72 70 -168 70q-132 0 -231.5 -101.5t-99.5 -237.5q0 -70 40 -135zM681 519l-458 -403q69 -71 166 -71q132 0 231.5 101.5t99.5 235.5q0 77 -39 137z" />
    <glyph glyph-name="oslashacute" unicode="&#x1ff;" horiz-adv-x="542" 
d="M321 543l113 127l52 -31l-133 -116zM563 416l-57 -49q29 -48 29 -106q0 -109 -80 -190.5t-187 -81.5q-81 0 -139 56l-55 -46l-25 28l57 49q-29 47 -29 106q0 109 80 190.5t187 81.5q83 0 139 -56l55 46zM463 330l-292 -249q44 -40 104 -40q85 0 143.5 63.5t58.5 156.5
q0 40 -14 69zM149 113l292 249q-43 40 -104 40q-85 0 -144 -64t-59 -156q0 -32 15 -69z" />
    <glyph glyph-name="uni0200" unicode="&#x200;" horiz-adv-x="615" 
d="M528 742l-35 -19l-97 116l59 31zM388 742l-35 -19l-97 116l59 31zM71 0h-61l367 667h72l156 -667h-62l-45 193h-322zM206 248h280l-83 361z" />
    <glyph glyph-name="uni0201" unicode="&#x201;" horiz-adv-x="550" 
d="M288 543l-35 -19l-97 116l59 30zM428 543l-35 -19l-97 116l59 30zM484 0h-57l12 73q-83 -84 -180 -84q-83 0 -136 55t-53 140q0 107 79.5 188.5t184.5 81.5q95 0 152 -84l12 73h56zM324 402q-81 0 -138.5 -63t-57.5 -152q0 -66 39 -106t103 -40q83 0 140 63.5t57 154.5
q0 65 -39 104t-104 39z" />
    <glyph glyph-name="Scommaaccent" unicode="&#x218;" horiz-adv-x="500" 
d="M293 -78l-112 -117l-35 19l97 121zM521 582l-52 -31q-37 72 -115 72q-59 0 -104.5 -41.5t-45.5 -95.5q0 -64 87 -100l62 -25q128 -54 128 -146q0 -90 -72.5 -158t-168.5 -68q-75 0 -120 42t-53 119l60 16q14 -121 124 -121q67 0 118.5 48.5t51.5 112.5q0 35 -24 59.5
t-81 48.5l-60 25q-111 47 -111 136q0 83 65 143t156 60q108 0 155 -96z" />
    <glyph glyph-name="scommaaccent" unicode="&#x219;" horiz-adv-x="368" 
d="M165 -55l53 -17l-82 -140l-37 12zM375 381l-50 -24q-25 47 -74 47q-40 0 -67.5 -24t-27.5 -58q0 -24 12.5 -35.5t59.5 -31.5l42 -17q82 -35 82 -93q0 -62 -51.5 -109t-121.5 -47q-102 0 -131 106l52 20q16 -42 35.5 -58.5t54.5 -16.5q42 0 73 27.5t31 65.5q0 24 -14 37
t-60 32l-46 19q-72 30 -72 90q0 59 47 101t112 42q79 0 114 -73z" />
    <glyph glyph-name="uni021A" unicode="&#x21a;" horiz-adv-x="432" 
d="M185 -55l53 -17l-83 -140l-36 12zM342 612l-96 -612h-60l97 612h-176l9 55h411l-8 -55h-177z" />
    <glyph glyph-name="uni021B" unicode="&#x21b;" horiz-adv-x="242" 
d="M105 -55l53 -17l-83 -140l-36 12zM139 392h-52l8 51h52l18 111l60 22l-21 -133h75l-8 -51h-75l-42 -260q-3 -18 -3 -34q0 -51 43 -51q11 0 30 4l-8 -51q-27 -6 -42 -6q-80 0 -80 95q0 15 4 43z" />
    <glyph glyph-name="uni0226" unicode="&#x226;" horiz-adv-x="615" 
d="M71 0h-61l367 667h72l156 -667h-62l-45 193h-322zM206 248h280l-83 361zM439 832q16 0 26 -10t10 -25q0 -19 -15 -33.5t-35 -14.5q-15 0 -25 10t-10 25q0 19 14.5 33.5t34.5 14.5z" />
    <glyph glyph-name="uni0227" unicode="&#x227;" horiz-adv-x="550" 
d="M484 0h-57l12 73q-83 -84 -180 -84q-83 0 -136 55t-53 140q0 107 79.5 188.5t184.5 81.5q95 0 152 -84l12 73h56zM324 402q-81 0 -138.5 -63t-57.5 -152q0 -66 39 -106t103 -40q83 0 140 63.5t57 154.5q0 65 -39 104t-104 39zM362 631q15 0 25 -10t10 -25
q0 -19 -15 -33.5t-34 -14.5q-15 0 -25 10.5t-10 24.5q0 19 15 33.5t34 14.5z" />
    <glyph glyph-name="uni0237" unicode="&#x237;" horiz-adv-x="200" 
d="M-43 -233l8 51q17 -4 28 -4q54 0 67 84l86 545h57l-86 -545q-23 -137 -122 -137q-19 0 -38 6z" />
    <glyph glyph-name="uni02BB" unicode="&#x2bb;" horiz-adv-x="218" 
d="M289 681l-113 -218l-50 19l129 213z" />
    <glyph glyph-name="afii57929" unicode="&#x2bc;" horiz-adv-x="252" 
d="M135 475l114 221l50 -20l-129 -216z" />
    <glyph glyph-name="circumflex" unicode="&#x2c6;" horiz-adv-x="476" 
d="M228 523l-37 19l126 118h51l89 -118l-43 -19l-79 87z" />
    <glyph glyph-name="caron" unicode="&#x2c7;" horiz-adv-x="476" 
d="M250 665l79 -88l107 88l37 -20l-126 -118h-51l-89 118z" />
    <glyph glyph-name="uni02C9" unicode="&#x2c9;" horiz-adv-x="476" 
d="M205 616h260l-8 -51h-260z" />
    <glyph glyph-name="breve" unicode="&#x2d8;" horiz-adv-x="476" 
d="M215 641l49 4v-15q0 -25 18.5 -42.5t45.5 -17.5q66 0 89 75l48 -4q-17 -56 -55.5 -88t-88.5 -32q-46 0 -76.5 28t-30.5 70q0 13 1 22z" />
    <glyph glyph-name="dotaccent" unicode="&#x2d9;" horiz-adv-x="476" 
d="M338 631q16 0 26 -10t10 -25q0 -19 -15 -33.5t-35 -14.5q-15 0 -25 10t-10 25q0 19 15 33.5t34 14.5z" />
    <glyph glyph-name="ring" unicode="&#x2da;" horiz-adv-x="476" 
d="M344 672q31 0 51.5 -19.5t20.5 -48.5q0 -37 -29.5 -65.5t-68.5 -28.5q-31 0 -51 19.5t-20 50.5q0 36 29.5 64t67.5 28zM340 642q-24 0 -42.5 -18t-18.5 -41q0 -18 12.5 -30.5t31.5 -12.5q24 0 42.5 18t18.5 41q0 19 -12.5 31t-31.5 12z" />
    <glyph glyph-name="ogonek" unicode="&#x2db;" horiz-adv-x="476" 
d="M442 -91l10 -41q-34 -11 -58 -11q-33 0 -53 17t-20 44q0 39 43 82h57q-47 -46 -47 -73q0 -25 33 -25q13 0 35 7z" />
    <glyph glyph-name="tilde" unicode="&#x2dc;" horiz-adv-x="476" 
d="M241 548l-43 11q24 74 83 74q25 0 64 -21q28 -13 45 -13q22 0 33 34l43 -11q-21 -73 -83 -73q-27 0 -62 18q-30 16 -46 16q-21 0 -34 -35z" />
    <glyph glyph-name="hungarumlaut" unicode="&#x2dd;" horiz-adv-x="476" 
d="M335 670l49 -30l-134 -116l-28 19zM475 670l49 -30l-134 -116l-28 19z" />
    <glyph glyph-name="uni0309" unicode="&#x309;" horiz-adv-x="476" 
d="M334 827l-9 40q33 11 60 11q33 0 52.5 -14t19.5 -39q0 -27 -22 -54l-18 -24q-9 -11 -11 -20h-50q3 15 23 39l4 4q21 27 21 40q0 24 -34 24q-14 0 -36 -7z" />
    <glyph glyph-name="uni0323" unicode="&#x323;" horiz-adv-x="476" 
d="M227 -69q16 0 26 -10t10 -26q0 -19 -15 -34t-35 -15q-15 0 -25.5 10.5t-10.5 25.5q0 19 15 34t35 15z" />
    <glyph glyph-name="uni037E" unicode="&#x37e;" horiz-adv-x="219" 
d="M6 -133l114 221l50 -19l-129 -217zM191 412q15 0 25 -10t10 -25q0 -19 -15 -33.5t-34 -14.5q-14 0 -24 10.5t-10 24.5q0 19 14.5 33.5t33.5 14.5z" />
    <glyph glyph-name="uni0387" unicode="&#x387;" horiz-adv-x="217" 
d="M168 375q15 0 25 -10t10 -25q0 -19 -15 -33.5t-34 -14.5q-14 0 -24 10t-10 25q0 19 14.5 33.5t33.5 14.5z" />
    <glyph glyph-name="uni1E1E" unicode="&#x1e1e;" horiz-adv-x="433" 
d="M490 613h-251l-39 -247h228l-8 -55h-229l-49 -311h-59l106 667h309zM370 832q15 0 25 -10t10 -25q0 -19 -15 -33.5t-34 -14.5q-15 0 -25 10t-10 25q0 19 15 33.5t34 14.5z" />
    <glyph glyph-name="uni1E1F" unicode="&#x1e1f;" horiz-adv-x="245" 
d="M152 443l15 92q21 138 121 138q14 0 38 -6l-8 -52q-15 5 -27 5q-55 0 -68 -85l-14 -92h84l-8 -51h-84l-63 -392h-56l62 392h-47l9 51h46zM286 832q16 0 26 -10t10 -25q0 -19 -15 -33.5t-35 -14.5q-15 0 -25 10t-10 25q0 19 14.5 33.5t34.5 14.5z" />
    <glyph glyph-name="Wgrave" unicode="&#x1e80;" horiz-adv-x="877" 
d="M599 743l-38 -20l-97 116l63 31zM530 573l-253 -573h-25h-39l-97 667h62l80 -585l258 585h58l72 -585l266 585h61l-308 -667h-26h-38z" />
    <glyph glyph-name="wgrave" unicode="&#x1e81;" horiz-adv-x="672" 
d="M457 543l-37 -20l-97 116l62 31zM170 0l-96 443h61l74 -364l171 364h52l56 -364l190 364h60l-236 -443h-52l-57 360l-171 -360h-52z" />
    <glyph glyph-name="Wacute" unicode="&#x1e82;" horiz-adv-x="877" 
d="M521 743l113 127l52 -31l-134 -116zM530 573l-253 -573h-25h-39l-97 667h62l80 -585l258 585h58l72 -585l266 585h61l-308 -667h-26h-38z" />
    <glyph glyph-name="wacute" unicode="&#x1e83;" horiz-adv-x="672" 
d="M356 543l113 127l53 -31l-134 -116zM170 0l-96 443h61l74 -364l171 364h52l56 -364l190 364h60l-236 -443h-52l-57 360l-171 -360h-52z" />
    <glyph glyph-name="Wdieresis" unicode="&#x1e84;" horiz-adv-x="877" 
d="M530 573l-253 -573h-25h-39l-97 667h62l80 -585l258 585h58l72 -585l266 585h61l-308 -667h-26h-38zM663 832q15 0 25 -10t10 -25q0 -19 -15 -33.5t-34 -14.5q-15 0 -25 10t-10 25q0 19 15 33.5t34 14.5zM479 832q16 0 26 -10t10 -25q0 -19 -15 -33.5t-35 -14.5
q-15 0 -25 10t-10 25q0 19 15 33.5t34 14.5z" />
    <glyph glyph-name="wdieresis" unicode="&#x1e85;" horiz-adv-x="672" 
d="M170 0l-96 443h61l74 -364l171 364h52l56 -364l190 364h60l-236 -443h-52l-57 360l-171 -360h-52zM344 631q16 0 26 -10t10 -25q0 -19 -15 -33.5t-35 -14.5q-15 0 -25 10t-10 25q0 19 15 33.5t34 14.5zM528 631q15 0 25 -10t10 -24q0 -19 -14.5 -34t-34.5 -15
q-15 0 -25 10t-10 25q0 19 15 33.5t34 14.5z" />
    <glyph glyph-name="uni1EA0" unicode="&#x1ea0;" horiz-adv-x="615" 
d="M71 0h-61l367 667h72l156 -667h-62l-45 193h-322zM206 248h280l-83 361zM297 -69q15 0 25 -10t10 -25q0 -19 -15 -33.5t-34 -14.5q-15 0 -25 10t-10 25q0 19 15 33.5t34 14.5z" />
    <glyph glyph-name="uni1EA1" unicode="&#x1ea1;" horiz-adv-x="550" 
d="M484 0h-57l12 73q-83 -84 -180 -84q-83 0 -136 55t-53 140q0 107 79.5 188.5t184.5 81.5q95 0 152 -84l12 73h56zM324 402q-81 0 -138.5 -63t-57.5 -152q0 -66 39 -106t103 -40q83 0 140 63.5t57 154.5q0 65 -39 104t-104 39zM262 -69q16 0 26 -10t10 -25
q0 -19 -15 -33.5t-35 -14.5q-15 0 -25 10t-10 25q0 19 15 33.5t34 14.5z" />
    <glyph glyph-name="uni1EA2" unicode="&#x1ea2;" horiz-adv-x="615" 
d="M385 827l-10 40q34 11 60 11q34 0 53.5 -14t19.5 -39q0 -26 -22 -54l-19 -24q-7 -9 -10 -20h-51q3 14 23 39l4 4q22 28 22 40q0 24 -35 24q-13 0 -35 -7zM71 0h-61l367 667h72l156 -667h-62l-45 193h-322zM206 248h280l-83 361z" />
    <glyph glyph-name="uni1EA3" unicode="&#x1ea3;" horiz-adv-x="550" 
d="M484 0h-57l12 73q-83 -84 -180 -84q-83 0 -136 55t-53 140q0 107 79.5 188.5t184.5 81.5q95 0 152 -84l12 73h56zM324 402q-81 0 -138.5 -63t-57.5 -152q0 -66 39 -106t103 -40q83 0 140 63.5t57 154.5q0 65 -39 104t-104 39zM315 624l-9 39q33 11 60 11q34 0 53.5 -14
t19.5 -39q0 -24 -22 -54l-19 -24q-9 -11 -11 -20h-50q3 15 23 39l4 4q22 28 22 40q0 24 -35 24q-17 0 -36 -6z" />
    <glyph glyph-name="uni1EA4" unicode="&#x1ea4;" horiz-adv-x="615" 
d="M509 807l105 118l53 -31l-135 -117l26 -35l-43 -19l-79 87l-107 -87l-37 19l126 118h51zM71 0h-61l367 667h72l156 -667h-62l-45 193h-322zM206 248h280l-83 361z" />
    <glyph glyph-name="uni1EA5" unicode="&#x1ea5;" horiz-adv-x="550" 
d="M389 644l88 -118l-43 -19l-79 87l-107 -87l-36 19l126 118h51zM463 645l112 127l53 -31l-134 -116zM484 0h-57l12 73q-83 -84 -180 -84q-83 0 -136 55t-53 140q0 107 79.5 188.5t184.5 81.5q95 0 152 -84l12 73h56zM324 402q-81 0 -138.5 -63t-57.5 -152q0 -66 39 -106
t103 -40q83 0 140 63.5t57 154.5q0 65 -39 104t-104 39z" />
    <glyph glyph-name="uni1EA6" unicode="&#x1ea6;" horiz-adv-x="615" 
d="M329 723l-37 19l126 118h51l89 -118l-43 -19l-79 87zM639 798l-37 -20l-97 116l62 31zM71 0h-61l367 667h72l156 -667h-62l-45 193h-322zM206 248h280l-83 361z" />
    <glyph glyph-name="uni1EA7" unicode="&#x1ea7;" horiz-adv-x="550" 
d="M526 645l-38 -20l-97 116l62 31zM248 507l-36 19l126 118h51l88 -118l-43 -19l-79 87zM484 0h-57l12 73q-83 -84 -180 -84q-83 0 -136 55t-53 140q0 107 79.5 188.5t184.5 81.5q95 0 152 -84l12 73h56zM324 402q-81 0 -138.5 -63t-57.5 -152q0 -66 39 -106t103 -40
q83 0 140 63.5t57 154.5q0 65 -39 104t-104 39z" />
    <glyph glyph-name="uni1EA8" unicode="&#x1ea8;" horiz-adv-x="615" 
d="M469 860l89 -118l-43 -19l-79 87l-107 -87l-37 19l126 118h51zM71 0h-61l367 667h72l156 -667h-62l-45 193h-322zM206 248h280l-83 361zM544 876l-9 40q33 11 59 11q34 0 53.5 -14t19.5 -39q0 -26 -22 -54l-19 -24q-7 -9 -10 -20h-51q3 12 18 32l6 7l3 4q22 27 22 40
q0 24 -35 24q-13 0 -35 -7z" />
    <glyph glyph-name="uni1EA9" unicode="&#x1ea9;" horiz-adv-x="550" 
d="M389 644l88 -118l-43 -19l-79 87l-107 -87l-36 19l126 118h51zM484 0h-57l12 73q-83 -84 -180 -84q-83 0 -136 55t-53 140q0 107 79.5 188.5t184.5 81.5q95 0 152 -84l12 73h56zM324 402q-81 0 -138.5 -63t-57.5 -152q0 -66 39 -106t103 -40q83 0 140 63.5t57 154.5
q0 65 -39 104t-104 39zM444 724l-10 40q34 11 60 11q34 0 53.5 -14t19.5 -39q0 -24 -22 -54l-19 -24q-9 -12 -10 -20h-51q3 15 23 39l4 4q22 28 22 40q0 24 -35 24q-14 0 -35 -7z" />
    <glyph glyph-name="uni1EAA" unicode="&#x1eaa;" horiz-adv-x="615" 
d="M325 698l-37 19l126 118h51l89 -118l-43 -19l-79 87zM71 0h-61l367 667h72l156 -667h-62l-45 193h-322zM206 248h280l-83 361zM360 866l-43 10q23 74 84 74q23 0 64 -21q26 -13 44 -13q22 0 33 34l43 -10q-21 -74 -83 -74q-26 0 -62 18q-30 16 -46 16q-21 0 -34 -34z" />
    <glyph glyph-name="uni1EAB" unicode="&#x1eab;" horiz-adv-x="550" 
d="M248 507l-37 19l126 118h51l89 -118l-43 -19l-79 87zM484 0h-57l12 73q-83 -84 -180 -84q-83 0 -136 55t-53 140q0 107 79.5 188.5t184.5 81.5q95 0 152 -84l12 73h56zM324 402q-81 0 -138.5 -63t-57.5 -152q0 -66 39 -106t103 -40q83 0 140 63.5t57 154.5q0 65 -39 104
t-104 39zM285 690l-42 10q23 74 84 74q24 0 63 -21q28 -13 45 -13q22 0 33 34l43 -10q-20 -74 -83 -74q-28 0 -62 19q-32 15 -46 15q-20 0 -35 -34z" />
    <glyph glyph-name="uni1EAC" unicode="&#x1eac;" horiz-adv-x="615" 
d="M329 723l-37 19l126 118h51l89 -118l-43 -19l-79 87zM71 0h-61l367 667h72l156 -667h-62l-45 193h-322zM206 248h280l-83 361zM297 -69q15 0 25 -10t10 -25q0 -19 -15 -33.5t-34 -14.5q-15 0 -25 10t-10 25q0 19 15 33.5t34 14.5z" />
    <glyph glyph-name="uni1EAD" unicode="&#x1ead;" horiz-adv-x="550" 
d="M251 523l-37 19l126 118h51l89 -118l-43 -19l-79 87zM484 0h-57l12 73q-83 -84 -180 -84q-83 0 -136 55t-53 140q0 107 79.5 188.5t184.5 81.5q95 0 152 -84l12 73h56zM324 402q-81 0 -138.5 -63t-57.5 -152q0 -66 39 -106t103 -40q83 0 140 63.5t57 154.5q0 65 -39 104
t-104 39zM262 -69q16 0 26 -10t10 -25q0 -19 -15 -33.5t-35 -14.5q-15 0 -25 10t-10 25q0 19 15 33.5t34 14.5z" />
    <glyph glyph-name="uni1EAE" unicode="&#x1eae;" horiz-adv-x="615" 
d="M312 816l49 4q-1 -6 -1 -15q0 -26 18.5 -43t46.5 -17q65 0 88 75l48 -4q-17 -56 -55.5 -88t-89.5 -32q-45 0 -75.5 28t-30.5 70q0 4 2 22zM399 823l112 127l53 -31l-134 -116zM71 0h-61l367 667h72l156 -667h-62l-45 193h-322zM206 248h280l-83 361z" />
    <glyph glyph-name="uni1EAF" unicode="&#x1eaf;" horiz-adv-x="550" 
d="M331 645l113 127l52 -31l-134 -116zM236 624l50 4q-1 -6 -1 -15q0 -25 18.5 -42t45.5 -17q65 0 89 74l48 -4q-17 -56 -55.5 -87.5t-89.5 -31.5q-45 0 -75.5 28t-30.5 69q0 13 1 22zM484 0h-57l12 73q-83 -84 -180 -84q-83 0 -136 55t-53 140q0 107 79.5 188.5t184.5 81.5
q95 0 152 -84l12 73h56zM324 402q-81 0 -138.5 -63t-57.5 -152q0 -66 39 -106t103 -40q83 0 140 63.5t57 154.5q0 65 -39 104t-104 39z" />
    <glyph glyph-name="uni1EB0" unicode="&#x1eb0;" horiz-adv-x="615" 
d="M312 816l49 4q-1 -6 -1 -15q0 -26 18.5 -43t46.5 -17q65 0 88 75l48 -4q-17 -56 -55.5 -88t-89.5 -32q-45 0 -75.5 28t-30.5 70q0 4 2 22zM472 823l-38 -20l-97 116l62 31zM71 0h-61l367 667h72l156 -667h-62l-45 193h-322zM206 248h280l-83 361z" />
    <glyph glyph-name="uni1EB1" unicode="&#x1eb1;" horiz-adv-x="550" 
d="M395 645l-37 -20l-97 116l62 31zM236 624l50 4q-1 -6 -1 -15q0 -25 18.5 -42t45.5 -17q65 0 89 74l48 -4q-17 -56 -55.5 -87.5t-89.5 -31.5q-45 0 -75.5 28t-30.5 69q0 13 1 22zM484 0h-57l12 73q-83 -84 -180 -84q-83 0 -136 55t-53 140q0 107 79.5 188.5t184.5 81.5
q95 0 152 -84l12 73h56zM324 402q-81 0 -138.5 -63t-57.5 -152q0 -66 39 -106t103 -40q83 0 140 63.5t57 154.5q0 65 -39 104t-104 39z" />
    <glyph glyph-name="uni1EB2" unicode="&#x1eb2;" horiz-adv-x="615" 
d="M312 816l49 4q-1 -6 -1 -15q0 -26 18.5 -43t46.5 -17q65 0 88 75l48 -4q-17 -56 -55.5 -88t-89.5 -32q-45 0 -75.5 28t-30.5 70q0 4 2 22zM71 0h-61l367 667h72l156 -667h-62l-45 193h-322zM206 248h280l-83 361zM385 901l-9 40q33 11 59 11q34 0 53.5 -14t19.5 -39
q0 -26 -22 -54l-19 -24q-7 -9 -10 -20h-51q3 12 18 32l6 7l3 4q22 27 22 40q0 24 -35 24q-14 0 -35 -7z" />
    <glyph glyph-name="uni1EB3" unicode="&#x1eb3;" horiz-adv-x="550" 
d="M236 624l50 4q-1 -6 -1 -15q0 -25 18.5 -42t45.5 -17q65 0 89 74l48 -4q-17 -56 -55.5 -87.5t-89.5 -31.5q-45 0 -75.5 28t-30.5 69q0 13 1 22zM484 0h-57l12 73q-83 -84 -180 -84q-83 0 -136 55t-53 140q0 107 79.5 188.5t184.5 81.5q95 0 152 -84l12 73h56zM324 402
q-81 0 -138.5 -63t-57.5 -152q0 -66 39 -106t103 -40q83 0 140 63.5t57 154.5q0 65 -39 104t-104 39zM312 724l-9 40q33 11 59 11q34 0 53.5 -14t19.5 -39q0 -26 -22 -54l-18 -24q-8 -9 -11 -20h-51q3 13 24 39l3 4q22 28 22 40q0 24 -35 24q-13 0 -35 -7z" />
    <glyph glyph-name="uni1EB4" unicode="&#x1eb4;" horiz-adv-x="615" 
d="M312 816l49 4q-1 -6 -1 -15q0 -26 18.5 -43t46.5 -17q65 0 88 75l48 -4q-17 -56 -55.5 -88t-89.5 -32q-45 0 -75.5 28t-30.5 70q0 4 2 22zM71 0h-61l367 667h72l156 -667h-62l-45 193h-322zM206 248h280l-83 361zM360 866l-43 10q23 74 84 74q23 0 64 -21q26 -13 44 -13
q22 0 33 34l43 -10q-21 -74 -83 -74q-26 0 -62 18q-30 16 -46 16q-21 0 -34 -34z" />
    <glyph glyph-name="uni1EB5" unicode="&#x1eb5;" horiz-adv-x="550" 
d="M236 624l49 4v-15q0 -25 18.5 -42t45.5 -17q64 0 89 74l48 -4q-18 -56 -56 -87.5t-89 -31.5q-45 0 -75.5 28t-30.5 69q0 13 1 22zM484 0h-57l12 73q-83 -84 -180 -84q-83 0 -136 55t-53 140q0 107 79.5 188.5t184.5 81.5q95 0 152 -84l12 73h56zM324 402
q-81 0 -138.5 -63t-57.5 -152q0 -66 39 -106t103 -40q83 0 140 63.5t57 154.5q0 65 -39 104t-104 39zM285 688l-42 11q23 73 83 73q25 0 64 -21q28 -13 45 -13q22 0 32 35l43 -11q-20 -74 -83 -74q-27 0 -62 19q-30 15 -45 15q-21 0 -35 -34z" />
    <glyph glyph-name="uni1EB6" unicode="&#x1eb6;" horiz-adv-x="615" 
d="M315 841l50 4q-1 -6 -1 -15q0 -26 18.5 -43t46.5 -17q65 0 88 75l48 -4q-17 -56 -55.5 -88t-89.5 -32q-45 0 -75.5 28t-30.5 70zM71 0h-61l367 667h72l156 -667h-62l-45 193h-322zM206 248h280l-83 361zM297 -69q15 0 25 -10t10 -25q0 -19 -15 -33.5t-34 -14.5
q-15 0 -25 10t-10 25q0 19 15 33.5t34 14.5z" />
    <glyph glyph-name="uni1EB7" unicode="&#x1eb7;" horiz-adv-x="550" 
d="M237 641l50 4q-1 -6 -1 -15q0 -25 18.5 -42.5t45.5 -17.5q66 0 89 75l48 -4q-17 -56 -55.5 -88t-89.5 -32q-45 0 -75.5 28t-30.5 70q0 13 1 22zM484 0h-57l12 73q-83 -84 -180 -84q-83 0 -136 55t-53 140q0 107 79.5 188.5t184.5 81.5q95 0 152 -84l12 73h56zM324 402
q-81 0 -138.5 -63t-57.5 -152q0 -66 39 -106t103 -40q83 0 140 63.5t57 154.5q0 65 -39 104t-104 39zM262 -69q16 0 26 -10t10 -25q0 -19 -15 -33.5t-35 -14.5q-15 0 -25 10t-10 25q0 19 15 33.5t34 14.5z" />
    <glyph glyph-name="uni1EB8" unicode="&#x1eb8;" horiz-adv-x="472" 
d="M513 613h-274l-39 -247h244l-9 -55h-244l-40 -256h284l-8 -55h-344l106 667h333zM257 -69q16 0 26 -10t10 -25q0 -19 -15 -33.5t-35 -14.5q-15 0 -25 10t-10 25q0 19 15 33.5t34 14.5z" />
    <glyph glyph-name="uni1EB9" unicode="&#x1eb9;" horiz-adv-x="498" 
d="M127 198v-15q0 -64 37 -103t98 -39q92 0 154 79l48 -21q-86 -110 -209 -110q-83 0 -134 53.5t-51 140.5q0 107 76.5 189t176.5 82q79 0 126.5 -52.5t47.5 -140.5q0 -24 -6 -63h-364zM135 246h307q0 43 -8 69q-13 41 -44 64t-75 23q-62 0 -111.5 -43t-68.5 -113zM245 -69
q16 0 26 -10t10 -25q0 -19 -15 -33.5t-35 -14.5q-15 0 -25 10t-10 25q0 19 15 33.5t34 14.5z" />
    <glyph glyph-name="uni1EBA" unicode="&#x1eba;" horiz-adv-x="472" 
d="M513 613h-274l-39 -247h244l-9 -55h-244l-40 -256h284l-8 -55h-344l106 667h333zM332 827l-10 40q34 11 60 11q34 0 53.5 -14t19.5 -39q0 -24 -22 -54l-19 -24q-9 -12 -10 -20h-51q3 15 23 39l4 4q22 28 22 40q0 24 -35 24q-14 0 -35 -7z" />
    <glyph glyph-name="uni1EBB" unicode="&#x1ebb;" horiz-adv-x="498" 
d="M127 198v-15q0 -64 37 -103t98 -39q92 0 154 79l48 -21q-86 -110 -209 -110q-83 0 -134 53.5t-51 140.5q0 107 76.5 189t176.5 82q79 0 126.5 -52.5t47.5 -140.5q0 -24 -6 -63h-364zM135 246h307q0 43 -8 69q-13 41 -44 64t-75 23q-62 0 -111.5 -43t-68.5 -113zM302 624
l-9 39q33 11 59 11q34 0 53.5 -14t19.5 -39q0 -26 -22 -54l-19 -24q-7 -9 -10 -20h-51q3 14 24 39l3 4q22 28 22 40q0 24 -35 24q-16 0 -35 -6z" />
    <glyph glyph-name="uni1EBC" unicode="&#x1ebc;" horiz-adv-x="472" 
d="M513 613h-274l-39 -247h244l-9 -55h-244l-40 -256h284l-8 -55h-344l106 667h333zM269 748l-43 11q24 74 83 74q25 0 64 -21q28 -13 45 -13q22 0 33 34l43 -11q-21 -73 -83 -73q-27 0 -62 18q-30 16 -46 16q-21 0 -34 -35z" />
    <glyph glyph-name="uni1EBD" unicode="&#x1ebd;" horiz-adv-x="498" 
d="M127 198v-15q0 -64 37 -103t98 -39q92 0 154 79l48 -21q-86 -110 -209 -110q-83 0 -134 53.5t-51 140.5q0 107 76.5 189t176.5 82q79 0 126.5 -52.5t47.5 -140.5q0 -24 -6 -63h-364zM135 246h307q0 43 -8 69q-13 41 -44 64t-75 23q-62 0 -111.5 -43t-68.5 -113zM251 548
l-43 11q24 74 84 74q23 0 64 -21q26 -13 44 -13q22 0 33 34l43 -11q-21 -73 -83 -73q-26 0 -62 18q-30 16 -46 16q-21 0 -34 -35z" />
    <glyph glyph-name="uni1EBE" unicode="&#x1ebe;" horiz-adv-x="472" 
d="M445 807l105 118l52 -31l-134 -117l26 -35l-43 -19l-79 87l-108 -87l-36 19l126 118h51zM513 613h-274l-39 -247h244l-9 -55h-244l-40 -256h284l-8 -55h-344l106 667h333z" />
    <glyph glyph-name="uni1EBF" unicode="&#x1ebf;" horiz-adv-x="498" 
d="M452 645l113 127l53 -31l-134 -116zM378 644l89 -118l-43 -19l-79 87l-107 -87l-37 19l126 118h51zM127 198v-15q0 -64 37 -103t98 -39q92 0 154 79l48 -21q-86 -110 -209 -110q-83 0 -134 53.5t-51 140.5q0 107 76.5 189t176.5 82q79 0 126.5 -52.5t47.5 -140.5
q0 -24 -6 -63h-364zM135 246h307q0 43 -8 69q-13 41 -44 64t-75 23q-62 0 -111.5 -43t-68.5 -113z" />
    <glyph glyph-name="uni1EC0" unicode="&#x1ec0;" horiz-adv-x="472" 
d="M264 723l-36 19l126 118h51l89 -118l-43 -19l-79 87zM575 798l-37 -20l-97 116l62 31zM513 613h-274l-39 -247h244l-9 -55h-244l-40 -256h284l-8 -55h-344l106 667h333z" />
    <glyph glyph-name="uni1EC1" unicode="&#x1ec1;" horiz-adv-x="498" 
d="M515 645l-37 -20l-98 116l63 31zM238 507l-37 19l126 118h51l89 -118l-43 -19l-79 87zM127 198v-15q0 -64 37 -103t98 -39q92 0 154 79l48 -21q-86 -110 -209 -110q-83 0 -134 53.5t-51 140.5q0 107 76.5 189t176.5 82q79 0 126.5 -52.5t47.5 -140.5q0 -24 -6 -63h-364z
M135 246h307q0 43 -8 69q-13 41 -44 64t-75 23q-62 0 -111.5 -43t-68.5 -113z" />
    <glyph glyph-name="uni1EC2" unicode="&#x1ec2;" horiz-adv-x="471" 
d="M405 860l89 -118l-43 -19l-79 87l-108 -87l-36 19l126 118h51zM513 613h-274l-39 -247h244l-9 -55h-244l-40 -256h284l-8 -55h-344l106 667h333zM480 876l-9 40q33 11 59 11q34 0 53.5 -14t19.5 -39q0 -26 -22 -54l-19 -24q-7 -9 -10 -20h-51q3 15 24 39l3 4q22 28 22 40
q0 24 -35 24q-13 0 -35 -7z" />
    <glyph glyph-name="uni1EC3" unicode="&#x1ec3;" horiz-adv-x="498" 
d="M378 644l89 -118l-43 -19l-79 87l-107 -87l-37 19l126 118h51zM127 198v-15q0 -64 37 -103t98 -39q92 0 154 79l48 -21q-86 -110 -209 -110q-83 0 -134 53.5t-51 140.5q0 107 76.5 189t176.5 82q79 0 126.5 -52.5t47.5 -140.5q0 -24 -6 -63h-364zM135 246h307q0 43 -8 69
q-13 41 -44 64t-75 23q-62 0 -111.5 -43t-68.5 -113zM433 724l-9 40q33 11 60 11q33 0 52.5 -14t19.5 -39q0 -26 -22 -54l-18 -24q-8 -9 -11 -20h-50q1 10 4.5 15.5t18.5 23.5l3 4q22 28 22 40q0 24 -35 24q-13 0 -35 -7z" />
    <glyph glyph-name="uni1EC4" unicode="&#x1ec4;" horiz-adv-x="472" 
d="M261 698l-37 19l126 118h51l89 -118l-43 -19l-79 87zM513 613h-274l-39 -247h244l-9 -55h-244l-40 -256h284l-8 -55h-344l106 667h333zM295 866l-43 10q23 74 84 74q24 0 63 -21q28 -13 45 -13q22 0 33 34l43 -10q-21 -74 -83 -74q-27 0 -62 18q-30 16 -46 16
q-21 0 -34 -34z" />
    <glyph glyph-name="uni1EC5" unicode="&#x1ec5;" horiz-adv-x="498" 
d="M238 507l-37 19l126 118h51l89 -118l-43 -19l-79 87zM127 198v-15q0 -64 37 -103t98 -39q92 0 154 79l48 -21q-86 -110 -209 -110q-83 0 -134 53.5t-51 140.5q0 107 76.5 189t176.5 82q79 0 126.5 -52.5t47.5 -140.5q0 -24 -6 -63h-364zM135 246h307q0 43 -8 69
q-13 41 -44 64t-75 23q-62 0 -111.5 -43t-68.5 -113zM274 688l-42 11q23 73 83 73q23 0 64 -21q28 -13 45 -13q22 0 32 35l44 -11q-21 -74 -84 -74q-27 0 -62 19q-30 15 -46 15q-20 0 -34 -34z" />
    <glyph glyph-name="uni1EC6" unicode="&#x1ec6;" horiz-adv-x="472" 
d="M276 723l-36 19l126 118h51l88 -118l-43 -19l-79 87zM513 613h-274l-39 -247h244l-9 -55h-244l-40 -256h284l-8 -55h-344l106 667h333zM257 -69q16 0 26 -10t10 -25q0 -19 -15 -33.5t-35 -14.5q-15 0 -25 10t-10 25q0 19 15 33.5t34 14.5z" />
    <glyph glyph-name="uni1EC7" unicode="&#x1ec7;" horiz-adv-x="498" 
d="M240 523l-36 19l126 118h51l88 -118l-42 -19l-80 87zM127 198v-15q0 -64 37 -103t98 -39q92 0 154 79l48 -21q-86 -110 -209 -110q-83 0 -134 53.5t-51 140.5q0 107 76.5 189t176.5 82q79 0 126.5 -52.5t47.5 -140.5q0 -24 -6 -63h-364zM135 246h307q0 43 -8 69
q-13 41 -44 64t-75 23q-62 0 -111.5 -43t-68.5 -113zM245 -69q16 0 26 -10t10 -25q0 -19 -15 -33.5t-35 -14.5q-15 0 -25 10t-10 25q0 19 15 33.5t34 14.5z" />
    <glyph glyph-name="uni1EC8" unicode="&#x1ec8;" horiz-adv-x="226" 
d="M248 667l-106 -667h-59l106 667h59zM187 827l-9 40q33 11 60 11q33 0 52.5 -14t19.5 -39q0 -26 -22 -54l-18 -24q-8 -9 -11 -20h-50q1 10 4.5 15.5t18.5 23.5l3 4q22 27 22 40q0 24 -34 24q-14 0 -36 -7z" />
    <glyph glyph-name="uni1EC9" unicode="&#x1ec9;" horiz-adv-x="190" 
d="M194 443l-71 -443h-56l70 443h57zM137 624l-9 39q33 11 59 11q34 0 53.5 -14t19.5 -39q0 -26 -22 -54l-18 -24q-8 -9 -11 -20h-50q2 14 23 39l3 4q22 27 22 40q0 24 -35 24q-16 0 -35 -6z" />
    <glyph glyph-name="uni1ECA" unicode="&#x1eca;" horiz-adv-x="226" 
d="M248 667l-105 -667h-59l105 667h59zM103 -69q15 0 25 -10t10 -25q0 -19 -15 -33.5t-34 -14.5q-15 0 -25 10t-10 25q0 19 14.5 33.5t34.5 14.5z" />
    <glyph glyph-name="uni1ECB" unicode="&#x1ecb;" horiz-adv-x="190" 
d="M194 443l-71 -443h-56l70 443h57zM196 632q15 0 25 -10t10 -26q0 -20 -15 -34.5t-35 -14.5q-15 0 -25 10.5t-10 25.5q0 19 15 34t35 15zM85 -69q15 0 25 -10t10 -25q0 -19 -15 -33.5t-34 -14.5q-15 0 -25 10t-10 25q0 19 14.5 33.5t34.5 14.5z" />
    <glyph glyph-name="uni1ECC" unicode="&#x1ecc;" horiz-adv-x="765" 
d="M493 678q121 0 202.5 -83.5t81.5 -207.5q0 -102 -56 -194.5t-148.5 -148t-194.5 -55.5q-122 0 -203 83.5t-81 209.5q0 101 55.5 193t148.5 147.5t195 55.5zM481 622q-129 0 -228.5 -102t-99.5 -235q0 -102 67.5 -171.5t165.5 -69.5q131 0 231 101.5t100 234.5
q0 105 -66.5 173.5t-169.5 68.5zM372 -69q15 0 25 -10t10 -25q0 -19 -15 -33.5t-34 -14.5q-15 0 -25 10t-10 25q0 19 15 33.5t34 14.5z" />
    <glyph glyph-name="uni1ECD" unicode="&#x1ecd;" horiz-adv-x="528" 
d="M339 454q83 0 136 -54.5t53 -139.5q0 -109 -79.5 -190t-186.5 -81q-85 0 -138.5 54.5t-53.5 141.5q0 109 80 189t189 80zM326 402q-82 0 -140 -63t-58 -152q0 -66 39 -106t103 -40q84 0 142 63t58 154q0 66 -39.5 105t-104.5 39zM254 -69q15 0 25 -10t10 -25
q0 -19 -15 -33.5t-34 -14.5q-15 0 -25 10t-10 25q0 19 15 33.5t34 14.5z" />
    <glyph glyph-name="uni1ECE" unicode="&#x1ece;" horiz-adv-x="765" 
d="M493 678q121 0 202.5 -83.5t81.5 -207.5q0 -102 -56 -194.5t-148.5 -148t-194.5 -55.5q-122 0 -203 83.5t-81 209.5q0 101 55.5 193t148.5 147.5t195 55.5zM481 622q-129 0 -228.5 -102t-99.5 -235q0 -102 67.5 -171.5t165.5 -69.5q131 0 231 101.5t100 234.5
q0 105 -66.5 173.5t-169.5 68.5zM459 827l-9 40q33 11 60 11q33 0 52.5 -14t19.5 -39q0 -26 -22 -54l-18 -24q-8 -9 -11 -20h-50q1 10 4.5 15.5t18.5 23.5l3 4q22 28 22 40q0 24 -34 24q-14 0 -36 -7z" />
    <glyph glyph-name="uni1ECF" unicode="&#x1ecf;" horiz-adv-x="528" 
d="M339 454q83 0 136 -54.5t53 -139.5q0 -109 -79.5 -190t-186.5 -81q-85 0 -138.5 54.5t-53.5 141.5q0 109 80 189t189 80zM326 402q-82 0 -140 -63t-58 -152q0 -66 39 -106t103 -40q84 0 142 63t58 154q0 66 -39.5 105t-104.5 39zM309 624l-10 39q34 11 60 11
q34 0 53.5 -14t19.5 -39q0 -24 -22 -54l-19 -24q-9 -12 -10 -20h-51q3 15 23 39l4 4q22 28 22 40q0 24 -35 24q-17 0 -35 -6z" />
    <glyph glyph-name="uni1ED0" unicode="&#x1ed0;" horiz-adv-x="765" 
d="M585 807l104 118l53 -31l-135 -117l26 -35l-43 -19l-79 87l-107 -87l-37 19l126 118h51zM493 678q121 0 202.5 -83.5t81.5 -207.5q0 -102 -56 -194.5t-148.5 -148t-194.5 -55.5q-122 0 -203 83.5t-81 209.5q0 101 55.5 193t148.5 147.5t195 55.5zM481 622
q-129 0 -228.5 -102t-99.5 -235q0 -102 67.5 -171.5t165.5 -69.5q131 0 231 101.5t100 234.5q0 105 -66.5 173.5t-169.5 68.5z" />
    <glyph glyph-name="uni1ED1" unicode="&#x1ed1;" horiz-adv-x="520" 
d="M466 645l112 127l53 -31l-134 -116zM391 644l89 -118l-43 -19l-79 87l-107 -87l-37 19l126 118h51zM339 454q83 0 136 -54.5t53 -139.5q0 -109 -79.5 -190t-186.5 -81q-85 0 -138.5 54.5t-53.5 141.5q0 109 80 189t189 80zM326 402q-82 0 -140 -63t-58 -152
q0 -66 39 -106t103 -40q84 0 142 63t58 154q0 66 -39.5 105t-104.5 39z" />
    <glyph glyph-name="uni1ED2" unicode="&#x1ed2;" horiz-adv-x="765" 
d="M404 723l-37 19l126 118h51l89 -118l-43 -19l-79 87zM714 798l-37 -20l-97 116l62 31zM493 678q121 0 202.5 -83.5t81.5 -207.5q0 -102 -56 -194.5t-148.5 -148t-194.5 -55.5q-122 0 -203 83.5t-81 209.5q0 101 55.5 193t148.5 147.5t195 55.5zM481 622
q-129 0 -228.5 -102t-99.5 -235q0 -102 67.5 -171.5t165.5 -69.5q131 0 231 101.5t100 234.5q0 105 -66.5 173.5t-169.5 68.5z" />
    <glyph glyph-name="uni1ED3" unicode="&#x1ed3;" horiz-adv-x="528" 
d="M528 645l-37 -20l-97 116l62 31zM251 507l-37 19l126 118h51l89 -118l-43 -19l-79 87zM339 454q83 0 136 -54.5t53 -139.5q0 -109 -79.5 -190t-186.5 -81q-85 0 -138.5 54.5t-53.5 141.5q0 109 80 189t189 80zM326 402q-82 0 -140 -63t-58 -152q0 -66 39 -106t103 -40
q84 0 142 63t58 154q0 66 -39.5 105t-104.5 39z" />
    <glyph glyph-name="uni1ED4" unicode="&#x1ed4;" horiz-adv-x="765" 
d="M544 860l89 -118l-43 -19l-79 87l-107 -87l-37 19l126 118h51zM493 678q121 0 202.5 -83.5t81.5 -207.5q0 -102 -56 -194.5t-148.5 -148t-194.5 -55.5q-122 0 -203 83.5t-81 209.5q0 101 55.5 193t148.5 147.5t195 55.5zM481 622q-129 0 -228.5 -102t-99.5 -235
q0 -102 67.5 -171.5t165.5 -69.5q131 0 231 101.5t100 234.5q0 105 -66.5 173.5t-169.5 68.5zM619 876l-9 40q33 11 59 11q34 0 53.5 -14t19.5 -39q0 -27 -21 -54l-19 -24q-9 -11 -11 -20h-50q3 14 17 32l6 7l4 4q21 28 21 40q0 24 -35 24q-13 0 -35 -7z" />
    <glyph glyph-name="uni1ED5" unicode="&#x1ed5;" horiz-adv-x="528" 
d="M391 644l89 -118l-43 -19l-79 87l-107 -87l-37 19l126 118h51zM339 454q83 0 136 -54.5t53 -139.5q0 -109 -79.5 -190t-186.5 -81q-85 0 -138.5 54.5t-53.5 141.5q0 109 80 189t189 80zM326 402q-82 0 -140 -63t-58 -152q0 -66 39 -106t103 -40q84 0 142 63t58 154
q0 66 -39.5 105t-104.5 39zM447 724l-10 40q33 11 60 11q34 0 53.5 -14t19.5 -39q0 -24 -22 -54l-19 -24q-9 -12 -10 -20h-51q3 15 23 39l4 4q22 28 22 40q0 24 -35 24q-14 0 -35 -7z" />
    <glyph glyph-name="uni1ED6" unicode="&#x1ed6;" horiz-adv-x="765" 
d="M400 698l-37 19l126 118h51l89 -118l-43 -19l-79 87zM493 678q121 0 202.5 -83.5t81.5 -207.5q0 -102 -56 -194.5t-148.5 -148t-194.5 -55.5q-122 0 -203 83.5t-81 209.5q0 101 55.5 193t148.5 147.5t195 55.5zM481 622q-129 0 -228.5 -102t-99.5 -235
q0 -102 67.5 -171.5t165.5 -69.5q131 0 231 101.5t100 234.5q0 105 -66.5 173.5t-169.5 68.5zM435 866l-43 11q25 74 84 74q23 0 64 -21q26 -13 45 -13q21 0 32 34l43 -11q-20 -73 -83 -73q-26 0 -62 18q-30 16 -46 16q-19 0 -34 -35z" />
    <glyph glyph-name="uni1ED7" unicode="&#x1ed7;" horiz-adv-x="528" 
d="M251 507l-37 19l126 118h51l89 -118l-43 -19l-79 87zM339 454q83 0 136 -54.5t53 -139.5q0 -109 -79.5 -190t-186.5 -81q-85 0 -138.5 54.5t-53.5 141.5q0 109 80 189t189 80zM326 402q-82 0 -140 -63t-58 -152q0 -66 39 -106t103 -40q84 0 142 63t58 154q0 66 -39.5 105
t-104.5 39zM288 689l-42 11q23 73 84 73q22 0 63 -20q28 -13 45 -13q22 0 33 34l43 -11q-21 -73 -83 -73q-26 0 -62 18q-32 15 -46 15q-21 0 -35 -34z" />
    <glyph glyph-name="uni1ED8" unicode="&#x1ed8;" horiz-adv-x="765" 
d="M404 723l-37 19l126 118h51l89 -118l-43 -19l-79 87zM493 678q121 0 202.5 -83.5t81.5 -207.5q0 -102 -56 -194.5t-148.5 -148t-194.5 -55.5q-122 0 -203 83.5t-81 209.5q0 101 55.5 193t148.5 147.5t195 55.5zM481 622q-129 0 -228.5 -102t-99.5 -235
q0 -102 67.5 -171.5t165.5 -69.5q131 0 231 101.5t100 234.5q0 105 -66.5 173.5t-169.5 68.5zM372 -69q15 0 25 -10t10 -25q0 -19 -15 -33.5t-34 -14.5q-15 0 -25 10t-10 25q0 19 15 33.5t34 14.5z" />
    <glyph glyph-name="uni1ED9" unicode="&#x1ed9;" horiz-adv-x="528" 
d="M254 523l-37 19l126 118h51l89 -118l-43 -19l-79 87zM339 454q83 0 136 -54.5t53 -139.5q0 -109 -79.5 -190t-186.5 -81q-85 0 -138.5 54.5t-53.5 141.5q0 109 80 189t189 80zM326 402q-82 0 -140 -63t-58 -152q0 -66 39 -106t103 -40q84 0 142 63t58 154q0 66 -39.5 105
t-104.5 39zM254 -69q15 0 25 -10t10 -25q0 -19 -15 -33.5t-34 -14.5q-15 0 -25 10t-10 25q0 19 15 33.5t34 14.5z" />
    <glyph glyph-name="uni1EDA" unicode="&#x1eda;" horiz-adv-x="762" 
d="M465 743l112 127l53 -31l-134 -116zM760 716l44 21q35 -32 35 -78q0 -79 -94 -134q32 -66 32 -138q0 -102 -55.5 -194.5t-148.5 -148t-196 -55.5q-120 0 -201.5 83.5t-81.5 207.5q0 102 56 194.5t149 148t196 55.5q135 0 225 -113q68 32 68 89q0 33 -28 62zM481 622
q-129 0 -228 -102t-99 -235q0 -101 67 -170.5t165 -69.5q131 0 231 101t100 234q0 105 -66.5 173.5t-169.5 68.5z" />
    <glyph glyph-name="uni1EDB" unicode="&#x1edb;" horiz-adv-x="558" 
d="M300 543l113 127l52 -31l-134 -116zM527 492l44 21q35 -31 35 -78q0 -74 -83 -127q5 -21 5 -48q0 -109 -79.5 -190t-186.5 -81q-85 0 -138.5 54.5t-53.5 140.5q0 108 80 189t187 81q57 0 102 -26.5t69 -75.5q47 29 47 78q0 33 -28 62zM326 402q-82 0 -140 -63t-58 -152
q0 -66 39 -106t103 -40q84 0 142 63t58 154q0 66 -39.5 105t-104.5 39z" />
    <glyph glyph-name="uni1EDC" unicode="&#x1edc;" horiz-adv-x="762" 
d="M535 743l-37 -20l-97 116l62 31zM760 716l44 21q35 -32 35 -78q0 -79 -94 -134q32 -66 32 -138q0 -102 -55.5 -194.5t-148.5 -148t-196 -55.5q-120 0 -201.5 83.5t-81.5 207.5q0 102 56 194.5t149 148t196 55.5q135 0 225 -113q68 32 68 89q0 33 -28 62zM481 622
q-129 0 -228 -102t-99 -235q0 -101 67 -170.5t165 -69.5q131 0 231 101t100 234q0 105 -66.5 173.5t-169.5 68.5z" />
    <glyph glyph-name="uni1EDD" unicode="&#x1edd;" horiz-adv-x="558" 
d="M385 543l-37 -20l-97 116l62 31zM527 492l44 21q35 -31 35 -78q0 -74 -83 -127q5 -21 5 -48q0 -109 -79.5 -190t-186.5 -81q-85 0 -138.5 54.5t-53.5 140.5q0 108 80 189t187 81q57 0 102 -26.5t69 -75.5q47 29 47 78q0 33 -28 62zM326 402q-82 0 -140 -63t-58 -152
q0 -66 39 -106t103 -40q84 0 142 63t58 154q0 66 -39.5 105t-104.5 39z" />
    <glyph glyph-name="uni1EDE" unicode="&#x1ede;" horiz-adv-x="762" 
d="M760 716l44 21q35 -32 35 -78q0 -79 -94 -134q32 -66 32 -138q0 -102 -55.5 -194.5t-148.5 -148t-196 -55.5q-120 0 -201.5 83.5t-81.5 207.5q0 102 56 194.5t149 148t196 55.5q135 0 225 -113q68 32 68 89q0 33 -28 62zM481 622q-129 0 -228 -102t-99 -235
q0 -101 67 -170.5t165 -69.5q131 0 231 101t100 234q0 105 -66.5 173.5t-169.5 68.5zM467 827l-9 40q33 11 59 11q34 0 53.5 -14t19.5 -39q0 -26 -22 -54l-19 -24q-7 -9 -10 -20h-51q3 15 24 39l3 4q22 28 22 40q0 24 -35 24q-13 0 -35 -7z" />
    <glyph glyph-name="uni1EDF" unicode="&#x1edf;" horiz-adv-x="558" 
d="M527 492l44 21q35 -31 35 -78q0 -74 -83 -127q5 -21 5 -48q0 -109 -79.5 -190t-186.5 -81q-85 0 -138.5 54.5t-53.5 140.5q0 108 80 189t187 81q57 0 102 -26.5t69 -75.5q47 29 47 78q0 33 -28 62zM326 402q-82 0 -140 -63t-58 -152q0 -66 39 -106t103 -40q84 0 142 63
t58 154q0 66 -39.5 105t-104.5 39zM316 624l-9 39q33 11 59 11q34 0 53.5 -14t19.5 -39q0 -26 -22 -54l-18 -24q-8 -9 -11 -20h-50q2 14 23 39l3 4q22 27 22 40q0 24 -35 24q-16 0 -35 -6z" />
    <glyph glyph-name="uni1EE0" unicode="&#x1ee0;" horiz-adv-x="762" 
d="M760 716l44 21q35 -32 35 -78q0 -79 -94 -134q32 -66 32 -138q0 -102 -55.5 -194.5t-148.5 -148t-196 -55.5q-120 0 -201.5 83.5t-81.5 207.5q0 102 56 194.5t149 148t196 55.5q135 0 225 -113q68 32 68 89q0 33 -28 62zM481 622q-129 0 -228 -102t-99 -235
q0 -101 67 -170.5t165 -69.5q131 0 231 101t100 234q0 105 -66.5 173.5t-169.5 68.5zM418 748l-43 11q24 74 84 74q23 0 64 -21q26 -13 44 -13q22 0 33 34l43 -11q-21 -73 -83 -73q-26 0 -62 18q-30 16 -46 16q-21 0 -34 -35z" />
    <glyph glyph-name="uni1EE1" unicode="&#x1ee1;" horiz-adv-x="558" 
d="M527 492l44 21q35 -31 35 -78q0 -74 -83 -127q5 -21 5 -48q0 -109 -79.5 -190t-186.5 -81q-85 0 -138.5 54.5t-53.5 140.5q0 108 80 189t187 81q57 0 102 -26.5t69 -75.5q47 29 47 78q0 33 -28 62zM326 402q-82 0 -140 -63t-58 -152q0 -66 39 -106t103 -40q84 0 142 63
t58 154q0 66 -39.5 105t-104.5 39zM264 548l-42 11q24 74 83 74q25 0 64 -21q28 -13 45 -13q22 0 33 34l43 -11q-21 -73 -83 -73q-27 0 -62 18q-30 16 -46 16q-20 0 -35 -35z" />
    <glyph glyph-name="uni1EE2" unicode="&#x1ee2;" horiz-adv-x="762" 
d="M760 716l44 21q35 -32 35 -78q0 -79 -94 -134q32 -66 32 -138q0 -102 -55.5 -194.5t-148.5 -148t-196 -55.5q-120 0 -201.5 83.5t-81.5 207.5q0 102 56 194.5t149 148t196 55.5q135 0 225 -113q68 32 68 89q0 33 -28 62zM481 622q-129 0 -228 -102t-99 -235
q0 -101 67 -170.5t165 -69.5q131 0 231 101t100 234q0 105 -66.5 173.5t-169.5 68.5zM372 -69q15 0 25 -10t10 -25q0 -19 -15 -33.5t-34 -14.5q-15 0 -25 10t-10 25q0 19 15 33.5t34 14.5z" />
    <glyph glyph-name="uni1EE3" unicode="&#x1ee3;" horiz-adv-x="558" 
d="M527 492l44 21q35 -31 35 -78q0 -74 -83 -127q5 -21 5 -48q0 -109 -79.5 -190t-186.5 -81q-85 0 -138.5 54.5t-53.5 140.5q0 108 80 189t187 81q57 0 102 -26.5t69 -75.5q47 29 47 78q0 33 -28 62zM326 402q-82 0 -140 -63t-58 -152q0 -66 39 -106t103 -40q84 0 142 63
t58 154q0 66 -39.5 105t-104.5 39zM254 -69q15 0 25 -10t10 -25q0 -19 -15 -33.5t-34 -14.5q-15 0 -25 10t-10 25q0 19 15 33.5t34 14.5z" />
    <glyph glyph-name="uni1EE4" unicode="&#x1ee4;" horiz-adv-x="635" 
d="M249 667l-66 -414q-8 -46 -8 -76q0 -54 35 -88q44 -44 114 -44q48 0 94.5 22t71.5 57q29 39 43 129l65 414h60l-69 -435q-14 -84 -49 -131q-37 -52 -98 -82t-127 -30q-86 0 -143 50.5t-57 126.5q0 32 6 66l68 435h60zM308 -69q15 0 25 -10t10 -25q0 -19 -15 -33.5
t-34 -14.5q-15 0 -25 10t-10 25q0 19 15 33.5t34 14.5z" />
    <glyph glyph-name="uni1EE5" unicode="&#x1ee5;" horiz-adv-x="510" 
d="M387 0l10 61q-63 -72 -153 -72q-70 0 -110.5 38.5t-40.5 103.5q0 35 6 72l38 240h56l-36 -232q-6 -33 -6 -62q0 -51 27.5 -78.5t79.5 -27.5q81 0 125 60q27 39 39 119l36 221h56l-70 -443h-57zM237 -69q16 0 26 -10t10 -25q0 -19 -15 -33.5t-35 -14.5q-15 0 -25 10
t-10 25q0 19 15 33.5t34 14.5z" />
    <glyph glyph-name="uni1EE6" unicode="&#x1ee6;" horiz-adv-x="635" 
d="M249 667l-66 -414q-8 -46 -8 -76q0 -54 35 -88q44 -44 114 -44q48 0 94.5 22t71.5 57q29 39 43 129l65 414h60l-69 -435q-14 -84 -49 -131q-37 -52 -98 -82t-127 -30q-86 0 -143 50.5t-57 126.5q0 32 6 66l68 435h60zM395 827l-10 40q34 11 60 11q34 0 53.5 -14t19.5 -39
q0 -26 -22 -54l-19 -24q-9 -12 -10 -20h-51q3 15 23 39l4 4q22 28 22 40q0 24 -35 24q-14 0 -35 -7z" />
    <glyph glyph-name="uni1EE7" unicode="&#x1ee7;" horiz-adv-x="510" 
d="M387 0l10 61q-63 -72 -153 -72q-70 0 -110.5 38.5t-40.5 103.5q0 35 6 72l38 240h56l-36 -232q-6 -33 -6 -62q0 -51 27.5 -78.5t79.5 -27.5q81 0 125 60q27 39 39 119l36 221h56l-70 -443h-57zM300 624l-10 39q34 11 60 11q34 0 53.5 -14t19.5 -38q0 -25 -22 -55l-19 -24
q-7 -9 -10 -20h-51q3 15 23 39l4 4q22 28 22 40q0 24 -35 24q-17 0 -35 -6z" />
    <glyph glyph-name="uni1EE8" unicode="&#x1ee8;" horiz-adv-x="662" 
d="M400 743l113 127l52 -31l-134 -116zM658 667l-16 -101q65 34 65 88q0 33 -28 62l44 21q35 -32 35 -78q0 -96 -125 -148l-44 -279q-14 -84 -49 -131q-37 -52 -98 -82t-127 -30q-86 0 -143 50.5t-57 126.5q0 32 6 66l68 435h60l-66 -414q-8 -46 -8 -76q0 -54 35 -88
q44 -44 114 -44q48 0 94.5 22t71.5 58q29 38 43 128l65 414h60z" />
    <glyph glyph-name="uni1EE9" unicode="&#x1ee9;" horiz-adv-x="565" 
d="M301 543l113 127l52 -31l-134 -116zM514 443l-16 -100q64 33 64 87q0 34 -27 62l43 21q35 -32 35 -78q0 -96 -124 -147l-45 -288h-57l10 61q-63 -72 -153 -72q-70 0 -110.5 38.5t-40.5 103.5q0 35 6 72l38 240h56l-36 -232q-6 -33 -6 -62q0 -51 27.5 -78.5t79.5 -27.5
q81 0 125 60q27 39 39 119l36 221h56z" />
    <glyph glyph-name="uni1EEA" unicode="&#x1eea;" horiz-adv-x="662" 
d="M471 743l-38 -20l-97 116l63 31zM658 667l-16 -101q65 34 65 88q0 33 -28 62l44 21q35 -32 35 -78q0 -96 -125 -148l-44 -279q-14 -84 -49 -131q-37 -52 -98 -82t-127 -30q-86 0 -143 50.5t-57 126.5q0 32 6 66l68 435h60l-66 -414q-8 -46 -8 -76q0 -54 35 -88
q44 -44 114 -44q48 0 94.5 22t71.5 58q29 38 43 128l65 414h60z" />
    <glyph glyph-name="uni1EEB" unicode="&#x1eeb;" horiz-adv-x="565" 
d="M372 543l-38 -20l-97 116l62 31zM514 443l-16 -100q64 33 64 87q0 34 -27 62l43 21q35 -32 35 -78q0 -96 -124 -147l-45 -288h-57l10 61q-63 -72 -153 -72q-70 0 -110.5 38.5t-40.5 103.5q0 35 6 72l38 240h56l-36 -232q-6 -33 -6 -62q0 -51 27.5 -78.5t79.5 -27.5
q81 0 125 60q27 39 39 119l36 221h56z" />
    <glyph glyph-name="uni1EEC" unicode="&#x1eec;" horiz-adv-x="662" 
d="M658 667l-16 -101q65 34 65 88q0 33 -28 62l44 21q35 -32 35 -78q0 -96 -125 -148l-44 -279q-14 -84 -49 -131q-37 -52 -98 -82t-127 -30q-86 0 -143 50.5t-57 126.5q0 32 6 66l68 435h60l-66 -414q-8 -46 -8 -76q0 -54 35 -88q44 -44 114 -44q48 0 94.5 22t71.5 58
q29 38 43 128l65 414h60zM403 827l-9 40q33 11 60 11q33 0 52.5 -14t19.5 -39q0 -26 -22 -54l-18 -24q-8 -9 -11 -20h-50q3 15 23 39l4 4q21 27 21 40q0 24 -34 24q-14 0 -36 -7z" />
    <glyph glyph-name="uni1EED" unicode="&#x1eed;" horiz-adv-x="565" 
d="M514 443l-16 -100q64 33 64 87q0 34 -27 62l43 21q35 -32 35 -78q0 -96 -124 -147l-45 -288h-57l10 61q-63 -72 -153 -72q-70 0 -110.5 38.5t-40.5 103.5q0 35 6 72l38 240h56l-36 -232q-6 -33 -6 -62q0 -51 27.5 -78.5t79.5 -27.5q81 0 125 60q27 39 39 119l36 221h56z
M301 624l-9 39q33 11 60 11q33 0 52.5 -14t19.5 -39q0 -26 -22 -54l-18 -24q-9 -11 -11 -20h-50q2 13 11 24l6 7l6 8l4 4q21 29 21 40q0 24 -35 24q-16 0 -35 -6z" />
    <glyph glyph-name="uni1EEE" unicode="&#x1eee;" horiz-adv-x="662" 
d="M658 667l-16 -101q65 34 65 88q0 33 -28 62l44 21q35 -32 35 -78q0 -96 -125 -148l-44 -279q-14 -84 -49 -131q-37 -52 -98 -82t-127 -30q-86 0 -143 50.5t-57 126.5q0 32 6 66l68 435h60l-66 -414q-8 -46 -8 -76q0 -54 35 -88q44 -44 114 -44q48 0 94.5 22t71.5 58
q29 38 43 128l65 414h60zM353 748l-42 11q24 74 83 74q23 0 64 -21q28 -13 45 -13q22 0 33 34l43 -11q-21 -73 -84 -73q-26 0 -62 18q-29 16 -45 16q-20 0 -35 -35z" />
    <glyph glyph-name="uni1EEF" unicode="&#x1eef;" horiz-adv-x="565" 
d="M514 443l-16 -100q64 33 64 87q0 34 -27 62l43 21q35 -32 35 -78q0 -96 -124 -147l-45 -288h-57l10 61q-63 -72 -153 -72q-70 0 -110.5 38.5t-40.5 103.5q0 35 6 72l38 240h56l-36 -232q-6 -33 -6 -62q0 -51 27.5 -78.5t79.5 -27.5q81 0 125 60q27 39 39 119l36 221h56z
M258 548l-43 11q24 74 83 74q25 0 64 -21q28 -13 45 -13q22 0 33 34l43 -11q-21 -73 -83 -73q-28 0 -62 18q-30 16 -46 16q-21 0 -34 -35z" />
    <glyph glyph-name="uni1EF0" unicode="&#x1ef0;" horiz-adv-x="662" 
d="M658 667l-16 -101q65 34 65 88q0 33 -28 62l44 21q35 -32 35 -78q0 -96 -125 -148l-44 -279q-14 -84 -49 -131q-37 -52 -98 -82t-127 -30q-86 0 -143 50.5t-57 126.5q0 32 6 66l68 435h60l-66 -414q-8 -46 -8 -76q0 -54 35 -88q44 -44 114 -44q48 0 94.5 22t71.5 58
q29 38 43 128l65 414h60zM308 -69q15 0 25 -10t10 -25q0 -19 -15 -33.5t-34 -14.5q-15 0 -25 10t-10 25q0 19 14.5 33.5t34.5 14.5z" />
    <glyph glyph-name="uni1EF1" unicode="&#x1ef1;" horiz-adv-x="565" 
d="M514 443l-16 -100q64 33 64 87q0 34 -27 62l43 21q35 -32 35 -78q0 -96 -124 -147l-45 -288h-57l10 61q-63 -72 -153 -72q-70 0 -110.5 38.5t-40.5 103.5q0 35 6 72l38 240h56l-36 -232q-6 -33 -6 -62q0 -51 27.5 -78.5t79.5 -27.5q81 0 125 60q27 39 39 119l36 221h56z
M242 -69q15 0 25 -10t10 -25q0 -19 -15 -33.5t-34 -14.5q-15 0 -25 10t-10 25q0 19 15 33.5t34 14.5z" />
    <glyph glyph-name="Ygrave" unicode="&#x1ef2;" horiz-adv-x="495" 
d="M407 743l-37 -20l-97 116l62 31zM262 279l-153 388h65l127 -332l232 332h64l-276 -388l-44 -279h-59z" />
    <glyph glyph-name="ygrave" unicode="&#x1ef3;" horiz-adv-x="435" 
d="M346 543l-38 -20l-97 116l62 31zM188 15l-114 428h62l92 -359l212 359h61l-402 -677h-58z" />
    <glyph glyph-name="uni1EF4" unicode="&#x1ef4;" horiz-adv-x="495" 
d="M262 279l-153 388h65l127 -332l232 332h64l-276 -388l-44 -279h-59zM237 -69q15 0 25 -10t10 -25q0 -19 -15 -33.5t-34 -14.5q-15 0 -25 10t-10 25q0 19 14.5 33.5t34.5 14.5z" />
    <glyph glyph-name="uni1EF5" unicode="&#x1ef5;" horiz-adv-x="435" 
d="M188 15l-114 428h62l92 -359l212 359h61l-402 -677h-58zM309 -69q15 0 25 -10t10 -25q0 -19 -15 -33.5t-34 -14.5q-15 0 -25 10t-10 25q0 19 14.5 33.5t34.5 14.5z" />
    <glyph glyph-name="uni1EF6" unicode="&#x1ef6;" horiz-adv-x="495" 
d="M262 279l-153 388h65l127 -332l232 332h64l-276 -388l-44 -279h-59zM324 827l-9 40q33 11 60 11q33 0 52.5 -14t19.5 -39q0 -27 -21 -54l-19 -24q-8 -9 -11 -20h-50q3 15 23 39l4 4q21 27 21 40q0 24 -34 24q-14 0 -36 -7z" />
    <glyph glyph-name="uni1EF7" unicode="&#x1ef7;" horiz-adv-x="435" 
d="M188 15l-114 428h62l92 -359l212 359h61l-402 -677h-58zM262 624l-9 39q33 11 59 11q34 0 53.5 -14t19.5 -39q0 -26 -22 -54l-18 -24q-8 -9 -11 -20h-50q1 11 11 24l5 7l7 8l3 4q22 27 22 40q0 24 -35 24q-16 0 -35 -6z" />
    <glyph glyph-name="uni1EF8" unicode="&#x1ef8;" horiz-adv-x="495" 
d="M262 279l-153 388h65l127 -332l232 332h64l-276 -388l-44 -279h-59zM281 748l-42 11q24 74 83 74q25 0 64 -21q28 -13 45 -13q22 0 33 34l43 -11q-21 -73 -84 -73q-27 0 -61 18q-30 16 -46 16q-20 0 -35 -35z" />
    <glyph glyph-name="uni1EF9" unicode="&#x1ef9;" horiz-adv-x="435" 
d="M188 15l-114 428h62l92 -359l212 359h61l-402 -677h-58zM220 548l-43 11q24 74 84 74q23 0 64 -21q26 -13 44 -13q22 0 33 34l43 -11q-20 -73 -83 -73q-26 0 -62 18q-30 16 -46 16q-21 0 -34 -35z" />
    <glyph glyph-name="uni2002" unicode="&#x2002;" horiz-adv-x="520" 
 />
    <glyph glyph-name="uni2003" unicode="&#x2003;" horiz-adv-x="1020" 
 />
    <glyph glyph-name="uni2004" unicode="&#x2004;" horiz-adv-x="353" 
 />
    <glyph glyph-name="uni2005" unicode="&#x2005;" horiz-adv-x="270" 
 />
    <glyph glyph-name="uni2006" unicode="&#x2006;" horiz-adv-x="87" 
 />
    <glyph glyph-name="uni2007" unicode="&#x2007;" horiz-adv-x="576" 
 />
    <glyph glyph-name="uni2009" unicode="&#x2009;" horiz-adv-x="145" 
 />
    <glyph glyph-name="uni200A" unicode="&#x200a;" horiz-adv-x="53" 
 />
    <glyph glyph-name="uni2011" unicode="&#x2011;" horiz-adv-x="248" 
d="M80 256h168l-8 -51h-168z" />
    <glyph glyph-name="figuredash" unicode="&#x2012;" horiz-adv-x="559" 
d="M160 256h319l-8 -51h-319z" />
    <glyph glyph-name="endash" unicode="&#x2013;" horiz-adv-x="559" 
d="M160 256h319l-8 -51h-319z" />
    <glyph glyph-name="emdash" unicode="&#x2014;" horiz-adv-x="611" 
d="M80 256h531l-8 -51h-531z" />
    <glyph glyph-name="afii00208" unicode="&#x2015;" horiz-adv-x="611" 
d="M80 256h531l-8 -51h-531z" />
    <glyph glyph-name="underscoredbl" unicode="&#x2017;" horiz-adv-x="492" 
d="M-8 -73h485l-7 -41h-484zM-23 -171h484l-6 -41h-485z" />
    <glyph glyph-name="quoteleft" unicode="&#x2018;" horiz-adv-x="252" 
d="M300 681l-114 -221l-50 19l129 217z" />
    <glyph glyph-name="quoteright" unicode="&#x2019;" horiz-adv-x="219" 
d="M112 475l114 221l50 -20l-129 -216z" />
    <glyph glyph-name="quotesinglbase" unicode="&#x201a;" horiz-adv-x="219" 
d="M16 -133l114 221l50 -19l-129 -217z" />
    <glyph glyph-name="quotereversed" unicode="&#x201b;" horiz-adv-x="219" 
d="M258 475l-40 -15l-61 216l57 20z" />
    <glyph glyph-name="quotedblleft" unicode="&#x201c;" horiz-adv-x="399" 
d="M300 681l-114 -221l-50 19l129 217zM447 681l-114 -221l-51 19l130 217z" />
    <glyph glyph-name="quotedblright" unicode="&#x201d;" horiz-adv-x="399" 
d="M281 475l115 221l50 -20l-130 -216zM135 475l114 221l50 -20l-129 -216z" />
    <glyph glyph-name="quotedblbase" unicode="&#x201e;" horiz-adv-x="399" 
d="M39 -133l114 221l50 -19l-129 -217zM185 -133l115 221l50 -19l-130 -217z" />
    <glyph glyph-name="dagger" unicode="&#x2020;" horiz-adv-x="545" 
d="M349 665h57l-36 -227h153l-9 -55h-152l-90 -567h-58l90 567h-152l9 55h152z" />
    <glyph glyph-name="daggerdbl" unicode="&#x2021;" horiz-adv-x="545" 
d="M313 438l36 227h57l-36 -227h152l-8 -55h-152l-46 -285h153l-9 -55h-152l-36 -227h-58l36 227h-152l9 55h152l45 285h-152l9 55h152z" />
    <glyph glyph-name="bullet" unicode="&#x2022;" horiz-adv-x="473" 
d="M311 467q48 0 80.5 -32t32.5 -80q0 -61 -47.5 -108t-109.5 -47q-49 0 -81 32t-32 80q0 61 47.5 108t109.5 47z" />
    <glyph glyph-name="ellipsis" unicode="&#x2026;" horiz-adv-x="736" 
d="M131 74q15 0 25 -10t10 -25q0 -19 -15 -33.5t-34 -14.5q-15 0 -25 10t-10 25q0 19 15 33.5t34 14.5zM380 74q15 0 25 -10t10 -25q0 -19 -15 -33.5t-34 -14.5q-15 0 -25 10t-10 25q0 19 15 33.5t34 14.5zM628 74q15 0 25 -10t10 -25q0 -19 -14.5 -33.5t-33.5 -14.5
q-15 0 -25 10t-10 25q0 19 14.5 33.5t33.5 14.5z" />
    <glyph glyph-name="perthousand" unicode="&#x2030;" horiz-adv-x="1265" 
d="M761 401q125 0 125 -134q0 -109 -42 -186q-48 -87 -145 -87q-126 0 -126 132q0 111 42 188q47 87 146 87zM755 358q-57 0 -86 -43q-47 -71 -47 -177q0 -101 82 -101q56 0 86 43q47 71 47 180q0 47 -21 72.5t-61 25.5zM733 675l31 -19l-490 -665l-30 20zM310 673
q126 0 126 -134q0 -109 -42 -186q-48 -87 -146 -87q-126 0 -126 132q0 114 42 188q49 87 146 87zM305 630q-57 0 -87 -43q-47 -71 -47 -177q0 -101 82 -101q57 0 87 43q47 70 47 180q0 47 -21 72.5t-61 25.5zM1123 401q125 0 125 -134q0 -109 -42 -186q-48 -87 -145 -87
q-126 0 -126 132q0 114 42 188q47 87 146 87zM1117 358q-57 0 -86 -43q-47 -71 -47 -177q0 -101 82 -101q56 0 86 43q47 70 47 180q0 47 -21 72.5t-61 25.5z" />
    <glyph glyph-name="minute" unicode="&#x2032;" horiz-adv-x="162" 
d="M45 475l114 221l50 -20l-129 -216z" />
    <glyph glyph-name="second" unicode="&#x2033;" horiz-adv-x="309" 
d="M191 475l115 221l50 -20l-130 -216zM45 475l114 221l50 -20l-129 -216z" />
    <glyph glyph-name="guilsinglleft" unicode="&#x2039;" horiz-adv-x="272" 
d="M230 76l-41 -29l-114 174l170 179l32 -29l-142 -150z" />
    <glyph glyph-name="guilsinglright" unicode="&#x203a;" horiz-adv-x="272" 
d="M66 76l141 145l-94 150l40 29l114 -179l-169 -174z" />
    <glyph glyph-name="uni203E" unicode="&#x203e;" horiz-adv-x="492" 
d="M134 824h485l-8 -51h-485z" />
    <glyph glyph-name="fraction" unicode="&#x2044;" horiz-adv-x="177" 
d="M371 675l31 -19l-490 -665l-30 20z" />
    <glyph glyph-name="zerosuperior" unicode="&#x2070;" 
d="M320 807q126 0 126 -133q0 -110 -42 -187q-48 -87 -146 -87q-126 0 -126 132q0 114 42 188q49 87 146 87zM314 764q-55 0 -86 -43q-47 -70 -47 -176q0 -102 83 -102q56 0 86 43q47 70 47 176q0 102 -83 102z" />
    <glyph glyph-name="foursuperior" unicode="&#x2074;" 
d="M388 786l-199 -250h128l17 104h47l-16 -104h50l-7 -43h-50l-14 -87h-47l14 87h-182l7 43l217 273z" />
    <glyph glyph-name="fivesuperior" unicode="&#x2075;" 
d="M277 758l-35 -97q27 7 46 7q52 0 85 -31t33 -80q0 -63 -49 -110t-114 -47q-80 0 -116 71l43 26q17 -54 79 -54q45 0 77 31t32 74q0 34 -22 55.5t-57 21.5q-36 0 -69 -25l-36 8l71 193h181l-7 -43h-142z" />
    <glyph glyph-name="sixsuperior" unicode="&#x2076;" 
d="M381 782l-109 -122q21 3 30 3q50 0 82.5 -30.5t32.5 -76.5q0 -61 -49 -108.5t-113 -47.5q-51 0 -85 32.5t-34 81.5q0 58 48 110l164 185zM290 621q-43 0 -75 -30.5t-32 -71.5q0 -34 22 -55t57 -21q43 0 75 31.5t32 73.5q0 32 -22 52.5t-57 20.5z" />
    <glyph glyph-name="sevensuperior" unicode="&#x2077;" 
d="M159 420l240 338h-205l6 43h261l-6 -36l-258 -366z" />
    <glyph glyph-name="eightsuperior" unicode="&#x2078;" 
d="M216 616q-31 30 -31 67q0 50 40.5 87t95.5 37q46 0 74 -25.5t28 -66.5q0 -55 -57 -99q42 -34 42 -79q0 -57 -44.5 -97t-107.5 -40q-51 0 -82.5 27.5t-31.5 71.5q0 69 74 117zM286 592q-41 0 -69 -25t-28 -61q0 -29 20 -46t54 -17q40 0 68.5 25.5t28.5 60.5q0 29 -20 46
t-54 17zM315 765q-35 0 -60 -22t-25 -54q0 -25 17.5 -40t46.5 -15q35 0 59.5 22.5t24.5 53.5q0 24 -17.5 39.5t-45.5 15.5z" />
    <glyph glyph-name="ninesuperior" unicode="&#x2079;" 
d="M197 425l110 124q-20 -3 -28 -3q-52 0 -85.5 29.5t-33.5 76.5q0 61 49 108t113 47q52 0 85.5 -32t33.5 -82q0 -57 -47 -110l-165 -184zM315 764q-43 0 -75 -31.5t-32 -73.5q0 -32 22 -51.5t57 -19.5q44 0 75.5 30t31.5 71q0 33 -22 54t-57 21z" />
    <glyph glyph-name="zeroinferior" unicode="&#x2080;" 
d="M235 272q126 0 126 -134q0 -110 -42 -186q-48 -88 -146 -88q-126 0 -126 132q0 112 42 188q48 88 146 88zM229 229q-55 0 -86 -44q-47 -68 -47 -176q0 -102 83 -102q56 0 86 43q47 71 47 176q0 103 -83 103z" />
    <glyph glyph-name="oneinferior" unicode="&#x2081;" 
d="M212 -130h-47l54 343l-68 -35l-17 37l99 51h42z" />
    <glyph glyph-name="twoinferior" unicode="&#x2082;" 
d="M48 -130l6 40l175 161q63 57 63 102q0 25 -17.5 40t-47.5 15q-32 0 -53.5 -15t-37.5 -51l-42 12q42 97 141 97q48 0 76 -25t28 -67q0 -63 -68 -126l-153 -140h190l-7 -43h-253z" />
    <glyph glyph-name="threeinferior" unicode="&#x2083;" 
d="M55 -38l48 12q5 -36 21 -51t49 -15q40 0 67.5 25t27.5 63q0 60 -69 60h-24l7 43h24q35 0 58.5 22t23.5 54q0 25 -16.5 39.5t-45.5 14.5q-43 0 -80 -41l-36 21l2 2l5 6q46 55 117 55q46 0 73.5 -24.5t27.5 -65.5q0 -64 -56 -101q37 -27 37 -76q0 -59 -43.5 -100
t-106.5 -41q-94 0 -110 88z" />
    <glyph glyph-name="fourinferior" unicode="&#x2084;" 
d="M303 250l-199 -250h128l17 104h47l-16 -104h50l-7 -43h-50l-14 -87h-47l14 87h-182l7 43l217 273z" />
    <glyph glyph-name="fiveinferior" unicode="&#x2085;" 
d="M192 223l-36 -97q28 7 47 7q52 0 85 -31t33 -80q0 -63 -49 -110t-114 -47q-79 0 -116 71l42 26q19 -54 80 -54q45 0 77 31t32 75q0 34 -22.5 55.5t-57.5 21.5q-37 0 -68 -26l-36 8l71 193h181l-7 -43h-142z" />
    <glyph glyph-name="sixinferior" unicode="&#x2086;" 
d="M296 246l-109 -122q21 3 30 3q49 0 82 -30.5t33 -76.5q0 -61 -49 -108.5t-113 -47.5q-51 0 -85 32.5t-34 81.5q0 58 48 111l164 184zM205 85q-43 0 -75 -30.5t-32 -71.5q0 -34 22 -55t57 -21q43 0 75 31.5t32 73.5q0 32 -22 52.5t-57 20.5z" />
    <glyph glyph-name="seveninferior" unicode="&#x2087;" 
d="M74 -115l240 338h-205l6 43h261l-6 -36l-258 -366z" />
    <glyph glyph-name="eightinferior" unicode="&#x2088;" 
d="M132 81q-31 30 -31 67q0 50 40.5 87t95.5 37q46 0 74 -25.5t28 -66.5q0 -57 -57 -99q42 -34 42 -79q0 -58 -44.5 -98t-107.5 -40q-51 0 -82.5 27.5t-31.5 72.5q0 69 74 117zM202 57q-41 0 -69 -25t-28 -61q0 -29 20.5 -46.5t54.5 -17.5q40 0 68.5 25.5t28.5 61.5
q0 29 -20.5 46t-54.5 17zM231 230q-35 0 -60 -22t-25 -54q0 -25 17.5 -40t46.5 -15q35 0 59.5 22.5t24.5 53.5q0 25 -17.5 40t-45.5 15z" />
    <glyph glyph-name="nineinferior" unicode="&#x2089;" 
d="M113 -110l110 123q-28 -2 -29 -2q-52 0 -85 30t-33 76q0 61 49 108t113 47q52 0 85.5 -32t33.5 -82q0 -58 -47 -111l-165 -184zM231 229q-43 0 -75 -31.5t-32 -72.5q0 -32 22 -52t57 -20q44 0 75.5 30t31.5 71q0 33 -22 54t-57 21z" />
    <glyph glyph-name="franc" unicode="&#x20a3;" horiz-adv-x="673" 
d="M456 373h57l-10 -61q52 61 140 61h12l-8 -51h-13q-79 0 -117 -55q-28 -41 -40 -122l-23 -145h-57zM530 613h-251l-39 -247h182l-9 -55h-182l-49 -311h-59l106 667h309z" />
    <glyph glyph-name="lira" unicode="&#x20a4;" horiz-adv-x="557" 
d="M253 376v-7q1 -14 2 -30.5t1.5 -26.5t0.5 -16v-5h194l-8 -51h-185q-1 -65 -19.5 -102t-73.5 -83h347l-9 -55h-425l9 59q68 47 90 83t22 98h-83l8 51h74q-2 28 -2 30q-2 40 -3 50v5h-55l8 51h48q3 64 25 117q26 61 81.5 97.5t124.5 36.5q103 0 147 -96l-52 -31
q-36 72 -107 72t-115 -53t-46 -143h220l-8 -51h-211z" />
    <glyph glyph-name="peseta" unicode="&#x20a7;" horiz-adv-x="602" 
d="M215 448h-58l8 50h58l27 169h131q86 0 126 -23q72 -38 72 -137v-9h59l-8 -50h-59q-28 -91 -89 -132.5t-163 -39.5h-72l-44 -276h-59zM274 448l-18 -118h81q71 -1 113.5 28t61.5 90h-238zM282 498h238q-1 60 -34.5 88t-104.5 27h-81z" />
    <glyph glyph-name="uni20AB" unicode="&#x20ab;" horiz-adv-x="565" 
d="M398 579h122l14 88h56l-14 -88h61l-8 -51h-61l-84 -528h-56l11 73q-79 -84 -179 -84q-83 0 -136 55t-53 140q0 107 79.5 188.5t185.5 81.5q97 0 151 -84l24 158h-121zM325 402q-81 0 -138.5 -63t-57.5 -152q0 -66 39 -106t103 -40q82 0 139 63.5t57 154.5q0 65 -38.5 104
t-103.5 39zM32 -72h496l-8 -51h-496z" />
    <glyph glyph-name="Euro" unicode="&#x20ac;" horiz-adv-x="792" 
d="M695 375h-420q-14 -45 -14 -83h388l-30 -53h-354q15 -87 79 -140.5t155 -53.5q56 0 105 20t110 69l-12 -75q-98 -70 -210 -70q-116 0 -194 67.5t-94 182.5h-96l29 53h64q2 44 14 83h-85l29 53h75q50 113 151 181.5t217 68.5q125 0 209 -94l-30 -54q-82 92 -193 92
q-90 0 -171 -53.5t-121 -140.5h429z" />
    <glyph glyph-name="uni20B4" unicode="&#x20b4;" horiz-adv-x="607" 
d="M160 240h-35l8 51h65q51 44 151 79q9 2 14 6h-216l8 51h315q47 39 47 92q0 47 -31.5 75.5t-82.5 28.5q-73 0 -136 -72l-42 31q78 96 185 96q74 0 120 -41t46 -107q0 -57 -33 -103h45l-8 -51h-91q-35 -23 -76 -37l-67 -25q-33 -13 -50 -23h271l-8 -51h-334
q-25 -32 -25 -75q0 -53 35 -86.5t90 -33.5q111 0 163 121l55 -16q-33 -77 -91.5 -119t-133.5 -42q-78 0 -128 47t-50 120q0 42 20 84z" />
    <glyph glyph-name="uni2101" unicode="&#x2101;" horiz-adv-x="951" 
d="M441 279l-25 104h-190l-62 -112h-48l224 396h53l85 -339zM406 425l-48 193l-108 -193h156zM914 338l-40 -23q-24 43 -69 43q-34 0 -59 -21.5t-25 -50.5q0 -33 50 -54l38 -14q81 -32 81 -89q0 -54 -45 -94.5t-106 -40.5q-48 0 -77 26t-33 75l46 12q9 -71 72 -71
q38 0 67 26t29 60q0 35 -62 59l-36 15q-70 27 -70 82q0 50 41 86t97 36q69 0 101 -62zM804 675l31 -19l-489 -665l-31 20z" />
    <glyph glyph-name="afii61248" unicode="&#x2105;" horiz-adv-x="1060" 
d="M529 610l-36 -30q-44 51 -108 51q-77 0 -134.5 -56t-57.5 -131q0 -59 40 -97.5t101 -38.5q62 0 126 53l27 -31q-78 -64 -160 -64q-79 0 -130 48.5t-51 124.5q0 93 74.5 163.5t172.5 70.5q77 0 136 -63zM843 400q76 0 127 -49.5t51 -123.5q0 -92 -74.5 -162.5
t-171.5 -70.5q-75 0 -126 50t-51 123q0 91 74.5 162t170.5 71zM836 358q-76 0 -133.5 -56.5t-57.5 -130.5q0 -57 39.5 -96t97.5 -39q77 0 134.5 56t57.5 130q0 58 -39.5 97t-98.5 39zM810 675l31 -19l-490 -665l-30 20z" />
    <glyph glyph-name="uni2117" unicode="&#x2117;" horiz-adv-x="863" 
d="M319 558h110q63 0 95 -19q64 -37 64 -116q0 -76 -62 -113q-32 -19 -97 -19h-59v-183h-51v450zM370 338h65q102 0 102 86t-102 86h-65v-172zM438 712q152 0 262 -112t110 -266q0 -158 -111 -268.5t-268 -110.5q-158 0 -268 111t-110 270q0 157 112 266.5t273 109.5z
M429 667q-136 0 -234 -99t-98 -236q0 -138 98 -235.5t236 -97.5q140 0 237.5 98t97.5 238q0 138 -98.5 235t-238.5 97z" />
    <glyph glyph-name="trademark" unicode="&#x2122;" horiz-adv-x="701" 
d="M314 361v312h39l120 -204l119 204h39v-312h-35v253l-107 -183h-32l-107 183v-253h-36zM190 641v-280h-35v280h-85v32h205v-32h-85z" />
    <glyph glyph-name="uni2126" unicode="&#x2126;" horiz-adv-x="803" 
d="M484 0v110q92 31 143.5 97t51.5 152q0 109 -81 186t-197 77t-197 -77t-81 -186q0 -87 51.5 -153t143.5 -96v-110h-238v55h179v16q-90 40 -143 118t-53 170q0 131 99.5 225t238.5 94t238.5 -94t99.5 -225q0 -91 -53 -169t-143 -119v-16h179v-55h-238z" />
    <glyph glyph-name="estimated" unicode="&#x212e;" horiz-adv-x="742" 
d="M669 328h-505v-146q21 -53 38 -77q55 -71 173 -71q164 0 227 139h44q-65 -184 -270 -184q-143 0 -223 89.5t-80 249.5q0 162 82 256t222 94q97 0 169.5 -48.5t100.5 -132.5q21 -59 22 -169zM588 364v130q-55 139 -215 139q-108 0 -169 -74q-13 -16 -40 -65v-130h424z" />
    <glyph glyph-name="onethird" unicode="&#x2153;" horiz-adv-x="833" 
d="M655 676l30 -19l-489 -665l-30 19zM507 91l48 12q6 -35 22 -50t48 -15q40 0 67.5 25t27.5 63q0 29 -18 44.5t-51 15.5h-24l7 42h24q35 0 58.5 22t23.5 54q0 25 -16.5 39.5t-45.5 14.5q-42 0 -80 -41l-36 21q1 1 7 8q46 55 117 55q46 0 73.5 -24.5t27.5 -65.5
q0 -63 -55 -101q36 -27 36 -76q0 -59 -43.5 -99.5t-106.5 -40.5q-45 0 -74 23t-36 65zM239 272h-47l54 342l-68 -35l-17 37l99 51h42z" />
    <glyph glyph-name="twothirds" unicode="&#x2154;" horiz-adv-x="833" 
d="M702 675l31 -19l-490 -665l-30 20zM508 91l48 12q5 -35 21 -50t49 -15q40 0 67.5 25t27.5 63q0 29 -18 44.5t-51 15.5h-24l7 42h24q35 0 58.5 22t23.5 54q0 25 -16.5 39.5t-45.5 14.5q-42 0 -80 -41l-36 21l7 8q46 55 117 55q46 0 73.5 -24.5t27.5 -65.5q0 -64 -56 -101
q37 -26 37 -76q0 -59 -43.5 -99.5t-106.5 -40.5q-46 0 -74.5 23t-35.5 65zM101 271l6 40l175 161q63 57 63 102q0 26 -17.5 41t-47.5 15q-32 0 -53.5 -15.5t-37.5 -51.5l-42 12q41 98 141 98q48 0 76 -25t28 -67q0 -64 -68 -127l-153 -140h190l-7 -43h-253z" />
    <glyph glyph-name="oneeighth" unicode="&#x215b;" horiz-adv-x="833" 
d="M655 675l30 -19l-489 -665l-30 20zM576 210q-31 30 -31 68q0 50 40.5 86.5t95.5 36.5q46 0 74 -25.5t28 -66.5q0 -57 -57 -99q42 -34 42 -79q0 -57 -44.5 -97t-106.5 -40q-51 0 -82.5 27.5t-31.5 71.5q0 70 73 117zM646 186q-40 0 -68 -25t-28 -61q0 -29 20 -46t54 -17
q40 0 68.5 25.5t28.5 60.5q0 29 -20 46t-55 17zM674 359q-35 0 -59.5 -22.5t-24.5 -53.5q0 -25 17.5 -40t46.5 -15q35 0 59.5 22.5t24.5 53.5q0 25 -17.5 40t-46.5 15zM239 271h-47l54 342l-68 -35l-17 37l99 51h42z" />
    <glyph glyph-name="threeeighths" unicode="&#x215c;" horiz-adv-x="833" 
d="M682 675l30 -19l-489 -665l-30 20zM568 210q-32 31 -32 68q0 50 40.5 86.5t95.5 36.5q46 0 74.5 -25.5t28.5 -66.5q0 -55 -57 -99q42 -34 42 -79q0 -57 -44.5 -97t-107.5 -40q-51 0 -82.5 27.5t-31.5 71.5q0 71 74 117zM638 186q-41 0 -69 -25t-28 -61q0 -28 20.5 -45.5
t54.5 -17.5q40 0 68.5 25.5t28.5 60.5q0 29 -20.5 46t-54.5 17zM666 359q-35 0 -60 -22t-25 -54q0 -25 17.5 -40t46.5 -15q35 0 60 22t25 54q0 25 -17.5 40t-46.5 15zM113 363l48 12q5 -35 21 -50t49 -15q40 0 67.5 25t27.5 63q0 29 -18 44.5t-51 15.5h-24l7 42h24
q35 0 58.5 22t23.5 54q0 25 -16.5 39.5t-45.5 14.5q-43 0 -80 -41l-36 21l2 2q0 1 5 6q46 55 117 55q46 0 73.5 -24.5t27.5 -65.5q0 -63 -56 -101q37 -27 37 -76q0 -59 -43.5 -99.5t-106.5 -40.5q-94 0 -110 88z" />
    <glyph glyph-name="fiveeighths" unicode="&#x215d;" horiz-adv-x="833" 
d="M684 675l30 -19l-489 -665l-30 20zM567 210q-31 30 -31 68q0 50 40.5 86.5t95.5 36.5q46 0 74 -25.5t28 -66.5q0 -55 -57 -99q42 -34 42 -79q0 -57 -44.5 -97t-106.5 -40q-51 0 -82.5 27.5t-31.5 71.5q0 70 73 117zM638 186q-41 0 -69 -25t-28 -61q0 -29 20 -46t54 -17
q40 0 68.5 25.5t28.5 60.5q0 29 -20 46t-54 17zM666 359q-35 0 -60 -22t-25 -54q0 -25 17.5 -40t46.5 -15q35 0 59.5 22.5t24.5 53.5q0 25 -17.5 40t-45.5 15zM259 624l-35 -97q27 7 46 7q52 0 85 -31t33 -80q0 -63 -49 -110t-114 -47q-79 0 -116 71l43 26q17 -54 79 -54
q45 0 77 31t32 75q0 34 -22.5 55.5t-57.5 21.5q-37 0 -68 -26l-36 8l71 193h181l-7 -43h-142z" />
    <glyph glyph-name="seveneighths" unicode="&#x215e;" horiz-adv-x="833" 
d="M649 676l30 -19l-489 -665l-30 19zM567 210q-31 31 -31 68q0 50 40.5 86.5t95.5 36.5q46 0 74.5 -25.5t28.5 -66.5q0 -56 -58 -99q42 -34 42 -79q0 -57 -44.5 -97t-106.5 -40q-51 0 -82.5 27.5t-31.5 71.5q0 70 73 117zM637 186q-40 0 -68 -25t-28 -61q0 -29 20 -46
t54 -17q40 0 68.5 25.5t28.5 60.5q0 29 -20 46t-55 17zM666 359q-35 0 -60 -22t-25 -54q0 -25 17.5 -40t46.5 -15q35 0 60 22t25 54q0 25 -17.5 40t-46.5 15zM143 285l240 338h-205l6 43h261l-6 -36l-258 -366z" />
    <glyph glyph-name="partialdiff" unicode="&#x2202;" horiz-adv-x="596" 
d="M144 618l8 48q77 -14 122.5 -30.5t87.5 -47.5q79 -57 121.5 -144t42.5 -193q0 -117 -63.5 -189.5t-165.5 -72.5q-96 0 -161.5 67t-65.5 166q0 97 65 164.5t160 67.5q78 0 141 -53q-23 81 -105 142.5t-187 74.5zM297 402q-75 0 -122 -51t-47 -132q0 -77 48 -127.5
t121 -50.5q74 0 121 51t47 130t-47.5 129.5t-120.5 50.5z" />
    <glyph glyph-name="emptyset" unicode="&#x2205;" horiz-adv-x="615" 
d="M396 558l61 120l38 -19l-61 -121q111 -76 111 -201q0 -100 -70.5 -169.5t-171.5 -69.5q-44 0 -84 17l-64 -126l-38 19l63 126q-51 34 -80.5 87.5t-29.5 113.5q0 101 69 170.5t170 69.5q47 0 87 -17zM201 175l174 342q-29 13 -65 13q-81 0 -138 -57t-57 -137
q0 -99 86 -160v-1zM240 156v-1q36 -12 68 -12q79 0 135.5 56.5t56.5 136.5q0 50 -23.5 93.5t-63.5 68.5z" />
    <glyph glyph-name="Delta" unicode="&#x2206;" horiz-adv-x="661" 
d="M33 0l261 667h72l262 -667h-595zM545 55l-216 555l-214 -555h430z" />
    <glyph glyph-name="product" unicode="&#x220f;" horiz-adv-x="669" 
d="M122 0v612h-85v55h596v-55h-86v-612h-59v612h-307v-612h-59z" />
    <glyph glyph-name="summation" unicode="&#x2211;" horiz-adv-x="666" 
d="M314 346l-181 264v57h413v-55h-350l184 -265l-200 -292h386v-55h-453v56z" />
    <glyph glyph-name="minus" unicode="&#x2212;" horiz-adv-x="556" 
d="M525 337l-8 -50h-387l8 50h387z" />
    <glyph glyph-name="uni2215" unicode="&#x2215;" horiz-adv-x="177" 
d="M371 675l31 -19l-490 -665l-30 20z" />
    <glyph glyph-name="uni2218" unicode="&#x2218;" horiz-adv-x="473" 
d="M238 466q54 0 93 -39t39 -94t-39 -94t-94 -39t-94.5 39t-39.5 94t39.5 94t95.5 39zM235 425q-37 0 -64 -27t-27 -65t27 -65t66 -27q38 0 65 27t27 66q0 38 -27.5 64.5t-66.5 26.5z" />
    <glyph glyph-name="radical" unicode="&#x221a;" horiz-adv-x="637" 
d="M526 832h51h223v-55h-231l-266 -777h-72l-116 339h-78v51h122l13 -42l95 -281z" />
    <glyph glyph-name="infinity" unicode="&#x221e;" horiz-adv-x="690" 
d="M347 299q-42 -59 -80 -84t-86 -25q-64 0 -104 41.5t-40 106.5q0 63 41 104.5t103 41.5q47 0 85.5 -25.5t77.5 -82.5q41 58 79 83t87 25q64 0 104 -41.5t40 -106.5q0 -64 -40.5 -105t-103.5 -41q-48 0 -85.5 25t-77.5 84zM375 337q35 -54 64 -75.5t68 -21.5q42 0 68 26.5
t26 69.5t-27 70.5t-70 27.5q-38 0 -66 -21t-63 -76zM316 337q-34 53 -63.5 75t-68.5 22q-41 0 -67.5 -27.5t-26.5 -70.5t26.5 -69.5t69.5 -26.5q38 0 65 20.5t65 76.5z" />
    <glyph glyph-name="integral" unicode="&#x222b;" horiz-adv-x="294" 
d="M37 -175v51q19 -4 29 -4q53 0 53 84v640q0 138 99 138q14 0 40 -6v-52q-18 5 -29 5q-54 0 -54 -85v-640q0 -137 -98 -137q-21 0 -40 6z" />
    <glyph glyph-name="similar" unicode="&#x223c;" horiz-adv-x="545" 
d="M74 253l-33 22q28 58 57.5 82.5t70.5 24.5q39 0 110 -34q67 -32 99 -32q29 0 49 14t43 51l35 -20q-25 -48 -51 -71q-36 -33 -81 -33q-25 0 -45.5 7t-95.5 41q-43 19 -72 19q-45 0 -86 -71z" />
    <glyph glyph-name="uni2243" unicode="&#x2243;" horiz-adv-x="549" 
d="M509 255v-48h-468v48h468zM76 325l-33 21q29 58 58 82.5t70 24.5q40 0 110 -33q65 -32 99 -32q29 0 49.5 14t42.5 51l35 -20q-25 -48 -51 -71q-36 -33 -81 -33q-25 0 -46.5 7t-95.5 40q-41 19 -71 19q-45 0 -86 -70z" />
    <glyph glyph-name="approxequal" unicode="&#x2248;" horiz-adv-x="545" 
d="M74 173l-33 22q29 58 58.5 82.5t70.5 24.5q40 0 109 -34q69 -32 102 -32q27 0 47 14.5t42 50.5l35 -20q-25 -48 -51 -71q-38 -33 -81 -33q-25 0 -45.5 7t-95.5 41q-43 19 -71 19q-46 0 -87 -71zM74 341l-33 22q28 57 57.5 81.5t70.5 24.5t110 -33q65 -32 99 -32
q29 0 49.5 14t42.5 51l35 -20q-25 -48 -51 -71q-36 -33 -81 -33q-25 0 -45.5 7t-95.5 40q-43 19 -72 19q-45 0 -86 -70z" />
    <glyph glyph-name="notequal" unicode="&#x2260;" horiz-adv-x="550" 
d="M345 403h164v-50h-189l-41 -81h230v-50h-254l-66 -133l-41 17l57 116h-164v50h189l41 81h-230v50h254l66 133l41 -17z" />
    <glyph glyph-name="lessequal" unicode="&#x2264;" horiz-adv-x="549" 
d="M508 142l-391 189l9 56l451 191l-9 -57l-389 -161l338 -161zM485 0h-420l8 49h420z" />
    <glyph glyph-name="greaterequal" unicode="&#x2265;" horiz-adv-x="549" 
d="M65 0l8 49h420l-8 -49h-420zM88 142l9 57l388 161l-337 161l9 57l389 -191l-9 -56z" />
    <glyph glyph-name="dotmath" unicode="&#x22c5;" horiz-adv-x="217" 
d="M168 375q15 0 25 -10t10 -25q0 -19 -15 -33.5t-34 -14.5q-14 0 -24 10t-10 25q0 19 14.5 33.5t33.5 14.5z" />
    <glyph glyph-name="lozenge" unicode="&#x25ca;" horiz-adv-x="671" 
d="M335 -40l-264 373l264 373l265 -373zM530 333l-195 279l-195 -279l195 -278z" />
    <glyph glyph-name="openbullet" unicode="&#x25e6;" horiz-adv-x="473" 
d="M238 466q54 0 93 -39t39 -94t-39 -94t-94 -39t-94.5 39t-39.5 94t39.5 94t95.5 39zM235 425q-37 0 -64 -27t-27 -65t27 -65t66 -27q38 0 65 27t27 66q0 38 -27.5 64.5t-66.5 26.5z" />
    <glyph glyph-name="commaaccent" unicode="&#xf6c3;" horiz-adv-x="476" 
d="M206 -55l53 -17l-83 -140l-36 12z" />
    <glyph glyph-name="Acute" unicode="&#xf6c9;" horiz-adv-x="476" 
d="M322 743l113 127l52 -31l-134 -116z" />
    <glyph glyph-name="Caron" unicode="&#xf6ca;" horiz-adv-x="476" 
d="M282 864l79 -87l107 87l37 -19l-126 -118h-51l-89 118z" />
    <glyph glyph-name="Dieresis" unicode="&#xf6cb;" horiz-adv-x="476" 
d="M462 832q15 0 25 -10t10 -25q0 -19 -15 -33.5t-34 -14.5q-15 0 -25 10.5t-10 24.5q0 19 15 33.5t34 14.5zM278 832q16 0 26 -10t10 -25q0 -19 -15 -33.5t-35 -14.5q-15 0 -25 10t-10 25q0 19 15 33.5t34 14.5z" />
    <glyph glyph-name="Grave" unicode="&#xf6ce;" horiz-adv-x="476" 
d="M389 743l-38 -20l-97 116l62 31z" />
    <glyph glyph-name="Hungarumlaut" unicode="&#xf6cf;" horiz-adv-x="476" 
d="M367 870l49 -31l-134 -116l-28 19zM507 870l49 -31l-134 -116l-28 19z" />
    <glyph glyph-name="Macron" unicode="&#xf6d0;" horiz-adv-x="476" 
d="M237 816h261l-9 -51h-260z" />
    <glyph glyph-name="one.fitted" horiz-adv-x="556" 
d="M277 54l87 549l-122 -65l-19 48l152 81h58l-97 -613h119l-8 -54h-310l8 54h132z" />
    <glyph glyph-name="two.fitted" horiz-adv-x="556" 
d="M86 0l9 56l290 276q110 104 110 187q0 47 -31.5 75.5t-84.5 28.5q-55 0 -93 -26.5t-66 -85.5l-51 15q31 73 88.5 112.5t132.5 39.5t119 -40.5t44 -109.5q0 -107 -111 -213l-275 -261h329l-8 -54h-402z" />
    <glyph glyph-name="three.fitted" horiz-adv-x="556" 
d="M299 376h30q26 0 57 12.5t49 29.5q44 42 44 103q0 47 -31 75t-84 28q-74 0 -133 -69l-44 27q77 96 187 96q74 0 118.5 -40.5t44.5 -107.5q0 -112 -102 -175q68 -48 68 -132q0 -98 -69.5 -166t-169.5 -68q-72 0 -118 37.5t-56 104.5l-1 10l60 16q8 -50 26 -73
q29 -40 97 -40q73 0 122.5 48t49.5 119q0 54 -32 83t-92 29h-29z" />
    <glyph glyph-name="four.fitted" horiz-adv-x="556" 
d="M484 646l-338 -441h241l29 180h59l-29 -180h84l-9 -54h-83l-24 -151h-59l24 151h-303l10 61l356 464z" />
    <glyph glyph-name="five.fitted" horiz-adv-x="556" 
d="M305 612l-71 -196h3l7 3q41 15 81 15q83 0 136 -51.5t53 -131.5q0 -105 -78.5 -183.5t-183.5 -78.5q-86 0 -142 53q-19 18 -39 58l52 33q36 -90 136 -90q80 0 137.5 58t57.5 139q0 62 -39.5 101.5t-101.5 39.5q-65 0 -117 -43l-45 10l114 319h283l-8 -55h-235z" />
    <glyph glyph-name="six.fitted" horiz-adv-x="556" 
d="M433 675l39 -34l-197 -230q38 14 74 14q82 0 134 -49.5t52 -126.5q0 -103 -79 -181.5t-182 -78.5q-81 0 -134.5 53.5t-53.5 134.5q0 95 77 186zM337 373q-78 0 -135 -57t-57 -134q0 -62 38.5 -100.5t100.5 -38.5q76 0 134 59t58 137q0 59 -39 96.5t-100 37.5z" />
    <glyph glyph-name="seven.fitted" horiz-adv-x="556" 
d="M534 612h-350l8 55h415l-8 -51l-427 -625l-47 28z" />
    <glyph glyph-name="eight.fitted" horiz-adv-x="556" 
d="M227 355q-58 44 -58 120q0 82 64 142.5t152 60.5q72 0 116.5 -41.5t44.5 -108.5q0 -51 -28 -97t-76 -76q76 -50 76 -139q0 -94 -71 -160.5t-171 -66.5q-80 0 -130 45t-50 118q0 63 34.5 116t96.5 87zM328 324q-72 0 -122.5 -47.5t-50.5 -115.5q0 -53 36 -85.5t95 -32.5
q71 0 122 48t51 116q0 53 -35.5 85t-95.5 32zM376 625q-63 0 -108 -43t-45 -102q0 -46 32 -75t83 -29q62 0 107.5 43t45.5 102q0 47 -31.5 75.5t-83.5 28.5z" />
    <glyph glyph-name="nine.fitted" horiz-adv-x="556" 
d="M229 -9l-39 34l198 231q-35 -12 -70 -12q-85 0 -138 48.5t-53 126.5q0 102 79 180.5t182 78.5q82 0 135 -53t53 -135q0 -97 -77 -186zM378 624q-76 0 -134 -59t-58 -136q0 -60 38.5 -96.5t101.5 -36.5q78 0 135 56t57 133q0 62 -39 100.5t-101 38.5z" />
    <glyph glyph-name="zero.fitted" horiz-adv-x="556" 
d="M384 678q199 0 199 -219q0 -87 -20 -177t-52 -150q-77 -143 -232 -143q-113 0 -161 68q-39 55 -39 148q0 89 20 180t52 150q77 143 233 143zM377 624q-46 0 -86.5 -21t-65.5 -57q-40 -60 -62.5 -145.5t-22.5 -177.5q0 -88 37.5 -134t108.5 -46q122 0 185 138
q51 114 51 262q0 88 -37.5 134.5t-107.5 46.5z" />
    <glyph glyph-name="sterling.fitted" horiz-adv-x="556" 
d="M256 306l1 -9q1 -18 1 -47q0 -71 -18.5 -110t-74.5 -85h347l-9 -55h-425l9 59q71 50 91.5 85t20.5 103q0 8 -2 52v7h-70l8 53h59l-1 13v24q0 122 51 194q28 40 78 64t103 24q102 0 147 -97l-52 -30q-36 72 -107 72q-35 0 -68 -16.5t-53 -43.5q-40 -54 -40 -159
q0 -18 1 -36v-9h209l-9 -53h-197z" />
    <glyph glyph-name="dollar.fitted" horiz-adv-x="556" 
d="M362 676l14 91h59l-15 -91q85 -12 125 -94l-52 -31q-37 72 -115 72q-59 0 -104.5 -41.5t-45.5 -95.5q0 -63 87 -99l62 -26q128 -52 128 -146q0 -77 -56 -141t-137 -80l-15 -97h-58l14 93q-71 5 -114 47.5t-48 112.5l60 16q14 -121 124 -121q67 0 118.5 48.5t51.5 112.5
q0 35 -24 59.5t-81 48.5l-60 25q-111 47 -111 136q0 76 54 132.5t139 68.5z" />
    <glyph glyph-name="cent.fitted" horiz-adv-x="556" 
d="M266 0l16 104q-71 12 -113.5 63.5t-42.5 127.5q0 98 65 174t164 93l16 105h58l-16 -102q43 -5 72 -20t58 -49l-44 -38q-43 56 -114 56q-85 0 -143 -62.5t-58 -152.5q0 -67 39 -106.5t107 -39.5q72 0 134 59l32 -38q-69 -65 -157 -72l-16 -102h-57z" />
    <glyph glyph-name="florin.fitted" horiz-adv-x="556" 
d="M33 -191l19 52q13 -4 24 -4q56 0 84 80l165 455h-46l18 51h46l9 22l25 72q50 136 151 136q18 0 35 -5l-19 -52q-15 4 -24 4q-55 0 -85 -80l-35 -97h82l-18 -51h-82l-164 -452q-48 -136 -150 -136q-17 0 -35 5z" />
    <glyph glyph-name="Euro.fitted" horiz-adv-x="556" 
d="M587 375h-420q-14 -45 -14 -83h388l-30 -53h-354q15 -87 79 -140.5t155 -53.5q56 0 105 20t110 69l-12 -75q-98 -70 -210 -70q-116 0 -194 67.5t-94 182.5h-96l29 53h64q2 44 14 83h-85l29 53h75q50 113 151 181.5t217 68.5q125 0 209 -94l-30 -54q-82 92 -193 92
q-90 0 -171 -53.5t-121 -140.5h429z" />
    <glyph glyph-name="yen.fitted" horiz-adv-x="556" 
d="M286 239h-166l8 53h158l1 2l-32 81h-113l8 53h84l-95 239h65l127 -332l232 332h65l-170 -239h83l-8 -53h-113l-58 -81v-2h158l-9 -53h-166l-38 -239h-59z" />
    <glyph glyph-name="one.numerator" 
d="M275 271h-47l54 343l-68 -35l-17 37l99 51h42z" />
    <glyph glyph-name="two.numerator" 
d="M111 271l6 40l175 161q63 57 63 102q0 26 -17.5 41t-47.5 15q-32 0 -53.5 -15.5t-37.5 -51.5l-42 12q41 98 141 98q48 0 76 -25t28 -67q0 -64 -68 -127l-153 -140h190l-7 -43h-253z" />
    <glyph glyph-name="three.numerator" 
d="M118 363l48 12q5 -35 21 -50t49 -15q40 0 67.5 25t27.5 63q0 29 -18 44.5t-51 15.5h-24l7 42h24q35 0 58.5 22t23.5 54q0 25 -16.5 39.5t-45.5 14.5q-43 0 -80 -41l-36 21l2 2l5 7q45 54 117 54q46 0 73.5 -24.5t27.5 -65.5q0 -63 -56 -101q37 -27 37 -76
q0 -59 -43.5 -99.5t-106.5 -40.5q-94 0 -110 88z" />
    <glyph glyph-name="four.numerator" 
d="M366 650l-199 -249h128l17 103h47l-16 -103h50l-7 -43h-50l-14 -88h-47l14 88h-182l7 43l217 273z" />
    <glyph glyph-name="five.numerator" 
d="M255 624l-35 -97q27 7 46 7q52 0 85 -31t33 -80q0 -63 -49 -110t-114 -47q-79 0 -116 71l43 26q17 -54 79 -54q45 0 77 31t32 75q0 34 -22.5 55.5t-57.5 21.5q-37 0 -68 -26l-36 8l71 193h181l-7 -43h-142z" />
    <glyph glyph-name="six.numerator" 
d="M359 647l-109 -122q21 3 30 3q50 0 82.5 -30.5t32.5 -76.5q0 -61 -49 -108.5t-113 -47.5q-51 0 -85 32.5t-34 81.5q0 57 48 111l164 184zM268 486q-43 0 -75 -30.5t-32 -71.5q0 -34 22 -55t57 -21q43 0 75 31.5t32 73.5q0 32 -22 52.5t-57 20.5z" />
    <glyph glyph-name="seven.numerator" 
d="M137 286l241 338h-206l7 43h260l-5 -36l-259 -366z" />
    <glyph glyph-name="eight.numerator" 
d="M195 482q-31 30 -31 67q0 50 40.5 87t95.5 37q46 0 74 -25.5t28 -66.5q0 -55 -57 -99q42 -34 42 -79q0 -57 -44.5 -97t-107.5 -40q-51 0 -82.5 27.5t-31.5 71.5q0 69 74 117zM266 459q-41 0 -69.5 -25t-28.5 -61q0 -29 20.5 -46t54.5 -17q40 0 68.5 25.5t28.5 60.5
q0 29 -20 46t-54 17zM294 631q-35 0 -60 -22t-25 -54q0 -25 17.5 -40t46.5 -15q35 0 59.5 22.5t24.5 53.5q0 25 -17.5 40t-45.5 15z" />
    <glyph glyph-name="nine.numerator" 
d="M176 290l110 124q-20 -3 -28 -3q-53 0 -86 30t-33 77q0 61 49 108t113 47q52 0 85.5 -32t33.5 -82q0 -58 -47 -111l-165 -184zM294 630q-43 0 -75 -31.5t-32 -73.5q0 -32 22 -52t57 -20q44 0 75.5 30t31.5 71q0 34 -22 55t-57 21z" />
    <glyph glyph-name="zero.numerator" 
d="M299 673q126 0 126 -133q0 -110 -42 -187q-48 -87 -146 -87q-126 0 -126 132q0 111 42 188q49 87 146 87zM293 630q-56 0 -86 -43q-47 -70 -47 -176q0 -102 83 -102q57 0 86 43q47 71 47 176q0 102 -83 102z" />
    <glyph glyph-name="one.denominator" 
d="M232 0h-47l54 342l-68 -35l-17 38l99 50h42z" />
    <glyph glyph-name="two.denominator" 
d="M70 0l6 40l175 160q63 58 63 103q0 25 -17.5 40t-47.5 15q-32 0 -53 -15.5t-38 -50.5l-42 12q42 97 141 97q48 0 76 -25t28 -67q0 -64 -68 -126l-153 -140h190l-7 -43h-253z" />
    <glyph glyph-name="three.denominator" 
d="M75 91l48 12q5 -35 21 -50t49 -15q40 0 67.5 25t27.5 63q0 29 -18 44.5t-51 15.5h-24l7 42h24q35 0 58.5 22t23.5 54q0 25 -16.5 39.5t-45.5 14.5q-42 0 -80 -41l-36 21l2 2q0 1 5 6q46 55 117 55q46 0 73.5 -24.5t27.5 -65.5q0 -64 -56 -101q37 -27 37 -76
q0 -59 -43.5 -99.5t-106.5 -40.5q-94 0 -110 88z" />
    <glyph glyph-name="four.denominator" 
d="M323 379l-199 -249h128l17 104h47l-16 -104h50l-7 -43h-50l-14 -87h-47l14 87h-182l7 43l217 272z" />
    <glyph glyph-name="five.denominator" 
d="M212 352l-36 -97q28 7 47 7q52 0 85 -31t33 -80q0 -63 -49 -110t-114 -47q-79 0 -116 71l42 26q19 -54 80 -54q45 0 77 31t32 75q0 34 -22.5 55.5t-57.5 21.5q-37 0 -68 -26l-36 8l71 193h181l-7 -43h-142z" />
    <glyph glyph-name="six.denominator" 
d="M317 376l-109 -122q21 3 30 3q49 0 82 -30.5t33 -76.5q0 -61 -49 -108.5t-113 -47.5q-51 0 -85 32.5t-34 81.5q0 58 48 110l164 184zM226 215q-43 0 -75 -30.5t-32 -71.5q0 -34 22 -55t57 -21q43 0 75 31.5t32 73.5q0 32 -22 52.5t-57 20.5z" />
    <glyph glyph-name="seven.denominator" 
d="M94 14l241 338h-206l7 43h260l-5 -36l-259 -366z" />
    <glyph glyph-name="eight.denominator" 
d="M152 210q-31 31 -31 68q0 50 40.5 86.5t95.5 36.5q46 0 74 -25.5t28 -66.5q0 -55 -57 -99q42 -34 42 -79q0 -57 -44.5 -97t-107.5 -40q-51 0 -82.5 27.5t-31.5 71.5q0 71 74 117zM222 186q-41 0 -69 -25t-28 -61q0 -28 20.5 -45.5t54.5 -17.5q40 0 68.5 25.5t28.5 60.5
q0 29 -20.5 46t-54.5 17zM251 359q-35 0 -60 -22t-25 -54q0 -25 17.5 -40t46.5 -15q35 0 59.5 22.5t24.5 53.5q0 25 -17.5 40t-45.5 15z" />
    <glyph glyph-name="nine.denominator" 
d="M133 19l110 124q-19 -3 -29 -3q-52 0 -85 30t-33 76q0 61 49 108t113 47q52 0 85.5 -32t33.5 -82q0 -57 -47 -110l-165 -184zM251 358q-43 0 -75 -31.5t-32 -73.5q0 -32 22 -51.5t57 -19.5q44 0 75.5 30t31.5 71q0 33 -22 54t-57 21z" />
    <glyph glyph-name="zero.denominator" 
d="M256 401q126 0 126 -134q0 -109 -42 -186q-48 -87 -146 -87q-126 0 -126 131q0 112 42 189q48 87 146 87zM251 358q-57 0 -87 -43q-47 -71 -47 -177q0 -101 83 -101q70 0 104 75q29 61 29 143q0 103 -82 103z" />
    <glyph glyph-name="onefifth" horiz-adv-x="833" 
d="M655 675l30 -19l-489 -665l-30 20zM633 352l-36 -97q27 7 47 7q52 0 85 -31t33 -80q0 -63 -49 -110t-114 -47q-79 0 -116 71l42 26q19 -54 80 -54q45 0 77 31t32 75q0 34 -22.5 55.5t-57.5 21.5q-37 0 -68 -26l-36 8l71 193h181l-7 -43h-142zM239 272h-47l54 342l-68 -35
l-17 37l99 51h42z" />
    <glyph glyph-name="twofifth" horiz-adv-x="833" 
d="M706 674l30 -19l-489 -665l-30 20zM634 352l-36 -97q27 7 47 7q52 0 85 -31t33 -80q0 -63 -49 -110t-115 -47q-78 0 -115 71l42 26q19 -54 80 -54q45 0 77 31t32 75q0 34 -22.5 55.5t-57.5 21.5q-37 0 -68 -26l-36 8l71 193h181l-7 -43h-142zM101 271l6 40l175 161
q63 57 63 102q0 26 -17.5 41t-47.5 15q-32 0 -53.5 -15.5t-37.5 -51.5l-42 12q41 98 141 98q48 0 76 -25t28 -67q0 -64 -68 -127l-153 -140h190l-7 -43h-253z" />
    <glyph glyph-name="threefifth" horiz-adv-x="833" 
d="M686 675l30 -19l-489 -665l-31 20zM633 352l-35 -97q27 7 46 7q52 0 85 -31t33 -80q0 -63 -49 -110t-114 -47q-79 0 -116 71l43 26q17 -54 79 -54q45 0 77 31t32 75q0 34 -22.5 55.5t-57.5 21.5q-37 0 -68 -26l-36 8l71 193h181l-6 -43h-143zM113 363l48 12q5 -35 21 -50
t49 -15q40 0 67.5 25t27.5 63q0 29 -18 44.5t-51 15.5h-24l7 42h24q35 0 58.5 22t23.5 54q0 25 -16.5 39.5t-45.5 14.5q-43 0 -80 -41l-36 21l2 2q0 1 5 6q46 55 117 55q46 0 73.5 -24.5t27.5 -65.5q0 -63 -56 -101q37 -27 37 -76q0 -59 -43.5 -99.5t-106.5 -40.5
q-94 0 -110 88z" />
    <glyph glyph-name="fourfifth" horiz-adv-x="833" 
d="M701 675l31 -19l-490 -665l-30 20zM635 352l-36 -97q27 7 47 7q52 0 85 -31t33 -80q0 -63 -49 -110t-115 -47q-78 0 -115 71l42 26q17 -54 79 -54q46 0 78 31t32 75q0 34 -22.5 55.5t-57.5 21.5q-39 0 -69 -26l-35 8l71 193h181l-7 -43h-142zM374 650l-199 -249h128
l17 103h47l-16 -103h50l-7 -43h-50l-14 -88h-47l14 88h-182l7 43l217 273z" />
    <glyph glyph-name="onesixth" horiz-adv-x="833" 
d="M668 675l30 -19l-489 -665l-30 20zM725 376l-109 -122q21 3 30 3q50 0 83 -30.5t33 -76.5q0 -61 -49 -108.5t-113 -47.5q-52 0 -86 32.5t-34 81.5q0 58 48 110l164 184zM636 215q-44 0 -76 -30.5t-32 -71.5q0 -34 22 -55t57 -21q43 0 75.5 31.5t32.5 73.5q0 32 -22 52.5
t-57 20.5zM239 272h-47l54 342l-68 -35l-17 37l99 51h42z" />
    <glyph glyph-name="fivesixth" horiz-adv-x="833" 
d="M708 675l31 -19l-490 -665l-30 20zM726 376l-109 -122q19 3 30 3q49 0 82 -30.5t33 -76.5q0 -61 -49 -108.5t-113 -47.5q-51 0 -85 32.5t-34 81.5q0 57 47 110l165 184zM635 215q-43 0 -75 -30.5t-32 -71.5q0 -34 22 -55t57 -21q43 0 75 31.5t32 73.5q0 32 -22 52.5
t-57 20.5zM259 624l-35 -97q27 7 46 7q52 0 85 -31t33 -80q0 -63 -49 -110t-114 -47q-79 0 -116 71l43 26q17 -54 79 -54q45 0 77 31t32 75q0 34 -22.5 55.5t-57.5 21.5q-37 0 -68 -26l-36 8l71 193h181l-7 -43h-142z" />
    <glyph glyph-name="Dotaccent" horiz-adv-x="476" 
d="M370 832q16 0 26 -10t10 -25q0 -19 -15 -33.5t-35 -14.5q-15 0 -25 10t-10 25q0 19 15 33.5t34 14.5z" />
    <glyph glyph-name="Ring" horiz-adv-x="476" 
d="M376 872q31 0 51.5 -19.5t20.5 -49.5q0 -37 -29.5 -65.5t-67.5 -28.5q-32 0 -52 19.5t-20 50.5q0 36 29.5 64.5t67.5 28.5zM372 842q-24 0 -42.5 -18t-18.5 -41q0 -19 12.5 -31.5t31.5 -12.5q24 0 42.5 18t18.5 42q0 19 -12.5 31t-31.5 12z" />
    <glyph glyph-name="Circumflex" horiz-adv-x="476" 
d="M260 723l-37 19l126 118h51l89 -118l-43 -19l-79 87z" />
    <glyph glyph-name="Breve" horiz-adv-x="476" 
d="M246 841l49 4v-15q0 -25 18.5 -42.5t45.5 -17.5q66 0 89 75l48 -4q-17 -56 -55.5 -88t-88.5 -32q-46 0 -76.5 28t-30.5 70q0 13 1 22z" />
    <glyph glyph-name="Tilde" horiz-adv-x="476" 
d="M272 748l-43 11q24 74 83 74q25 0 64 -21q28 -13 45 -13q22 0 33 34l43 -11q-21 -73 -83 -73q-28 0 -62 18q-30 16 -46 16q-21 0 -34 -35z" />
    <glyph glyph-name="Cedilla" horiz-adv-x="476" 
d="M298 -78l-111 -117l-35 19l96 121z" />
    <glyph glyph-name="Ogonek" horiz-adv-x="476" 
d="M442 -91l10 -41q-34 -11 -58 -11q-33 0 -53 17t-20 44q0 39 43 82h57q-47 -46 -47 -73q0 -25 33 -25q13 0 35 7z" />
    <glyph glyph-name="Commaaccent" horiz-adv-x="476" 
d="M206 -55l53 -17l-83 -140l-36 12z" />
    <glyph glyph-name="Comma.high" horiz-adv-x="476" 
d="M473 870l53 -17l-82 -140l-37 12z" />
    <glyph glyph-name="Dieresis.alt" horiz-adv-x="476" 
d="M433 832q15 0 25 -10t10 -25q0 -19 -15 -33.5t-34 -14.5q-15 0 -25 10.5t-10 24.5q0 19 15 33.5t34 14.5zM299 832q16 0 26 -10t10 -25q0 -19 -15 -33.5t-35 -14.5q-15 0 -25 10t-10 25q0 19 15 33.5t34 14.5z" />
    <glyph glyph-name="comma.high" horiz-adv-x="476" 
d="M441 671l53 -17l-83 -141l-36 12z" />
    <glyph glyph-name="dieresis.alt" horiz-adv-x="476" 
d="M268 631q16 0 26 -10t10 -25q0 -19 -15 -33.5t-35 -14.5q-15 0 -25 10t-10 25q0 19 15 33.5t34 14.5zM402 631q15 0 25 -10t10 -24q0 -19 -14.5 -34t-34.5 -15q-15 0 -25 10.5t-10 24.5q0 19 15 33.5t34 14.5z" />
    <glyph glyph-name="commareversed" horiz-adv-x="476" 
d="M429 513l-53 17l83 141l36 -12z" />
    <glyph glyph-name="G.salt" horiz-adv-x="729" 
d="M642 282h-176l8 55h235l-33 -211q-30 -30 -40 -39q-51 -45 -120.5 -71.5t-138.5 -26.5q-121 0 -202 83.5t-81 207.5q0 103 55.5 195t149 147.5t197.5 55.5q126 0 214 -101l-47 -41q-69 86 -178 86q-133 0 -232 -100.5t-99 -235.5q0 -104 67 -172.5t168 -68.5
q129 0 231 100l2 12z" />
    <glyph glyph-name="M.salt" horiz-adv-x="843" 
d="M242 667h62l152 -449l294 449h62l-39 -667h-61l36 577l-275 -421h-54l-143 420l-146 -576h-60z" />
    <glyph glyph-name="y.salt" horiz-adv-x="435" 
d="M188 13l-114 430h62l93 -361l211 361h61l-350 -594q-29 -50 -55.5 -71.5t-57.5 -21.5q-15 0 -30 5l16 51q11 -3 16 -3q17 0 31.5 14t34.5 49z" />
    <glyph glyph-name="parenleft.salt" horiz-adv-x="285" 
d="M203 -96l-54 -23q-26 89 -26 230q0 254 92 510q35 98 78 165l46 -23q-159 -295 -159 -645q0 -111 23 -214z" />
    <glyph glyph-name="parenright.salt" horiz-adv-x="285" 
d="M98 -119l-47 23q160 294 160 645q0 111 -24 214l54 23q27 -88 27 -231q0 -254 -93 -510q-34 -94 -77 -164z" />
    <glyph glyph-name="bracketleft.salt" horiz-adv-x="285" 
d="M228 -63l-8 -53h-155l142 899h155l-8 -53h-97l-125 -793h96z" />
    <glyph glyph-name="bracketright.salt" horiz-adv-x="285" 
d="M36 -63h97l126 793h-97l8 53h155l-142 -899h-155z" />
    <glyph glyph-name="afii61248.salt" horiz-adv-x="765" 
d="M416 597l-37 -31q-27 35 -68 35q-48 0 -80.5 -33.5t-32.5 -82.5q0 -37 22.5 -58t61.5 -21q42 0 80 37l26 -31q-54 -48 -114 -48q-55 0 -89 32.5t-34 84.5q0 66 49.5 114t117.5 48q56 0 98 -46zM594 267q52 0 85.5 -33t33.5 -84q0 -65 -49.5 -113.5t-115.5 -48.5
q-54 0 -87.5 32.5t-33.5 85.5q0 65 49.5 113t117.5 48zM584 225q-46 0 -78 -34t-32 -82q0 -36 22 -57.5t59 -21.5q47 0 79 34t32 83q0 36 -22 57t-60 21zM658 675l31 -20l-487 -664l-31 20z" />
    <glyph glyph-name="braceleft.salt" horiz-adv-x="287" 
d="M104 311l7 47q34 11 51 33.5t24 65.5l30 191q14 79 49 108t112 27l-8 -50h-7q-44 0 -62.5 -18.5t-26.5 -72.5l-30 -188q-9 -52 -25.5 -77t-54.5 -44q45 -28 45 -83q0 -19 -3 -40l-29 -184q-5 -30 -5 -46q0 -26 15.5 -36t56.5 -10l-8 -50q-6 -1 -17 -1q-55 0 -80 21
t-25 67q0 22 5 54l29 184q3 18 3 36q0 27 -10.5 42t-35.5 24z" />
    <glyph glyph-name="braceright.salt" horiz-adv-x="287" 
d="M289 358l-7 -47q-34 -10 -50.5 -33t-24.5 -69l-29 -184q-13 -79 -45 -110.5t-100 -31.5q-11 0 -17 1l8 50q50 -1 69 17.5t27 74.5l29 184q9 50 26.5 77t54.5 46q-25 14 -35 32.5t-10 49.5q0 21 3 39l30 188q4 23 4 44q0 47 -64 47h-8l8 50q70 1 96 -18.5t26 -72.5
q0 -25 -4 -44l-30 -191q-2 -11 -2 -33q0 -49 45 -66z" />
    <glyph glyph-name="copyright.salt" horiz-adv-x="475" 
d="M344 636l-23 -23q-31 31 -63 31q-36 0 -60 -25t-24 -62t24.5 -62t59.5 -25q33 0 65 31l22 -23q-41 -40 -87 -40q-49 0 -83.5 35t-34.5 84t34.5 84t83.5 35q46 0 86 -40zM251 759q85 0 144.5 -59.5t59.5 -143.5q0 -85 -59.5 -144.5t-143.5 -59.5q-86 0 -145 60t-59 147
q0 81 60.5 140.5t142.5 59.5zM250 729q-71 0 -121.5 -51t-50.5 -124q0 -70 51 -121t122 -51q72 0 123 50.5t51 123.5q0 72 -51 122.5t-124 50.5z" />
    <glyph glyph-name="registered.salt" horiz-adv-x="475" 
d="M288 537l56 -97h-38l-51 91h-27h-9v-91h-33v233h59q40 0 61.5 -18.5t21.5 -52.5q0 -43 -40 -65zM219 562h29q47 0 47 39q0 41 -48 41h-28v-80zM251 759q85 0 144.5 -59.5t59.5 -143.5q0 -85 -59.5 -144.5t-143.5 -59.5q-86 0 -145 60t-59 147q0 81 60.5 140.5t142.5 59.5
zM250 729q-71 0 -121.5 -51t-50.5 -124q0 -70 51 -121t122 -51q72 0 123 50.5t51 123.5q0 72 -51 122.5t-124 50.5z" />
    </font>
</defs>
</svg>
