<?xml version="1.0" standalone="no"?>
<!DOCTYPE svg PUBLIC "-//W3C//DTD SVG 1.1//EN" "http://www.w3.org/Graphics/SVG/1.1/DTD/svg11.dtd" >
<svg xmlns="http://www.w3.org/2000/svg" xmlns:xlink="http://www.w3.org/1999/xlink" version="1.1">
<metadata>
Created by FontForge 20170731 at Thu Sep 10 14:38:09 2015
 By ,,,
Copyright 2014 by (URW)++ Design &#38; Development GmbH
</metadata>
<defs>
<font id="URWGeometric-Bold" horiz-adv-x="387" >
  <font-face 
    font-family="URW Geometric"
    font-weight="700"
    font-stretch="normal"
    units-per-em="1000"
    panose-1="0 0 8 0 0 0 0 0 0 0"
    ascent="667"
    descent="-333"
    x-height="443"
    cap-height="667"
    bbox="-133 -282 1226 1085"
    underline-thickness="103"
    underline-position="-302"
    unicode-range="U+0020-FB04"
  />
<missing-glyph horiz-adv-x="230" 
 />
    <glyph glyph-name="afii61352" unicode="Nr&#x2e;" horiz-adv-x="1060" 
d="M734 270v80h258v-80h-258zM865 682q60 0 101.5 -41.5t41.5 -101.5t-42 -101.5t-103 -41.5t-103 41.5t-42 102.5t42.5 101.5t104.5 40.5zM863 609q-29 0 -47 -19.5t-18 -51.5q0 -31 18.5 -50t47.5 -19q28 0 46 19.5t18 50.5t-18 50.5t-47 19.5zM70 0v667h102l347 -464v464
h118v-667h-102l-347 464v-464h-118z" />
    <glyph glyph-name="ff" unicode="ff" horiz-adv-x="517" 
d="M178 443h76v-103h-76v-340h-114v340h-42v103h42v71q0 73 32 112t93 39q25 0 63 -8v-103q-25 8 -40 8q-19 0 -26.5 -11t-7.5 -37v-71zM433 443h76v-103h-76v-340h-114v340h-42v103h42v81q0 73 32 112t93 39q28 0 63 -8v-103q-25 8 -40 8q-19 0 -26.5 -11t-7.5 -37v-81z
" />
    <glyph glyph-name="fi" unicode="fi" horiz-adv-x="476" 
d="M178 443h76v-103h-76v-340h-114v340h-42v103h42v81q0 73 32 112t93 39q28 0 63 -8v-103q-25 8 -40 8q-19 0 -26.5 -11t-7.5 -37v-81zM423 443v-443h-114v443h114zM367 664q29 0 49.5 -21t20.5 -49q0 -29 -21 -49.5t-50 -20.5q-30 0 -51 20.5t-21 50.5q0 29 21 49t52 20z
" />
    <glyph glyph-name="fl" unicode="fl" horiz-adv-x="477" 
d="M178 443h76v-103h-76v-340h-114v340h-42v103h42v81q0 73 32 112t93 39q28 0 63 -8v-103q-25 8 -40 8q-19 0 -26.5 -11t-7.5 -37v-81zM423 0h-114v667h114v-667z" />
    <glyph glyph-name="ffi" unicode="ffi" horiz-adv-x="729" 
d="M178 443h76v-103h-76v-340h-114v340h-42v103h42v71q0 73 32 112t93 39q25 0 63 -8v-103q-25 8 -40 8q-19 0 -26.5 -11t-7.5 -37v-71zM433 443h76v-103h-76v-340h-114v340h-42v103h42v81q0 73 32 112t93 39q28 0 63 -8v-103q-25 8 -40 8q-19 0 -26.5 -11t-7.5 -37v-81z
M676 443v-443h-114v443h114zM621 664q29 0 49.5 -21t20.5 -49q0 -29 -21 -49.5t-50 -20.5q-30 0 -51 20.5t-21 50.5q0 29 21 49t52 20z" />
    <glyph glyph-name="ffl" unicode="ffl" horiz-adv-x="731" 
d="M178 443h76v-103h-76v-340h-114v340h-42v103h42v71q0 73 32 112t93 39q25 0 63 -8v-103q-25 8 -40 8q-19 0 -26.5 -11t-7.5 -37v-71zM433 443h76v-103h-76v-340h-114v340h-42v103h42v81q0 73 32 112t93 39q28 0 63 -8v-103q-25 8 -40 8q-19 0 -26.5 -11t-7.5 -37v-81z
M677 0h-114v667h114v-667z" />
    <glyph glyph-name=".notdef" horiz-adv-x="230" 
 />
    <glyph glyph-name=".null" horiz-adv-x="0" 
 />
    <glyph glyph-name="nonmarkingreturn" horiz-adv-x="333" 
 />
    <glyph glyph-name="space" unicode=" " horiz-adv-x="230" 
 />
    <glyph glyph-name="exclam" unicode="!" horiz-adv-x="303" 
d="M98 171l-10 496h127l-10 -496h-107zM153 127q29 0 49.5 -20.5t20.5 -49.5t-21 -49.5t-50 -20.5q-30 0 -51 20.5t-21 50.5q0 29 21 49t52 20z" />
    <glyph glyph-name="quotedbl" unicode="&#x22;" horiz-adv-x="331" 
d="M137 390h-91l-13 297h117zM284 390h-90l-14 297h117z" />
    <glyph glyph-name="numbersign" unicode="#" horiz-adv-x="590" 
d="M112 184h-72l18 89h72l24 118h-72l18 89h72l41 200l94 -22l-36 -178h109l41 200l94 -20l-37 -180h72l-19 -89h-71l-24 -118h71l-18 -89h-71l-41 -200l-94 22l36 178h-109l-41 -200l-94 22zM337 273l24 118h-109l-24 -118h109z" />
    <glyph glyph-name="dollar" unicode="$" horiz-adv-x="582" 
d="M239 -103v93q-151 30 -182 198l115 30l6 -24q25 -97 107 -97q44 0 74.5 29.5t30.5 71.5q0 29 -21.5 49t-75.5 40l-60 23q-146 57 -146 178q0 67 41.5 118t110.5 68v93h117v-92q48 -14 81.5 -41.5t64.5 -81.5l-96 -60q-26 39 -37 50q-31 29 -72 29q-40 0 -66 -23.5
t-26 -60.5q0 -46 77 -76l63 -24q165 -61 165 -188q0 -70 -41.5 -124.5t-112.5 -78.5v-99h-117z" />
    <glyph glyph-name="percent" unicode="%" horiz-adv-x="896" 
d="M694 403q162 0 162 -206t-160 -206q-162 0 -162 209q0 99 41 151t119 52zM695 327q-77 0 -77 -132q0 -128 77 -128t77 130t-77 130zM607 682l64 -37l-381 -660l-65 37zM200 676q163 0 163 -206t-161 -206q-162 0 -162 209q0 99 41 151t119 52zM202 600q-78 0 -78 -132
q0 -128 78 -128q77 0 77 130t-77 130z" />
    <glyph glyph-name="ampersand" unicode="&#x26;" horiz-adv-x="662" 
d="M338 369l121 -144q10 22 28 69l7 21l107 -29q-4 -12 -8 -23q-24 -78 -55 -130l112 -133h-141l-42 50q-81 -65 -177 -65q-97 0 -163.5 57.5t-66.5 141.5q0 55 30.5 100t101.5 96q-37 48 -51.5 79t-14.5 64q0 68 46 113.5t115 45.5q67 0 112.5 -44t45.5 -108
q0 -46 -24.5 -82.5t-82.5 -78.5zM276 442q40 32 53 50t13 41q0 24 -15.5 40t-39.5 16q-25 0 -41.5 -17.5t-16.5 -43.5q0 -17 9 -33t38 -53zM396 135l-142 171q-45 -38 -62.5 -63.5t-17.5 -53.5q0 -42 33 -70.5t81 -28.5q59 0 108 45z" />
    <glyph glyph-name="quotesingle" unicode="'" horiz-adv-x="184" 
d="M137 390h-91l-13 297h117z" />
    <glyph glyph-name="parenleft" unicode="(" horiz-adv-x="320" 
d="M164 746l102 -48q-28 -74 -40 -118q-37 -143 -37 -304q0 -121 17.5 -216.5t59.5 -205.5l-102 -48q-25 54 -31.5 72t-18.5 63q-41 161 -41 335q0 192 49 363q11 39 42 107z" />
    <glyph glyph-name="parenright" unicode=")" horiz-adv-x="320" 
d="M53 698l102 48q34 -74 50 -135q41 -162 41 -335q0 -192 -49 -363q-10 -37 -42 -107l-102 48q42 110 59.5 205.5t17.5 216.5q0 177 -43 324q-8 29 -34 98z" />
    <glyph glyph-name="asterisk" unicode="*" horiz-adv-x="493" 
d="M198 634l-4 115h106l-4 -115l108 40l33 -102l-111 -31l72 -91l-87 -62l-64 96l-64 -96l-86 62l71 91l-111 31l33 102z" />
    <glyph glyph-name="plus" unicode="+" horiz-adv-x="556" 
d="M226 363v200h105v-200h198v-102h-198v-200h-105v200h-199v102h199z" />
    <glyph glyph-name="comma" unicode="," horiz-adv-x="259" 
d="M110 123l104 -38l-117 -262l-83 33z" />
    <glyph glyph-name="hyphen" unicode="-" horiz-adv-x="275" 
d="M27 282h222v-104h-222v104z" />
    <glyph glyph-name="period" unicode="." horiz-adv-x="251" 
d="M127 127q29 0 49.5 -20.5t20.5 -49.5t-21 -49.5t-50 -20.5q-30 0 -51 20.5t-21 50.5q0 29 21 49t52 20z" />
    <glyph glyph-name="slash" unicode="/" horiz-adv-x="554" 
d="M420 683l89 -53l-374 -646l-90 54z" />
    <glyph glyph-name="zero" unicode="0" horiz-adv-x="578" 
d="M289 682q259 0 259 -349q0 -348 -258 -348q-260 0 -260 353q0 169 65.5 256.5t193.5 87.5zM289 571q-138 0 -138 -241q0 -234 138 -234t138 237q0 238 -138 238z" />
    <glyph glyph-name="one" unicode="1" horiz-adv-x="325" 
d="M255 0h-118v525l-84 -48l-56 97l164 93h94v-667z" />
    <glyph glyph-name="two" unicode="2" horiz-adv-x="493" 
d="M42 0v94l237 264q67 74 67 134q0 36 -25 57.5t-66 21.5q-62 0 -85 -39q-11 -19 -26 -68l-109 30q14 64 41 102q61 86 182 86q91 0 148 -54t57 -139q0 -95 -71 -175l-184 -204h269v-110h-435z" />
    <glyph glyph-name="three" unicode="3" horiz-adv-x="486" 
d="M175 402h52q98 0 98 84q0 38 -25.5 61.5t-67.5 23.5q-34 0 -56.5 -16t-49.5 -58l-99 53q41 71 88.5 101.5t115.5 30.5q92 0 151.5 -54.5t59.5 -138.5q0 -80 -60 -134q74 -64 74 -156q0 -93 -64.5 -153.5t-163.5 -60.5q-105 0 -166 69q-21 23 -33 49.5t-23 74.5l115 30
q12 -48 26 -72q26 -40 83 -40q47 0 77 28.5t30 73.5q0 96 -110 96h-52v108z" />
    <glyph glyph-name="four" unicode="4" horiz-adv-x="520" 
d="M400 627l-240 -380h140v150h118v-150h77v-108h-77v-139h-118v139h-280v100l283 448z" />
    <glyph glyph-name="five" unicode="5" horiz-adv-x="535" 
d="M242 558l-22 -107q24 4 42 4q99 0 167.5 -67.5t68.5 -164.5q0 -101 -71 -169.5t-175 -68.5q-71 0 -124 33.5t-98 107.5l94 65q28 -46 41 -59q34 -36 90 -36q53 0 89 35.5t36 87.5q0 55 -35.5 91t-88.5 36q-49 0 -79 -30q-5 -5 -12 -13l-92 20l71 344h322v-109h-224z" />
    <glyph glyph-name="six" unicode="6" horiz-adv-x="547" 
d="M310 687l93 -68l-126 -175q83 -4 140 -43q93 -65 93 -179q0 -99 -69 -168t-168 -69q-100 0 -169.5 69t-69.5 167q0 82 53 155zM272 335q-52 0 -86 -34t-34 -84q0 -52 34 -87t85 -35q52 0 86.5 35.5t34.5 88.5q0 50 -34 83t-86 33z" />
    <glyph glyph-name="seven" unicode="7" horiz-adv-x="454" 
d="M314 558h-307v109h448v-85l-323 -602l-103 54z" />
    <glyph glyph-name="eight" unicode="8" horiz-adv-x="516" 
d="M114 355q-63 60 -63 134q0 82 59.5 137.5t147.5 55.5t147.5 -55.5t59.5 -137.5q0 -74 -63 -134q46 -37 65 -73.5t19 -86.5q0 -90 -65 -150t-163 -60t-163 60t-65 151q0 49 19 85.5t65 73.5zM257 297q-49 0 -79.5 -28.5t-30.5 -74.5q0 -45 31 -73.5t80 -28.5t80 28.5
t31 73.5q0 46 -31 74.5t-81 28.5zM257 578q-41 0 -68 -26.5t-27 -66.5q0 -37 27.5 -62t68.5 -25q42 0 69 25t27 64q0 40 -27 65.5t-70 25.5z" />
    <glyph glyph-name="nine" unicode="9" horiz-adv-x="549" 
d="M236 -20l-92 68l126 175q-84 4 -141 43q-44 31 -68 78t-24 101q0 99 69 168t168 69q100 0 169.5 -69t69.5 -167q0 -81 -53 -155zM276 572q-52 0 -86.5 -35.5t-34.5 -88.5q0 -50 34 -83t86 -33t86 34t34 84q0 52 -34.5 87t-84.5 35z" />
    <glyph glyph-name="colon" unicode=":" horiz-adv-x="251" 
d="M127 127q29 0 49.5 -20.5t20.5 -49.5t-21 -49.5t-50 -20.5q-30 0 -51 20.5t-21 50.5q0 29 21 49t52 20zM127 429q29 0 49.5 -20.5t20.5 -49.5t-21 -49.5t-50 -20.5q-30 0 -51 20.5t-21 50.5q0 29 21 49t52 20z" />
    <glyph glyph-name="semicolon" unicode=";" horiz-adv-x="254" 
d="M110 123l105 -38l-117 -262l-84 33zM147 429q29 0 49.5 -20.5t20.5 -49.5t-21 -49.5t-50 -20.5q-30 0 -51 20.5t-21 50.5q0 29 21 49t52 20z" />
    <glyph glyph-name="less" unicode="&#x3c;" horiz-adv-x="576" 
d="M524 604v-119l-325 -148l325 -149v-119l-473 223v90z" />
    <glyph glyph-name="equal" unicode="=" horiz-adv-x="556" 
d="M500 443v-103h-444v103h444zM500 284v-103h-444v103h444z" />
    <glyph glyph-name="greater" unicode="&#x3e;" horiz-adv-x="576" 
d="M51 69v119l325 149l-325 148v119l473 -222v-91z" />
    <glyph glyph-name="question" unicode="?" horiz-adv-x="435" 
d="M155 171v66q0 49 12.5 75.5t50.5 57.5l41 34q53 45 53 92q0 34 -23 54.5t-62 20.5q-38 0 -62 -17t-55 -67l-87 70q65 125 199 125q94 0 150.5 -51.5t56.5 -137.5q0 -46 -19.5 -83.5t-66.5 -80.5l-46 -43q-10 -9 -17 -16q-8 -8 -8 -41v-58h-117zM215 127q29 0 49.5 -20.5
t20.5 -49.5t-21 -49.5t-51 -20.5t-50.5 20.5t-20.5 50.5q0 29 21 49t52 20z" />
    <glyph glyph-name="at" unicode="@" horiz-adv-x="897" 
d="M639 531l-43 -330h4q69 0 105.5 45t36.5 130q0 97 -50 164q-69 90 -210 90q-147 0 -236.5 -84t-89.5 -222q0 -141 97 -220q81 -67 226 -67q60 0 106 8t121 31l30 -81q-125 -43 -261 -43q-207 0 -315 117q-93 101 -93 253q0 175 114 284t298 109q159 0 255.5 -92
t96.5 -244q0 -131 -74 -202q-64 -61 -183 -61h-133q-84 0 -135.5 51t-51.5 134q0 68 31.5 123t86.5 81t133 26h134zM506 201l31 245h-41q-71 0 -110.5 -37.5t-39.5 -104.5q0 -49 27 -76t76 -27h57z" />
    <glyph glyph-name="A" unicode="A" horiz-adv-x="636" 
d="M455 164h-274l-60 -164h-124l249 667h145l249 -667h-125zM415 274l-97 268l-97 -268h194z" />
    <glyph glyph-name="B" unicode="B" horiz-adv-x="528" 
d="M70 0v667h155q110 0 167 -41q33 -25 52.5 -64.5t19.5 -81.5q0 -70 -55 -124q87 -54 87 -161q0 -90 -73 -148q-62 -47 -167 -47h-186zM187 392h49q60 0 85 20q29 24 29 65q0 44 -28 65q-26 19 -86 19h-49v-169zM187 108h64q67 0 96 23q32 24 32 68q0 51 -40 74
q-29 17 -97 17h-55v-182z" />
    <glyph glyph-name="C" unicode="C" horiz-adv-x="674" 
d="M648 558l-84 -81q-35 37 -58 55q-52 38 -122 38q-99 0 -165.5 -68t-66.5 -169q0 -99 67 -167.5t164 -68.5q71 0 129 43q15 11 55 51l84 -80q-67 -69 -128 -97.5t-139 -28.5q-146 0 -249 101.5t-103 246.5t103 247t250 102q75 0 137.5 -29.5t125.5 -94.5z" />
    <glyph glyph-name="D" unicode="D" horiz-adv-x="619" 
d="M70 667h153q166 0 265 -90.5t99 -242.5q0 -153 -98.5 -243.5t-265.5 -90.5h-153v667zM188 557v-447h38q113 0 177.5 60t64.5 164q0 103 -65 163t-177 60h-38z" />
    <glyph glyph-name="E" unicode="E" horiz-adv-x="483" 
d="M442 558h-254v-165h226v-110h-226v-173h263v-110h-381v667h372v-109z" />
    <glyph glyph-name="F" unicode="F" horiz-adv-x="446" 
d="M420 558h-232v-165h212v-110h-212v-283h-118v667h350v-109z" />
    <glyph glyph-name="G" unicode="G" horiz-adv-x="726" 
d="M383 366h310v-57q0 -146 -84.5 -235t-222.5 -89q-148 0 -251 101t-103 246q0 146 102.5 248t249.5 102q109 0 194 -62q23 -16 70 -61l-84 -81q-42 43 -58 54q-55 38 -123 38q-98 0 -164.5 -68.5t-66.5 -169.5q0 -99 67 -167t165 -68q111 0 163 88q15 27 23 71h-187v110z
" />
    <glyph glyph-name="H" unicode="H" horiz-adv-x="651" 
d="M188 393h275v274h118v-667h-118v283h-275v-283h-118v667h118v-274z" />
    <glyph glyph-name="I" unicode="I" horiz-adv-x="258" 
d="M188 667v-667h-118v667h118z" />
    <glyph glyph-name="J" unicode="J" horiz-adv-x="423" 
d="M352 667v-460q0 -63 -10.5 -100t-38.5 -67q-49 -55 -133 -55q-47 0 -88.5 20.5t-88.5 67.5l74 86q58 -62 103 -62q34 0 49 26t15 84v460h118z" />
    <glyph glyph-name="K" unicode="K" horiz-adv-x="592" 
d="M334 384l258 -384h-140l-198 298l-66 -71v-227h-118v667h118v-280l259 280h148z" />
    <glyph glyph-name="L" unicode="L" horiz-adv-x="435" 
d="M188 667v-557h245v-110h-363v667h118z" />
    <glyph glyph-name="M" unicode="M" horiz-adv-x="802" 
d="M70 0v667h111l220 -391l220 391h111v-667h-118v437l-167 -298h-92l-167 298v-437h-118z" />
    <glyph glyph-name="N" unicode="N" horiz-adv-x="707" 
d="M70 0v667h102l347 -464v464h118v-667h-102l-347 464v-464h-118z" />
    <glyph glyph-name="O" unicode="O" horiz-adv-x="762" 
d="M381 682q143 0 246 -102.5t103 -246.5t-103 -246t-249 -102q-143 0 -244.5 104t-101.5 250q0 139 104 241t245 102zM379 570q-95 0 -161 -70t-66 -171q0 -94 68 -163t161 -69q95 0 162 69.5t67 166.5q0 99 -67 168t-164 69z" />
    <glyph glyph-name="P" unicode="P" horiz-adv-x="474" 
d="M188 252v-252h-118v667h153q117 0 175 -52q66 -60 66 -155q0 -96 -66 -156q-58 -52 -175 -52h-35zM188 359h43q64 0 89 25q28 26 28 76q0 47 -27 74q-26 25 -90 25h-43v-200z" />
    <glyph glyph-name="Q" unicode="Q" horiz-adv-x="759" 
d="M631 92l61 -59l-82 -81l-72 71q-81 -38 -158 -38q-142 0 -245 102.5t-103 245.5t103 246t246 103t246 -102.5t103 -245.5q0 -141 -99 -242zM488 233l61 -59q61 69 61 159q0 99 -67 168t-162 69t-162 -69t-67 -168q0 -97 67 -166.5t162 -69.5q34 0 70 12l-44 43z" />
    <glyph glyph-name="R" unicode="R" horiz-adv-x="554" 
d="M380 283l159 -283h-134l-141 253q-19 -1 -41 -1h-35v-252h-118v667h153q124 0 186 -52q71 -60 71 -158q0 -55 -26.5 -101.5t-73.5 -72.5zM188 359h43q133 0 133 100q0 48 -31 74q-29 26 -102 26h-43v-200z" />
    <glyph glyph-name="S" unicode="S" horiz-adv-x="520" 
d="M475 552l-97 -60q-30 47 -52 63.5t-56 16.5q-41 0 -67 -23.5t-26 -60.5q0 -47 78 -77l63 -24q84 -32 124 -78t40 -111q0 -90 -65.5 -151.5t-161.5 -61.5q-67 0 -121 33.5t-81 92.5q-9 20 -23 76l115 30q14 -53 21 -67q29 -54 92 -54q43 0 73.5 29.5t30.5 71.5
q0 29 -21.5 49t-74.5 41l-60 23q-147 57 -147 179q0 83 60.5 138t151.5 55q93 0 155 -63q20 -20 49 -67z" />
    <glyph glyph-name="T" unicode="T" horiz-adv-x="438" 
d="M278 558v-558h-118v558h-163v109h444v-109h-163z" />
    <glyph glyph-name="U" unicode="U" horiz-adv-x="639" 
d="M188 667v-410q0 -78 18 -105q15 -24 47 -39.5t66 -15.5q35 0 67 15.5t47 39.5q18 27 18 105v410h118v-429q0 -102 -46 -159q-34 -44 -88.5 -69t-114.5 -25q-61 0 -115.5 25t-88.5 69q-46 57 -46 159v429h118z" />
    <glyph glyph-name="V" unicode="V" horiz-adv-x="570" 
d="M354 0h-137l-220 667h124l165 -499l164 499h124z" />
    <glyph glyph-name="W" unicode="W" horiz-adv-x="876" 
d="M120 667l130 -460l139 460h99l140 -460l129 460h123l-198 -667h-109l-135 440l-134 -440h-109l-198 667h123z" />
    <glyph glyph-name="X" unicode="X" horiz-adv-x="567" 
d="M351 348l220 -348h-135l-152 244l-153 -244h-134l220 347l-201 320h134l135 -216l135 216h132z" />
    <glyph glyph-name="Y" unicode="Y" horiz-adv-x="540" 
d="M211 276l-221 391h132l148 -270l148 270h132l-221 -391v-276h-118v276z" />
    <glyph glyph-name="Z" unicode="Z" horiz-adv-x="511" 
d="M164 110h332v-110h-483v92l329 466h-301v109h448v-92z" />
    <glyph glyph-name="bracketleft" unicode="[" horiz-adv-x="311" 
d="M188 625v-698h88v-107h-203v912h203v-107h-88z" />
    <glyph glyph-name="backslash" unicode="\" horiz-adv-x="554" 
d="M134 683l375 -645l-90 -54l-374 646z" />
    <glyph glyph-name="bracketright" unicode="]" horiz-adv-x="311" 
d="M123 625h-88v107h203v-912h-203v107h88v698z" />
    <glyph glyph-name="asciicircum" unicode="^" horiz-adv-x="568" 
d="M153 339h-139l206 355h127l206 -355h-140l-130 220z" />
    <glyph glyph-name="underscore" unicode="_" horiz-adv-x="520" 
d="M-10 -47h540v-103h-540v103z" />
    <glyph glyph-name="grave" unicode="`" horiz-adv-x="476" 
d="M81 645l108 58l122 -168l-76 -44z" />
    <glyph glyph-name="a" unicode="a" horiz-adv-x="544" 
d="M491 0h-114v28q-57 -43 -119 -43q-97 0 -165 69t-68 168q0 98 68 167t165 69q62 0 119 -43v28h114v-443zM258 355q-52 0 -85 -37.5t-33 -95.5q0 -59 33.5 -96.5t86.5 -37.5t86 37.5t33 96.5q0 60 -33 96.5t-88 36.5z" />
    <glyph glyph-name="b" unicode="b" horiz-adv-x="544" 
d="M53 0v667h114v-252q55 43 119 43q97 0 165 -69t68 -167q0 -99 -68 -168t-165 -69q-61 0 -119 43v-28h-114zM282 355q-51 0 -83.5 -37.5t-32.5 -95.5q0 -59 33 -96.5t85 -37.5q53 0 86.5 37.5t33.5 96.5t-33.5 96t-88.5 37z" />
    <glyph glyph-name="c" unicode="c" horiz-adv-x="465" 
d="M451 366l-76 -74q-37 39 -58.5 51t-54.5 12q-55 0 -88.5 -36.5t-33.5 -96.5q0 -61 33.5 -97.5t89.5 -36.5q33 0 58 14.5t57 51.5l76 -73q-46 -52 -91 -74t-101 -22q-100 0 -168.5 68.5t-68.5 168.5t68.5 168t168.5 68q55 0 99 -21.5t90 -70.5z" />
    <glyph glyph-name="d" unicode="d" horiz-adv-x="544" 
d="M491 0h-114v28q-58 -43 -119 -43q-97 0 -165 69t-68 168q0 98 68 167t165 69q64 0 119 -43v252h114v-667zM258 355q-52 0 -85 -37.5t-33 -95.5q0 -59 33.5 -96.5t86.5 -37.5q52 0 85 37.5t33 96.5q0 60 -33 96.5t-87 36.5z" />
    <glyph glyph-name="e" unicode="e" horiz-adv-x="493" 
d="M468 179h-326q25 -91 111 -91q59 0 94 37q4 3 23 31l96 -40q-20 -35 -31.5 -49t-33.5 -32q-64 -50 -148 -50q-97 0 -162.5 68t-65.5 169q0 99 65 167.5t159 68.5q73 0 129.5 -43.5t78.5 -115.5q12 -42 12 -88q0 -15 -1 -32zM142 264h213q-30 93 -106 93q-83 0 -107 -93z
" />
    <glyph glyph-name="f" unicode="f" horiz-adv-x="263" 
d="M178 443h76v-103h-76v-340h-114v340h-42v103h42v81q0 73 32 112t93 39q28 0 63 -8v-103q-25 8 -40 8q-19 0 -26.5 -11t-7.5 -37v-81z" />
    <glyph glyph-name="g" unicode="g" horiz-adv-x="544" 
d="M377 -9v37q-34 -25 -60 -34t-61 -9q-96 0 -163.5 69.5t-67.5 167.5t67.5 167t163.5 69q35 0 61 -9t60 -34v28h114v-452q0 -107 -66 -173t-173 -66q-93 0 -161 54q-19 15 -58 60l74 74l18 -20q32 -38 59 -51.5t67 -13.5q60 0 93 35.5t33 100.5zM258 355q-52 0 -85 -37.5
t-33 -95.5q0 -59 33.5 -96.5t86.5 -37.5q52 0 85 37.5t33 96.5q0 60 -33 96.5t-87 36.5z" />
    <glyph glyph-name="h" unicode="h" horiz-adv-x="509" 
d="M167 667v-247q48 38 103 38q83 0 137 -59q49 -52 49 -160v-239h-114v231q0 68 -18.5 96t-62.5 28q-50 0 -73 -31q-21 -27 -21 -102v-222h-114v667h114z" />
    <glyph glyph-name="i" unicode="i" horiz-adv-x="221" 
d="M167 443v-443h-114v443h114zM112 664q28 0 49 -21t21 -49q0 -29 -21 -49.5t-50 -20.5q-30 0 -51 20.5t-21 50.5q0 29 21 49t52 20z" />
    <glyph glyph-name="j" unicode="j" horiz-adv-x="230" 
d="M176 443v-535q0 -73 -32 -112t-91 -39q-27 0 -65 11v108q35 -11 52 -11q13 0 17.5 9t4.5 34v535h114zM121 664q29 0 49.5 -21t20.5 -49q0 -29 -21 -49.5t-50 -20.5q-30 0 -51 20.5t-21 50.5q0 29 21 49t52 20z" />
    <glyph glyph-name="k" unicode="k" horiz-adv-x="482" 
d="M287 257l203 -257h-140l-141 181l-42 -42v-139h-114v667h114v-382l161 158h150z" />
    <glyph glyph-name="l" unicode="l" horiz-adv-x="222" 
d="M168 0h-114v667h114v-667z" />
    <glyph glyph-name="m" unicode="m" horiz-adv-x="766" 
d="M167 443v-23q25 22 46 30t51 8q68 0 121 -54q57 54 134 54q95 0 150 -66q44 -54 44 -154v-238h-114v230q0 68 -16.5 96.5t-56.5 28.5q-44 0 -66 -30q-19 -24 -19 -104v-221h-114v230q0 68 -17 96.5t-57 28.5q-45 0 -67 -30q-19 -26 -19 -104v-221h-114v443h114z" />
    <glyph glyph-name="n" unicode="n" horiz-adv-x="509" 
d="M167 443v-23q48 38 103 38q83 0 137 -59q49 -52 49 -161v-238h-114v231q0 75 -22 100q-21 24 -59 24q-50 0 -73 -31q-21 -27 -21 -102v-222h-114v443h114z" />
    <glyph glyph-name="o" unicode="o" horiz-adv-x="521" 
d="M264 458q97 0 164.5 -69t67.5 -167q0 -100 -68 -168.5t-167 -68.5q-100 0 -168 69t-68 170q0 99 69 166.5t170 67.5zM258 355q-52 0 -85 -37.5t-33 -95.5q0 -59 33.5 -96.5t87.5 -37.5q53 0 86.5 37.5t33.5 96.5q0 60 -34 96.5t-89 36.5z" />
    <glyph glyph-name="p" unicode="p" horiz-adv-x="544" 
d="M53 443h114v-28q57 43 119 43q97 0 165 -69t68 -168q0 -98 -68 -167t-165 -69q-62 0 -119 43v-262h-114v677zM284 355q-53 0 -85.5 -37t-32.5 -97t33 -96.5t87 -36.5q52 0 85 37.5t33 95.5q0 59 -33.5 96.5t-86.5 37.5z" />
    <glyph glyph-name="q" unicode="q" horiz-adv-x="544" 
d="M491 443v-677h-114v262q-57 -43 -119 -43q-97 0 -165 69t-68 167q0 99 68 168t165 69q62 0 119 -43v28h114zM260 355q-53 0 -86.5 -37.5t-33.5 -96.5q0 -60 33.5 -96.5t88.5 -36.5q51 0 83.5 37.5t32.5 95.5q0 59 -33 96.5t-85 37.5z" />
    <glyph glyph-name="r" unicode="r" horiz-adv-x="307" 
d="M167 443v-29q37 32 87 32q16 0 42 -3v-102q-36 2 -41 2q-50 0 -69 -28.5t-19 -101.5v-213h-114v443h114z" />
    <glyph glyph-name="s" unicode="s" horiz-adv-x="384" 
d="M356 353l-89 -44q-19 28 -33 38t-34 10q-21 0 -33.5 -10t-12.5 -26q0 -14 9.5 -21.5t47.5 -21.5l40 -16q57 -22 82.5 -51.5t25.5 -73.5q0 -65 -48 -108.5t-118 -43.5q-89 0 -138 68q-18 25 -35 70l93 37q21 -42 38 -57t43 -15q23 0 37 12.5t14 33.5q0 14 -10.5 22
t-45.5 22l-45 17q-99 37 -99 123q0 60 44.5 100t111.5 40q52 0 89 -25t66 -80z" />
    <glyph glyph-name="t" unicode="t" horiz-adv-x="266" 
d="M172 340v-197q0 -25 4.5 -34t17.5 -9q16 0 53 10v-107q-40 -11 -66 -11q-59 0 -91 39t-32 112v197h-46v103h46v95l114 45v-140h68v-103h-68z" />
    <glyph glyph-name="u" unicode="u" horiz-adv-x="509" 
d="M342 0v23q-48 -38 -103 -38q-83 0 -137 59q-49 52 -49 161v238h114v-231q0 -75 22 -100q21 -24 59 -24q50 0 73 31q21 25 21 103v221h114v-443h-114z" />
    <glyph glyph-name="v" unicode="v" horiz-adv-x="465" 
d="M115 443l118 -279l118 279h124l-192 -443h-100l-192 443h124z" />
    <glyph glyph-name="w" unicode="w" horiz-adv-x="662" 
d="M113 443l83 -255l91 255h90l90 -255l83 255h122l-161 -443h-90l-89 251l-90 -251h-90l-161 443h122z" />
    <glyph glyph-name="x" unicode="x" horiz-adv-x="478" 
d="M307 229l176 -229h-135l-109 143l-109 -143h-135l177 229l-165 214h136l97 -128l97 128h134z" />
    <glyph glyph-name="y" unicode="y" horiz-adv-x="473" 
d="M174 21l-183 422h124l120 -283l125 283h123l-301 -677h-121z" />
    <glyph glyph-name="z" unicode="z" horiz-adv-x="412" 
d="M171 103h235v-103h-387v85l227 256h-213v102h364v-85z" />
    <glyph glyph-name="braceleft" unicode="{" horiz-adv-x="315" 
d="M204 585v-201q0 -74 -38 -108q38 -35 38 -111v-198q0 -32 7 -38t46 -6q13 0 23 1v-104q-40 -1 -48 -1q-74 0 -108.5 37.5t-34.5 118.5v190q-1 38 -10 49.5t-44 18.5v91q34 7 43.5 18.5t10.5 45.5v189q0 81 34.5 118.5t108.5 37.5q12 0 48 -2v-103q-31 1 -32 1
q-31 0 -37.5 -6.5t-6.5 -37.5z" />
    <glyph glyph-name="bar" unicode="|" horiz-adv-x="522" 
d="M204 728h113v-904h-113v904z" />
    <glyph glyph-name="braceright" unicode="}" horiz-adv-x="315" 
d="M111 -33v198q0 76 38 111q-38 34 -38 108v201q0 31 -7 37.5t-38 6.5h-8l-23 -1v103q36 2 48 2q74 0 108.5 -37.5t34.5 -118.5v-189q1 -34 10.5 -45.5t43.5 -18.5v-91q-4 -1 -8.5 -2t-6.5 -1.5t-3 -0.5q-21 -6 -28.5 -19t-7.5 -45v-190q0 -81 -34.5 -118.5t-108.5 -37.5
q-8 0 -48 1v104q10 -1 23 -1q39 0 46 6t7 38z" />
    <glyph glyph-name="asciitilde" unicode="~" horiz-adv-x="697" 
d="M158 555l-75 49q24 46 29 55q51 86 133 86q41 0 120 -36q65 -29 89 -29q26 0 40.5 13t43.5 61l76 -45q-29 -58 -45 -76q-48 -63 -125 -63q-23 0 -50 9t-97 40q-38 16 -57 16q-30 0 -57 -37q-6 -8 -25 -43z" />
    <glyph glyph-name="uni00A0" unicode="&#xa0;" horiz-adv-x="230" 
 />
    <glyph glyph-name="exclamdown" unicode="&#xa1;" horiz-adv-x="303" 
d="M98 312h107l10 -496h-127zM152 495q29 0 50 -20.5t21 -50.5q0 -29 -21 -49t-52 -20q-28 0 -49 20.5t-21 49.5t21 49.5t51 20.5z" />
    <glyph glyph-name="cent" unicode="&#xa2;" horiz-adv-x="557" 
d="M234 0v104q-79 20 -127.5 83t-48.5 146t48 146t128 83v105h117v-104q74 -20 133 -86l-76 -73q-38 39 -58.5 50.5t-54.5 11.5q-55 0 -88.5 -36.5t-33.5 -96.5t34 -96.5t89 -36.5q33 0 58.5 14.5t56.5 51.5l76 -74q-61 -69 -136 -89v-103h-117z" />
    <glyph glyph-name="sterling" unicode="&#xa3;" horiz-adv-x="565" 
d="M434 282h-177q8 -47 8 -81q0 -49 -27 -92h287v-109h-460v100q49 38 64.5 60t15.5 53q0 21 -8 69h-72v107h49q-6 36 -6 70q0 81 32 130q26 43 75 68t106 25q127 0 193 -129l-94 -59q-25 43 -47.5 60.5t-54.5 17.5q-92 0 -92 -113q0 -25 8 -70h200v-107z" />
    <glyph glyph-name="currency" unicode="&#xa4;" horiz-adv-x="723" 
d="M146 616l85 -86q61 40 131 40t131 -40l85 86l64 -62l-87 -88q39 -63 39 -132q0 -70 -39 -133l87 -87l-63 -64l-86 87q-64 -40 -131 -40t-131 40l-86 -87l-63 64l86 87q-38 63 -38 133q0 69 39 132l-87 88zM360 473q-55 0 -90.5 -39t-35.5 -100q0 -62 35.5 -101t92.5 -39
t92.5 39t35.5 101t-36 100.5t-94 38.5z" />
    <glyph glyph-name="yen" unicode="&#xa5;" horiz-adv-x="640" 
d="M420 348l-18 -31h131v-97h-154v-220h-118v220h-154v97h131l-18 31h-113v97h58l-125 222h132l148 -270l148 270h132l-125 -222h58v-97h-113z" />
    <glyph glyph-name="brokenbar" unicode="&#xa6;" horiz-adv-x="522" 
d="M204 728h113v-340h-113v340zM204 164h113v-340h-113v340z" />
    <glyph glyph-name="section" unicode="&#xa7;" horiz-adv-x="568" 
d="M277 407l64 -24q86 -33 126 -79.5t40 -113.5t-48 -133q37 -47 37 -108q0 -88 -60.5 -142.5t-158.5 -54.5q-111 0 -182 81q-20 23 -52 80l98 61q28 -50 43 -67q37 -45 96 -45q43 0 69.5 24t26.5 63q0 28 -22.5 48.5t-76.5 41.5l-61 23q-149 58 -149 181q0 75 52 131
q-41 49 -41 112q0 84 61.5 140t153.5 56q94 0 155 -64q18 -18 49 -68l-98 -61q-26 40 -37 52q-28 31 -70 31t-69 -24.5t-27 -62.5q0 -48 81 -78zM287 281l-72 27q-29 -29 -29 -64q0 -50 79 -79l63 -24l33 -14q24 31 24 62t-21 50.5t-77 41.5z" />
    <glyph glyph-name="dieresis" unicode="&#xa8;" horiz-adv-x="476" 
d="M148 664q28 0 49 -21t21 -49q0 -29 -21 -49.5t-50 -20.5q-30 0 -51 20.5t-21 50.5q0 29 21 49t52 20zM332 664q28 0 49 -21t21 -49q0 -29 -21 -49.5t-50 -20.5q-30 0 -51 20.5t-21 50.5q0 29 21 49t52 20z" />
    <glyph glyph-name="copyright" unicode="&#xa9;" horiz-adv-x="837" 
d="M622 480l-67 -65q-19 20 -31 32q-37 32 -86 32q-61 0 -102 -42t-41 -104q0 -61 41.5 -103t101.5 -42q33 0 55 11.5t59 47.5l6 5l66 -64q-1 -1 -5 -4.5t-7 -7t-5 -5.5q-76 -73 -169 -73q-99 0 -168.5 68.5t-69.5 166.5t69.5 167t168.5 69q75 0 132 -42q17 -13 46 -41z
M425 712q152 0 262 -112t110 -266q0 -157 -110.5 -268t-267.5 -111q-158 0 -268.5 111t-110.5 270q0 157 112 266.5t273 109.5zM414 633q-121 0 -208 -88.5t-87 -210.5q0 -124 87.5 -212t211.5 -88q125 0 212.5 88t87.5 214q0 124 -88.5 210.5t-215.5 86.5z" />
    <glyph glyph-name="ordfeminine" unicode="&#xaa;" horiz-adv-x="349" 
d="M316 406h-81v13q-31 -23 -68 -23q-60 0 -102 41t-42 99q0 60 43 103t102 43q37 0 67 -23v13h81v-266zM170 610q-29 0 -47.5 -21t-18.5 -53q0 -31 18 -50t48 -19t48 20t18 52t-18 51.5t-48 19.5z" />
    <glyph glyph-name="guillemotleft" unicode="&#xab;" horiz-adv-x="484" 
d="M323 222l121 -150l-77 -61l-170 211l170 214l77 -60zM153 222l122 -150l-77 -61l-171 211l171 214l76 -60z" />
    <glyph glyph-name="logicalnot" unicode="&#xac;" horiz-adv-x="687" 
d="M630 61h-111v198h-462v104h573v-302z" />
    <glyph glyph-name="uni00AD" unicode="&#xad;" horiz-adv-x="275" 
d="M27 282h222v-104h-222v104z" />
    <glyph glyph-name="registered" unicode="&#xae;" horiz-adv-x="837" 
d="M510 297l106 -189h-104l-91 165q-10 -1 -24 -1h-21v-164h-93v450h114q84 0 127 -36q49 -41 49 -108q0 -76 -63 -117zM376 359h27q77 0 77 55q0 30 -18 43.5t-59 13.5h-27v-112zM425 712q152 0 262 -111.5t110 -266.5q0 -157 -110.5 -268t-267.5 -111q-158 0 -268.5 111
t-110.5 270q0 157 112 266.5t273 109.5zM414 633q-121 0 -208 -88.5t-87 -210.5q0 -124 87.5 -212t211.5 -88q125 0 212.5 88t87.5 214q0 124 -88.5 210.5t-215.5 86.5z" />
    <glyph glyph-name="macron" unicode="&#xaf;" horiz-adv-x="476" 
d="M82 642h312v-102h-312v102z" />
    <glyph glyph-name="degree" unicode="&#xb0;" horiz-adv-x="332" 
d="M201 743q58 0 99.5 -42t41.5 -100q0 -59 -41.5 -101t-100.5 -42t-101 41.5t-42 100.5q0 60 42 101.5t102 41.5zM199 658q-23 0 -40 -17t-17 -40q0 -24 17 -41t41 -17q23 0 40 17t17 41t-17 40.5t-41 16.5z" />
    <glyph glyph-name="plusminus" unicode="&#xb1;" horiz-adv-x="556" 
d="M226 431v200h105v-200h198v-102h-198v-200h-105v200h-199v102h199zM529 102v-102h-502v102h502z" />
    <glyph glyph-name="twosuperior" unicode="&#xb2;" 
d="M60 406v62l145 153q38 41 38 73q0 18 -13 28.5t-36 10.5q-28 0 -39.5 -11.5t-22.5 -50.5l-77 20q25 118 141 118q57 0 93 -32.5t36 -84.5q0 -58 -43 -104l-102 -107h154v-75h-274z" />
    <glyph glyph-name="threesuperior" unicode="&#xb3;" 
d="M150 649h37q53 0 53 42q0 20 -13.5 32t-36.5 12q-20 0 -31.5 -8.5t-30.5 -37.5l-70 37q24 37 38 50q37 34 94 34t94.5 -33t37.5 -84q0 -44 -33 -77q42 -36 42 -90q0 -56 -40.5 -92.5t-102.5 -36.5q-86 0 -122 65q-10 18 -19 57l81 20q10 -40 22 -53t39 -13
q26 0 42.5 14.5t16.5 38.5q0 49 -61 49h-37v74z" />
    <glyph glyph-name="acute" unicode="&#xb4;" horiz-adv-x="476" 
d="M395 645l-154 -154l-76 44l123 168z" />
    <glyph glyph-name="mu" unicode="&#xb5;" horiz-adv-x="509" 
d="M53 443h114v-233q0 -66 18.5 -94t62.5 -28q50 0 73 31q21 25 21 103v221h114v-443h-114v23q-45 -38 -90 -38q-44 0 -85 38v-257h-114v677z" />
    <glyph glyph-name="paragraph" unicode="&#xb6;" horiz-adv-x="645" 
d="M279 -234v434q-69 8 -106 30q-54 31 -85 85t-31 118q0 99 66.5 166.5t163.5 67.5h318v-98h-63v-803h-102v803h-59v-803h-102z" />
    <glyph glyph-name="periodcentered" unicode="&#xb7;" horiz-adv-x="251" 
d="M127 403q29 0 49.5 -20.5t20.5 -49.5t-21 -49.5t-50 -20.5q-30 0 -51 20.5t-21 50.5q0 29 21 49t52 20z" />
    <glyph glyph-name="cedilla" unicode="&#xb8;" horiz-adv-x="476" 
d="M349 -67l-127 -161l-82 42l104 164z" />
    <glyph glyph-name="onesuperior" unicode="&#xb9;" 
d="M250 406h-83v297l-47 -25l-40 65l105 58h65v-395z" />
    <glyph glyph-name="ordmasculine" unicode="&#xba;" horiz-adv-x="343" 
d="M173 682q61 0 103.5 -42t42.5 -101q0 -60 -43 -101.5t-105 -41.5q-63 0 -105.5 41.5t-42.5 102.5t43 101.5t107 40.5zM170 609q-29 0 -47.5 -19.5t-18.5 -50.5t18.5 -50.5t48.5 -19.5t48.5 19.5t18.5 50.5q0 32 -18.5 51t-49.5 19z" />
    <glyph glyph-name="guillemotright" unicode="&#xbb;" horiz-adv-x="484" 
d="M162 222l-121 154l77 60l171 -214l-171 -211l-77 61zM332 222l-121 154l76 60l171 -214l-171 -211l-76 61z" />
    <glyph glyph-name="onequarter" unicode="&#xbc;" horiz-adv-x="833" 
d="M682 368l-142 -214h68v86h83v-86h46v-74h-46v-80h-83v80h-168v65l173 264zM220 272h-83v297l-47 -25l-40 66l105 57h65v-395zM535 682l65 -37l-382 -660l-64 37z" />
    <glyph glyph-name="onehalf" unicode="&#xbd;" horiz-adv-x="833" 
d="M219 272h-83v297l-47 -25l-40 66l105 57h65v-395zM491 0v62l144 153q38 41 38 73q0 18 -13 28.5t-36 10.5q-28 0 -39 -11.5t-23 -50.5l-77 20q7 30 17 51q36 67 124 67q57 0 93 -32.5t36 -84.5q0 -57 -44 -104l-101 -107h154v-75h-273zM534 682l65 -37l-382 -660l-64 37z
" />
    <glyph glyph-name="threequarters" unicode="&#xbe;" horiz-adv-x="833" 
d="M145 515h37q53 0 53 42q0 19 -13.5 31t-36.5 12q-20 0 -32 -8.5t-30 -35.5l-70 36q23 36 38 50q37 34 94 34t94.5 -33t37.5 -84q0 -44 -33 -77q42 -36 42 -90q0 -56 -40.5 -92.5t-102.5 -36.5q-40 0 -72.5 17t-49.5 48q-10 18 -19 57l81 20q10 -40 22 -53t39 -13
q26 0 42.5 14.5t16.5 38.5q0 49 -61 49h-37v74zM720 368l-142 -214h68v86h83v-86h47v-74h-47v-80h-83v80h-168v65l173 264zM596 682l64 -37l-381 -660l-65 37z" />
    <glyph glyph-name="questiondown" unicode="&#xbf;" horiz-adv-x="435" 
d="M297 312v-66q0 -49 -12.5 -75.5t-50.5 -57.5l-41 -34q-53 -45 -53 -92q0 -34 23 -54.5t61 -20.5q39 0 63 17t55 67l87 -70q-65 -125 -199 -125q-94 0 -150.5 51.5t-56.5 137.5q0 46 19.5 83.5t65.5 80.5l47 43q10 9 17 16q8 8 8 41v58h117zM238 495q30 0 51 -20.5
t21 -50.5q0 -29 -21 -49t-52 -20q-29 0 -49.5 20.5t-20.5 49.5t21 49.5t50 20.5z" />
    <glyph glyph-name="Agrave" unicode="&#xc0;" horiz-adv-x="636" 
d="M160 845l108 58l122 -168l-76 -44zM455 164h-274l-60 -164h-124l249 667h145l249 -667h-125zM415 274l-97 268l-97 -268h194z" />
    <glyph glyph-name="Aacute" unicode="&#xc1;" horiz-adv-x="636" 
d="M474 845l-154 -154l-76 44l122 168zM455 164h-274l-60 -164h-124l249 667h145l249 -667h-125zM415 274l-97 268l-97 -268h194z" />
    <glyph glyph-name="Acircumflex" unicode="&#xc2;" horiz-adv-x="636" 
d="M318 780l-88 -88l-87 43l139 151h73l138 -151l-86 -43zM455 164h-274l-60 -164h-124l249 667h145l249 -667h-125zM415 274l-97 268l-97 -268h194z" />
    <glyph glyph-name="Atilde" unicode="&#xc3;" horiz-adv-x="636" 
d="M455 164h-274l-60 -164h-124l249 667h145l249 -667h-125zM415 274l-97 268l-97 -268h194zM380 865l95 -23q-3 -38 -10 -59q-23 -60 -89 -60q-30 0 -76 21q-27 12 -32 12q-4 0 -7 -4q-2 -12 -6 -35l-94 22q5 45 15 63q26 56 86 56q26 0 77 -22q23 -11 31 -11q5 0 6.5 5
t3.5 35z" />
    <glyph glyph-name="Adieresis" unicode="&#xc4;" horiz-adv-x="636" 
d="M455 164h-274l-60 -164h-124l249 667h145l249 -667h-125zM415 274l-97 268l-97 -268h194zM228 860q28 0 49 -21t21 -49q0 -29 -21 -49.5t-50 -20.5q-30 0 -51 20.5t-21 50.5q0 29 21 49t52 20zM412 860q28 0 49 -21t21 -49q0 -29 -21 -49.5t-50 -20.5q-30 0 -51 20.5
t-21 50.5q0 29 21 49t52 20z" />
    <glyph glyph-name="Aring" unicode="&#xc5;" horiz-adv-x="636" 
d="M318 898q45 0 77 -31.5t32 -75.5t-32 -75.5t-77 -31.5q-46 0 -77.5 31.5t-31.5 76.5q0 43 32.5 74.5t76.5 31.5zM318 843q-22 0 -37 -15.5t-15 -37.5q0 -21 15.5 -36t36.5 -15q22 0 37 15t15 37t-15 37t-37 15zM455 164h-274l-60 -164h-124l249 667h145l249 -667h-125z
M415 274l-97 268l-97 -268h194z" />
    <glyph glyph-name="AE" unicode="&#xc6;" horiz-adv-x="839" 
d="M426 164h-213l-84 -164h-132l349 667h452v-109h-254v-165h226v-110h-226v-173h263v-110h-381v164zM426 274v284h-10l-146 -284h156z" />
    <glyph glyph-name="Ccedilla" unicode="&#xc7;" horiz-adv-x="674" 
d="M449 -67l-126 -161l-82 42l104 164zM648 558l-84 -81q-35 37 -58 55q-52 38 -122 38q-99 0 -165.5 -68t-66.5 -169q0 -99 67 -167.5t164 -68.5q71 0 129 43q15 11 55 51l84 -80q-67 -69 -128 -97.5t-139 -28.5q-146 0 -249 101.5t-103 246.5t103 247t250 102
q75 0 137.5 -29.5t125.5 -94.5z" />
    <glyph glyph-name="Egrave" unicode="&#xc8;" horiz-adv-x="483" 
d="M111 845l108 58l122 -168l-76 -44zM442 558h-254v-165h226v-110h-226v-173h263v-110h-381v667h372v-109z" />
    <glyph glyph-name="Eacute" unicode="&#xc9;" horiz-adv-x="483" 
d="M412 845l-154 -154l-77 44l123 168zM442 558h-254v-165h226v-110h-226v-173h263v-110h-381v667h372v-109z" />
    <glyph glyph-name="Ecircumflex" unicode="&#xca;" horiz-adv-x="483" 
d="M261 780l-88 -88l-87 43l139 151h73l138 -151l-86 -43zM442 558h-254v-165h226v-110h-226v-173h263v-110h-381v667h372v-109z" />
    <glyph glyph-name="Edieresis" unicode="&#xcb;" horiz-adv-x="483" 
d="M442 558h-254v-165h226v-110h-226v-173h263v-110h-381v667h372v-109zM170 860q28 0 49 -21t21 -49q0 -29 -21 -49.5t-50 -20.5q-30 0 -51 20.5t-21 50.5q0 29 21 49t52 20zM354 860q28 0 49 -21t21 -49q0 -29 -21 -49.5t-50 -20.5q-30 0 -51 20.5t-21 50.5q0 29 21 49
t52 20z" />
    <glyph glyph-name="Igrave" unicode="&#xcc;" horiz-adv-x="258" 
d="M-31 845l108 58l122 -168l-76 -44zM188 667v-667h-118v667h118z" />
    <glyph glyph-name="Iacute" unicode="&#xcd;" horiz-adv-x="258" 
d="M288 845l-154 -154l-76 44l123 168zM188 667v-667h-118v667h118z" />
    <glyph glyph-name="Icircumflex" unicode="&#xce;" horiz-adv-x="258" 
d="M129 780l-89 -88l-86 43l138 151h74l138 -151l-87 -43zM188 667v-667h-118v667h118z" />
    <glyph glyph-name="Idieresis" unicode="&#xcf;" horiz-adv-x="258" 
d="M188 667v-667h-118v667h118zM56 860q28 0 49 -21t21 -49q0 -29 -21 -49.5t-50 -20.5q-30 0 -51 20.5t-21 50.5q0 29 21 49t52 20zM207 860q29 0 49.5 -21t20.5 -49q0 -29 -21 -49.5t-50 -20.5q-30 0 -51 20.5t-21 50.5q0 29 21 49t52 20z" />
    <glyph glyph-name="Eth" unicode="&#xd0;" horiz-adv-x="630" 
d="M81 412v255h153q166 0 265 -90.5t99 -242.5q0 -153 -98.5 -243.5t-265.5 -90.5h-153v307h-63v105h63zM199 412h143v-105h-143v-197h38q113 0 177.5 60t64.5 164q0 103 -65 163t-177 60h-38v-145z" />
    <glyph glyph-name="Ntilde" unicode="&#xd1;" horiz-adv-x="707" 
d="M70 0v667h102l347 -464v464h118v-667h-102l-347 464v-464h-118zM415 865l96 -23q-4 -42 -11 -59q-23 -60 -88 -60q-31 0 -76 21q-28 12 -33 12t-6 -4q-1 0 -7 -35l-93 22q4 42 14 63q26 56 86 56q26 0 78 -22q23 -11 30 -11q5 0 6.5 5t3.5 35z" />
    <glyph glyph-name="Ograve" unicode="&#xd2;" horiz-adv-x="762" 
d="M224 845l107 58l123 -168l-76 -44zM381 682q143 0 246 -102.5t103 -246.5t-103 -246t-249 -102q-143 0 -244.5 104t-101.5 250q0 139 104 241t245 102zM379 570q-95 0 -161 -70t-66 -171q0 -94 68 -163t161 -69q95 0 162 69.5t67 166.5q0 99 -67 168t-164 69z" />
    <glyph glyph-name="Oacute" unicode="&#xd3;" horiz-adv-x="762" 
d="M538 845l-154 -154l-76 44l122 168zM381 682q143 0 246 -102.5t103 -246.5t-103 -246t-249 -102q-143 0 -244.5 104t-101.5 250q0 139 104 241t245 102zM379 570q-95 0 -161 -70t-66 -171q0 -94 68 -163t161 -69q95 0 162 69.5t67 166.5q0 99 -67 168t-164 69z" />
    <glyph glyph-name="Ocircumflex" unicode="&#xd4;" horiz-adv-x="762" 
d="M381 780l-89 -88l-86 43l138 151h74l138 -151l-87 -43zM381 682q143 0 246 -102.5t103 -246.5t-103 -246t-249 -102q-143 0 -244.5 104t-101.5 250q0 139 104 241t245 102zM379 570q-95 0 -161 -70t-66 -171q0 -94 68 -163t161 -69q95 0 162 69.5t67 166.5q0 99 -67 168
t-164 69z" />
    <glyph glyph-name="Otilde" unicode="&#xd5;" horiz-adv-x="762" 
d="M381 682q143 0 246 -102.5t103 -246.5t-103 -246t-249 -102q-143 0 -244.5 104t-101.5 250q0 139 104 241t245 102zM379 570q-95 0 -161 -70t-66 -171q0 -94 68 -163t161 -69q95 0 162 69.5t67 166.5q0 99 -67 168t-164 69zM442 865l96 -23q-3 -38 -10 -59
q-11 -28 -34.5 -44t-54.5 -16q-30 0 -76 21q-28 12 -32 12q-6 0 -7 -4q-3 -12 -7 -35l-93 22q5 45 14 63q28 56 86 56q26 0 78 -22q23 -11 31 -11q5 0 6 5t3 35z" />
    <glyph glyph-name="Odieresis" unicode="&#xd6;" horiz-adv-x="762" 
d="M381 682q143 0 246 -102.5t103 -246.5t-103 -246t-249 -102q-143 0 -244.5 104t-101.5 250q0 139 104 241t245 102zM379 570q-95 0 -161 -70t-66 -171q0 -94 68 -163t161 -69q95 0 162 69.5t67 166.5q0 99 -67 168t-164 69zM291 860q29 0 49.5 -21t20.5 -49
q0 -29 -21 -49.5t-50 -20.5q-30 0 -51 20.5t-21 50.5q0 29 21 49t52 20zM475 860q29 0 49.5 -21t20.5 -49q0 -29 -21 -49.5t-50 -20.5q-30 0 -51 20.5t-21 50.5q0 29 21 49t52 20z" />
    <glyph glyph-name="multiply" unicode="&#xd7;" horiz-adv-x="556" 
d="M205 312l-141 141l73 73l141 -141l141 141l73 -73l-141 -141l141 -141l-73 -73l-141 141l-141 -141l-73 73z" />
    <glyph glyph-name="Oslash" unicode="&#xd8;" horiz-adv-x="769" 
d="M598 608l63 62l64 -63l-63 -63q72 -98 72 -211q0 -143 -103 -245.5t-245 -102.5q-118 0 -214 74l-63 -62l-65 63l64 63q-72 96 -72 211q0 142 103 245t245 103q118 0 214 -74zM192 206l324 321q-59 43 -132 43q-95 0 -161.5 -69.5t-66.5 -167.5q0 -67 36 -127zM578 461
l-324 -320q61 -44 132 -44q94 0 161 69.5t67 166.5q0 68 -36 128z" />
    <glyph glyph-name="Ugrave" unicode="&#xd9;" horiz-adv-x="639" 
d="M169 845l108 58l123 -168l-77 -44zM188 667v-410q0 -78 18 -105q15 -24 47 -39.5t66 -15.5q35 0 67 15.5t47 39.5q18 27 18 105v410h118v-429q0 -102 -46 -159q-34 -44 -88.5 -69t-114.5 -25q-61 0 -115.5 25t-88.5 69q-46 57 -46 159v429h118z" />
    <glyph glyph-name="Uacute" unicode="&#xda;" horiz-adv-x="639" 
d="M470 845l-154 -154l-76 44l122 168zM188 667v-410q0 -78 18 -105q15 -24 47 -39.5t66 -15.5q35 0 67 15.5t47 39.5q18 27 18 105v410h118v-429q0 -102 -46 -159q-34 -44 -88.5 -69t-114.5 -25q-61 0 -115.5 25t-88.5 69q-46 57 -46 159v429h118z" />
    <glyph glyph-name="Ucircumflex" unicode="&#xdb;" horiz-adv-x="639" 
d="M320 780l-89 -88l-86 43l138 151h74l138 -151l-87 -43zM188 667v-410q0 -78 18 -105q15 -24 47 -39.5t66 -15.5q35 0 67 15.5t47 39.5q18 27 18 105v410h118v-429q0 -102 -46 -159q-34 -44 -88.5 -69t-114.5 -25q-61 0 -115.5 25t-88.5 69q-46 57 -46 159v429h118z" />
    <glyph glyph-name="Udieresis" unicode="&#xdc;" horiz-adv-x="639" 
d="M188 667v-410q0 -78 18 -105q15 -24 47 -39.5t66 -15.5q35 0 67 15.5t47 39.5q18 27 18 105v410h118v-429q0 -102 -46 -159q-34 -44 -88.5 -69t-114.5 -25q-61 0 -115.5 25t-88.5 69q-46 57 -46 159v429h118zM229 860q29 0 49.5 -21t20.5 -49q0 -29 -21 -49.5t-50 -20.5
q-30 0 -51 20.5t-21 50.5q0 29 21 49t52 20zM413 860q29 0 49.5 -21t20.5 -49q0 -29 -21 -49.5t-50 -20.5q-30 0 -51 20.5t-21 50.5q0 29 21 49t52 20z" />
    <glyph glyph-name="Yacute" unicode="&#xdd;" horiz-adv-x="540" 
d="M420 845l-154 -154l-76 44l122 168zM211 276l-221 391h132l148 -270l148 270h132l-221 -391v-276h-118v276z" />
    <glyph glyph-name="Thorn" unicode="&#xde;" horiz-adv-x="474" 
d="M188 576h35q117 0 175 -52q66 -60 66 -155q0 -96 -66 -156q-58 -52 -175 -52h-35v-161h-118v667h118v-91zM188 468v-200h43q64 0 89 25q28 26 28 76q0 47 -27 74q-26 25 -90 25h-43z" />
    <glyph glyph-name="germandbls" unicode="&#xdf;" horiz-adv-x="525" 
d="M53 0v490q0 83 54 137.5t137 54.5q87 0 142 -53t55 -137q0 -68 -45 -120q94 -59 94 -169q0 -90 -63.5 -146.5t-165.5 -56.5h-61v107h64q50 0 80.5 27.5t30.5 72.5q0 28 -13.5 51.5t-36.5 33.5q-25 11 -63 11h-20v104h20q67 0 67 81q0 43 -21.5 67.5t-58.5 24.5
q-38 0 -60 -24t-22 -66v-490h-114z" />
    <glyph glyph-name="agrave" unicode="&#xe0;" horiz-adv-x="544" 
d="M101 645l107 58l123 -168l-76 -44zM491 0h-114v28q-57 -43 -119 -43q-97 0 -165 69t-68 168q0 98 68 167t165 69q62 0 119 -43v28h114v-443zM258 355q-52 0 -85 -37.5t-33 -95.5q0 -59 33.5 -96.5t86.5 -37.5t86 37.5t33 96.5q0 60 -33 96.5t-88 36.5z" />
    <glyph glyph-name="aacute" unicode="&#xe1;" horiz-adv-x="544" 
d="M421 645l-153 -154l-77 44l123 168zM491 0h-114v28q-57 -43 -119 -43q-97 0 -165 69t-68 168q0 98 68 167t165 69q62 0 119 -43v28h114v-443zM258 355q-52 0 -85 -37.5t-33 -95.5q0 -59 33.5 -96.5t86.5 -37.5t86 37.5t33 96.5q0 60 -33 96.5t-88 36.5z" />
    <glyph glyph-name="acircumflex" unicode="&#xe2;" horiz-adv-x="544" 
d="M258 580l-89 -88l-86 43l138 151h74l138 -151l-87 -43zM491 0h-114v28q-57 -43 -119 -43q-97 0 -165 69t-68 168q0 98 68 167t165 69q62 0 119 -43v28h114v-443zM258 355q-52 0 -85 -37.5t-33 -95.5q0 -59 33.5 -96.5t86.5 -37.5t86 37.5t33 96.5q0 60 -33 96.5t-88 36.5
z" />
    <glyph glyph-name="atilde" unicode="&#xe3;" horiz-adv-x="544" 
d="M491 0h-114v28q-57 -43 -119 -43q-97 0 -165 69t-68 168q0 98 68 167t165 69q62 0 119 -43v28h114v-443zM258 355q-52 0 -85 -37.5t-33 -95.5q0 -59 33.5 -96.5t86.5 -37.5t86 37.5t33 96.5q0 60 -33 96.5t-88 36.5zM319 665l96 -22q-3 -40 -11 -59q-11 -29 -34 -45
t-54 -16q-30 0 -76 21q-27 13 -32 13q-6 0 -7 -4q-1 0 -7 -36l-93 22q4 43 14 64q26 56 86 56q26 0 78 -23q23 -11 30 -11q5 0 6.5 5t3.5 35z" />
    <glyph glyph-name="adieresis" unicode="&#xe4;" horiz-adv-x="544" 
d="M491 0h-114v28q-57 -43 -119 -43q-97 0 -165 69t-68 168q0 98 68 167t165 69q62 0 119 -43v28h114v-443zM258 355q-52 0 -85 -37.5t-33 -95.5q0 -59 33.5 -96.5t86.5 -37.5t86 37.5t33 96.5q0 60 -33 96.5t-88 36.5zM176 664q28 0 49 -21t21 -49q0 -29 -21 -49.5
t-50 -20.5q-30 0 -51 20.5t-21 50.5q0 29 21 49t52 20zM360 664q28 0 49 -21t21 -49q0 -29 -21 -49.5t-50 -20.5q-30 0 -51 20.5t-21 50.5q0 29 21 49t52 20z" />
    <glyph glyph-name="aring" unicode="&#xe5;" horiz-adv-x="544" 
d="M270 698q45 0 77 -31.5t32 -75.5t-32 -75.5t-77 -31.5q-46 0 -77.5 31.5t-31.5 76.5q0 43 32.5 74.5t76.5 31.5zM270 643q-22 0 -37 -15.5t-15 -37.5q0 -21 15.5 -36t36.5 -15q22 0 37 15t15 37t-15 37t-37 15zM491 0h-114v28q-57 -43 -119 -43q-97 0 -165 69t-68 168
q0 98 68 167t165 69q62 0 119 -43v28h114v-443zM258 355q-52 0 -85 -37.5t-33 -95.5q0 -59 33.5 -96.5t86.5 -37.5t86 37.5t33 96.5q0 60 -33 96.5t-88 36.5z" />
    <glyph glyph-name="ae" unicode="&#xe6;" horiz-adv-x="815" 
d="M692 156l97 -40q-21 -35 -32.5 -49t-33.5 -32q-64 -50 -147 -50q-92 0 -158 63q-55 -63 -179 -63q-97 0 -155.5 43t-58.5 114q0 70 53.5 109.5t147.5 39.5h113q-21 67 -105 67q-68 0 -136 -51l-59 73q57 45 100.5 61.5t105.5 16.5q115 0 170 -66q64 66 156 66
q73 0 129.5 -43.5t78.5 -115.5q12 -42 12 -88q0 -8 -1 -32h-325q23 -91 110 -91q59 0 94 37q7 6 23 31zM464 264h213q-30 93 -106 93q-40 0 -68 -24.5t-39 -68.5zM342 206h-102q-101 0 -101 -63q0 -58 101 -58q102 0 102 65v56z" />
    <glyph glyph-name="ccedilla" unicode="&#xe7;" horiz-adv-x="465" 
d="M328 -67l-126 -161l-82 42l104 164zM451 366l-76 -74q-37 39 -58.5 51t-54.5 12q-55 0 -88.5 -36.5t-33.5 -96.5q0 -61 33.5 -97.5t89.5 -36.5q33 0 58 14.5t57 51.5l76 -73q-46 -52 -91 -74t-101 -22q-100 0 -168.5 68.5t-68.5 168.5t68.5 168t168.5 68q55 0 99 -21.5
t90 -70.5z" />
    <glyph glyph-name="egrave" unicode="&#xe8;" horiz-adv-x="493" 
d="M95 645l107 58l123 -168l-76 -44zM468 179h-326q25 -91 111 -91q59 0 94 37q4 3 23 31l96 -40q-20 -35 -31.5 -49t-33.5 -32q-64 -50 -148 -50q-97 0 -162.5 68t-65.5 169q0 99 65 167.5t159 68.5q73 0 129.5 -43.5t78.5 -115.5q12 -42 12 -88q0 -15 -1 -32zM142 264h213
q-30 93 -106 93q-83 0 -107 -93z" />
    <glyph glyph-name="eacute" unicode="&#xe9;" horiz-adv-x="493" 
d="M399 645l-154 -154l-76 44l122 168zM468 179h-326q25 -91 111 -91q59 0 94 37q4 3 23 31l96 -40q-20 -35 -31.5 -49t-33.5 -32q-64 -50 -148 -50q-97 0 -162.5 68t-65.5 169q0 99 65 167.5t159 68.5q73 0 129.5 -43.5t78.5 -115.5q12 -42 12 -88q0 -15 -1 -32zM142 264
h213q-30 93 -106 93q-83 0 -107 -93z" />
    <glyph glyph-name="ecircumflex" unicode="&#xea;" horiz-adv-x="493" 
d="M246 580l-88 -88l-86 43l138 151h73l138 -151l-86 -43zM468 179h-326q25 -91 111 -91q59 0 94 37q4 3 23 31l96 -40q-20 -35 -31.5 -49t-33.5 -32q-64 -50 -148 -50q-97 0 -162.5 68t-65.5 169q0 99 65 167.5t159 68.5q73 0 129.5 -43.5t78.5 -115.5q12 -42 12 -88
q0 -15 -1 -32zM142 264h213q-30 93 -106 93q-83 0 -107 -93z" />
    <glyph glyph-name="edieresis" unicode="&#xeb;" horiz-adv-x="493" 
d="M468 179h-326q25 -91 111 -91q59 0 94 37q4 3 23 31l96 -40q-20 -35 -31.5 -49t-33.5 -32q-64 -50 -148 -50q-97 0 -162.5 68t-65.5 169q0 99 65 167.5t159 68.5q73 0 129.5 -43.5t78.5 -115.5q12 -42 12 -88q0 -15 -1 -32zM142 264h213q-30 93 -106 93q-83 0 -107 -93z
M157 664q29 0 49.5 -21t20.5 -49q0 -29 -21 -49.5t-50 -20.5q-30 0 -51 20.5t-21 50.5q0 29 21 49t52 20zM341 664q29 0 49.5 -21t20.5 -49q0 -29 -21 -49.5t-50 -20.5q-30 0 -51 20.5t-21 50.5q0 29 21 49t52 20z" />
    <glyph glyph-name="igrave" unicode="&#xec;" horiz-adv-x="221" 
d="M-53 645l108 58l122 -168l-76 -44zM167 443v-443h-114v443h114z" />
    <glyph glyph-name="iacute" unicode="&#xed;" horiz-adv-x="221" 
d="M273 645l-154 -154l-76 44l123 168zM167 443v-443h-114v443h114z" />
    <glyph glyph-name="icircumflex" unicode="&#xee;" horiz-adv-x="221" 
d="M111 580l-89 -88l-86 43l138 151h74l138 -151l-87 -43zM168 443v-443h-114v443h114z" />
    <glyph glyph-name="idieresis" unicode="&#xef;" horiz-adv-x="221" 
d="M168 443v-443h-114v443h114zM37 664q29 0 49.5 -21t20.5 -49q0 -29 -21 -49.5t-50 -20.5q-30 0 -51 20.5t-21 50.5q0 29 21 49t52 20zM188 664q28 0 49 -21t21 -49q0 -29 -21 -49.5t-50 -20.5q-30 0 -51 20.5t-21 50.5q0 29 21 49t52 20z" />
    <glyph glyph-name="eth" unicode="&#xf0;" horiz-adv-x="521" 
d="M496 229v-7q-1 -101 -68.5 -169t-167.5 -68q-99 0 -167 68.5t-68 168.5t68 168t168 68q49 0 93 -19q-1 3 -5 9q-31 56 -48 79t-45 48l-105 -53l-72 65l89 46q-48 22 -111 41l49 73q92 -24 161 -64l109 54l68 -65l-99 -51q76 -81 111.5 -170.5t39.5 -211.5v-10zM258 355
q-52 0 -85 -37.5t-33 -95.5q0 -59 33.5 -96.5t87.5 -37.5q53 0 86.5 37.5t33.5 96.5q0 60 -34 96.5t-89 36.5z" />
    <glyph glyph-name="ntilde" unicode="&#xf1;" horiz-adv-x="509" 
d="M167 443v-23q48 38 103 38q83 0 137 -59q49 -52 49 -161v-238h-114v231q0 75 -22 100q-21 24 -59 24q-50 0 -73 -31q-21 -27 -21 -102v-222h-114v443h114zM316 665l96 -22q-5 -43 -11 -59q-11 -29 -34 -45t-54 -16q-30 0 -76 21q-27 13 -33 13q-5 0 -6 -4q-1 0 -7 -36
l-93 22q4 43 14 64q26 56 86 56q26 0 78 -23q23 -11 30 -11q5 0 6.5 5t3.5 35z" />
    <glyph glyph-name="ograve" unicode="&#xf2;" horiz-adv-x="521" 
d="M104 645l107 58l123 -168l-77 -44zM264 458q97 0 164.5 -69t67.5 -167q0 -100 -68 -168.5t-167 -68.5q-100 0 -168 69t-68 170q0 99 69 166.5t170 67.5zM258 355q-52 0 -85 -37.5t-33 -95.5q0 -59 33.5 -96.5t87.5 -37.5q53 0 86.5 37.5t33.5 96.5q0 60 -34 96.5
t-89 36.5z" />
    <glyph glyph-name="oacute" unicode="&#xf3;" horiz-adv-x="521" 
d="M418 645l-154 -154l-77 44l123 168zM264 458q97 0 164.5 -69t67.5 -167q0 -100 -68 -168.5t-167 -68.5q-100 0 -168 69t-68 170q0 99 69 166.5t170 67.5zM258 355q-52 0 -85 -37.5t-33 -95.5q0 -59 33.5 -96.5t87.5 -37.5q53 0 86.5 37.5t33.5 96.5q0 60 -34 96.5
t-89 36.5z" />
    <glyph glyph-name="ocircumflex" unicode="&#xf4;" horiz-adv-x="521" 
d="M261 580l-89 -88l-86 43l138 151h74l138 -151l-87 -43zM264 458q97 0 164.5 -69t67.5 -167q0 -100 -68 -168.5t-167 -68.5q-100 0 -168 69t-68 170q0 99 69 166.5t170 67.5zM258 355q-52 0 -85 -37.5t-33 -95.5q0 -59 33.5 -96.5t87.5 -37.5q53 0 86.5 37.5t33.5 96.5
q0 60 -34 96.5t-89 36.5z" />
    <glyph glyph-name="otilde" unicode="&#xf5;" horiz-adv-x="521" 
d="M322 665l95 -22q-3 -43 -10 -59q-11 -29 -34.5 -45t-54.5 -16q-29 0 -75 21q-27 13 -33 13q-4 0 -7 -4l-6 -36l-94 22q5 43 15 64q26 56 86 56q25 0 77 -23q25 -11 31 -11q5 0 6.5 5t3.5 35zM264 458q97 0 164.5 -69t67.5 -167q0 -100 -68 -168.5t-167 -68.5
q-100 0 -168 69t-68 170q0 99 69 166.5t170 67.5zM258 355q-52 0 -85 -37.5t-33 -95.5q0 -59 33.5 -96.5t87.5 -37.5q53 0 86.5 37.5t33.5 96.5q0 60 -34 96.5t-89 36.5z" />
    <glyph glyph-name="odieresis" unicode="&#xf6;" horiz-adv-x="521" 
d="M264 458q97 0 164.5 -69t67.5 -167q0 -100 -68 -168.5t-167 -68.5q-100 0 -168 69t-68 170q0 99 69 166.5t170 67.5zM258 355q-52 0 -85 -37.5t-33 -95.5q0 -59 33.5 -96.5t87.5 -37.5q53 0 86.5 37.5t33.5 96.5q0 60 -34 96.5t-89 36.5zM353 664q29 0 49.5 -21t20.5 -49
q0 -29 -21 -49.5t-50 -20.5q-30 0 -51 20.5t-21 50.5q0 29 21 49t52 20zM169 664q29 0 49.5 -21t20.5 -49q0 -29 -21 -49.5t-50 -20.5q-30 0 -51 20.5t-21 50.5q0 29 21 49t52 20z" />
    <glyph glyph-name="divide" unicode="&#xf7;" horiz-adv-x="556" 
d="M280 560q29 0 50.5 -22t21.5 -51q0 -31 -21.5 -52.5t-52.5 -21.5q-30 0 -51.5 21.5t-21.5 52.5q0 30 22 51.5t53 21.5zM280 211q29 0 50.5 -22t21.5 -51q0 -31 -21.5 -52.5t-52.5 -21.5q-30 0 -51.5 21.5t-21.5 52.5q0 30 22 51.5t53 21.5zM513 363v-103h-469v103h469z
" />
    <glyph glyph-name="oslash" unicode="&#xf8;" horiz-adv-x="534" 
d="M409 411l36 35l57 -55l-39 -37q39 -56 39 -133q0 -99 -68 -167.5t-167 -68.5q-77 0 -143 47l-36 -35l-57 55l39 37q-39 61 -39 133q0 99 68 167.5t167 68.5q81 0 143 -47zM154 169l177 168q-30 18 -64 18q-54 0 -87.5 -36.5t-33.5 -95.5q0 -25 8 -54zM379 274l-176 -168
q30 -18 64 -18q53 0 86.5 37t33.5 96q0 29 -8 53z" />
    <glyph glyph-name="ugrave" unicode="&#xf9;" horiz-adv-x="509" 
d="M99 645l108 58l123 -168l-77 -44zM342 0v23q-48 -38 -103 -38q-83 0 -137 59q-49 52 -49 161v238h114v-231q0 -75 22 -100q21 -24 59 -24q50 0 73 31q21 25 21 103v221h114v-443h-114z" />
    <glyph glyph-name="uacute" unicode="&#xfa;" horiz-adv-x="509" 
d="M407 645l-154 -154l-76 44l122 168zM342 0v23q-48 -38 -103 -38q-83 0 -137 59q-49 52 -49 161v238h114v-231q0 -75 22 -100q21 -24 59 -24q50 0 73 31q21 25 21 103v221h114v-443h-114z" />
    <glyph glyph-name="ucircumflex" unicode="&#xfb;" horiz-adv-x="509" 
d="M255 580l-89 -88l-86 43l138 151h74l138 -151l-87 -43zM342 0v23q-48 -38 -103 -38q-83 0 -137 59q-49 52 -49 161v238h114v-231q0 -75 22 -100q21 -24 59 -24q50 0 73 31q21 25 21 103v221h114v-443h-114z" />
    <glyph glyph-name="udieresis" unicode="&#xfc;" horiz-adv-x="509" 
d="M342 0v23q-48 -38 -103 -38q-83 0 -137 59q-49 52 -49 161v238h114v-231q0 -75 22 -100q21 -24 59 -24q50 0 73 31q21 25 21 103v221h114v-443h-114zM164 664q28 0 49 -21t21 -49q0 -29 -21 -49.5t-50 -20.5q-30 0 -51 20.5t-21 50.5q0 29 21 49t52 20zM348 664
q28 0 49 -21t21 -49q0 -29 -21 -49.5t-50 -20.5q-30 0 -51 20.5t-21 50.5q0 29 21 49t52 20z" />
    <glyph glyph-name="yacute" unicode="&#xfd;" horiz-adv-x="473" 
d="M392 645l-154 -154l-77 44l123 168zM174 21l-183 422h124l120 -283l125 283h123l-301 -677h-121z" />
    <glyph glyph-name="thorn" unicode="&#xfe;" horiz-adv-x="545" 
d="M54 667h114v-252q55 43 119 43q97 0 165 -69t68 -168q0 -98 -68 -167t-165 -69q-61 0 -119 43v-262h-114v901zM285 355q-53 0 -85.5 -37t-32.5 -97t33 -96.5t87 -36.5q52 0 85 37.5t33 95.5q0 59 -33.5 96.5t-86.5 37.5z" />
    <glyph glyph-name="ydieresis" unicode="&#xff;" horiz-adv-x="473" 
d="M174 21l-183 422h124l120 -283l125 283h123l-301 -677h-121zM147 664q29 0 49.5 -21t20.5 -49q0 -29 -21 -49.5t-50 -20.5q-30 0 -51 20.5t-21 50.5q0 29 21 49t52 20zM331 664q29 0 49.5 -21t20.5 -49q0 -29 -21 -49.5t-50 -20.5q-30 0 -51 20.5t-21 50.5q0 29 21 49
t52 20z" />
    <glyph glyph-name="Amacron" unicode="&#x100;" horiz-adv-x="636" 
d="M162 842h312v-102h-312v102zM455 164h-274l-60 -164h-124l249 667h145l249 -667h-125zM415 274l-97 268l-97 -268h194z" />
    <glyph glyph-name="amacron" unicode="&#x101;" horiz-adv-x="544" 
d="M114 642h312v-102h-312v102zM491 0h-114v28q-57 -43 -119 -43q-97 0 -165 69t-68 168q0 98 68 167t165 69q62 0 119 -43v28h114v-443zM258 355q-52 0 -85 -37.5t-33 -95.5q0 -59 33.5 -96.5t86.5 -37.5t86 37.5t33 96.5q0 60 -33 96.5t-88 36.5z" />
    <glyph glyph-name="Abreve" unicode="&#x102;" horiz-adv-x="636" 
d="M455 164h-274l-60 -164h-124l249 667h145l249 -667h-125zM415 274l-97 268l-97 -268h194zM166 864l99 9q1 -10 1 -21q3 -59 50 -59q29 0 45 28q5 9 11 51l99 -8q-5 -44 -8.5 -57t-13.5 -31q-45 -80 -133 -80q-47 0 -85 25t-55 68q-9 23 -10 75z" />
    <glyph glyph-name="abreve" unicode="&#x103;" horiz-adv-x="544" 
d="M108 665l99 8l1 -21q3 -59 50 -59q29 0 44 28q6 9 11 52l99 -8q-5 -44 -8 -57.5t-13 -31.5q-45 -80 -133 -80q-47 0 -85 25t-55 68q-9 23 -10 76zM491 0h-114v28q-57 -43 -119 -43q-97 0 -165 69t-68 168q0 98 68 167t165 69q62 0 119 -43v28h114v-443zM258 355
q-52 0 -85 -37.5t-33 -95.5q0 -59 33.5 -96.5t86.5 -37.5t86 37.5t33 96.5q0 60 -33 96.5t-88 36.5z" />
    <glyph glyph-name="Aogonek" unicode="&#x104;" horiz-adv-x="636" 
d="M640 0l-2 -3q-34 -44 -34 -61q0 -9 12 -9q18 0 50 12l34 -86q-59 -21 -89 -21q-48 0 -79.5 27.5t-31.5 68.5q0 32 26 72h-11l-60 164h-274l-60 -164h-124l249 667h145zM415 274l-97 268l-97 -268h194z" />
    <glyph glyph-name="aogonek" unicode="&#x105;" horiz-adv-x="544" 
d="M491 443v-443l-6 -8q-30 -37 -30 -56q0 -9 13 -9q17 0 49 12l34 -86q-12 -4 -18 -7q-42 -14 -70 -14q-48 0 -79.5 27.5t-31.5 68.5q0 33 25 72v28q-57 -43 -119 -43q-97 0 -165 69t-68 168q0 98 68 167t165 69q62 0 119 -43v28h114zM258 355q-52 0 -85 -37.5t-33 -95.5
q0 -59 33.5 -96.5t86.5 -37.5t86 37.5t33 96.5q0 60 -33 96.5t-88 36.5z" />
    <glyph glyph-name="Cacute" unicode="&#x106;" horiz-adv-x="674" 
d="M549 845l-154 -154l-76 44l122 168zM648 558l-84 -81q-35 37 -58 55q-52 38 -122 38q-99 0 -165.5 -68t-66.5 -169q0 -99 67 -167.5t164 -68.5q71 0 129 43q15 11 55 51l84 -80q-67 -69 -128 -97.5t-139 -28.5q-146 0 -249 101.5t-103 246.5t103 247t250 102
q75 0 137.5 -29.5t125.5 -94.5z" />
    <glyph glyph-name="cacute" unicode="&#x107;" horiz-adv-x="465" 
d="M408 645l-154 -154l-76 44l122 168zM451 366l-76 -74q-37 39 -58.5 51t-54.5 12q-55 0 -88.5 -36.5t-33.5 -96.5q0 -61 33.5 -97.5t89.5 -36.5q33 0 58 14.5t57 51.5l76 -73q-46 -52 -91 -74t-101 -22q-100 0 -168.5 68.5t-68.5 168.5t68.5 168t168.5 68q55 0 99 -21.5
t90 -70.5z" />
    <glyph glyph-name="Ccircumflex" unicode="&#x108;" horiz-adv-x="674" 
d="M375 780l-88 -88l-87 43l138 151h74l138 -151l-86 -43zM648 558l-84 -81q-35 37 -58 55q-52 38 -122 38q-99 0 -165.5 -68t-66.5 -169q0 -99 67 -167.5t164 -68.5q71 0 129 43q15 11 55 51l84 -80q-67 -69 -128 -97.5t-139 -28.5q-146 0 -249 101.5t-103 246.5t103 247
t250 102q75 0 137.5 -29.5t125.5 -94.5z" />
    <glyph glyph-name="ccircumflex" unicode="&#x109;" horiz-adv-x="465" 
d="M253 580l-89 -88l-86 43l138 151h74l138 -151l-87 -43zM451 366l-76 -74q-37 39 -58.5 51t-54.5 12q-55 0 -88.5 -36.5t-33.5 -96.5q0 -61 33.5 -97.5t89.5 -36.5q33 0 58 14.5t57 51.5l76 -73q-46 -52 -91 -74t-101 -22q-100 0 -168.5 68.5t-68.5 168.5t68.5 168
t168.5 68q55 0 99 -21.5t90 -70.5z" />
    <glyph glyph-name="Cdotaccent" unicode="&#x10a;" horiz-adv-x="674" 
d="M648 558l-84 -81q-35 37 -58 55q-52 38 -122 38q-99 0 -165.5 -68t-66.5 -169q0 -99 67 -167.5t164 -68.5q71 0 129 43q15 11 55 51l84 -80q-67 -69 -128 -97.5t-139 -28.5q-146 0 -249 101.5t-103 246.5t103 247t250 102q75 0 137.5 -29.5t125.5 -94.5zM385 860
q29 0 49.5 -21t20.5 -49q0 -29 -21 -49.5t-50 -20.5q-30 0 -51 20.5t-21 50.5q0 29 21 49t52 20z" />
    <glyph glyph-name="cdotaccent" unicode="&#x10b;" horiz-adv-x="465" 
d="M451 366l-76 -74q-37 39 -58.5 51t-54.5 12q-55 0 -88.5 -36.5t-33.5 -96.5q0 -61 33.5 -97.5t89.5 -36.5q33 0 58 14.5t57 51.5l76 -73q-46 -52 -91 -74t-101 -22q-100 0 -168.5 68.5t-68.5 168.5t68.5 168t168.5 68q55 0 99 -21.5t90 -70.5zM258 664q28 0 49 -21
t21 -49q0 -29 -21 -49.5t-50 -20.5q-30 0 -51 20.5t-21 50.5q0 29 21 49t52 20z" />
    <glyph glyph-name="Ccaron" unicode="&#x10c;" horiz-adv-x="674" 
d="M375 807l89 88l86 -43l-138 -151h-74l-138 151l87 43zM648 558l-84 -81q-35 37 -58 55q-52 38 -122 38q-99 0 -165.5 -68t-66.5 -169q0 -99 67 -167.5t164 -68.5q71 0 129 43q15 11 55 51l84 -80q-67 -69 -128 -97.5t-139 -28.5q-146 0 -249 101.5t-103 246.5t103 247
t250 102q75 0 137.5 -29.5t125.5 -94.5z" />
    <glyph glyph-name="ccaron" unicode="&#x10d;" horiz-adv-x="465" 
d="M253 607l88 88l87 -43l-138 -151h-74l-138 151l86 43zM451 366l-76 -74q-37 39 -58.5 51t-54.5 12q-55 0 -88.5 -36.5t-33.5 -96.5q0 -61 33.5 -97.5t89.5 -36.5q33 0 58 14.5t57 51.5l76 -73q-46 -52 -91 -74t-101 -22q-100 0 -168.5 68.5t-68.5 168.5t68.5 168
t168.5 68q55 0 99 -21.5t90 -70.5z" />
    <glyph glyph-name="Dcaron" unicode="&#x10e;" horiz-adv-x="619" 
d="M291 807l89 88l86 -43l-138 -151h-73l-139 151l87 43zM70 667h153q166 0 265 -90.5t99 -242.5q0 -153 -98.5 -243.5t-265.5 -90.5h-153v667zM188 557v-447h38q113 0 177.5 60t64.5 164q0 103 -65 163t-177 60h-38z" />
    <glyph glyph-name="dcaron" unicode="&#x10f;" horiz-adv-x="675" 
d="M582 702l108 -32l-81 -189l-85 27zM491 0h-114v28q-58 -43 -119 -43q-97 0 -165 69t-68 168q0 98 68 167t165 69q64 0 119 -43v252h114v-667zM258 355q-52 0 -85 -37.5t-33 -95.5q0 -59 33.5 -96.5t86.5 -37.5q52 0 85 37.5t33 96.5q0 60 -33 96.5t-87 36.5z" />
    <glyph glyph-name="Dcroat" unicode="&#x110;" horiz-adv-x="630" 
d="M81 412v255h153q166 0 265 -90.5t99 -242.5q0 -153 -98.5 -243.5t-265.5 -90.5h-153v307h-63v105h63zM199 412h143v-105h-143v-197h38q113 0 177.5 60t64.5 164q0 103 -65 163t-177 60h-38v-145z" />
    <glyph glyph-name="dcroat" unicode="&#x111;" horiz-adv-x="544" 
d="M491 502v-502h-114v28q-58 -43 -119 -43q-97 0 -165 69t-68 168q0 98 68 167t165 69q63 0 119 -43v87h-112v102h112v63h114v-63h57v-102h-57zM258 355q-52 0 -85 -37.5t-33 -95.5q0 -59 33.5 -96.5t86.5 -37.5q52 0 85 37.5t33 96.5q0 60 -33 96.5t-87 36.5z" />
    <glyph glyph-name="Emacron" unicode="&#x112;" horiz-adv-x="483" 
d="M105 842h312v-102h-312v102zM442 558h-254v-165h226v-110h-226v-173h263v-110h-381v667h372v-109z" />
    <glyph glyph-name="emacron" unicode="&#x113;" horiz-adv-x="493" 
d="M90 642h312v-102h-312v102zM468 179h-326q25 -91 111 -91q59 0 94 37q4 3 23 31l96 -40q-20 -35 -31.5 -49t-33.5 -32q-64 -50 -148 -50q-97 0 -162.5 68t-65.5 169q0 99 65 167.5t159 68.5q73 0 129.5 -43.5t78.5 -115.5q12 -42 12 -88q0 -15 -1 -32zM142 264h213
q-30 93 -106 93q-83 0 -107 -93z" />
    <glyph glyph-name="Ebreve" unicode="&#x114;" horiz-adv-x="483" 
d="M442 558h-254v-165h226v-110h-226v-173h263v-110h-381v667h372v-109zM108 864l99 9q0 -4 0.5 -9t1 -8t0.5 -4q2 -59 49 -59q30 0 45 28q5 9 11 51l99 -8q-5 -44 -8.5 -57t-13.5 -31q-43 -80 -132 -80q-47 0 -85 25t-55 68q-10 23 -11 75z" />
    <glyph glyph-name="ebreve" unicode="&#x115;" horiz-adv-x="493" 
d="M468 179h-326q25 -91 111 -91q59 0 94 37q4 3 23 31l96 -40q-20 -35 -31.5 -49t-33.5 -32q-64 -50 -148 -50q-97 0 -162.5 68t-65.5 169q0 99 65 167.5t159 68.5q73 0 129.5 -43.5t78.5 -115.5q12 -42 12 -88q0 -15 -1 -32zM142 264h213q-30 93 -106 93q-83 0 -107 -93z
M95 665l99 8l1 -21q2 -59 49 -59q30 0 45 28q5 9 11 52l99 -8q-4 -43 -7.5 -56.5t-14.5 -32.5q-43 -80 -132 -80q-47 0 -85 25t-55 68q-9 23 -10 76z" />
    <glyph glyph-name="Edotaccent" unicode="&#x116;" horiz-adv-x="483" 
d="M442 558h-254v-165h226v-110h-226v-173h263v-110h-381v667h372v-109zM262 860q28 0 49 -21t21 -49q0 -29 -21 -49.5t-50 -20.5q-30 0 -51 20.5t-21 50.5q0 29 21 49t52 20z" />
    <glyph glyph-name="edotaccent" unicode="&#x117;" horiz-adv-x="493" 
d="M468 179h-326q25 -91 111 -91q59 0 94 37q4 3 23 31l96 -40q-20 -35 -31.5 -49t-33.5 -32q-64 -50 -148 -50q-97 0 -162.5 68t-65.5 169q0 99 65 167.5t159 68.5q73 0 129.5 -43.5t78.5 -115.5q12 -42 12 -88q0 -15 -1 -32zM142 264h213q-30 93 -106 93q-83 0 -107 -93z
M248 664q28 0 49 -21t21 -49q0 -29 -21 -49.5t-50 -20.5q-30 0 -51 20.5t-21 50.5q0 29 21 49t52 20z" />
    <glyph glyph-name="Eogonek" unicode="&#x118;" horiz-adv-x="483" 
d="M451 0l-2 -3q-33 -45 -33 -61q0 -9 12 -9q17 0 49 12l34 -86q-59 -21 -88 -21q-48 0 -79.5 27.5t-31.5 68.5q0 31 25 72h-267v667h372v-109h-254v-165h226v-110h-226v-173h263v-110z" />
    <glyph glyph-name="eogonek" unicode="&#x119;" horiz-adv-x="493" 
d="M370 156l96 -40q-57 -106 -168 -127q-28 -36 -28 -54q0 -9 13 -9q18 0 49 13l34 -86q-56 -22 -89 -22q-48 0 -79.5 27.5t-31.5 68.5q0 30 22 67q-73 21 -118 84t-45 144q0 99 65 167.5t159 68.5q73 0 129.5 -43.5t78.5 -115.5q12 -42 12 -88q0 -15 -1 -32h-326
q25 -91 111 -91q59 0 94 37q10 10 23 31zM142 264h213q-30 93 -106 93q-83 0 -107 -93z" />
    <glyph glyph-name="Ecaron" unicode="&#x11a;" horiz-adv-x="483" 
d="M261 807l89 88l86 -43l-138 -151h-73l-139 151l87 43zM442 558h-254v-165h226v-110h-226v-173h263v-110h-381v667h372v-109z" />
    <glyph glyph-name="ecaron" unicode="&#x11b;" horiz-adv-x="493" 
d="M246 607l89 88l86 -43l-138 -151h-73l-138 151l86 43zM468 179h-326q25 -91 111 -91q59 0 94 37q4 3 23 31l96 -40q-20 -35 -31.5 -49t-33.5 -32q-64 -50 -148 -50q-97 0 -162.5 68t-65.5 169q0 99 65 167.5t159 68.5q73 0 129.5 -43.5t78.5 -115.5q12 -42 12 -88
q0 -15 -1 -32zM142 264h213q-30 93 -106 93q-83 0 -107 -93z" />
    <glyph glyph-name="Gcircumflex" unicode="&#x11c;" horiz-adv-x="726" 
d="M369 780l-89 -88l-86 43l138 151h74l138 -151l-87 -43zM383 366h310v-57q0 -146 -84.5 -235t-222.5 -89q-148 0 -251 101t-103 246q0 146 102.5 248t249.5 102q109 0 194 -62q23 -16 70 -61l-84 -81q-42 43 -58 54q-55 38 -123 38q-98 0 -164.5 -68.5t-66.5 -169.5
q0 -99 67 -167t165 -68q111 0 163 88q15 27 23 71h-187v110z" />
    <glyph glyph-name="gcircumflex" unicode="&#x11d;" horiz-adv-x="544" 
d="M258 580l-89 -88l-86 43l138 151h74l138 -151l-86 -43zM377 -9v37q-34 -25 -60 -34t-61 -9q-96 0 -163.5 69.5t-67.5 167.5t67.5 167t163.5 69q35 0 61 -9t60 -34v28h114v-452q0 -107 -66 -173t-173 -66q-93 0 -161 54q-19 15 -58 60l74 74l18 -20q32 -38 59 -51.5
t67 -13.5q60 0 93 35.5t33 100.5zM258 355q-52 0 -85 -37.5t-33 -95.5q0 -59 33.5 -96.5t86.5 -37.5q52 0 85 37.5t33 96.5q0 60 -33 96.5t-87 36.5z" />
    <glyph glyph-name="Gbreve" unicode="&#x11e;" horiz-adv-x="726" 
d="M383 366h310v-57q0 -146 -84.5 -235t-222.5 -89q-148 0 -251 101t-103 246q0 146 102.5 248t249.5 102q109 0 194 -62q23 -16 70 -61l-84 -81q-42 43 -58 54q-55 38 -123 38q-98 0 -164.5 -68.5t-66.5 -169.5q0 -99 67 -167t165 -68q111 0 163 88q15 27 23 71h-187v110z
M235 864l99 9q0 -4 0.5 -9t1 -8t0.5 -4q2 -59 49 -59q30 0 45 28q5 9 11 51l99 -8q-5 -44 -8.5 -57t-13.5 -31q-43 -80 -132 -80q-47 0 -85 25t-55 68q-10 23 -11 75z" />
    <glyph glyph-name="gbreve" unicode="&#x11f;" horiz-adv-x="544" 
d="M377 -9v37q-34 -25 -60 -34t-61 -9q-96 0 -163.5 69.5t-67.5 167.5t67.5 167t163.5 69q35 0 61 -9t60 -34v28h114v-452q0 -107 -66 -173t-173 -66q-93 0 -161 54q-19 15 -58 60l74 74l18 -20q32 -38 59 -51.5t67 -13.5q60 0 93 35.5t33 100.5zM258 355q-52 0 -85 -37.5
t-33 -95.5q0 -59 33.5 -96.5t86.5 -37.5q52 0 85 37.5t33 96.5q0 60 -33 96.5t-87 36.5zM108 665l99 8q1 -9 1 -21q3 -59 50 -59q30 0 45 28q5 9 11 52l99 -8q-5 -44 -8.5 -57.5t-13.5 -31.5q-45 -80 -132 -80q-48 0 -86 25t-55 68q-9 23 -10 76z" />
    <glyph glyph-name="Gdotaccent" unicode="&#x120;" horiz-adv-x="726" 
d="M383 366h310v-57q0 -146 -84.5 -235t-222.5 -89q-148 0 -251 101t-103 246q0 146 102.5 248t249.5 102q109 0 194 -62q23 -16 70 -61l-84 -81q-42 43 -58 54q-55 38 -123 38q-98 0 -164.5 -68.5t-66.5 -169.5q0 -99 67 -167t165 -68q111 0 163 88q15 27 23 71h-187v110z
M387 860q29 0 49.5 -21t20.5 -49q0 -29 -21 -49.5t-50 -20.5q-30 0 -51 20.5t-21 50.5q0 29 21 49t52 20z" />
    <glyph glyph-name="gdotaccent" unicode="&#x121;" horiz-adv-x="544" 
d="M377 -9v37q-34 -25 -60 -34t-61 -9q-96 0 -163.5 69.5t-67.5 167.5t67.5 167t163.5 69q35 0 61 -9t60 -34v28h114v-452q0 -107 -66 -173t-173 -66q-93 0 -161 54q-19 15 -58 60l74 74l18 -20q32 -38 59 -51.5t67 -13.5q60 0 93 35.5t33 100.5zM258 355q-52 0 -85 -37.5
t-33 -95.5q0 -59 33.5 -96.5t86.5 -37.5q52 0 85 37.5t33 96.5q0 60 -33 96.5t-87 36.5zM260 664q28 0 49 -21t21 -49q0 -29 -21 -49.5t-50 -20.5q-30 0 -51 20.5t-21 50.5q0 29 21 49t52 20z" />
    <glyph glyph-name="Gcommaaccent" unicode="&#x122;" horiz-adv-x="726" 
d="M338 -23l108 -32l-81 -189l-84 27zM383 366h310v-57q0 -146 -84.5 -235t-222.5 -89q-148 0 -251 101t-103 246q0 146 102.5 248t249.5 102q109 0 194 -62q23 -16 70 -61l-84 -81q-42 43 -58 54q-55 38 -123 38q-98 0 -164.5 -68.5t-66.5 -169.5q0 -99 67 -167t165 -68
q111 0 163 88q15 27 23 71h-187v110z" />
    <glyph glyph-name="gcommaaccent" unicode="&#x123;" horiz-adv-x="544" 
d="M309 481l-109 33l81 188l85 -27zM377 -9v37q-34 -25 -60 -34t-61 -9q-96 0 -163.5 69.5t-67.5 167.5t67.5 167t163.5 69q35 0 61 -9t60 -34v28h114v-452q0 -107 -66 -173t-173 -66q-93 0 -161 54q-19 15 -58 60l74 74l18 -20q32 -38 59 -51.5t67 -13.5q60 0 93 35.5
t33 100.5zM258 355q-52 0 -85 -37.5t-33 -95.5q0 -59 33.5 -96.5t86.5 -37.5q52 0 85 37.5t33 96.5q0 60 -33 96.5t-87 36.5z" />
    <glyph glyph-name="Hcircumflex" unicode="&#x124;" horiz-adv-x="651" 
d="M325 780l-88 -88l-87 43l139 151h73l138 -151l-86 -43zM188 393h275v274h118v-667h-118v283h-275v-283h-118v667h118v-274z" />
    <glyph glyph-name="hcircumflex" unicode="&#x125;" horiz-adv-x="509" 
d="M258 780l-89 -88l-86 43l138 151h74l138 -151l-87 -43zM167 667v-247q48 38 103 38q83 0 137 -59q49 -52 49 -160v-239h-114v231q0 68 -18.5 96t-62.5 28q-50 0 -73 -31q-21 -27 -21 -102v-222h-114v667h114z" />
    <glyph glyph-name="Hbar" unicode="&#x126;" horiz-adv-x="647" 
d="M579 501v-501h-118v283h-274v-283h-118v501h-57v103h57v63h118v-63h274v63h118v-63h57v-103h-57zM461 501h-274v-108h274v108z" />
    <glyph glyph-name="hbar" unicode="&#x127;" horiz-adv-x="507" 
d="M50 502h-57v102h57v63h114v-63h115v-102h-115v-82q48 38 103 38q84 0 138 -59q49 -52 49 -160v-239h-114v231q0 75 -22 100q-21 24 -60 24q-50 0 -73 -31q-21 -25 -21 -102v-222h-114v502z" />
    <glyph glyph-name="Itilde" unicode="&#x128;" horiz-adv-x="258" 
d="M188 667v-667h-118v667h118zM191 865l95 -23q-3 -38 -10 -59q-11 -28 -34.5 -44t-54.5 -16q-30 0 -76 21q-28 12 -32 12q-6 0 -7 -4q-2 -12 -7 -35l-93 22q5 45 14 63q28 56 87 56q25 0 77 -22q23 -11 31 -11q5 0 6 5t4 35z" />
    <glyph glyph-name="itilde" unicode="&#x129;" horiz-adv-x="221" 
d="M167 443v-443h-114v443h114zM172 665l95 -22q-3 -40 -10 -59q-24 -61 -89 -61q-30 0 -76 21q-26 13 -32 13t-7 -4q-2 -12 -7 -36l-93 22q5 46 14 64q28 56 87 56q25 0 77 -23q23 -11 31 -11q4 0 5.5 5t4.5 35z" />
    <glyph glyph-name="Imacron" unicode="&#x12a;" horiz-adv-x="258" 
d="M-27 842h312v-102h-312v102zM188 667v-667h-118v667h118z" />
    <glyph glyph-name="imacron" unicode="&#x12b;" horiz-adv-x="221" 
d="M-46 642h312v-102h-312v102zM167 443v-443h-114v443h114z" />
    <glyph glyph-name="Ibreve" unicode="&#x12c;" horiz-adv-x="258" 
d="M188 667v-667h-118v667h118zM-23 864l99 9q1 -10 1 -21q3 -59 50 -59q29 0 44 28q6 9 12 51l99 -8q-5 -44 -8.5 -57t-13.5 -31q-45 -80 -133 -80q-47 0 -85 25t-55 68q-9 23 -10 75z" />
    <glyph glyph-name="ibreve" unicode="&#x12d;" horiz-adv-x="221" 
d="M167 443v-443h-114v443h114zM-42 665l99 8q1 -9 1 -21q3 -59 50 -59q29 0 44 28q6 9 12 52l99 -8q-5 -44 -8.5 -57.5t-13.5 -31.5q-45 -80 -133 -80q-47 0 -85 25t-55 68q-9 23 -10 76z" />
    <glyph glyph-name="Iogonek" unicode="&#x12e;" horiz-adv-x="258" 
d="M188 0l-2 -2l-4 -6q-30 -39 -30 -56q0 -9 13 -9q16 0 49 13l34 -87q-57 -21 -88 -21q-48 0 -79.5 27.5t-31.5 68.5q0 33 25 72h-4v667h118v-667z" />
    <glyph glyph-name="iogonek" unicode="&#x12f;" horiz-adv-x="221" 
d="M167 0l-2 -3q-34 -45 -34 -62q0 -9 13 -9q16 0 49 13l34 -86q-57 -22 -89 -22q-48 0 -79.5 27.5t-31.5 68.5q0 34 26 73v443h114v-443zM112 664q28 0 49 -21t21 -49q0 -29 -21 -49.5t-50 -20.5q-30 0 -51 20.5t-21 50.5q0 29 21 49t52 20z" />
    <glyph glyph-name="Idotaccent" unicode="&#x130;" horiz-adv-x="258" 
d="M188 667v-667h-118v667h118zM131 860q29 0 49.5 -21t20.5 -49q0 -29 -21 -49.5t-50 -20.5q-30 0 -51 20.5t-21 50.5q0 29 21 49t52 20z" />
    <glyph glyph-name="dotlessi" unicode="&#x131;" horiz-adv-x="221" 
d="M167 443v-443h-114v443h114z" />
    <glyph glyph-name="IJ" unicode="&#x132;" horiz-adv-x="678" 
d="M188 667v-667h-118v667h118zM608 667v-460q0 -63 -10.5 -100t-38.5 -67q-49 -55 -133 -55q-47 0 -88.5 20.5t-88.5 67.5l74 86q58 -62 103 -62q34 0 49 26t15 84v460h118z" />
    <glyph glyph-name="ij" unicode="&#x133;" horiz-adv-x="447" 
d="M167 443v-443h-114v443h114zM112 664q28 0 49 -21t21 -49q0 -29 -21 -49.5t-50 -20.5q-30 0 -51 20.5t-21 50.5q0 29 21 49t52 20zM394 443v-535q0 -73 -32 -112t-91 -39q-27 0 -65 11v108q35 -11 52 -11q13 0 17.5 9t4.5 34v535h114zM339 664q29 0 49.5 -21t20.5 -49
q0 -29 -21 -49.5t-50 -20.5q-30 0 -51 20.5t-21 50.5q0 29 21 49t52 20z" />
    <glyph glyph-name="Jcircumflex" unicode="&#x134;" horiz-adv-x="423" 
d="M257 780l-88 -88l-87 43l138 151h74l138 -151l-86 -43zM352 667v-460q0 -63 -10.5 -100t-38.5 -67q-49 -55 -133 -55q-47 0 -88.5 20.5t-88.5 67.5l74 86q58 -62 103 -62q34 0 49 26t15 84v460h118z" />
    <glyph glyph-name="jcircumflex" unicode="&#x135;" horiz-adv-x="230" 
d="M108 580l-89 -88l-86 43l138 151h74l138 -151l-87 -43zM176 443v-535q0 -73 -32 -112t-91 -39q-27 0 -65 11v108q35 -11 52 -11q13 0 17.5 9t4.5 34v535h114z" />
    <glyph glyph-name="Kcommaaccent" unicode="&#x136;" horiz-adv-x="592" 
d="M285 -23l108 -32l-81 -189l-85 27zM334 384l258 -384h-140l-198 298l-66 -71v-227h-118v667h118v-280l259 280h148z" />
    <glyph glyph-name="kcommaaccent" unicode="&#x137;" horiz-adv-x="482" 
d="M214 -23l109 -32l-81 -189l-85 27zM287 257l203 -257h-140l-141 181l-42 -42v-139h-114v667h114v-382l161 158h150z" />
    <glyph glyph-name="kgreenlandic" unicode="&#x138;" horiz-adv-x="482" 
d="M287 257l203 -257h-140l-141 181l-42 -42v-139h-114v443h114v-158l161 158h150z" />
    <glyph glyph-name="Lacute" unicode="&#x139;" horiz-adv-x="429" 
d="M291 845l-154 -154l-76 44l123 168zM188 667v-557h245v-110h-363v667h118z" />
    <glyph glyph-name="lacute" unicode="&#x13a;" horiz-adv-x="222" 
d="M274 857l-154 -154l-76 43l123 169zM168 0h-114v667h114v-667z" />
    <glyph glyph-name="Lcommaaccent" unicode="&#x13b;" horiz-adv-x="435" 
d="M236 -23l109 -32l-81 -189l-85 27zM188 667v-557h245v-110h-363v667h118z" />
    <glyph glyph-name="lcommaaccent" unicode="&#x13c;" horiz-adv-x="222" 
d="M70 -23l108 -32l-81 -189l-85 27zM168 0h-114v667h114v-667z" />
    <glyph glyph-name="Lcaron" unicode="&#x13d;" horiz-adv-x="435" 
d="M306 691l108 -33l-81 -188l-85 26zM188 667v-557h245v-110h-363v667h118z" />
    <glyph glyph-name="lcaron" unicode="&#x13e;" horiz-adv-x="352" 
d="M259 702l108 -32l-81 -189l-85 27zM168 0h-114v667h114v-667z" />
    <glyph glyph-name="Ldot" unicode="&#x13f;" horiz-adv-x="435" 
d="M188 667v-557h245v-110h-363v667h118zM339 403q29 0 49.5 -20.5t20.5 -49.5t-21 -49.5t-50 -20.5q-30 0 -51 20.5t-21 50.5q0 29 21 49t52 20z" />
    <glyph glyph-name="ldot" unicode="&#x140;" horiz-adv-x="364" 
d="M294 403q28 0 49 -20.5t21 -49.5t-21 -49.5t-50 -20.5q-30 0 -51 20.5t-21 50.5q0 29 21 49t52 20zM168 0h-114v667h114v-667z" />
    <glyph glyph-name="Lslash" unicode="&#x141;" horiz-adv-x="446" 
d="M199 442l108 70v-123l-108 -70v-209h245v-110h-363v242l-63 -41v124l63 41v301h118v-225z" />
    <glyph glyph-name="lslash" unicode="&#x142;" horiz-adv-x="265" 
d="M76 252l-61 -40v124l61 41v290h114v-214l60 41v-125l-60 -40v-329h-114v252z" />
    <glyph glyph-name="Nacute" unicode="&#x143;" horiz-adv-x="707" 
d="M521 845l-154 -154l-77 44l123 168zM70 0v667h102l347 -464v464h118v-667h-102l-347 464v-464h-118z" />
    <glyph glyph-name="nacute" unicode="&#x144;" horiz-adv-x="509" 
d="M423 645l-153 -154l-77 44l123 168zM167 443v-23q48 38 103 38q83 0 137 -59q49 -52 49 -161v-238h-114v231q0 75 -22 100q-21 24 -59 24q-50 0 -73 -31q-21 -27 -21 -102v-222h-114v443h114z" />
    <glyph glyph-name="Ncommaaccent" unicode="&#x145;" horiz-adv-x="707" 
d="M330 -23l108 -32l-81 -189l-85 27zM70 0v667h102l347 -464v464h118v-667h-102l-347 464v-464h-118z" />
    <glyph glyph-name="ncommaaccent" unicode="&#x146;" horiz-adv-x="509" 
d="M231 -23l108 -32l-81 -189l-85 27zM167 443v-23q48 38 103 38q83 0 137 -59q49 -52 49 -161v-238h-114v231q0 75 -22 100q-21 24 -59 24q-50 0 -73 -31q-21 -27 -21 -102v-222h-114v443h114z" />
    <glyph glyph-name="Ncaron" unicode="&#x147;" horiz-adv-x="707" 
d="M370 807l89 88l86 -43l-138 -151h-73l-139 151l87 43zM70 0v667h102l347 -464v464h118v-667h-102l-347 464v-464h-118z" />
    <glyph glyph-name="ncaron" unicode="&#x148;" horiz-adv-x="509" 
d="M260 607l88 88l86 -43l-137 -151h-74l-138 151l86 43zM167 443v-23q48 38 103 38q83 0 137 -59q49 -52 49 -161v-238h-114v231q0 75 -22 100q-21 24 -59 24q-50 0 -73 -31q-21 -27 -21 -102v-222h-114v443h114z" />
    <glyph glyph-name="napostrophe" unicode="&#x149;" horiz-adv-x="604" 
d="M86 681l103 -37l-117 -262l-82 33zM262 443v-23q48 38 103 38q83 0 137 -59q49 -52 49 -161v-238h-114v231q0 75 -22 100q-21 24 -59 24q-50 0 -73 -31q-21 -27 -21 -102v-222h-114v443h114z" />
    <glyph glyph-name="Eng" unicode="&#x14a;" horiz-adv-x="707" 
d="M637 667v-667q0 -74 -31.5 -113t-90.5 -39q-28 0 -66 11v108q35 -11 52 -11q13 0 17.5 9t4.5 34v17l-335 448v-464h-118v667h102l347 -464v464h118z" />
    <glyph glyph-name="eng" unicode="&#x14b;" horiz-adv-x="509" 
d="M167 443v-23q48 38 103 38q83 0 137 -59q49 -52 49 -161v-251q0 -63 -33.5 -101t-89.5 -38q-27 0 -65 11v108q36 -11 52 -11q13 0 17.5 9t4.5 33v233q0 75 -22 100q-21 24 -59 24q-50 0 -73 -31q-21 -27 -21 -102v-222h-114v443h114z" />
    <glyph glyph-name="Omacron" unicode="&#x14c;" horiz-adv-x="762" 
d="M225 842h312v-102h-312v102zM381 682q143 0 246 -102.5t103 -246.5t-103 -246t-249 -102q-143 0 -244.5 104t-101.5 250q0 139 104 241t245 102zM379 570q-95 0 -161 -70t-66 -171q0 -94 68 -163t161 -69q95 0 162 69.5t67 166.5q0 99 -67 168t-164 69z" />
    <glyph glyph-name="omacron" unicode="&#x14d;" horiz-adv-x="521" 
d="M105 642h312v-102h-312v102zM264 458q97 0 164.5 -69t67.5 -167q0 -100 -68 -168.5t-167 -68.5q-100 0 -168 69t-68 170q0 99 69 166.5t170 67.5zM258 355q-52 0 -85 -37.5t-33 -95.5q0 -59 33.5 -96.5t87.5 -37.5q53 0 86.5 37.5t33.5 96.5q0 60 -34 96.5t-89 36.5z" />
    <glyph glyph-name="Obreve" unicode="&#x14e;" horiz-adv-x="762" 
d="M381 682q143 0 246 -102.5t103 -246.5t-103 -246t-249 -102q-143 0 -244.5 104t-101.5 250q0 139 104 241t245 102zM379 570q-95 0 -161 -70t-66 -171q0 -94 68 -163t161 -69q95 0 162 69.5t67 166.5q0 99 -67 168t-164 69zM229 864l99 9l1 -21q2 -59 49 -59q30 0 45 28
q5 9 11 51l99 -8q-4 -42 -7.5 -55.5t-14.5 -32.5q-43 -80 -132 -80q-47 0 -85 25t-55 68q-9 21 -10 75z" />
    <glyph glyph-name="obreve" unicode="&#x14f;" horiz-adv-x="521" 
d="M264 458q97 0 164.5 -69t67.5 -167q0 -100 -68 -168.5t-167 -68.5q-100 0 -168 69t-68 170q0 99 69 166.5t170 67.5zM258 355q-52 0 -85 -37.5t-33 -95.5q0 -59 33.5 -96.5t87.5 -37.5q53 0 86.5 37.5t33.5 96.5q0 60 -34 96.5t-89 36.5zM108 665l99 8q0 -3 0.5 -8
t1 -8.5t0.5 -4.5q2 -59 49 -59q30 0 45 28q5 9 11 52l99 -8q-4 -43 -7.5 -56.5t-14.5 -32.5q-43 -80 -132 -80q-47 0 -85.5 25t-54.5 68q-10 23 -11 76z" />
    <glyph glyph-name="Ohungarumlaut" unicode="&#x150;" horiz-adv-x="762" 
d="M381 682q143 0 246 -102.5t103 -246.5t-103 -246t-249 -102q-143 0 -244.5 104t-101.5 250q0 139 104 241t245 102zM379 570q-95 0 -161 -70t-66 -171q0 -94 68 -163t161 -69q95 0 162 69.5t67 166.5q0 99 -67 168t-164 69zM307 690l-64 45l122 169l99 -56zM513 904
l96 -59l-154 -155l-67 42z" />
    <glyph glyph-name="ohungarumlaut" unicode="&#x151;" horiz-adv-x="523" 
d="M197 490l-64 45l122 169l99 -56zM403 704l96 -59l-154 -155l-66 42zM264 458q97 0 164.5 -69t67.5 -167q0 -100 -68 -168.5t-167 -68.5q-100 0 -168 69t-68 170q0 99 69 166.5t170 67.5zM258 355q-52 0 -85 -37.5t-33 -95.5q0 -59 33.5 -96.5t87.5 -37.5q53 0 86.5 37.5
t33.5 96.5q0 60 -34 96.5t-89 36.5z" />
    <glyph glyph-name="OE" unicode="&#x152;" horiz-adv-x="1023" 
d="M609 0v72q-99 -87 -229 -87q-142 0 -245 102.5t-103 245.5t102.5 246t245.5 103q129 0 229 -86v71h372v-109h-253v-165h225v-110h-225v-173h263v-110h-382zM379 571q-95 0 -161 -70t-66 -171q0 -94 68 -163.5t160 -69.5q94 0 161.5 69.5t67.5 167.5q0 99 -67 168t-163 69
z" />
    <glyph glyph-name="oe" unicode="&#x153;" horiz-adv-x="849" 
d="M726 156l97 -40q-22 -36 -33.5 -50.5t-32.5 -30.5q-64 -50 -147 -50q-105 0 -173 79q-70 -79 -177 -79q-99 0 -167 68.5t-68 168.5q0 99 68 167.5t167 68.5q108 0 178 -78q67 78 167 78q73 0 129.5 -43.5t78.5 -115.5q12 -42 12 -88v-32h-326q23 -91 111 -91q58 0 93 37
q10 10 23 31zM258 355q-52 0 -85 -37.5t-33 -95.5q0 -59 33.5 -96.5t87.5 -37.5q53 0 86.5 37.5t33.5 96.5q0 60 -34 96.5t-89 36.5zM498 264h213q-28 93 -106 93q-40 0 -68 -24.5t-39 -68.5z" />
    <glyph glyph-name="Racute" unicode="&#x154;" horiz-adv-x="554" 
d="M412 845l-154 -154l-76 44l122 168zM380 283l159 -283h-134l-141 253q-19 -1 -41 -1h-35v-252h-118v667h153q124 0 186 -52q71 -60 71 -158q0 -55 -26.5 -101.5t-73.5 -72.5zM188 359h43q133 0 133 100q0 48 -31 74q-29 26 -102 26h-43v-200z" />
    <glyph glyph-name="racute" unicode="&#x155;" horiz-adv-x="307" 
d="M305 645l-154 -154l-77 44l123 168zM167 443v-29q37 32 87 32q16 0 42 -3v-102q-36 2 -41 2q-50 0 -69 -28.5t-19 -101.5v-213h-114v443h114z" />
    <glyph glyph-name="Rcommaaccent" unicode="&#x156;" horiz-adv-x="554" 
d="M254 -23l109 -32l-82 -189l-84 27zM380 283l159 -283h-134l-141 253q-19 -1 -41 -1h-35v-252h-118v667h153q124 0 186 -52q71 -60 71 -158q0 -55 -26.5 -101.5t-73.5 -72.5zM188 359h43q133 0 133 100q0 48 -31 74q-29 26 -102 26h-43v-200z" />
    <glyph glyph-name="rcommaaccent" unicode="&#x157;" horiz-adv-x="307" 
d="M64 -23l108 -32l-81 -189l-85 27zM167 443v-29q37 32 87 32q16 0 42 -3v-102q-36 2 -41 2q-50 0 -69 -28.5t-19 -101.5v-213h-114v443h114z" />
    <glyph glyph-name="Rcaron" unicode="&#x158;" horiz-adv-x="554" 
d="M260 807l89 88l86 -43l-138 -151h-74l-138 151l86 43zM380 283l159 -283h-134l-141 253q-19 -1 -41 -1h-35v-252h-118v667h153q124 0 186 -52q71 -60 71 -158q0 -55 -26.5 -101.5t-73.5 -72.5zM188 359h43q133 0 133 100q0 48 -31 74q-29 26 -102 26h-43v-200z" />
    <glyph glyph-name="rcaron" unicode="&#x159;" horiz-adv-x="304" 
d="M174 607l88 88l87 -43l-138 -151h-74l-138 151l86 43zM167 443v-29q37 32 86 32q17 0 42 -3v-102q-34 2 -41 2q-49 0 -68 -28t-19 -102v-213h-114v443h114z" />
    <glyph glyph-name="Sacute" unicode="&#x15a;" horiz-adv-x="520" 
d="M428 845l-154 -154l-76 44l122 168zM475 552l-97 -60q-30 47 -52 63.5t-56 16.5q-41 0 -67 -23.5t-26 -60.5q0 -47 78 -77l63 -24q84 -32 124 -78t40 -111q0 -90 -65.5 -151.5t-161.5 -61.5q-67 0 -121 33.5t-81 92.5q-9 20 -23 76l115 30q14 -53 21 -67q29 -54 92 -54
q43 0 73.5 29.5t30.5 71.5q0 29 -21.5 49t-74.5 41l-60 23q-147 57 -147 179q0 83 60.5 138t151.5 55q93 0 155 -63q20 -20 49 -67z" />
    <glyph glyph-name="sacute" unicode="&#x15b;" horiz-adv-x="384" 
d="M350 645l-153 -154l-77 44l123 168zM356 353l-89 -44q-19 28 -33 38t-34 10q-21 0 -33.5 -10t-12.5 -26q0 -14 9.5 -21.5t47.5 -21.5l40 -16q57 -22 82.5 -51.5t25.5 -73.5q0 -65 -48 -108.5t-118 -43.5q-89 0 -138 68q-18 25 -35 70l93 37q21 -42 38 -57t43 -15
q23 0 37 12.5t14 33.5q0 14 -10.5 22t-45.5 22l-45 17q-99 37 -99 123q0 60 44.5 100t111.5 40q52 0 89 -25t66 -80z" />
    <glyph glyph-name="Scircumflex" unicode="&#x15c;" horiz-adv-x="520" 
d="M258 780l-89 -88l-86 43l138 151h74l138 -151l-87 -43zM475 552l-97 -60q-30 47 -52 63.5t-56 16.5q-41 0 -67 -23.5t-26 -60.5q0 -47 78 -77l63 -24q84 -32 124 -78t40 -111q0 -90 -65.5 -151.5t-161.5 -61.5q-67 0 -121 33.5t-81 92.5q-9 20 -23 76l115 30
q14 -53 21 -67q29 -54 92 -54q43 0 73.5 29.5t30.5 71.5q0 29 -21.5 49t-74.5 41l-60 23q-147 57 -147 179q0 83 60.5 138t151.5 55q93 0 155 -63q20 -20 49 -67z" />
    <glyph glyph-name="scircumflex" unicode="&#x15d;" horiz-adv-x="394" 
d="M195 580l-89 -88l-86 43l138 151h74l138 -151l-87 -43zM358 353l-89 -44q-19 28 -33 38t-34 10q-21 0 -33.5 -10t-12.5 -26q0 -14 9.5 -21.5t46.5 -21.5l40 -16q57 -22 83 -51.5t26 -73.5q0 -64 -48 -108t-118 -44q-88 0 -139 68q-18 27 -34 70l93 37q21 -42 38 -57
t43 -15q23 0 37 12.5t14 33.5q0 14 -10.5 22.5t-46.5 21.5l-44 17q-99 37 -99 123q0 60 44.5 100t111.5 40q52 0 89 -25t66 -80z" />
    <glyph glyph-name="Scedilla" unicode="&#x15e;" horiz-adv-x="520" 
d="M363 -67l-126 -161l-82 42l104 164zM475 552l-97 -60q-30 47 -52 63.5t-56 16.5q-41 0 -67 -23.5t-26 -60.5q0 -47 78 -77l63 -24q84 -32 124 -78t40 -111q0 -90 -65.5 -151.5t-161.5 -61.5q-67 0 -121 33.5t-81 92.5q-9 20 -23 76l115 30q14 -53 21 -67q29 -54 92 -54
q43 0 73.5 29.5t30.5 71.5q0 29 -21.5 49t-74.5 41l-60 23q-147 57 -147 179q0 83 60.5 138t151.5 55q93 0 155 -63q20 -20 49 -67z" />
    <glyph glyph-name="scedilla" unicode="&#x15f;" horiz-adv-x="384" 
d="M291 -67l-127 -161l-82 42l104 164zM356 353l-89 -44q-19 28 -33 38t-34 10q-21 0 -33.5 -10t-12.5 -26q0 -14 9.5 -21.5t47.5 -21.5l40 -16q57 -22 82.5 -51.5t25.5 -73.5q0 -65 -48 -108.5t-118 -43.5q-89 0 -138 68q-18 25 -35 70l93 37q21 -42 38 -57t43 -15
q23 0 37 12.5t14 33.5q0 14 -10.5 22t-45.5 22l-45 17q-99 37 -99 123q0 60 44.5 100t111.5 40q52 0 89 -25t66 -80z" />
    <glyph glyph-name="Scaron" unicode="&#x160;" horiz-adv-x="520" 
d="M258 807l88 88l87 -43l-138 -151h-74l-138 151l86 43zM475 552l-97 -60q-30 47 -52 63.5t-56 16.5q-41 0 -67 -23.5t-26 -60.5q0 -47 78 -77l63 -24q84 -32 124 -78t40 -111q0 -90 -65.5 -151.5t-161.5 -61.5q-67 0 -121 33.5t-81 92.5q-9 20 -23 76l115 30
q14 -53 21 -67q29 -54 92 -54q43 0 73.5 29.5t30.5 71.5q0 29 -21.5 49t-74.5 41l-60 23q-147 57 -147 179q0 83 60.5 138t151.5 55q93 0 155 -63q20 -20 49 -67z" />
    <glyph glyph-name="scaron" unicode="&#x161;" horiz-adv-x="394" 
d="M195 607l88 88l87 -43l-138 -151h-74l-138 151l86 43zM358 353l-89 -44q-19 28 -33 38t-34 10q-21 0 -33.5 -10t-12.5 -26q0 -14 9.5 -21.5t46.5 -21.5l40 -16q57 -22 83 -51.5t26 -73.5q0 -64 -48 -108t-118 -44q-88 0 -139 68q-18 27 -34 70l93 37q21 -42 38 -57
t43 -15q23 0 37 12.5t14 33.5q0 14 -10.5 22.5t-46.5 21.5l-44 17q-99 37 -99 123q0 60 44.5 100t111.5 40q52 0 89 -25t66 -80z" />
    <glyph glyph-name="Tcommaaccent" unicode="&#x162;" horiz-adv-x="438" 
d="M180 -23l108 -32l-81 -189l-85 27zM278 558v-558h-118v558h-163v109h444v-109h-163z" />
    <glyph glyph-name="tcommaaccent" unicode="&#x163;" horiz-adv-x="266" 
d="M105 -23l109 -32l-81 -189l-85 27zM172 340v-197q0 -25 4.5 -34t17.5 -9q16 0 53 10v-107q-40 -11 -66 -11q-59 0 -91 39t-32 112v197h-46v103h46v95l114 45v-140h68v-103h-68z" />
    <glyph glyph-name="Tcaron" unicode="&#x164;" horiz-adv-x="438" 
d="M219 807l89 88l86 -43l-138 -151h-74l-138 151l87 43zM278 558v-558h-118v558h-163v109h444v-109h-163z" />
    <glyph glyph-name="tcaron" unicode="&#x165;" horiz-adv-x="356" 
d="M263 702l109 -32l-82 -189l-84 27zM172 340v-197q0 -25 4.5 -34t17.5 -9q16 0 53 10v-107q-40 -11 -66 -11q-59 0 -91 39t-32 112v197h-46v103h46v95l114 45v-140h68v-103h-68z" />
    <glyph glyph-name="Tbar" unicode="&#x166;" horiz-adv-x="438" 
d="M278 443h100v-105h-100v-338h-118v338h-100v105h100v115h-163v109h444v-109h-163v-115z" />
    <glyph glyph-name="tbar" unicode="&#x167;" horiz-adv-x="266" 
d="M172 443h68v-103h-68v-26h68v-103h-68v-68q0 -25 4.5 -34t17.5 -9q16 0 53 10v-107q-40 -11 -66 -11q-59 0 -91 39t-32 112v68h-46v103h46v26h-46v103h46v95l114 45v-140z" />
    <glyph glyph-name="Utilde" unicode="&#x168;" horiz-adv-x="639" 
d="M188 667v-410q0 -78 18 -105q15 -24 47 -39.5t66 -15.5q35 0 67 15.5t47 39.5q18 27 18 105v410h118v-429q0 -102 -46 -159q-34 -44 -88.5 -69t-114.5 -25q-61 0 -115.5 25t-88.5 69q-46 57 -46 159v429h118zM381 865l96 -23q-4 -42 -11 -59q-23 -60 -88 -60
q-31 0 -76 21q-28 12 -33 12t-6 -4q-1 0 -7 -35l-93 22q4 42 14 63q26 56 86 56q26 0 78 -22q23 -11 30 -11q5 0 6.5 5t3.5 35z" />
    <glyph glyph-name="utilde" unicode="&#x169;" horiz-adv-x="509" 
d="M342 0v23q-48 -38 -103 -38q-83 0 -137 59q-49 52 -49 161v238h114v-231q0 -75 22 -100q21 -24 59 -24q50 0 73 31q21 25 21 103v221h114v-443h-114zM316 665l96 -22q-5 -43 -11 -59q-11 -29 -34 -45t-54 -16q-30 0 -76 21q-27 13 -33 13q-5 0 -6 -4q-1 0 -7 -36l-93 22
q4 43 14 64q26 56 86 56q26 0 78 -23q23 -11 30 -11q5 0 6.5 5t3.5 35z" />
    <glyph glyph-name="Umacron" unicode="&#x16a;" horiz-adv-x="639" 
d="M164 842h312v-102h-312v102zM188 667v-410q0 -78 18 -105q15 -24 47 -39.5t66 -15.5q35 0 67 15.5t47 39.5q18 27 18 105v410h118v-429q0 -102 -46 -159q-34 -44 -88.5 -69t-114.5 -25q-61 0 -115.5 25t-88.5 69q-46 57 -46 159v429h118z" />
    <glyph glyph-name="umacron" unicode="&#x16b;" horiz-adv-x="509" 
d="M99 642h312v-102h-312v102zM342 0v23q-48 -38 -103 -38q-83 0 -137 59q-49 52 -49 161v238h114v-231q0 -75 22 -100q21 -24 59 -24q50 0 73 31q21 25 21 103v221h114v-443h-114z" />
    <glyph glyph-name="Ubreve" unicode="&#x16c;" horiz-adv-x="639" 
d="M188 667v-410q0 -78 18 -105q15 -24 47 -39.5t66 -15.5q35 0 67 15.5t47 39.5q18 27 18 105v410h118v-429q0 -102 -46 -159q-34 -44 -88.5 -69t-114.5 -25q-61 0 -115.5 25t-88.5 69q-46 57 -46 159v429h118zM167 864l99 9q0 -4 0.5 -9t1 -8t0.5 -4q2 -59 49 -59
q30 0 45 28q5 9 11 51l99 -8q-5 -44 -8.5 -57t-13.5 -31q-43 -80 -132 -80q-47 0 -85 25t-55 68q-10 23 -11 75z" />
    <glyph glyph-name="ubreve" unicode="&#x16d;" horiz-adv-x="509" 
d="M342 0v23q-48 -38 -103 -38q-83 0 -137 59q-49 52 -49 161v238h114v-231q0 -75 22 -100q21 -24 59 -24q50 0 73 31q21 25 21 103v221h114v-443h-114zM102 665l99 8q0 -3 0.5 -8t1 -8.5t0.5 -4.5q2 -59 49 -59q30 0 45 28q5 9 11 52l99 -8q-4 -43 -7.5 -56.5t-14.5 -32.5
q-43 -80 -132 -80q-47 0 -85.5 25t-54.5 68q-10 23 -11 76z" />
    <glyph glyph-name="Uring" unicode="&#x16e;" horiz-adv-x="639" 
d="M320 898q45 0 77 -31.5t32 -75.5t-32 -75.5t-77 -31.5q-46 0 -77.5 31.5t-31.5 76.5q0 43 32.5 74.5t76.5 31.5zM320 843q-22 0 -37 -15.5t-15 -37.5q0 -21 15.5 -36t36.5 -15q22 0 37 15t15 37t-15 37t-37 15zM188 667v-410q0 -78 18 -105q15 -24 47 -39.5t66 -15.5
q35 0 67 15.5t47 39.5q18 27 18 105v410h118v-429q0 -102 -46 -159q-34 -44 -88.5 -69t-114.5 -25q-61 0 -115.5 25t-88.5 69q-46 57 -46 159v429h118z" />
    <glyph glyph-name="uring" unicode="&#x16f;" horiz-adv-x="509" 
d="M255 698q45 0 77 -31.5t32 -75.5t-32 -75.5t-77 -31.5q-46 0 -77.5 31.5t-31.5 76.5q0 43 32.5 74.5t76.5 31.5zM255 643q-22 0 -37 -15.5t-15 -37.5q0 -21 15.5 -36t36.5 -15q22 0 37 15t15 37t-15 37t-37 15zM342 0v23q-48 -38 -103 -38q-83 0 -137 59q-49 52 -49 161
v238h114v-231q0 -75 22 -100q21 -24 59 -24q50 0 73 31q21 25 21 103v221h114v-443h-114z" />
    <glyph glyph-name="Uhungarumlaut" unicode="&#x170;" horiz-adv-x="639" 
d="M188 667v-410q0 -78 18 -105q15 -24 47 -39.5t66 -15.5q35 0 67 15.5t47 39.5q18 27 18 105v410h118v-429q0 -102 -46 -159q-34 -44 -88.5 -69t-114.5 -25q-61 0 -115.5 25t-88.5 69q-46 57 -46 159v429h118zM236 690l-64 45l122 169l99 -56zM442 904l96 -59l-154 -155
l-66 42z" />
    <glyph glyph-name="uhungarumlaut" unicode="&#x171;" horiz-adv-x="509" 
d="M342 0v23q-48 -38 -103 -38q-83 0 -137 59q-49 52 -49 161v238h114v-231q0 -75 22 -100q21 -24 59 -24q50 0 73 31q21 25 21 103v221h114v-443h-114zM176 490l-64 45l122 169l99 -56zM382 704l96 -59l-154 -155l-66 42z" />
    <glyph glyph-name="Uogonek" unicode="&#x172;" horiz-adv-x="639" 
d="M573 667v-428q3 -94 -45 -157.5t-140 -88.5q-30 -40 -30 -57q0 -9 13 -9q16 0 48 13l34 -87q-57 -21 -88 -21q-48 0 -79.5 27.5t-31.5 68.5q0 29 19 62q-98 21 -150 86t-49 163v428h118v-410q0 -77 18 -105q15 -24 47 -39.5t66 -15.5q35 0 67 15.5t47 39.5q18 28 18 105
v410h118z" />
    <glyph glyph-name="uogonek" unicode="&#x173;" horiz-adv-x="509" 
d="M456 0l-2 -3l-4 -5q-29 -39 -29 -56q0 -9 12 -9q17 0 49 12l34 -86q-57 -21 -88 -21q-48 0 -79.5 27.5t-31.5 68.5q0 32 25 72v23q-48 -38 -103 -38q-83 0 -137 59q-49 52 -49 161v238h114v-231q0 -75 22 -100q21 -24 59 -24q50 0 73 31q21 25 21 103v221h114v-443z" />
    <glyph glyph-name="Wcircumflex" unicode="&#x174;" horiz-adv-x="876" 
d="M438 780l-88 -88l-86 43l138 151h73l138 -151l-86 -43zM120 667l130 -460l139 460h99l140 -460l129 460h123l-198 -667h-109l-135 440l-134 -440h-109l-198 667h123z" />
    <glyph glyph-name="wcircumflex" unicode="&#x175;" horiz-adv-x="662" 
d="M332 580l-89 -88l-86 43l138 151h73l138 -151l-86 -43zM113 443l83 -255l91 255h90l90 -255l83 255h122l-161 -443h-90l-89 251l-90 -251h-90l-161 443h122z" />
    <glyph glyph-name="Ycircumflex" unicode="&#x176;" horiz-adv-x="540" 
d="M270 780l-89 -88l-86 43l138 151h74l138 -151l-87 -43zM211 276l-221 391h132l148 -270l148 270h132l-221 -391v-276h-118v276z" />
    <glyph glyph-name="ycircumflex" unicode="&#x177;" horiz-adv-x="473" 
d="M238 580l-89 -88l-86 43l138 151h74l138 -151l-87 -43zM174 21l-183 422h124l120 -283l125 283h123l-301 -677h-121z" />
    <glyph glyph-name="Ydieresis" unicode="&#x178;" horiz-adv-x="540" 
d="M211 276l-221 391h132l148 -270l148 270h132l-221 -391v-276h-118v276zM179 860q29 0 50 -20.5t21 -49.5t-21 -49.5t-51 -20.5t-50.5 20.5t-20.5 50.5q0 29 21 49t51 20zM363 860q29 0 50 -20.5t21 -49.5t-21 -49.5t-51 -20.5t-50.5 20.5t-20.5 50.5q0 29 21 49t51 20z
" />
    <glyph glyph-name="Zacute" unicode="&#x179;" horiz-adv-x="511" 
d="M404 845l-153 -154l-77 44l123 168zM164 110h332v-110h-483v92l329 466h-301v109h448v-92z" />
    <glyph glyph-name="zacute" unicode="&#x17a;" horiz-adv-x="412" 
d="M363 645l-154 -154l-77 44l123 168zM171 103h235v-103h-387v85l227 256h-213v102h364v-85z" />
    <glyph glyph-name="Zdotaccent" unicode="&#x17b;" horiz-adv-x="511" 
d="M164 110h332v-110h-483v92l329 466h-301v109h448v-92zM272 860q28 0 49 -21t21 -49q0 -29 -21 -49.5t-50 -20.5q-30 0 -51 20.5t-21 50.5q0 29 21 49t52 20z" />
    <glyph glyph-name="zdotaccent" unicode="&#x17c;" horiz-adv-x="412" 
d="M171 103h235v-103h-387v85l227 256h-213v102h364v-85zM214 664q28 0 49 -21t21 -49q0 -29 -21 -49.5t-50 -20.5q-30 0 -51 20.5t-21 50.5q0 29 21 49t52 20z" />
    <glyph glyph-name="Zcaron" unicode="&#x17d;" horiz-adv-x="511" 
d="M271 807l88 88l87 -43l-138 -151h-74l-138 151l86 43zM164 110h332v-110h-483v92l329 466h-301v109h448v-92z" />
    <glyph glyph-name="zcaron" unicode="&#x17e;" horiz-adv-x="412" 
d="M212 607l89 88l86 -43l-138 -151h-73l-138 151l86 43zM171 103h235v-103h-387v85l227 256h-213v102h364v-85z" />
    <glyph glyph-name="longs" unicode="&#x17f;" horiz-adv-x="239" 
d="M174 0h-114v340h-42v103h42v81q0 73 32 112t93 39q28 0 63 -8v-103q-25 8 -40 8q-19 0 -26.5 -11t-7.5 -37v-524z" />
    <glyph glyph-name="florin" unicode="&#x192;" horiz-adv-x="488" 
d="M325 443h79l-22 -103h-79l-80 -388q-32 -152 -156 -152q-21 0 -69 13l23 109q6 -2 14.5 -4t10.5 -3q15 -4 22 -4q28 0 38 51l78 378h-43l21 103h44l16 81q32 153 155 153q23 0 70 -13l-22 -110q-40 11 -47 11q-16 0 -24.5 -11.5t-14.5 -39.5z" />
    <glyph glyph-name="Ohorn" unicode="&#x1a0;" horiz-adv-x="772" 
d="M600 723l87 43q30 -21 43 -37q30 -39 30 -91q0 -75 -79 -129q49 -86 49 -177q0 -142 -103 -244.5t-246 -102.5t-246 102.5t-103 245.5t102.5 246t245.5 103q65 0 127.5 -25t109.5 -69q41 20 41 53q0 21 -15 42q-7 9 -43 40zM379 570q-95 0 -161 -70t-66 -171
q0 -94 68 -163t161 -69q95 0 162 69.5t67 166.5q0 99 -67 168t-164 69z" />
    <glyph glyph-name="ohorn" unicode="&#x1a1;" horiz-adv-x="566" 
d="M400 499l87 44q32 -24 43 -38q30 -38 30 -90q0 -75 -73 -126q9 -36 9 -67q0 -100 -68 -168.5t-167 -68.5q-100 0 -168 68.5t-68 168.5q0 99 68 167.5t167 68.5q110 0 179 -80q19 15 19 39q0 23 -15 42q-7 9 -43 40zM258 355q-52 0 -85 -37.5t-33 -95.5q0 -59 33.5 -96.5
t87.5 -37.5q53 0 86.5 37.5t33.5 96.5q0 60 -34 96.5t-89 36.5z" />
    <glyph glyph-name="Uhorn" unicode="&#x1af;" horiz-adv-x="693" 
d="M569 667v-72q28 17 28 46q0 20 -14 42q-8 10 -44 40l87 43q32 -23 43 -37q30 -39 30 -91q0 -101 -124 -152l-6 -2v-246q0 -102 -46 -159q-34 -44 -88.5 -69t-114.5 -25q-61 0 -115.5 25t-88.5 69q-46 57 -46 159v429h118v-410q0 -78 18 -105q15 -24 47 -39.5t66 -15.5
q35 0 67 15.5t47 39.5q18 27 18 105v410h118z" />
    <glyph glyph-name="uhorn" unicode="&#x1b0;" horiz-adv-x="595" 
d="M456 443v-73q30 18 30 47q0 20 -14 42q-8 10 -44 40l87 43q32 -23 43 -37q30 -39 30 -91q0 -101 -124 -152l-8 -3v-259h-114v23q-48 -38 -103 -38q-83 0 -137 59q-49 52 -49 161v238h114v-231q0 -75 22 -100q21 -24 59 -24q50 0 73 31q21 25 21 103v221h114z" />
    <glyph glyph-name="uni01C4" unicode="&#x1c4;" horiz-adv-x="1130" 
d="M70 667h153q166 0 265 -90.5t99 -242.5q0 -153 -98.5 -243.5t-265.5 -90.5h-153v667zM188 557v-447h38q113 0 177.5 60t64.5 164q0 103 -65 163t-177 60h-38zM890 807l89 88l86 -43l-138 -151h-74l-138 151l87 43zM784 110h331v-110h-483v92l330 466h-301v109h447v-92z
" />
    <glyph glyph-name="uni01C5" unicode="&#x1c5;" horiz-adv-x="1031" 
d="M70 667h153q166 0 265 -90.5t99 -242.5q0 -153 -98.5 -243.5t-265.5 -90.5h-153v667zM188 557v-447h38q113 0 177.5 60t64.5 164q0 103 -65 163t-177 60h-38zM831 607l89 88l86 -43l-138 -151h-74l-138 151l87 43zM790 103h235v-103h-387v85l226 256h-213v102h365v-85z
" />
    <glyph glyph-name="uni01C6" unicode="&#x1c6;" horiz-adv-x="956" 
d="M491 0h-114v28q-58 -43 -119 -43q-97 0 -165 69t-68 168q0 98 68 167t165 69q64 0 119 -43v252h114v-667zM258 355q-52 0 -85 -37.5t-33 -95.5q0 -59 33.5 -96.5t86.5 -37.5q52 0 85 37.5t33 96.5q0 60 -33 96.5t-87 36.5zM756 607l89 88l86 -43l-138 -151h-74l-138 151
l87 43zM715 103h235v-103h-387v85l226 256h-213v102h365v-85z" />
    <glyph glyph-name="uni01C7" unicode="&#x1c7;" horiz-adv-x="864" 
d="M188 667v-557h245v-110h-363v667h118zM794 667v-460q0 -63 -10.5 -100t-38.5 -67q-49 -55 -133 -55q-47 0 -88.5 20.5t-88.5 67.5l74 86q58 -62 103 -62q34 0 49 26t15 84v460h118z" />
    <glyph glyph-name="uni01C8" unicode="&#x1c8;" horiz-adv-x="665" 
d="M188 667v-557h245v-110h-363v667h118zM612 443v-535q0 -73 -32 -112t-91 -39q-27 0 -66 11v108q36 -11 53 -11q13 0 17.5 9t4.5 34v535h114zM556 664q28 0 49 -21t21 -49q0 -29 -21 -49.5t-50 -20.5q-30 0 -51 20.5t-21 50.5q0 29 21 49t52 20z" />
    <glyph glyph-name="uni01C9" unicode="&#x1c9;" horiz-adv-x="452" 
d="M168 0h-114v667h114v-667zM399 443v-535q0 -73 -32 -112t-91 -39q-27 0 -66 11v108q36 -11 53 -11q13 0 17.5 9t4.5 34v535h114zM343 664q29 0 49.5 -21t20.5 -49q0 -29 -21 -49.5t-50 -20.5q-30 0 -51 20.5t-21 50.5q0 29 21 49t52 20z" />
    <glyph glyph-name="uni01CA" unicode="&#x1ca;" horiz-adv-x="1130" 
d="M70 0v667h102l347 -464v464h118v-667h-102l-347 464v-464h-118zM1060 667v-460q0 -63 -10.5 -100t-38.5 -67q-49 -55 -133 -55q-47 0 -88.5 20.5t-88.5 67.5l74 86q58 -62 103 -62q34 0 49 26t15 84v460h118z" />
    <glyph glyph-name="uni01CB" unicode="&#x1cb;" horiz-adv-x="937" 
d="M70 0v667h102l347 -464v464h118v-667h-102l-347 464v-464h-118zM884 443v-535q0 -73 -32 -112t-91 -39q-27 0 -65 11v108q35 -11 52 -11q13 0 17.5 9t4.5 34v535h114zM829 664q29 0 49.5 -21t20.5 -49q0 -29 -21 -49.5t-50 -20.5q-30 0 -51 20.5t-21 50.5q0 29 21 49
t52 20z" />
    <glyph glyph-name="uni01CC" unicode="&#x1cc;" horiz-adv-x="739" 
d="M167 443v-23q48 38 103 38q83 0 137 -59q49 -52 49 -161v-238h-114v231q0 75 -22 100q-21 24 -59 24q-50 0 -73 -31q-21 -27 -21 -102v-222h-114v443h114zM686 443v-535q0 -73 -32 -112t-91 -39q-27 0 -65 11v108q35 -11 52 -11q13 0 17.5 9t4.5 34v535h114zM631 664
q29 0 49.5 -21t20.5 -49q0 -29 -21 -49.5t-50 -20.5q-30 0 -51 20.5t-21 50.5q0 29 21 49t52 20z" />
    <glyph glyph-name="uni01CD" unicode="&#x1cd;" horiz-adv-x="636" 
d="M318 807l89 88l86 -43l-138 -151h-73l-139 151l87 43zM455 164h-274l-60 -164h-124l249 667h145l249 -667h-125zM415 274l-97 268l-97 -268h194z" />
    <glyph glyph-name="uni01CE" unicode="&#x1ce;" horiz-adv-x="544" 
d="M258 607l88 88l87 -43l-138 -151h-74l-138 151l86 43zM491 0h-114v28q-57 -43 -119 -43q-97 0 -165 69t-68 168q0 98 68 167t165 69q62 0 119 -43v28h114v-443zM258 355q-52 0 -85 -37.5t-33 -95.5q0 -59 33.5 -96.5t86.5 -37.5t86 37.5t33 96.5q0 60 -33 96.5t-88 36.5z
" />
    <glyph glyph-name="uni01CF" unicode="&#x1cf;" horiz-adv-x="258" 
d="M129 807l88 88l87 -43l-138 -151h-74l-138 151l86 43zM188 667v-667h-118v667h118z" />
    <glyph glyph-name="uni01D0" unicode="&#x1d0;" horiz-adv-x="221" 
d="M111 607l88 88l87 -43l-138 -151h-74l-138 151l86 43zM168 443v-443h-114v443h114z" />
    <glyph glyph-name="uni01D1" unicode="&#x1d1;" horiz-adv-x="762" 
d="M381 682q143 0 246 -102.5t103 -246.5t-103 -246t-249 -102q-143 0 -244.5 104t-101.5 250q0 139 104 241t245 102zM379 570q-95 0 -161 -70t-66 -171q0 -94 68 -163t161 -69q95 0 162 69.5t67 166.5q0 99 -67 168t-164 69zM381 807l88 88l87 -43l-138 -151h-74l-138 151
l86 43z" />
    <glyph glyph-name="uni01D2" unicode="&#x1d2;" horiz-adv-x="521" 
d="M261 607l88 88l87 -43l-138 -151h-74l-138 151l86 43zM264 458q97 0 164.5 -69t67.5 -167q0 -100 -68 -168.5t-167 -68.5q-100 0 -168 69t-68 170q0 99 69 166.5t170 67.5zM258 355q-52 0 -85 -37.5t-33 -95.5q0 -59 33.5 -96.5t87.5 -37.5q53 0 86.5 37.5t33.5 96.5
q0 60 -34 96.5t-89 36.5z" />
    <glyph glyph-name="uni01D3" unicode="&#x1d3;" horiz-adv-x="639" 
d="M320 807l88 88l87 -43l-138 -151h-74l-138 151l86 43zM188 667v-410q0 -78 18 -105q15 -24 47 -39.5t66 -15.5q35 0 67 15.5t47 39.5q18 27 18 105v410h118v-429q0 -102 -46 -159q-34 -44 -88.5 -69t-114.5 -25q-61 0 -115.5 25t-88.5 69q-46 57 -46 159v429h118z" />
    <glyph glyph-name="uni01D4" unicode="&#x1d4;" horiz-adv-x="509" 
d="M255 607l88 88l87 -43l-138 -151h-74l-138 151l86 43zM342 0v23q-48 -38 -103 -38q-83 0 -137 59q-49 52 -49 161v238h114v-231q0 -75 22 -100q21 -24 59 -24q50 0 73 31q21 25 21 103v221h114v-443h-114z" />
    <glyph glyph-name="Gcaron" unicode="&#x1e6;" horiz-adv-x="726" 
d="M385 807l89 88l86 -43l-138 -151h-73l-138 151l86 43zM383 366h310v-57q0 -146 -84.5 -235t-222.5 -89q-148 0 -251 101t-103 246q0 146 102.5 248t249.5 102q109 0 194 -62q23 -16 70 -61l-84 -81q-42 43 -58 54q-55 38 -123 38q-98 0 -164.5 -68.5t-66.5 -169.5
q0 -99 67 -167t165 -68q111 0 163 88q15 27 23 71h-187v110z" />
    <glyph glyph-name="gcaron" unicode="&#x1e7;" horiz-adv-x="544" 
d="M258 607l89 88l86 -43l-138 -151h-74l-138 151l87 43zM377 -9v37q-34 -25 -60 -34t-61 -9q-96 0 -163.5 69.5t-67.5 167.5t67.5 167t163.5 69q35 0 61 -9t60 -34v28h114v-452q0 -107 -66 -173t-173 -66q-93 0 -161 54q-19 15 -58 60l74 74l18 -20q32 -38 59 -51.5
t67 -13.5q60 0 93 35.5t33 100.5zM258 355q-52 0 -85 -37.5t-33 -95.5q0 -59 33.5 -96.5t86.5 -37.5q52 0 85 37.5t33 96.5q0 60 -33 96.5t-87 36.5z" />
    <glyph glyph-name="uni01F4" unicode="&#x1f4;" horiz-adv-x="726" 
d="M543 845l-154 -154l-77 44l123 168zM383 366h310v-57q0 -146 -84.5 -235t-222.5 -89q-148 0 -251 101t-103 246q0 146 102.5 248t249.5 102q109 0 194 -62q23 -16 70 -61l-84 -81q-42 43 -58 54q-55 38 -123 38q-98 0 -164.5 -68.5t-66.5 -169.5q0 -99 67 -167t165 -68
q111 0 163 88q15 27 23 71h-187v110z" />
    <glyph glyph-name="uni01F5" unicode="&#x1f5;" horiz-adv-x="544" 
d="M414 645l-154 -154l-77 44l123 168zM377 -9v37q-34 -25 -60 -34t-61 -9q-96 0 -163.5 69.5t-67.5 167.5t67.5 167t163.5 69q35 0 61 -9t60 -34v28h114v-452q0 -107 -66 -173t-173 -66q-93 0 -161 54q-19 15 -58 60l74 74l18 -20q32 -38 59 -51.5t67 -13.5q60 0 93 35.5
t33 100.5zM258 355q-52 0 -85 -37.5t-33 -95.5q0 -59 33.5 -96.5t86.5 -37.5q52 0 85 37.5t33 96.5q0 60 -33 96.5t-87 36.5z" />
    <glyph glyph-name="Aringacute" unicode="&#x1fa;" horiz-adv-x="636" 
d="M263 883l-58 34l123 168l107 -58l-129 -130q5 1 12 1q45 0 77 -31.5t32 -75.5t-32 -75.5t-77 -31.5t-77 31.5t-32 75.5q0 59 54 92zM318 843q-22 0 -37 -15.5t-15 -37.5q0 -21 15.5 -36t36.5 -15q22 0 37 15t15 37t-15 37t-37 15zM455 164h-274l-60 -164h-124l249 667
h145l249 -667h-125zM415 274l-97 268l-97 -268h194z" />
    <glyph glyph-name="aringacute" unicode="&#x1fb;" horiz-adv-x="544" 
d="M388 845l-154 -154l-76 44l123 168zM491 0h-114v28q-57 -43 -119 -43q-97 0 -165 69t-68 168q0 98 68 167t165 69q62 0 119 -43v28h114v-443zM258 355q-52 0 -85 -37.5t-33 -95.5q0 -59 33.5 -96.5t86.5 -37.5t86 37.5t33 96.5q0 60 -33 96.5t-88 36.5zM271 694
q45 0 77 -31.5t32 -75.5t-32 -75.5t-77 -31.5q-46 0 -77.5 31.5t-31.5 76.5q0 43 32.5 74.5t76.5 31.5zM271 639q-22 0 -37 -15.5t-15 -37.5q0 -21 15.5 -36t36.5 -15q22 0 37 15t15 37t-15 37t-37 15z" />
    <glyph glyph-name="AEacute" unicode="&#x1fc;" horiz-adv-x="839" 
d="M676 845l-154 -154l-76 44l123 168zM426 164h-213l-84 -164h-132l349 667h452v-109h-254v-165h226v-110h-226v-173h263v-110h-381v164zM426 274v284h-10l-146 -284h156z" />
    <glyph glyph-name="aeacute" unicode="&#x1fd;" horiz-adv-x="815" 
d="M560 645l-154 -154l-77 44l123 168zM692 156l97 -40q-21 -35 -32.5 -49t-33.5 -32q-64 -50 -147 -50q-92 0 -158 63q-55 -63 -179 -63q-97 0 -155.5 43t-58.5 114q0 70 53.5 109.5t147.5 39.5h113q-21 67 -105 67q-68 0 -136 -51l-59 73q57 45 100.5 61.5t105.5 16.5
q115 0 170 -66q64 66 156 66q73 0 129.5 -43.5t78.5 -115.5q12 -42 12 -88q0 -8 -1 -32h-325q23 -91 110 -91q59 0 94 37q7 6 23 31zM464 264h213q-30 93 -106 93q-40 0 -68 -24.5t-39 -68.5zM342 206h-102q-101 0 -101 -63q0 -58 101 -58q102 0 102 65v56z" />
    <glyph glyph-name="Oslashacute" unicode="&#x1fe;" horiz-adv-x="769" 
d="M542 845l-154 -154l-76 44l122 168zM598 608l63 62l64 -63l-63 -63q72 -98 72 -211q0 -143 -103 -245.5t-245 -102.5q-118 0 -214 74l-63 -62l-65 63l64 63q-72 96 -72 211q0 142 103 245t245 103q118 0 214 -74zM192 206l324 321q-59 43 -132 43q-95 0 -161.5 -69.5
t-66.5 -167.5q0 -67 36 -127zM578 461l-324 -320q61 -44 132 -44q94 0 161 69.5t67 166.5q0 68 -36 128z" />
    <glyph glyph-name="oslashacute" unicode="&#x1ff;" horiz-adv-x="534" 
d="M424 645l-154 -154l-77 44l123 168zM409 411l36 35l57 -55l-39 -37q39 -56 39 -133q0 -99 -68 -167.5t-167 -68.5q-77 0 -143 47l-36 -35l-57 55l39 37q-39 61 -39 133q0 99 68 167.5t167 68.5q81 0 143 -47zM154 169l177 168q-30 18 -64 18q-54 0 -87.5 -36.5
t-33.5 -95.5q0 -25 8 -54zM379 274l-176 -168q30 -18 64 -18q53 0 86.5 37t33.5 96q0 29 -8 53z" />
    <glyph glyph-name="uni0200" unicode="&#x200;" horiz-adv-x="636" 
d="M256 821l62 -86l-72 -45l-154 155l104 59l41 -56l99 56l122 -169l-72 -45zM455 164h-274l-60 -164h-124l249 667h145l249 -667h-125zM415 274l-97 268l-97 -268h194z" />
    <glyph glyph-name="uni0201" unicode="&#x201;" horiz-adv-x="544" 
d="M173 621l62 -86l-72 -45l-154 155l104 59l41 -56l99 56l122 -169l-72 -45zM490 0h-114v28q-57 -43 -119 -43q-97 0 -165 69t-68 168q0 98 68 167t165 69q62 0 119 -43v28h114v-443zM257 355q-52 0 -85 -37.5t-33 -95.5q0 -59 33.5 -96.5t86.5 -37.5t86 37.5t33 96.5
q0 60 -33 96.5t-88 36.5z" />
    <glyph glyph-name="Scommaaccent" unicode="&#x218;" horiz-adv-x="520" 
d="M358 -67l-126 -161l-82 42l104 164zM475 552l-97 -60q-30 47 -52 63.5t-56 16.5q-41 0 -67 -23.5t-26 -60.5q0 -47 78 -77l63 -24q84 -32 124 -78t40 -111q0 -90 -65.5 -151.5t-161.5 -61.5q-67 0 -121 33.5t-81 92.5q-9 20 -23 76l115 30q14 -53 21 -67q29 -54 92 -54
q43 0 73.5 29.5t30.5 71.5q0 29 -21.5 49t-74.5 41l-60 23q-147 57 -147 179q0 83 60.5 138t151.5 55q93 0 155 -63q20 -20 49 -67z" />
    <glyph glyph-name="scommaaccent" unicode="&#x219;" horiz-adv-x="384" 
d="M168 -23l108 -32l-81 -189l-84 27zM356 353l-89 -44q-19 28 -33 38t-34 10q-21 0 -33.5 -10t-12.5 -26q0 -14 9.5 -21.5t47.5 -21.5l40 -16q57 -22 82.5 -51.5t25.5 -73.5q0 -65 -48 -108.5t-118 -43.5q-89 0 -138 68q-18 25 -35 70l93 37q21 -42 38 -57t43 -15
q23 0 37 12.5t14 33.5q0 14 -10.5 22t-45.5 22l-45 17q-99 37 -99 123q0 60 44.5 100t111.5 40q52 0 89 -25t66 -80z" />
    <glyph glyph-name="uni021A" unicode="&#x21a;" horiz-adv-x="438" 
d="M180 -23l108 -32l-81 -189l-85 27zM278 558v-558h-118v558h-163v109h444v-109h-163z" />
    <glyph glyph-name="uni021B" unicode="&#x21b;" horiz-adv-x="266" 
d="M105 -23l109 -32l-81 -189l-85 27zM172 340v-197q0 -25 4.5 -34t17.5 -9q16 0 53 10v-107q-40 -11 -66 -11q-59 0 -91 39t-32 112v197h-46v103h46v95l114 45v-140h68v-103h-68z" />
    <glyph glyph-name="uni0226" unicode="&#x226;" horiz-adv-x="636" 
d="M455 164h-274l-60 -164h-124l249 667h145l249 -667h-125zM415 274l-97 268l-97 -268h194zM320 860q28 0 49 -21t21 -49q0 -29 -21 -49.5t-50 -20.5q-30 0 -51 20.5t-21 50.5q0 29 21 49t52 20z" />
    <glyph glyph-name="uni0227" unicode="&#x227;" horiz-adv-x="544" 
d="M491 0h-114v28q-57 -43 -119 -43q-97 0 -165 69t-68 168q0 98 68 167t165 69q62 0 119 -43v28h114v-443zM258 355q-52 0 -85 -37.5t-33 -95.5q0 -59 33.5 -96.5t86.5 -37.5t86 37.5t33 96.5q0 60 -33 96.5t-88 36.5zM260 664q28 0 49 -21t21 -49q0 -29 -21 -49.5
t-50 -20.5q-30 0 -51 20.5t-21 50.5q0 29 21 49t52 20z" />
    <glyph glyph-name="uni0237" unicode="&#x237;" horiz-adv-x="230" 
d="M176 443v-535q0 -73 -32 -112t-91 -39q-27 0 -65 11v108q35 -11 52 -11q13 0 17.5 9t4.5 34v535h114z" />
    <glyph glyph-name="uni02BB" unicode="&#x2bb;" horiz-adv-x="259" 
d="M139 426l-103 37l116 261l83 -32z" />
    <glyph glyph-name="afii57929" unicode="&#x2bc;" horiz-adv-x="294" 
d="M143 725l105 -38l-117 -262l-84 33z" />
    <glyph glyph-name="circumflex" unicode="&#x2c6;" horiz-adv-x="476" 
d="M238 580l-89 -88l-86 43l138 151h74l138 -151l-87 -43z" />
    <glyph glyph-name="caron" unicode="&#x2c7;" horiz-adv-x="476" 
d="M238 607l88 88l87 -43l-138 -151h-74l-138 151l86 43z" />
    <glyph glyph-name="uni02C9" unicode="&#x2c9;" horiz-adv-x="476" 
d="M82 642h312v-102h-312v102z" />
    <glyph glyph-name="breve" unicode="&#x2d8;" horiz-adv-x="476" 
d="M86 665l99 8q1 -9 1 -21q3 -59 50 -59q29 0 44 28q6 9 11 52l99 -8q-5 -44 -8 -57.5t-13 -31.5q-45 -80 -133 -80q-47 0 -85 25t-55 68q-9 23 -10 76z" />
    <glyph glyph-name="dotaccent" unicode="&#x2d9;" horiz-adv-x="476" 
d="M240 664q28 0 49 -21t21 -49q0 -29 -21 -49.5t-50 -20.5q-30 0 -51 20.5t-21 50.5q0 29 21 49t52 20z" />
    <glyph glyph-name="ring" unicode="&#x2da;" horiz-adv-x="476" 
d="M238 698q45 0 77 -31.5t32 -75.5t-32 -75.5t-77 -31.5q-46 0 -77.5 31.5t-31.5 76.5q0 43 32.5 74.5t76.5 31.5zM238 643q-22 0 -37 -15.5t-15 -37.5q0 -21 15.5 -36t36.5 -15q22 0 37 15t15 37t-15 37t-37 15z" />
    <glyph glyph-name="ogonek" unicode="&#x2db;" horiz-adv-x="476" 
d="M329 0h114q-35 -47 -35 -64q0 -9 13 -9q17 0 48 12l34 -86q-12 -4 -18 -7q-42 -14 -70 -14q-48 0 -79.5 27.5t-31.5 68.5q0 33 25 72z" />
    <glyph glyph-name="tilde" unicode="&#x2dc;" horiz-adv-x="476" 
d="M300 665l95 -22q-3 -40 -10 -59q-24 -61 -89 -61q-30 0 -76 21q-26 13 -32 13t-7 -4q-2 -12 -7 -36l-93 22q5 46 14 64q28 56 87 56q25 0 77 -23q23 -11 31 -11q4 0 5.5 5t4.5 35z" />
    <glyph glyph-name="hungarumlaut" unicode="&#x2dd;" horiz-adv-x="476" 
d="M160 490l-64 45l122 169l99 -56zM367 704l95 -59l-154 -155l-66 42z" />
    <glyph glyph-name="uni0309" unicode="&#x309;" horiz-adv-x="476" 
d="M319 701h-103q2 32 4.5 42.5t13.5 27.5l10 14l5 7q5 6 5 10q0 6 -11 6q-13 0 -51 -13l-34 87q56 21 91 21q49 0 79 -24t30 -63q0 -30 -19 -59l-15 -24q-5 -7 -5 -22v-10z" />
    <glyph glyph-name="uni0323" unicode="&#x323;" horiz-adv-x="476" 
d="M240 -42q28 0 49 -21t21 -49q0 -29 -21 -49.5t-50 -20.5q-30 0 -51 20.5t-21 50.5q0 29 21 49t52 20z" />
    <glyph glyph-name="uni037E" unicode="&#x37e;" horiz-adv-x="254" 
d="M110 123l105 -38l-117 -262l-84 33zM147 429q29 0 49.5 -20.5t20.5 -49.5t-21 -49.5t-50 -20.5q-30 0 -51 20.5t-21 50.5q0 29 21 49t52 20z" />
    <glyph glyph-name="uni0387" unicode="&#x387;" horiz-adv-x="251" 
d="M127 403q29 0 49.5 -20.5t20.5 -49.5t-21 -49.5t-50 -20.5q-30 0 -51 20.5t-21 50.5q0 29 21 49t52 20z" />
    <glyph glyph-name="uni1E1E" unicode="&#x1e1e;" horiz-adv-x="446" 
d="M420 558h-232v-165h212v-110h-212v-283h-118v667h350v-109zM247 860q29 0 49.5 -21t20.5 -49q0 -29 -21 -49.5t-50 -20.5q-30 0 -51 20.5t-21 50.5q0 29 21 49t52 20z" />
    <glyph glyph-name="uni1E1F" unicode="&#x1e1f;" horiz-adv-x="263" 
d="M178 443h76v-103h-76v-340h-114v340h-42v103h42v81q0 73 32 112t93 39q28 0 63 -8v-103q-25 8 -40 8q-19 0 -26.5 -11t-7.5 -37v-81zM165 856q29 0 49.5 -21t20.5 -49q0 -29 -21 -49.5t-50 -20.5q-30 0 -51 20.5t-21 50.5q0 29 21 49t52 20z" />
    <glyph glyph-name="Wgrave" unicode="&#x1e80;" horiz-adv-x="876" 
d="M288 845l108 58l122 -168l-76 -44zM120 667l130 -460l139 460h99l140 -460l129 460h123l-198 -667h-109l-135 440l-134 -440h-109l-198 667h123z" />
    <glyph glyph-name="wgrave" unicode="&#x1e81;" horiz-adv-x="662" 
d="M174 645l108 58l123 -168l-77 -44zM113 443l83 -255l91 255h90l90 -255l83 255h122l-161 -443h-90l-89 251l-90 -251h-90l-161 443h122z" />
    <glyph glyph-name="Wacute" unicode="&#x1e82;" horiz-adv-x="876" 
d="M596 845l-154 -154l-77 44l123 168zM120 667l130 -460l139 460h99l140 -460l129 460h123l-198 -667h-109l-135 440l-134 -440h-109l-198 667h123z" />
    <glyph glyph-name="wacute" unicode="&#x1e83;" horiz-adv-x="665" 
d="M459 645l-154 -154l-77 44l123 168zM113 443l83 -255l91 255h90l90 -255l83 255h122l-161 -443h-90l-89 251l-90 -251h-90l-161 443h122z" />
    <glyph glyph-name="Wdieresis" unicode="&#x1e84;" horiz-adv-x="876" 
d="M120 667l130 -460l139 460h99l140 -460l129 460h123l-198 -667h-109l-135 440l-134 -440h-109l-198 667h123zM348 860q28 0 49 -21t21 -49q0 -29 -21 -49.5t-50 -20.5q-30 0 -51 20.5t-21 50.5q0 29 21 49t52 20zM532 860q28 0 49 -21t21 -49q0 -29 -21 -49.5t-50 -20.5
q-30 0 -51 20.5t-21 50.5q0 29 21 49t52 20z" />
    <glyph glyph-name="wdieresis" unicode="&#x1e85;" horiz-adv-x="662" 
d="M113 443l83 -255l91 255h90l90 -255l83 255h122l-161 -443h-90l-89 251l-90 -251h-90l-161 443h122zM241 664q29 0 49.5 -21t20.5 -49q0 -29 -21 -49.5t-50 -20.5q-30 0 -51 20.5t-21 50.5q0 29 21 49t52 20zM425 664q29 0 49.5 -21t20.5 -49q0 -29 -21 -49.5t-50 -20.5
q-30 0 -51 20.5t-21 50.5q0 29 21 49t52 20z" />
    <glyph glyph-name="uni1EA0" unicode="&#x1ea0;" horiz-adv-x="636" 
d="M455 164h-274l-60 -164h-124l249 667h145l249 -667h-125zM415 274l-97 268l-97 -268h194zM320 -42q28 0 49 -21t21 -49q0 -29 -21 -49.5t-50 -20.5q-30 0 -51 20.5t-21 50.5q0 29 21 49t52 20z" />
    <glyph glyph-name="uni1EA1" unicode="&#x1ea1;" horiz-adv-x="544" 
d="M491 0h-114v28q-57 -43 -119 -43q-97 0 -165 69t-68 168q0 98 68 167t165 69q62 0 119 -43v28h114v-443zM258 355q-52 0 -85 -37.5t-33 -95.5q0 -59 33.5 -96.5t86.5 -37.5t86 37.5t33 96.5q0 60 -33 96.5t-88 36.5zM271 -42q29 0 49.5 -21t20.5 -49q0 -29 -21 -49.5
t-50 -20.5q-30 0 -51 20.5t-21 50.5q0 29 21 49t52 20z" />
    <glyph glyph-name="uni1EA2" unicode="&#x1ea2;" horiz-adv-x="636" 
d="M377 701h-103q1 32 3.5 42.5t14.5 27.5l9 14q10 14 10 17q0 6 -11 6q-13 0 -50 -13l-34 87q56 21 90 21q49 0 79 -24t30 -63q0 -28 -18 -59l-16 -24q-4 -6 -4 -32zM455 164h-274l-60 -164h-124l249 667h145l249 -667h-125zM415 274l-97 268l-97 -268h194z" />
    <glyph glyph-name="uni1EA3" unicode="&#x1ea3;" horiz-adv-x="544" 
d="M491 0h-114v28q-57 -43 -119 -43q-97 0 -165 69t-68 168q0 98 68 167t165 69q62 0 119 -43v28h114v-443zM258 355q-52 0 -85 -37.5t-33 -95.5q0 -59 33.5 -96.5t86.5 -37.5t86 37.5t33 96.5q0 60 -33 96.5t-88 36.5zM320 496h-103q1 32 3.5 42.5t13.5 27.5l10 14
q10 14 10 17q0 6 -11 6q-13 0 -51 -13l-34 87q56 21 91 21q49 0 79 -24t30 -63q0 -30 -19 -59l-15 -24q-5 -7 -5 -22q0 -5 1 -10z" />
    <glyph glyph-name="uni1EA4" unicode="&#x1ea4;" horiz-adv-x="636" 
d="M455 776l38 -41l-86 -43l-89 88l-88 -88l-87 43l139 151h73l35 -39l81 111l108 -58zM455 164h-274l-60 -164h-124l249 667h145l249 -667h-125zM415 274l-97 268l-97 -268h194z" />
    <glyph glyph-name="uni1EA5" unicode="&#x1ea5;" horiz-adv-x="544" 
d="M330 631l103 -113l-87 -43l-88 88l-89 -88l-86 43l138 151h74l27 -30l120 166l108 -58l-154 -154zM491 0h-114v28q-57 -43 -119 -43q-97 0 -165 69t-68 168q0 98 68 167t165 69q62 0 119 -43v28h114v-443zM258 355q-52 0 -85 -37.5t-33 -95.5q0 -59 33.5 -96.5
t86.5 -37.5t86 37.5t33 96.5q0 60 -33 96.5t-88 36.5z" />
    <glyph glyph-name="uni1EA6" unicode="&#x1ea6;" horiz-adv-x="636" 
d="M455 164h-274l-60 -164h-124l249 667h145l249 -667h-125zM415 274l-97 268l-97 -268h194zM365 900l107 58l123 -168l-76 -44zM318 780l-88 -88l-87 43l139 151h73l138 -151l-86 -43z" />
    <glyph glyph-name="uni1EA7" unicode="&#x1ea7;" horiz-adv-x="544" 
d="M491 0h-114v28q-57 -43 -119 -43q-97 0 -165 69t-68 168q0 98 68 167t165 69q62 0 119 -43v28h114v-443zM258 355q-52 0 -85 -37.5t-33 -95.5q0 -59 33.5 -96.5t86.5 -37.5t86 37.5t33 96.5q0 60 -33 96.5t-88 36.5zM236 748l108 58l122 -169l-76 -44zM258 564l-89 -89
l-86 43l138 151h74l138 -151l-87 -43z" />
    <glyph glyph-name="uni1EA8" unicode="&#x1ea8;" horiz-adv-x="636" 
d="M455 164h-274l-60 -164h-124l249 667h145l249 -667h-125zM415 274l-97 268l-97 -268h194zM479 751l14 -16l-86 -43l-89 88l-88 -88l-87 43l139 151h73l77 -84q2 7 11 19l9 13q10 15 10 18q0 6 -11 6q-13 0 -51 -13l-34 86q57 22 91 22q49 0 79 -24t30 -63q0 -31 -19 -59
l-15 -24q-5 -9 -5 -22q0 -5 1 -10h-49z" />
    <glyph glyph-name="uni1EA9" unicode="&#x1ea9;" horiz-adv-x="544" 
d="M491 0h-114v28q-57 -43 -119 -43q-97 0 -165 69t-68 168q0 98 68 167t165 69q62 0 119 -43v28h114v-443zM258 355q-52 0 -85 -37.5t-33 -95.5q0 -59 33.5 -96.5t86.5 -37.5t86 37.5t33 96.5q0 60 -33 96.5t-88 36.5zM295 669l41 -44q1 20 16 43l10 13q10 15 10 17
q0 7 -11 7q-13 0 -51 -13l-34 86q57 22 91 22q49 0 79 -24t30 -63q0 -31 -19 -59l-15 -24q-5 -8 -5 -22v-10h-77l73 -80l-87 -43l-88 89l-89 -89l-86 43l138 151h74z" />
    <glyph glyph-name="uni1EAA" unicode="&#x1eaa;" horiz-adv-x="636" 
d="M455 164h-274l-60 -164h-124l249 667h145l249 -667h-125zM415 274l-97 268l-97 -268h194zM318 763l-88 -88l-87 43l139 151h73l138 -151l-86 -43zM380 1020l95 -22q-3 -43 -10 -59q-11 -29 -34.5 -45t-54.5 -16q-30 0 -76 21q-26 13 -32 13q-4 0 -7 -4l-6 -36l-94 23
q5 45 15 63q26 56 86 56q25 0 77 -23q23 -11 31 -11q5 0 6.5 5t3.5 35z" />
    <glyph glyph-name="uni1EAB" unicode="&#x1eab;" horiz-adv-x="544" 
d="M491 0h-114v28q-57 -43 -119 -43q-97 0 -165 69t-68 168q0 98 68 167t165 69q62 0 119 -43v28h114v-443zM258 355q-52 0 -85 -37.5t-33 -95.5q0 -59 33.5 -96.5t86.5 -37.5t86 37.5t33 96.5q0 60 -33 96.5t-88 36.5zM258 564l-89 -89l-86 43l138 151h74l138 -151l-87 -43
zM319 830l96 -22q-5 -43 -11 -59q-11 -29 -34.5 -45t-54.5 -16q-29 0 -75 21q-27 13 -33 13q-4 0 -7 -4l-6 -36l-93 22q4 43 14 64q26 56 86 56q26 0 78 -23q23 -11 30 -11q5 0 6.5 5t3.5 35z" />
    <glyph glyph-name="uni1EAC" unicode="&#x1eac;" horiz-adv-x="636" 
d="M455 164h-274l-60 -164h-124l249 667h145l249 -667h-125zM415 274l-97 268l-97 -268h194zM318 780l-88 -88l-87 43l139 151h73l138 -151l-86 -43zM320 -42q28 0 49 -21t21 -49q0 -29 -21 -49.5t-50 -20.5q-30 0 -51 20.5t-21 50.5q0 29 21 49t52 20z" />
    <glyph glyph-name="uni1EAD" unicode="&#x1ead;" horiz-adv-x="544" 
d="M491 0h-114v28q-57 -43 -119 -43q-97 0 -165 69t-68 168q0 98 68 167t165 69q62 0 119 -43v28h114v-443zM258 355q-52 0 -85 -37.5t-33 -95.5q0 -59 33.5 -96.5t86.5 -37.5t86 37.5t33 96.5q0 60 -33 96.5t-88 36.5zM259 -42q29 0 49.5 -21t20.5 -49q0 -29 -21 -49.5
t-50 -20.5q-30 0 -51 20.5t-21 50.5q0 29 21 49t52 20zM258 580l-89 -88l-86 43l138 151h74l138 -151l-87 -43z" />
    <glyph glyph-name="uni1EAE" unicode="&#x1eae;" horiz-adv-x="636" 
d="M267 845v-6q3 -60 50 -60q29 0 44 28q6 9 11 52l99 -8q-5 -44 -8 -57.5t-13 -31.5q-45 -80 -133 -80q-47 0 -85 25t-55 68q-9 23 -10 76l78 6l-3 2l122 169l108 -58l-154 -154zM455 164h-274l-60 -164h-124l249 667h145l249 -667h-125zM415 274l-97 268l-97 -268h194z
" />
    <glyph glyph-name="uni1EAF" unicode="&#x1eaf;" horiz-adv-x="544" 
d="M418 781l-153 -154l-77 43l123 169zM491 0h-114v28q-57 -43 -119 -43q-97 0 -165 69t-68 168q0 98 68 167t165 69q62 0 119 -43v28h114v-443zM258 355q-52 0 -85 -37.5t-33 -95.5q0 -59 33.5 -96.5t86.5 -37.5t86 37.5t33 96.5q0 60 -33 96.5t-88 36.5zM108 648l99 8
l1 -21q3 -59 50 -59q29 0 44 28q6 9 11 52l99 -8q-5 -44 -8 -57t-13 -32q-45 -80 -133 -80q-47 0 -85 25.5t-55 68.5q-9 22 -10 75z" />
    <glyph glyph-name="uni1EB0" unicode="&#x1eb0;" horiz-adv-x="636" 
d="M371 848l-57 -32l-154 154l108 58l122 -169l-3 -1l84 -7q-5 -44 -8 -57.5t-13 -31.5q-45 -80 -133 -80q-47 0 -85 25t-55 68q-9 23 -10 76l99 8q1 -10 1 -21q3 -59 50 -59q29 0 44 28q5 8 10 41zM455 164h-274l-60 -164h-124l249 667h145l249 -667h-125zM415 274l-97 268
l-97 -268h194z" />
    <glyph glyph-name="uni1EB1" unicode="&#x1eb1;" horiz-adv-x="544" 
d="M97 781l108 58l123 -169l-77 -43zM491 0h-114v28q-57 -43 -119 -43q-97 0 -165 69t-68 168q0 98 68 167t165 69q62 0 119 -43v28h114v-443zM258 355q-52 0 -85 -37.5t-33 -95.5q0 -59 33.5 -96.5t86.5 -37.5t86 37.5t33 96.5q0 60 -33 96.5t-88 36.5zM108 648l99 8l1 -21
q3 -59 50 -59q29 0 44 28q6 9 11 52l99 -8q-5 -44 -8 -57t-13 -32q-45 -80 -133 -80q-47 0 -85 25.5t-55 68.5q-9 22 -10 75z" />
    <glyph glyph-name="uni1EB2" unicode="&#x1eb2;" horiz-adv-x="636" 
d="M365 840h-98q3 -56 50 -56q29 0 44 28q6 9 11 52l99 -8q-5 -44 -8 -57.5t-13 -31.5q-45 -80 -133 -80q-47 0 -85 25t-55 68q-9 23 -10 76l96 8q1 24 17 46l9 14q10 14 10 17q0 6 -11 6q-13 0 -51 -13l-34 87q57 21 91 21q49 0 79 -24t30 -63q0 -29 -19 -59l-15 -24
q-5 -7 -5 -22q0 -5 1 -10zM455 164h-274l-60 -164h-124l249 667h145l249 -667h-125zM415 274l-97 268l-97 -268h194z" />
    <glyph glyph-name="uni1EB3" unicode="&#x1eb3;" horiz-adv-x="544" 
d="M491 0h-114v28q-57 -43 -119 -43q-97 0 -165 69t-68 168q0 98 68 167t165 69q62 0 119 -43v28h114v-443zM258 355q-52 0 -85 -37.5t-33 -95.5q0 -59 33.5 -96.5t86.5 -37.5t86 37.5t33 96.5q0 60 -33 96.5t-88 36.5zM108 648l99 8l1 -21q3 -59 50 -59q29 0 44 28
q6 9 11 52l99 -8q-5 -44 -8 -57t-13 -32q-45 -80 -133 -80q-47 0 -85 25.5t-55 68.5q-9 22 -10 75zM306 665h-103q1 32 3.5 42.5t14.5 27.5l9 14q10 14 10 17q0 6 -11 6q-13 0 -51 -13l-34 86q59 22 91 22q49 0 79 -24t30 -63q0 -31 -19 -59l-15 -24q-5 -7 -5 -22
q0 -5 1 -10z" />
    <glyph glyph-name="uni1EB4" unicode="&#x1eb4;" horiz-adv-x="636" 
d="M455 164h-274l-60 -164h-124l249 667h145l249 -667h-125zM415 274l-97 268l-97 -268h194zM166 856l99 8q1 -9 1 -21q3 -59 50 -59q29 0 45 28q5 9 11 52l99 -8q-7 -62 -22 -89q-45 -80 -133 -80q-47 0 -85 25.5t-55 68.5q-9 22 -10 75zM380 1020l95 -22q-3 -43 -10 -59
q-11 -29 -34.5 -45t-54.5 -16q-30 0 -76 21q-26 13 -32 13q-4 0 -7 -4l-6 -36l-94 23q5 45 15 63q26 56 86 56q25 0 77 -23q23 -11 31 -11q5 0 6.5 5t3.5 35z" />
    <glyph glyph-name="uni1EB5" unicode="&#x1eb5;" horiz-adv-x="544" 
d="M491 0h-114v28q-57 -43 -119 -43q-97 0 -165 69t-68 168q0 98 68 167t165 69q62 0 119 -43v28h114v-443zM258 355q-52 0 -85 -37.5t-33 -95.5q0 -59 33.5 -96.5t86.5 -37.5t86 37.5t33 96.5q0 60 -33 96.5t-88 36.5zM320 830l95 -22q-3 -40 -10 -59q-24 -61 -89 -61
q-30 0 -76 21q-26 13 -32 13t-7 -4q-2 -12 -7 -36l-93 22q5 46 14 64q28 56 87 56q25 0 77 -23q23 -11 31 -11q4 0 5.5 5t4.5 35zM106 657l99 8l1 -21q3 -59 50 -59q29 0 44 28q5 9 11 51l99 -8q-6 -60 -21 -88q-45 -80 -133 -80q-47 0 -85 25t-55 68q-9 22 -10 76z" />
    <glyph glyph-name="uni1EB6" unicode="&#x1eb6;" horiz-adv-x="636" 
d="M455 164h-274l-60 -164h-124l249 667h145l249 -667h-125zM415 274l-97 268l-97 -268h194zM166 864l99 9q1 -10 1 -21q3 -59 50 -59q29 0 45 28q5 9 11 51l99 -8q-5 -44 -8.5 -57t-13.5 -31q-45 -80 -133 -80q-47 0 -85 25t-55 68q-9 23 -10 75zM320 -42q28 0 49 -21
t21 -49q0 -29 -21 -49.5t-50 -20.5q-30 0 -51 20.5t-21 50.5q0 29 21 49t52 20z" />
    <glyph glyph-name="uni1EB7" unicode="&#x1eb7;" horiz-adv-x="544" 
d="M491 0h-114v28q-57 -43 -119 -43q-97 0 -165 69t-68 168q0 98 68 167t165 69q62 0 119 -43v28h114v-443zM258 355q-52 0 -85 -37.5t-33 -95.5q0 -59 33.5 -96.5t86.5 -37.5t86 37.5t33 96.5q0 60 -33 96.5t-88 36.5zM259 -42q29 0 49.5 -21t20.5 -49q0 -29 -21 -49.5
t-50 -20.5q-30 0 -51 20.5t-21 50.5q0 29 21 49t52 20zM106 665l99 8l1 -21q3 -59 50 -59q29 0 44 28q5 9 11 52l99 -8q-6 -61 -21 -89q-45 -80 -133 -80q-47 0 -85 25t-55 68q-9 23 -10 76z" />
    <glyph glyph-name="uni1EB8" unicode="&#x1eb8;" horiz-adv-x="483" 
d="M442 558h-254v-165h226v-110h-226v-173h263v-110h-381v667h372v-109zM276 -42q28 0 49 -21t21 -49q0 -29 -21 -49.5t-50 -20.5q-30 0 -51 20.5t-21 50.5q0 29 21 49t52 20z" />
    <glyph glyph-name="uni1EB9" unicode="&#x1eb9;" horiz-adv-x="493" 
d="M468 179h-326q25 -91 111 -91q59 0 94 37q4 3 23 31l96 -40q-20 -35 -31.5 -49t-33.5 -32q-64 -50 -148 -50q-97 0 -162.5 68t-65.5 169q0 99 65 167.5t159 68.5q73 0 129.5 -43.5t78.5 -115.5q12 -42 12 -88q0 -15 -1 -32zM142 264h213q-30 93 -106 93q-83 0 -107 -93z
M255 -42q29 0 49.5 -21t20.5 -49q0 -29 -21 -49.5t-50 -20.5q-30 0 -51 20.5t-21 50.5q0 29 21 49t52 20z" />
    <glyph glyph-name="uni1EBA" unicode="&#x1eba;" horiz-adv-x="483" 
d="M442 558h-254v-165h226v-110h-226v-173h263v-110h-381v667h372v-109zM322 701h-103q2 32 4.5 42.5t13.5 27.5l10 14q9 14 9 17q0 6 -11 6q-12 0 -50 -13l-34 87q55 21 90 21q49 0 79 -24t30 -63q0 -30 -18 -59l-16 -24q-4 -8 -4 -22v-10z" />
    <glyph glyph-name="uni1EBB" unicode="&#x1ebb;" horiz-adv-x="493" 
d="M468 179h-326q25 -91 111 -91q59 0 94 37q4 3 23 31l96 -40q-20 -35 -31.5 -49t-33.5 -32q-64 -50 -148 -50q-97 0 -162.5 68t-65.5 169q0 99 65 167.5t159 68.5q73 0 129.5 -43.5t78.5 -115.5q12 -42 12 -88q0 -15 -1 -32zM142 264h213q-30 93 -106 93q-83 0 -107 -93z
M308 496h-102q1 32 3.5 42.5t13.5 27.5l10 14q10 14 10 17q0 6 -11 6q-13 0 -51 -13l-34 87q56 21 91 21q49 0 79 -24t30 -63q0 -30 -19 -59l-15 -24q-5 -8 -5 -22v-10z" />
    <glyph glyph-name="uni1EBC" unicode="&#x1ebc;" horiz-adv-x="483" 
d="M442 558h-254v-165h226v-110h-226v-173h263v-110h-381v667h372v-109zM303 865l95 -23q-3 -42 -10 -59q-23 -60 -89 -60q-30 0 -75 21q-28 12 -33 12q-4 0 -7 -4q-2 -12 -6 -35l-94 22q5 42 15 63q26 56 86 56q26 0 77 -22q23 -11 31 -11q5 0 6.5 5t3.5 35z" />
    <glyph glyph-name="uni1EBD" unicode="&#x1ebd;" horiz-adv-x="493" 
d="M468 179h-326q25 -91 111 -91q59 0 94 37q4 3 23 31l96 -40q-20 -35 -31.5 -49t-33.5 -32q-64 -50 -148 -50q-97 0 -162.5 68t-65.5 169q0 99 65 167.5t159 68.5q73 0 129.5 -43.5t78.5 -115.5q12 -42 12 -88q0 -15 -1 -32zM142 264h213q-30 93 -106 93q-83 0 -107 -93z
M308 665l96 -22q-3 -40 -10 -59q-24 -61 -89 -61q-30 0 -76 21q-26 13 -32 13t-7 -4q-3 -12 -7 -36l-93 22q4 43 14 64q28 56 86 56q26 0 78 -23q23 -11 31 -11q5 0 6 5t3 35z" />
    <glyph glyph-name="uni1EBE" unicode="&#x1ebe;" horiz-adv-x="483" 
d="M387 776l38 -41l-87 -43l-88 88l-89 -88l-86 43l138 151h74l35 -39l80 111l108 -58zM442 558h-254v-165h226v-110h-226v-173h263v-110h-381v667h372v-109z" />
    <glyph glyph-name="uni1EBF" unicode="&#x1ebf;" horiz-adv-x="493" 
d="M312 639l121 166l108 -58l-154 -154l-67 38l103 -113l-86 -43l-89 88l-88 -88l-86 43l138 151h73zM468 179h-326q25 -91 111 -91q59 0 94 37q4 3 23 31l96 -40q-20 -35 -31.5 -49t-33.5 -32q-64 -50 -148 -50q-97 0 -162.5 68t-65.5 169q0 99 65 167.5t159 68.5
q73 0 129.5 -43.5t78.5 -115.5q12 -42 12 -88q0 -15 -1 -32zM142 264h213q-30 93 -106 93q-83 0 -107 -93z" />
    <glyph glyph-name="uni1EC0" unicode="&#x1ec0;" horiz-adv-x="483" 
d="M442 558h-254v-165h226v-110h-226v-173h263v-110h-381v667h372v-109zM296 900l108 58l122 -168l-76 -44zM250 780l-89 -88l-86 43l138 151h74l137 -151l-86 -43z" />
    <glyph glyph-name="uni1EC1" unicode="&#x1ec1;" horiz-adv-x="493" 
d="M468 179h-326q25 -91 111 -91q59 0 94 37q4 3 23 31l96 -40q-20 -35 -31.5 -49t-33.5 -32q-64 -50 -148 -50q-97 0 -162.5 68t-65.5 169q0 99 65 167.5t159 68.5q73 0 129.5 -43.5t78.5 -115.5q12 -42 12 -88q0 -15 -1 -32zM142 264h213q-30 93 -106 93q-83 0 -107 -93z
M227 748l107 58l123 -169l-77 -44zM248 564l-88 -89l-86 43l138 151h73l138 -151l-86 -43z" />
    <glyph glyph-name="uni1EC2" unicode="&#x1ec2;" horiz-adv-x="483" 
d="M442 558h-254v-165h226v-110h-226v-173h263v-110h-381v667h372v-109zM410 751l15 -16l-87 -43l-88 88l-89 -88l-86 43l138 151h74l76 -84q6 12 11 19l9 13q10 15 10 18q0 6 -11 6q-13 0 -50 -13l-34 86q56 22 90 22q49 0 79 -24t30 -63q0 -30 -18 -59l-16 -24
q-4 -6 -4 -32h-49z" />
    <glyph glyph-name="uni1EC3" unicode="&#x1ec3;" horiz-adv-x="493" 
d="M468 179h-326q25 -91 111 -91q59 0 94 37q4 3 23 31l96 -40q-20 -35 -31.5 -49t-33.5 -32q-64 -50 -148 -50q-97 0 -162.5 68t-65.5 169q0 99 65 167.5t159 68.5q73 0 129.5 -43.5t78.5 -115.5q12 -42 12 -88q0 -15 -1 -32zM142 264h213q-30 93 -106 93q-83 0 -107 -93z
M285 669l41 -44q1 21 17 43l9 13q10 14 10 17q0 7 -11 7q-13 0 -50 -13l-34 86q56 22 90 22q49 0 79 -24t30 -63q0 -31 -19 -59l-15 -24q-2 -4 -4 -11v-11v-10h-77l72 -80l-86 -43l-89 89l-88 -89l-86 43l138 151h73z" />
    <glyph glyph-name="uni1EC4" unicode="&#x1ec4;" horiz-adv-x="483" 
d="M442 558h-254v-165h226v-110h-226v-173h263v-110h-381v667h372v-109zM250 763l-89 -88l-86 43l138 151h74l138 -151l-87 -43zM311 1020l96 -22q-5 -43 -11 -59q-11 -29 -34 -45t-54 -16q-30 0 -76 21q-27 13 -33 13q-5 0 -6 -4q-1 0 -7 -36l-93 23q4 42 14 63
q26 56 86 56q26 0 78 -23q23 -11 30 -11q5 0 6.5 5t3.5 35z" />
    <glyph glyph-name="uni1EC5" unicode="&#x1ec5;" horiz-adv-x="493" 
d="M468 179h-326q25 -91 111 -91q59 0 94 37q4 3 23 31l96 -40q-20 -35 -31.5 -49t-33.5 -32q-64 -50 -148 -50q-97 0 -162.5 68t-65.5 169q0 99 65 167.5t159 68.5q73 0 129.5 -43.5t78.5 -115.5q12 -42 12 -88q0 -15 -1 -32zM142 264h213q-30 93 -106 93q-83 0 -107 -93z
M248 564l-88 -89l-86 43l138 151h73l138 -151l-86 -43zM310 830l95 -22q-3 -40 -10 -59q-10 -28 -34 -44.5t-55 -16.5q-30 0 -76 21q-26 13 -32 13q-4 0 -7 -4l-6 -36l-94 22q5 46 14 64q28 56 87 56q25 0 77 -23q23 -11 31 -11q5 0 6.5 5t3.5 35z" />
    <glyph glyph-name="uni1EC6" unicode="&#x1ec6;" horiz-adv-x="483" 
d="M442 558h-254v-165h226v-110h-226v-173h263v-110h-381v667h372v-109zM261 780l-88 -88l-87 43l139 151h73l138 -151l-86 -43zM276 -42q28 0 49 -21t21 -49q0 -29 -21 -49.5t-50 -20.5q-30 0 -51 20.5t-21 50.5q0 29 21 49t52 20z" />
    <glyph glyph-name="uni1EC7" unicode="&#x1ec7;" horiz-adv-x="493" 
d="M468 179h-326q25 -91 111 -91q59 0 94 37q4 3 23 31l96 -40q-20 -35 -31.5 -49t-33.5 -32q-64 -50 -148 -50q-97 0 -162.5 68t-65.5 169q0 99 65 167.5t159 68.5q73 0 129.5 -43.5t78.5 -115.5q12 -42 12 -88q0 -15 -1 -32zM142 264h213q-30 93 -106 93q-83 0 -107 -93z
M255 -42q29 0 49.5 -21t20.5 -49q0 -29 -21 -49.5t-50 -20.5q-30 0 -51 20.5t-21 50.5q0 29 21 49t52 20zM253 580l-88 -88l-87 43l139 151h73l138 -151l-86 -43z" />
    <glyph glyph-name="uni1EC8" unicode="&#x1ec8;" horiz-adv-x="258" 
d="M188 667v-667h-118v667h118zM190 701h-102q1 32 3.5 42.5t13.5 27.5l10 14q10 14 10 17q0 6 -11 6q-13 0 -51 -13l-34 87q58 21 91 21q49 0 79 -24t30 -63q0 -30 -19 -59l-15 -24q-5 -7 -5 -22v-10z" />
    <glyph glyph-name="uni1EC9" unicode="&#x1ec9;" horiz-adv-x="221" 
d="M168 443v-443h-114v443h114zM172 496h-103q2 32 4.5 42.5t13.5 27.5l10 14l5 7q5 6 5 10q0 6 -11 6q-13 0 -51 -13l-34 87q57 21 91 21q49 0 79 -24t30 -63q0 -30 -19 -59l-15 -24q-5 -8 -5 -22v-10z" />
    <glyph glyph-name="uni1ECA" unicode="&#x1eca;" horiz-adv-x="258" 
d="M188 667v-667h-118v667h118zM131 -42q29 0 49.5 -21t20.5 -49q0 -29 -21 -49.5t-50 -20.5q-30 0 -51 20.5t-21 50.5q0 29 21 49t52 20z" />
    <glyph glyph-name="uni1ECB" unicode="&#x1ecb;" horiz-adv-x="221" 
d="M167 443v-443h-114v443h114zM112 664q28 0 49 -21t21 -49q0 -29 -21 -49.5t-50 -20.5q-30 0 -51 20.5t-21 50.5q0 29 21 49t52 20zM112 -42q28 0 49 -21t21 -49q0 -29 -21 -49.5t-50 -20.5q-30 0 -51 20.5t-21 50.5q0 29 21 49t52 20z" />
    <glyph glyph-name="uni1ECC" unicode="&#x1ecc;" horiz-adv-x="762" 
d="M381 682q143 0 246 -102.5t103 -246.5t-103 -246t-249 -102q-143 0 -244.5 104t-101.5 250q0 139 104 241t245 102zM379 570q-95 0 -161 -70t-66 -171q0 -94 68 -163t161 -69q95 0 162 69.5t67 166.5q0 99 -67 168t-164 69zM383 -42q29 0 49.5 -21t20.5 -49
q0 -29 -21 -49.5t-50 -20.5q-30 0 -51 20.5t-21 50.5q0 29 21 49t52 20z" />
    <glyph glyph-name="uni1ECD" unicode="&#x1ecd;" horiz-adv-x="521" 
d="M264 458q97 0 164.5 -69t67.5 -167q0 -100 -68 -168.5t-167 -68.5q-100 0 -168 69t-68 170q0 99 69 166.5t170 67.5zM258 355q-52 0 -85 -37.5t-33 -95.5q0 -59 33.5 -96.5t87.5 -37.5q53 0 86.5 37.5t33.5 96.5q0 60 -34 96.5t-89 36.5zM262 -42q28 0 49 -21t21 -49
q0 -29 -21 -49.5t-50 -20.5q-30 0 -51 20.5t-21 50.5q0 29 21 49t52 20z" />
    <glyph glyph-name="uni1ECE" unicode="&#x1ece;" horiz-adv-x="762" 
d="M381 682q143 0 246 -102.5t103 -246.5t-103 -246t-249 -102q-143 0 -244.5 104t-101.5 250q0 139 104 241t245 102zM379 570q-95 0 -161 -70t-66 -171q0 -94 68 -163t161 -69q95 0 162 69.5t67 166.5q0 99 -67 168t-164 69zM442 701h-102q1 32 3.5 42.5t13.5 27.5l10 14
q10 14 10 17q0 6 -11 6q-13 0 -51 -13l-34 87q55 21 91 21q49 0 79 -24t30 -63q0 -30 -19 -59l-15 -24q-5 -7 -5 -22v-10z" />
    <glyph glyph-name="uni1ECF" unicode="&#x1ecf;" horiz-adv-x="521" 
d="M264 458q97 0 164.5 -69t67.5 -167q0 -100 -68 -168.5t-167 -68.5q-100 0 -168 69t-68 170q0 99 69 166.5t170 67.5zM258 355q-52 0 -85 -37.5t-33 -95.5q0 -59 33.5 -96.5t87.5 -37.5q53 0 86.5 37.5t33.5 96.5q0 60 -34 96.5t-89 36.5zM322 496h-103q2 32 4.5 42.5
t13.5 27.5l10 14q9 14 9 17q0 6 -11 6q-12 0 -50 -13l-34 87q56 21 90 21q49 0 79 -24t30 -63q0 -30 -18 -59l-16 -24q-4 -8 -4 -22v-10z" />
    <glyph glyph-name="uni1ED0" unicode="&#x1ed0;" horiz-adv-x="762" 
d="M518 776l38 -41l-87 -43l-88 83l-89 -83l-86 43l138 151h74l35 -39l80 111l108 -58zM381 682q143 0 246 -102.5t103 -246.5t-103 -246t-249 -102q-143 0 -244.5 104t-101.5 250q0 139 104 241t245 102zM379 570q-95 0 -161 -70t-66 -171q0 -94 68 -163t161 -69
q95 0 162 69.5t67 166.5q0 99 -67 168t-164 69z" />
    <glyph glyph-name="uni1ED1" unicode="&#x1ed1;" horiz-adv-x="521" 
d="M325 639l120 166l108 -58l-154 -154l-67 38l104 -113l-87 -43l-88 88l-89 -88l-86 43l138 151h74zM264 458q97 0 164.5 -69t67.5 -167q0 -100 -68 -168.5t-167 -68.5q-100 0 -168 69t-68 170q0 99 69 166.5t170 67.5zM258 355q-52 0 -85 -37.5t-33 -95.5
q0 -59 33.5 -96.5t87.5 -37.5q53 0 86.5 37.5t33.5 96.5q0 60 -34 96.5t-89 36.5z" />
    <glyph glyph-name="uni1ED2" unicode="&#x1ed2;" horiz-adv-x="762" 
d="M427 900l108 58l123 -168l-77 -44zM381 780l-89 -88l-86 43l138 151h74l138 -151l-87 -43zM381 682q143 0 246 -102.5t103 -246.5t-103 -246t-249 -102q-143 0 -244.5 104t-101.5 250q0 139 104 241t245 102zM379 570q-95 0 -161 -70t-66 -171q0 -94 68 -163t161 -69
q95 0 162 69.5t67 166.5q0 99 -67 168t-164 69z" />
    <glyph glyph-name="uni1ED3" unicode="&#x1ed3;" horiz-adv-x="521" 
d="M239 748l107 58l123 -169l-76 -44zM261 564l-89 -89l-86 43l138 151h74l138 -151l-87 -43zM264 458q97 0 164.5 -69t67.5 -167q0 -100 -68 -168.5t-167 -68.5q-100 0 -168 69t-68 170q0 99 69 166.5t170 67.5zM258 355q-52 0 -85 -37.5t-33 -95.5q0 -59 33.5 -96.5
t87.5 -37.5q53 0 86.5 37.5t33.5 96.5q0 60 -34 96.5t-89 36.5z" />
    <glyph glyph-name="uni1ED4" unicode="&#x1ed4;" horiz-adv-x="762" 
d="M541 751l15 -16l-87 -43l-88 88l-89 -88l-86 43l138 151h74l76 -84q6 12 11 19l10 13q9 14 9 18q0 6 -11 6q-13 0 -50 -13l-34 86q56 22 90 22q49 0 79 -24t30 -63q0 -30 -18 -59l-16 -24q-4 -8 -4 -22v-10h-49zM381 682q143 0 246 -102.5t103 -246.5t-103 -246
t-249 -102q-143 0 -244.5 104t-101.5 250q0 139 104 241t245 102zM379 570q-95 0 -161 -70t-66 -171q0 -94 68 -163t161 -69q95 0 162 69.5t67 166.5q0 99 -67 168t-164 69z" />
    <glyph glyph-name="uni1ED5" unicode="&#x1ed5;" horiz-adv-x="521" 
d="M298 669l40 -44q1 19 17 43l9 13q10 15 10 17q0 7 -11 7q-12 0 -50 -13l-34 86q57 22 90 22q49 0 79 -24t30 -63q0 -30 -18 -59l-16 -24q-4 -8 -4 -22v-10h-77l73 -80l-87 -43l-88 89l-89 -89l-86 43l138 151h74zM264 458q97 0 164.5 -69t67.5 -167q0 -100 -68 -168.5
t-167 -68.5q-100 0 -168 69t-68 170q0 99 69 166.5t170 67.5zM258 355q-52 0 -85 -37.5t-33 -95.5q0 -59 33.5 -96.5t87.5 -37.5q53 0 86.5 37.5t33.5 96.5q0 60 -34 96.5t-89 36.5z" />
    <glyph glyph-name="uni1ED6" unicode="&#x1ed6;" horiz-adv-x="762" 
d="M381 682q143 0 246 -102.5t103 -246.5t-103 -246t-249 -102q-143 0 -244.5 104t-101.5 250q0 139 104 241t245 102zM379 570q-95 0 -161 -70t-66 -171q0 -94 68 -163t161 -69q95 0 162 69.5t67 166.5q0 99 -67 168t-164 69zM381 763l-89 -88l-86 43l138 151h74l138 -151
l-87 -43zM442 1020l96 -22q-3 -40 -10 -59q-24 -61 -89 -61q-30 0 -76 21q-26 13 -32 13t-7 -4q-3 -12 -7 -36l-93 23q4 42 14 63q28 56 86 56q26 0 78 -23q23 -11 31 -11q5 0 6 5t3 35z" />
    <glyph glyph-name="uni1ED7" unicode="&#x1ed7;" horiz-adv-x="521" 
d="M261 564l-89 -89l-86 43l138 151h74l138 -151l-87 -43zM264 458q97 0 164.5 -69t67.5 -167q0 -100 -68 -168.5t-167 -68.5q-100 0 -168 69t-68 170q0 99 69 166.5t170 67.5zM258 355q-52 0 -85 -37.5t-33 -95.5q0 -59 33.5 -96.5t87.5 -37.5q53 0 86.5 37.5t33.5 96.5
q0 60 -34 96.5t-89 36.5zM322 830l95 -22q-3 -43 -10 -59q-11 -29 -34.5 -45t-54.5 -16q-29 0 -75 21q-27 13 -33 13q-4 0 -7 -4l-6 -36l-94 22q5 43 15 64q26 56 86 56q25 0 77 -23q25 -11 31 -11q5 0 6.5 5t3.5 35z" />
    <glyph glyph-name="uni1ED8" unicode="&#x1ed8;" horiz-adv-x="762" 
d="M381 780l-89 -88l-86 43l138 151h74l138 -151l-87 -43zM381 682q143 0 246 -102.5t103 -246.5t-103 -246t-249 -102q-143 0 -244.5 104t-101.5 250q0 139 104 241t245 102zM379 570q-95 0 -161 -70t-66 -171q0 -94 68 -163t161 -69q95 0 162 69.5t67 166.5q0 99 -67 168
t-164 69zM383 -42q29 0 49.5 -21t20.5 -49q0 -29 -21 -49.5t-50 -20.5q-30 0 -51 20.5t-21 50.5q0 29 21 49t52 20z" />
    <glyph glyph-name="uni1ED9" unicode="&#x1ed9;" horiz-adv-x="521" 
d="M261 580l-89 -88l-86 43l138 151h74l138 -151l-87 -43zM264 458q97 0 164.5 -69t67.5 -167q0 -100 -68 -168.5t-167 -68.5q-100 0 -168 69t-68 170q0 99 69 166.5t170 67.5zM258 355q-52 0 -85 -37.5t-33 -95.5q0 -59 33.5 -96.5t87.5 -37.5q53 0 86.5 37.5t33.5 96.5
q0 60 -34 96.5t-89 36.5zM262 -42q28 0 49 -21t21 -49q0 -29 -21 -49.5t-50 -20.5q-30 0 -51 20.5t-21 50.5q0 29 21 49t52 20z" />
    <glyph glyph-name="uni1EDA" unicode="&#x1eda;" horiz-adv-x="772" 
d="M538 845l-154 -154l-76 44l122 168zM600 723l87 43q30 -21 43 -37q30 -39 30 -91q0 -75 -79 -129q49 -86 49 -177q0 -142 -103 -244.5t-246 -102.5t-246 102.5t-103 245.5t102.5 246t245.5 103q65 0 127.5 -25t109.5 -69q41 20 41 53q0 21 -15 42q-7 9 -43 40zM379 570
q-95 0 -161 -70t-66 -171q0 -94 68 -163t161 -69q95 0 162 69.5t67 166.5q0 99 -67 168t-164 69z" />
    <glyph glyph-name="uni1EDB" unicode="&#x1edb;" horiz-adv-x="566" 
d="M404 645l-154 -154l-77 44l123 168zM400 499l87 44q32 -24 43 -38q30 -38 30 -90q0 -75 -73 -126q9 -36 9 -67q0 -100 -68 -168.5t-167 -68.5q-100 0 -168 68.5t-68 168.5q0 99 68 167.5t167 68.5q110 0 179 -80q19 15 19 39q0 23 -15 42q-7 9 -43 40zM258 355
q-52 0 -85 -37.5t-33 -95.5q0 -59 33.5 -96.5t87.5 -37.5q53 0 86.5 37.5t33.5 96.5q0 60 -34 96.5t-89 36.5z" />
    <glyph glyph-name="uni1EDC" unicode="&#x1edc;" horiz-adv-x="772" 
d="M224 845l107 58l123 -168l-76 -44zM600 723l87 43q30 -21 43 -37q30 -39 30 -91q0 -75 -79 -129q49 -86 49 -177q0 -142 -103 -244.5t-246 -102.5t-246 102.5t-103 245.5t102.5 246t245.5 103q65 0 127.5 -25t109.5 -69q41 20 41 53q0 21 -15 42q-7 9 -43 40zM379 570
q-95 0 -161 -70t-66 -171q0 -94 68 -163t161 -69q95 0 162 69.5t67 166.5q0 99 -67 168t-164 69z" />
    <glyph glyph-name="uni1EDD" unicode="&#x1edd;" horiz-adv-x="566" 
d="M104 645l107 58l123 -168l-77 -44zM400 499l87 44q32 -24 43 -38q30 -38 30 -90q0 -75 -73 -126q9 -36 9 -67q0 -100 -68 -168.5t-167 -68.5q-100 0 -168 68.5t-68 168.5q0 99 68 167.5t167 68.5q110 0 179 -80q19 15 19 39q0 23 -15 42q-7 9 -43 40zM258 355
q-52 0 -85 -37.5t-33 -95.5q0 -59 33.5 -96.5t87.5 -37.5q53 0 86.5 37.5t33.5 96.5q0 60 -34 96.5t-89 36.5z" />
    <glyph glyph-name="uni1EDE" unicode="&#x1ede;" horiz-adv-x="772" 
d="M600 723l87 43q30 -21 43 -37q30 -39 30 -91q0 -75 -79 -129q49 -86 49 -177q0 -142 -103 -244.5t-246 -102.5t-246 102.5t-103 245.5t102.5 246t245.5 103q65 0 127.5 -25t109.5 -69q41 20 41 53q0 21 -15 42q-7 9 -43 40zM379 570q-95 0 -161 -70t-66 -171
q0 -94 68 -163t161 -69q95 0 162 69.5t67 166.5q0 99 -67 168t-164 69zM449 701h-103q1 32 3.5 42.5t13.5 27.5l10 14q10 14 10 17q0 6 -11 6q-13 0 -51 -13l-34 87q55 21 91 21q49 0 79 -24t30 -63q0 -30 -19 -59l-15 -24q-5 -7 -5 -22q0 -5 1 -10z" />
    <glyph glyph-name="uni1EDF" unicode="&#x1edf;" horiz-adv-x="566" 
d="M400 499l87 44q32 -24 43 -38q30 -38 30 -90q0 -75 -73 -126q9 -36 9 -67q0 -100 -68 -168.5t-167 -68.5q-100 0 -168 68.5t-68 168.5q0 99 68 167.5t167 68.5q110 0 179 -80q19 15 19 39q0 23 -15 42q-7 9 -43 40zM258 355q-52 0 -85 -37.5t-33 -95.5q0 -59 33.5 -96.5
t87.5 -37.5q53 0 86.5 37.5t33.5 96.5q0 60 -34 96.5t-89 36.5zM327 496h-103q1 32 3.5 42.5t14.5 27.5l9 14q10 14 10 17q0 6 -11 6q-12 0 -50 -13l-35 87q57 21 91 21q49 0 79 -24t30 -63q0 -29 -19 -59l-15 -24q-2 -2 -4 -11v-21z" />
    <glyph glyph-name="uni1EE0" unicode="&#x1ee0;" horiz-adv-x="772" 
d="M600 723l87 43q30 -21 43 -37q30 -39 30 -91q0 -75 -79 -129q49 -86 49 -177q0 -142 -103 -244.5t-246 -102.5t-246 102.5t-103 245.5t102.5 246t245.5 103q65 0 127.5 -25t109.5 -69q41 20 41 53q0 21 -15 42q-7 9 -43 40zM379 570q-95 0 -161 -70t-66 -171
q0 -94 68 -163t161 -69q95 0 162 69.5t67 166.5q0 99 -67 168t-164 69zM442 865l95 -23q-3 -38 -10 -59q-11 -28 -34.5 -44t-54.5 -16q-30 0 -76 21q-28 12 -32 12q-6 0 -7 -4q-2 -12 -7 -35l-93 22q5 45 14 63q28 56 87 56q25 0 77 -22q23 -11 31 -11q4 0 5.5 5t4.5 35z
" />
    <glyph glyph-name="uni1EE1" unicode="&#x1ee1;" horiz-adv-x="566" 
d="M400 499l87 44q32 -24 43 -38q30 -38 30 -90q0 -75 -73 -126q9 -36 9 -67q0 -100 -68 -168.5t-167 -68.5q-100 0 -168 68.5t-68 168.5q0 99 68 167.5t167 68.5q110 0 179 -80q19 15 19 39q0 23 -15 42q-7 9 -43 40zM258 355q-52 0 -85 -37.5t-33 -95.5q0 -59 33.5 -96.5
t87.5 -37.5q53 0 86.5 37.5t33.5 96.5q0 60 -34 96.5t-89 36.5zM322 665l95 -22q-3 -43 -10 -59q-11 -29 -34.5 -45t-54.5 -16q-29 0 -75 21q-27 13 -33 13q-4 0 -7 -4l-6 -36l-94 22q5 43 15 64q26 56 86 56q25 0 77 -23q25 -11 31 -11q5 0 6.5 5t3.5 35z" />
    <glyph glyph-name="uni1EE2" unicode="&#x1ee2;" horiz-adv-x="772" 
d="M600 723l87 43q30 -21 43 -37q30 -39 30 -91q0 -75 -79 -129q49 -86 49 -177q0 -142 -103 -244.5t-246 -102.5t-246 102.5t-103 245.5t102.5 246t245.5 103q65 0 127.5 -25t109.5 -69q41 20 41 53q0 21 -15 42q-7 9 -43 40zM379 570q-95 0 -161 -70t-66 -171
q0 -94 68 -163t161 -69q95 0 162 69.5t67 166.5q0 99 -67 168t-164 69zM382 -42q28 0 49 -21t21 -49q0 -29 -21 -49.5t-50 -20.5q-30 0 -51 20.5t-21 50.5q0 29 21 49t52 20z" />
    <glyph glyph-name="uni1EE3" unicode="&#x1ee3;" horiz-adv-x="566" 
d="M400 499l87 44q32 -24 43 -38q30 -38 30 -90q0 -75 -73 -126q9 -36 9 -67q0 -100 -68 -168.5t-167 -68.5q-100 0 -168 68.5t-68 168.5q0 99 68 167.5t167 68.5q110 0 179 -80q19 15 19 39q0 23 -15 42q-7 9 -43 40zM258 355q-52 0 -85 -37.5t-33 -95.5q0 -59 33.5 -96.5
t87.5 -37.5q53 0 86.5 37.5t33.5 96.5q0 60 -34 96.5t-89 36.5zM262 -42q28 0 49 -21t21 -49q0 -29 -21 -49.5t-50 -20.5q-30 0 -51 20.5t-21 50.5q0 29 21 49t52 20z" />
    <glyph glyph-name="uni1EE4" unicode="&#x1ee4;" horiz-adv-x="639" 
d="M188 667v-410q0 -78 18 -105q15 -24 47 -39.5t66 -15.5q35 0 67 15.5t47 39.5q18 27 18 105v410h118v-429q0 -102 -46 -159q-34 -44 -88.5 -69t-114.5 -25q-61 0 -115.5 25t-88.5 69q-46 57 -46 159v429h118zM321 -42q29 0 49.5 -21t20.5 -49q0 -29 -21 -49.5t-50 -20.5
q-30 0 -51 20.5t-21 50.5q0 29 21 49t52 20z" />
    <glyph glyph-name="uni1EE5" unicode="&#x1ee5;" horiz-adv-x="509" 
d="M342 0v23q-48 -38 -103 -38q-83 0 -137 59q-49 52 -49 161v238h114v-231q0 -75 22 -100q21 -24 59 -24q50 0 73 31q21 25 21 103v221h114v-443h-114zM256 -42q28 0 49 -21t21 -49q0 -29 -21 -49.5t-50 -20.5q-30 0 -51 20.5t-21 50.5q0 29 21 49t52 20z" />
    <glyph glyph-name="uni1EE6" unicode="&#x1ee6;" horiz-adv-x="639" 
d="M188 667v-410q0 -78 18 -105q15 -24 47 -39.5t66 -15.5q35 0 67 15.5t47 39.5q18 27 18 105v410h118v-429q0 -102 -46 -159q-34 -44 -88.5 -69t-114.5 -25q-61 0 -115.5 25t-88.5 69q-46 57 -46 159v429h118zM378 701h-103q2 32 4.5 42.5t13.5 27.5l10 14q10 13 10 17
q0 6 -11 6q-13 0 -51 -13l-34 87q56 21 91 21q49 0 79 -24t30 -63q0 -30 -19 -59l-16 -24q-4 -8 -4 -22v-10z" />
    <glyph glyph-name="uni1EE7" unicode="&#x1ee7;" horiz-adv-x="509" 
d="M342 0v23q-48 -38 -103 -38q-83 0 -137 59q-49 52 -49 161v238h114v-231q0 -75 22 -100q21 -24 59 -24q50 0 73 31q21 25 21 103v221h114v-443h-114zM313 496h-103q2 32 4.5 42.5t13.5 27.5l10 14q10 13 10 17q0 6 -11 6q-13 0 -51 -13l-34 87q57 21 91 21q49 0 79 -24
t30 -63q0 -30 -19 -59l-16 -24q-4 -8 -4 -22v-10z" />
    <glyph glyph-name="uni1EE8" unicode="&#x1ee8;" horiz-adv-x="693" 
d="M477 845l-154 -154l-77 44l123 168zM569 667v-72q28 17 28 46q0 20 -14 42q-8 10 -44 40l87 43q32 -23 43 -37q30 -39 30 -91q0 -101 -124 -152l-6 -2v-246q0 -102 -46 -159q-34 -44 -88.5 -69t-114.5 -25q-61 0 -115.5 25t-88.5 69q-46 57 -46 159v429h118v-410
q0 -78 18 -105q15 -24 47 -39.5t66 -15.5q35 0 67 15.5t47 39.5q18 27 18 105v410h118z" />
    <glyph glyph-name="uni1EE9" unicode="&#x1ee9;" horiz-adv-x="595" 
d="M407 645l-154 -154l-76 44l122 168zM456 443v-73q30 18 30 47q0 20 -14 42q-8 10 -44 40l87 43q32 -23 43 -37q30 -39 30 -91q0 -101 -124 -152l-8 -3v-259h-114v23q-48 -38 -103 -38q-83 0 -137 59q-49 52 -49 161v238h114v-231q0 -75 22 -100q21 -24 59 -24q50 0 73 31
q21 25 21 103v221h114z" />
    <glyph glyph-name="uni1EEA" unicode="&#x1eea;" horiz-adv-x="693" 
d="M163 845l107 58l123 -168l-77 -44zM569 667v-72q28 17 28 46q0 20 -14 42q-8 10 -44 40l87 43q32 -23 43 -37q30 -39 30 -91q0 -101 -124 -152l-6 -2v-246q0 -102 -46 -159q-34 -44 -88.5 -69t-114.5 -25q-61 0 -115.5 25t-88.5 69q-46 57 -46 159v429h118v-410
q0 -78 18 -105q15 -24 47 -39.5t66 -15.5q35 0 67 15.5t47 39.5q18 27 18 105v410h118z" />
    <glyph glyph-name="uni1EEB" unicode="&#x1eeb;" horiz-adv-x="595" 
d="M93 645l107 58l123 -168l-77 -44zM456 443v-73q30 18 30 47q0 20 -14 42q-8 10 -44 40l87 43q32 -23 43 -37q30 -39 30 -91q0 -101 -124 -152l-8 -3v-259h-114v23q-48 -38 -103 -38q-83 0 -137 59q-49 52 -49 161v238h114v-231q0 -75 22 -100q21 -24 59 -24q50 0 73 31
q21 25 21 103v221h114z" />
    <glyph glyph-name="uni1EEC" unicode="&#x1eec;" horiz-adv-x="693" 
d="M569 667v-72q28 17 28 46q0 20 -14 42q-8 10 -44 40l87 43q32 -23 43 -37q30 -39 30 -91q0 -101 -124 -152l-6 -2v-246q0 -102 -46 -159q-34 -44 -88.5 -69t-114.5 -25q-61 0 -115.5 25t-88.5 69q-46 57 -46 159v429h118v-410q0 -78 18 -105q15 -24 47 -39.5t66 -15.5
q35 0 67 15.5t47 39.5q18 27 18 105v410h118zM386 701h-103q1 32 3.5 42.5t14.5 27.5l9 14q10 14 10 17q0 6 -11 6q-13 0 -51 -13l-34 87q56 21 91 21q49 0 79 -24t30 -63q0 -29 -19 -59l-15 -24q-5 -7 -5 -22q0 -5 1 -10z" />
    <glyph glyph-name="uni1EED" unicode="&#x1eed;" horiz-adv-x="595" 
d="M456 443v-73q30 18 30 47q0 20 -14 42q-8 10 -44 40l87 43q32 -23 43 -37q30 -39 30 -91q0 -101 -124 -152l-8 -3v-259h-114v23q-48 -38 -103 -38q-83 0 -137 59q-49 52 -49 161v238h114v-231q0 -75 22 -100q21 -24 59 -24q50 0 73 31q21 25 21 103v221h114zM316 496
h-103q1 32 3.5 42.5t14.5 27.5l9 14q10 14 10 17q0 6 -11 6q-12 0 -50 -13l-35 87q57 21 91 21q49 0 79 -24t30 -63q0 -29 -19 -59l-15 -24q-2 -2 -4 -11v-21z" />
    <glyph glyph-name="uni1EEE" unicode="&#x1eee;" horiz-adv-x="693" 
d="M569 667v-72q28 17 28 46q0 20 -14 42q-8 10 -44 40l87 43q32 -23 43 -37q30 -39 30 -91q0 -101 -124 -152l-6 -2v-246q0 -102 -46 -159q-34 -44 -88.5 -69t-114.5 -25q-61 0 -115.5 25t-88.5 69q-46 57 -46 159v429h118v-410q0 -78 18 -105q15 -24 47 -39.5t66 -15.5
q35 0 67 15.5t47 39.5q18 27 18 105v410h118zM382 865l96 -23q-3 -38 -10 -59q-11 -28 -34.5 -44t-54.5 -16t-76 21q-28 12 -32 12q-6 0 -7 -4q-3 -12 -7 -35l-93 22q4 42 14 63q26 56 86 56q26 0 78 -22q23 -11 30 -11q5 0 6.5 5t3.5 35z" />
    <glyph glyph-name="uni1EEF" unicode="&#x1eef;" horiz-adv-x="595" 
d="M456 443v-73q30 18 30 47q0 20 -14 42q-8 10 -44 40l87 43q32 -23 43 -37q30 -39 30 -91q0 -101 -124 -152l-8 -3v-259h-114v23q-48 -38 -103 -38q-83 0 -137 59q-49 52 -49 161v238h114v-231q0 -75 22 -100q21 -24 59 -24q50 0 73 31q21 25 21 103v221h114zM317 665
l95 -22q-3 -40 -10 -59q-10 -28 -34 -44.5t-55 -16.5q-30 0 -76 21q-26 13 -32 13t-7 -4q-2 -12 -7 -36l-93 22q5 46 14 64q28 56 87 56q25 0 77 -23q23 -11 31 -11q5 0 6 5t4 35z" />
    <glyph glyph-name="uni1EF0" unicode="&#x1ef0;" horiz-adv-x="693" 
d="M569 667v-72q28 17 28 46q0 20 -14 42q-8 10 -44 40l87 43q32 -23 43 -37q30 -39 30 -91q0 -101 -124 -152l-6 -2v-246q0 -102 -46 -159q-34 -44 -88.5 -69t-114.5 -25q-61 0 -115.5 25t-88.5 69q-46 57 -46 159v429h118v-410q0 -78 18 -105q15 -24 47 -39.5t66 -15.5
q35 0 67 15.5t47 39.5q18 27 18 105v410h118zM321 -42q29 0 49.5 -21t20.5 -49q0 -29 -21 -49.5t-50 -20.5q-30 0 -51 20.5t-21 50.5q0 29 21 49t52 20z" />
    <glyph glyph-name="uni1EF1" unicode="&#x1ef1;" horiz-adv-x="595" 
d="M456 443v-73q30 18 30 47q0 20 -14 42q-8 10 -44 40l87 43q32 -23 43 -37q30 -39 30 -91q0 -101 -124 -152l-8 -3v-259h-114v23q-48 -38 -103 -38q-83 0 -137 59q-49 52 -49 161v238h114v-231q0 -75 22 -100q21 -24 59 -24q50 0 73 31q21 25 21 103v221h114zM256 -42
q28 0 49 -21t21 -49q0 -29 -21 -49.5t-50 -20.5q-30 0 -51 20.5t-21 50.5q0 29 21 49t52 20z" />
    <glyph glyph-name="Ygrave" unicode="&#x1ef2;" horiz-adv-x="540" 
d="M119 845l108 58l123 -168l-77 -44zM211 276l-221 391h132l148 -270l148 270h132l-221 -391v-276h-118v276z" />
    <glyph glyph-name="ygrave" unicode="&#x1ef3;" horiz-adv-x="473" 
d="M87 645l107 58l123 -168l-76 -44zM174 21l-183 422h124l120 -283l125 283h123l-301 -677h-121z" />
    <glyph glyph-name="uni1EF4" unicode="&#x1ef4;" horiz-adv-x="540" 
d="M211 276l-221 391h132l148 -270l148 270h132l-221 -391v-276h-118v276zM271 -42q29 0 50 -20.5t21 -49.5t-21 -49.5t-51 -20.5t-50.5 20.5t-20.5 50.5q0 29 21 49t51 20z" />
    <glyph glyph-name="uni1EF5" unicode="&#x1ef5;" horiz-adv-x="473" 
d="M174 21l-183 422h124l120 -283l125 283h123l-301 -677h-121zM354 -42q28 0 49 -21t21 -49q0 -29 -21 -49.5t-50 -20.5q-30 0 -51 20.5t-21 50.5q0 29 21 49t52 20z" />
    <glyph glyph-name="uni1EF6" unicode="&#x1ef6;" horiz-adv-x="540" 
d="M211 276l-221 391h132l148 -270l148 270h132l-221 -391v-276h-118v276zM331 701h-103q2 32 4.5 42.5t13.5 27.5l10 14q10 14 10 17q0 6 -12 6t-50 -13l-34 87q55 21 91 21q49 0 79 -24t30 -63q0 -27 -19 -59l-16 -24q-4 -7 -4 -22v-10z" />
    <glyph glyph-name="uni1EF7" unicode="&#x1ef7;" horiz-adv-x="473" 
d="M174 21l-183 422h124l120 -283l125 283h123l-301 -677h-121zM299 496h-103q1 32 3.5 42.5t13.5 27.5l10 14q10 14 10 17q0 6 -11 6q-13 0 -51 -13l-34 87q56 21 91 21q49 0 79 -24t30 -63q0 -30 -19 -59l-15 -24q-5 -7 -5 -22q0 -5 1 -10z" />
    <glyph glyph-name="uni1EF8" unicode="&#x1ef8;" horiz-adv-x="540" 
d="M211 276l-221 391h132l148 -270l148 270h132l-221 -391v-276h-118v276zM331 865l96 -23q-3 -39 -11 -59q-23 -60 -88 -60q-31 0 -76 21q-28 12 -32 12q-6 0 -7 -4q-3 -12 -7 -35l-93 22q4 42 14 63q26 56 86 56q26 0 78 -22q23 -11 30 -11q5 0 6.5 5t3.5 35z" />
    <glyph glyph-name="uni1EF9" unicode="&#x1ef9;" horiz-adv-x="473" 
d="M174 21l-183 422h124l120 -283l125 283h123l-301 -677h-121zM299 665l95 -22q-3 -40 -10 -59q-24 -61 -89 -61q-30 0 -76 21q-26 13 -32 13t-7 -4q-2 -12 -7 -36l-93 22q5 46 14 64q28 56 87 56q25 0 77 -23q23 -11 31 -11q5 0 6 5t4 35z" />
    <glyph glyph-name="uni2002" unicode="&#x2002;" horiz-adv-x="480" 
 />
    <glyph glyph-name="uni2003" unicode="&#x2003;" horiz-adv-x="980" 
 />
    <glyph glyph-name="uni2004" unicode="&#x2004;" horiz-adv-x="313" 
 />
    <glyph glyph-name="uni2005" unicode="&#x2005;" horiz-adv-x="230" 
 />
    <glyph glyph-name="uni2006" unicode="&#x2006;" horiz-adv-x="47" 
 />
    <glyph glyph-name="uni2007" unicode="&#x2007;" horiz-adv-x="536" 
 />
    <glyph glyph-name="uni2009" unicode="&#x2009;" horiz-adv-x="105" 
 />
    <glyph glyph-name="uni200A" unicode="&#x200a;" horiz-adv-x="13" 
 />
    <glyph glyph-name="uni2011" unicode="&#x2011;" horiz-adv-x="275" 
d="M27 282h222v-104h-222v104z" />
    <glyph glyph-name="figuredash" unicode="&#x2012;" horiz-adv-x="586" 
d="M107 282h373v-104h-373v104z" />
    <glyph glyph-name="endash" unicode="&#x2013;" horiz-adv-x="586" 
d="M107 282h373v-104h-373v104z" />
    <glyph glyph-name="emdash" unicode="&#x2014;" horiz-adv-x="637" 
d="M27 282h584v-104h-584v104z" />
    <glyph glyph-name="afii00208" unicode="&#x2015;" horiz-adv-x="637" 
d="M27 282h584v-104h-584v104z" />
    <glyph glyph-name="underscoredbl" unicode="&#x2017;" horiz-adv-x="520" 
d="M-10 -53h540v-92h-540v92zM-10 -190h540v-92h-540v92z" />
    <glyph glyph-name="quoteleft" unicode="&#x2018;" horiz-adv-x="294" 
d="M151 425l-104 38l117 262l83 -33z" />
    <glyph glyph-name="quoteright" unicode="&#x2019;" horiz-adv-x="261" 
d="M120 725l105 -38l-117 -262l-84 33z" />
    <glyph glyph-name="quotesinglbase" unicode="&#x201a;" horiz-adv-x="261" 
d="M120 123l105 -38l-117 -262l-84 33z" />
    <glyph glyph-name="quotereversed" unicode="&#x201b;" horiz-adv-x="261" 
d="M140 725l97 -267l-84 -33l-117 262z" />
    <glyph glyph-name="quotedblleft" unicode="&#x201c;" horiz-adv-x="440" 
d="M298 425l-105 38l117 262l84 -33zM151 425l-104 38l117 262l83 -33z" />
    <glyph glyph-name="quotedblright" unicode="&#x201d;" horiz-adv-x="440" 
d="M143 725l104 -38l-117 -262l-83 33zM290 725l104 -38l-117 -262l-83 33z" />
    <glyph glyph-name="quotedblbase" unicode="&#x201e;" horiz-adv-x="440" 
d="M143 123l104 -38l-117 -262l-83 33zM290 123l104 -38l-117 -262l-83 33z" />
    <glyph glyph-name="dagger" unicode="&#x2020;" horiz-adv-x="554" 
d="M220 665h114v-222h142v-107h-142v-520h-114v520h-142v107h142v222z" />
    <glyph glyph-name="daggerdbl" unicode="&#x2021;" horiz-adv-x="554" 
d="M334 336v-192h142v-107h-142v-221h-114v221h-142v107h142v192h-142v107h142v222h114v-222h142v-107h-142z" />
    <glyph glyph-name="bullet" unicode="&#x2022;" horiz-adv-x="500" 
d="M253 493q64 0 110.5 -47.5t46.5 -112.5q0 -66 -47 -113t-113 -47q-67 0 -113.5 47t-46.5 114t47.5 113t115.5 46z" />
    <glyph glyph-name="ellipsis" unicode="&#x2026;" horiz-adv-x="770" 
d="M138 127q28 0 49 -20.5t21 -49.5t-21 -49.5t-50 -20.5q-30 0 -51 20.5t-21 50.5q0 29 21 49t52 20zM387 127q29 0 49.5 -20.5t20.5 -49.5t-21 -49.5t-50 -20.5q-30 0 -51 20.5t-21 50.5q0 29 21 49t52 20zM635 127q29 0 49.5 -20.5t20.5 -49.5t-21 -49.5t-50 -20.5
q-30 0 -51 20.5t-21 50.5q0 29 21 49t52 20z" />
    <glyph glyph-name="perthousand" unicode="&#x2030;" horiz-adv-x="1266" 
d="M694 403q162 0 162 -206t-160 -206q-162 0 -162 209q0 99 41 151t119 52zM695 327q-77 0 -77 -132q0 -128 77 -128t77 130t-77 130zM607 682l64 -37l-381 -660l-65 37zM200 676q163 0 163 -206t-161 -206q-162 0 -162 209q0 99 41 151t119 52zM202 600q-78 0 -78 -132
q0 -128 78 -128q77 0 77 130t-77 130zM1063 403q163 0 163 -206t-161 -206q-162 0 -162 209q0 99 41 151t119 52zM1065 327q-78 0 -78 -132q0 -128 78 -128q77 0 77 130t-77 130z" />
    <glyph glyph-name="minute" unicode="&#x2032;" horiz-adv-x="202" 
d="M53 724l103 -37l-117 -261l-82 32z" />
    <glyph glyph-name="second" unicode="&#x2033;" horiz-adv-x="349" 
d="M53 724l103 -37l-117 -261l-82 32zM199 724l103 -37l-116 -261l-83 32z" />
    <glyph glyph-name="guilsinglleft" unicode="&#x2039;" horiz-adv-x="317" 
d="M155 222l121 -150l-77 -62l-172 212l171 215l78 -61z" />
    <glyph glyph-name="guilsinglright" unicode="&#x203a;" horiz-adv-x="317" 
d="M162 222l-121 154l78 61l171 -215l-171 -212l-78 62z" />
    <glyph glyph-name="uni203E" unicode="&#x203e;" horiz-adv-x="520" 
d="M-10 850h540v-103h-540v103z" />
    <glyph glyph-name="fraction" unicode="&#x2044;" horiz-adv-x="179" 
d="M248 682l65 -37l-382 -660l-64 37z" />
    <glyph glyph-name="zerosuperior" unicode="&#x2070;" 
d="M192 809q163 0 163 -206t-161 -206q-162 0 -162 209q0 99 41 151t119 52zM194 733q-78 0 -78 -132q0 -128 78 -128q77 0 77 130t-77 130z" />
    <glyph glyph-name="foursuperior" unicode="&#x2074;" 
d="M285 774l-142 -214h67v86h83v-86h46v-74h-46v-80h-83v80h-168v65l174 264z" />
    <glyph glyph-name="fivesuperior" unicode="&#x2075;" 
d="M178 727l-10 -48q8 1 18 1q61 0 104 -40.5t43 -99.5q0 -61 -44 -102t-109 -41q-46 0 -79 21t-63 68l67 44q14 -24 22 -33q20 -24 54 -24q29 0 49 18.5t20 46.5q0 29 -19.5 48t-48.5 19q-30 0 -45 -17l-8 -8l-64 13l45 208h204v-74h-136z" />
    <glyph glyph-name="sixsuperior" unicode="&#x2076;" 
d="M214 815l65 -46l-73 -97q59 -5 96.5 -42t37.5 -91q0 -59 -43 -100.5t-105 -41.5t-105.5 41.5t-43.5 100.5q0 50 33 92zM191 598q-28 0 -46.5 -17.5t-18.5 -44.5t18.5 -45.5t46.5 -18.5t47 18.5t19 46.5q0 26 -19 43.5t-47 17.5z" />
    <glyph glyph-name="sevensuperior" unicode="&#x2077;" 
d="M244 727h-180v74h281v-56l-198 -352l-72 36z" />
    <glyph glyph-name="eightsuperior" unicode="&#x2078;" 
d="M98 617q-35 34 -35 76q0 50 38 83.5t93 33.5t92.5 -34t37.5 -83q0 -42 -35 -76q47 -38 47 -93t-40.5 -91t-101.5 -36t-102 36.5t-41 90.5q0 55 47 93zM193 577q-27 0 -43.5 -15t-16.5 -38t17 -38t44 -15q26 0 43 15t17 38q0 24 -16.5 38.5t-44.5 14.5zM193 739
q-23 0 -37.5 -13.5t-14.5 -33.5t15 -32.5t38 -12.5t37.5 13t14.5 32q0 21 -15 34t-38 13z" />
    <glyph glyph-name="ninesuperior" unicode="&#x2079;" 
d="M173 392l-65 46l72 97q-59 5 -96.5 42t-37.5 91q0 59 43 100.5t105 41.5t105.5 -41.5t43.5 -100.5q0 -49 -33 -93zM195 735q-29 0 -47.5 -18.5t-18.5 -47.5q0 -26 19 -43.5t47 -17.5t46.5 18t18.5 44q0 28 -18.5 46.5t-46.5 18.5z" />
    <glyph glyph-name="zeroinferior" unicode="&#x2080;" 
d="M192 274q163 0 163 -206t-161 -206q-162 0 -162 209q0 99 41 151t119 52zM194 198q-78 0 -78 -132q0 -128 78 -128q77 0 77 130t-77 130z" />
    <glyph glyph-name="oneinferior" unicode="&#x2081;" 
d="M250 -130h-83v297l-47 -25l-40 66l105 57h65v-395z" />
    <glyph glyph-name="twoinferior" unicode="&#x2082;" 
d="M60 -130v62l145 153q38 41 38 73q0 18 -13 28.5t-36 10.5q-28 0 -39.5 -11.5t-22.5 -50.5l-77 20q25 118 141 118q57 0 93 -32.5t36 -84.5q0 -58 -43 -104l-102 -107h154v-75h-274z" />
    <glyph glyph-name="threeinferior" unicode="&#x2083;" 
d="M150 113h37q53 0 53 42q0 20 -13.5 32t-36.5 12q-20 0 -31.5 -8.5t-30.5 -37.5l-70 37q24 37 38 50q37 34 94 34t94.5 -33t37.5 -84q0 -44 -33 -77q42 -36 42 -90q0 -56 -40.5 -92.5t-102.5 -36.5q-40 0 -72.5 17t-49.5 48q-10 18 -19 57l81 20q10 -40 22 -53t39 -13
q26 0 42.5 14.5t16.5 38.5q0 49 -61 49h-37v74z" />
    <glyph glyph-name="fourinferior" unicode="&#x2084;" 
d="M285 238l-142 -214h67v86h83v-86h46v-74h-46v-80h-83v80h-168v65l174 264z" />
    <glyph glyph-name="fiveinferior" unicode="&#x2085;" 
d="M178 191l-10 -48q8 1 18 1q61 0 104 -40.5t43 -98.5q0 -61 -44 -102t-109 -41q-46 0 -79 20.5t-63 68.5l67 44q14 -24 22 -33q19 -24 54 -24q29 0 49 18.5t20 46.5t-19.5 47t-48.5 19q-28 0 -44 -16l-1 -1l-3 -3l-5 -5l-64 13l45 208h204v-74h-136z" />
    <glyph glyph-name="sixinferior" unicode="&#x2086;" 
d="M214 279l65 -46l-73 -96q59 -5 96.5 -42t37.5 -91q0 -59 -43 -100.5t-105 -41.5t-105.5 41.5t-43.5 100.5q0 48 33 92zM191 63q-28 0 -46.5 -17.5t-18.5 -44.5t18.5 -45.5t46.5 -18.5t47 18.5t19 46.5q0 26 -19 43.5t-47 17.5z" />
    <glyph glyph-name="seveninferior" unicode="&#x2087;" 
d="M244 191h-180v74h281v-56l-198 -352l-72 36z" />
    <glyph glyph-name="eightinferior" unicode="&#x2088;" 
d="M98 81q-35 34 -35 76q0 50 38 83.5t93 33.5t92.5 -34t37.5 -83q0 -42 -35 -76q47 -38 47 -92q0 -55 -40.5 -91t-101.5 -36q-62 0 -102.5 36t-40.5 91q0 54 47 92zM193 42q-27 0 -43.5 -15t-16.5 -38t17 -38t44 -15q26 0 43 15t17 38q0 24 -16.5 38.5t-44.5 14.5zM193 203
q-23 0 -37.5 -13t-14.5 -34q0 -19 15 -31.5t38 -12.5t37.5 13t14.5 32q0 20 -15 33t-38 13z" />
    <glyph glyph-name="nineinferior" unicode="&#x2089;" 
d="M173 -144l-65 47l72 96q-59 5 -96.5 42t-37.5 91q0 59 43 100.5t105 41.5t105.5 -41.5t43.5 -100.5q0 -48 -33 -92zM195 199q-28 0 -47 -18.5t-19 -46.5q0 -26 19 -43.5t47 -17.5t46.5 18t18.5 44q0 27 -18.5 45.5t-46.5 18.5z" />
    <glyph glyph-name="franc" unicode="&#x20a3;" horiz-adv-x="746" 
d="M460 558h-232v-165h178v-110h-178v-283h-118v667h350v-109zM554 393v-29q37 32 86 32q16 0 42 -3v-102q-25 2 -41 2q-49 0 -68 -28t-19 -102v-163h-114v393h114z" />
    <glyph glyph-name="lira" unicode="&#x20a4;" horiz-adv-x="565" 
d="M265 220v-3v-15q0 -50 -27 -93h287v-109h-460v100q50 39 64 58.5t16 53.5q0 5 1 8h-81v97h64l-6 31h-58v97h43v16q0 78 32 128q26 43 75.5 68t105.5 25q127 0 193 -130l-94 -59q-25 43 -47.5 60.5t-54.5 17.5q-92 0 -92 -112v-14h208v-97h-191l7 -31h184v-97h-169z" />
    <glyph glyph-name="peseta" unicode="&#x20a7;" horiz-adv-x="604" 
d="M574 412h-58q-41 -163 -237 -160h-35v-252h-118v412h-53v93h53v162h153q198 4 237 -162h58v-93zM395 412h-151v-53h43q46 0 70.5 12t37.5 41zM244 505h151q-12 29 -36.5 41.5t-71.5 12.5h-43v-54z" />
    <glyph glyph-name="uni20AB" unicode="&#x20ab;" horiz-adv-x="555" 
d="M491 502v-502h-114v28q-58 -43 -119 -43q-97 0 -165 69t-68 168q0 98 68 167t165 69q63 0 119 -43v87h-115v102h115v63h114v-63h57v-102h-57zM258 355q-52 0 -85 -37.5t-33 -95.5q0 -59 33.5 -96.5t86.5 -37.5q52 0 85 37.5t33 96.5q0 60 -33 96.5t-87 36.5zM31 -47h512
v-103h-512v103z" />
    <glyph glyph-name="Euro" unicode="&#x20ac;" horiz-adv-x="808" 
d="M98 445h68q41 112 129 174.5t204 62.5q73 0 132 -27t117 -88l-45 -105q-55 58 -103 83t-104 25q-134 0 -202 -125h402l-42 -97h-386q-1 -6 -1 -16q0 -9 1 -15h373l-42 -97h-304q71 -123 205 -123q58 0 108.5 28.5t109.5 93.5v-153q-99 -81 -217 -81q-97 0 -179 46.5
t-128 127.5q-15 27 -28 61h-109l41 97h49v2v15v8v6h-90z" />
    <glyph glyph-name="uni20B4" unicode="&#x20b4;" horiz-adv-x="622" 
d="M73 442h305q22 21 22 46q0 37 -26 60.5t-67 23.5q-34 0 -55.5 -16t-51.5 -64l-97 60q32 51 55 74q62 56 148 56q91 0 151.5 -55t60.5 -138q0 -23 -6 -47h31v-93h-98q-23 -17 -57 -33h155v-93h-323q-4 -13 -4 -25q0 -43 30 -72.5t74 -29.5q67 0 95 61q5 11 17 60l116 -30
q-15 -63 -30 -90q-30 -53 -81.5 -82.5t-113.5 -29.5q-96 0 -161.5 61.5t-65.5 151.5q0 7 2 25h-25v93h70q17 19 39 33h-109v93z" />
    <glyph glyph-name="uni2101" unicode="&#x2101;" horiz-adv-x="932" 
d="M184 366l-36 -95h-88l154 396h95l119 -304l-53 -92l-36 95h-155zM213 441h97l-49 130zM864 322l-69 -41q-5 7 -5 8l-6 8q-21 31 -52 31q-22 0 -36 -12t-14 -30q0 -23 43 -38l38 -14q103 -38 103 -115q0 -54 -41.5 -91.5t-101.5 -37.5q-42 0 -76 20.5t-52 55.5
q-6 15 -13 41l-2 10l81 20q9 -30 9 -31q11 -40 54 -40q24 0 40.5 15t16.5 37q0 15 -12 25.5t-42 21.5l-36 13q-92 35 -92 109q0 50 38.5 83.5t95.5 33.5q78 0 120 -66q5 -9 11 -16zM666 682l64 -37l-381 -660l-65 37z" />
    <glyph glyph-name="afii61248" unicode="&#x2105;" horiz-adv-x="1048" 
d="M679 682l65 -37l-382 -660l-64 37zM446 599l-59 -55q-31 33 -54 44.5t-55 11.5q-56 0 -94.5 -38t-38.5 -93t39 -92.5t95 -37.5q44 0 81 29l29 28l59 -55l-7 -7l-7 -7q-67 -65 -156 -65q-91 0 -154.5 60.5t-63.5 146.5q0 87 63.5 147.5t155.5 60.5q49 0 86.5 -17.5
t80.5 -60.5zM771 404q89 0 153 -61t64 -146t-64 -146t-154 -61q-89 0 -152 61.5t-63 148.5q0 82 64.5 143t151.5 61zM770 327q-55 0 -92.5 -38t-37.5 -94q0 -52 39 -90t92 -38q55 0 93.5 38t38.5 92q0 55 -38.5 92.5t-94.5 37.5z" />
    <glyph glyph-name="uni2117" unicode="&#x2117;" horiz-adv-x="837" 
d="M395 272v-164h-93v450h114q80 0 119 -36q46 -41 46 -107q0 -65 -45 -107q-40 -36 -120 -36h-21zM395 358h27q35 0 51 13.5t16 43.5q0 29 -16 42.5t-51 13.5h-27v-113zM425 712q152 0 262 -112t110 -266q0 -157 -110.5 -268t-267.5 -111q-158 0 -268.5 111t-110.5 270
q0 157 112 266.5t273 109.5zM414 633q-121 0 -208 -88.5t-87 -210.5q0 -124 87.5 -212t211.5 -88q125 0 212.5 88t87.5 214q0 124 -88.5 210.5t-215.5 86.5z" />
    <glyph glyph-name="trademark" unicode="&#x2122;" horiz-adv-x="665" 
d="M188 622v-261h-55v261h-76v51h208v-51h-77zM298 361v312h52l103 -183l103 183h52v-312h-55v204l-78 -139h-43l-79 139v-204h-55z" />
    <glyph glyph-name="uni2126" unicode="&#x2126;" horiz-adv-x="794" 
d="M442 0v153q40 12 55 19q59 27 93 77t34 111q0 88 -66.5 149.5t-160.5 61.5t-160.5 -61.5t-66.5 -149.5q0 -63 36 -114.5t98 -77.5q12 -5 47 -15v-153h-285v110h113q-45 38 -69 69q-60 83 -60 181q0 132 102.5 227t244.5 95t244.5 -95t102.5 -227q0 -104 -67 -190
q-20 -25 -62 -60h113v-110h-286z" />
    <glyph glyph-name="estimated" unicode="&#x212e;" horiz-adv-x="741" 
d="M681 300h-475v-101q22 -57 45 -78q43 -38 122 -38q104 0 160 71q16 19 34 61h103q-19 -61 -32 -85q-78 -145 -266 -145q-145 0 -228.5 92t-83.5 252q0 166 89 261q87 92 226 92q113 0 192.5 -61t101.5 -165q10 -49 12 -156zM544 390v86q-44 108 -172 108
q-61 0 -96.5 -23.5t-69.5 -85.5v-85h338z" />
    <glyph glyph-name="onethird" unicode="&#x2153;" horiz-adv-x="833" 
d="M583 243h37q53 0 53 42q0 19 -13.5 31t-36.5 12q-20 0 -31.5 -8.5t-30.5 -36.5l-70 37q24 37 38 49q37 34 94 34t94.5 -33t37.5 -83q0 -44 -33 -77q42 -36 42 -90q0 -56 -40.5 -92.5t-102.5 -36.5q-86 0 -122 65q-11 21 -19 57l81 20q10 -40 22 -53t39 -13
q26 0 42.5 14.5t16.5 38.5q0 49 -61 49h-37v74zM219 272h-83v297l-47 -25l-40 66l105 57h65v-395zM534 682l65 -37l-382 -660l-64 37z" />
    <glyph glyph-name="twothirds" unicode="&#x2154;" horiz-adv-x="833" 
d="M48 272v62l145 154q38 41 38 73q0 18 -13 28.5t-36 10.5q-28 0 -39.5 -11.5t-22.5 -51.5l-77 21q25 118 141 118q57 0 93 -32.5t36 -84.5q0 -59 -43 -105l-102 -107h154v-75h-274zM582 243h37q53 0 53 42q0 20 -13.5 31.5t-36.5 11.5q-20 0 -31.5 -8.5t-29.5 -36.5
l-70 37q21 35 38 49q37 34 93 34q57 0 94.5 -33t37.5 -83q0 -45 -33 -77q42 -36 42 -90q0 -56 -40.5 -92.5t-102.5 -36.5q-85 0 -121 65q-9 16 -20 57l81 20q11 -41 22.5 -53.5t38.5 -12.5q26 0 42.5 14.5t16.5 38.5q0 49 -61 49h-37v74zM580 682l64 -37l-381 -660l-64 37z
" />
    <glyph glyph-name="oneeighth" unicode="&#x215b;" horiz-adv-x="833" 
d="M525 210q-34 33 -34 76q0 50 37.5 83.5t92.5 33.5t92.5 -34t37.5 -83q0 -41 -35 -76q48 -39 48 -92q0 -55 -41 -91t-102 -36q-62 0 -102.5 36t-40.5 91t47 92zM620 171q-27 0 -43.5 -15t-16.5 -38t17 -38t44 -15q26 0 43.5 15t17.5 38q0 24 -17 38.5t-45 14.5zM620 332
q-23 0 -37 -13t-14 -34q0 -19 15 -31.5t37 -12.5q23 0 37.5 13t14.5 32q0 20 -15 33t-38 13zM219 272h-83v297l-47 -25l-40 66l105 57h65v-395zM534 682l65 -37l-382 -660l-64 37z" />
    <glyph glyph-name="threeeighths" unicode="&#x215c;" horiz-adv-x="833" 
d="M144 515h37q53 0 53 42q0 19 -13.5 31t-36.5 12q-20 0 -32 -8.5t-30 -35.5l-70 36q23 36 38 50q37 34 94 34t94.5 -33t37.5 -84q0 -44 -33 -77q42 -36 42 -90q0 -56 -40.5 -92.5t-102.5 -36.5q-40 0 -72.5 17t-49.5 48q-10 18 -19 57l81 20q10 -40 22 -53t39 -13
q26 0 42.5 14.5t16.5 38.5q0 49 -61 49h-37v74zM515 210q-35 34 -35 76q0 50 37.5 83.5t92.5 33.5t93 -33.5t38 -83.5q0 -42 -35 -76q47 -38 47 -92q0 -55 -40.5 -91t-102.5 -36q-61 0 -101.5 36t-40.5 91q0 54 47 92zM609 171q-26 0 -42.5 -15t-16.5 -38t16.5 -38t43.5 -15
t44 15t17 38q0 24 -17 38.5t-45 14.5zM610 332q-23 0 -37.5 -13t-14.5 -34q0 -19 15 -31.5t37 -12.5q23 0 38 12.5t15 32.5t-15 33t-38 13zM559 682l65 -37l-382 -660l-64 37z" />
    <glyph glyph-name="fiveeighths" unicode="&#x215d;" horiz-adv-x="833" 
d="M515 210q-35 35 -35 76q0 50 38 83.5t93 33.5t92.5 -34t37.5 -83q0 -41 -35 -76q47 -38 47 -92q0 -55 -40.5 -91t-101.5 -36q-62 0 -102.5 36t-40.5 91t47 92zM610 171q-27 0 -43.5 -15t-16.5 -38t17 -38t44 -15q26 0 43 15t17 38q0 24 -16.5 38.5t-44.5 14.5zM610 332
q-23 0 -37.5 -13t-14.5 -34q0 -19 15 -31.5t38 -12.5t37.5 13t14.5 32q0 20 -15 33t-38 13zM182 593l-10 -48q8 1 18 1q61 0 104 -40.5t43 -98.5q0 -61 -44 -102t-109 -41q-46 0 -79 20.5t-63 68.5l67 44q14 -24 22 -33q20 -24 54 -24q29 0 49 18.5t20 46.5t-19.5 47
t-48.5 19q-28 0 -44 -16l-1 -1l-3 -3l-5 -5l-64 13l45 208h204v-74h-136zM563 682l64 -37l-382 -660l-64 37z" />
    <glyph glyph-name="seveneighths" unicode="&#x215e;" horiz-adv-x="833" 
d="M249 593h-180v74h281v-56l-198 -352l-72 36zM513 210q-34 35 -34 76q0 49 37.5 83t92.5 34t92.5 -34t37.5 -83q0 -42 -35 -76q48 -38 48 -92q0 -55 -40.5 -91t-102.5 -36t-102.5 36t-40.5 91q0 54 47 92zM608 171q-27 0 -43.5 -15t-16.5 -38t17 -38t44 -15t44 15t17 38
q0 24 -17 38.5t-45 14.5zM609 332q-23 0 -37.5 -13t-14.5 -34q0 -19 15 -31.5t37 -12.5q23 0 37.5 12.5t14.5 32.5t-14.5 33t-37.5 13zM525 682l65 -37l-382 -660l-64 37z" />
    <glyph glyph-name="partialdiff" unicode="&#x2202;" horiz-adv-x="584" 
d="M345 450l-11 12q-46 46 -98 70t-128 33l15 102q73 -10 116 -21q138 -40 213.5 -143.5t75.5 -254.5q0 -135 -77 -204q-68 -59 -158 -59q-100 0 -168 68.5t-68 168.5q0 98 67.5 167t163.5 69q32 0 57 -8zM290 355q-52 0 -85 -37.5t-33 -95.5q0 -59 33.5 -96.5t87.5 -37.5
q53 0 86.5 37.5t33.5 96.5q0 60 -34 96.5t-89 36.5z" />
    <glyph glyph-name="emptyset" unicode="&#x2205;" horiz-adv-x="637" 
d="M243 82l-49 -98l-83 43l49 98q-55 48 -79 96t-24 112q0 110 76.5 186t187.5 76q31 0 73 -10l48 95l83 -43l-48 -96q40 -35 59 -61q45 -68 45 -146q0 -112 -78.5 -187.5t-194.5 -75.5q-32 0 -65 11zM433 456l-145 -286q19 -4 33 -4q68 0 117 49t49 118q0 70 -54 123z
M205 212l145 286q-30 2 -33 2q-67 0 -116 -49.5t-49 -116.5q0 -68 53 -122z" />
    <glyph glyph-name="Delta" unicode="&#x2206;" horiz-adv-x="682" 
d="M662 0h-642l261 667h121zM187 111h308l-155 399z" />
    <glyph glyph-name="product" unicode="&#x220f;" horiz-adv-x="661" 
d="M220 558v-558h-118v558h-79v109h614v-109h-78v-558h-118v558h-221z" />
    <glyph glyph-name="summation" unicode="&#x2211;" horiz-adv-x="669" 
d="M278 345l-160 230v92h445v-110l-299 1l151 -213l-164 -235h331v-110h-483v92z" />
    <glyph glyph-name="minus" unicode="&#x2212;" horiz-adv-x="556" 
d="M498 363v-103h-440v103h440z" />
    <glyph glyph-name="uni2215" unicode="&#x2215;" horiz-adv-x="179" 
d="M248 682l65 -37l-382 -660l-64 37z" />
    <glyph glyph-name="uni2218" unicode="&#x2218;" horiz-adv-x="500" 
d="M253 493q64 0 110.5 -47.5t46.5 -112.5q0 -66 -47 -113t-113 -47q-67 0 -113.5 47t-46.5 114t47.5 113t115.5 46zM249 425q-37 0 -64 -27t-27 -65t27 -65t65 -27t65 27t27 66q0 38 -27 64.5t-66 26.5z" />
    <glyph glyph-name="radical" unicode="&#x221a;" horiz-adv-x="627" 
d="M191 421l80 -239l219 646h313v-110h-225l-246 -718h-121l-108 314h-80v107h168z" />
    <glyph glyph-name="infinity" unicode="&#x221e;" horiz-adv-x="717" 
d="M359 253q-44 -50 -80.5 -70t-83.5 -20q-76 0 -124 49t-48 126q0 75 49 124t123 49q46 0 82.5 -20t79.5 -69q40 47 78 68t87 21q75 0 123 -49t48 -126q0 -75 -48 -124t-122 -49q-48 0 -86 20.5t-78 69.5zM420 337q25 -38 47 -54t48 -16q30 0 50 20t20 50t-20.5 50
t-51.5 20q-25 0 -46.5 -16t-46.5 -54zM297 337q-27 39 -48.5 54.5t-47.5 15.5q-30 0 -50 -20t-20 -50t20.5 -50t51.5 -20q25 0 46.5 16t47.5 54z" />
    <glyph glyph-name="integral" unicode="&#x222b;" horiz-adv-x="309" 
d="M286 729v-102q-25 8 -40 8q-19 0 -27 -11t-8 -38v-620q0 -74 -32 -113t-93 -39q-28 0 -63 9v102q25 -8 40 -8q19 0 26.5 11t7.5 38v620q0 74 32 113t93 39q29 0 64 -9z" />
    <glyph glyph-name="similar" unicode="&#x223c;" horiz-adv-x="588" 
d="M105 215l-77 50q18 38 29 57q53 86 134 86q41 0 120 -36q65 -30 88 -30q32 0 57 33q6 8 26 42l79 -46q-28 -55 -46 -78q-50 -63 -126 -63q-23 0 -50 9t-97 41q-38 16 -58 16q-29 0 -54 -37q-5 -8 -25 -44z" />
    <glyph glyph-name="uni2243" unicode="&#x2243;" horiz-adv-x="588" 
d="M104 295l-77 50q20 42 29 57q53 86 134 86q43 0 120 -36q63 -30 88 -30q32 0 57 33q5 7 26 42l79 -46q-28 -55 -46 -78q-50 -63 -125 -63q-24 0 -51 9t-97 41q-37 16 -58 16q-29 0 -54 -37q-6 -9 -25 -44zM553 274v-102h-521v102h521z" />
    <glyph glyph-name="approxequal" unicode="&#x2248;" horiz-adv-x="588" 
d="M105 312l-77 50q20 42 29 57q53 86 134 86q43 0 120 -36q63 -30 88 -30q32 0 57 33q5 7 26 42l79 -46q-28 -55 -46 -78q-50 -63 -125 -63q-24 0 -51 9t-97 41q-37 16 -58 16q-29 0 -54 -37q-6 -9 -25 -44zM105 127l-77 50q20 42 29 57q53 86 134 86q41 0 120 -36
q63 -30 88 -30q33 0 57 33q6 8 26 42l79 -46q-26 -54 -46 -78q-49 -63 -126 -63q-23 0 -50 9t-97 41q-37 16 -58 16q-29 0 -54 -37q-6 -8 -25 -44z" />
    <glyph glyph-name="notequal" unicode="&#x2260;" horiz-adv-x="576" 
d="M300 443l63 126l88 -37l-44 -89h142v-103h-193l-28 -56h221v-103h-272l-63 -126l-88 37l44 89h-142v103h193l28 56h-221v103h272z" />
    <glyph glyph-name="lessequal" unicode="&#x2264;" horiz-adv-x="576" 
d="M524 121l-473 212v91l473 215v-115l-323 -144l323 -143v-116zM524 0h-473v102h473v-102z" />
    <glyph glyph-name="greaterequal" unicode="&#x2265;" horiz-adv-x="576" 
d="M51 121v116l323 143l-323 144v115l473 -215v-91zM51 0v102h473v-102h-473z" />
    <glyph glyph-name="dotmath" unicode="&#x22c5;" horiz-adv-x="251" 
d="M127 403q29 0 49.5 -20.5t20.5 -49.5t-21 -49.5t-50 -20.5q-30 0 -51 20.5t-21 50.5q0 29 21 49t52 20z" />
    <glyph glyph-name="lozenge" unicode="&#x25ca;" horiz-adv-x="655" 
d="M327 -40l-269 373l269 373l271 -373zM461 333l-134 187l-133 -187l133 -186z" />
    <glyph glyph-name="openbullet" unicode="&#x25e6;" horiz-adv-x="500" 
d="M253 493q64 0 110.5 -47.5t46.5 -112.5q0 -66 -47 -113t-113 -47q-67 0 -113.5 47t-46.5 114t47.5 113t115.5 46zM249 425q-37 0 -64 -27t-27 -65t27 -65t65 -27t65 27t27 66q0 38 -27 64.5t-66 26.5z" />
    <glyph glyph-name="commaaccent" unicode="&#xf6c3;" horiz-adv-x="476" 
d="M196 -23l108 -32l-81 -189l-85 27z" />
    <glyph glyph-name="Acute" unicode="&#xf6c9;" horiz-adv-x="476" 
d="M395 845l-154 -154l-76 44l123 168z" />
    <glyph glyph-name="Caron" unicode="&#xf6ca;" horiz-adv-x="476" 
d="M238 807l88 88l87 -43l-138 -151h-74l-138 151l86 43z" />
    <glyph glyph-name="Dieresis" unicode="&#xf6cb;" horiz-adv-x="476" 
d="M148 860q28 0 49 -21t21 -49q0 -29 -21 -49.5t-50 -20.5q-30 0 -51 20.5t-21 50.5q0 29 21 49t52 20zM332 860q28 0 49 -21t21 -49q0 -29 -21 -49.5t-50 -20.5q-30 0 -51 20.5t-21 50.5q0 29 21 49t52 20z" />
    <glyph glyph-name="Grave" unicode="&#xf6ce;" horiz-adv-x="476" 
d="M81 845l108 58l122 -168l-76 -44z" />
    <glyph glyph-name="Hungarumlaut" unicode="&#xf6cf;" horiz-adv-x="476" 
d="M160 690l-64 45l122 169l99 -56zM367 904l95 -59l-154 -155l-66 42z" />
    <glyph glyph-name="Macron" unicode="&#xf6d0;" horiz-adv-x="476" 
d="M82 842h312v-102h-312v102z" />
    <glyph glyph-name="one.fitted" horiz-adv-x="556" 
d="M245 109v416l-84 -48l-56 97l164 93h94v-558h110v-109h-349v109h121z" />
    <glyph glyph-name="two.fitted" horiz-adv-x="556" 
d="M73 0v94l237 264q67 74 67 134q0 36 -25 57.5t-66 21.5q-62 0 -85 -39q-11 -19 -26 -68l-109 30q14 64 41 102q61 86 182 86q91 0 148 -54t57 -139q0 -95 -71 -175l-184 -204h269v-110h-435z" />
    <glyph glyph-name="three.fitted" horiz-adv-x="556" 
d="M213 402h52q98 0 98 84q0 38 -25.5 61.5t-67.5 23.5q-34 0 -56.5 -16t-49.5 -58l-99 53q41 71 88.5 101.5t115.5 30.5q92 0 151.5 -54.5t59.5 -138.5q0 -80 -60 -134q74 -64 74 -156q0 -93 -64.5 -153.5t-163.5 -60.5q-105 0 -166 69q-21 23 -33 49.5t-23 74.5l115 30
q12 -48 26 -72q26 -40 83 -40q47 0 77 28.5t30 73.5q0 96 -110 96h-52v108z" />
    <glyph glyph-name="four.fitted" horiz-adv-x="556" 
d="M417 627l-240 -380h140v150h118v-150h77v-108h-77v-139h-118v139h-280v100l283 448z" />
    <glyph glyph-name="five.fitted" horiz-adv-x="556" 
d="M244 558l-22 -107q24 4 42 4q99 0 167.5 -67.5t68.5 -164.5q0 -101 -71 -169.5t-175 -68.5q-71 0 -124 33.5t-98 107.5l94 65q28 -46 41 -59q34 -36 90 -36q53 0 89 35.5t36 87.5q0 55 -35.5 91t-88.5 36q-49 0 -79 -30q-5 -5 -12 -13l-92 20l71 344h322v-109h-224z" />
    <glyph glyph-name="six.fitted" horiz-adv-x="556" 
d="M315 687l93 -68l-126 -175q83 -4 140 -43q93 -65 93 -179q0 -99 -69 -168t-168 -69q-100 0 -169.5 69t-69.5 167q0 82 53 155zM277 335q-52 0 -86 -34t-34 -84q0 -52 34 -87t85 -35q52 0 86.5 35.5t34.5 88.5q0 50 -34 83t-86 33z" />
    <glyph glyph-name="seven.fitted" horiz-adv-x="556" 
d="M378 558h-307v109h448v-85l-323 -602l-103 54z" />
    <glyph glyph-name="eight.fitted" horiz-adv-x="556" 
d="M134 355q-63 60 -63 134q0 82 59.5 137.5t147.5 55.5t147.5 -55.5t59.5 -137.5q0 -74 -63 -134q46 -37 65 -73.5t19 -86.5q0 -90 -65 -150t-163 -60t-163 60t-65 151q0 49 19 85.5t65 73.5zM277 297q-49 0 -79.5 -28.5t-30.5 -74.5q0 -45 31 -73.5t80 -28.5t80 28.5
t31 73.5q0 46 -31 74.5t-81 28.5zM277 578q-41 0 -68 -26.5t-27 -66.5q0 -37 27.5 -62t68.5 -25q42 0 69 25t27 64q0 40 -27 65.5t-70 25.5z" />
    <glyph glyph-name="nine.fitted" horiz-adv-x="556" 
d="M240 -20l-92 68l126 175q-83 4 -141 43q-44 31 -68 78t-24 101q0 99 69.5 168t167.5 69q100 0 169.5 -69t69.5 -167q0 -81 -53 -155zM280 572q-52 0 -86.5 -35.5t-34.5 -88.5q0 -50 34 -83t86 -33t86 34t34 84q0 52 -34.5 87t-84.5 35z" />
    <glyph glyph-name="zero.fitted" horiz-adv-x="556" 
d="M278 682q259 0 259 -349q0 -348 -258 -348q-260 0 -260 353q0 169 65.5 256.5t193.5 87.5zM278 571q-138 0 -138 -241q0 -234 138 -234t138 237q0 238 -138 238z" />
    <glyph glyph-name="sterling.fitted" horiz-adv-x="556" 
d="M429 282h-177q8 -47 8 -81q0 -49 -27 -92h287v-109h-460v100q49 38 64.5 60t15.5 53q0 21 -8 69h-72v107h49q-6 36 -6 70q0 81 32 130q26 43 75 68t106 25q127 0 193 -129l-94 -59q-25 43 -47.5 60.5t-54.5 17.5q-92 0 -92 -113q0 -25 8 -70h200v-107z" />
    <glyph glyph-name="dollar.fitted" horiz-adv-x="556" 
d="M226 -103v93q-151 30 -182 198l115 30l6 -24q25 -97 107 -97q44 0 74.5 29.5t30.5 71.5q0 29 -21.5 49t-75.5 40l-60 23q-146 57 -146 178q0 67 41.5 118t110.5 68v93h117v-92q48 -14 81.5 -41.5t64.5 -81.5l-96 -60q-26 39 -37 50q-31 29 -72 29q-40 0 -66 -23.5
t-26 -60.5q0 -46 77 -76l63 -24q165 -61 165 -188q0 -70 -41.5 -124.5t-112.5 -78.5v-99h-117z" />
    <glyph glyph-name="cent.fitted" horiz-adv-x="556" 
d="M234 0v104q-79 20 -127.5 83t-48.5 146t48 146t128 83v105h117v-104q74 -20 133 -86l-76 -73q-38 39 -58.5 50.5t-54.5 11.5q-55 0 -88.5 -36.5t-33.5 -96.5t34 -96.5t89 -36.5q33 0 58.5 14.5t56.5 51.5l76 -74q-61 -69 -136 -89v-103h-117z" />
    <glyph glyph-name="florin.fitted" horiz-adv-x="556" 
d="M363 443h79l-22 -103h-79l-80 -388q-32 -152 -156 -152q-21 0 -69 13l23 109q5 -2 14 -4t11 -3q15 -4 22 -4q28 0 38 51l78 378h-43l21 103h44l16 81q32 153 155 153q23 0 70 -13l-22 -110q-40 11 -47 11q-16 0 -24.5 -11.5t-14.5 -39.5z" />
    <glyph glyph-name="Euro.fitted" horiz-adv-x="556" 
d="M-18 445h68q41 112 129 174.5t204 62.5q73 0 132 -27t117 -88l-45 -105q-55 58 -103 83t-104 25q-134 0 -202 -125h402l-42 -97h-386q-1 -6 -1 -16q0 -9 1 -15h373l-42 -97h-304q71 -123 205 -123q58 0 108.5 28.5t109.5 93.5v-153q-99 -81 -217 -81q-97 0 -179 46.5
t-128 127.5q-15 27 -28 61h-109l41 97h49v2v15v8v6h-90z" />
    <glyph glyph-name="yen.fitted" horiz-adv-x="556" 
d="M378 348l-18 -31h131v-97h-154v-220h-118v220h-154v97h131l-18 31h-113v97h58l-125 222h132l148 -270l148 270h132l-125 -222h58v-97h-113z" />
    <glyph glyph-name="one.numerator" 
d="M250 272h-83v297l-47 -25l-40 66l105 57h65v-395z" />
    <glyph glyph-name="two.numerator" 
d="M60 272v62l145 154q38 41 38 73q0 18 -13 28.5t-36 10.5q-28 0 -39.5 -11.5t-22.5 -51.5l-77 21q25 118 141 118q57 0 93 -32.5t36 -84.5q0 -59 -43 -105l-102 -107h154v-75h-274z" />
    <glyph glyph-name="three.numerator" 
d="M150 515h37q53 0 53 42q0 19 -13.5 31t-36.5 12q-20 0 -32 -8.5t-30 -35.5l-70 36q23 36 38 50q37 34 94 34t94.5 -33t37.5 -84q0 -44 -33 -77q42 -36 42 -90q0 -56 -40.5 -92.5t-102.5 -36.5q-40 0 -72.5 17t-49.5 48q-10 18 -19 57l81 20q10 -40 22 -53t39 -13
q26 0 42.5 14.5t16.5 38.5q0 49 -61 49h-37v74z" />
    <glyph glyph-name="four.numerator" 
d="M285 641l-142 -215h67v86h83v-86h46v-74h-46v-80h-83v80h-168v65l174 264z" />
    <glyph glyph-name="five.numerator" 
d="M178 593l-10 -48q8 1 18 1q61 0 104 -40.5t43 -98.5q0 -61 -44 -102t-109 -41q-46 0 -79 20.5t-63 68.5l67 44q14 -24 22 -33q20 -24 54 -24q29 0 49 18.5t20 46.5t-19.5 47t-48.5 19q-28 0 -44 -16l-1 -1l-3 -3l-5 -5l-64 13l45 208h204v-74h-136z" />
    <glyph glyph-name="six.numerator" 
d="M214 681l65 -46l-73 -97q58 -4 96 -41.5t38 -90.5q0 -59 -43 -100.5t-105 -41.5t-105.5 41.5t-43.5 100.5q0 48 33 92zM191 465q-28 0 -46.5 -17.5t-18.5 -44.5t18.5 -45.5t46.5 -18.5t47 18.5t19 46.5q0 26 -19 43.5t-47 17.5z" />
    <glyph glyph-name="seven.numerator" 
d="M244 593h-180v74h281v-56l-198 -352l-72 36z" />
    <glyph glyph-name="eight.numerator" 
d="M98 483q-35 34 -35 76q0 50 38 83.5t93 33.5t92.5 -34t37.5 -83q0 -42 -35 -76q47 -40 47 -92q0 -55 -40.5 -91t-101.5 -36q-62 0 -102.5 36t-40.5 91q0 54 47 92zM193 443q-27 0 -43.5 -14.5t-16.5 -38.5q0 -23 17 -37.5t44 -14.5q26 0 43 14.5t17 37.5q0 24 -16.5 38.5
t-44.5 14.5zM193 605q-23 0 -37.5 -13.5t-14.5 -33.5t15 -32.5t38 -12.5t37.5 13t14.5 32q0 21 -15 34t-38 13z" />
    <glyph glyph-name="nine.numerator" 
d="M173 258l-65 46l72 97q-59 5 -96.5 42t-37.5 91q0 59 43 100.5t105 41.5t105.5 -41.5t43.5 -100.5q0 -48 -33 -92zM195 601q-28 0 -47 -18.5t-19 -46.5q0 -26 19 -43.5t47 -17.5t46.5 18t18.5 44q0 27 -18.5 45.5t-46.5 18.5z" />
    <glyph glyph-name="zero.numerator" 
d="M192 676q163 0 163 -206t-161 -206q-162 0 -162 209q0 99 41 151t119 52zM194 600q-78 0 -78 -132q0 -128 78 -128q77 0 77 130t-77 130z" />
    <glyph glyph-name="one.denominator" 
d="M250 0h-83v297l-47 -25l-40 66l105 57h65v-395z" />
    <glyph glyph-name="two.denominator" 
d="M60 0v62l145 153q38 41 38 73q0 18 -13 28.5t-36 10.5q-27 0 -39 -11.5t-23 -50.5l-77 20q25 118 141 118q57 0 93 -32.5t36 -84.5q0 -58 -43 -104l-102 -107h154v-75h-274z" />
    <glyph glyph-name="three.denominator" 
d="M150 243h37q53 0 53 42q0 19 -13.5 31t-36.5 12q-20 0 -31.5 -8.5t-30.5 -36.5l-70 37q24 37 38 49q37 34 94 34t94.5 -33t37.5 -83q0 -44 -33 -77q42 -36 42 -90q0 -56 -40.5 -92.5t-102.5 -36.5q-86 0 -122 65q-11 21 -19 57l81 20q10 -40 22 -53t39 -13
q26 0 42.5 14.5t16.5 38.5q0 49 -61 49h-37v74z" />
    <glyph glyph-name="four.denominator" 
d="M285 368l-142 -214h67v86h83v-86h46v-74h-46v-80h-83v80h-168v65l174 264z" />
    <glyph glyph-name="five.denominator" 
d="M178 321l-10 -48q8 1 18 1q61 0 104 -40.5t43 -99.5q0 -60 -44.5 -101.5t-108.5 -41.5q-46 0 -79 20.5t-63 68.5l67 44q14 -24 22 -33q19 -24 54 -24q29 0 49 18.5t20 46.5q0 29 -19.5 48t-48.5 19q-30 0 -45 -17l-8 -8l-64 13l45 208h204v-74h-136z" />
    <glyph glyph-name="six.denominator" 
d="M214 409l65 -46l-73 -97q59 -5 96.5 -42t37.5 -91q0 -59 -43 -100.5t-105 -41.5t-105.5 41.5t-43.5 100.5q0 50 33 92zM191 192q-28 0 -46.5 -17.5t-18.5 -44.5t18.5 -45.5t46.5 -18.5t47 18.5t19 46.5q0 26 -19 43.5t-47 17.5z" />
    <glyph glyph-name="seven.denominator" 
d="M244 321h-180v74h281v-56l-198 -353l-72 36z" />
    <glyph glyph-name="eight.denominator" 
d="M98 210q-35 35 -35 76q0 50 38 83.5t93 33.5t92.5 -34t37.5 -83q0 -42 -35 -76q47 -38 47 -92q0 -55 -40.5 -91t-101.5 -36q-62 0 -102.5 36t-40.5 91q0 54 47 92zM193 171q-27 0 -43.5 -15t-16.5 -38t17 -38t44 -15q26 0 43 15t17 38q0 24 -16.5 38.5t-44.5 14.5z
M193 332q-23 0 -37.5 -13t-14.5 -34q0 -19 15 -31.5t38 -12.5t37.5 13t14.5 32q0 20 -15 33t-38 13z" />
    <glyph glyph-name="nine.denominator" 
d="M173 -14l-65 46l72 97q-58 4 -96 41.5t-38 90.5q0 59 43 100.5t105 41.5t105.5 -41.5t43.5 -100.5q0 -48 -33 -92zM195 328q-28 0 -47 -18.5t-19 -46.5q0 -26 19 -43.5t47 -17.5t46.5 18t18.5 44q0 27 -18.5 45.5t-46.5 18.5z" />
    <glyph glyph-name="zero.denominator" 
d="M192 403q163 0 163 -206t-161 -206q-162 0 -162 209q0 99 41 151t119 52zM194 327q-78 0 -78 -132q0 -128 78 -128q77 0 77 130t-77 130z" />
    <glyph glyph-name="onefifth" horiz-adv-x="833" 
d="M599 321l-10 -48q8 1 18 1q61 0 104 -40.5t43 -99.5q0 -60 -44.5 -101.5t-108.5 -41.5q-47 0 -78.5 20t-64.5 69l67 44q19 -30 22 -33q19 -24 55 -24q29 0 49 18.5t20 46.5q0 29 -19.5 48t-48.5 19q-30 0 -45 -17l-8 -8l-64 13l44 208h205v-74h-136zM219 272h-83v297
l-47 -25l-40 66l105 57h65v-395zM534 682l65 -37l-382 -660l-64 37z" />
    <glyph glyph-name="twofifth" horiz-adv-x="833" 
d="M49 272v62l145 154q38 41 38 73q0 18 -13 28.5t-36 10.5q-28 0 -39.5 -11.5t-22.5 -51.5l-77 21q25 118 141 118q57 0 93 -32.5t36 -84.5q0 -59 -43 -105l-102 -107h154v-75h-274zM599 321l-10 -48q8 1 18 1q61 0 104 -40.5t43 -99.5q0 -60 -44.5 -101.5t-108.5 -41.5
q-47 0 -78.5 20t-63.5 69l67 44q14 -24 22 -33q20 -24 54 -24q29 0 49 18.5t20 46.5q0 29 -19.5 48t-48.5 19q-30 0 -45 -17l-8 -8l-64 13l45 208h204v-74h-136zM585 682l64 -37l-381 -660l-64 37z" />
    <glyph glyph-name="threefifth" horiz-adv-x="833" 
d="M599 321l-10 -48q8 1 18 1q61 0 104 -40.5t43 -99.5q0 -60 -44.5 -101.5t-108.5 -41.5q-47 0 -78.5 20t-64.5 69l67 44q19 -30 22 -33q19 -24 55 -24q29 0 49 18.5t20 46.5q0 29 -19.5 48t-48.5 19q-30 0 -45 -17l-8 -8l-64 13l44 208h205v-74h-136zM145 515h37
q53 0 53 42q0 19 -13.5 31t-36.5 12q-20 0 -32 -8.5t-30 -35.5l-70 36q23 36 38 50q37 34 94 34t94.5 -33t37.5 -84q0 -44 -33 -77q42 -36 42 -90q0 -56 -40.5 -92.5t-102.5 -36.5q-40 0 -72.5 17t-49.5 48q-10 18 -19 57l81 20q10 -40 22 -53t39 -13q26 0 42.5 14.5
t16.5 38.5q0 49 -61 49h-37v74zM565 682l64 -37l-382 -660l-64 37z" />
    <glyph glyph-name="fourfifth" horiz-adv-x="833" 
d="M291 641l-142 -215h67v86h83v-86h46v-74h-46v-80h-83v80h-168v65l174 264zM596 321l-10 -48q8 1 18 1q61 0 104 -40.5t43 -99.5q0 -60 -44.5 -101.5t-108.5 -41.5q-47 0 -78.5 20t-63.5 69l67 44q14 -24 22 -33q19 -24 54 -24q29 0 49 18.5t20 46.5q0 29 -19.5 48
t-48.5 19q-30 0 -45 -17l-8 -8l-64 13l45 208h204v-74h-136zM576 682l65 -37l-382 -660l-64 37z" />
    <glyph glyph-name="onesixth" horiz-adv-x="833" 
d="M626 409l65 -46l-72 -97q59 -5 97 -42t38 -91q0 -59 -43.5 -100.5t-105.5 -41.5t-105.5 41.5t-43.5 100.5q0 49 33 92zM604 192q-28 0 -46.5 -18t-18.5 -44q0 -27 18.5 -45.5t46.5 -18.5q29 0 48 18.5t19 46.5q0 26 -19 43.5t-48 17.5zM220 272h-83v297l-47 -25l-40 66
l105 57h65v-395zM549 682l64 -37l-381 -660l-65 37z" />
    <glyph glyph-name="fivesixth" horiz-adv-x="833" 
d="M626 409l65 -46l-73 -97q59 -5 97 -42t38 -91q0 -59 -43.5 -100.5t-105.5 -41.5t-105.5 41.5t-43.5 100.5q0 49 33 92zM604 192q-28 0 -47 -18t-19 -44q0 -27 19 -45.5t47 -18.5t47 18.5t19 46.5q0 26 -19 43.5t-47 17.5zM588 682l64 -37l-382 -660l-64 37zM183 593
l-10 -48q8 1 18 1q61 0 104 -40.5t43 -98.5q0 -61 -44 -102t-109 -41q-46 0 -79 20.5t-63 68.5l67 44q14 -24 22 -33q19 -24 54 -24q29 0 49 18.5t20 46.5t-19.5 47t-48.5 19q-28 0 -44 -16l-1 -1l-3 -3l-5 -5l-64 13l45 208h204v-74h-136z" />
    <glyph glyph-name="Dotaccent" horiz-adv-x="476" 
d="M240 860q28 0 49 -21t21 -49q0 -29 -21 -49.5t-50 -20.5q-30 0 -51 20.5t-21 50.5q0 29 21 49t52 20z" />
    <glyph glyph-name="Ring" horiz-adv-x="476" 
d="M238 898q45 0 77 -31.5t32 -75.5t-32 -75.5t-77 -31.5q-46 0 -77.5 31.5t-31.5 76.5q0 43 32.5 74.5t76.5 31.5zM238 843q-22 0 -37 -15.5t-15 -37.5q0 -21 15.5 -36t36.5 -15q22 0 37 15t15 37t-15 37t-37 15z" />
    <glyph glyph-name="Circumflex" horiz-adv-x="476" 
d="M238 780l-89 -88l-86 43l138 151h74l138 -151l-87 -43z" />
    <glyph glyph-name="Breve" horiz-adv-x="476" 
d="M86 864l99 9q1 -10 1 -21q3 -59 50 -59q29 0 44 28q6 9 12 51l99 -8q-5 -44 -8.5 -57t-13.5 -31q-45 -80 -133 -80q-47 0 -85 25t-55 68q-9 23 -10 75z" />
    <glyph glyph-name="Tilde" horiz-adv-x="476" 
d="M300 865l95 -23q-3 -38 -10 -59q-11 -28 -34.5 -44t-54.5 -16q-30 0 -76 21q-28 12 -32 12q-6 0 -7 -4q-2 -12 -7 -35l-93 22q5 45 14 63q28 56 87 56q25 0 77 -22q23 -11 31 -11q4 0 5.5 5t4.5 35z" />
    <glyph glyph-name="Cedilla" horiz-adv-x="476" 
d="M349 -67l-127 -161l-82 42l104 164z" />
    <glyph glyph-name="Ogonek" horiz-adv-x="476" 
d="M329 0h114q-35 -47 -35 -64q0 -9 13 -9q17 0 48 12l34 -86q-12 -4 -18 -7q-42 -14 -70 -14q-48 0 -79.5 27.5t-31.5 68.5q0 33 25 72z" />
    <glyph glyph-name="Commaaccent" horiz-adv-x="476" 
d="M196 -23l108 -32l-81 -189l-85 27z" />
    <glyph glyph-name="Comma.high" horiz-adv-x="476" 
d="M317 903l108 -33l-81 -188l-85 26z" />
    <glyph glyph-name="Dieresis.alt" horiz-adv-x="476" 
d="M161 860q29 0 49.5 -21t20.5 -49q0 -29 -21 -49.5t-50 -20.5q-30 0 -51 20.5t-21 50.5q0 29 21 49t52 20zM312 860q28 0 49 -21t21 -49q0 -29 -21 -49.5t-50 -20.5q-30 0 -51 20.5t-21 50.5q0 29 21 49t52 20z" />
    <glyph glyph-name="comma.high" horiz-adv-x="476" 
d="M317 702l108 -32l-81 -189l-85 27z" />
    <glyph glyph-name="dieresis.alt" horiz-adv-x="476" 
d="M161 664q29 0 49.5 -21t20.5 -49q0 -29 -21 -49.5t-50 -20.5q-30 0 -51 20.5t-21 50.5q0 29 21 49t52 20zM312 664q28 0 49 -21t21 -49q0 -29 -21 -49.5t-50 -20.5q-30 0 -51 20.5t-21 50.5q0 29 21 49t52 20z" />
    <glyph glyph-name="commareversed" horiz-adv-x="476" 
d="M367 481l-108 33l81 188l85 -27z" />
    <glyph glyph-name="G.salt" horiz-adv-x="729" 
d="M551 256h-166v110h284v-234l-5 -7q-111 -140 -282 -140q-145 0 -247.5 102t-102.5 245q0 146 102.5 248t249.5 102q109 0 194 -62q18 -13 69 -61l-83 -80q-42 42 -58 53q-53 38 -122 38q-99 0 -165.5 -68.5t-66.5 -169.5q0 -98 67 -166.5t162 -68.5q98 0 170 76v83z" />
    <glyph glyph-name="M.salt" horiz-adv-x="834" 
d="M57 0l68 667h107l185 -384l185 384h107l68 -667h-119l-45 447l-149 -308h-93l-150 308l-44 -447h-120z" />
    <glyph glyph-name="y.salt" horiz-adv-x="473" 
d="M483 443l-263 -589q-24 -53 -53.5 -77.5t-69.5 -24.5q-26 0 -65 13l18 108q29 -13 38 -13q15 0 31 38l55 123l-183 422h124l120 -283l125 283h123z" />
    <glyph glyph-name="parenleft.salt" horiz-adv-x="320" 
d="M164 803l102 -47q-28 -76 -40 -119q-37 -143 -37 -304q0 -121 17.5 -216.5t59.5 -205.5l-102 -48q-34 73 -50 135q-41 162 -41 335q0 192 49 363q10 38 42 107z" />
    <glyph glyph-name="parenright.salt" horiz-adv-x="320" 
d="M53 755l102 48q34 -74 50 -135q41 -162 41 -335q0 -192 -49 -363q-10 -37 -42 -107l-102 48q42 110 59.5 205.5t17.5 216.5q0 176 -43 325q-8 28 -34 97z" />
    <glyph glyph-name="bracketleft.salt" horiz-adv-x="306" 
d="M185 683v-699h88v-107h-203v913h203v-107h-88z" />
    <glyph glyph-name="bracketright.salt" horiz-adv-x="306" 
d="M121 683h-88v107h203v-913h-203v107h88v699z" />
    <glyph glyph-name="afii61248.salt" horiz-adv-x="749" 
d="M330 586l-54 -50q-26 26 -37.5 32t-30.5 6q-31 0 -49 -19.5t-18 -51.5t18.5 -51t49.5 -19q19 0 33.5 8.5t34.5 31.5l55 -50q-32 -34 -59.5 -47.5t-64.5 -13.5q-62 0 -105 41t-43 101t42.5 100.5t105.5 40.5q36 0 62.5 -13t59.5 -46zM544 269q60 0 102.5 -41.5t42.5 -99.5
q0 -60 -42.5 -101t-104.5 -41q-63 0 -105.5 41t-42.5 102q0 59 43 99.5t107 40.5zM540 198q-29 0 -47 -19.5t-18 -50.5q0 -32 18.5 -51.5t48.5 -19.5q29 0 47.5 20t18.5 51q0 32 -18.5 51t-49.5 19zM527 682l65 -37l-382 -660l-64 37z" />
    <glyph glyph-name="braceleft.salt" horiz-adv-x="307" 
d="M210 642v-201q0 -74 -38 -108q38 -37 38 -112v-198q0 -32 7 -37.5t46 -5.5h23v-103q-40 -1 -48 -1q-74 0 -108.5 37.5t-34.5 117.5v190q-1 38 -10 50t-44 19v91q35 8 44 19t10 45v189q0 81 34.5 118.5t108.5 37.5q12 0 48 -2v-103q-31 1 -32 1q-31 0 -37.5 -6.5
t-6.5 -37.5z" />
    <glyph glyph-name="braceright.salt" horiz-adv-x="307" 
d="M97 25v198q0 74 38 111q-38 34 -38 109v200q0 31 -7 37.5t-38 6.5q-2 0 -31 -1v104q36 1 48 1q74 0 108.5 -37.5t34.5 -118.5v-189q1 -34 10.5 -45.5t43.5 -18.5v-91q-4 -1 -8.5 -2t-6.5 -1.5t-3 -0.5q-21 -6 -28.5 -19t-7.5 -45v-191q0 -80 -34.5 -117.5t-108.5 -37.5
q-10 0 -48 1v104q10 -1 23 -1q39 0 46 6t7 38z" />
    <glyph glyph-name="copyright.salt" horiz-adv-x="457" 
d="M346 631l-39 -38q-20 22 -31 28t-29 6q-29 0 -48.5 -20.5t-19.5 -50.5q0 -29 20 -49.5t48 -20.5q18 0 27.5 5.5t33.5 29.5l39 -38q-30 -30 -50 -40t-50 -10q-52 0 -88 36t-36 87q0 52 36.5 88t88.5 36q28 0 50 -11t48 -38zM242 763q86 0 147 -60.5t61 -146.5t-60.5 -147
t-146.5 -61q-87 0 -147.5 61t-60.5 149q0 84 61 144.5t146 60.5zM242 713q-65 0 -111 -46t-46 -113q0 -64 46.5 -110t110.5 -46q65 0 111.5 46t46.5 112q0 65 -46.5 111t-111.5 46z" />
    <glyph glyph-name="registered.salt" horiz-adv-x="457" 
d="M290 537l55 -97h-60l-46 82h-7h-3h-8v-82h-55v233h63q43 0 67 -20t24 -56t-30 -60zM221 571h10q36 0 36 26q0 27 -36 27h-10v-53zM242 763q86 0 147 -60.5t61 -146.5t-60.5 -147t-146.5 -61q-87 0 -147.5 61t-60.5 149q0 84 61 144.5t146 60.5zM242 713q-65 0 -111 -46
t-46 -113q0 -64 46.5 -110t110.5 -46q65 0 111.5 46t46.5 112q0 65 -46.5 111t-111.5 46z" />
    </font>
</defs>
</svg>
