<svg xmlns="http://www.w3.org/2000/svg" viewBox="0 0 963.69 995.8">
  <defs>
    <style>
      .cls-1 {
        fill: #3c3c3b;
      }

      .cls-2 {
        fill: #fff;
      }
    </style>
  </defs>
  <title>YOUDEO_LOGOICON_1-2</title>
  <g id="Calque_2" data-name="Calque 2">
    <g id="Calque_1-2" data-name="Calque 1">
      <g>
        <path class="cls-1" d="M455.54,945.2l420.3-333.74c140-111.14,107.14-332.12-59.1-397.77L317.57,16.57C151.33-49.08-23.63,89.85,2.63,266.64L81.51,797.49C107.77,974.28,315.57,1056.34,455.54,945.2Z"/>
        <g>
          <path class="cls-2" d="M705.73,273.09v0H609.26a195,195,0,0,1-.41,190.22H894.43C894.43,358.72,810.08,273.91,705.73,273.09Z"/>
          <path class="cls-2" d="M564,273.05H515.51c-105,0-190.21,85.16-190.21,190.22H277.92l.33.13h-190a93.93,93.93,0,0,0,94.42,94.41h0c0,.19,0,.37,0,.56a95.11,95.11,0,0,0,95.11,95.11v95.11c157.57,0,285.32-127.75,285.32-285.32h.22A156.68,156.68,0,0,0,564,273.05Zm-48.44,65.64a29.47,29.47,0,1,1-29.46,29.47A29.47,29.47,0,0,1,515.51,338.69Z"/>
        </g>
      </g>
    </g>
  </g>
</svg>
