<svg xmlns="http://www.w3.org/2000/svg" viewBox="0 0 1312.92 338.57">
  <defs>
    <style>
      .cls-1 {
        fill: #ff0844;
      }

      .cls-2 {
        fill: #fff;
      }

      .cls-3 {
        fill: #3c3c3b;
      }
    </style>
  </defs>
  <title>YOUDEO_LOGO_1-1</title>
  <g id="Calque_2" data-name="Calque 2">
    <g id="Calque_1-2" data-name="Calque 1">
      <g>
        <g>
          <path class="cls-1" d="M154.88,321.36l142.9-113.47C345.37,170.11,334.21,95,277.69,72.65L108,5.63C51.45-16.69-8,30.55.9,90.65L27.71,271.14C36.64,331.25,107.29,359.15,154.88,321.36Z"/>
          <g>
            <path class="cls-2" d="M239.94,92.85h-32.8a66.23,66.23,0,0,1-.14,64.67h97.1A64.67,64.67,0,0,0,239.94,92.85Z"/>
            <path class="cls-2" d="M191.74,92.84H175.27a64.67,64.67,0,0,0-64.67,64.67H94.49l.11,0H30a31.93,31.93,0,0,0,32.1,32.1h0v.19a32.33,32.33,0,0,0,32.33,32.34v32.34a97,97,0,0,0,97-97h.07a53.24,53.24,0,0,0,.23-64.67Zm-16.47,22.31a10,10,0,1,1-10,10A10,10,0,0,1,175.27,115.15Z"/>
          </g>
        </g>
        <g>
          <path class="cls-3" d="M575.6,69.75,500.22,189.8l-3.07,4.75v70.63h-33.5V194.55L385.2,69.75h39.64l55.56,88.5L536,69.75Z"/>
          <path class="cls-3" d="M611.9,121.68a72.56,72.56,0,0,1,28.76,5.72,73.59,73.59,0,0,1,39.22,39.23,72.53,72.53,0,0,1,5.73,28.76,71.8,71.8,0,0,1-5.73,28.47,73.59,73.59,0,0,1-39.22,39.23,75.16,75.16,0,0,1-57.52,0,73.59,73.59,0,0,1-39.22-39.23,71.62,71.62,0,0,1-5.72-28.47,72.35,72.35,0,0,1,5.72-28.76,73.59,73.59,0,0,1,39.22-39.23A72.56,72.56,0,0,1,611.9,121.68Zm0,33.5a40,40,0,0,0-40.2,40.21,38.44,38.44,0,0,0,11.72,28.19,36.13,36.13,0,0,0,13,8.8,41.73,41.73,0,0,0,15.49,2.93,40.75,40.75,0,0,0,15.36-2.93,39.41,39.41,0,0,0,13.12-8.8,40.11,40.11,0,0,0,0-56.67Q628.08,155.18,611.9,155.18Z"/>
          <path class="cls-3" d="M830.5,125.59V265.18H797V254.57A65.72,65.72,0,0,1,780,265a53.56,53.56,0,0,1-21.22,4,58.53,58.53,0,0,1-24.85-5.16,57.79,57.79,0,0,1-19.12-14.1,63.56,63.56,0,0,1-12.29-20.94,75.3,75.3,0,0,1-4.32-25.69V125.59h33.5V203.2q0,13.13,9.77,22.9a31.18,31.18,0,0,0,22.89,9.49A32.4,32.4,0,0,0,797,203.2V125.59Z"/>
          <path class="cls-3" d="M991.59,69.47V265.18H958.08V195.39q0-17-11.72-28.48A40.06,40.06,0,0,0,878,195.39a38.44,38.44,0,0,0,11.72,28.19,36.13,36.13,0,0,0,13,8.8,41.69,41.69,0,0,0,15.49,2.93,38.15,38.15,0,0,0,14.8-2.79l12,29.87q-12.84,6.42-29.59,6.42A69.57,69.57,0,0,1,887,263.09a68.54,68.54,0,0,1-22.47-15.78,72.59,72.59,0,0,1-14.8-23.45,76.54,76.54,0,0,1-5.3-28.47,77.33,77.33,0,0,1,5.3-28.76,72.7,72.7,0,0,1,14.8-23.45A68.68,68.68,0,0,1,887,127.4a69.57,69.57,0,0,1,28.34-5.72,65,65,0,0,1,24,4.19,73,73,0,0,1,18.7,10.61v-67Z"/>
          <path class="cls-3" d="M1117.22,212.14h-73.15a34.67,34.67,0,0,0,8.1,11.44,39.11,39.11,0,0,0,13.12,8.8,40.63,40.63,0,0,0,15.35,2.93A39.13,39.13,0,0,0,1101,230l34.9,14a70.33,70.33,0,0,1-24.29,18.29,73.91,73.91,0,0,1-99-38.39,71.62,71.62,0,0,1-5.72-28.47,72.35,72.35,0,0,1,5.72-28.76,73.56,73.56,0,0,1,39.23-39.23,75.14,75.14,0,0,1,57.51,0,73.59,73.59,0,0,1,39.22,39.23,72.36,72.36,0,0,1,5.73,28.76,69,69,0,0,1-2,16.75Zm-36.58-57q-16.19,0-28.47,11.73a38,38,0,0,0-8.1,11.72h73.15a38.32,38.32,0,0,0-8.1-11.72A38.77,38.77,0,0,0,1080.64,155.18Z"/>
          <path class="cls-3" d="M1239.22,121.68A72.51,72.51,0,0,1,1268,127.4a73.56,73.56,0,0,1,39.23,39.23,72.53,72.53,0,0,1,5.72,28.76,71.79,71.79,0,0,1-5.72,28.47A73.56,73.56,0,0,1,1268,263.09a75.14,75.14,0,0,1-57.51,0,73.59,73.59,0,0,1-39.22-39.23,71.62,71.62,0,0,1-5.73-28.47,72.36,72.36,0,0,1,5.73-28.76,73.59,73.59,0,0,1,39.22-39.23A72.53,72.53,0,0,1,1239.22,121.68Zm0,33.5A40,40,0,0,0,1199,195.39a38.41,38.41,0,0,0,11.73,28.19,36.18,36.18,0,0,0,13,8.8,41.78,41.78,0,0,0,15.5,2.93,40.7,40.7,0,0,0,15.35-2.93,39.21,39.21,0,0,0,13.12-8.8,40.09,40.09,0,0,0,0-56.67Q1255.41,155.18,1239.22,155.18Z"/>
        </g>
      </g>
    </g>
  </g>
</svg>
