<svg xmlns="http://www.w3.org/2000/svg" viewBox="0 0 1030.36 607.75">
  <defs>
    <style>
      .cls-1 {
        fill: #ff0844;
      }
    </style>
  </defs>
  <title>YOUDEO_LOGOICON_2-3</title>
  <g id="Calque_2" data-name="Calque 2">
    <g id="Calque_1-2" data-name="Calque 1">
      <g>
        <path class="cls-1" d="M789.2.05V0H665.91a249.13,249.13,0,0,1-.53,243.1h365C1030.36,109.49,922.56,1.09,789.2.05Z"/>
        <path class="cls-1" d="M608,0h-61.9C411.83,0,303,108.84,303,243.1H242.44l.42.17H0A120.05,120.05,0,0,0,120.67,363.94h0c0,.24,0,.48,0,.72A121.55,121.55,0,0,0,242.22,486.2V607.75c201.39,0,364.65-163.26,364.65-364.65h.28A200.22,200.22,0,0,0,608,0Zm-61.9,83.89a37.66,37.66,0,1,1-37.66,37.66A37.66,37.66,0,0,1,546.09,83.89Z"/>
      </g>
    </g>
  </g>
</svg>
